<?xml version="1.0" encoding="utf-8"?>
<!-- Generator: Adobe Illustrator 16.0.0, SVG Export Plug-In . SVG Version: 6.00 Build 0)  -->
<!DOCTYPE svg PUBLIC "-//W3C//DTD SVG 1.1//EN" "http://www.w3.org/Graphics/SVG/1.1/DTD/svg11.dtd">
<svg version="1.1" id="Layer_1"
	xmlns="http://www.w3.org/2000/svg"
	xmlns:xlink="http://www.w3.org/1999/xlink" x="0px" y="0px" viewBox="0 0 174.946 170.899" enable-background="new 0 0 174.946 170.899" xml:space="preserve">
	<path fill-rule="evenodd" clip-rule="evenodd" fill="#BDBEBF" d="M108.054,54.944c1.177,2.222,2.769,4,4.979,5.171
	c2.552-1.351,5.535-3.14,9.414-3.14h1.11c1.937,0,3.511,0.371,5.091,0.812c0.905,0.254,4.174,1.774,4.319,1.774
	c0.836,0,19.957-9.219,21.668-10.27c5.129-3.148,16.539-8.133,16.539-15.593v-1.106c0-4.027-2.776-13.984-4.431-15.887
	c-0.062,2.86-1.437,7.688-1.991,10.2c-0.644,2.949-2.216,6.191-3.759,8.242c-3.62,4.804-9.991,5.929-15.659,8.527
	c-2.32,1.063-6.397,2.391-9.009,3.176c-1.37,0.41-3.073,1.004-4.582,1.512c-1.401,0.468-3.217,0.91-4.504,1.402
	c-2.862,1.098-6.293,2.016-9.256,2.926c-1.99,0.612-7.658,2.476-9.379,2.621L108.054,54.944z M108.054,54.944"/>
	<path fill-rule="evenodd" clip-rule="evenodd" fill="#FEFEFE" d="M5.249,76.37c0.446,0.329,3.281,4.493,4.383,5.59
	c1.254,1.246,3.898,4.016,6.137,4.016h0.554c3.918,0,25.028-9.836,29.161-11.82c0.855-1.618,3.093-5.333,3.136-7.391
	c-1.664,0.387-5.367,1.922-7.14,2.644c-2.313,0.946-4.785,1.692-7.094,2.504c-2.617,0.918-12.117,4.457-14.742,4.457h-0.739
	c-2.222,0-6.328-5.625-7.793-7.16c-1.179-1.238-2.57-2.402-3.543-3.847c-0.57-0.848-2.394-4.188-2.874-4.508
	c-0.981,0.656-0.922,2.836-0.922,4.433v0.739L5.249,76.37z M68.554,83.945c1.328,0,4.984-3.293,4.984-4.25
	c0-0.243-1.715-1.477-0.367-1.477h0.184c1.371,0,2.031,1.215,2.031,2.586v0.371c0,4.363-3.856,10.71-8.121,10.71H66.71
	c-2.098,0-3.691-2.008-3.691-4.063V87.64c0-2.344,1.66-5.91,3.691-5.91c0.098,0,0.406,0.265,0.555,0.367
	c0,0.832,0.133,1.848,0.922,1.848H68.554z M64.862,62.147c0-1.879,2.504-5.735,3.555-6.789c1.438-1.446,4.68-2.817,7.52-2.817
	c-1.594,1.11-1.532,0.887-2.996,2.356c-1.036,1.031-1.496,1.843-2.387,2.968c-0.973,1.223-3.547,5.575-5.137,5.575
	c-0.426,0-0.555-0.129-0.555-0.555V62.147z M87.011,103.338c0.41-1.53,1.109-1.569,1.109-4.246v-0.37
	c0-3.272-0.797-6.777-1.679-9.216c-0.414-1.143-1.004-2.569-1.504-3.854c-0.395-1.012-1.364-2.657-1.618-3.739
	c-2.292-3.304-2.21-7.39-7.933-7.39c-1.859,0-4.16,0.492-5.664,0.984c-1,0.328-4.289,1.555-4.86,1.602
	c0.633-2.371,6.036-4.239,6.215-4.496c0.789-1.125,1.067-2.153,1.981-3.372c0.449-0.597,1.976-2.121,2.558-2.613
	c2.121-1.808,5.321-2.012,7.016-3.691c1.621-1.614,3.273-4.145,3.273-7.254v-0.371c0-3.711-2.628-4.617-6.46-4.617
	c-4.309,1.004-6.368,0.554-11.258,0.554c-3.93,0-9.348,3.016-12.184,4.434c-3,1.496-2.883,1.379-2.379,5.152
	c0.258,1.914,1.051,5.422,1.09,7.039l-6.449,12.012l11.617-1.668c-0.676,0.918-6.699,3.359-8.332,3.855
	c-1.59,0.485-2.965,1.004-4.664,1.43c-1.164,0.293-4.539,0.41-4.539,1.551v1.105c0,2.421,5.183,13.3,6.828,13.3
	c0.043,0,4.605-1.362,5.109-1.535c1.039-0.354,4.258-0.909,5.418-1.043c3.848-0.444,8.106-0.746,12.36-0.746
	c1.906,0,4.875,0.121,6.601,0.414c2.18,0.371,3.731,1.048,5.395,1.436v-2.033c0-0.425,0.129-0.554,0.554-0.554h0.184
	c1.234,0,2.399,1.312,2.399,2.587c0,1.379-0.891,2.956-2.211,2.956c-0.231,0-3.012-1.403-4.473-1.62
	c-1.781-0.271-3.715-0.414-5.68-0.414h-3.136c-4.403,0-8.321,0.53-12.04,1.069c-1.656,0.237-10.48,1.797-10.48,2.625
	c0,1.733,0.699,4.987,2.586,4.987h1.289c2.699,0,5.812-1.147,8.137-1.461c2.562-0.346,5.929-0.987,8.476-1.125
	C71.476,104.906,86.487,103.592,87.011,103.338L87.011,103.338z M108.054,54.944l0.552,0.367c1.721-0.145,7.389-2.008,9.379-2.621
	c2.963-0.91,6.394-1.828,9.256-2.926c1.287-0.492,3.103-0.934,4.504-1.402c1.509-0.508,3.212-1.103,4.582-1.512
	c2.611-0.785,6.688-2.113,9.009-3.176c5.672-2.598,12.039-3.723,15.659-8.527c1.543-2.051,3.115-5.293,3.759-8.242
	c0.551-2.512,1.93-7.34,1.991-10.2c-0.596-2.57-7.008-12.597-9.225-13.117v0.555c0,2.398,0.922,3.531,0.922,5.726
	c0,1.946-0.168,3.922-0.192,5.536c-0.031,2.195-0.316,3.746-0.363,5.363c-0.125,4.472-1.233,5.707-4.366,7.269
	c-5.072,2.528-10.664,5.078-16.009,7.25c-5.517,2.243-10.719,4.582-16.276,6.801c-2.83,1.129-5.431,2.234-8.254,3.375
	c-1.356,0.551-2.785,1.027-4.076,1.652c-1.213,0.586-1.588,2.645-1.588,4.317v0.371C107.316,53.144,107.818,53.933,108.054,54.944
	L108.054,54.944z M127.433,66.765c2.509,0,4.669-0.957,6.462-1.109v-0.368c-1.168-0.097-2.41-0.554-3.509-0.554h-4.246
	c-1.452,0-4.987,0.543-5.534,1.293l5.702,0.854L127.433,66.765z M127.433,66.765"/>
	<path fill-rule="evenodd" clip-rule="evenodd" fill="#7D241E" d="M99.744,66.027v1.108l-1.092,0.754
	c-4.524-0.016-6.461,0.949-10.24,1.574c-1.758,0.289-3.109,0.664-4.832,1.07c-0.629,0.149-4.676,1.036-4.875,1.036h-0.738
	c-0.895,0-1.477-0.586-1.477-1.481v-0.183c0-0.512,0.602-0.891,0.922-1.11c4.367,0,8.301-5.941,10.188-8.828
	c1.195-1.828,2.617-3.945,4.824-4.781c1.34-0.508,5.388-2.844,6.953-2.09l0.555,0.555l0.207,1.289
	c0.677,1.047,2.746,2.75,2.746,4.437v0.551c0,1.855-2.31,4.621-3.69,4.988l0.511,0.594L99.744,66.027z M79.445,50.694
	c3.832,0,6.46,0.906,6.46,4.617v0.371c0,3.109-1.652,5.64-3.273,7.254c-1.695,1.679-4.895,1.883-7.016,3.691
	c-0.582,0.492-2.109,2.016-2.558,2.613c-0.914,1.219-1.192,2.247-1.981,3.372c-0.179,0.257-5.582,2.125-6.215,4.496
	c0.571-0.047,3.86-1.274,4.86-1.602c1.504-0.492,3.805-0.984,5.664-0.984c5.723,0,5.641,4.086,7.933,7.39
	c0.684-0.304,7.046,5.925,7.985,6.968c1.332,1.478,1.802,3.168,3.644,4.113c1.74,0.891,3.442,1.664,6.09,1.664
	c4.31,0,7.931-1.359,10.449-3.209c2.606-1.916,3.763-5.474,3.763-9.908v-1.109c0-2.785-1.265-8.734-2.216-10.527l-0.221-1.657
	c-0.121-1.074,2.096-2.781,2.879-3.258c1.375-0.839,2.754-1.195,4.332-1.761c3.879-1.399,5.269-1.453,10.545-1.453
	c-0.983-0.856-4.565-1.661-6.459-1.661h-0.922c-6.404,0-10.875,4.618-11.443,4.618c-3.217,0-9.413-8.875-9.413-12.192v-1.664
	c0-1.426,0.448-2.277,0.555-3.508c-1.44-0.765-5.024-2.031-7.198-2.031h-0.923c-3.418,0-5.653,1.746-8.11,2.231
	C86.327,47.631,79.78,50.483,79.445,50.694L79.445,50.694z M83.319,81.913c0.254,1.082,1.223,2.727,1.618,3.739
	c0.5,1.285,1.09,2.712,1.504,3.854c0.882,2.438,1.679,5.943,1.679,9.216v0.37c0,2.677-0.699,2.716-1.109,4.246
	c4.065,0,8.608-1.457,12.552-1.66c1.495-0.077,4.582-0.793,6.104-1.094c1.965-0.39,4.11-0.547,6.063-0.953
	c3.332-0.69,3.014,0.156,4.625-2.578c0.803-1.366,1.789-3.09,2.526-4.482c0.815-1.544,4.306-8.357,4.306-9.919v-0.371
	c0-1.469-8.767-11.45-10.154-12.375c0.951,1.793,2.216,7.742,2.216,10.527v1.109c0,4.434-1.156,7.992-3.763,9.908
	c-2.519,1.85-6.14,3.209-10.449,3.209c-2.647,0-4.35-0.773-6.09-1.664c-1.842-0.945-2.312-2.636-3.644-4.113
	C90.365,87.838,84.003,81.608,83.319,81.913L83.319,81.913z M99.563,53.281l0.37,0.371v1.292c-0.831,1.242-5.715,1.843-6.831,3.507
	c0.725,1.086,1.268,1.071,1.961,2.657c0.379,0.871,0.924,2.976,0.444,4.019l2.022-0.211h0.926c0.529,0,1.009,0.782,1.289,1.11
	l-0.038-0.517l-0.511-0.594c1.381-0.367,3.69-3.133,3.69-4.988v-0.551c0-1.687-2.069-3.39-2.746-4.437l-0.207-1.289l-0.555-0.555
	L99.563,53.281z M99.563,53.281"/>
	<path fill-rule="evenodd" clip-rule="evenodd" fill="#BDBEBF" d="M5.249,76.37c0.059,2.727,3.563,10.093,4.906,11.899
	c2.321,3.121,4.903,6.39,10.227,6.39h0.738c3.828,0,6.117-0.832,9.231-1.293c2.261-0.334,6.468-1.992,8.304-2.031
	c-0.117-1.383-1.109-2.053-1.109-4.621V85.42c0-2.933,1.957-4.629,3.934-5.668c1.789-0.937,1.453-0.656,2.343-2.457
	c0.504-1.019,1.11-2.101,1.661-3.14c-4.133,1.984-25.243,11.82-29.161,11.82h-0.554c-2.239,0-4.883-2.77-6.137-4.016
	C8.53,80.863,5.695,76.699,5.249,76.37L5.249,76.37z M5.249,76.37"/>
	<path fill-rule="evenodd" clip-rule="evenodd" fill="#050605" d="M83.136,164.908c-7.484,0-20.742-7.332-23.625-11.636h6.644
	c5.141,3.444,10.395,6.836,19.012,6.836h1.106c8.863,0,14.101-3.297,19.379-6.836h6.832c-1.457,2.177-7.563,6.039-10.215,7.511
	c-2.742,1.524-9.563,4.125-13.599,4.125H83.136z M57.714,159.502c1.84,1.828,5.07,4.029,7.336,5.406
	c4.594,2.797,12.383,5.911,19.746,5.911h1.477c7.777,0,15.312-2.853,20.195-5.836c2.996-1.831,4.914-3.2,7.44-5.481
	c0.836-0.754,6.254-6.229,6.697-6.229h28.422v-3.513H22.78v3.513h28.243C51.386,153.272,56.995,158.787,57.714,159.502
	L57.714,159.502z M60.62,44.413c3.008-0.699,4.735-1.476,8.672-1.476h3.324c2.782,0,3.735,0.277,5.969-0.864
	c1.692-0.859,3.16-1.48,4.977-2.222c2.918-1.192,7.836-2.824,11.754-2.824c4.635,0,7,1.621,10.336,2.398
	c-3.188-2.773-11.817-7.019-17.72-7.019h-2.766c-5.414,0-10.879,1.917-14.336,3.941C67.659,38.202,62.519,41.573,60.62,44.413
	L60.62,44.413z M38.101,62.702l7.015-2.586c0-2.953,0.176-5.933,1.289-7.761c1.278-2.102,4.414-3.035,5.102-3.942
	c3.02-3.988,4.801-6.422,8.328-9.957c5.11-5.117,15.192-11.222,25.332-11.222h2.028c4.722,0,10.894,2.129,14.152,3.757
	c2.16,1.082,3.722,2.196,5.599,3.45c1.94,1.293,3.416,3.011,4.963,4.011l5.556-2.168c-0.237-0.906-4.81-4.683-5.828-5.433
	c-2.418-1.778-4.274-2.953-7.03-4.414c-4.688-2.485-10.91-4.742-17.961-4.742h-3.137c-5.914,0-12.59,2.91-16.676,4.925
	c-4.859,2.395-8.633,5.715-12.258,9.344c-3.687,3.688-6.664,7.57-9.496,12.106C43.812,50.101,38.152,60.409,38.101,62.702
	L38.101,62.702z M45.484,74.156c-0.551,1.039-1.157,2.121-1.661,3.14c-0.89,1.801-0.554,1.52-2.343,2.457
	c-1.977,1.039-3.934,2.735-3.934,5.668v1.292c0,2.568,0.996,3.238,1.109,4.621c-1.836,0.039-6.043,1.697-8.304,2.031
	c-3.114,0.461-5.403,1.293-9.231,1.293h-0.738c-5.324,0-7.906-3.269-10.227-6.39c-1.343-1.806-4.847-9.172-4.906-11.899
	L3.773,66.027v-0.739c0-1.597-0.059-3.777,0.922-4.433c0.48,0.32,2.304,3.66,2.874,4.508c0.973,1.445,2.364,2.609,3.543,3.847
	c1.465,1.535,5.571,7.16,7.793,7.16h0.739c2.625,0,12.125-3.539,14.742-4.457c2.309-0.812,4.781-1.558,7.094-2.504
	c1.773-0.722,5.476-2.257,7.14-2.644C48.577,68.823,46.339,72.538,45.484,74.156L45.484,74.156z M127.433,66.765l-1.125,0.117
	l-5.702-0.854c0.547-0.75,4.082-1.293,5.534-1.293h4.246c1.099,0,2.341,0.457,3.509,0.554v0.368
	C132.102,65.808,129.941,66.765,127.433,66.765L127.433,66.765z M113.033,69.906c1.388,0.925,10.154,10.906,10.154,12.375v0.371
	c0,1.562-3.49,8.375-4.306,9.919c-0.737,1.393-1.724,3.116-2.526,4.482c-1.611,2.734-1.293,1.888-4.625,2.578
	c-1.953,0.406-4.099,0.563-6.063,0.953c-1.522,0.301-4.609,1.017-6.104,1.094c-3.943,0.203-8.486,1.66-12.552,1.66
	c-0.524,0.254-15.535,1.568-17.348,1.664c-2.547,0.138-5.914,0.779-8.476,1.125c-2.325,0.313-5.438,1.461-8.137,1.461h-1.289
	c-1.887,0-2.586-3.254-2.586-4.987c0-0.828,8.824-2.388,10.48-2.625c3.719-0.539,7.637-1.069,12.04-1.069h3.136
	c1.965,0,3.899,0.143,5.68,0.414c1.461,0.217,4.242,1.62,4.473,1.62c1.32,0,2.211-1.577,2.211-2.956
	c0-1.275-1.165-2.587-2.399-2.587h-0.184c-0.425,0-0.554,0.129-0.554,0.554v2.033c-1.664-0.388-3.215-1.064-5.395-1.436
	c-1.726-0.293-4.695-0.414-6.601-0.414c-4.254,0-8.512,0.302-12.36,0.746c-1.16,0.134-4.379,0.688-5.418,1.043
	c-0.504,0.173-5.066,1.535-5.109,1.535c-1.645,0-6.828-10.879-6.828-13.3v-1.105c0-1.141,3.375-1.258,4.539-1.551
	c1.699-0.426,3.074-0.945,4.664-1.43c1.633-0.496,7.656-2.938,8.332-3.855l-11.617,1.668l6.449-12.012
	c-0.039-1.617-0.832-5.125-1.09-7.039c-0.504-3.773-0.621-3.656,2.379-5.152c2.836-1.418,8.254-4.434,12.184-4.434
	c4.89,0,6.949,0.45,11.258-0.554c0.335-0.211,6.882-3.063,7.21-3.125c2.457-0.485,4.692-2.231,8.11-2.231h0.923
	c2.174,0,5.758,1.266,7.198,2.031c-0.106,1.231-0.555,2.082-0.555,3.508v1.664c0,3.317,6.196,12.192,9.413,12.192
	c0.568,0,5.039-4.618,11.443-4.618h0.922c1.894,0,5.476,0.805,6.459,1.661c-5.276,0-6.666,0.054-10.545,1.453
	c-1.578,0.566-2.957,0.922-4.332,1.761c-0.783,0.477-3,2.184-2.879,3.258L113.033,69.906z M166.744,16.706
	c1.654,1.903,4.431,11.86,4.431,15.887v1.106c0,7.46-11.41,12.445-16.539,15.593c-1.715,1.051-20.832,10.27-21.668,10.27
	c-0.146,0-3.414-1.52-4.319-1.774c-1.58-0.441-3.154-0.812-5.091-0.812h-1.11c-3.879,0-6.862,1.789-9.414,3.14
	c-2.211-1.171-3.803-2.949-4.979-5.171c-0.235-1.012-0.737-1.801-0.737-3.141v-0.371c0-1.672,0.375-3.731,1.588-4.317
	c1.291-0.625,2.72-1.101,4.076-1.652c2.823-1.141,5.424-2.246,8.254-3.375c5.558-2.219,10.76-4.558,16.276-6.801
	c5.345-2.172,10.937-4.722,16.009-7.25c3.133-1.562,4.241-2.797,4.366-7.269c0.047-1.617,0.332-3.168,0.363-5.363
	c0.024-1.614,0.192-3.59,0.192-5.536c0-2.195-0.922-3.328-0.922-5.726V3.588C159.736,4.108,166.148,14.135,166.744,16.706
	L166.744,16.706z M153.64,3.222v1.477c0,0.945,1.109,3.308,1.109,5.542v3.508c0,3.36-0.384,5.95-0.755,8.852
	c-0.28,2.187-3.909,3.082-5.707,3.894c-4.436,2-9.018,3.891-13.471,5.911c-2.197,0.996-27.215,11.453-27.317,11.453
	c-0.048,0-4.394-1.993-5.462-2.289c-2.082-0.582-3.889-1.407-6.534-1.407h-1.476c-2.365,0-8.533,2.434-10.599,3.25
	c-1.66,0.657-3.371,1.731-4.797,2.219c-2.336,0.797-3.484,0.629-6.016,0.629H68.37c-4.64,0-8.398,1.801-11.566,3.387
	c-3.133,1.57-8.367,2.656-8.367,6.773v4.801c0,0.5,0.09,0.512,0.183,0.926c-3.933,1.89-9.582,3.531-13.843,5.168
	c-4.211,1.617-9.711,3.94-14.211,4.992c-3.426-1.817-5.457-4.481-8.075-7.067c-0.664-0.656-1.183-1.191-1.843-1.847
	c-1.125-1.113-0.731-1.11-1.461-2.418c-0.766-1.379-2-3.817-3.938-3.817H4.695c-3.153,0-4.614,3.934-4.614,7.204v2.772
	c0,2.598,1.297,8.855,1.957,11.156c1.067,3.719,2.024,6.414,3.578,9.531c1.086,2.172,3.895,6.055,5.723,7.391
	c2.965,2.172,4.824,3.142,9.965,3.142h0.738c3.367,0,15.684-2.813,17.824-3.836l4.141,7.345c0,5.924,2.383,10.896,8.305,10.896
	h1.109c0.535,0,4.828-0.852,5.41-1.051c1.699-0.578,3.703-0.737,5.645-1c3.484-0.471,8.472-1.137,12.011-1.276
	c3.989-0.156,8.481-1.005,12-1.106c1.778-0.05,9.766-1.246,11.589-1.703c3.216-0.804,8.318-0.863,11.326-1.781
	c5.019-1.53,6.237,0.375,8.897-4.391c1.465-2.625,8.237-15.402,8.237-18.17v-0.184c0-3.016-7.897-11.133-9.616-13.516l8.112,1.157
	l0.029-0.204h1.475c3.853,0,7.164-1.332,10.154-2.031c0-2.222-1.485-3.984-2.399-5.355c10.116-5.36,38.573-14.875,38.573-28.078
	v-0.371c0-6.407-3.062-15.771-5.461-19.84c-2.135-3.625-6.717-13.778-11.519-13.778h-1.106C155.402,0.081,153.64,1.82,153.64,3.222
	L153.64,3.222z M32.027,108.881h-9.43v3.695h21.781l-2.16-3.433l-4.484-0.078l-0.227-1.657l0.039-8.871l-5.949,1.481L32.027,108.881
	z M126.792,95.127c-0.988,1.981-2.031,4.029-3.164,5.883c-3.647,5.988-3.183,5.566-11.19,6.902
	c-5.06,0.844-10.607,1.457-15.599,2.494c-2.156,0.448-5.621,0.811-7.965,1.078c-2.601,0.297-5.012,0.905-7.953,0.905v0.187h68.106
	v-3.511h-9.416l0.865-9.409l-0.125-1.119c0-4.793-0.279-10.092-0.996-14.335c-0.369-2.168-0.539-4.507-1.103-6.468
	c-0.254-0.875-1.363-5.646-1.406-6.164l-5.723,0.921c0.241,1.887,0.938,3.735,1.245,5.586c0.332,2.012,0.677,3.692,1.043,5.789
	c0.634,3.583,1.033,8.429,1.033,12.455v4.987c0,1.37,0.084,7.758-0.922,7.758h-3.875l0.655-10.336l-0.103-1.485l-0.504-8.316
	C128.874,89.819,127.515,93.683,126.792,95.127L126.792,95.127z M86.456,66.397c0.168-0.621,2.043-3.438,2.953-3.512v1.478
	C89.408,65.952,87.999,66.363,86.456,66.397L86.456,66.397z M99.744,66.027c-0.28-0.328-0.76-1.11-1.289-1.11h-0.926l-2.022,0.211
	c0.479-1.043-0.065-3.148-0.444-4.019c-0.693-1.586-1.236-1.571-1.961-2.657c1.116-1.664,6-2.265,6.831-3.507v-1.292l-0.555-0.555
	c-1.565-0.754-5.613,1.582-6.953,2.09c-2.207,0.836-3.629,2.953-4.824,4.781c-1.887,2.887-5.821,8.828-10.188,8.828
	c-0.32,0.219-0.922,0.598-0.922,1.11v0.183c0,0.896,0.582,1.481,1.477,1.481h0.738c0.199,0,4.246-0.887,4.875-1.036
	c1.723-0.406,3.074-0.781,4.832-1.07c3.779-0.625,5.715-1.59,10.24-1.574l1.092-0.754V66.027z M64.862,62.147v0.738
	c0,0.426,0.129,0.555,0.555,0.555c1.59,0,4.164-4.352,5.137-5.575c0.891-1.125,1.351-1.938,2.387-2.968
	c1.464-1.469,1.402-1.246,2.996-2.356c-2.84,0-6.082,1.371-7.52,2.817C67.366,56.413,64.862,60.269,64.862,62.147L64.862,62.147z
	 M73.538,79.694c0,0.958-3.656,4.25-4.984,4.25h-0.367c-0.789,0-0.922-1.017-0.922-1.848c-0.149-0.102-0.457-0.367-0.555-0.367
	c-2.031,0-3.691,3.566-3.691,5.91v0.183c0,2.055,1.593,4.063,3.691,4.063h0.555c4.265,0,8.121-6.347,8.121-10.71v-0.371
	c0-1.371-0.66-2.586-2.031-2.586h-0.184C71.823,78.217,73.538,79.452,73.538,79.694L73.538,79.694z M73.538,79.694"/>
	<path fill="none" stroke="#050605" stroke-width="0.162" d="M83.136,164.908c-7.484,0-20.742-7.332-23.625-11.637h6.644
	c5.141,3.447,10.395,6.836,19.012,6.836h1.106c8.863,0,14.101-3.297,19.379-6.836h6.832c-1.457,2.176-7.563,6.039-10.215,7.512
	c-2.742,1.523-9.563,4.125-13.599,4.125H83.136z M57.714,159.503c1.84,1.828,5.07,4.026,7.336,5.405
	c4.594,2.798,12.383,5.91,19.746,5.91h1.477c7.777,0,15.312-2.85,20.195-5.836c2.996-1.832,4.914-3.199,7.44-5.479
	c0.836-0.754,6.254-6.231,6.697-6.231h28.422v-3.51H22.78v3.51h28.243C51.386,153.271,56.995,158.788,57.714,159.503L57.714,159.503
	z M60.62,44.413c3.008-0.699,4.735-1.477,8.672-1.477h3.324c2.782,0,3.735,0.278,5.969-0.863c1.692-0.859,3.16-1.479,4.977-2.223
	c2.918-1.191,7.836-2.824,11.754-2.824c4.635,0,7,1.621,10.336,2.399c-3.188-2.774-11.817-7.021-17.72-7.021h-2.766
	c-5.414,0-10.879,1.918-14.336,3.942C67.659,38.202,62.519,41.573,60.62,44.413L60.62,44.413z M38.101,62.702l7.015-2.586
	c0-2.953,0.176-5.934,1.289-7.762c1.278-2.101,4.414-3.035,5.102-3.941c3.02-3.988,4.801-6.422,8.328-9.957
	c5.11-5.117,15.192-11.223,25.332-11.223h2.028c4.722,0,10.894,2.129,14.152,3.758c2.16,1.082,3.722,2.195,5.599,3.449
	c1.94,1.293,3.416,3.012,4.963,4.012l5.556-2.168c-0.237-0.906-4.81-4.684-5.828-5.434c-2.418-1.777-4.274-2.953-7.03-4.414
	c-4.688-2.484-10.91-4.742-17.961-4.742h-3.137c-5.914,0-12.59,2.91-16.676,4.926c-4.859,2.394-8.633,5.715-12.258,9.344
	c-3.687,3.687-6.664,7.57-9.496,12.105C43.812,50.1,38.152,60.409,38.101,62.702L38.101,62.702z M45.484,74.155
	c-0.551,1.039-1.157,2.121-1.661,3.141c-0.89,1.801-0.554,1.519-2.343,2.457c-1.977,1.039-3.934,2.734-3.934,5.668v1.293
	c0,2.565,0.996,3.238,1.109,4.621c-1.836,0.039-6.043,1.694-8.304,2.03c-3.114,0.461-5.403,1.293-9.231,1.293h-0.738
	c-5.324,0-7.906-3.27-10.227-6.391c-1.343-1.804-4.847-9.17-4.906-11.897L3.773,66.026v-0.738c0-1.598-0.059-3.777,0.922-4.434
	c0.48,0.321,2.304,3.66,2.874,4.508c0.973,1.445,2.364,2.609,3.543,3.848c1.465,1.535,5.571,7.16,7.793,7.16h0.739
	c2.625,0,12.125-3.539,14.742-4.457c2.309-0.813,4.781-1.559,7.094-2.504c1.773-0.723,5.476-2.258,7.14-2.645
	C48.577,68.823,46.339,72.538,45.484,74.155L45.484,74.155z M127.433,66.764l-1.125,0.118l-5.702-0.856
	c0.547-0.75,4.082-1.293,5.534-1.293h4.246c1.099,0,2.341,0.457,3.509,0.555v0.367C132.102,65.807,129.941,66.764,127.433,66.764
	L127.433,66.764z M113.033,69.905c1.388,0.926,10.154,10.906,10.154,12.375v0.371c0,1.563-3.49,8.375-4.306,9.917
	c-0.737,1.396-1.724,3.117-2.526,4.486c-1.611,2.733-1.293,1.885-4.625,2.578c-1.953,0.405-4.099,0.561-6.063,0.952
	c-1.522,0.302-4.609,1.015-6.104,1.095c-3.943,0.203-8.486,1.659-12.552,1.659c-0.524,0.255-15.535,1.565-17.348,1.664
	c-2.547,0.136-5.914,0.776-8.476,1.125c-2.325,0.312-5.438,1.462-8.137,1.462h-1.289c-1.887,0-2.586-3.255-2.586-4.99
	c0-0.828,8.824-2.386,10.48-2.625c3.719-0.539,7.637-1.07,12.04-1.07h3.136c1.965,0,3.899,0.146,5.68,0.414
	c1.461,0.22,4.242,1.621,4.473,1.621c1.32,0,2.211-1.578,2.211-2.957c0-1.272-1.165-2.586-2.399-2.586h-0.184
	c-0.425,0-0.554,0.129-0.554,0.556v2.03c-1.664-0.385-3.215-1.062-5.395-1.432c-1.726-0.293-4.695-0.414-6.601-0.414
	c-4.254,0-8.512,0.299-12.36,0.746c-1.16,0.131-4.379,0.686-5.418,1.043c-0.504,0.172-5.066,1.534-5.109,1.534
	c-1.645,0-6.828-10.879-6.828-13.301v-1.104c0-1.141,3.375-1.258,4.539-1.551c1.699-0.426,3.074-0.946,4.664-1.43
	c1.633-0.496,7.656-2.937,8.332-3.854l-11.617,1.668l6.449-12.012c-0.039-1.617-0.832-5.125-1.09-7.039
	c-0.504-3.774-0.621-3.656,2.379-5.153c2.836-1.418,8.254-4.433,12.184-4.433c4.89,0,6.949,0.449,11.258-0.555
	c0.335-0.211,6.882-3.062,7.21-3.125c2.457-0.484,4.692-2.23,8.11-2.23h0.923c2.174,0,5.758,1.265,7.198,2.031
	c-0.106,1.23-0.555,2.082-0.555,3.508v1.664c0,3.316,6.196,12.191,9.413,12.191c0.568,0,5.039-4.617,11.443-4.617h0.922
	c1.894,0,5.476,0.805,6.459,1.66c-5.276,0-6.666,0.055-10.545,1.453c-1.578,0.567-2.957,0.922-4.332,1.762
	c-0.783,0.478-3,2.185-2.879,3.258L113.033,69.905z M166.744,16.706c1.654,1.902,4.431,11.859,4.431,15.887v1.104
	c0,7.461-11.41,12.445-16.539,15.594c-1.715,1.051-20.832,10.269-21.668,10.269c-0.146,0-3.414-1.519-4.319-1.773
	c-1.58-0.441-3.154-0.813-5.091-0.813h-1.11c-3.879,0-6.862,1.789-9.414,3.141c-2.211-1.172-3.803-2.949-4.979-5.172
	c-0.235-1.012-0.737-1.801-0.737-3.14v-0.372c0-1.671,0.375-3.73,1.588-4.316c1.291-0.625,2.72-1.102,4.076-1.652
	c2.823-1.141,5.424-2.246,8.254-3.375c5.558-2.219,10.76-4.559,16.276-6.801c5.345-2.172,10.937-4.723,16.009-7.25
	c3.133-1.563,4.241-2.797,4.366-7.27c0.047-1.617,0.332-3.168,0.363-5.363c0.024-1.613,0.192-3.59,0.192-5.535
	c0-2.195-0.922-3.328-0.922-5.727V3.589C159.736,4.108,166.148,14.136,166.744,16.706L166.744,16.706z M153.64,3.221v1.477
	c0,0.945,1.109,3.31,1.109,5.543v3.508c0,3.359-0.384,5.949-0.755,8.851c-0.28,2.188-3.909,3.082-5.707,3.895
	c-4.436,2-9.018,3.891-13.471,5.91c-2.197,0.996-27.215,11.453-27.317,11.453c-0.048,0-4.394-1.992-5.462-2.289
	c-2.082-0.582-3.889-1.406-6.534-1.406h-1.476c-2.365,0-8.533,2.434-10.599,3.25c-1.66,0.656-3.371,1.73-4.797,2.219
	c-2.336,0.797-3.484,0.629-6.016,0.629H68.37c-4.64,0-8.398,1.8-11.566,3.386c-3.133,1.571-8.367,2.657-8.367,6.774v4.8
	c0,0.5,0.09,0.512,0.183,0.926c-3.933,1.891-9.582,3.532-13.843,5.168c-4.211,1.617-9.711,3.942-14.211,4.992
	c-3.426-1.816-5.457-4.48-8.075-7.066c-0.664-0.656-1.183-1.19-1.843-1.848c-1.125-1.113-0.731-1.109-1.461-2.418
	c-0.766-1.378-2-3.816-3.938-3.816H4.695c-3.153,0-4.614,3.935-4.614,7.203v2.774c0,2.597,1.297,8.854,1.957,11.156
	c1.067,3.719,2.024,6.414,3.578,9.53c1.086,2.173,3.895,6.056,5.723,7.393c2.965,2.172,4.824,3.139,9.965,3.139h0.738
	c3.367,0,15.684-2.812,17.824-3.836l4.141,7.344c0,5.927,2.383,10.9,8.305,10.9h1.109c0.535,0,4.828-0.854,5.41-1.052
	c1.699-0.577,3.703-0.739,5.645-1c3.484-0.474,8.472-1.138,12.011-1.278c3.989-0.156,8.481-1.002,12-1.104
	c1.778-0.052,9.766-1.246,11.589-1.703c3.216-0.806,8.318-0.862,11.326-1.78c5.019-1.533,6.237,0.375,8.897-4.392
	c1.465-2.625,8.237-15.402,8.237-18.172v-0.183c0-3.016-7.897-11.133-9.616-13.516l8.112,1.156l0.029-0.203h1.475
	c3.853,0,7.164-1.332,10.154-2.031c0-2.223-1.485-3.985-2.399-5.356c10.116-5.359,38.573-14.875,38.573-28.078v-0.371
	c0-6.406-3.062-15.769-5.461-19.84c-2.135-3.625-6.717-13.777-11.519-13.777h-1.106C155.402,0.081,153.64,1.819,153.64,3.221
	L153.64,3.221z M32.027,108.883h-9.43v3.693h21.781l-2.16-3.434l-4.484-0.078l-0.227-1.656l0.039-8.87l-5.949,1.479L32.027,108.883z
	 M126.792,95.128c-0.988,1.979-2.031,4.026-3.164,5.884c-3.647,5.987-3.183,5.564-11.19,6.901
	c-5.06,0.844-10.607,1.457-15.599,2.491c-2.156,0.449-5.621,0.814-7.965,1.078c-2.601,0.297-5.012,0.906-7.953,0.906v0.188h68.106
	v-3.512h-9.416l0.865-9.41l-0.125-1.116c0-4.793-0.279-10.095-0.996-14.336c-0.369-2.168-0.539-4.508-1.103-6.469
	c-0.254-0.875-1.363-5.644-1.406-6.164l-5.723,0.922c0.241,1.887,0.938,3.734,1.245,5.586c0.332,2.012,0.677,3.691,1.043,5.789
	c0.634,3.582,1.033,8.43,1.033,12.453v4.988c0,1.373,0.084,7.758-0.922,7.758h-3.875l0.655-10.336l-0.103-1.483l-0.504-8.315
	C128.874,89.818,127.515,93.682,126.792,95.128L126.792,95.128z M86.456,66.397c0.168-0.621,2.043-3.437,2.953-3.511v1.476
	C89.408,65.952,87.999,66.362,86.456,66.397L86.456,66.397z M99.744,66.026c-0.28-0.328-0.76-1.109-1.289-1.109h-0.926l-2.022,0.211
	c0.479-1.043-0.065-3.149-0.444-4.02c-0.693-1.586-1.236-1.57-1.961-2.656c1.116-1.664,6-2.266,6.831-3.508v-1.293l-0.555-0.554
	c-1.565-0.754-5.613,1.582-6.953,2.089c-2.207,0.836-3.629,2.953-4.824,4.782c-1.887,2.886-5.821,8.828-10.188,8.828
	c-0.32,0.218-0.922,0.597-0.922,1.109v0.184c0,0.894,0.582,1.48,1.477,1.48h0.738c0.199,0,4.246-0.887,4.875-1.035
	c1.723-0.406,3.074-0.781,4.832-1.07c3.779-0.625,5.715-1.59,10.24-1.575l1.092-0.753V66.026z M64.862,62.147v0.739
	c0,0.425,0.129,0.554,0.555,0.554c1.59,0,4.164-4.351,5.137-5.574c0.891-1.125,1.351-1.937,2.387-2.969
	c1.464-1.468,1.402-1.246,2.996-2.355c-2.84,0-6.082,1.371-7.52,2.816C67.366,56.413,64.862,60.268,64.862,62.147L64.862,62.147z
	 M73.538,79.694c0,0.957-3.656,4.25-4.984,4.25h-0.367c-0.789,0-0.922-1.015-0.922-1.847c-0.149-0.102-0.457-0.368-0.555-0.368
	c-2.031,0-3.691,3.567-3.691,5.91v0.184c0,2.056,1.593,4.064,3.691,4.064h0.555c4.265,0,8.121-6.349,8.121-10.711v-0.371
	c0-1.372-0.66-2.586-2.031-2.586h-0.184C71.823,78.218,73.538,79.452,73.538,79.694L73.538,79.694z M73.538,79.694"/>
	<path fill-rule="evenodd" clip-rule="evenodd" fill="#7D241E" d="M28.069,134.933h6.055v-2.177h-6.055V134.933z M28.069,140.74
	h6.055v-2.261h-6.055V140.74z M22.632,145.531v-17.517h13.242c1.285,0,2.215,0.272,2.793,0.823c0.582,0.552,0.871,1.431,0.871,2.65
	v2.461c0,0.526-0.093,0.959-0.281,1.295c-0.188,0.34-0.586,0.735-1.195,1.188c0.55,0.202,0.933,0.495,1.148,0.875
	c0.219,0.375,0.328,0.983,0.328,1.823v2.461c0,1.38-0.297,2.384-0.886,3.005c-0.59,0.62-1.532,0.935-2.821,0.935H22.632z
	 M46.995,135.022h5.61v-2.267h-5.61V135.022z M41.577,145.531v-17.517h12.285c1.43,0,2.473,0.288,3.137,0.862
	c0.664,0.578,0.996,1.478,0.996,2.699v2.231c0,0.815-0.152,1.437-0.457,1.854c-0.304,0.418-0.84,0.762-1.601,1.032
	c0.777,0.272,1.316,0.613,1.613,1.015c0.297,0.406,0.445,1.035,0.445,1.888v5.935h-5.367v-6.517h-5.633v6.517H41.577z
	 M76.452,140.812c0,1.565-0.355,2.741-1.062,3.535c-0.711,0.788-1.77,1.185-3.184,1.185h-8.058c-1.422,0-2.493-0.396-3.203-1.185
	c-0.715-0.794-1.071-1.97-1.071-3.535v-8.056c0-1.604,0.352-2.797,1.051-3.573c0.703-0.776,1.777-1.168,3.223-1.168h8.058
	c1.449,0,2.521,0.387,3.211,1.155c0.692,0.771,1.035,1.965,1.035,3.586V140.812z M65.359,140.74h5.632v-7.984h-5.632V140.74z
	 M78.491,145.531v-17.517h5.371v6.707h1.27l4.944-6.707h6.447l-6.654,8.604l7.033,8.912h-6.801l-4.97-6.689h-1.27v6.689H78.491z
	 M97.511,145.531v-17.517h14.608v4.741h-9.125v2.013h9.078v3.961h-9.078v2.011h9.056v4.791H97.511z M119.568,135.022h5.61v-2.267
	h-5.61V135.022z M114.154,145.531v-17.517h12.283c1.428,0,2.471,0.288,3.135,0.862c0.664,0.578,1,1.478,1,2.699v2.231
	c0,0.815-0.155,1.437-0.461,1.854c-0.304,0.418-0.838,0.762-1.601,1.032c0.776,0.272,1.315,0.613,1.613,1.015
	c0.301,0.406,0.448,1.035,0.448,1.888v5.935h-5.371v-6.517h-5.633v6.517H114.154z M137.486,134.908h3.978v-2.152h-3.978V134.908z
	 M139.912,140.74h3.349v-2.148h-3.349V140.74z M132.191,145.531v-4.791h6.601v-2.148h-1.281c-1.953,0-3.305-0.25-4.051-0.754
	s-1.121-1.354-1.121-2.551v-3.828c0-1.16,0.422-2.022,1.267-2.594c0.84-0.566,2.135-0.851,3.881-0.851h1.306v-2.906h1.12v2.906
	h1.552v-2.906h1.121v2.906h5.219v4.741h-5.219v2.152h2.392c1.383,0,2.379,0.25,2.991,0.754c0.613,0.504,0.922,1.317,0.922,2.438
	v4.293c0,0.953-0.348,1.716-1.038,2.284c-0.697,0.566-1.638,0.854-2.828,0.854h-2.438v3.729h-1.121v-3.729h-1.552v3.752h-1.12
	v-3.752H132.191z M132.191,145.531"/>
	<path fill-rule="evenodd" clip-rule="evenodd" fill="#050605" d="M83.319,81.913c0.254,1.082,1.223,2.727,1.618,3.739
	c0.5,1.285,1.09,2.712,1.504,3.854c0.882,2.438,1.679,5.943,1.679,9.216v0.37c0,2.677-0.699,2.716-1.109,4.246
	c4.065,0,8.608-1.457,12.552-1.66c1.495-0.077,4.582-0.793,6.104-1.094c1.965-0.39,4.11-0.547,6.063-0.953
	c3.332-0.69,3.014,0.156,4.625-2.578c0.803-1.366,1.789-3.09,2.526-4.482c0.815-1.544,4.306-8.357,4.306-9.919v-0.371
	c0-1.469-8.767-11.45-10.154-12.375c0.951,1.793,2.216,7.742,2.216,10.527v1.109c0,4.434-1.156,7.992-3.763,9.908
	c-2.519,1.85-6.14,3.209-10.449,3.209c-2.647,0-4.35-0.773-6.09-1.664c-1.842-0.945-2.312-2.636-3.644-4.113
	C90.365,87.838,84.003,81.608,83.319,81.913L83.319,81.913z M99.563,53.281l0.37,0.371v1.292c-0.831,1.242-5.715,1.843-6.831,3.507
	c0.725,1.086,1.268,1.071,1.961,2.657c0.379,0.871,0.924,2.976,0.444,4.019l2.022-0.211h0.926c0.529,0,1.009,0.782,1.289,1.11
	l-0.038-0.517l-0.511-0.594c1.381-0.367,3.69-3.133,3.69-4.988v-0.551c0-1.687-2.069-3.39-2.746-4.437l-0.207-1.289l-0.555-0.555
	L99.563,53.281z M99.563,53.281"/>
	<path fill-rule="evenodd" clip-rule="evenodd" fill="#7D241E" d="M23.136,123.385v-8.586h2.836v6.238h4.125v2.348H23.136z
	 M42.448,118.19h2.926v-1.067h-2.926V118.19z M39.78,116.572c0-0.546,0.172-0.98,0.512-1.296c0.34-0.317,0.809-0.478,1.406-0.478
	h4.438c0.601,0,1.07,0.16,1.41,0.478c0.34,0.315,0.508,0.75,0.508,1.296v6.813h-2.68v-3.457h-2.926v3.457H39.78V116.572z
	 M57.929,123.385v-8.586h2.633v3.289h0.621l2.426-3.289h3.156l-3.258,4.22l3.445,4.366H63.62l-2.437-3.275h-0.621v3.275H57.929z
	 M76.093,123.385v-8.586h7.156v2.324H78.78v0.99h4.45v1.939h-4.45v0.984h4.438v2.348H76.093z M92.968,123.385v-2.348h5.547v-0.928
	h-2.961c-1.026,0-1.707-0.119-2.034-0.345c-0.328-0.228-0.496-0.634-0.496-1.22v-2.055c0-0.601,0.194-1.031,0.586-1.291
	c0.39-0.267,1.043-0.4,1.944-0.4h5.043v2.324h-4.952v0.953h3.561c0.656,0,1.146,0.133,1.453,0.403
	c0.31,0.269,0.466,0.69,0.466,1.261v2.106c0,0.476-0.168,0.854-0.5,1.129c-0.332,0.272-0.793,0.409-1.384,0.409H92.968z
	 M110.968,123.385v-8.586h2.677v8.586H110.968z M126.234,121.037h3.058v-3.914h-3.058V121.037z M123.558,123.385v-8.586h6.384
	c0.66,0,1.178,0.203,1.549,0.609c0.375,0.407,0.563,0.973,0.563,1.705v3.901c0,0.78-0.185,1.366-0.551,1.769
	c-0.363,0.399-0.906,0.602-1.621,0.602H123.558z M141.869,123.385v-8.586h7.16v2.324h-4.472v0.99h4.449v1.939h-4.449v0.984h4.437
	v2.348H141.869z M141.869,123.385"/>
	<path fill-rule="evenodd" clip-rule="evenodd" fill="#77C5EE" d="M86.456,66.397c1.543-0.035,2.953-0.446,2.953-2.035v-1.478
	C88.499,62.959,86.624,65.776,86.456,66.397L86.456,66.397z M86.456,66.397"/>
</svg>
