<?xml version="1.0" encoding="utf-8"?>
<!-- Generator: Adobe Illustrator 16.0.0, SVG Export Plug-In . SVG Version: 6.00 Build 0)  -->
<!DOCTYPE svg PUBLIC "-//W3C//DTD SVG 1.1//EN" "http://www.w3.org/Graphics/SVG/1.1/DTD/svg11.dtd">
<svg version="1.1" id="Layer_1"
	xmlns="http://www.w3.org/2000/svg"
	xmlns:xlink="http://www.w3.org/1999/xlink" x="0px" y="0px" viewBox="0 0 207.746 154.407" enable-background="new 0 0 207.746 154.407" xml:space="preserve">
	<path fill-rule="evenodd" clip-rule="evenodd" fill="#C8C8C8" d="M161.902,86.899l15.023-0.07l-0.188,1.129
	c3.063-1.094,6.27-1.656,9.539-1.656c2.969,0,5.895,0.527,8.66,1.598c3.293,1.262,6.148,3.297,8.398,6.02
	c2.949,3.57,4.41,8.035,4.41,12.648c0,2.234-0.328,4.449-0.957,6.582l-3.543,12.195h-1.777c0.023,0.414,0.039,0.828,0.039,1.242
	c0,3.059-0.629,6.059-1.449,8.992l-0.035,0.129l-0.039,0.133c-1.195,3.965-3.414,7.41-6.355,10.301
	c-2.695,2.652-5.879,4.664-9.375,6.094l-0.043,0.02c-3.527,1.422-7.266,2.152-11.07,2.152c-50.484,0-100.973,0-151.461,0
	c-2.785,0-5.535-0.477-8.164-1.371c-3.3-1.105-6.214-2.957-8.574-5.52C1.64,143.942,0,139.297,0,134.454
	c0-2.211,0.351-4.406,1.008-6.516l6.812-22.621c1.336-4.324,3.695-8.184,7.012-11.27c2.832-2.633,6.14-4.621,9.785-5.91
	c0.461-0.16,0.922-0.313,1.383-0.453c-6.883-7.93-11.426-17.5-11.426-28.727v-4.129c0-5.093,1.004-10.035,3.023-14.711
	C26.586,19.301,53.129,8.517,73.746,3.836C84.648,1.36,96.086,0,107.27,0h8.262c3.707,0,7.441,0.199,11.137,0.488
	c4.199,0.329,8.449,0.774,12.609,1.442c3.512,0.562,6.969,1.367,10.469,1.996c2.133,0.387,3.941,1.176,5.656,2.5
	c0.641,0.492,1.586,1.457,2.242,1.816c0.063,0.032,0.125,0.059,0.191,0.075c7.258,1.484,14.355,1.375,21.516,3.714
	c5.781,1.895,11.664,12.481,11.664,18.356c0,4.742-4.406,8.215-7.992,10.604c-1.324,0.883-2.684,1.707-4.043,2.536
	c-0.961,0.589-1.996,1.203-2.895,1.886c-2.563,1.949-8.961,6.571-13.73,8.996c0.086,0.125,0.156,0.235,0.215,0.325
	c1.133,1.722,2.27,3.418,3.254,5.23c1.371,2.543,2.469,5.359,2.469,8.289v5.164C168.293,78.817,165.676,83.29,161.902,86.899
	L161.902,86.899z M161.902,86.899"/>
	<path fill-rule="evenodd" clip-rule="evenodd" fill="#3751A3" d="M21.679,151.219c-2.421,0-4.824-0.414-7.148-1.207
	c-2.699-0.902-5.187-2.422-7.246-4.66c-2.652-2.867-4.098-6.691-4.098-10.898c0-1.91,0.313-3.789,0.871-5.582l6.809-22.613
	c1.219-3.938,3.328-7.266,6.137-9.875c2.578-2.398,5.519-4.125,8.675-5.238c2.969-1.047,6.036-1.609,9.137-1.609
	c1.922,0,2.59,5.828,4.469,6.309c10.309,2.641,74.672,25.996,92.293,2.313c1.938-2.605,11.383-8.16,16.461-8.004l25.117-0.117
	l-0.582,3.461c1.148-0.715,2.344-1.336,3.57-1.871c3.25-1.426,6.664-2.137,10.133-2.137c2.559,0,5.09,0.445,7.52,1.387
	c2.684,1.027,5.113,2.695,7.082,5.07c2.391,2.898,3.68,6.605,3.68,10.621c0,1.941-0.289,3.855-0.832,5.688l-2.875,9.902h-3.109
	c0.367,1.426,0.574,2.902,0.574,4.43c0,2.762-0.602,5.523-1.328,8.133l-0.027,0.102l-0.031,0.098
	c-1.074,3.566-3.07,6.527-5.535,8.949c-2.461,2.418-5.316,4.176-8.344,5.414l-0.035,0.016c-3.184,1.285-6.504,1.922-9.875,1.922
	C124.223,151.219,69.324,151.219,21.679,151.219L21.679,151.219z M21.679,151.219"/>
	<path fill-rule="evenodd" clip-rule="evenodd" fill="#050605" d="M17.762,54.828v4.129c0,24.075,22.714,39.473,40.023,47.079
	c23.52,10.332,39.949,13.855,73.582,13.855l0.461-0.391l-4.285-5.031l-0.309,0.258c0-17.359,4.219-16.461,17.738-21.508
	c8.09-3.02,20.133-9.527,20.133-19.801v-5.164c0-6.023-6.418-12.441-7.23-15.492c2.922-0.242,13.781-7.984,16.277-9.887
	c3.727-2.836,13.672-7.172,13.672-12.488c0-5.086-5.539-14.039-9.465-15.324c-7.102-2.321-13.664-2.09-21.164-3.621
	c-2.586-0.532-3.328-3.532-8.016-4.375c-3.551-0.641-6.773-1.407-10.406-1.989c-6.492-1.039-16.219-1.89-23.242-1.89h-8.262
	C69.656,3.188,17.762,19.603,17.762,54.828L17.762,54.828z M17.762,54.828"/>
	<path fill-rule="evenodd" clip-rule="evenodd" fill="#FFFFFF" d="M104.859,64.81v2.066c1.461,0.391,0.602,0.692,1.723,0.692h1.031
	c0.094-0.36,0.352-0.957,0.41-1.043l-0.453-4.075l-0.988-0.738C105.715,62.293,104.859,63.388,104.859,64.81L104.859,64.81z
	 M49.777,62.403c1.879,0.679,2.07,3.785,4.477,3.785c0.156,0,6.015-1.813,6.523-2.051l-4.457-5.181
	C54.316,59.426,49.969,60.133,49.777,62.403L49.777,62.403z M58.039,58.613l3.848,4.094l0.14-0.358l1.524-4.078h-3.102
	C59.269,58.271,59.109,58.504,58.039,58.613L58.039,58.613z M46.297,55.418l2.14,5.016l7.262-2.539l-2.277-5.067l0.011-0.382
	L46.297,55.418z M39.453,59.649c0,0.937,2.742,4.347,3.398,4.754l4.7-3.266l0.363,0.137l-2.266-5.071
	C44.527,56.297,39.453,59.125,39.453,59.649L39.453,59.649z M106.926,59.301c0.48,0,0.688-0.469,0.688-1.031v-3.442
	C107.176,55.328,105.438,59.301,106.926,59.301L106.926,59.301z M36.008,54.138l2.859,4.973l6.176-3.965l-1.629-5.082l-0.078-0.489
	L36.008,54.138z M54.605,52.099c0.078,1.012,2.082,5.484,2.746,5.484c0.223,0,7.008-1.015,7.047-1.105
	c0.102-0.235-2.179-3.676-2.269-5.985L54.605,52.099z M64.976,54.81l0.461-0.121l2.93-3.992l-4.965,0.058L64.976,54.81z
	 M44.305,49.063l1.355,5.449l7.195-3.121l-1.336-5.117L44.305,49.063z M54.254,50.696l7.277-1.383l-0.391-3.782V44.5h-1.035
	c-1.152,0-4.812,0.727-5.871,1.02C52.219,46.078,53.91,49.224,54.254,50.696L54.254,50.696z M62.937,47.242l-0.078,2.079
	l7.278-0.008l-0.391-3.782v-1.375l-7.27,0.004L62.937,47.242z M42.898,42.442l0.723,5.261l7.812-2.854l-0.339-5.668L42.898,42.442z
	 M71.453,47.599l3.801-2.754c-1.078-0.09-1.223-0.344-2.41-0.344l-1.813,0.012L71.453,47.599z M52.48,38.711l0.399,5.449l8.172-1.39
	l0.398-5.688L52.48,38.711z M63.211,37.313c-0.098,1.035-0.352,1.179-0.352,2.367v2.754l6.449-0.028l1.469-5.48l-4.484-0.078
	L63.211,37.313z M79.926,42.056l6-2.031l-0.036-0.543l-5.093-1.168L79.926,42.056z M70.883,42.699l7.765,0.903l0.047-0.481
	c0-5.777,3.149-5.851-5.988-5.894L70.883,42.699z M97.629,39.336c-0.707-1.34-1.032-2.762-1.032-4.82
	c0-6.254,2.868-7.238,5.165-10.672l-0.504,0.195l-2.336-6.093l0.668-0.157l-3.336-2.551C87.109,21.363,85.863,36.196,97.629,39.336
	L97.629,39.336z M97.972,33.828v1.032c0,3.398,5.223,6.199,8.954,6.199h0.344c5.707,0,7.344-1.903,10.672-4.133
	c-0.383-1.438-1.148-1.688-1.777-3.066c-0.934-2.047-0.109-2.993-0.563-3.938c-0.605-1.254-4.367-0.973-5.234-4.699
	c-4.824,0-7.359-1.695-8.879,0.383C100.062,27.547,97.972,30.656,97.972,33.828L97.972,33.828z M173.711,18.336
	c0,0.418-0.711,1.031-1.379,1.031h-0.344c-1.141,0-0.828-0.89-2.066-1.718h-2.063c0.648-0.567,1.551-1.036,2.754-1.036
	C171.516,16.613,173.711,17.321,173.711,18.336L173.711,18.336z M146.172,14.208c-0.875,1.254-1.668,3.098-3.789,3.098h-2.754
	c-1.25,0-1.207-0.41-2.41-0.692l-4.305-4.433l0.52-0.383h-2.754v3.098c0,3.148,4.5,5.164,7.918,5.164
	c3.805,0,4.742-1.488,7.227-2.067c-1.871,2.797-4.816,1.801-4.816,4.477V23.5c0,1.645,0.387,2.137,1.031,3.098
	c-2.695-0.629-3.18-3.192-2.066-5.508c-6.473,0.145-11.703-0.793-11.703-8.262l-0.004-1.707l-12.734-0.703V9.731
	c8.48,0,17.914-0.285,25.102,1.058c4.984,0.934,6.711-0.035,10.07,3.012c2.273,2.066,4.059,6.488-0.059,7.977
	c0.883-3.305,2.703-7.571-4.477-7.571H146.172z M36.008,54.138l-1.672,0.781l-0.278-0.406l8.883-6.231l-0.906-5.406l-7.746,5.41
	c1.789-6.707,23.211-13.082,33.734-13.082l6.574-0.25l15.458,2.317c-5.872-11.102-3.504-16.453,5.855-22.719l-0.887-0.426
	l3.141-6.523l0.844,0.406c-0.571,0.852-2.067,2.918-2.067,4.133v0.344c0,1.933,1.891,3.082,3.348,3.351l4.558-4.726l0.356,0.339
	c-1.695,2.536-4.129,3.364-4.129,7.918v0.692c0,2.25,4.504,4.129,6.883,4.129h0.688c1.32,0,2.039-9.828,8.609-11.36
	c-1.563,2.133-5.508,4.75-5.508,8.262v2.754c0,2.707,3.711,4.477,6.539,4.477c9.625,0,7.039-4.106,11.703-7.231
	c-0.758,2.848-4.551,3.941-1.719,9.297l-0.285,0.226l-1.781-2.636c-2.184,0.179-4.102,1.719-6.539,1.719h-2.754v1.378
	c0,1.918,1.066,4.129,2.754,4.129h2.406c2.902,0,7.586-3.558,10.328-3.785c-2.309,2.008-12.016,5.395-13.18,7.477
	c-1.914,3.418-3.086,14.586-4.656,16.574l2.563-15.465l0.273,0.465l-11.262,3.734l-0.246-0.738c0.668,2.5,3.875,2.938,4.164,9.266
	c0.184,4.07,0.688,8.867,0.664,13.105c-0.027,4.883-0.691,8.996,1.965,11.461c1.707,1.586,6.91,3.695,10.078,3.695h0.688
	c2.375,0,5.164-3.281,5.164-5.855c-2.688,0.226-2.699,2.754-5.508,2.754h-1.035c-2.664,0-8.258-3.231-8.02-5.524l1.48-7.902
	c0-5.281,3.82-13.488,5.738-17.324c3.648-7.31,4.301-8.172,10.852-12.56c9.07-6.078,21.012-10.738,36.082-10.738
	c1.953,0,11.48,8.496,8.949,13.769c3.457-0.074,7.23-5.015,7.23-8.949v-0.343c0-5.11-6.555-11.129-11.035-12.375
	c-3.648-1.012-18.176-2.782-19.898-3.856c-6.516-4.082-9.969-3.242-18.828-4.582c-5.719-0.867-16.465-1.219-22.531-1.219h-4.82
	c-37.02,0-86.406,15.16-86.406,49.571v2.41c0,19.304,15.188,32.644,27.473,40c8.965,5.367,37.484,16.801,51.015,16.801l0.301-0.254
	l-2.707-3.02l-6.535-0.121l4.562-0.984l-0.152-0.355l-5.23-3.512l-0.317,0.301l-0.828,2.457l-0.09-1.926l-5.527,0.531h-0.344
	c-3.32,0-1.379-1.031-1.379-4.703l-10.324,0.035l-0.004-0.496h3.102v-1.379c0-1.738,0.55-1.828,0.66-3.594l-5.481,0.84h-3.097
	c-3.946,0,0.859-0.457,1.523-1.91c0.211-0.469,1.906-4.93,1.918-4.973c-1.078,0.09-1.223,0.344-2.41,0.344l-3.824-0.219
	l-2.465,0.199l-10.531-3.359l11.277,1.867l-0.18-0.371l4.012-5.063L56.808,84.2l-2.937,3.309l2.039-3.93l-6.191-2.652l-1.711,1.422
	l0.879-1.984l-0.692,0.555L36.933,70.821l0.356-0.375l12.207,9.531l0.238-0.402l3.336-4.2l-5.746-3.726l-2.871,2.652l-0.274-0.281
	l2.704-2.86l-4.536-4.781l0.02-0.414l-3.816,2.773l3.371-3.281l-3.848-5.004L36.008,54.138z M43.285,65.231l4.406,5.058l4.981-3.183
	l-4.285-5.075L43.285,65.231z M54.929,66.832l0.036,0.692l6.175,3.14l-0.128-1.397l0.738-4.379L54.929,66.832z M48.465,70.926
	c1.398,0.723,4.847,3.867,5.445,3.867c0.863,0,4.355-2.945,6.195-3.097v-0.688l-0.191,0.332l-6.137-3.547l0.035-0.379L48.465,70.926
	z M104.859,74.449c0.711,0.477,0.895,1.032,1.723,1.032h2.063V72.04c0-1.316-1.086-2.754-2.063-2.754
	C103.836,69.285,104.859,72.274,104.859,74.449L104.859,74.449z M55.472,75.208l5.946,1.66l-0.719-4.648L55.472,75.208z
	 M50.594,80.09l6.468,2.336l4.078-3.5l-0.078-0.477l-6.566-2.378L50.594,80.09z M105.547,78.238v1.032
	c0,1.855,1.57,3.441,3.445,3.441h2.063c1.871,0,1.855-0.645,3.789-0.688v-0.688c-1.992-0.531-3.004-1.918-4.383-3.195
	C109.352,77.11,105.547,76.071,105.547,78.238L105.547,78.238z M58.113,82.758l6.188,0.961l-1.914-4.395l-0.118-0.328L58.113,82.758
	z M127.582,84.778l1.109-0.77l-2.145-1.984c-0.816,0.434-2.344,1.375-3.441,1.375l-1.535,0.129l1.957,2.82L127.582,84.778z
	 M111.746,83.747c0.27,0.402,5.43,4.816,5.508,4.816c1.148,0,4.113-1.395,5.508-1.719c-0.418-1.797-2.449-3.316-4.316-3.949
	C115.797,81.997,114.453,83.114,111.746,83.747L111.746,83.747z M107.27,85.122l1.395,5.258l7.555-1.469
	C114.805,86.797,110.129,83.704,107.27,85.122L107.27,85.122z M62.515,90.973l2.766,0.078l3.777-0.422
	c-0.187-0.695-2.543-4.129-3.101-4.129C64.672,86.5,62.629,89.625,62.515,90.973L62.515,90.973z M111.746,91.317l5.145,4.426
	l4.492-1.672c-0.238-0.895-3.73-4.473-4.129-4.473C116.66,89.598,112.582,91.125,111.746,91.317L111.746,91.317z M112.777,97.172
	c0.992,0,0.859-0.648,2.754-0.691c-0.379-1.418-3.367-3.398-4.82-3.785C110.711,94.227,112.07,97.172,112.777,97.172L112.777,97.172
	z M67.512,97.762l6.765-1.797l0.113-0.355l-3.757-3.34L67.512,97.762z M74.137,102.645l7.312-1l-0.16-0.48l-4.641-3.672
	l-0.347-0.113L74.137,102.645z M113.504,98.333l2.715,5.035h1.379c0.789,0,2.492-0.742,3.238-1.145l-3.895-4.945L113.504,98.333z
	 M81.449,106.465v1.379c2.453-0.574,4.856-0.234,6.199-2.066c-0.398-0.543-3.371-2.754-4.133-2.754h-0.687
	C81.523,103.024,81.449,105.114,81.449,106.465L81.449,106.465z M142.383,49.664l12.93,7.586l-0.289,0.594l-14.367-5.418
	l2.961,10.18l-0.52,0.125l-5.535-8.938l-9.406,15.047l0.816,0.477l4.727-2.582l0.285,0.242l-3.863,8.039l2.617,3.226l-2.855-2.354
	l-0.078,0.371l-2.5,4.684l3.816,5.414l-3.539-1.578l-3.242,1.785l0.832,2c-2.789-1.867-3.156-1.102-7.105,0.902l4.078,4.059
	l10.246-5.32l0.297,0.516l-14.563,8.426l-0.223-0.293l3.18,5.25l2.324-0.91l0.199,0.391l-6.18,3.305l6.867,8.219l0.535-0.445
	c0-2.246-0.691-2.184-0.691-4.129v-2.41c0-16.789,37.867-14.027,37.867-34.425v-3.442c0-6.777-9.035-18.98-13.168-21.863
	L142.383,49.664z M142.383,49.664"/>
	<path fill-rule="evenodd" clip-rule="evenodd" fill="#FFFFFF" d="M115.531,64.465l-0.688,6.199c-0.426,3,5.246,5.853,8.262,5.853
	c3.215,0,6.973-3.965,7.574-6.543c-1.59,0.426-5.395,3.789-6.199,3.789c-1.645,0-5.164-0.613-5.164-2.066
	c0-1.383,3.363-2.524,3.523-6.086l-5.449,3.871l-0.41-0.219l1.016-12.121L115.531,64.465z M63.551,69.629
	c0,27.176,38.375,36.434,40.964,46.043l19.278,0.434c-0.156-0.582-5.059-6.441-5.754-6.98c-1.859-1.453-7.742-1.973-11.113-1.973
	h-5.852c-5.32,0,3.332-1.375,3.785-1.375l3.805-0.105l7.211,1.137c-1.555-5.828-8.445-8.695-16.535-8.02l-9.285,0.793
	c1.093-0.949,5.468-2.066,7.574-2.066l4.479-0.082l7.915,0.426c-1.809-3.418-1.73-5.82-5.734-6.66
	c-3.004-0.629-7.891-1.602-11.133-1.602l-8.629-0.137l-5.832,0.824c1.207-1.645,10.656-2.754,14.117-2.754l1.774-0.309l11.281,2.039
	l-2.039-6.551c-4.856-0.402-11.609-4.129-19.969-4.129l-5.863-0.113L70.09,79.27c1.765-1.227,9.05-2.41,12.394-2.41
	c9.067,0,13.887,2.128,20.926,3.796l-0.617-5.519c-3.524-0.82-8.477-3.941-14.281-5.336C82.34,68.317,78,67.91,70.387,67.606
	l5.554-0.731h6.196c9.57,0,14.468,4.836,20.312,6.199v-6.886l0.207-0.625l-26.484-8.68l-0.231,0.699
	c7.188,0,11.899,0.906,17.207,2.762c2.489,0.871,4.797,1.652,7.137,2.879c3.391,1.781,3.117,0.836,3.543-4.267l0.25-0.515
	L83.437,48.426l-0.265,0.551c9.574,0,18.148,7.647,21.156,7.855l1.215-3.726l0.363-0.551l-12.887-8.375l0.153-0.363l13.332,7.058
	l-0.266,0.508c1.434-6.168-7.949-9.637-14.461-9.637C78.773,41.747,63.551,56.767,63.551,69.629L63.551,69.629z M152.035,45.594
	l4.27,5.215l5.031-6.903L152.035,45.594z M136.531,33.142c6.102-1.422,12.879-5.856,21-5.856h2.754c1.188,0,1.332,0.258,2.41,0.348
	l0.809,0.699l-12.816,14.781l-0.387-0.335c8.527-1.985,11.973-9.114,16.867-12.391l0.496-0.543l5.047,4.602l0.191,0.921
	l-11.93,13.262c2.953-0.687,12.422-7.84,13.922-10.176c3.832-5.957-5.258-13.574-8.414-13.574h-3.441
	C155.375,24.879,139.16,29.551,136.531,33.142L136.531,33.142z M137.219,16.613c1.203,0.282,1.16,0.692,2.41,0.692h2.754
	c2.121,0,2.914-1.844,3.789-3.098l-3.445-1.035c-0.379,1.637-0.492,2.277-1.719,3.098l0.344-3.442l-5.508-0.687v1.375
	C135.844,14.817,136.684,15.813,137.219,16.613L137.219,16.613z M137.219,16.613"/>
	<path fill-rule="evenodd" clip-rule="evenodd" fill="#D92827" d="M137.563,53.793l5.535,8.938l0.52-0.125l-2.961-10.18l14.367,5.418
	l0.289-0.594l-12.93-7.586l-16.664-8.647l-0.156,0.406l-1.266,2.645l0.598-0.485L137.563,53.793z M142.727,13.172l-0.707,0.031
	l-0.668-0.375l-0.344,3.442C142.234,15.449,142.348,14.81,142.727,13.172L142.727,13.172z M142.727,13.172"/>
	<path fill-rule="evenodd" clip-rule="evenodd" fill="#FFFFFF" d="M166.379,106.579c0.902-2.336,2.328-4.34,3.945-6.039
	c2.105-2.223,4.566-3.852,7.195-5.02c2.813-1.254,5.754-1.875,8.758-1.875c2.145,0,4.258,0.371,6.289,1.172
	c2.082,0.813,3.969,2.105,5.496,3.98c1.695,2.094,2.59,4.719,2.59,7.617c0,1.473-0.215,2.914-0.621,4.305l-1.98,6.949h-6.836
	c0.418,0.656,0.82,1.328,1.207,2.012l0.023,0.039l0.02,0.043c1.145,2.113,1.949,4.492,1.949,7.035c0,2.27-0.551,4.707-1.141,6.855
	l-0.012,0.051l-0.016,0.051c-0.844,2.844-2.449,5.184-4.375,7.113c-2.094,2.098-4.539,3.605-7.121,4.684l-0.016,0.008
	c-2.773,1.137-5.656,1.695-8.594,1.695c-51.566,0-102.25,0-151.461,0c-2.054,0-4.085-0.355-6.058-1.039
	c-2.113-0.719-4.063-1.906-5.672-3.688c-1.859-2.047-2.855-4.719-2.855-7.723c0-1.418,0.23-2.805,0.64-4.133l6.809-23.016
	c0.972-3.199,2.652-5.883,4.898-8.008c2.196-2.074,4.688-3.555,7.375-4.52c2.602-0.934,5.278-1.441,8-1.441
	c1.641,0,3.285,0.184,4.887,0.602c1.559,0.406,3.062,1.051,4.453,1.984c1.441,0.969,2.676,2.262,3.602,3.895l0.011,0.016
	c0.223,0.398,0.422,0.809,0.594,1.23c0.258-0.301-0.223,0.223,0.051-0.059c27.074,3.949,87.855,14.844,97.105-7.156h22.898
	L166.379,106.579z M166.379,106.579"/>
	<path fill-rule="evenodd" clip-rule="evenodd" fill="#FFFFFF" d="M127.703,134.079l19.027-38.262h19.32l-7.98,40.957h-14.969
	l1.332-5.566h-0.258l-2.484,5.566h-29.117l2.266-11.207l-3.941,11.207H96.469l1.855-5.305c-0.98,1.195-2.281,2.176-3.547,2.961
	c-3.383,2.109-9.312,2.344-13.191,2.344h-15.41l2.574-7.359c-0.664,0.891-1.457,1.695-2.309,2.418
	c-1.914,1.621-4.156,2.781-6.515,3.613c-2.567,0.891-5.235,1.328-7.954,1.328c-1.871,0-3.718-0.277-5.511-0.805
	c-1.821-0.523-3.504-1.371-4.887-2.668c-1.465-1.363-2.238-3.102-2.238-5.105c0-0.055,0-0.113,0.004-0.168
	c-0.785,1.469-1.918,2.727-3.192,3.805c-1.914,1.621-4.156,2.781-6.515,3.613c-2.567,0.891-5.235,1.328-7.954,1.328
	c-1.871,0-3.718-0.277-5.511-0.805c-1.821-0.523-3.504-1.371-4.887-2.668c-1.465-1.363-2.238-3.102-2.238-5.105
	c0-0.973,0.195-1.922,0.531-2.836l6.805-19.457c0.851-2.367,2.32-4.336,4.281-5.906c2.004-1.602,4.277-2.734,6.723-3.48
	c2.418-0.734,4.906-1.133,7.433-1.133c1.5,0,3.004,0.141,4.469,0.461c1.363,0.301,2.687,0.777,3.906,1.469
	c1.18,0.672,2.192,1.559,2.953,2.691c0.797,1.199,1.157,2.566,1.157,4c-0.071,5.078,18.093,6.41,35.527,4.184
	c4.441-0.57,5.914-6.313,9.648-6.41c5.746-0.156,0.809,9.281,6.618,8.773c3.992-0.348,7.906-0.762,11.601-1.219
	c2.227-0.277,1.328-7.195,3.418-7.391c15.82-1.484,26.898-0.293,22.035,9.438c-0.391,1.105-0.855,2.227-1.457,3.23
	c-0.449,0.762-0.992,1.531-1.66,2.121c-0.523,0.457-1.102,0.844-1.73,1.141l-0.012,0.004c-0.238,0.109-0.477,0.223-0.711,0.336
	L127.703,134.079z M104.469,113.895c-0.422,0.5-0.922,0.93-1.477,1.297c-0.289,0.191-0.594,0.371-0.91,0.543
	c0.488,0.715,0.801,1.535,0.879,2.473L104.469,113.895z M43.652,114.536h-13.91l2.766-7.805l0.007-0.02
	c0.094-0.242,0.106-0.594,0.106-0.844c0-0.035,0-0.082-0.004-0.133c-0.02,0-0.039,0-0.055,0c-0.414,0-0.754,0.105-1.082,0.367
	l-0.023,0.016c-0.543,0.422-1.117,1.484-1.442,2.137l-6.16,17.594c-0.027,0.133-0.054,0.277-0.054,0.402
	c0,0.031,0.004,0.074,0.004,0.121c0.054,0.004,0.109,0.004,0.148,0.004c0.449,0,0.871-0.195,1.242-0.438
	c0.434-0.285,0.75-0.648,0.969-1.113l2.644-7.699h13.938L43.652,114.536z M62.926,105.708c-1.278-0.273-2.247,1.52-2.582,2.441
	l-6.219,17.766c-0.035,0.121-0.074,0.262-0.106,0.395c0.075,0.016,0.153,0.02,0.223,0.02c0.492,0,0.949-0.18,1.363-0.438
	c0.387-0.25,0.672-0.555,0.824-0.992l6.348-18.094C62.879,106.469,63.039,106.055,62.926,105.708L62.926,105.708z M84.285,126.352
	c0.953-0.086,2.008-0.352,2.398-1.285l1.434-4.199l0.008-0.016c0.019-0.059,0.047-0.133,0.074-0.215
	c-0.297-0.059-0.68-0.082-0.871-0.086h-1.012L84.285,126.352z M186.949,111.754c0.082,0.082,0.164,0.164,0.246,0.25
	c1.348,1.367,2.535,2.895,3.605,4.488l0.008,0.02l0.012,0.016c0.938,1.465,1.641,3.133,1.641,4.898c0,1.691-0.523,3.594-1.043,5.195
	l-0.008,0.02l-0.008,0.023c-0.723,2.066-2.137,3.77-3.793,5.168c-1.91,1.621-4.152,2.781-6.512,3.613
	c-2.566,0.891-5.238,1.328-7.953,1.328c-1.871,0-3.719-0.277-5.516-0.805c-1.816-0.523-3.5-1.371-4.883-2.668
	c-1.469-1.363-2.238-3.102-2.238-5.105c0-0.973,0.195-1.926,0.531-2.84l2.586-7.305h8.879c-0.371-0.336-0.738-0.676-1.109-1.012
	l-0.012-0.012l-0.016-0.012c-0.539-0.512-1.07-1.039-1.57-1.594c-0.57-0.629-1.086-1.316-1.559-2.023l-0.027-0.039l-0.023-0.043
	c-0.684-1.141-1.027-2.402-1.027-3.734c0-1.211,0.293-2.457,0.66-3.605l0.008-0.031l0.012-0.031c0.73-2.059,2.168-3.801,3.781-5.234
	c1.926-1.719,4.184-2.969,6.59-3.875c2.59-0.977,5.297-1.461,8.07-1.461c1.93,0,3.836,0.281,5.668,0.895
	c1.781,0.586,3.398,1.508,4.707,2.863c1.344,1.406,2.047,3.141,2.047,5.09c0,1.031-0.184,2.035-0.52,3.008l-1.535,4.555H186.949z
	 M182.02,106.739c0.117,0.457,0.469,0.84,0.813,1.145l0.016,0.016c0.176,0.156,0.352,0.316,0.527,0.477l0.914-2.637
	c-0.055-0.004-0.105-0.004-0.141-0.004c-0.508,0-1.055,0.18-1.516,0.379C182.352,106.235,182.16,106.473,182.02,106.739
	L182.02,106.739z M176.633,122.106l-1.492,4.25c0.09,0.016,0.215,0.02,0.273,0.02c0.461,0,0.98-0.168,1.402-0.344
	c0.246-0.102,0.438-0.23,0.539-0.477c0.105-0.293,0.137-0.625,0.137-0.934C177.492,123.661,177.164,122.836,176.633,122.106
	L176.633,122.106z M176.633,122.106"/>
	<path fill-rule="evenodd" clip-rule="evenodd" fill="#D92827" d="M38.32,145.223c3.34,0,6.711,0,10.067,0
	c0.183-0.484,0.382-0.973,0.582-1.457c-1.676-0.004-3.356-0.004-5.016-0.004c0.434-1.145,0.902-2.285,1.336-3.43
	c0.437-1.141,0.902-2.277,1.367-3.418c-1.687-0.004-3.363-0.004-5.035-0.008c-0.551,1.383-1.113,2.77-1.656,4.152
	C39.418,142.45,38.859,143.833,38.32,145.223L38.32,145.223z M50.152,145.223c1.692,0,3.371,0,5.047,0
	c0.531-1.387,1.078-2.77,1.609-4.152c0.528-1.383,1.086-2.762,1.633-4.141c-1.676-0.004-3.347-0.004-5.019-0.008
	c-0.547,1.379-1.11,2.762-1.641,4.145C51.246,142.45,50.699,143.836,50.152,145.223L50.152,145.223z M71.008,141.7
	c-1.676,0-3.34-0.004-5-0.004c-0.196,0.484-0.364,0.965-0.532,1.449c-0.117,0.188-0.347,0.344-0.668,0.453
	c-0.336,0.113-0.691,0.168-1.066,0.168c-0.68,0-1.082-0.156-1.199-0.465c-0.02-0.059-0.016-0.129-0.02-0.207
	c0.246-0.668,0.512-1.336,0.766-1.996c0.25-0.668,0.516-1.328,0.789-1.992c0.23-0.316,0.465-0.531,0.754-0.648
	c0.289-0.121,0.625-0.18,1.047-0.18c0.648,0.004,1.023,0.156,1.14,0.469c0.047,0.133,0.063,0.246,0.024,0.344
	c-0.156,0.383-0.305,0.77-0.465,1.156c1.676,0,3.336,0,5.012,0.004c0.152-0.449,0.316-0.895,0.48-1.344
	c0.074-0.223,0.074-0.414,0.016-0.57c-0.094-0.246-0.305-0.465-0.633-0.652c-0.344-0.184-0.777-0.336-1.297-0.461
	c-0.508-0.125-1.094-0.223-1.723-0.285c-0.64-0.063-1.304-0.098-1.996-0.098c-1.109,0-2.175,0.078-3.23,0.234
	c-1.067,0.152-1.961,0.383-2.699,0.695c-0.723,0.305-1.188,0.684-1.356,1.125c-0.281,0.723-0.597,1.445-0.871,2.176
	c-0.273,0.723-0.562,1.449-0.828,2.176c-0.07,0.168-0.082,0.332-0.024,0.492c0.118,0.32,0.481,0.598,1.083,0.824
	c0.605,0.227,1.332,0.391,2.179,0.5c0.852,0.105,1.684,0.16,2.492,0.16c1.231,0,2.383-0.09,3.442-0.273
	c1.058-0.184,1.937-0.43,2.59-0.73c0.668-0.305,1.07-0.625,1.203-0.969C70.597,142.735,70.797,142.219,71.008,141.7L71.008,141.7z
	 M71.414,145.223c1.676,0,3.34,0,5.004,0c0.246-0.656,0.504-1.313,0.75-1.969c0.242-0.656,0.504-1.309,0.761-1.965
	c0.868,0,1.75,0,2.629,0c-0.257,0.656-0.496,1.313-0.746,1.965c-0.254,0.66-0.504,1.313-0.75,1.969c1.664,0,3.328,0,4.977,0
	c0.519-1.379,1.047-2.762,1.555-4.137c0.511-1.379,1.046-2.75,1.578-4.121c-1.657-0.004-3.317-0.004-4.977-0.008
	c-0.191,0.48-0.363,0.965-0.551,1.445c-0.183,0.48-0.371,0.957-0.55,1.441c-0.879-0.004-1.747-0.004-2.625-0.004
	c0.191-0.48,0.371-0.961,0.55-1.441c0.18-0.48,0.36-0.965,0.551-1.445c-1.656,0-3.316-0.004-4.976-0.004
	c-0.536,1.375-1.082,2.754-1.594,4.129C72.48,142.461,71.937,143.84,71.414,145.223L71.414,145.223z M88.437,145.223
	c1.664,0,3.325,0,4.989,0c0.418-1.137,0.832-2.277,1.253-3.41c0.426-1.137,0.864-2.27,1.297-3.402
	c0.965,0.004,1.934,0.004,2.899,0.004c0.164-0.477,0.34-0.957,0.531-1.434c-3.594-0.008-7.184-0.012-10.777-0.016
	c-0.192,0.48-0.367,0.961-0.547,1.438c0.98,0.004,1.949,0.004,2.945,0.004c-0.449,1.133-0.89,2.266-1.316,3.402
	C89.285,142.946,88.855,144.086,88.437,145.223L88.437,145.223z M98.097,145.223c3.383,0,6.797,0,10.196,0
	c0.176-0.48,0.352-0.965,0.539-1.445c-1.75,0-3.496,0-5.235,0c0.145-0.414,0.305-0.828,0.45-1.242c0.14-0.41,0.3-0.824,0.461-1.238
	c1.73,0,3.48,0.004,5.226,0.004c0.16-0.477,0.336-0.957,0.512-1.434c-1.746-0.004-3.48-0.004-5.215-0.004
	c0.176-0.48,0.352-0.961,0.539-1.441c1.734,0,3.465,0.004,5.211,0.004c0.176-0.477,0.352-0.953,0.523-1.434
	c-3.391-0.004-6.777-0.008-10.152-0.012c-0.512,1.371-1.051,2.742-1.547,4.113C99.105,142.469,98.594,143.844,98.097,145.223
	L98.097,145.223z M109.742,145.223c1.648,0,3.297,0,4.945,0c0.238-0.652,0.473-1.305,0.711-1.957s0.473-1.305,0.723-1.953
	c0.344,0.652,0.684,1.301,1.027,1.953c0.34,0.652,0.684,1.305,1.023,1.957c1.359,0,2.707,0,4.066,0
	c0.484-1.371,0.973-2.742,1.457-4.113c0.488-1.367,0.988-2.734,1.484-4.098c-1.355-0.004-2.695-0.004-4.051-0.004
	c-0.172,0.477-0.34,0.957-0.504,1.434c-0.164,0.48-0.344,0.957-0.52,1.434c-0.418-0.48-0.824-0.957-1.227-1.438
	c-0.406-0.477-0.809-0.957-1.211-1.434c-1.633-0.004-3.277-0.004-4.922-0.008c-0.504,1.367-1.023,2.738-1.516,4.105
	C110.738,142.473,110.234,143.848,109.742,145.223L109.742,145.223z M136.227,141.247c0.277-0.07,0.527-0.125,0.699-0.172
	c0.199-0.043,0.375-0.109,0.531-0.184c0.168-0.082,0.324-0.199,0.461-0.367c0.152-0.164,0.266-0.375,0.352-0.637
	c0.145-0.43,0.305-0.863,0.461-1.297c0.082-0.16,0.09-0.316,0.031-0.469c-0.293-0.727-2.039-1.098-5.23-1.102
	c-2.293,0-4.598-0.004-6.922-0.008c-0.484,1.367-1.004,2.73-1.484,4.098c-0.477,1.367-0.969,2.742-1.457,4.113
	c1.648,0,3.285,0,4.934,0c0.211-0.602,0.422-1.199,0.633-1.801c0.211-0.598,0.434-1.199,0.66-1.797c0.477,0,0.953,0,1.43,0
	c-0.039,0.598-0.047,1.199-0.066,1.797c-0.023,0.602-0.047,1.199-0.066,1.801c1.676,0,3.383,0,5.074,0
	c-0.004-0.664-0.02-1.324-0.023-1.988C136.238,142.575,136.23,141.911,136.227,141.247L136.227,141.247z M130.391,140.188
	c0.203-0.578,0.422-1.16,0.637-1.738c0.969,0,1.641,0.023,2.02,0.066s0.605,0.141,0.664,0.297c0.027,0.063,0.008,0.16-0.031,0.281
	c-0.074,0.176-0.148,0.352-0.207,0.527c-0.063,0.176-0.211,0.305-0.453,0.387s-0.555,0.133-0.938,0.152
	C131.715,140.18,131.145,140.188,130.391,140.188L130.391,140.188z M144.016,143.989c0.621,0,1.258,0.004,1.895,0.004
	c-0.051,0.41-0.09,0.82-0.141,1.23c1.707,0,3.426,0,5.164,0c0.012-1.367,0.027-2.73,0.047-4.098c0.02-1.359,0.039-2.723,0.051-4.082
	c-2.469-0.004-4.949-0.008-7.43-0.008c-0.91,1.359-1.82,2.723-2.73,4.086c-0.914,1.363-1.824,2.734-2.738,4.102
	c1.723,0,3.457,0,5.191,0C143.535,144.813,143.777,144.403,144.016,143.989L144.016,143.989z M146.168,142.661
	c-0.52,0-1.039,0-1.547,0c0.297-0.559,0.645-1.109,0.949-1.668c0.301-0.551,0.637-1.105,0.945-1.66
	c-0.051,0.555-0.129,1.109-0.18,1.664C146.285,141.547,146.207,142.106,146.168,142.661L146.168,142.661z M152.508,145.223
	c1.984,0,3.965,0,5.945,0c1.605,0,3.094-0.109,4.477-0.332c1.371-0.223,2.207-0.656,2.477-1.297c0-0.004,0-0.008-0.004-0.008
	c0.254-0.762,0.512-1.523,0.758-2.277c0.246-0.762,0.52-1.516,0.77-2.273c0.098-0.289,0.098-0.531,0.016-0.734
	c-0.121-0.289-0.387-0.52-0.789-0.688c-0.387-0.172-0.855-0.297-1.379-0.375c-0.523-0.082-1.047-0.129-1.563-0.148
	c-0.512-0.023-1.094-0.035-1.727-0.035c-2.063,0-4.113-0.004-6.16-0.008c-0.473,1.359-0.957,2.719-1.414,4.082
	C153.453,142.493,152.969,143.856,152.508,145.223L152.508,145.223z M157.898,143.79c0.305-0.891,0.602-1.777,0.895-2.66
	c0.297-0.887,0.609-1.77,0.91-2.652c0.75,0,1.281,0.027,1.652,0.086c0.355,0.055,0.578,0.18,0.656,0.375
	c0.035,0.086,0.031,0.211-0.023,0.367c-0.207,0.617-0.422,1.242-0.625,1.859c-0.203,0.621-0.418,1.238-0.625,1.859
	c-0.125,0.301-0.402,0.5-0.898,0.598C159.359,143.719,158.703,143.774,157.898,143.79L157.898,143.79z M166.844,145.223
	c3.324,0,6.668,0,10.008,0c0.164-0.477,0.313-0.953,0.492-1.43c-1.723,0-3.441,0-5.148,0c0.137-0.41,0.254-0.82,0.391-1.23
	c0.133-0.406,0.27-0.816,0.418-1.227c1.703,0.004,3.422,0.004,5.141,0.004c0.137-0.473,0.285-0.945,0.438-1.418
	c-1.707-0.004-3.41-0.004-5.113-0.004c0.164-0.477,0.328-0.953,0.508-1.426c1.688,0,3.391,0.004,5.109,0.004
	c0.148-0.473,0.313-0.945,0.477-1.418c-3.332-0.004-6.664-0.008-9.969-0.012c-0.465,1.355-0.938,2.715-1.379,4.07
	C167.77,142.5,167.293,143.86,166.844,145.223L166.844,145.223z M166.844,145.223"/>
	<path fill-rule="evenodd" clip-rule="evenodd" fill="#3751A3" d="M39.601,125.184l-10.273-0.574l-2.68,8.141
	c-0.433,1.055-1.058,1.891-1.859,2.488c-0.805,0.602-1.586,0.883-2.363,0.84c-1.391-0.078-2.047-1.004-1.95-2.77
	c0.02-0.336,0.082-0.73,0.188-1.188l7.504-22.422c0.797-1.777,1.543-2.98,2.254-3.613c0.703-0.645,1.488-0.938,2.355-0.887
	c1.344,0.074,1.957,1,1.86,2.773c-0.043,0.77-0.153,1.418-0.344,1.949l-2.203,6.52l10.281,0.574l2.496-7.57
	c0.387-1.254,0.609-2.34,0.66-3.25c0.078-1.418-0.125-2.676-0.621-3.773c-0.492-1.086-1.199-2.016-2.141-2.781
	c-0.937-0.766-2.023-1.371-3.265-1.797c-1.238-0.426-2.582-0.68-4.012-0.758c-2.269-0.129-4.574,0.191-6.933,0.957
	c-2.356,0.77-4.45,1.988-6.282,3.668s-3.172,3.762-4.019,6.238l-8.184,24.48c-0.328,0.93-0.519,1.852-0.57,2.758
	c-0.102,1.844,0.344,3.441,1.351,4.785c0.996,1.344,2.305,2.367,3.934,3.07c1.617,0.715,3.254,1.113,4.906,1.203
	c2.543,0.145,5-0.242,7.387-1.148c2.379-0.918,4.422-2.188,6.121-3.836c1.699-1.645,2.871-3.422,3.516-5.344L39.601,125.184z
	 M68.39,126.02l6.774-19.449c0.273-0.781,0.414-1.578,0.414-2.379c0-1.445-0.504-2.695-1.504-3.738
	c-1.008-1.051-2.312-1.836-3.906-2.363c-1.598-0.531-3.281-0.793-5.059-0.793c-2.566,0-5.027,0.445-7.383,1.336
	c-2.363,0.887-4.351,2.055-5.976,3.504c-1.625,1.445-2.707,2.926-3.242,4.434l-6.805,19.449c-0.274,0.742-0.414,1.465-0.414,2.176
	c0,1.445,0.535,2.672,1.613,3.676c1.07,1.004,2.434,1.746,4.102,2.223c1.656,0.488,3.312,0.727,4.968,0.727
	c2.543,0,4.977-0.41,7.309-1.219c2.324-0.82,4.293-1.898,5.898-3.258C66.785,128.985,67.855,127.547,68.39,126.02L68.39,126.02z
	 M64.633,107.411l-6.36,18.137c-0.293,0.828-0.84,1.492-1.625,1.992c-0.789,0.496-1.597,0.742-2.406,0.742
	c-0.605,0-1.129-0.164-1.563-0.496c-0.433-0.332-0.648-0.785-0.648-1.355c0-0.164,0.07-0.535,0.234-1.105l6.239-17.828
	c0.476-1.313,1.101-2.262,1.879-2.859c0.789-0.594,1.605-0.895,2.472-0.895c0.414,0.016,0.778,0.109,1.082,0.285
	c0.301,0.172,0.535,0.41,0.696,0.711c0.152,0.301,0.254,0.664,0.293,1.082C64.926,106.247,64.824,106.778,64.633,107.411
	L64.633,107.411z M81.586,134.821c5.918,0,9.969-0.68,12.16-2.047s3.535-2.762,4.027-4.199l2.961-8.395
	c0.192-0.57,0.293-1.078,0.293-1.535c0-1.398-0.828-2.539-2.484-3.414c1.574-0.664,2.695-1.219,3.371-1.668
	c0.668-0.438,1.18-0.973,1.523-1.605c0.344-0.625,0.739-1.574,1.164-2.855l1.454-4.254c0.293-0.727,0.445-1.438,0.445-2.125
	c0-3.305-3.356-4.957-10.059-4.957H81.879l-12.953,37.055H81.586z M81.527,128.329l3.402-9.73h2.422
	c1.879,0.047,2.848,0.594,2.899,1.629c0,0.301-0.09,0.734-0.293,1.289l-1.442,4.234c-0.636,1.613-2.152,2.469-4.566,2.578H81.527z
	 M87.152,112.114l2.805-7.875h2.426c1.898,0.105,2.847,0.695,2.847,1.766c0,0.285-0.082,0.664-0.242,1.152l-0.859,2.379
	c-0.293,0.887-0.828,1.527-1.606,1.922c-0.789,0.387-1.765,0.609-2.949,0.656H87.152z M128.836,116.883
	c0.645-0.316,1.199-0.578,1.633-0.777c0.445-0.211,0.871-0.488,1.273-0.844s0.828-0.902,1.273-1.652
	c0.445-0.738,0.879-1.703,1.293-2.879l2.039-5.883c0.293-0.727,0.445-1.438,0.445-2.125c0-3.305-3.355-4.957-10.059-4.957h-14.563
	l-12.953,37.055h10.296l5.707-16.223h3.02l-3.281,16.223h10.621L128.836,116.883z M117.445,112.114l2.805-7.875
	c2.031,0,3.434,0.098,4.191,0.293c0.758,0.199,1.141,0.641,1.141,1.336c0,0.301-0.102,0.734-0.301,1.289l-0.859,2.379
	c-0.273,0.793-0.707,1.379-1.281,1.75c-0.586,0.371-1.285,0.605-2.09,0.688C120.242,112.067,119.039,112.114,117.445,112.114
	L117.445,112.114z M142.91,129.254h4l-1.336,5.566h10.887l7.219-37.055h-15.742l-18.426,37.055h10.914L142.91,129.254z
	 M148.594,123.239h-3.262l6.836-15.063L148.594,123.239z M189.563,126.02c0.625-1.93,0.949-3.461,0.949-4.594
	c0-1.176-0.445-2.457-1.336-3.848c-1.09-1.629-2.211-3.023-3.371-4.207c-1.16-1.172-2.586-2.516-4.262-4.023
	c-1.008-0.887-1.516-1.859-1.516-2.918c0.387-1.043,0.992-1.746,1.828-2.109c0.84-0.359,1.598-0.539,2.293-0.539
	c1.496,0,2.242,0.617,2.242,1.852l-1.445,4.172h10.301l1.09-3.234c0.273-0.789,0.414-1.578,0.414-2.379
	c0-1.445-0.504-2.695-1.504-3.738c-1.012-1.051-2.313-1.836-3.906-2.363c-1.598-0.531-3.285-0.793-5.063-0.793
	c-2.563,0-5.027,0.445-7.379,1.336c-2.363,0.887-4.352,2.055-5.977,3.504c-1.629,1.445-2.707,2.926-3.242,4.434
	c-0.375,1.172-0.566,2.176-0.566,3.012c0,0.996,0.254,1.906,0.746,2.73c0.465,0.695,0.93,1.297,1.383,1.801
	c0.457,0.5,0.949,0.996,1.465,1.48c0.527,0.48,1.313,1.207,2.375,2.172c1.051,0.965,1.797,1.684,2.23,2.145
	c1.426,1.422,2.129,2.988,2.129,4.711c0,0.617-0.09,1.16-0.262,1.629c-0.281,0.719-0.816,1.25-1.613,1.582
	c-0.801,0.332-1.516,0.496-2.152,0.496c-0.766,0-1.332-0.211-1.715-0.617c-0.375-0.418-0.559-0.934-0.559-1.555l2.164-6.152h-10.301
	l-2.129,6.016c-0.273,0.742-0.414,1.465-0.414,2.176c0,1.445,0.535,2.672,1.613,3.676c1.07,1.004,2.434,1.746,4.102,2.223
	c1.656,0.488,3.309,0.727,4.965,0.727c2.547,0,4.98-0.41,7.313-1.219c2.32-0.82,4.293-1.898,5.898-3.258
	S189.027,127.547,189.563,126.02L189.563,126.02z M189.563,126.02"/>
</svg>
