<svg version="1.1" baseProfile="basic" id="Layer_1" xmlns="http://www.w3.org/2000/svg"
	xmlns:xlink="http://www.w3.org/1999/xlink" x="0px" y="0px" viewBox="0.5 800.5 800 800" xml:space="preserve">
	<path fill="#C8C8C8" d="M609.996,1235.503l54.236-0.253l-0.679,4.076c11.059-3.949,22.637-5.979,34.438-5.979
	c10.72,0,21.282,1.902,31.265,5.769c11.889,4.557,22.195,11.903,30.319,21.734c10.646,12.888,15.921,29.008,15.921,45.661
	c0,8.066-1.185,16.063-3.455,23.763l-12.791,44.026h-6.415c0.082,1.495,0.14,2.989,0.14,4.484c0,11.043-2.271,21.874-5.23,32.463
	l-0.126,0.465l-0.142,0.481c-4.313,14.314-12.325,26.752-22.943,37.188c-9.729,9.574-21.224,16.838-33.845,22.001l-0.156,0.072
	c-12.732,5.133-26.23,7.769-39.965,7.769c-182.258,0-364.533,0-546.806,0c-10.055,0-19.982-1.722-29.474-4.95
	c-11.914-3.988-22.433-10.675-30.954-19.927c-11.917-12.908-17.837-29.677-17.837-47.16c0-7.983,1.267-15.908,3.639-23.525
	l24.592-81.667c4.823-15.609,13.34-29.545,25.314-40.686c10.225-9.507,22.167-16.684,35.326-21.337
	c1.665-0.578,3.329-1.13,4.993-1.635c-24.849-28.629-41.25-63.18-41.25-103.712v-14.906c0-18.387,3.625-36.229,10.915-53.109
	c32.452-75.151,128.277-114.083,202.709-130.982c39.358-8.939,80.651-13.849,121.029-13.849h29.827
	c13.383,0,26.863,0.718,40.206,1.762c15.16,1.188,30.504,2.795,45.521,5.206c12.68,2.028,25.16,4.935,37.796,7.205
	c7.7,1.397,14.228,4.246,20.42,9.026c2.313,1.776,5.726,5.26,8.093,6.557c0.229,0.115,0.452,0.212,0.69,0.271
	c26.203,5.357,51.824,4.964,77.677,13.408c20.871,6.842,42.109,45.059,42.109,66.27c0,17.118-15.906,29.657-28.852,38.282
	c-4.78,3.188-9.69,6.163-14.597,9.155c-3.469,2.126-7.206,4.343-10.452,6.81c-9.252,7.036-32.351,23.722-49.568,32.477
	c0.311,0.451,0.563,0.849,0.777,1.173c4.09,6.218,8.194,12.34,11.747,18.882c4.95,9.182,8.913,19.348,8.913,29.926v18.643
	C633.069,1206.325,623.621,1222.474,609.996,1235.503L609.996,1235.503z" />
	<path fill="#3751A3" d="M103.762,1467.712c-8.741,0-17.416-1.495-25.805-4.357c-9.744-3.257-18.727-8.744-26.16-16.824
	c-9.575-10.351-14.795-24.155-14.795-39.343c0-6.896,1.13-13.68,3.145-20.153l24.581-81.638
	c4.401-14.217,12.016-26.231,22.156-35.65c9.307-8.657,19.925-14.893,31.318-18.911c10.719-3.779,21.792-5.809,32.987-5.809
	c6.939,0,9.351,21.041,16.134,22.777c37.218,9.534,269.583,93.851,333.198,8.35c6.996-9.404,41.095-29.459,59.427-28.896
	l90.679-0.423l-2.101,12.496c4.144-2.582,8.462-4.824,12.888-6.755c11.733-5.148,24.059-7.716,36.582-7.716
	c9.238,0,18.377,1.607,27.149,5.007c9.689,3.708,18.459,9.73,25.567,18.305c8.632,10.462,13.285,23.846,13.285,38.344
	c0,7.008-1.043,13.918-3.003,20.535l-10.38,35.748h-11.224c1.324,5.148,2.071,10.477,2.071,15.994
	c0,9.971-2.174,19.938-4.794,29.361l-0.098,0.368l-0.111,0.354c-3.878,12.874-11.084,23.564-19.982,32.308
	c-8.885,8.729-19.193,15.077-30.124,19.546l-0.127,0.058c-11.494,4.64-23.48,6.939-35.65,6.939
	C473.967,1467.712,275.77,1467.712,103.762,1467.712L103.762,1467.712z" />
	<path fill="#050605" d="M89.62,1119.72v14.906c0,86.916,82.003,142.507,144.492,169.966c84.913,37.3,144.225,50.02,265.647,50.02
	l1.664-1.412l-15.47-18.163l-1.116,0.933c0-62.671,15.232-59.429,64.038-77.648c29.207-10.903,72.685-34.396,72.685-71.487v-18.643
	c0-21.743-23.17-44.914-26.102-55.93c10.55-0.873,49.753-28.824,58.764-35.694c13.455-10.238,49.359-25.892,49.359-45.083
	c0-18.362-19.997-50.685-34.172-55.323c-25.64-8.38-49.329-7.545-76.406-13.073c-9.335-1.921-12.015-12.752-28.938-15.795
	c-12.82-2.314-24.453-5.079-37.568-7.181c-23.438-3.751-58.555-6.823-83.909-6.823H412.76
	C276.969,933.288,89.62,992.551,89.62,1119.72L89.62,1119.72z" />
	<path fill="#FFFFFF" d="M404.06,1155.757v7.459c5.274,1.412,2.173,2.497,6.22,2.497h3.722c0.34-1.299,1.271-3.454,1.48-3.765
	l-1.635-14.711l-3.567-2.665C407.15,1146.67,404.06,1150.623,404.06,1155.757L404.06,1155.757z M205.201,1147.067
	c6.784,2.451,7.474,13.665,16.163,13.665c0.563,0,21.715-6.546,23.549-7.405l-16.091-18.704
	C221.589,1136.319,205.895,1138.872,205.201,1147.067L205.201,1147.067z M235.03,1133.384l13.892,14.78l0.505-1.292l5.502-14.723
	H243.73C239.47,1132.149,238.892,1132.99,235.03,1133.384L235.03,1133.384z M192.638,1121.85l7.725,18.108l26.218-9.166
	l-8.221-18.293l0.04-1.379L192.638,1121.85z M167.93,1137.125c0,3.382,9.899,15.693,12.267,17.162l16.968-11.79l1.311,0.494
	l-8.181-18.308C186.248,1125.023,167.93,1135.233,167.93,1137.125L167.93,1137.125z M411.522,1135.869
	c1.732,0,2.483-1.694,2.483-3.723v-12.427C412.424,1121.525,406.15,1135.869,411.522,1135.869L411.522,1135.869z M155.492,1117.229
	l10.322,17.953l22.297-14.314l-5.881-18.346l-0.281-1.767L155.492,1117.229z M222.632,1109.867
	c0.282,3.653,7.517,19.799,9.914,19.799c0.805,0,25.3-3.665,25.441-3.989c0.368-0.849-7.867-13.271-8.191-21.607L222.632,1109.867z
	 M260.073,1119.654l1.664-0.437l10.578-14.411l-17.925,0.209L260.073,1119.654z M185.447,1098.906l4.892,19.673l25.976-11.268
	l-4.824-18.474L185.447,1098.906z M221.365,1104.803l26.272-4.993l-1.412-13.654v-3.722h-3.737c-4.158,0-17.372,2.625-21.195,3.683
	C214.018,1088.131,220.123,1099.488,221.365,1104.803L221.365,1104.803z M252.712,1092.333l-0.282,7.506l26.275-0.029l-1.411-13.654
	v-4.964l-26.247,0.015L252.712,1092.333z M180.366,1075.004l2.61,18.994l28.203-10.305l-1.223-20.462L180.366,1075.004z
	 M283.457,1093.621l13.722-9.941c-3.892-0.326-4.416-1.242-8.7-1.242l-6.545,0.043L283.457,1093.621z M214.96,1061.534l1.44,19.672
	l29.503-5.019l1.437-20.534L214.96,1061.534z M253.701,1056.487c-0.353,3.736-1.271,4.256-1.271,8.545v9.942l23.282-0.101
	l5.304-19.785l-16.188-0.281L253.701,1056.487z M314.046,1073.61l21.661-7.332l-0.13-1.961l-18.388-4.217L314.046,1073.61z
	 M281.399,1075.932l28.033,3.26l0.17-1.735c0-20.857,11.368-21.125-21.618-21.279L281.399,1075.932z M377.958,1063.79
	c-2.553-4.837-3.726-9.972-3.726-17.4c0-22.579,10.354-26.131,18.646-38.528l-1.819,0.704l-8.434-21.997l2.411-0.567l-12.043-9.209
	C339.978,998.904,335.48,1052.454,377.958,1063.79L377.958,1063.79z M379.196,1043.905v3.726c0,12.268,18.856,22.38,32.326,22.38
	h1.242c20.603,0,26.513-6.87,38.528-14.922c-1.384-5.19-4.145-6.094-6.416-11.068c-3.372-7.39-0.394-10.806-2.032-14.217
	c-2.185-4.527-15.766-3.513-18.896-16.965c-17.415,0-26.568-6.119-32.055,1.384C386.741,1021.229,379.196,1032.453,379.196,1043.905
	L379.196,1043.905z M652.629,987.976c0,1.51-2.566,3.722-4.979,3.722h-1.241c-4.12,0-2.989-3.213-7.459-6.202h-7.448
	c2.34-2.047,5.6-3.739,9.943-3.739C644.705,981.756,652.629,984.312,652.629,987.976L652.629,987.976z M553.208,973.073
	c-3.159,4.526-6.021,11.185-13.68,11.185h-9.942c-4.513,0-4.357-1.48-8.7-2.498l-15.542-16.005l1.877-1.383h-9.942v11.185
	c0,11.365,16.246,18.644,28.586,18.644c13.736,0,17.119-5.372,26.091-7.463c-6.755,10.098-17.387,6.502-17.387,16.163v3.719
	c0,5.938,1.396,7.715,3.723,11.184c-9.729-2.271-11.481-11.522-7.459-19.884c-23.369,0.523-42.25-2.863-42.25-29.828l-0.015-6.163
	l-45.973-2.538v-2.479c30.614,0,64.673-1.028,90.623,3.819c17.994,3.372,24.229-0.126,36.354,10.874
	c8.206,7.459,14.654,23.423-0.213,28.799c3.188-11.932,9.759-27.332-16.163-27.332h0.012V973.073z M155.492,1117.229l-6.036,2.819
	l-1.003-1.466l32.069-22.495l-3.271-19.517l-27.964,19.531c6.458-24.213,83.796-47.229,121.787-47.229l23.733-0.903l55.807,8.365
	c-21.199-40.08-12.65-59.398,21.138-82.02l-3.202-1.538l11.339-23.55l3.047,1.466c-2.061,3.075-7.461,10.535-7.461,14.921v1.242
	c0,6.979,6.826,11.126,12.087,12.098l16.455-17.062l1.285,1.224c-6.119,9.155-14.907,12.145-14.907,28.585v2.499
	c0,8.123,16.261,14.906,24.849,14.906h2.484c4.766,0,7.36-35.481,31.079-41.012c-5.642,7.7-19.884,17.148-19.884,29.827v9.942
	c0,9.773,13.396,16.163,23.606,16.163c34.749,0,25.413-14.823,42.251-26.105c-2.737,10.282-16.431,14.229-6.206,33.564l-1.029,0.816
	l-6.43-9.518c-7.885,0.646-14.809,6.207-23.606,6.207h-9.943v4.974c0,6.925,3.85,14.907,9.943,14.907h8.686
	c10.478,0,27.387-12.846,37.287-13.665c-8.337,7.249-43.381,19.478-47.583,26.994c-6.91,12.34-11.142,52.659-16.81,59.836
	l9.253-55.833l0.985,1.68l-40.658,13.48l-0.888-2.664c2.411,9.025,13.989,10.606,15.033,33.451
	c0.663,14.693,2.483,32.012,2.396,47.313c-0.097,17.629-2.495,32.477,7.095,41.376c6.162,5.726,24.946,13.34,36.383,13.34h2.484
	c8.574,0,18.643-11.845,18.643-21.138c-9.703,0.815-9.743,9.942-19.884,9.942h-3.737c-9.618,0-29.813-11.664-28.954-19.942
	l5.343-28.528c0-19.065,13.792-48.693,20.716-62.543c13.17-26.391,15.527-29.502,39.178-45.344
	c32.745-21.943,75.857-38.767,130.265-38.767c7.051,0,41.444,30.672,32.308,49.709c12.48-0.268,26.102-18.105,26.102-32.308v-1.238
	c0-18.449-23.665-40.179-39.839-44.677c-13.17-3.654-65.619-10.044-71.835-13.921c-23.525-14.737-35.991-11.704-67.974-16.542
	c-20.647-3.131-59.442-4.401-81.342-4.401H412.76c-133.65,0-311.944,54.73-311.944,178.962v8.701
	c0,69.691,54.833,117.852,99.184,144.408c32.366,19.376,135.326,60.655,184.175,60.655l1.087-0.917l-9.772-10.902l-23.593-0.438
	l16.469-3.553l-0.548-1.281l-18.881-12.679l-1.145,1.087l-2.989,8.869l-0.325-6.952l-19.954,1.916h-1.241
	c-11.986,0-4.979-3.722-4.979-16.979l-37.271,0.126l-0.015-1.791h11.199v-4.978c0-6.274,1.986-6.6,2.383-12.976l-19.787,3.033
	h-11.182c-14.246,0,3.102-1.65,5.499-6.896c0.762-1.693,6.881-17.799,6.924-17.954c-3.892,0.325-4.415,1.242-8.7,1.242
	l-13.806-0.791l-8.899,0.719l-38.02-12.127l40.712,6.74l-0.65-1.34l14.485-18.277l-30.59-4.354l-10.603,11.946l7.361-14.188
	l-22.35-9.573l-6.177,5.133l3.173-7.163l-2.499,2.004l-40.658-36.459l1.286-1.354l44.069,34.408l0.859-1.45l12.043-15.163
	l-20.744-13.452l-10.365,9.573l-0.989-1.014l9.761-10.325l-16.375-17.261l0.072-1.494l-13.777,10.011l12.17-11.845l-13.892-18.065
	L155.492,1117.229z M181.764,1157.276l15.907,18.261l17.982-11.491l-15.47-18.322L181.764,1157.276z M223.802,1163.057l0.13,2.498
	l22.293,11.337l-0.462-5.044l2.664-15.81L223.802,1163.057z M200.466,1177.837c5.046,2.61,17.499,13.961,19.657,13.961
	c3.116,0,15.723-10.632,22.365-11.182v-2.482l-0.689,1.197l-22.156-12.805l0.126-1.368L200.466,1177.837z M404.06,1190.556
	c2.566,1.722,3.23,3.727,6.22,3.727h7.448v-12.423c0-4.751-3.921-9.943-7.448-9.943
	C400.366,1171.912,404.06,1182.704,404.06,1190.556L404.06,1190.556z M225.761,1193.296l21.467,5.993l-2.596-16.781
	L225.761,1193.296z M208.151,1210.921l23.351,8.434l14.723-12.636l-0.282-1.722l-23.704-8.586L208.151,1210.921z M406.543,1204.235
	v3.726c0,6.697,5.668,12.423,12.437,12.423h7.448c6.755,0,6.697-2.329,13.679-2.484v-2.483c-7.191-1.917-10.844-6.925-15.823-11.535
	C420.281,1200.163,406.543,1196.411,406.543,1204.235L406.543,1204.235z M235.296,1220.553l22.34,3.47l-6.91-15.866l-0.425-1.186
	L235.296,1220.553z M486.094,1227.846l4.004-2.78l-7.744-7.163c-2.945,1.567-8.463,4.965-12.422,4.965l-5.542,0.466l7.065,10.181
	L486.094,1227.846z M428.923,1224.124c0.975,1.451,19.604,17.387,19.884,17.387c4.146,0,14.85-5.036,19.886-6.206
	c-1.509-6.488-8.841-11.972-15.581-14.257C443.547,1217.806,438.696,1221.839,428.923,1224.124L428.923,1224.124z M412.764,1229.088
	l5.036,18.982l27.274-5.304C439.966,1235.135,423.085,1223.968,412.764,1229.088L412.764,1229.088z M251.189,1250.211l9.986,0.282
	l13.636-1.524c-0.676-2.509-9.181-14.906-11.196-14.906C258.975,1234.063,251.6,1245.344,251.189,1250.211L251.189,1250.211z
	 M428.923,1251.452l18.574,15.979l16.217-6.036c-0.858-3.231-13.466-16.148-14.907-16.148
	C446.663,1245.247,431.942,1250.76,428.923,1251.452L428.923,1251.452z M432.645,1272.591c3.581,0,3.102-2.34,9.942-2.494
	c-1.368-5.12-12.155-12.269-17.4-13.666C425.187,1261.958,430.092,1272.591,432.645,1272.591L432.645,1272.591z M269.229,1274.721
	l24.424-6.487l0.407-1.282l-13.563-12.059L269.229,1274.721z M293.146,1292.35l26.397-3.61l-0.578-1.732l-16.754-13.258
	l-1.252-0.407L293.146,1292.35z M435.27,1276.782l9.802,18.178h4.979c2.848,0,8.997-2.679,11.689-4.134l-14.062-17.854
	L435.27,1276.782z M319.544,1306.141v4.979c8.856-2.072,17.532-0.846,22.38-7.459c-1.438-1.96-12.17-9.943-14.921-9.943h-2.48
	C319.811,1293.717,319.544,1301.263,319.544,1306.141L319.544,1306.141z M539.529,1101.076l46.681,27.388l-1.044,2.145
	l-51.868-19.56l10.69,36.751l-1.878,0.451l-19.982-32.268l-33.957,54.322l2.946,1.723l17.065-9.321l1.028,0.873l-13.946,29.022
	l9.448,11.646l-10.308-8.499l-0.282,1.341l-9.025,16.91l13.777,19.546l-12.777-5.698l-11.704,6.444l3.004,7.222
	c-10.069-6.74-11.394-3.979-25.65,3.255l14.723,14.654l36.99-19.206l1.072,1.863l-52.575,30.42l-0.805-1.059l11.479,18.954
	l8.39-3.286l0.719,1.412l-22.311,11.933l24.791,29.671l1.932-1.605c0-8.109-2.495-7.886-2.495-14.907v-8.7
	c0-60.612,136.708-50.641,136.708-124.282v-12.426c0-24.467-32.618-68.522-47.539-78.93L539.529,1101.076z" />
	<path fill="#FFFFFF" d="M442.587,1154.511l-2.483,22.381c-1.538,10.83,18.939,21.13,29.828,21.13
	c11.605,0,25.173-14.314,27.343-23.621c-5.74,1.538-19.477,13.679-22.379,13.679c-5.939,0-18.644-2.213-18.644-7.459
	c0-4.992,12.142-9.111,12.719-21.971l-19.672,13.975l-1.48-0.791l3.668-43.759L442.587,1154.511z M254.929,1173.155
	c0,98.11,138.542,131.534,147.889,166.225l69.598,1.566c-0.563-2.102-18.265-23.253-20.773-25.199
	c-6.712-5.245-27.95-7.123-40.12-7.123h-21.127c-19.206,0,12.029-4.964,13.666-4.964l13.736-0.379l26.033,4.105
	c-5.614-21.041-30.488-31.392-59.694-28.954l-33.521,2.862c3.946-3.427,19.741-7.459,27.344-7.459l16.17-0.296l28.575,1.538
	c-6.531-12.34-6.245-21.012-20.701-24.044c-10.845-2.271-28.487-5.783-40.193-5.783l-31.152-0.495l-21.055,2.975
	c4.357-5.938,38.47-9.942,50.965-9.942l6.404-1.115l40.726,7.361l-7.36-23.65c-17.532-1.452-41.911-14.907-72.092-14.907
	l-21.167-0.408l-28.542,2.893c6.372-4.431,32.672-8.7,44.745-8.7c32.733,0,50.135,7.682,75.547,13.703l-2.228-19.925
	c-12.722-2.96-30.604-14.228-51.558-19.264c-22.282-5.357-37.951-6.827-65.435-7.925l20.051-2.639h22.368
	c34.55,0,52.233,17.46,73.331,22.38v-24.859l0.748-2.257l-95.613-31.337l-0.834,2.523c25.95,0,42.958,3.271,62.121,9.972
	c8.986,3.145,17.318,5.964,25.766,10.394c12.243,6.43,11.253,3.019,12.791-15.404l0.902-1.859l-74.518-36.157l-0.957,1.99
	c34.564,0,65.518,27.607,76.378,28.358l4.386-13.452l1.311-1.989l-46.525-30.235l0.552-1.311l48.131,25.481l-0.96,1.833
	c5.178-22.268-28.697-34.792-52.207-34.792C309.883,1072.494,254.929,1126.72,254.929,1173.155L254.929,1173.155z M574.375,1086.383
	l15.415,18.827l18.163-24.921L574.375,1086.383z M518.402,1041.43c22.03-5.135,46.496-21.142,75.814-21.142h9.943
	c4.288,0,4.809,0.931,8.7,1.256l2.921,2.523l-46.269,53.362l-1.397-1.21c30.784-7.166,43.226-32.902,60.894-44.733l1.791-1.961
	l18.221,16.615l0.689,3.324l-43.07,47.879c10.661-2.48,44.846-28.304,50.262-36.737c13.835-21.506-18.982-49.005-30.377-49.005
	h-12.422C586.433,1011.598,527.893,1028.465,518.402,1041.43L518.402,1041.43z M520.886,981.756c4.343,1.018,4.188,2.498,8.7,2.498
	h9.942c7.658,0,10.521-6.657,13.68-11.184l-12.438-3.737c-1.368,5.909-1.776,8.221-6.206,11.184l1.242-12.426l-19.885-2.48v4.964
	C515.922,975.271,518.954,978.867,520.886,981.756L520.886,981.756z" />
	<path fill="#D92827" d="M522.127,1115.983l19.983,32.268l1.877-0.451l-10.69-36.751l51.868,19.56l1.044-2.145l-46.681-27.388
	l-60.16-31.218l-0.563,1.467l-4.57,9.549l2.159-1.751L522.127,1115.983z M540.771,969.333l-2.552,0.111l-2.412-1.354l-1.242,12.426
	C538.991,977.554,539.403,975.246,540.771,969.333L540.771,969.333z" />
	<path fill="#FFFFFF" d="M626.159,1306.552c3.257-8.434,8.405-15.668,14.242-21.802c7.6-8.026,16.484-13.906,25.976-18.123
	c10.156-4.527,20.773-6.77,31.618-6.77c7.744,0,15.373,1.339,22.705,4.231c7.516,2.935,14.328,7.6,19.842,14.368
	c6.119,7.56,9.351,17.037,9.351,27.499c0,5.318-0.776,10.521-2.242,15.542l-7.148,25.088h-24.68c1.51,2.368,2.961,4.794,4.358,7.264
	l0.082,0.141l0.072,0.155c4.134,7.628,7.037,16.217,7.037,25.397c0,8.195-1.989,16.993-4.12,24.748l-0.043,0.185l-0.058,0.184
	c-3.047,10.268-8.842,18.716-15.795,25.68c-7.56,7.574-16.387,13.015-25.708,16.91l-0.058,0.029
	c-10.012,4.104-20.42,6.119-31.026,6.119c-186.164,0-369.144,0-546.807,0c-7.415,0-14.747-1.281-21.87-3.752
	c-7.628-2.595-14.669-6.88-20.478-13.313c-6.711-7.39-10.307-17.037-10.307-27.882c0-5.119,0.831-10.127,2.311-14.921l24.582-83.093
	c3.509-11.549,9.574-21.239,17.683-28.91c7.929-7.487,16.925-12.834,26.626-16.319c9.393-3.371,19.054-5.201,28.881-5.201
	c5.924,0,11.86,0.664,17.643,2.173c5.628,1.466,11.054,3.794,16.076,7.162c5.202,3.499,9.661,8.167,13.004,14.062l0.039,0.059
	c0.806,1.437,1.523,2.921,2.145,4.44c0.931-1.086-0.806,0.806,0.184-0.213c97.743,14.257,317.175,53.59,350.569-25.835h82.666
	L626.159,1306.552z" />
	<path fill="#FFFFFF" d="M486.531,1405.833l68.691-138.135h69.749l-28.81,147.864H542.12l4.81-20.095h-0.931l-8.969,20.095H431.912
	l8.181-40.46l-14.229,40.46h-52.095l6.697-19.152c-3.538,4.314-8.234,7.855-12.806,10.689c-12.213,7.614-33.617,8.463-47.622,8.463
	h-55.633l9.293-26.568c-2.397,3.218-5.26,6.12-8.336,8.729c-6.909,5.853-15.003,10.041-23.52,13.044
	c-9.268,3.217-18.899,4.795-28.716,4.795c-6.755,0-13.422-1-19.896-2.906c-6.573-1.889-12.65-4.95-17.642-9.632
	c-5.289-4.921-8.08-11.199-8.08-18.43c0-0.199,0-0.409,0.014-0.607c-2.833,5.304-6.924,9.845-11.524,13.736
	c-6.91,5.853-15.004,10.041-23.52,13.044c-9.267,3.217-18.899,4.795-28.716,4.795c-6.755,0-13.423-1-19.896-2.906
	c-6.575-1.889-12.651-4.95-17.644-9.632c-5.289-4.921-8.08-11.199-8.08-18.43c0-3.514,0.704-6.939,1.917-10.239l24.567-70.244
	c3.071-8.546,8.375-15.654,15.455-21.322c7.234-5.783,15.44-9.87,24.272-12.563c8.729-2.65,17.711-4.091,26.834-4.091
	c5.416,0,10.846,0.509,16.134,1.664c4.921,1.087,9.701,2.806,14.102,5.304c4.26,2.426,7.914,5.628,10.661,9.715
	c2.877,4.329,4.177,9.264,4.177,14.441c-0.256,18.332,65.319,23.141,128.259,15.105c16.033-2.059,21.352-22.792,34.832-23.143
	c20.745-0.563,2.921,33.507,23.893,31.672c14.411-1.256,28.542-2.75,41.882-4.399c8.039-1.001,4.793-25.976,12.339-26.684
	c57.113-5.357,97.107-1.058,79.552,34.073c-1.412,3.989-3.088,8.04-5.261,11.66c-1.621,2.752-3.581,5.527-5.992,7.658
	c-1.889,1.649-3.979,3.047-6.246,4.119l-0.044,0.015c-0.858,0.394-1.721,0.805-2.566,1.213L486.531,1405.833z M402.652,1332.965
	c-1.523,1.804-3.329,3.357-5.332,4.682c-1.044,0.689-2.145,1.34-3.286,1.96c1.762,2.582,2.892,5.542,3.173,8.929L402.652,1332.965z
	 M183.09,1335.278h-50.218l9.986-28.178l0.025-0.072c0.339-0.873,0.382-2.145,0.382-3.047c0-0.126,0-0.296-0.014-0.479
	c-0.072,0-0.141,0-0.199,0c-1.495,0-2.723,0.379-3.906,1.324l-0.083,0.058c-1.96,1.523-4.032,5.358-5.206,7.716l-22.239,63.518
	c-0.098,0.479-0.195,1-0.195,1.451c0,0.111,0.014,0.268,0.014,0.437c0.195,0.015,0.394,0.015,0.535,0.015
	c1.622,0,3.145-0.704,4.484-1.581c1.566-1.028,2.707-2.34,3.498-4.019l9.545-27.794h50.319L183.09,1335.278z M252.672,1303.407
	c-4.613-0.985-8.112,5.487-9.321,8.813l-22.452,64.139c-0.126,0.437-0.267,0.945-0.383,1.426c0.271,0.058,0.552,0.071,0.805,0.071
	c1.776,0,3.426-0.648,4.921-1.581c1.397-0.902,2.426-2.003,2.975-3.581l22.917-65.323
	C252.503,1306.155,253.08,1304.66,252.672,1303.407L252.672,1303.407z M329.783,1377.937c3.441-0.311,7.25-1.271,8.657-4.639
	l5.177-15.16l0.029-0.058c0.068-0.212,0.169-0.479,0.267-0.776c-1.073-0.212-2.456-0.296-3.145-0.31h-3.654L329.783,1377.937z
	 M700.421,1325.234c0.297,0.297,0.593,0.593,0.889,0.903c4.866,4.935,9.151,10.451,13.015,16.202l0.028,0.072l0.044,0.058
	c3.386,5.289,5.924,11.312,5.924,17.684c0,6.104-1.888,12.975-3.765,18.755l-0.029,0.072l-0.028,0.082
	c-2.61,7.459-7.715,13.611-13.693,18.658c-6.896,5.852-14.99,10.04-23.511,13.043c-9.263,3.218-18.91,4.795-28.712,4.795
	c-6.755,0-13.426-1-19.914-2.906c-6.556-1.889-12.635-4.949-17.628-9.632c-5.303-4.921-8.08-11.199-8.08-18.43
	c0-3.513,0.704-6.954,1.917-10.253l9.336-26.373h32.056c-1.339-1.213-2.665-2.44-4.004-3.653l-0.044-0.044l-0.058-0.043
	c-1.945-1.849-3.862-3.751-5.668-5.755c-2.058-2.271-3.92-4.751-5.628-7.304l-0.098-0.141l-0.083-0.154
	c-2.47-4.12-3.707-8.673-3.707-13.48c0-4.373,1.058-8.871,2.382-13.016l0.029-0.111l0.043-0.112
	c2.636-7.434,7.827-13.723,13.65-18.896c6.953-6.205,15.104-10.718,23.791-13.989c9.351-3.526,19.123-5.274,29.135-5.274
	c6.968,0,13.85,1.015,20.463,3.23c6.43,2.116,12.268,5.445,16.993,10.337c4.852,5.075,7.39,11.34,7.39,18.376
	c0,3.723-0.664,7.347-1.877,10.859l-5.542,16.444h-35.016V1325.234z M682.627,1307.13c0.422,1.649,1.692,3.032,2.936,4.134
	l0.058,0.058c0.635,0.563,1.271,1.141,1.902,1.722l3.3-9.521c-0.199-0.014-0.38-0.014-0.51-0.014c-1.834,0-3.809,0.649-5.473,1.368
	C683.825,1305.31,683.132,1306.17,682.627,1307.13L682.627,1307.13z M663.178,1362.607l-5.386,15.344
	c0.325,0.058,0.776,0.072,0.985,0.072c1.664,0,3.538-0.607,5.062-1.242c0.889-0.368,1.581-0.83,1.946-1.723
	c0.379-1.057,0.495-2.256,0.495-3.371C666.281,1368.222,665.096,1365.243,663.178,1362.607L663.178,1362.607z" />
	<path fill="#D92827" d="M163.84,1446.065c12.058,0,24.228,0,36.344,0c0.661-1.748,1.379-3.513,2.101-5.261
	c-6.051-0.014-12.116-0.014-18.108-0.014c1.566-4.134,3.256-8.25,4.823-12.384c1.578-4.119,3.256-8.221,4.935-12.34
	c-6.09-0.015-12.141-0.015-18.177-0.028c-1.99,4.992-4.019,10-5.979,14.989C167.803,1436.054,165.786,1441.047,163.84,1446.065
	L163.84,1446.065z M206.555,1446.065c6.108,0,12.17,0,18.221,0c1.917-5.008,3.892-10.001,5.808-14.99
	c1.906-4.992,3.921-9.971,5.896-14.95c-6.051-0.015-12.083-0.015-18.12-0.028c-1.975,4.979-4.007,9.972-5.924,14.965
	C210.505,1436.054,208.531,1441.058,206.555,1446.065L206.555,1446.065z M281.85,1433.347c-6.051,0-12.059-0.015-18.051-0.015
	c-0.708,1.747-1.315,3.483-1.921,5.231c-0.423,0.679-1.253,1.241-2.412,1.635c-1.213,0.408-2.495,0.606-3.849,0.606
	c-2.455,0-3.907-0.563-4.329-1.679c-0.073-0.213-0.058-0.466-0.073-0.747c0.888-2.412,1.849-4.823,2.766-7.206
	c0.903-2.411,1.863-4.794,2.848-7.191c0.831-1.141,1.679-1.917,2.722-2.339c1.044-0.438,2.257-0.65,3.78-0.65
	c2.339,0.015,3.693,0.563,4.116,1.693c0.17,0.48,0.228,0.888,0.087,1.242c-0.563,1.383-1.102,2.779-1.679,4.173
	c6.051,0,12.044,0,18.095,0.015c0.548-1.621,1.141-3.23,1.733-4.853c0.268-0.805,0.268-1.494,0.058-2.058
	c-0.339-0.889-1.101-1.679-2.285-2.354c-1.242-0.663-2.805-1.213-4.683-1.663c-1.834-0.451-3.95-0.806-6.22-1.029
	c-2.311-0.228-4.708-0.354-7.207-0.354c-4.003,0-7.852,0.282-11.661,0.846c-3.852,0.548-7.079,1.382-9.743,2.508
	c-2.61,1.102-4.289,2.471-4.896,4.063c-1.015,2.61-2.155,5.217-3.144,7.855c-0.986,2.61-2.029,5.231-2.989,7.856
	c-0.252,0.605-0.296,1.198-0.087,1.775c0.427,1.156,1.737,2.159,3.91,2.975c2.184,0.82,4.809,1.412,7.866,1.806
	c3.076,0.379,6.08,0.578,8.997,0.578c4.444,0,8.604-0.325,12.427-0.986c3.819-0.664,6.993-1.552,9.35-2.635
	c2.412-1.102,3.863-2.257,4.343-3.498C280.366,1437.083,281.089,1435.22,281.85,1433.347L281.85,1433.347z M283.316,1446.065
	c6.051,0,12.058,0,18.065,0c0.888-2.368,1.819-4.741,2.708-7.108c0.874-2.368,1.819-4.726,2.747-7.095c3.134,0,6.318,0,9.491,0
	c-0.927,2.369-1.791,4.74-2.693,7.095c-0.917,2.382-1.819,4.74-2.708,7.108c6.007,0,12.015,0,17.968,0
	c1.874-4.979,3.78-9.973,5.613-14.937c1.845-4.978,3.777-9.928,5.697-14.877c-5.982-0.015-11.975-0.015-17.968-0.028
	c-0.689,1.731-1.31,3.483-1.989,5.217c-0.66,1.732-1.339,3.454-1.985,5.202c-3.174-0.015-6.307-0.015-9.478-0.015
	c0.69-1.733,1.339-3.47,1.986-5.202c0.65-1.733,1.3-3.484,1.989-5.217c-5.979,0-11.972-0.015-17.964-0.015
	c-1.935,4.964-3.906,9.942-5.755,14.906C287.164,1436.093,285.204,1441.072,283.316,1446.065L283.316,1446.065z M344.772,1446.065
	c6.008,0,12.003,0,18.011,0c1.509-4.105,3.004-8.221,4.524-12.312c1.538-4.104,3.119-8.195,4.682-12.282
	c3.484,0.015,6.982,0.015,10.466,0.015c0.592-1.722,1.228-3.455,1.917-5.177c-12.975-0.028-25.936-0.043-38.908-0.058
	c-0.693,1.732-1.325,3.47-1.975,5.191c3.539,0.014,7.037,0.014,10.632,0.014c-1.621,4.091-3.213,8.182-4.751,12.282
	C347.834,1437.845,346.281,1441.96,344.772,1446.065L344.772,1446.065z M379.647,1446.065c12.213,0,24.539,0,36.811,0
	c0.635-1.733,1.271-3.484,1.945-5.217c-6.317,0-12.622,0-18.899,0c0.523-1.495,1.102-2.989,1.625-4.484
	c0.505-1.48,1.083-2.975,1.663-4.47c6.246,0,12.564,0.015,18.868,0.015c0.577-1.722,1.213-3.455,1.848-5.178
	c-6.303-0.014-12.563-0.014-18.827-0.014c0.636-1.732,1.271-3.47,1.946-5.202c6.26,0,12.51,0.014,18.813,0.014
	c0.635-1.722,1.271-3.44,1.888-5.177c-12.243-0.014-24.467-0.028-36.651-0.043c-1.849,4.949-3.795,9.899-5.585,14.849
	C383.286,1436.122,381.441,1441.087,379.647,1446.065L379.647,1446.065z M421.689,1446.065c5.948,0,11.902,0,17.852,0
	c0.859-2.354,1.707-4.712,2.567-7.065c0.858-2.354,1.707-4.711,2.61-7.051c1.241,2.354,2.469,4.697,3.707,7.051
	c1.228,2.354,2.47,4.711,3.693,7.065c4.906,0,9.772,0,14.68,0c1.746-4.949,3.513-9.899,5.26-14.85
	c1.762-4.935,3.566-9.87,5.357-14.794c-4.892-0.015-9.729-0.015-14.625-0.015c-0.621,1.723-1.228,3.454-1.82,5.177
	c-0.591,1.732-1.241,3.455-1.877,5.177c-1.509-1.732-2.975-3.455-4.43-5.19c-1.465-1.723-2.921-3.455-4.372-5.178
	c-5.895-0.015-11.83-0.015-17.77-0.029c-1.819,4.936-3.693,9.885-5.473,14.821C425.283,1436.137,423.464,1441.102,421.689,1446.065
	L421.689,1446.065z M517.304,1431.711c1.001-0.253,1.902-0.452,2.524-0.621c0.718-0.155,1.354-0.394,1.917-0.665
	c0.606-0.296,1.169-0.718,1.663-1.324c0.55-0.592,0.961-1.354,1.271-2.3c0.523-1.552,1.102-3.116,1.664-4.683
	c0.297-0.577,0.325-1.141,0.113-1.692c-1.059-2.625-7.362-3.965-18.883-3.979c-8.278,0-16.6-0.015-24.989-0.028
	c-1.748,4.936-3.625,9.856-5.357,14.795c-1.723,4.936-3.499,9.899-5.26,14.849c5.949,0,11.858,0,17.813,0
	c0.762-2.174,1.523-4.329,2.285-6.502c0.762-2.159,1.566-4.329,2.383-6.487c1.722,0,3.439,0,5.162,0
	c-0.141,2.158-0.17,4.328-0.238,6.487c-0.083,2.173-0.169,4.328-0.238,6.502c6.051,0,12.214,0,18.318,0
	c-0.015-2.396-0.072-4.78-0.083-7.177C517.344,1436.505,517.315,1434.108,517.304,1431.711L517.304,1431.711z M496.235,1427.888
	c0.733-2.087,1.523-4.188,2.3-6.274c3.499,0,5.925,0.083,7.294,0.238c1.367,0.155,2.183,0.509,2.396,1.071
	c0.097,0.229,0.028,0.578-0.111,1.015c-0.268,0.636-0.535,1.271-0.748,1.902c-0.228,0.636-0.762,1.102-1.636,1.398
	c-0.873,0.296-2.003,0.479-3.387,0.548C501.015,1427.859,498.957,1427.888,496.235,1427.888L496.235,1427.888z M545.424,1441.61
	c2.242,0,4.542,0.015,6.842,0.015c-0.185,1.479-0.325,2.96-0.509,4.44c6.162,0,12.368,0,18.643,0
	c0.043-4.936,0.097-9.856,0.169-14.795c0.073-4.906,0.142-9.83,0.185-14.737c-8.913-0.014-17.866-0.029-26.823-0.029
	c-3.285,4.907-6.571,9.832-9.855,14.752c-3.3,4.921-6.586,9.87-9.886,14.81c6.221,0,12.48,0,18.741,0
	C543.688,1444.585,544.562,1443.104,545.424,1441.61L545.424,1441.61z M553.194,1436.815c-1.877,0-3.751,0-5.585,0
	c1.072-2.018,2.329-4.004,3.426-6.021c1.087-1.989,2.3-3.989,3.412-5.993c-0.184,2.004-0.466,4.004-0.65,6.007
	C553.616,1432.794,553.334,1434.813,553.194,1436.815L553.194,1436.815z M576.082,1446.065c7.162,0,14.314,0,21.463,0
	c5.794,0,11.17-0.394,16.163-1.198c4.949-0.806,7.967-2.369,8.942-4.684c0-0.015,0-0.028-0.015-0.028
	c0.917-2.751,1.849-5.499,2.736-8.221c0.888-2.751,1.878-5.473,2.78-8.206c0.354-1.043,0.354-1.917,0.058-2.65
	c-0.437-1.043-1.397-1.877-2.848-2.483c-1.397-0.621-3.088-1.072-4.979-1.354c-1.889-0.297-3.78-0.466-5.643-0.534
	c-1.849-0.084-3.949-0.127-6.235-0.127c-7.448,0-14.848-0.015-22.238-0.028c-1.707,4.905-3.455,9.815-5.104,14.736
	C579.493,1436.209,577.747,1441.13,576.082,1446.065L576.082,1446.065z M595.541,1440.892c1.102-3.216,2.174-6.415,3.23-9.604
	c1.072-3.202,2.199-6.39,3.286-9.574c2.707,0,4.625,0.098,5.964,0.311c1.282,0.198,2.087,0.649,2.369,1.354
	c0.126,0.311,0.111,0.762-0.084,1.325c-0.747,2.228-1.523,4.484-2.257,6.712c-0.732,2.242-1.509,4.47-2.256,6.711
	c-0.451,1.087-1.451,1.806-3.241,2.159C600.816,1440.635,598.448,1440.834,595.541,1440.892L595.541,1440.892z M627.839,1446.065
	c11.999,0,24.071,0,36.13,0c0.593-1.723,1.13-3.44,1.776-5.163c-6.22,0-12.423,0-18.585,0c0.494-1.48,0.917-2.961,1.411-4.44
	c0.48-1.466,0.976-2.946,1.509-4.43c6.149,0.015,12.354,0.015,18.561,0.015c0.495-1.708,1.028-3.412,1.582-5.12
	c-6.163-0.014-12.312-0.014-18.459-0.014c0.591-1.722,1.184-3.44,1.833-5.148c6.094,0,12.243,0.015,18.444,0.015
	c0.535-1.708,1.13-3.412,1.723-5.119c-12.029-0.015-24.059-0.029-35.99-0.043c-1.679,4.892-3.386,9.801-4.979,14.693
	C631.181,1436.234,629.459,1441.145,627.839,1446.065L627.839,1446.065z" />
	<path fill="#3751A3" d="M168.464,1373.72l-37.087-2.072l-9.675,29.391c-1.563,3.809-3.82,6.827-6.711,8.982
	c-2.907,2.174-5.726,3.188-8.531,3.032c-5.022-0.281-7.391-3.625-7.041-9.999c0.072-1.214,0.296-2.636,0.679-4.29l27.091-80.947
	c2.877-6.416,5.57-10.759,8.137-13.044c2.538-2.329,5.373-3.387,8.502-3.202c4.852,0.267,7.065,3.609,6.715,10.011
	c-0.156,2.779-0.552,5.119-1.242,7.036l-7.954,23.538l37.117,2.073l9.012-27.33c1.397-4.527,2.198-8.447,2.382-11.732
	c0.282-5.12-0.452-9.662-2.241-13.621c-1.777-3.922-4.329-7.278-7.73-10.041c-3.383-2.765-7.303-4.949-11.788-6.487
	c-4.47-1.538-9.321-2.455-14.484-2.736c-8.192-0.466-16.514,0.689-25.03,3.455c-8.505,2.779-16.066,7.177-22.68,13.242
	s-11.452,13.581-14.509,22.521l-29.545,88.378c-1.185,3.357-1.874,6.686-2.058,9.957c-0.368,6.657,1.242,12.423,4.877,17.275
	c3.596,4.852,8.321,8.544,14.203,11.083c5.838,2.581,11.749,4.018,17.712,4.343c9.181,0.523,18.05-0.874,26.668-4.145
	c8.588-3.314,15.964-7.899,22.098-13.849c6.133-5.939,10.365-12.354,12.693-19.293L168.464,1373.72z M272.398,1376.738
	l24.456-70.216c0.986-2.819,1.495-5.696,1.495-8.588c0-5.217-1.82-9.729-5.43-13.495c-3.64-3.794-8.347-6.629-14.101-8.531
	c-5.77-1.917-11.845-2.863-18.264-2.863c-9.264,0-18.149,1.607-26.655,4.823c-8.531,3.203-15.708,7.42-21.575,12.651
	c-5.866,5.217-9.772,10.563-11.704,16.007l-24.568,70.216c-0.989,2.679-1.494,5.289-1.494,7.854c0,5.218,1.931,9.647,5.823,13.272
	c3.864,3.624,8.788,6.303,14.81,8.025c5.979,1.762,11.957,2.625,17.935,2.625c9.18,0,17.968-1.48,26.387-4.401
	c8.39-2.961,15.499-6.853,21.293-11.762C266.604,1387.442,270.467,1382.251,272.398,1376.738L272.398,1376.738z M258.835,1309.556
	l-22.961,65.479c-1.058,2.989-3.032,5.386-5.867,7.191c-2.848,1.791-5.765,2.679-8.686,2.679c-2.185,0-4.076-0.592-5.643-1.79
	c-1.564-1.199-2.34-2.835-2.34-4.892c0-0.593,0.253-1.933,0.845-3.99l22.524-64.362c1.719-4.74,3.975-8.167,6.784-10.322
	c2.848-2.145,5.794-3.23,8.924-3.23c1.495,0.058,2.809,0.393,3.907,1.028c1.086,0.621,1.932,1.48,2.513,2.567
	c0.549,1.086,0.917,2.396,1.058,3.906C259.893,1305.354,259.525,1307.27,258.835,1309.556L258.835,1309.556z M320.039,1408.512
	c21.365,0,35.99-2.455,43.9-7.391c7.91-4.936,12.761-9.971,14.539-15.159l10.69-30.308c0.693-2.058,1.057-3.892,1.057-5.542
	c0-5.046-2.989-9.166-8.968-12.325c5.683-2.396,9.729-4.4,12.17-6.021c2.412-1.582,4.26-3.513,5.498-5.794
	c1.243-2.257,2.668-5.683,4.202-10.308l5.25-15.357c1.058-2.625,1.605-5.192,1.605-7.673c0-11.931-12.115-17.895-36.314-17.895
	h-52.572l-46.763,133.776h45.705V1408.512z M319.825,1385.074l12.282-35.127h8.744c6.783,0.169,10.282,2.144,10.466,5.881
	c0,1.086-0.325,2.649-1.058,4.652l-5.206,15.286c-2.296,5.824-7.77,8.914-16.484,9.308H319.825z M340.133,1326.535l10.127-28.432
	h8.758c6.853,0.38,10.279,2.51,10.279,6.376c0,1.029-0.296,2.397-0.874,4.159l-3.102,8.589c-1.058,3.202-2.989,5.513-5.798,6.938
	c-2.848,1.397-6.372,2.198-10.646,2.369H340.133L340.133,1326.535z M490.621,1343.751c2.328-1.141,4.329-2.086,5.896-2.805
	c1.606-0.762,3.145-1.762,4.596-3.047c1.451-1.286,2.989-3.257,4.596-5.964c1.606-2.664,3.174-6.148,4.668-10.395l7.361-21.238
	c1.058-2.625,1.606-5.191,1.606-7.672c0-11.932-12.112-17.896-36.314-17.896h-52.576l-46.763,133.776h37.171l20.604-58.568h10.902
	l-11.845,58.568h38.344L490.621,1343.751z M449.497,1326.535l10.126-28.432c7.333,0,12.398,0.354,15.131,1.059
	c2.737,0.719,4.119,2.314,4.119,4.823c0,1.086-0.368,2.649-1.087,4.653l-3.101,8.589c-0.986,2.862-2.553,4.979-4.624,6.317
	c-2.116,1.34-4.641,2.184-7.546,2.484C459.595,1326.364,455.252,1326.535,449.497,1326.535L449.497,1326.535z M541.431,1388.414
	h14.441l-4.823,20.094h39.305l26.062-133.776h-56.832l-66.521,133.776h39.401L541.431,1388.414z M561.952,1366.698h-11.776
	l24.679-54.381L561.952,1366.698z M709.859,1376.738c2.256-6.969,3.426-12.495,3.426-16.585c0-4.246-1.606-8.871-4.822-13.893
	c-3.936-5.882-7.983-10.914-12.171-15.188c-4.188-4.23-9.336-9.083-15.387-14.523c-3.639-3.202-5.473-6.712-5.473-10.535
	c1.397-3.766,3.582-6.304,6.6-7.613c3.032-1.297,5.77-1.946,8.278-1.946c5.4,0,8.094,2.228,8.094,6.686l-5.217,15.063h37.189
	l3.935-11.676c0.985-2.848,1.494-5.696,1.494-8.589c0-5.217-1.819-9.729-5.429-13.494c-3.654-3.795-8.351-6.629-14.103-8.531
	c-5.769-1.917-11.859-2.863-18.278-2.863c-9.253,0-18.148,1.607-26.64,4.823c-8.531,3.202-15.711,7.42-21.578,12.651
	c-5.881,5.216-9.773,10.563-11.704,16.007c-1.354,4.231-2.044,7.856-2.044,10.874c0,3.596,0.917,6.881,2.694,9.855
	c1.678,2.51,3.356,4.683,4.992,6.502c1.649,1.806,3.426,3.597,5.289,5.344c1.902,1.732,4.739,4.357,8.574,7.841
	c3.795,3.483,6.487,6.08,8.051,7.744c5.148,5.134,7.686,10.787,7.686,17.008c0,2.228-0.324,4.188-0.945,5.881
	c-1.015,2.596-2.946,4.513-5.823,5.712c-2.892,1.198-5.474,1.79-7.77,1.79c-2.766,0-4.809-0.762-6.191-2.228
	c-1.354-1.509-2.019-3.371-2.019-5.613l7.813-22.211h-37.189l-7.686,21.72c-0.986,2.679-1.495,5.289-1.495,7.855
	c0,5.217,1.932,9.646,5.823,13.271c3.863,3.625,8.788,6.304,14.81,8.025c5.978,1.762,11.945,2.625,17.924,2.625
	c9.196,0,17.979-1.48,26.402-4.401c8.375-2.96,15.498-6.853,21.293-11.763C704.057,1387.453,707.923,1382.251,709.859,1376.738
	L709.859,1376.738z" />
</svg>
