<?xml version="1.0" encoding="utf-8"?>
<!-- Generator: Adobe Illustrator 16.0.0, SVG Export Plug-In . SVG Version: 6.00 Build 0)  -->
<!DOCTYPE svg PUBLIC "-//W3C//DTD SVG 1.1//EN" "http://www.w3.org/Graphics/SVG/1.1/DTD/svg11.dtd">
<svg version="1.1" id="Layer_1" xmlns="http://www.w3.org/2000/svg" xmlns:xlink="http://www.w3.org/1999/xlink" x="0px" y="0px"
	 width="457.417px" height="358.714px" viewBox="0 0 457.417 358.714" enable-background="new 0 0 457.417 358.714"
	 xml:space="preserve">
<g>
	<g>
		<path id="path58241_3_" d="M226.435,28.464c-11.745-0.009-23.189,1.215-34.293,3.459l-0.017,26.521
			c-14.876,3.585-28.811,9.345-41.503,17.119L131.86,56.796c-9.606,6.365-18.397,13.833-26.547,21.95
			c-8.107,8.117-15.614,16.899-21.964,26.509l18.72,18.766c-7.767,12.713-13.563,26.618-17.173,41.508l-26.489-0.015
			c-2.279,11.076-3.531,22.546-3.537,34.287c-0.01,11.738,1.227,23.211,3.491,34.292l26.49,0.017
			c3.591,14.898,9.368,28.813,17.119,41.539l-18.746,18.742c6.337,9.613,13.834,18.404,21.93,26.532
			c8.14,8.126,16.92,15.61,26.517,21.984l18.786-18.742c12.684,7.794,26.61,13.567,41.48,17.175l68.581,0.047
			c14.92-3.587,28.813-9.343,41.548-17.116l18.762,18.762c9.602-6.364,18.395-13.833,26.503-21.952
			c8.149-8.115,15.613-16.895,22.007-26.502l-18.765-18.766c7.812-12.717,13.563-26.623,17.175-41.516l26.533,0.021
			c2.279-11.081,3.484-22.548,3.492-34.289c0.007-11.741-1.183-23.214-3.447-34.294l-26.533-0.018
			c-3.589-14.895-9.323-28.808-17.119-41.53l18.786-18.741c-6.379-9.62-13.83-18.411-21.969-26.539
			c-8.096-8.129-16.88-15.607-26.473-21.984l-18.789,18.741c-12.724-7.79-26.608-13.569-41.523-17.174l0.02-26.521
			C249.667,29.71,238.181,28.47,226.435,28.464z"/>
	</g>
	<path fill="#808285" d="M426.796,358.714H0v-90.637l374.8,0.003c4.874,0.082,9.339,0.959,13.288,2.604
		c4.316-1.727,9.163-2.579,14.8-2.606h51.594v35.142l0.138,0.279c1.762,3.643,2.699,7.527,2.792,11.546l0.005,15.64l-0.018,0.442
		c-0.132,3.263-0.925,6.499-2.425,9.889c-1.367,3.095-3.222,5.895-5.509,8.331l-0.672,0.685c-2.854,2.78-6.352,4.97-10.394,6.507
		c-3.637,1.388-7.466,2.117-11.376,2.175L426.796,358.714z M1.851,356.863H426.79l0.21-0.003c3.691-0.053,7.306-0.745,10.74-2.052
		c3.805-1.447,7.089-3.502,9.764-6.106l0.612-0.62c2.145-2.285,3.885-4.914,5.167-7.816c1.401-3.172,2.145-6.187,2.267-9.213
		l0.016-0.405l-0.006-15.582c-0.082-3.73-0.959-7.359-2.609-10.762l-0.319-0.652v-33.724h-49.737
		c-5.544,0.03-10.275,0.885-14.457,2.616l-0.363,0.15l-0.359-0.154c-3.814-1.65-8.164-2.527-12.931-2.607L1.851,269.927V356.863z"/>
	<path id="path58241_1_" fill="#0F352E" stroke="#808285" stroke-width="1.8516" stroke-miterlimit="10" d="M226.368,39.573h0.061
		c7.693,0.004,15.457,0.581,23.178,1.718l-0.012,17.19c-0.003,5.133,3.509,9.602,8.498,10.806
		c13.647,3.299,26.543,8.631,38.334,15.85c1.797,1.1,3.804,1.635,5.799,1.635c2.867,0,5.707-1.109,7.849-3.245l12.141-12.112
		c5.884,4.483,11.718,9.62,17.425,15.351c5.789,5.783,10.853,11.543,15.327,17.445l-12.138,12.109
		c-3.643,3.63-4.314,9.285-1.628,13.669c7.169,11.7,12.48,24.598,15.793,38.331c1.199,4.986,5.661,8.501,10.79,8.506l17.208,0.01
		c1.117,7.664,1.677,15.428,1.672,23.181c-0.005,7.757-0.577,15.523-1.705,23.182l-17.204-0.01c-0.003,0-0.005,0-0.008,0
		c-5.127,0-9.588,3.507-10.796,8.491c-3.332,13.729-8.661,26.623-15.845,38.315c-2.689,4.383-2.024,10.036,1.609,13.671
		l12.123,12.126c-4.483,5.894-9.558,11.65-15.369,17.437c-5.704,5.712-11.538,10.838-17.425,15.31l-12.123-12.128
		c-2.143-2.14-4.989-3.255-7.861-3.255c-1.987,0-3.992,0.535-5.784,1.631c-11.431,6.979-23.906,12.185-37.096,15.489l-65.886-0.045
		c-13.23-3.342-25.681-8.561-37.022-15.532c-1.798-1.105-3.813-1.643-5.812-1.643c-2.868,0-5.708,1.107-7.851,3.244l-12.146,12.118
		c-5.853-4.449-11.614-9.519-17.439-15.337c-5.851-5.874-10.914-11.641-15.322-17.457l12.121-12.121
		c3.625-3.621,4.3-9.256,1.633-13.635c-7.205-11.828-12.522-24.733-15.807-38.361c-1.203-4.988-5.664-8.504-10.792-8.506
		l-17.174-0.013c-1.138-7.735-1.711-15.499-1.706-23.181c0.004-7.682,0.586-15.447,1.736-23.182l17.173,0.013
		c0.002,0,0.005,0,0.007,0c5.127,0,9.588-3.509,10.797-8.491c3.303-13.623,8.638-26.521,15.857-38.336
		c2.673-4.374,2.005-10.008-1.615-13.638L97.828,104.04c4.415-5.814,9.48-11.569,15.326-17.422
		c5.844-5.821,11.616-10.888,17.479-15.333l12.13,12.133c2.144,2.142,4.988,3.254,7.86,3.254c1.996,0,4.004-0.538,5.798-1.636
		c11.721-7.177,24.609-12.492,38.305-15.792c4.987-1.201,8.502-5.663,8.506-10.793l0.013-17.188
		c7.708-1.124,15.438-1.691,23.072-1.691H226.368 M226.318,28.464c-11.703,0-23.109,1.222-34.176,3.459l-0.017,26.521
		c-14.876,3.585-28.811,9.345-41.503,17.119L131.86,56.796c-9.606,6.365-18.397,13.833-26.547,21.95
		c-8.107,8.117-15.614,16.899-21.964,26.509l18.72,18.766c-7.767,12.713-13.563,26.618-17.173,41.508l-26.489-0.015
		c-2.279,11.076-3.531,22.546-3.537,34.287c-0.01,11.738,1.227,23.211,3.491,34.292l26.49,0.017
		c3.591,14.898,9.368,28.813,17.119,41.539l-18.746,18.742c6.337,9.613,13.834,18.404,21.93,26.532
		c8.14,8.126,16.92,15.61,26.517,21.984l18.786-18.742c12.684,7.794,26.61,13.567,41.48,17.175l68.581,0.047
		c14.92-3.587,28.813-9.343,41.548-17.116l18.762,18.762c9.602-6.364,18.395-13.833,26.503-21.952
		c8.149-8.115,15.613-16.895,22.007-26.502l-18.765-18.766c7.812-12.717,13.563-26.623,17.175-41.516l26.533,0.021
		c2.279-11.081,3.484-22.548,3.492-34.289c0.007-11.741-1.183-23.214-3.447-34.294l-26.533-0.018
		c-3.589-14.895-9.323-28.808-17.119-41.53l18.786-18.741c-6.379-9.62-13.83-18.411-21.969-26.539
		c-8.096-8.129-16.88-15.607-26.473-21.984l-18.789,18.741c-12.724-7.79-26.608-13.569-41.523-17.174l0.02-26.521
		c-11.058-2.259-22.543-3.499-34.289-3.505C226.395,28.464,226.355,28.464,226.318,28.464L226.318,28.464z"/>
	<g>
		<path fill="#0F352E" d="M153.934,298.984c-4.559,0-7.398-1.62-9.802-5.592c-11.711-19.331-17.725-40.353-17.873-62.479
			c0.217-17.235,3.733-33.974,10.452-49.766c1.973-4.632,4.811-7.26,9.489-8.789c7.91-2.584,15.904-5.376,23.635-8.076
			c7.282-2.543,14.812-5.172,22.265-7.627c4.096-1.35,5.315-3.097,4.832-6.922c-0.321-2.529-0.24-5.114-0.162-7.615
			c0.033-1.042,0.065-2.083,0.07-3.121c0.017-5.142-0.223-9.109-3.476-13.334c-5.6-7.276-4.505-17.469,2.66-24.788
			c0.83-0.85,0.816-1.65,0.797-2.759c-0.004-0.229-0.007-0.46-0.004-0.692c0.015-0.952,0.043-1.906,0.072-2.86
			c0.086-2.897,0.175-5.892-0.132-8.762c-0.533-4.986,1.325-8.498,6.025-11.386c6.524-4.008,12.996-6.041,19.236-6.041
			c4.71,0,9.426,1.152,14.018,3.425c1.745,0.863,3.548,1.039,5.457,1.226c1.35,0.132,2.746,0.269,4.133,0.666
			c6.651,1.908,8.903,4.812,8.925,11.508l0.008,1.992c0.009,2.139,0.019,4.277-0.016,6.415c-0.066,4.112,0.123,6.801,3.321,9.469
			c1.939,1.618,3.186,4.585,3.511,8.355c0.504,5.843-1.229,12.21-4.313,15.844c-2.196,2.596-2.607,5.053-2.55,7.943l0.032,1.446
			c0.102,4.513,0.207,9.179-0.208,13.747c-0.31,3.447,0.729,4.866,4.445,6.074c8.923,2.895,17.958,5.947,26.695,8.898
			c7.181,2.425,14.604,4.933,21.925,7.34c3.886,1.279,6.341,3.551,7.96,7.367c16.816,39.623,14.326,78.039-7.4,114.18
			c-1.97,3.283-4.463,4.685-8.337,4.685l-0.181-0.001c-24.429-0.273-47.867-7.245-69.663-20.721
			c-1.428-0.883-2.467-1.259-3.474-1.259c-0.982,0-2.016,0.368-3.351,1.194c-21.333,13.216-44.387,20.217-68.521,20.81
			C154.265,298.982,154.098,298.984,153.934,298.984z"/>
		<path fill="#939598" d="M222.017,69.301c4.466,0,9.001,1.049,13.606,3.329c3.205,1.585,6.547,1.035,9.746,1.952
			c6.184,1.774,8.233,4.234,8.254,10.621c0.007,2.797,0.037,5.594-0.008,8.39c-0.063,3.854-0.013,7.135,3.654,10.195
			c4.819,4.021,4.117,16.957-0.915,22.89c-2.302,2.721-2.834,5.325-2.77,8.56c0.107,5.029,0.282,10.096-0.172,15.09
			c-0.375,4.179,1.329,5.819,5.081,7.039c16.25,5.272,32.385,10.901,48.617,16.237c3.652,1.203,5.884,3.285,7.396,6.849
			c16.567,39.036,14.625,76.803-7.342,113.342c-1.83,3.05-4.063,4.235-7.543,4.235c-0.057,0-0.113,0-0.171-0.001
			c-25.038-0.28-48.009-7.489-69.186-20.582c-1.489-0.92-2.717-1.397-3.96-1.397c-1.186,0-2.385,0.434-3.838,1.333
			c-20.824,12.9-43.43,20.066-68.057,20.671c-0.162,0.004-0.32,0.006-0.477,0.006c-4.171,0-6.762-1.43-9.01-5.146
			c-11.566-19.092-17.589-39.683-17.739-62.006c0.216-17.152,3.655-33.596,10.378-49.397c1.8-4.227,4.395-6.791,8.925-8.271
			c15.37-5.021,30.542-10.646,45.902-15.704c4.243-1.398,6.035-3.375,5.46-7.917c-0.443-3.486-0.099-7.073-0.085-10.616
			c0.016-4.952-0.155-9.341-3.668-13.903c-5.561-7.226-3.906-16.942,2.588-23.576c1.307-1.337,1.035-2.677,1.057-4.084
			c0.063-3.915,0.349-7.866-0.065-11.735c-0.53-4.957,1.559-8.021,5.589-10.499C209.383,71.446,215.629,69.301,222.017,69.301
			 M222.017,67.45c-6.414,0-13.049,2.079-19.72,6.177c-4.976,3.058-7.029,6.958-6.461,12.273c0.301,2.807,0.216,5.638,0.127,8.636
			c-0.028,0.959-0.057,1.917-0.072,2.873c-0.004,0.243,0,0.484,0.004,0.724c0.02,1.132-0.001,1.551-0.534,2.096
			c-7.496,7.657-8.62,18.349-2.731,26c3.074,3.992,3.3,7.81,3.284,12.768c-0.004,1.019-0.037,2.074-0.069,3.094
			c-0.08,2.537-0.162,5.159,0.169,7.761c0.428,3.381-0.515,4.71-4.203,5.925c-7.461,2.457-14.995,5.088-22.28,7.632
			c-7.727,2.698-15.716,5.489-23.617,8.07c-4.892,1.599-7.993,4.469-10.053,9.306c-6.766,15.904-10.308,32.761-10.526,50.1
			c0.15,22.332,6.208,43.513,18.007,62.988c2.561,4.232,5.729,6.038,10.594,6.038c0.172,0,0.346-0.002,0.523-0.007
			c24.301-0.596,47.511-7.644,68.986-20.947c1.18-0.73,2.063-1.056,2.863-1.056c0.811,0,1.732,0.346,2.987,1.121
			c21.941,13.565,45.539,20.583,70.139,20.858l0.191,0.001c4.185,0,7.001-1.583,9.131-5.135
			c11.017-18.323,17.201-37.358,18.382-56.573c1.164-18.958-2.511-38.622-10.924-58.444c-1.732-4.082-4.36-6.514-8.521-7.884
			c-7.317-2.406-14.74-4.913-21.919-7.338c-8.739-2.952-17.777-6.005-26.706-8.902c-3.293-1.071-4.076-2.122-3.809-5.112
			c0.42-4.618,0.314-9.311,0.212-13.85l-0.032-1.445c-0.056-2.754,0.315-4.942,2.332-7.325c3.23-3.809,5.05-10.449,4.526-16.521
			c-0.346-4.018-1.709-7.209-3.839-8.986c-2.94-2.453-3.052-4.92-2.989-8.743c0.034-2.151,0.024-4.328,0.016-6.433l-0.008-1.991
			c-0.022-7.127-2.533-10.371-9.595-12.396c-1.468-0.421-2.907-0.562-4.299-0.698c-1.822-0.178-3.544-0.346-5.138-1.134
			C231.725,68.634,226.871,67.45,222.017,67.45L222.017,67.45z"/>
	</g>
	<path fill-rule="evenodd" clip-rule="evenodd" fill="#808285" d="M212.5,215.869c0.039,2.192-0.022,2.308-1.752,1.392
		c-5.764-3.051-11.483-6.191-17.218-9.298c-8.975-4.862-17.95-9.729-28.015-15.18c3.257,10.471,6.159,19.824,9.079,29.173
		c0.999,3.196,1.762,6.511,3.136,9.543c1.818,4.014,0.616,5.416-3.521,6.246c-9.08,1.822-17.031,6.302-24.552,11.57
		c-0.112-0.727-0.081-1.52-0.354-2.184c-7.97-19.47-6.478-38.969-0.345-58.533c0.846-2.697,2.063-4.434,4.938-5.364
		c7.972-2.579,15.887-5.359,23.718-8.338c3.019-1.147,4.761-0.473,6.522,2.084c4.86,7.062,9.768,14.101,14.949,20.927
		c3.992,5.256,6.929,11.34,12.121,15.664l-0.091-0.09C210.955,214.636,211.552,215.354,212.5,215.869z"/>
	<path fill-rule="evenodd" clip-rule="evenodd" fill="#808285" d="M222.241,128.835c-0.063,1.563,0.925,2.255,2.205,2.79
		c1.652,0.69,3.844,0.976,3.736,3.445c-0.125,2.992-2.994,2.138-4.609,3.056c-1.222,0.693-3.034,0.134-3.819,1.769
		c0.183,0.285,0.328,0.756,0.521,0.774c2.372,0.23,6.276-0.38,6.839,0.727c1.51,2.967,2.845,6.18,3.946,9.39
		c0.758,2.205-0.194,4.461-2.071,5.969c-2.29,1.842-5.117,1.732-7.345,0.388c-4.066-2.461-8.554-4.393-11.776-8.102
		c0.031-11.324,0.063-22.648,0.095-33.972c2.237,1.563,4.374,1.833,6.975,0.425c2.337-1.269,5.062-1.828,7.613-2.699
		C223.781,118.143,223.011,123.489,222.241,128.835z"/>
	<path fill-rule="evenodd" clip-rule="evenodd" fill="#808285" d="M209.982,155.349c5.112,1.685,8.729,6.401,14.388,7.049
		c1.444,0.167,1.257,1.635,1.26,2.715c0.018,8.688,0.01,17.376,0.01,27.663c-5.711-7.126-11.67-12.073-15.78-18.682
		C209.9,167.847,209.94,161.598,209.982,155.349z"/>
	<g>
		<path fill-rule="evenodd" clip-rule="evenodd" fill="#FFFFFF" d="M284.715,202.156c-7.453,0.765-14.43,3.569-21.709,5.071
			c-2.677,0.551-3.475,2.785-4.062,4.877c-2.732,9.746-9.358,15.928-17.609,21.305c-11.551,7.525-22.541,15.902-33.799,23.878
			c-1.446,1.024-2.664,2.472-4.963,1.61c-20.793-7.812-40.856-7.018-59.856,5.366c-1.544-0.782-0.355-1.268,0.172-1.899
			c15.291-18.297,35.42-24.249,58.337-22.312c5.086,0.43,9.277-0.22,13.666-2.767c9.299-5.407,18.762-10.551,28.36-15.4
			c3.352-1.695,5.521-3.816,5.639-7.419c0.348-10.686,5.279-16.287,16.38-16.622c3.739-0.115,7.432-2.202,11.123-3.455
			C282.716,192.245,285.345,194.68,284.715,202.156z"/>
		<path fill-rule="evenodd" clip-rule="evenodd" fill="#FFFFFF" d="M211.205,213.571c-5.191-4.324-8.128-10.408-12.121-15.664
			c-5.181-6.826-10.089-13.865-14.949-20.927c-1.761-2.557-3.503-3.232-6.522-2.084c-7.831,2.979-15.746,5.759-23.718,8.338
			c-2.875,0.931-4.092,2.667-4.938,5.364c-6.133,19.564-7.625,39.063,0.345,58.533c0.272,0.664,0.241,1.457,0.354,2.184
			c-4.917,3.717-8.821,8.43-13.038,13.886c-4.108-13.33-5.644-26.248-4.687-39.403c1.018-13.988,4.155-27.518,9.8-40.434
			c1.273-2.909,2.967-4.696,6.15-5.749c12.861-4.252,25.604-8.861,38.407-13.293c1.741-0.6,3.574-2.27,4.893,1.007
			C197.689,181.477,205.363,197.144,211.205,213.571z"/>
		<path fill-rule="evenodd" clip-rule="evenodd" fill="#FFFFFF" d="M209.962,115.068c-0.033,11.323-0.064,22.647-0.095,33.972
			c-5.298-1.848-7.463-5.964-7.575-11.18c-0.176-8.191-0.184-16.391-0.008-24.583c0.179-8.354,6.073-14.636,13.217-14.466
			c6.949,0.165,12.366,6.362,12.563,14.455c0.077,3.165-0.32,6.376,0.09,9.489c0.638,4.821-0.96,6.946-5.914,6.081
			c0.771-5.346,1.54-10.693,2.31-16.042c0.343-0.826,0.982-2.067-0.462-2.104c-5.807-0.15-11.619-0.063-17.431-0.063
			c-0.197,0.486-0.395,0.972-0.591,1.458C207.365,113.078,208.663,114.073,209.962,115.068z"/>
		<path fill-rule="evenodd" clip-rule="evenodd" fill="#FFFFFF" d="M209.982,155.349c-0.042,6.249-0.083,12.498-0.123,18.745
			c-9.385-5.574-7.911-14.513-7.339-24.021C205.313,152.047,207.646,153.697,209.982,155.349z"/>
		<path fill-rule="evenodd" clip-rule="evenodd" fill="#FFFFFF" d="M212.5,215.869c-0.947-0.515-1.545-1.232-1.386-2.388
			C212.413,213.792,212.082,215.049,212.5,215.869z"/>
	</g>
	<g>
		<g>
			<g>
				<path fill-rule="evenodd" clip-rule="evenodd" fill="#808285" d="M262.524,195.555c-9.421-61.514-14.855-97.55-16.151-107.108
					c-2.009-15.047-1.088-24.796,9.52-36.322c8.154-8.878,44.599-48.598,47.015-51.254c0.246-0.27,0.599-0.407,1.048-0.407
					c4.024,0,18.546,12.587,20.997,18.201c0.476,1.089,0.472,1.906-0.013,2.428c-0.995,1.091-5.816,6.225-11.921,12.725
					c-11.176,11.901-26.481,28.199-34.273,36.669c-12.593,13.761-17.635,20.452-16.752,31.373
					c0.303,3.587,4.426,34.414,12.254,91.622l0.064,0.476l-0.478,0.048c-0.797,0.079-1.601,0.34-2.389,0.776l-0.066,0.036
					l-0.074,0.014c-0.789,0.146-1.56,0.376-2.356,0.705c-0.521,0.117-0.955,0.227-1.381,0.357l-0.062,0.02
					c0,0-0.555,0.008-0.799,0.008c-0.357,0-0.715-0.005-1.071-0.013c-0.162-0.012-0.23-0.017-0.296-0.026
					c-0.131-0.017-0.271-0.025-0.41-0.025c-0.167,0-0.331,0.013-0.495,0.034c0,0-0.568-0.004-0.57-0.004
					c-0.318,0-0.569,0.022-0.815,0.058l-0.454,0.065L262.524,195.555z"/>
				<path fill="#0F352E" d="M303.955,0.926c4.447,0,23.236,17.055,20.645,19.852c-2.75,3.015-33.984,36.122-46.195,49.395
					c-12.17,13.299-17.792,20.344-16.872,31.723c0.35,4.148,5.656,43.418,12.256,91.647c-0.878,0.087-1.747,0.378-2.567,0.832
					c-0.835,0.153-1.635,0.396-2.449,0.732c-0.453,0.095-0.9,0.208-1.34,0.343c-0.241,0.005-0.483,0.007-0.725,0.007
					c-0.354,0-0.707-0.005-1.061-0.013c-0.08-0.007-0.16-0.01-0.237-0.021c-0.162-0.021-0.321-0.03-0.479-0.03
					c-0.188,0-0.372,0.014-0.556,0.038c-0.167-0.003-0.335-0.008-0.505-0.008c-0.017,0-0.034,0-0.051,0
					c-0.293,0-0.567,0.023-0.836,0.063c-7.894-51.537-14.646-95.999-16.15-107.1c-2.124-15.912-0.672-25,9.401-35.947
					c7.839-8.535,44.55-48.544,47.017-51.256C303.408,1.007,303.647,0.926,303.955,0.926 M303.955,0
					c-0.729,0-1.158,0.304-1.39,0.559c-2.42,2.66-38.861,42.377-47.014,51.253c-10.731,11.661-11.665,21.506-9.638,36.695
					c1.297,9.563,6.731,45.603,16.153,107.118l0.139,0.907l0.908-0.132c0.249-0.035,0.479-0.053,0.704-0.053h0.005h0.046
					c0.115,0,0.229,0.003,0.344,0.005l0.145,0.003l0.069,0.001l0.069-0.009c0.15-0.021,0.293-0.03,0.434-0.03
					c0.12,0,0.24,0.008,0.363,0.022c0.056,0.009,0.135,0.016,0.216,0.021l0.059,0.005l0.029,0.002l0.028,0.001
					c0.36,0.008,0.722,0.013,1.082,0.013c0.248,0,0.495-0.002,0.743-0.007l0.129-0.003l0.124-0.038
					c0.399-0.122,0.822-0.23,1.258-0.321l0.085-0.018l0.079-0.033c0.767-0.316,1.507-0.538,2.263-0.678l0.149-0.027l0.132-0.073
					c0.732-0.405,1.477-0.647,2.21-0.721l0.957-0.094l-0.131-0.953c-7.827-57.199-11.948-88.018-12.25-91.599
					c-0.868-10.735,4.136-17.364,16.632-31.021c7.788-8.465,23.093-24.762,34.267-36.661c6.107-6.503,10.931-11.639,11.93-12.735
					c0.616-0.665,0.649-1.65,0.094-2.923C323.097,13.259,308.406,0,303.955,0L303.955,0z"/>
			</g>
		</g>
	</g>
	<g>
		<path fill="#0F352E" d="M0.925,357.79v-88.787l373.875,0.002c4.909,0.086,9.351,0.985,13.28,2.683
			c4.284-1.772,9.182-2.657,14.813-2.685h50.664v34.43c0.078,0.156,0.152,0.313,0.228,0.467c1.702,3.52,2.614,7.281,2.702,11.166
			l0.003,15.619l-0.016,0.405c-0.127,3.142-0.895,6.269-2.345,9.554c-1.327,2.997-3.124,5.711-5.339,8.071l-0.31,0.332l-0.33,0.32
			c-2.765,2.689-6.156,4.813-10.078,6.306c-3.537,1.348-7.262,2.06-11.061,2.112l-0.223,0.005H0.925z"/>
	</g>
	<path fill-rule="evenodd" clip-rule="evenodd" fill="#808285" d="M260.757,258.692c-0.12-4.848,1.635-8.967,5.079-12.291
		c1.925-1.861,2.896-3.689,3.549-6.541c0.893-3.895,6.037-2.245,9.102-3.692c2.254-1.069,2.606,1.03,2.742,2.412
		c0.295,3.034,2.784,3.215,4.773,4.167c11.589,5.562,14.24,20.396,5.22,29.117c-0.945,0.913-1.86,2.388-3.237,2.008
		c-1.393-0.385-1.354-2.1-1.587-3.382c-0.735-4.114-1.612-8.214-2.138-12.355c-0.532-4.2-3.231-3.042-5.438-2.242
		c-2.343,0.85-7.009-1.194-6.082,4.304c0.668,3.938,1.478,7.85,2.072,11.796c0.213,1.415,1.072,3.317-0.473,4.21
		c-1.362,0.787-2.892-0.445-4.222-1.125C263.994,271.942,260.632,266.02,260.757,258.692z"/>
	<path fill-rule="evenodd" clip-rule="evenodd" fill="#808285" d="M286.081,199.914c-4.572,5.884-1.027,12.151-0.532,18.124
		c0.939,11.344,1.14,11.544-10.171,14.373c-0.553,0.138-1.13,0.471-1.655,0.402c-11.023-1.42-15.97,6.564-22.151,13.485
		c-25.766,28.851-57.79,45.192-96.787,47.132c-4.275,0.211-7.242-0.654-9.084-4.866c-2.205-5.042-4.669-9.999-7.384-14.788
		c-2.499-4.406-2.001-7.73,2.448-10.301c19.445-12.672,39.976-13.487,61.254-5.494c2.353,0.883,3.599-0.6,5.08-1.646
		c11.519-8.164,22.767-16.734,34.59-24.436c8.44-5.504,15.223-11.831,18.02-21.805c0.6-2.139,1.417-4.424,4.156-4.988
		C271.313,203.566,278.452,200.699,286.081,199.914z"/>
	<path d="M71.684,279.09H57.059H11.012v68.611h46.047h14.435h20.185h2.472h30.309h38.406h21.237h14.021h39.136h14.245h31.803h14.435
		h31.74h14.305h36.269h15.011h31.725h0.074c2.617-0.04,5.182-0.527,7.622-1.457c2.627-1,4.858-2.383,6.634-4.112l0.165-0.16
		l0.154-0.165c1.436-1.526,2.6-3.292,3.465-5.243c0.93-2.105,1.417-4.027,1.489-5.88l0.008-0.202V315.29
		c-0.055-2.43-0.63-4.792-1.699-7.012c-0.375-0.771-0.788-1.504-1.232-2.194V279.09h-40.526c-6.301,0.033-11.21,1.397-14.978,4.137
		c-3.432-2.642-7.9-4.041-13.337-4.137h-30.65l0,0h-46.047h-14.625h-31.803h-14.245h-39.136h-14.021h-21.237l0,0H71.684z"/>
	<g>
		<g>
			<polygon fill="#FFFFFF" points="21.1,337.613 61.405,337.613 61.405,324.508 36.118,324.508 36.118,318.834 61.534,318.834 
				61.534,307.864 36.183,307.864 36.183,302.251 61.597,302.251 61.597,289.176 21.1,289.176 			"/>
			<path fill="#FFFFFF" d="M99.926,306.938c0.043,1.638,0.176,3.195,0.399,4.672c0.223,1.478,0.355,2.494,0.399,3.047
				c-0.533-1.297-1.404-3.023-2.616-5.182c-1.21-2.159-2.603-4.502-4.177-7.033c-1.573-2.529-3.098-4.969-4.575-7.316
				c-1.479-2.35-2.695-4.332-3.651-5.949h-18.56v48.437h14.446v-25.028c-0.043-1.084-0.175-2.356-0.4-3.814
				c-0.222-1.454-0.355-2.406-0.397-2.852c0.956,2.082,2.252,4.517,3.89,7.304c1.637,2.784,3.391,5.682,5.262,8.688
				s3.678,5.882,5.421,8.626c1.743,2.742,3.221,5.1,4.432,7.076h14.573v-48.437H99.926V306.938z"/>
			<path fill="#FFFFFF" d="M152.319,324.446h-17.315v-22.194h31.665v-13.075h-35.459c-3.934,0.107-6.803,1.282-8.61,3.524
				c-1.808,2.242-2.7,4.949-2.678,8.114v24.618c-0.021,3.316,0.86,6.148,2.646,8.501c1.787,2.35,4.603,3.577,8.452,3.679h25.16
				c3.656-0.102,6.41-1.276,8.259-3.521c1.849-2.242,2.774-4.904,2.774-7.988v-17.567h-14.892V324.446z"/>
			<rect x="172.952" y="289.176" fill="#FFFFFF" width="15.083" height="48.437"/>
			<path fill="#FFFFFF" d="M226.97,306.938c0.042,1.638,0.175,3.195,0.397,4.672c0.225,1.478,0.354,2.494,0.399,3.047
				c-0.532-1.297-1.404-3.023-2.614-5.182c-1.212-2.159-2.604-4.502-4.177-7.033c-1.574-2.529-3.1-4.969-4.577-7.316
				c-1.477-2.35-2.695-4.332-3.652-5.949h-18.559v48.437h14.446v-25.028c-0.043-1.084-0.176-2.356-0.398-3.814
				c-0.223-1.454-0.356-2.406-0.397-2.852c0.955,2.082,2.252,4.517,3.889,7.304c1.636,2.784,3.39,5.682,5.262,8.688
				c1.87,3.007,3.677,5.882,5.419,8.626c1.744,2.742,3.222,5.1,4.434,7.076h14.573v-48.437H226.97V306.938z"/>
			<polygon fill="#FFFFFF" points="247.344,337.613 287.653,337.613 287.653,324.508 262.367,324.508 262.367,318.834 
				287.78,318.834 287.78,307.864 262.429,307.864 262.429,302.251 287.842,302.251 287.842,289.176 247.344,289.176 			"/>
			<polygon fill="#FFFFFF" points="293.391,337.613 333.7,337.613 333.7,324.508 308.415,324.508 308.415,318.834 333.825,318.834 
				333.825,307.864 308.476,307.864 308.476,302.251 333.89,302.251 333.89,289.176 293.391,289.176 			"/>
			<path fill="#FFFFFF" d="M374.453,289.176h-34.884v48.437h14.89v-17.983h15.69v17.983h14.827v-17.664
				c-0.022-1.892-0.563-3.35-1.625-4.369c-1.064-1.021-2.467-1.808-4.211-2.357c1.467-0.319,2.802-1.032,4.001-2.137
				c1.203-1.107,1.835-2.638,1.9-4.595v-8.289c0.02-2.529-0.815-4.65-2.505-6.361C380.847,290.131,378.153,289.241,374.453,289.176z
				 M370.083,308.661h-15.625v-6.409h15.625V308.661z"/>
			<path fill="#FFFFFF" d="M435.613,312.663c-0.445-0.922-0.955-1.675-1.529-2.247c-0.828-0.788-1.88-1.425-3.157-1.915
				c-1.275-0.487-2.55-0.744-3.827-0.765h-21.874v-5.484h28.155v-13.075h-30.387c-4.402,0.022-7.594,0.877-9.584,2.567
				c-1.987,1.689-2.97,4.034-2.949,7.031v11.641c-0.107,2.657,0.67,4.767,2.327,6.329c1.659,1.563,4.847,2.364,9.565,2.406h19.199
				v5.357H390.14v13.104h36.577c1.444-0.02,2.839-0.287,4.179-0.794c1.337-0.511,2.399-1.147,3.188-1.915
				c0.659-0.7,1.189-1.51,1.595-2.422c0.404-0.915,0.617-1.647,0.64-2.2v-14.765C436.295,314.54,436.06,313.587,435.613,312.663z"/>
		</g>
	</g>
	<g>
		<g>
			<path fill="#808285" d="M152.319,313.395v11.051h-17.315v-11.051h-15.083v12.038c-0.021,3.316,0.86,6.148,2.646,8.501
				c1.787,2.35,4.603,3.577,8.452,3.679h25.16c3.656-0.102,6.41-1.276,8.259-3.521c1.849-2.242,2.774-4.904,2.774-7.988v-12.708
				H152.319z"/>
		</g>
		<g>
			<rect x="194.188" y="313.395" fill="#808285" width="14.446" height="24.218"/>
		</g>
		<g>
			<rect x="172.952" y="313.395" fill="#808285" width="15.083" height="24.218"/>
		</g>
		<g>
			<polygon fill="#808285" points="61.534,318.834 61.534,313.395 21.1,313.395 21.1,337.613 61.405,337.613 61.405,324.508 
				36.118,324.508 36.118,318.834 			"/>
		</g>
		<g>
			<path fill="#808285" d="M100.581,313.395c0.073,0.547,0.121,0.973,0.144,1.262c-0.156-0.379-0.349-0.807-0.563-1.262H84.789
				c1.607,2.734,3.325,5.568,5.157,8.516c1.871,3.007,3.678,5.882,5.421,8.626c1.743,2.742,3.221,5.1,4.432,7.076h14.573v-24.218
				H100.581z"/>
		</g>
		<g>
			<rect x="67.146" y="313.395" fill="#808285" width="14.446" height="24.218"/>
		</g>
		<g>
			<path fill="#808285" d="M379.615,313.395h-40.046v24.218h14.89v-17.983h15.69v17.983h14.827v-17.664
				c-0.022-1.892-0.563-3.35-1.625-4.369C382.389,314.657,381.132,313.934,379.615,313.395z"/>
		</g>
		<g>
			<path fill="#808285" d="M390.78,313.395c0.365,1.31,1.03,2.427,2.008,3.35c1.659,1.563,4.847,2.364,9.565,2.406h19.199v5.357
				H390.14v13.104h36.577c1.444-0.02,2.839-0.287,4.179-0.794c1.337-0.511,2.399-1.147,3.188-1.915
				c0.659-0.7,1.189-1.51,1.595-2.422c0.404-0.915,0.617-1.647,0.64-2.2v-14.765c-0.018-0.723-0.15-1.427-0.397-2.122H390.78z"/>
		</g>
		<g>
			<path fill="#808285" d="M227.625,313.395c0.069,0.547,0.119,0.973,0.142,1.262c-0.157-0.379-0.35-0.807-0.562-1.262h-15.375
				c1.608,2.734,3.326,5.568,5.158,8.516c1.87,3.007,3.677,5.882,5.419,8.626c1.744,2.742,3.222,5.1,4.434,7.076h14.573v-24.218
				H227.625z"/>
		</g>
		<g>
			<polygon fill="#808285" points="287.78,318.834 287.78,313.395 247.344,313.395 247.344,337.613 287.653,337.613 
				287.653,324.508 262.367,324.508 262.367,318.834 			"/>
		</g>
		<g>
			<polygon fill="#808285" points="333.825,318.834 333.825,313.395 293.391,313.395 293.391,337.613 333.7,337.613 333.7,324.508 
				308.415,324.508 308.415,318.834 			"/>
		</g>
	</g>
</g>
</svg>
