<?xml version="1.0" encoding="utf-8"?>
<!-- Generator: Adobe Illustrator 16.0.0, SVG Export Plug-In . SVG Version: 6.00 Build 0)  -->
<!DOCTYPE svg PUBLIC "-//W3C//DTD SVG 1.1//EN" "http://www.w3.org/Graphics/SVG/1.1/DTD/svg11.dtd">
<svg version="1.1" id="Layer_1" xmlns="http://www.w3.org/2000/svg" xmlns:xlink="http://www.w3.org/1999/xlink" x="0px" y="0px"
	 width="323.068px" height="172.344px" viewBox="0 0 323.068 172.344" enable-background="new 0 0 323.068 172.344"
	 xml:space="preserve">
<path fill-rule="evenodd" clip-rule="evenodd" fill="#FFFFFF" d="M128.215,56.266l0.02,1.543l1.504-1.254l2.785-0.289
	c2.574-0.324,3.476,1.133,4.848,2.062l2.754-2.824h-10.137C129.059,55.504,128.762,55.899,128.215,56.266L128.215,56.266z
	 M186.748,65.895c-0.818-9.828-12.563-18.614-12.662-19.071l2.021,0.317c-2.013-3.004-8.926-6.336-14.191-6.336
	c2.777,1.93,4.902,1.715,7.92,4.496c2.681,2.465,3.287,4.277,4.978,7.441c0.521,0.977,5.035,4.805,6.293,6.121
	C182.473,60.293,185.826,65.219,186.748,65.895L186.748,65.895z M129.989,49.422c0.304-0.121,0.867-0.254,1.265-0.254h0.254
	c0.594,0,1.016,0.422,1.016,1.012c0,0.355-0.348,0.508-0.762,0.508h-1.773V49.422z M135.563,53.477l1.012-3.547
	c1.801,0.039,2.343,1.266,4.054,1.266h2.282c0.211,0,2.476-2.071,3.996-2.594c1.172-0.406,5.097-0.633,4.871-1.207
	c-2.141,0-3.797-1.773-6.586-1.773h-4.816c-1.747,0-2.024,0.223-2.032,2.059l1.782,0.223v-1.778h3.8
	c-0.113,1.34-1.324,3.043-2.789,3.043h-1.265c-1.446,0-3.793-3.801-7.098-3.801H131c-2.937,0-7.347,4.821-7.347,7.602v3.043
	c0,1.539,2.918,5.457,4.308,5.828c-0.41-1.531-3.402-4.894-1.363-7.176C128.168,52.906,132.418,53.477,135.563,53.477
	L135.563,53.477z M135.563,53.477"/>
<path fill-rule="evenodd" clip-rule="evenodd" fill="#FFFFFF" d="M114.278,96.563l-8.613-5.071
	c2.652-3.964,4.812-3.448,4.812-11.402c-1.527,0.406-3.348,3.801-7.601,3.801h-1.266c-1.672,0-6-1.781-6.336-3.043
	c3.793-1.817,9.406-2.875,9.883-8.617c-1.453,0.34-2.758,1.269-4.563,1.269h-3.039c-2.429,0-8.187-2.711-8.613-4.308
	c2.308-1.223,7.258-1.274,7.348-5.325c-5.606,0-12.293-5.066-13.176-8.871c3.883,0,8.613,0.7,8.613-3.293
	c-2.824-1.355-5.355-1.734-8.473-3.438c-3.316-1.817-4.394-2.664-6.816-5.348c-2.977-3.305-7.484-11.183-12.078-12.254v-0.758
	c4.816,0,21.183,4.766,25.156,6.266c6.442,2.434,17.375,6.039,19.18,12.5c1.699,6.098,5.582,18.254,8.762,22.664
	c1.519,2.11,16.492,16.383,17.851,11.289C105.235,68.188,119.258,55,105.493,42.242c-6.082-5.636-16.028-7.421-24.969-10.254
	c-3.387-1.07-25.906-6.644-28.578-6.644c1.762,2.406,14.504,6.551,18.715,14.23c2.89,5.27,2.578,5.379,7.789,8.68
	c1.914,1.215,3.433,1.856,5.484,2.879c0.922,0.461,6.777,2.344,3.484,2.344h-2.531c-2.859,0-3.808-0.98-5.828-1.52
	c0,5.75,7.492,12.926,13.934,12.926c-0.344,1.293-1.938,2.027-3.547,2.027l-2.793,0.055l-2.781-0.309
	c1.445,5.415,8.707,8.872,15.964,8.872c-0.777,2.914-5.875,3.546-9.882,3.546c1.656,2.477,7.691,6.844,11.91,6.844h1.265
	c1.918,0,2.536-0.66,4.055-1.015l0.559,0.589L101,91.93l-0.656-0.688C101.407,92.692,110.786,98.778,114.278,96.563L114.278,96.563z
	 M189.537,81.61l0.25,2.281c4.996-0.414,14.256-10.203,16.854-14.067c2.203-3.277,3.699-6.312,5.393-10.066
	c1.65-3.676,2.139-7.914,3.926-11.531c3.389-6.864,10.453-10.262,18.186-12.73c4.281-1.367,20.604-6.097,25.07-6.097
	c-0.418,0.574-5,3.98-6.496,5.668c-2.564,2.89-2.811,4.609-4.764,7.652c-2.146,3.336-10.936,8.73-16.107,8.73
	c0,2.543,1.811,3.547,4.311,3.547h4.307v0.762c0,4.699-8.768,7.602-13.936,7.602c0.24,2.906,5.896,4.945,8.615,5.578
	c-0.645,2.754-5.055,4.562-8.615,4.562h-1.775c-2.742,0-4.631-1.015-6.838-1.015c0.299,3.648,7.389,7.179,10.385,8.617
	c-0.936,1.402-3.508,2.789-5.828,2.789h-1.012c-4.217,0-6.863-2.625-9.375-4.309l-0.752,0.403l6.605,12.391l0.055-0.453
	l-8.951,5.148c8.719,0,9.068-3.816,14.447-5.07v-0.509c-3.111-0.722-7.574-3.722-7.857-7.093c1.947,0.16,3.439,1.519,6.336,1.519
	h1.268c3.932,0,8.6-2.937,9.375-5.828c-2.189-1.051-9.621-1.152-9.885-4.309c7.902,0,15.713-3.171,17.232-8.871
	c-3.543,0-9.943,0.336-10.641-2.281c8.021,0,15.707-5.969,15.707-13.687c-1.871,1.254-4.316,2.789-7.35,2.789
	c-1.207,0-2.518-0.055-3.039-0.762c7.857-0.652,14.156-8.652,17.457-14.219c1.879-3.16,4.789-5.832,7.828-7.883
	c3.326-2.246,8.396-3.671,10.697-5.27c-13.176,0.293-44.811,10.293-52.094,16.324c-7.941,6.574-6.785,14.297-10.871,23.34
	C205.015,71.086,195.486,80.02,189.537,81.61L189.537,81.61z M189.537,81.61"/>
<path fill-rule="evenodd" clip-rule="evenodd" fill="#FFFFFF" d="M178.636,100.618l1.525,0.254v-0.509
	c-0.582-0.386-0.513-0.483-1.525-0.503V100.618z M189.787,100.872l45.264,0.148l-8.668,9.27l11.801,42.538
	c-0.201-0.003-19.305-7.922-22.24-8.925c-2.578-0.887-23.314-6.91-25.143-5.773c1.383,2.066,9.719,3.199,12.811,3.914
	c4.871,1.133,8.736,2.609,13.078,3.902c8.658,2.574,16.236,6.578,23.521,10.434c-0.088-3.988-6.664-25.797-8.07-30.961
	c-0.664-2.422-4.422-13.672-3.793-15.105c0.793-1.809,8.621-8.75,9.074-10.453l-47.328,0.012L189.787,100.872z M149.754,100.618
	h24.58l-0.508-0.758l-23.771,0.016L149.754,100.618z M133.282,138.129c-7.324,0.164-19.332,3.648-25.676,5.492
	c-4.406,1.281-7.516,2.613-11.5,3.956c-3.379,1.138-8.301,4.673-10.559,5.224L97.18,109.86l-8.965-8.766l0.219-0.219l45.609-0.258
	l-0.253-0.758H85.899c0.43,1.613,7.848,8.043,9.156,10.137c0.875,1.402-2.558,12.495-3.297,14.984
	c-1.347,4.527-7.886,27.211-7.886,30.636c7.543-3.991,14.195-7.464,23.418-10.034c4.488-1.25,8.062-2.595,13.191-3.531
	C123.403,141.516,132.575,140.781,133.282,138.129L133.282,138.129z M136.325,137.368v1.773l-0.028-0.324l27.875-2.039l0.024,0.335
	h1.519l0.025-0.276l21.514,1.801v-1.524l-15.203-1.265l-14.964-0.188L136.325,137.368z M143.926,100.618l1.52,0.254l-0.254-1.012
	l-0.965,0.016L143.926,100.618z M143.926,100.618"/>
<path fill-rule="evenodd" clip-rule="evenodd" fill="#4A2162" d="M141.942,119.887l-7.899-0.008c0-1.18,0.586-7.095,1.52-7.095
	h3.039c1.797,0,3.801,0.481,3.801,2.282l0.101,1.535L141.942,119.887z M126.946,133.059c1.719-0.039,2.812-0.758,4.562-0.758h1.266
	v-0.762l1.383-10.63l7.234-0.015v2.281l-0.824,7.852l4.367-0.309l1.777,0.059l0.852-14.441l-0.09-1.523
	c0-5.543-12.125-3.297-16.84-3.184L126.946,133.059z M126.946,133.059"/>
<path fill-rule="evenodd" clip-rule="evenodd" fill="#4A2162" d="M198.912,115.824c0,5.524,9.189,7.091,13.588,8.712
	c2.4,0.887,5.848,1.836,7.668,3.48c0.732,0.664,4.904,7.578,2.051,7.578h-1.518c-1.547,0-8.336-1.892-9.143-2.512
	c-3.271-2.531-1.219-3.824-8.09-3.824c0.574,6.914,18.168,10.102,26.861,9.379c0.131-0.57,0.254-0.582,0.254-1.27v-0.758
	c0-13.852-29.443-15.113-25.844-20.786c0.279-1.058,1.729-1.519,3.039-1.519h1.264c3.715,0,6.266,1.02,7.602,3.547h6.082
	c-2.201-3.293-10.832-5.828-16.469-5.828h-2.535C200.833,112.024,198.912,112.946,198.912,115.824L198.912,115.824z
	 M198.912,115.824"/>
<path fill-rule="evenodd" clip-rule="evenodd" fill="#FFFFFF" d="M198.912,115.824c0-2.878,1.922-3.8,4.811-3.8h2.535
	c5.637,0,14.268,2.535,16.469,5.828h-6.082c-1.336-2.527-3.887-3.547-7.602-3.547h-1.264c-1.311,0-2.76,0.461-3.039,1.519
	c-3.6,5.673,25.844,6.935,25.844,20.786v0.758c0,0.688-0.123,0.699-0.254,1.27c-8.693,0.723-26.287-2.465-26.861-9.379
	c6.871,0,4.818,1.293,8.09,3.824c0.807,0.62,7.596,2.512,9.143,2.512h1.518c2.854,0-1.318-6.914-2.051-7.578
	c-1.82-1.645-5.268-2.594-7.668-3.48C208.101,122.915,198.912,121.348,198.912,115.824L198.912,115.824z M198.15,115.067v1.773
	c0,8.176,23.818,6.987,23.818,16.727v1.016c-3.146,0-8.742-1.125-10.275-2.648c-3.268-3.242-2.879-3.688-9.488-3.688
	c0,3.484,6.346,8.141,9.01,9.23c1.947,0.797,13.275,2.172,16.328,2.172h2.787c0.789,0,1.264-1.254,1.264-2.027v-1.773
	c0-1.633-2.729-6.856-3.871-7.785c-2.93-2.375-3.732-2.672-7.447-4.207c-3.139-1.297-15.482-4.176-14.525-8.285
	c0.572-0.133,0.584-0.254,1.266-0.254h1.775c3.152,0,6.842,0.516,7.096,3.55h8.361c-0.375-4.507-12.521-7.858-17.736-7.858h-1.014
	C201.96,111.008,198.15,111.61,198.15,115.067L198.15,115.067z M177.878,111.008c6.621,0,6.332,3.211,6.332,9.379l0.775,0.309
	l3.533-9.18l4.436,0.047l-3.168,8.824c3.475,0,7.652,0.476,8.482,3.172c0.354,1.137,2.146,8.773,2.16,9.5
	c-7.336,0-5.461,0.176-6.564-5.598c-0.854-4.465-1.104-5.806-6.611-5.806l-2.644,0.013l1.126,9.617
	c-7.328,0-5.195-0.973-5.609-8.332c-0.119-2.102-0.416-4.294-0.619-6.477C179.128,112.395,180.033,113.438,177.878,111.008
	L177.878,111.008z M177.119,112.278h1.264c0,4.363,1.033,8.641,1.025,13.168c-0.009,7.801-1.263,6.855,7.428,6.844l-1.1-9.621
	c8.85,0,6.611,3.398,8.371,10.816l7.59,0.843c0-1.597-1.811-8.351-2.32-10.351c-1.012-3.93-4.08-3.672-8.154-4.633l2.871-8.84
	l-6.135-0.023l-2.732,7.371c-1.585-2.496,1.396-7.602-5.318-7.602h-2.789V112.278z M135.563,115.824v-0.507l0.313-1.508l2.98-0.012
	c1.394,0,2.535,0.336,2.535,1.773v2.535c0,0.586-0.176,0.761-0.762,0.761h-5.574L135.563,115.824z M142.504,116.602l-0.101-1.535
	c0-1.801-2.004-2.282-3.801-2.282h-3.039c-0.934,0-1.52,5.915-1.52,7.095l7.899,0.008L142.504,116.602z M160.649,111.516
	c0-0.778,0.742-1.012,1.519-1.012h2.028c0.777,0,1.519,0.233,1.519,1.012v16.73h4.563l-0.317-11.914l0.063-4.816
	c0-0.582,0.177-0.758,0.759-0.758h2.534c2.517,0,1.879,6.949,2.052,9.352c0.241,3.402,0.483,7.016,0.483,10.668h-24.578
	c0-3.238,0.039-7.536,0.32-10.829c0.121-1.418,0.149-3.621,0.34-5.265c0.602-5.172-0.812-2.418-1.422-3.926l5.84,0.387
	c0.121,0.688,0.242,0.703,0.242,1.386v15.462h4.055V111.516z M149.5,112.024l1.266,0.254c0,2.691-1.031,19.516,0.254,19.516
	l26.151-0.004l-1.319-20.781c-0.724-0.383-2.269-1.267-3.293-1.267h-1.269c-0.763,0-1.633,0.552-2.494,0.759l0.465,16.73h-2.53
	v-15.715c0-0.684-0.121-0.699-0.237-1.481l-5.845-0.293c-0.313,1.164-0.762,0.642-0.762,1.521v15.715h-2.281V111.77
	c0-2.16-5.512-2.028-8.106-2.028V112.024z M130.633,111.629c4.715-0.113,16.84-2.359,16.84,3.184l0.09,1.523l-0.852,14.441
	l-1.777-0.059l-4.367,0.309l0.824-7.852v-2.281l-7.234,0.015l-1.383,10.63v0.762h-1.266c-1.75,0-2.843,0.719-4.562,0.758
	L130.633,111.629z M128.723,110.504c0.231,2.781,1.027,1.492,0.375,5.691c-0.328,2.109-0.73,3.949-1.156,5.945
	c-0.649,3.023-2.008,8.457-2.008,11.934l1.027,0.081l6.633-1.089l1.207-11.161h5.575l0.148,1.793l-0.906,7.587l0.004,0.827
	l7.851-0.573C147.473,108.122,154.254,110.504,128.723,110.504L128.723,110.504z M121.797,133.805l-6.535,1.277l2.563-12.16
	c-2.645,0-6.34,0.391-8.774,0.852c-2.488,0.473-2.515,4.214-3.234,6.398c-0.649,1.983-1.012,6.016-2.672,6.961
	c-0.547,0.313-6.621,2.5-7.496,2.477l7.969-25.484l-0.227-0.121l-2.035-0.207l0.004-0.935l9.5-0.296l-2.652,9.664l9.585-1.09
	l2.313-9.117h6.082L121.797,133.805z M109.719,120.895c0-2.398,2.278-7.539,2.278-8.617v-0.829l-11.418,0.571l-0.489,2.793
	l2.301,0.004l-7.875,26.102c1.504,0,5.789-1.75,7.356-2.273c4.378-1.469,2.605-0.973,4.093-5.535
	c2.735-8.387-0.211-8.922,10.727-8.891l-2.649,12.223l8.598-1.859c0.496-5.98,4.813-18.563,4.813-22.813v-0.762
	c-8.434,0-7.172-1.703-9.211,4.477C116.321,121.309,118.204,120.895,109.719,120.895L109.719,120.895z M109.719,120.895"/>
<path fill-rule="evenodd" clip-rule="evenodd" fill="#4A2162" d="M160.649,111.516v16.477h-4.055v-15.462
	c0-0.683-0.121-0.698-0.242-1.386l-5.84-0.387c0.61,1.508,2.024-1.246,1.422,3.926c-0.191,1.644-0.219,3.847-0.34,5.265
	c-0.281,3.293-0.32,7.591-0.32,10.829h24.578c0-3.652-0.242-7.266-0.483-10.668c-0.173-2.402,0.465-9.352-2.052-9.352h-2.534
	c-0.582,0-0.759,0.176-0.759,0.758l-0.063,4.816l0.317,11.914h-4.563v-16.73c0-0.778-0.741-1.012-1.519-1.012h-2.028
	C161.391,110.504,160.649,110.738,160.649,111.516L160.649,111.516z M160.649,111.516"/>
<path fill-rule="evenodd" clip-rule="evenodd" fill="#4A2162" d="M177.878,111.008c2.154,2.43,1.25,1.387,1.629,5.469
	c0.203,2.183,0.5,4.375,0.619,6.477c0.414,7.359-1.719,8.332,5.609,8.332l-1.126-9.617l2.644-0.013c5.508,0,5.758,1.341,6.611,5.806
	c1.104,5.773-0.771,5.598,6.564,5.598c-0.014-0.727-1.807-8.363-2.16-9.5c-0.83-2.696-5.008-3.172-8.482-3.172l3.168-8.824
	l-4.436-0.047l-3.533,9.18l-0.775-0.309C184.21,114.219,184.5,111.008,177.878,111.008L177.878,111.008z M177.878,111.008"/>
<path fill-rule="evenodd" clip-rule="evenodd" fill="#4A2162" d="M126.188,112.024h-6.082l-2.313,9.117l-9.589,1.09l2.656-9.664
	l-9.5,0.296l-0.004,0.935l2.035,0.207l0.227,0.121l-7.969,25.484c0.875,0.023,6.949-2.164,7.496-2.477
	c1.66-0.945,2.023-4.978,2.672-6.961c0.719-2.185,0.746-5.926,3.234-6.398c2.434-0.461,6.129-0.852,8.774-0.852l-2.563,12.16
	l6.535-1.277L126.188,112.024z M126.188,112.024"/>
<path fill-rule="evenodd" clip-rule="evenodd" fill="#FFFFFF" d="M130.75,148.012v1.269c0,1.884,0.879,4.31,2.532,4.31h0.508
	c2.621,0,4.308-1.195,4.308-3.801v-1.016h-1.015c-2.895,0-2.786-5.277-2.786-8.364C132.872,141.363,130.75,145.567,130.75,148.012
	L130.75,148.012z M187,147.762h-1.518v1.266c0,2.148,1.365,3.546,3.547,3.546h1.012c1.807,0,2.789-1.69,2.789-3.546
	c0-3.691-1.418-7.95-3.547-9.379C189.283,142.219,189.261,147.762,187,147.762L187,147.762z M184.718,98.844l1.129-0.297l1.152,3.34
	h0.508c0.504-2.164,2.279-2.711,2.279-6.844v-0.763c0-1.694-1.461-3.293-3.293-3.293C184.305,90.988,184.718,96.372,184.718,98.844
	L184.718,98.844z M179.399,97.578l2.815,3.47l0.224-0.176c0.323-1.384,1.522-3.598,1.522-4.563v-1.012
	c0-0.484-0.961-1.773-1.522-1.773h-1.013C179.477,93.524,179.399,95.567,179.399,97.578L179.399,97.578z M173.571,93.016
	l-0.254,2.535c-0.194,1.414,2.599,5.508,3.729,5.82l0.326-3.289h1.01v-1.773c0-1.699-1-4.055-2.784-4.055h-0.255
	C174.416,92.254,174.123,92.649,173.571,93.016L173.571,93.016z M145.446,96.055v2.281c1.887,0.043,1.519,1.129,1.519,3.043
	c1.239-0.832,3.547-3.66,3.547-5.578v-1.266c0-0.926-0.699-2.027-1.519-2.027h-0.762C146.637,92.508,145.446,94.473,145.446,96.055
	L145.446,96.055z M139.872,95.801c0,2.707,1.226,3.262,1.265,5.07c1.125-0.301,3.039-2.887,3.039-4.309v-0.508
	c0-1.141-0.476-2.531-1.519-2.531h-1.266C140.454,93.524,139.872,94.817,139.872,95.801L139.872,95.801z M133.79,95.043v0.254
	c0,1.949,1.75,6.242,3.039,6.59c0-1.422,0.457-3.188,1.773-3.297c0.133-0.566,0.254-0.582,0.254-1.266l0.059-2.035L138.602,92
	c-0.566-0.379-0.887-1.013-1.519-1.013C135.102,90.988,133.79,93.004,133.79,95.043L133.79,95.043z M133.79,95.043"/>
<path fill-rule="evenodd" clip-rule="evenodd" fill="#C0A062" d="M135.563,115.317v3.296h2.281c1.453,0,1.813-0.405,3.039-0.507
	l0.008-3.34l-3.555-0.461C136.54,114.18,136.29,115.055,135.563,115.317L135.563,115.317z M135.563,115.317
	c0.727-0.262,0.973-1.137,1.773-1.012l3.555,0.461l-0.008,3.34c-1.226,0.102-1.586,0.507-3.039,0.507h-2.281v-2.789l-0.508,3.043
	h5.574c0.586,0,0.762-0.175,0.762-0.761v-2.535c0-1.438-1.141-1.773-2.535-1.773l-2.98,0.012L135.563,115.317z M135.563,115.317"/>
<path fill-rule="evenodd" clip-rule="evenodd" fill="#C0A062" d="M20.02,25.09L26,22.078l-0.164-0.445l-2.015,0.164h-2.535
	c-10.485,0-16.684-14.785-21.032-21.039c0,5.902,3.817,12.051,6.426,15.625c1.606,2.203,3.371,3.711,5.637,5.258
	C14.79,23.328,18.641,24.215,20.02,25.09L20.02,25.09z M29.141,38.524c0.496-0.364,1.52-1.918,1.52-2.789l-0.008-1.094l-5.82,0.586
	c-7.485,0.836-15.899-5.199-18.243-9.629l-2.535-1.016c0.071,3.094,6.375,9.399,8.789,10.727
	C18.333,38.328,20.836,38.524,29.141,38.524L29.141,38.524z M38.77,51.957l2.988-5.359l-0.453-0.219
	c-1.883,1.262-5.562,4.309-8.617,4.309h-3.293c-4.43,0-12.641-4.899-13.43-7.856l-1.773-0.254c0.391,4.7,9.527,10.645,16.215,10.645
	C32.364,53.223,38.418,51.75,38.77,51.957L38.77,51.957z M28.633,58.293h-0.757c0.238,2.871,6.878,6.844,10.64,6.844h2.789
	c4.168,0,7.664-3.539,9.879-4.059l0.508-5.066c-1.594,0.133-6.328,5.828-13.43,5.828h-1.519
	C34.293,61.84,29.231,59.938,28.633,58.293L28.633,58.293z M42.571,69.696l-2.281,0.507c0.703,1.328,7.035,4.563,9.121,4.563h3.043
	c4.855,0,7.367-4.145,9.882-5.828l-0.253-4.563h-0.508c-0.871,3.266-7.5,7.602-12.164,7.602
	C46.864,71.977,43.926,70.875,42.571,69.696L42.571,69.696z M58.536,78.821l-1.524,1.269c0.379,0.559,2.36,1.266,2.789,1.266h3.801
	c4.016,0,6.356-3.207,8.359-5.321l-0.25-3.55c-1.14,0.304-4.734,7.351-9.628,7.351h-2.028
	C59.028,79.836,58.743,79.602,58.536,78.821L58.536,78.821z M78.043,87.438l-0.011-2.883l-4.547,0.601h-1.774
	c-0.961,0-1.617-0.449-2.027-1.011l-2.535,1.773c0.695,1.04,3.769,2.602,5.851,2.43L78.043,87.438z M76.778,92.254l-1.016,1.016
	c0.481,0.715,3.547,2.281,4.309,2.281l0.515,0.055l2.727-0.289l0.559,1.5l1.144,0.023l-0.89-5.598
	c-1.211,0.809-1.731,2.027-3.801,2.027h-0.762c-1.199,0-1.828-0.285-2.785-0.508V92.254z M76.778,92.254"/>
<path fill-rule="evenodd" clip-rule="evenodd" fill="#C0A062" d="M305.585,25.344c-0.293-0.746,4.604-2.481,6.043-3.582
	c1.508-1.152,4.232-3.359,5.301-4.84c2.336-3.238,5.885-9.297,5.885-14.641c-0.178-2.023-0.896,1.821-1.188,2.606
	c-0.486,1.285-1.24,2.559-1.895,3.687c-1.406,2.411-2.949,4.375-4.979,6.172c-3.135,2.773-9.795,6.797-15.504,6.797l-0.07,0.895
	L305.585,25.344z M317.494,25.344c-2.762,7.629-12.848,10.137-23.818,10.137l-0.207,0.156l2.49,3.141
	c0.084-0.059,7.992-0.844,8.85-1.032c2.631-0.566,4.832-1.672,6.975-2.91c2.514-1.453,8.496-7.914,8.66-11.183L317.494,25.344z
	 M307.361,43.086c0.857,2.086-9.75,7.602-14.193,7.602h-1.264c-4.246,0-6.836-1.989-8.793-1.934l1.693,2.949
	c0.375-0.218,5.6,1.398,7.357,1.52c2.918,0.203,6.436-0.523,8.385-1.235c3.203-1.164,8.822-6.066,9.58-9.527L307.361,43.086z
	 M273.658,61.078c3.215,1.703,6.393,4.309,11.4,4.309h0.764c4.375,0,10.357-3.629,11.146-6.586h-2.535
	c0.564,1.355-6.561,3.801-8.865,3.801h-0.764c-6.539,0-8.646-2.801-12.59-5.262L273.658,61.078z M262,69.192
	c2.127,0.566,4.33,5.574,10.645,5.574h1.268c3.182,0,9.867-1.844,10.363-3.715l-3.018-0.848c-0.389,0.977-3.957,1.27-5.318,1.27
	h-2.785c-7.777,0-8.707-3.977-10.828-4.555L262,69.192z M252.123,80.344l-0.254-2.789v-0.762c0-0.683,0.121-0.699,0.254-1.265
	c3.863,4.074,3.803,5.828,11.906,5.828c0.426-1.055,2.279-0.297,2.279-1.266c0-0.676-0.658-1.359-1.266-1.523v0.761h-1.264
	c-6.91,0-7.629-2.992-11.152-5.574c-0.447,0.844-1.012,1.774-1.012,3.039v1.774C251.615,79.504,251.744,79.797,252.123,80.344
	L252.123,80.344z M245.787,86.934c0.863,0.457,3.031,1.265,4.307,1.265h2.029c1.449,0,3.707-1.386,4.42-2.425l-1.889-1.375
	c-0.418,1.156-2.25,1.519-3.803,1.519h-1.012c-1.793,0-3.057-1.164-4.336-1.265L245.787,86.934z M239.197,94.281l1.9,0.763
	l-0.125,0.254h3.803c1.318,0,3.004-1.488,3.801-1.773l0.211-0.2L247.304,92c-0.789,1.082-2.418,1.773-4.307,1.773h-1.266
	c-1.021,0-1.488-0.051-1.773-0.758l-0.455,0.012L239.197,94.281z M239.197,94.281"/>
<path fill-rule="evenodd" clip-rule="evenodd" fill="#C0A062" d="M198.15,115.067c0-3.457,3.811-4.059,7.348-4.059h1.014
	c5.215,0,17.361,3.352,17.736,7.858h-8.361c-0.254-3.034-3.943-3.55-7.096-3.55h-1.775c-0.682,0-0.693,0.121-1.266,0.254
	c-0.957,4.109,11.387,6.988,14.525,8.285c3.715,1.535,4.518,1.832,7.447,4.207c1.143,0.929,3.871,6.152,3.871,7.785v1.773
	c0,0.773-0.475,2.027-1.264,2.027h-2.787c-3.053,0-14.381-1.375-16.328-2.172c-2.664-1.09-9.01-5.746-9.01-9.23
	c6.609,0,6.221,0.445,9.488,3.688c1.533,1.523,7.129,2.648,10.275,2.648v-1.016c0-9.739-23.818-8.551-23.818-16.727V115.067z
	 M109.719,120.895c8.485,0,6.602,0.414,8.524-5.41c2.039-6.18,0.777-4.477,9.211-4.477v0.762c0,4.25-4.317,16.832-4.813,22.813
	l-8.598,1.859l2.649-12.223c-10.938-0.031-7.992,0.504-10.727,8.891c-1.488,4.563,0.285,4.066-4.093,5.535
	c-1.567,0.523-5.852,2.273-7.356,2.273l7.875-26.102l-2.301-0.004l0.489-2.793l11.418-0.571l0.003,0.829
	C112,113.356,109.719,118.497,109.719,120.895L109.719,120.895z M172.559,109.742c1.024,0,2.569,0.888,3.293,1.267l1.319,20.781
	l-26.151,0.004c-1.285,0-0.254-16.824-0.254-19.516l-1.266-0.254v-2.282c2.594,0,8.106-0.132,8.106,2.028v15.207h2.281v-15.715
	c0-0.879,0.449-0.356,0.762-1.521l5.845,0.293c0.116,0.782,0.237,0.798,0.237,1.481v15.715h2.53l-0.465-16.73
	c0.861-0.207,1.731-0.759,2.494-0.759H172.559z M177.119,110.25h2.789c6.715,0,3.733,5.105,5.318,7.602l2.732-7.371l6.135,0.023
	l-2.871,8.84c4.074,0.961,7.143,0.703,8.154,4.633c0.51,2,2.32,8.754,2.32,10.351l-7.59-0.843
	c-1.76-7.418,0.479-10.816-8.371-10.816l1.1,9.621c-8.69,0.012-7.437,0.957-7.428-6.844c0.008-4.527-1.025-8.805-1.025-13.168
	h-1.264V110.25z M128.723,110.504c25.531,0,18.75-2.383,18.75,21.035l-7.851,0.573l-0.004-0.827l0.906-7.587l-0.145-1.793h-5.578
	l-1.207,11.161l-6.633,1.089l-1.027-0.081c0-3.477,1.359-8.91,2.008-11.934c0.426-1.996,0.828-3.836,1.156-5.945
	C129.75,111.997,128.954,113.286,128.723,110.504L128.723,110.504z M134.043,100.618l-45.609,0.258l-0.219,0.219l8.965,8.766
	l-11.633,42.941c2.258-0.551,7.18-4.086,10.559-5.224c3.984-1.343,7.094-2.675,11.5-3.956c6.344-1.844,18.352-5.328,25.676-5.492
	l3.043-3.043v2.281l20.761-1.708l14.964,0.188l15.203,1.265v-2.785l0.244-0.202l3.303,4.004c1.828-1.137,22.564,4.887,25.143,5.773
	c2.936,1.003,22.039,8.922,22.24,8.925l-11.801-42.538l8.668-9.27l-45.264-0.148l-4.098,5.809L185,100.281l-0.627,0.181l-2.5,4.078
	l0.147-0.27l-1.858-3.398l-1.525-0.254l-0.1,3.809l-0.188,0.297l-4.015-4.105h-24.58l-3.921,3.956l-0.387-0.405v-3.297l-1.52-0.254
	l-2.109,3.633l0.219,0.241l-2.871-4.418l-0.403,0.005l-0.64,6.531L134.043,100.618z M134.043,100.618"/>
<path fill-rule="evenodd" clip-rule="evenodd" fill="#C0A062" d="M159.165,163.985l-0.036,1.012h5.576v-3.805h-0.509l0.074-6.359
	l0.785,2.582l1.168,8.594v0.762l-8.84-0.039l2.258-13.438l0.402,0.055L159.165,163.985z M147.727,160.18
	c0,0.871,2.598,1.754,3.457,1.734l3-6.609l0.281,0.104l-2.687,8.825c-0.645-0.055-5.824-2.75-5.824-3.043
	c0-0.825,2.785-6.219,3.293-6.59C149.204,156.5,147.727,158.743,147.727,160.18L147.727,160.18z M173.981,154.383
	c0.754,0.723,3.392,6.055,3.392,7.315c0,0.313-3.332,2.259-4.31,2.282c-1.34,2.531-1.97-1.816-2.422-3.152
	c-0.449-1.344-1.526-4.445-1.634-5.719c0.431,0.492,2.181,4.52,2.504,5.352c1.599,4.069,1.427,0.996,4.724,0.688L173.981,154.383z
	 M136.325,154.348l6.652,5.586l0.066-0.328l6.278-11.309l-4.899,13.164l8.063,5.543l5.629-17.724
	c-0.051,2.255-1.203,7.423-1.646,10.013c-0.304,1.762-0.57,3.395-0.875,4.984c-0.672,3.512,0.571,2.675,0.746,4.773h10.895
	c0-1.09,0.539-2.349,0.683-2.563l-2.612-17.237l5.538,17.629l9.496-5.023l-6.881-12.766l0.242-0.152l7.807,10.605l6.664-4.355
	l-5.793-7.227l0.606-1.016l-20.817-1.215h-3.039c-3.468,0-11.484,0.484-14.64,1.07c-4.051,0.754-4.504-0.896-4.66,3.199
	C139.739,152.368,138.321,153.883,136.325,154.348L136.325,154.348z M189.537,81.61c-0.236-0.094-5.177-10.782-5.938-12.055
	c-2.259-3.766-4.815-7.211-7.802-10.195c-6.879-6.883-13.01-9.403-24.019-11.965c0.226,0.574-3.699,0.801-4.871,1.207
	c-1.521,0.523-3.785,2.594-3.996,2.594h-2.282c-1.711,0-2.253-1.227-4.054-1.266l-1.012,3.547l6.832,1.152l0.273,0.094l-4.062,4.558
	l-0.254-0.23v0.508c3.754,1.004,3.801,7.273,3.801,12.168v0.758c0,2.238-5.449,9.117-6.844,10.14
	c-1.359,5.094-16.332-9.179-17.851-11.289c-3.18-4.41-7.063-16.566-8.762-22.664c-1.805-6.461-12.738-10.066-19.18-12.5
	c-3.973-1.5-20.34-6.266-25.156-6.266v0.758c4.594,1.071,9.101,8.949,12.078,12.254c2.422,2.684,3.5,3.531,6.816,5.348
	c3.118,1.703,5.649,2.082,8.473,3.438c0,3.993-4.73,3.293-8.613,3.293c0.883,3.805,7.57,8.871,13.176,8.871
	c-0.09,4.051-5.04,4.102-7.348,5.325c0.426,1.597,6.184,4.308,8.613,4.308h3.039c1.805,0,3.11-0.929,4.563-1.269
	c-0.477,5.742-6.09,6.8-9.883,8.617c0.336,1.262,4.664,3.043,6.336,3.043h1.266c4.253,0,6.074-3.395,7.601-3.801
	c0,7.954-2.16,7.438-4.812,11.402l8.613,5.071c1.418,0.68,12.265,0.207,14.98,0.285c4.946,0.137,2.071-0.707,3.453-4.152
	c0.739-1.836,2.11-3.23,4.625-3.23h0.508c1.051,0,2.262,1.266,2.539,2.313l2.274-0.286c1.562-0.229,1.812,0.739,2.535,1.271
	c1.684-1.129,6.84-5.606,6.84,1.012l0.058,0.516l-0.312,2.781h20.527c-1.195-10.934,5.555-6.273,6.077-4.309
	c1.158-0.31,1.263-1.426,2.543-1.324l2.783,0.309c0.078-0.941,1.1-2.281,2.027-2.281h1.771c1.615,0,3.801,2.19,3.801,3.805v3.801
	h17.734l8.951-5.148l-0.055,0.453l-6.605-12.391l0.752-0.403c2.512,1.684,5.158,4.309,9.375,4.309h1.012
	c2.32,0,4.893-1.387,5.828-2.789c-2.996-1.438-10.086-4.969-10.385-8.617c2.207,0,4.096,1.015,6.838,1.015h1.775
	c3.561,0,7.971-1.808,8.615-4.562c-2.719-0.633-8.375-2.672-8.615-5.578c5.168,0,13.936-2.903,13.936-7.602v-0.762h-4.307
	c-2.5,0-4.311-1.004-4.311-3.547c5.172,0,13.961-5.394,16.107-8.73c1.953-3.043,2.199-4.762,4.764-7.652
	c1.496-1.688,6.078-5.094,6.496-5.668c-4.467,0-20.789,4.73-25.07,6.097c-7.732,2.469-14.797,5.867-18.186,12.73
	c-1.787,3.617-2.275,7.855-3.926,11.531c-1.693,3.754-3.189,6.789-5.393,10.066c-2.598,3.864-11.857,13.653-16.854,14.067
	L189.537,81.61z M189.537,81.61"/>
<path fill-rule="evenodd" clip-rule="evenodd" fill="#4A2162" d="M130.75,148.012c0-2.445,2.122-6.649,3.547-7.603
	c0,3.087-0.109,8.364,2.786,8.364h1.015v1.016c0,2.605-1.687,3.801-4.308,3.801h-0.508c-1.653,0-2.532-2.426-2.532-4.31V148.012z
	 M187,147.762c2.262,0,2.283-5.543,2.283-8.113c2.129,1.429,3.547,5.688,3.547,9.379c0,1.855-0.982,3.546-2.789,3.546h-1.012
	c-2.182,0-3.547-1.397-3.547-3.546v-1.266H187z M136.325,154.348c1.996-0.465,3.414-1.98,3.504-4.348
	c0.156-4.095,0.609-2.445,4.66-3.199c3.156-0.586,11.172-1.07,14.64-1.07h3.039l20.817,1.215l-0.606,1.016l5.793,7.227l-6.664,4.355
	l-7.807-10.605l-0.242,0.152l6.881,12.766l-9.496,5.023l-5.538-17.629l2.612,17.237c-0.144,0.215-0.683,1.474-0.683,2.563H156.34
	c-0.175-2.099-1.418-1.262-0.746-4.773c0.305-1.59,0.571-3.223,0.875-4.984c0.442-2.59,1.594-7.758,1.646-10.013l-5.629,17.724
	l-8.063-5.543l4.899-13.164l-6.278,11.309l-0.066,0.328L136.325,154.348z M134.043,100.618l4.079,5.992l0.64-6.531l0.403-0.005
	l2.871,4.423l-0.219-0.246l2.109-3.633l0.301-0.742l0.965-0.016l0.254,1.012v3.297l0.387,0.405l3.921-3.956l0.301-0.742
	l23.771-0.016l0.508,0.758l4.015,4.105l0.188-0.297l0.1-3.809V99.86c1.013,0.02,0.943,0.117,1.525,0.503v0.509l1.858,3.398
	l-0.147,0.27l2.5-4.078l0.627-0.181l0.689,6.399l4.098-5.809l0.307-1l47.328-0.012c-0.453,1.703-8.281,8.645-9.074,10.453
	c-0.629,1.434,3.129,12.684,3.793,15.105c1.406,5.164,7.982,26.973,8.07,30.961c-7.285-3.855-14.863-7.859-23.521-10.434
	c-4.342-1.293-8.207-2.77-13.078-3.898c-3.092-0.719-11.428-1.852-12.811-3.918l-3.303-4.004l-0.244,0.202v4.31l-21.514-1.801
	l-0.025,0.28h-1.519l-0.024-0.339l-27.875,2.039l0.028,0.328v-4.059l-3.043,3.043c-0.707,2.651-9.879,3.387-12.801,3.922
	c-5.129,0.937-8.703,2.281-13.191,3.531c-9.223,2.57-15.875,6.043-23.418,10.034c0-3.425,6.539-26.108,7.886-30.636
	c0.739-2.489,4.172-13.582,3.297-14.984c-1.308-2.091-8.726-8.523-9.156-10.137h47.891L134.043,100.618z M179.399,97.578
	c0-2.011,0.078-4.054,2.026-4.054h1.013c0.562,0,1.522,1.289,1.522,1.773v1.012c0,0.965-1.199,3.179-1.522,4.563l-0.224,0.176
	L179.399,97.578z M139.872,95.801c0-0.984,0.582-2.277,1.519-2.277h1.266c1.043,0,1.519,1.391,1.519,2.531v0.508
	c0,1.422-1.914,4.008-3.039,4.309C141.098,99.063,139.872,98.508,139.872,95.801L139.872,95.801z M184.718,98.844
	c0-2.473-0.413-7.856,1.775-7.856c1.832,0,3.293,1.599,3.293,3.293v0.763c0,4.133-1.775,4.68-2.279,6.844H187l-1.152-3.34
	L184.718,98.844z M145.446,96.055c0-1.582,1.191-3.547,2.785-3.547h0.762c0.82,0,1.519,1.102,1.519,2.027v1.266
	c0,1.918-2.308,4.746-3.547,5.578c0-1.914,0.368-3-1.519-3.043V96.055z M133.79,95.043c0-2.039,1.312-4.056,3.293-4.056
	c0.632,0,0.953,0.634,1.519,1.013l0.313,3.289l-0.059,2.035c0,0.684-0.121,0.699-0.254,1.266c-1.316,0.108-1.773,1.875-1.773,3.297
	c-1.289-0.348-3.039-4.641-3.039-6.59V95.043z M173.571,93.016c0.552-0.367,0.845-0.762,1.772-0.762h0.255
	c1.784,0,2.784,2.355,2.784,4.055v1.773h-1.01l-0.326,3.289c-1.131-0.313-3.924-4.406-3.729-5.82L173.571,93.016z M128.215,56.266
	c0.547-0.367,0.844-0.762,1.774-0.762h10.137l-2.754,2.824c-1.372-0.929-2.274-2.386-4.848-2.062l-2.785,0.289l-1.504,1.254
	L128.215,56.266z M186.748,65.895c-0.922-0.676-4.274-5.602-5.642-7.032c-1.258-1.316-5.772-5.144-6.293-6.121
	c-1.69-3.164-2.297-4.976-4.978-7.441c-3.019-2.781-5.144-2.566-7.92-4.496c5.265,0,12.178,3.332,14.191,6.336l-2.021-0.317
	C174.184,47.281,185.929,56.067,186.748,65.895L186.748,65.895z M135.309,82.625c1.395-1.023,6.844-7.902,6.844-10.14v-0.758
	c0-4.895-0.047-11.164-3.801-12.168v-0.508l0.254,0.23l4.062-4.558l-0.273-0.094l-6.832-1.152c-3.145,0-7.395-0.571-8.965,1.188
	c-2.039,2.282,0.953,5.645,1.363,7.176c-1.39-0.371-4.308-4.289-4.308-5.828v-3.043c0-2.781,4.41-7.602,7.347-7.602h1.774
	c3.305,0,5.652,3.801,7.098,3.801h1.265c1.465,0,2.676-1.703,2.789-3.043h-3.8v1.778l-1.782-0.223
	c0.008-1.836,0.285-2.059,2.032-2.059h4.816c2.789,0,4.445,1.773,6.586,1.773c11.008,2.563,17.14,5.082,24.019,11.965
	c2.986,2.984,5.543,6.429,7.802,10.195c0.762,1.273,5.702,11.961,5.938,12.055c5.949-1.59,15.479-10.524,18.117-16.348
	c4.086-9.043,2.93-16.766,10.871-23.34c7.283-6.031,38.918-16.031,52.094-16.324c-2.301,1.598-7.371,3.023-10.697,5.27
	c-3.039,2.051-5.949,4.723-7.828,7.883c-3.301,5.567-9.6,13.567-17.457,14.219c0.521,0.707,1.832,0.762,3.039,0.762
	c3.033,0,5.479-1.535,7.35-2.789c0,7.718-7.686,13.687-15.707,13.687c0.697,2.617,7.098,2.281,10.641,2.281
	c-1.52,5.7-9.33,8.871-17.232,8.871c0.264,3.157,7.695,3.258,9.885,4.309c-0.775,2.891-5.443,5.828-9.375,5.828h-1.268
	c-2.896,0-4.389-1.359-6.336-1.519c0.283,3.371,4.746,6.371,7.857,7.093V92c-5.379,1.254-5.729,5.07-14.447,5.07h-17.734V93.27
	c0-1.614-2.186-3.805-3.801-3.805h-1.771c-0.928,0-1.949,1.34-2.027,2.281l-2.783-0.309c-1.28-0.102-1.385,1.015-2.543,1.324
	c-0.522-1.965-7.272-6.625-6.077,4.309h-20.527l0.312-2.781l-0.058-0.516c0-6.618-5.156-2.141-6.84-1.012
	c-0.723-0.531-0.973-1.5-2.535-1.271l-2.274,0.286c-0.277-1.047-1.488-2.313-2.539-2.313h-0.508c-2.515,0-3.886,1.395-4.625,3.23
	c-1.382,3.445,1.493,4.289-3.453,4.152c-2.715-0.078-13.562,0.395-14.98-0.285c-3.492,2.215-12.871-3.871-13.934-5.32L101,91.93
	l6.743-6.438l-0.559-0.589c-1.519,0.355-2.137,1.015-4.055,1.015h-1.265c-4.219,0-10.254-4.367-11.91-6.844
	c4.007,0,9.105-0.632,9.882-3.546c-7.257,0-14.519-3.457-15.964-8.872l2.781,0.309l2.793-0.055c1.609,0,3.203-0.734,3.547-2.027
	c-6.442,0-13.934-7.176-13.934-12.926c2.02,0.539,2.969,1.52,5.828,1.52h2.531c3.293,0-2.562-1.883-3.484-2.344
	c-2.051-1.023-3.57-1.664-5.484-2.879c-5.211-3.301-4.899-3.41-7.789-8.68c-4.211-7.68-16.953-11.824-18.715-14.23
	c2.672,0,25.191,5.574,28.578,6.644c8.941,2.833,18.887,4.618,24.969,10.254C119.258,55,105.235,68.188,135.309,82.625
	L135.309,82.625z M0,0.504l0.254,0.254c4.348,6.254,10.547,21.039,21.032,21.039h2.535l2.015-0.164L26,22.078l-5.98,3.012
	c-1.16,0.555-4.352,1.266-6.082,1.266l-1.797,0.156L6.59,25.598c2.344,4.43,10.758,10.465,18.243,9.629l5.82-0.586l0.008,1.094
	c0,0.871-1.024,2.425-1.52,2.789c-2.039,3.047-7.949,4.308-13.176,4.308c0.789,2.957,9,7.856,13.43,7.856h3.293
	c3.055,0,6.734-3.047,8.617-4.309l0.453,0.219l-2.988,5.359l-10.137,6.336c0.598,1.645,5.66,3.547,8.11,3.547h1.519
	c7.102,0,11.836-5.695,13.43-5.828l-0.508,5.066l-8.613,8.618c1.355,1.179,4.293,2.281,6.84,2.281
	c4.664,0,11.293-4.336,12.164-7.602h0.508l0.253,4.563l-3.8,9.883c0.207,0.781,0.492,1.015,1.519,1.015h2.028
	c4.894,0,8.488-7.047,9.628-7.351l0.25,3.55l-2.277,8.11c0.41,0.563,1.066,1.011,2.027,1.011h1.774l4.547-0.601l0.011,2.883
	l-1.265,4.816v0.508c0.957,0.223,1.586,0.508,2.785,0.508h0.762c2.07,0,2.59-1.219,3.801-2.027l0.89,5.598l-1.144-0.023h-4.055
	c0.258,0.964,7.496,10.425,8.723,12.059c1.71,2.277,3.628,3.449,2.804,6.789c-0.652,2.633-1.41,5.922-2.226,8.448
	c-1.207,3.754-8.285,31.083-8.289,33.536l8.871,6.078c0.41-0.109,7.379-4.059,8.695-4.735c2.996-1.538,6.281-2.62,9.481-3.952
	c4.23-1.759,16.261-5.337,21.351-5.759l-0.512,0.293l3.094,5.435l0.867-0.344l-0.914,2.473c1.477,0.344,4.59,2.289,6.043,3.078
	c3.113,1.694,3.606,1,4.582,4.543c0.586,2.117,3.696,2.77,5.356,3.772c3.531,2.142,3.437,0.095,7.058,0.013l0.274,3.801h14.186
	l0.255-4.309c3.349,1.773,1.547,2.508,5.969,0.398c1.617-0.77,5.039-2.293,6.699-2.68l0.056-3.691l10.436-4.965l0.039-0.293
	l-1.771-3.152l0.65,0.305l2.971-4.355l-0.471-0.321c4.229,0,17.504,4.747,21.104,6.267c3.561,1.5,6.18,2.694,9.346,4.336
	c1.58,0.816,8.291,4.969,8.83,5.113l-0.164-0.273l10.67-6.293l0.133,0.226c0-3.944-7.447-27.522-8.91-33.414
	c-0.68-2.741-1.379-5.394-2.162-8.226c-1.311-4.719-0.854-3.957,1.58-7.391c3.006-4.23,5.889-8.305,8.73-12.555l-5.414-0.047
	l1.361-2.743l0.307-1.253l0.455-0.012c0.285,0.707,0.752,0.758,1.773,0.758h1.266c1.889,0,3.518-0.691,4.307-1.773l-1.518-5.066
	l-0.283-2.281c1.279,0.101,2.543,1.265,4.336,1.265h1.012c1.553,0,3.385-0.363,3.803-1.519l-2.531-4.055
	c-0.379-0.547-0.508-0.84-0.508-1.777v-1.774c0-1.265,0.564-2.195,1.012-3.039c3.523,2.582,4.242,5.574,11.152,5.574h1.264v-0.761
	L262,69.192l0.326-2.274c2.121,0.578,3.051,4.555,10.828,4.555h2.785c1.361,0,4.93-0.293,5.318-1.27
	c-3.592-1.722-6.621-4.91-7.6-9.125l-1.443-3.738c3.943,2.461,6.051,5.262,12.59,5.262h0.764c2.305,0,9.43-2.446,8.865-3.801
	l-9.629-7.098l-1.693-2.949c1.957-0.055,4.547,1.934,8.793,1.934h1.264c4.443,0,15.051-5.516,14.193-7.602l-11.402-4.308
	l-2.49-3.141l0.207-0.156c10.971,0,21.057-2.508,23.818-10.137l-5.068,0.508l-2.293,0.101l-4.547-0.609l-6.406-2.906l0.07-0.895
	c5.709,0,12.369-4.023,15.504-6.797c2.029-1.797,3.572-3.761,4.979-6.172c0.654-1.128,1.408-2.402,1.895-3.687
	c0.291-0.785,1.01-4.629,1.188-2.606L323.068,0c-0.402,0.145-7.818,5.875-10.922,7.321c-3.721,1.73-9.527,3.457-13.807,4.695
	c-9.604,2.773-18.936,5.676-28.695,8.043c-16.814,4.082-44.68,8.824-56.801,16.945c-5.943,5.168-4.422,13.82-6.629,22.766
	c-1.389,5.64-7.113,15.941-12.121,17.277l-2.699,1.453l-0.594-2.465l-0.836-3.027l1.6-0.016l0.861-0.289l-4.346-12.914l-0.826,0.278
	h2.029c-1.564-6.7-11.724-17.43-18.5-19.008v-0.508l1.672-1.07l-3.697-1.465c-2.26-0.188-5.241-1.266-7.35-1.266h-6.078
	l-5.536,0.313l-0.039-0.821c-9.414,0-29.394,8.391-29.394,16.727v0.254c0,5.379,7.887,13.289,12.668,13.687
	c-1.172-2.222-3.293-3.855-3.293-7.351v-0.508c0-0.887,1.125-1.012,2.027-1.012h2.535c3.493,0,5.575,4.348,5.575,8.364v1.773
	c0,2.754-0.567,6.031-1.965,7.414c-0.321,0.316-4.742,4.152-4.879,4.246c-1.129-0.828-8.824-7.066-9.582-7.902
	c-2.797-3.082-4.211-7.176-5.633-11.602c-2.746-8.535-2.285-21.359-9.363-25.105l-2.532-1.012l-20.273-7.098l-1.519-0.507
	l-2.028-0.504l-1.519-0.508c-2.969-0.246-18.407-3.856-21.719-4.887c-6.457-2.008-14.731-3.492-21.457-5.152
	c-7.66-1.891-13.77-3.559-20.461-6.145C8.508,6.153,6.633,4.442,0,0V0.504z M129.989,49.422v1.266h1.773
	c0.414,0,0.762-0.153,0.762-0.508c0-0.59-0.422-1.012-1.016-1.012h-0.254C130.856,49.168,130.293,49.301,129.989,49.422
	L129.989,49.422z M129.989,49.422"/>
<path fill-rule="evenodd" clip-rule="evenodd" fill="#FFFFFF" d="M177.373,161.699c0-1.261-2.638-6.593-3.392-7.315l2.254,6.766
	c-3.297,0.309-3.125,3.382-4.724-0.688c-0.323-0.832-2.073-4.859-2.504-5.352c0.107,1.273,1.185,4.375,1.634,5.719
	c0.452,1.336,1.082,5.684,2.422,3.152C174.041,163.958,177.373,162.012,177.373,161.699L177.373,161.699z M160.043,153.348
	l-0.402-0.055l-2.258,13.438l8.84,0.039v-0.762l-1.168-8.594l-0.785-2.582l-0.074,6.359h0.509v3.805h-5.576l0.036-1.012
	L160.043,153.348z M147.727,160.18c0-1.438,1.477-3.68,1.52-5.578c-0.508,0.371-3.293,5.765-3.293,6.59
	c0,0.293,5.179,2.988,5.824,3.043l2.687-8.825l-0.281-0.104l-3,6.609C150.325,161.934,147.727,161.051,147.727,160.18
	L147.727,160.18z M147.727,160.18"/>
</svg>
