<?xml version="1.0" encoding="utf-8"?>
<!-- Generator: Adobe Illustrator 16.0.0, SVG Export Plug-In . SVG Version: 6.00 Build 0)  -->
<!DOCTYPE svg PUBLIC "-//W3C//DTD SVG 1.1//EN" "http://www.w3.org/Graphics/SVG/1.1/DTD/svg11.dtd">
<svg version="1.1" id="Layer_1" xmlns="http://www.w3.org/2000/svg" xmlns:xlink="http://www.w3.org/1999/xlink" x="0px" y="0px"
	 width="595.28px" height="841.89px" viewBox="0 0 595.28 841.89" enable-background="new 0 0 595.28 841.89" xml:space="preserve">
<g>
	<path fill-rule="evenodd" clip-rule="evenodd" fill="#FFFFFF" d="M288.641,258.139c89.457,0,161.969,72.554,161.969,162.043
		c0,89.5-72.512,162.058-161.969,162.058c-89.447,0-161.968-72.559-161.968-162.058
		C126.673,330.692,199.193,258.139,288.641,258.139L288.641,258.139z"/>
	<path fill-rule="evenodd" clip-rule="evenodd" fill="#010101" d="M288.641,263.87c86.284,0,156.236,69.995,156.236,156.312
		c0,86.326-69.952,156.316-156.236,156.316c-86.274,0-156.236-69.99-156.236-156.316C132.404,333.865,202.366,263.87,288.641,263.87
		L288.641,263.87z"/>
	<path fill-rule="evenodd" clip-rule="evenodd" fill="#FFFFFF" d="M288.641,279.753c77.492,0,140.363,62.88,140.363,140.429
		c0,77.535-62.871,140.406-140.363,140.406c-77.483,0-140.363-62.871-140.363-140.406
		C148.278,342.633,211.158,279.753,288.641,279.753L288.641,279.753z"/>
	<path fill-rule="evenodd" clip-rule="evenodd" fill="#ED2224" d="M288.641,285.051c74.584,0,135.047,60.523,135.047,135.131
		c0,74.617-60.463,135.108-135.047,135.108c-74.575,0-135.037-60.491-135.037-135.108
		C153.604,345.574,214.066,285.051,288.641,285.051L288.641,285.051z"/>
	<path fill-rule="evenodd" clip-rule="evenodd" fill="#FFFFFF" d="M288.641,309.663c60.996,0,110.477,49.5,110.477,110.519
		c0,61.029-49.48,110.519-110.477,110.519s-110.462-49.49-110.462-110.519C178.179,359.163,227.645,309.663,288.641,309.663
		L288.641,309.663z"/>
	<path fill-rule="evenodd" clip-rule="evenodd" fill="#FFFFFF" d="M190.756,369.81c-0.737-3.268-2.88-7.739-6.058-11.648
		c-1.289-1.53-3.994-2.176-5.585-3.442l-11.341-1.737l-29.693,20.443l-12.554,24.735c1.676,9.467,4.202,9.264,9.995,7.937
		c2.087-0.118,4.589-0.062,6.176-1.322l0.557,7.852l12.313,0.798l6.502-7.828l10.019,7.238l8.966-2.266
		c1.209-1.355,2.177-6.266,2.12-7.115L190.756,369.81z"/>
	<path fill-rule="evenodd" clip-rule="evenodd" fill="#FFFFFF" d="M396.729,405.598c2.464-4.027,8.318-9.325,14.967-11.676
		l12.256,3.234l21.369,29.037l3.815,27.503c-4.164,7.223-6.554,7.317-12.578,6.459c-2.379-1.908-3.493-4.23-4.381-5.827l-4.93,6.704
		l-10.528-2.407l-3.607-9.537l-11.794,3.569l-8.499-5.231c-0.377-0.765-0.698-2.71-0.973-5.175L396.729,405.598z"/>
	<path fill-rule="evenodd" clip-rule="evenodd" fill="#ED1C24" d="M298.197,363.194c-12.696-11.591-8.225-24.206-37.799-29.797
		l-17.729-1.322c-29.98-2.384-55.906,31.643-58.408,63.168c-1.969,24.858,18.489,50.444,33.513,68.026
		c8.145,9.557,15.434,16.506,24.896,24.74c10.765,9.32,18.584,12.229,30.751,19.972c0.765-1.86,16.553-3.824,20.666-5.09
		c7.554-2.389,12.606-4.239,19.367-6.95c13.91-5.552,22.455-12.379,34.099-19.669c21.313-13.323,40.34-35.477,43.06-69.967
		c2.767-28.111-5.137-52.497-46.119-55.731l-9.905-0.973C328.409,349.101,304.698,354.016,298.197,363.194L298.197,363.194z"/>
	<path fill-rule="evenodd" clip-rule="evenodd" fill="#010101" d="M298.022,364.781c10.878-9.297,21.303-14.708,36.185-13.532
		l9.292,0.737c25.6,2.03,47.11,26.024,45.118,51.203l-0.17,2.328c-2.739,34.494-21.285,55.43-42.598,68.753
		c-11.643,7.3-19.489,14.675-33.39,20.208c-6.789,2.7-11.265,5.23-18.814,7.611c-4.089,1.303-19.405,3.352-20.17,5.184
		c-12.167-7.705-18.838-10.944-29.599-20.293c-9.5-8.234-16.199-15.996-24.344-25.533c-10.67-12.531-35.065-42.403-33.423-63.375
		l0.236-3.092c2.498-31.554,29.514-64.051,59.522-61.671l12.408,1.005C277.092,335.782,288.141,350.811,298.022,364.781
		L298.022,364.781z M273.301,509.625c1.261-0.945,19.013-4.203,22.337-5.176c7.673-2.181,13.962-3.672,21.261-6.477
		c14.277-5.468,25.42-10.643,37.885-18.291c23.163-14.202,44.447-32.908,47.384-69.962l0.236-3.093
		c2.351-29.707-20.784-60.227-50.472-62.583l-5.411-0.416c-10.868-0.85-20.273,1.214-28.093,4.387
		c-11.113,4.527-13.267,9.792-20.174,13.645c-2.408-2.059-5.085-8.938-8.168-12.559c-4.32-4.995-5.028-6.265-10.85-10.259
		c-8.645-6.001-18.168-11.355-32.034-12.441c-33.281-2.648-62.79,24.056-65.35,56.497l-0.292,3.881
		c-2.791,35.382,13.107,55.472,29.391,74.754c6.524,7.733,19.579,19.65,27.87,26.157c5.265,4.107,10.288,7.988,16.015,11.614
		C258.4,501.541,269.628,509.322,273.301,509.625L273.301,509.625z M442.498,462.099c4.91,0.406,8.262-5.911,8.668-11.038
		l0.387-4.637c1.672-21.266-11.728-50.911-32.539-52.559l-3.088-0.231c-3.268-0.27-5.316,0.406-7.177,1.761
		c14.787,1.181,21.841,13.031,27.11,22.469c3.994,7.171,11.189,25.878,10.35,36.738c-0.151,1.964-2.031,4.523-4.24,4.344
		l-3.881-0.321c-3.021-0.236,0-1.171-4.523-1.907C435.236,459.682,437.795,461.74,442.498,462.099L442.498,462.099z
		 M392.347,444.865c-0.378,4.703,6.647,9.877,11.681,10.293c4.192,0.33,6.865-2.71,8.952-4.769
		c-0.35,6.147,3.862,13.589,9.829,14.061l3.079,0.235c7.526,0.624,7.932-10.358,5.118-15.212c-0.303,3.834-1.945,10.794-5.496,10.51
		c-7.639-0.623-9.641-7.97-12.285-12.672l0.321-3.891c-1.587,1.917-3.381,5.968-6.704,5.703l-3.881-0.283
		c-5.298-0.453-6.289-5.212-8.934-5.42C393.348,443.364,392.403,444.157,392.347,444.865L392.347,444.865z M431.534,422.982
		l-0.065,0.765c-0.199,2.828-1.105,2.644-1.785,5.179l-10.227-10.798c-0.359,4.382-1.416,9.235-5.411,8.942l-1.558-0.146
		c-6.875-0.533-5.231-6.997-10.293-7.823c0.038,5.991,3.088,11.937,9.179,12.441l0.765,0.057c4.995,0.382,6.497-3.055,9.018-5.534
		c0.652,3.627,3.561,7.3,7.961,7.649c9.943,0.793,7.762-17.526,0.708-18.673C430.836,417.363,431.799,419.545,431.534,422.982
		L431.534,422.982z M123.943,394.72l-0.297,3.881c-0.406,4.995,2.144,9.523,7.03,9.905c3.815,0.326,6.931,0.477,7.96-2.615
		l-6.232,0.415c-2.733,0.265-5.203-3.531-4.934-6.614c0.439-5.708,15.104-24.174,19.136-27.592
		c5.874-4.938,19.221-16.997,28.801-16.26c5.33,0.439,6.501,1.94,9.915,3.145c-2.503-4.027-9.788-7.025-16.587-7.56l-1.553-0.142
		c-9.882-0.765-22.753,8.381-27.781,14.084C135.379,369.923,124.563,387.16,123.943,394.72L123.943,394.72z M146.758,412.132
		l-3.857-0.302l1.681-11.582c-3.036,0.854-5.146,5.765-5.444,9.731c-0.789,10.028,16.61,10.411,20.401-1.497l1.563,0.118
		c0.557,3.031,3.64,5.731,7.318,6.029l3.111,0.26c4.584,0.358,9.263-3.409,9.972-7.819c-4.296,0.033-4.183,2.025-7.937,1.737
		l-6.208-0.5c-3.14-0.241-5.028-4.679-4.821-8.178C158.688,403.894,157.777,413.01,146.758,412.132L146.758,412.132z
		 M147.131,377.812l-0.293,3.881c-0.208,2.497,2.502,4.112,5.123,4.32l2.318,0.175c2.082,0.179,5.023-2.054,5.789-4.23l1.558,0.113
		c0.761,5.028,2.616,8.031,8.697,8.503c4.707,0.382,9.617-4.471,10.113-9.358c-3.848,0.708-4.821,4.32-9.698,3.938l-1.529-0.113
		c-5.817-0.467-6.785-6.199-3.787-9.825l-0.798-0.614l-12.313,6.732c-0.269-1.761-0.618-1.822-0.477-3.938l0.269-3.088
		c0.264-3.526,1.969-3.909,3.588-5.973C151.635,368.364,147.456,373.601,147.131,377.812L147.131,377.812z"/>
	<path fill-rule="evenodd" clip-rule="evenodd" fill="#010101" d="M112.825,328.251l0.765,0.061
		c3.059,0.231,10.528-13.706,24.433-12.913l0.118-1.529l-6.199-0.5C119.624,312.397,105.308,327.666,112.825,328.251
		L112.825,328.251z"/>
	<path fill-rule="evenodd" clip-rule="evenodd" fill="#010101" d="M108.155,357.543c-0.09,1.266,0.293,2.385,1.379,2.47
		c2.12,0.146,17.785-19.882,21.109-22.734c4.032-3.47,8.352-5.793,13.14-8.324c4.471-2.352,14.726-3.055,16.959-4.731
		c-14.99-1.176-24.4,2.323-33.564,8.144C120.794,336.424,108.92,348.044,108.155,357.543L108.155,357.543z"/>
	<path fill-rule="evenodd" clip-rule="evenodd" fill="#010101" d="M487.181,390.692l0.18-2.328
		c-3.031-4.089-2.238-6.766-7.535-11.676c-3.674-3.442-7.611-5.939-14.457-6.469c3.645,3.707,6.638,4.821,10.765,9.618
		c1.851,2.176,7.054,12.082,7.818,12.148C485.68,392.127,485.68,391.514,487.181,390.692L487.181,390.692z"/>
	<path fill-rule="evenodd" clip-rule="evenodd" fill="#010101" d="M476.775,423.426l2.436-1.355
		c1.795-22.474-16.572-48.172-38.187-49.881c2.03,2.091,9.472,6.062,13.021,9.145c3.673,3.183,7.063,8.003,9.622,12.03
		C467.342,399.134,475.009,422.042,476.775,423.426L476.775,423.426z"/>
	<path fill-rule="evenodd" clip-rule="evenodd" fill="#010101" d="M437.625,479.219c2.965-1.332,6.232-1.86,9.49-1.86
		c2.379,0,4.759,0.236,7.054,0.851c2.237,0.557,4.382,1.443,6.327,2.709h0.019c1.945,1.294,3.616,2.891,4.892,4.826
		c1.454,2.266,2.313,4.815,2.313,7.525c0,1.502-0.264,3.003-0.765,4.391c1.36,2.352,2.059,4.967,2.059,7.725
		c0,3.645-0.973,7.177-3.05,10.207v0.029c-2.125,3.059-5.062,5.24-8.508,6.563c-3.135,1.199-6.487,1.643-9.85,1.643
		c-3.398,0-6.808-0.528-9.962-1.879c-2.229-0.943-4.286-2.238-6.024-3.918c-0.377,0.594-0.821,1.151-1.322,1.68
		c-2.502,2.682-5.901,4.117-9.556,4.117c-3.116,0-6.024-1.029-8.338-3.002c-1.266,0.707-2.616,1.293-4.004,1.775
		c-2.616,0.877-5.345,1.227-8.083,1.227c-3.909,0-7.668-0.736-11.029-2.352c-2.2,1.559-4.778,2.352-7.555,2.352
		c-2.993,0-5.873-0.963-8.139-2.908c-2.295,1.879-5.146,2.908-8.169,2.908c-2.2,0-4.324-0.5-6.204-1.529
		c-1.879,1.001-3.966,1.529-6.109,1.529c-2.029,0-3.938-0.5-5.675-1.416c-2.587,0.973-5.325,1.416-8.093,1.416
		c-3.135,0-6.194-0.642-8.989-2.124c-0.793-0.406-1.558-0.878-2.257-1.397c-1.529,0.963-3.173,1.699-4.91,2.295
		c-2.597,0.877-5.326,1.227-8.055,1.227c-6.384,0-12.408-1.936-16.936-6.581c-0.231-0.245-0.472-0.511-0.67-0.746
		c-0.566,1.151-1.298,2.237-2.214,3.21c-2.493,2.682-5.907,4.117-9.546,4.117c-3.206,0-6.209-1.113-8.584-3.172
		c-0.68,0.434-1.378,0.82-2.12,1.199c-2.757,1.331-5.76,1.973-8.848,1.973c-1.822,0-3.616-0.197-5.377-0.68l-0.033-0.028
		c-0.382-0.085-0.755-0.198-1.114-0.321c-1.586,0.68-3.324,1.029-5.142,1.029c-1.738,0-3.409-0.33-4.938-0.963
		c-2.294,0.727-4.703,0.963-7.115,0.963c-3.532,0-7.054-0.68-10.052-2.644c-2.237-1.444-3.975-3.38-5.146-5.713
		c-0.59,1.567-1.435,2.975-2.649,4.239c-2.493,2.682-5.901,4.117-9.551,4.117c-2.115,0-4.112-0.472-5.939-1.416
		c-1.785,0.944-3.792,1.416-5.874,1.416c-2.03,0-3.942-0.5-5.642-1.416c-2.597,0.973-5.331,1.416-8.087,1.416
		c-3.149,0-6.232-0.642-9.023-2.124c-0.798-0.406-1.563-0.878-2.261-1.397c-1.53,0.963-3.173,1.699-4.887,2.295
		c-2.616,0.877-5.345,1.227-8.079,1.227c-4.703,0-9.207-1.057-13.055-3.465c-2.408,2.256-5.557,3.465-8.933,3.465
		c-3.413,0-6.289-1.113-8.498-3.002c-2.318,1.973-5.288,3.002-8.404,3.002c-8.026,0-13.111-6.119-13.111-13.824v-28.621
		c0-3.399,0.939-6.723,3.206-9.377c2.493-2.908,6.048-4.438,9.906-4.438c3.791,0,7.347,1.501,9.872,4.41
		c1.379,1.586,2.295,3.446,2.795,5.41c2.823,0.15,5.524,0.879,8.026,2.238c1.237,0.67,2.318,1.473,3.324,2.379
		c1.643-1.293,3.466-2.322,5.411-3.05c2.875-1.151,5.906-1.661,8.989-1.661c4.089,0,8.083,0.916,11.61,3.002
		c0.821,0.473,1.586,1.011,2.327,1.568c1.469-1.152,3.116-2.068,4.877-2.768c3.229-1.322,6.728-1.803,10.193-1.803
		c3.56,0,7.266,0.415,10.59,1.774c0.821,0.35,1.586,0.728,2.351,1.209c2.111-1.832,4.901-2.918,8.258-2.918
		c1.497,0,2.909,0.208,4.263,0.642c1.497-0.434,3.06-0.642,4.646-0.642c0.731,0,1.435,0.028,2.144,0.122
		c0.325-0.943,0.708-1.85,1.204-2.709c1.114-1.879,2.644-3.409,4.533-4.533l0.08-0.057l0.057-0.057
		c2.007-1.143,4.24-1.737,6.558-1.737c2.734,0,5.292,0.859,7.498,2.39c2.323-2.088,5.316-3.211,8.527-3.211
		c3.853,0,7.403,1.529,9.877,4.467c1.346,1.596,2.229,3.408,2.7,5.382c3.593,0.122,7.03,1.095,10.081,3.003
		c2.176-1.908,5.028-3.06,8.503-3.06c1.459,0,2.908,0.208,4.23,0.642c1.492-0.434,3.083-0.642,4.669-0.642
		c3.031,0,5.973,0.765,8.646,2.172c0.142,0.095,0.32,0.188,0.472,0.265c0.614-0.321,1.266-0.614,1.945-0.841
		c2.87-1.151,5.901-1.661,8.989-1.661c4.089,0,8.083,0.916,11.605,3.002c0.803,0.473,1.586,1.011,2.295,1.568
		c1.501-1.152,3.153-2.068,4.882-2.768c3.229-1.322,6.732-1.803,10.227-1.803c3.003,0,6.091,0.302,8.971,1.217
		c0.378-2.096,1.181-4.06,2.464-5.797c2.446-3.353,6.205-5.146,10.321-5.146c3.825,0,7.347,1.529,9.849,4.41l0.029,0.057
		c1.406,1.623,2.285,3.475,2.795,5.447c0.613-0.094,1.266-0.122,1.907-0.122c2.993,0,5.816,0.973,8.111,2.852
		c0.888-0.472,1.794-0.906,2.738-1.256c2.871-1.151,5.911-1.661,8.989-1.661c4.089,0,8.084,0.916,11.605,3.002
		c0.189,0.123,0.359,0.208,0.539,0.33c2.199-2.029,5.146-3.267,8.696-3.267c1.474,0,2.908,0.208,4.269,0.642
		c1.463-0.434,3.05-0.642,4.646-0.642C432.385,477.358,435.085,478,437.625,479.219L437.625,479.219z"/>
	<path fill-rule="evenodd" clip-rule="evenodd" fill="#FFFFFF" d="M437.474,484.895c0.643-0.444,1.322-0.803,2.03-1.125
		c2.38-1.086,4.986-1.491,7.611-1.491c1.945,0,3.909,0.198,5.826,0.671c1.699,0.443,3.381,1.123,4.872,2.086
		c1.36,0.916,2.588,2.03,3.466,3.418c0.973,1.436,1.529,3.051,1.529,4.816s-0.585,3.418-1.671,4.76
		c0.388,0.387,0.698,0.83,1.02,1.274c1.304,1.784,1.917,3.881,1.917,6.081c0,2.653-0.651,5.213-2.172,7.45l0,0
		c-1.529,2.229-3.701,3.786-6.204,4.759c-2.559,0.973-5.354,1.322-8.093,1.322c-2.729,0-5.485-0.406-8.017-1.501
		c-2.229-0.944-4.296-2.323-5.77-4.296c-1.341-1.814-2.162-3.91-2.162-6.205c0-2.029,0.784-3.908,2.229-5.316
		c0.065-0.094,0.142-0.15,0.235-0.245c-0.642-0.821-1.143-1.728-1.501-2.7c-1.001-0.057-1.992-0.359-2.908-0.643
		c-0.057-0.037-0.142-0.066-0.236-0.094c-0.17,0.642-0.265,1.35-0.321,1.973c-0.113,1.521-0.179,3.061-0.179,4.59v5.523
		c0,2.332-0.624,4.627-2.267,6.355c-1.549,1.672-3.673,2.559-5.968,2.559c-2.313,0-4.4-0.906-5.968-2.625l-0.02-0.019
		c-0.623-0.681-1.086-1.444-1.444-2.267c-0.472,0.473-0.963,0.906-1.501,1.322c-1.492,1.171-3.201,2.002-4.996,2.625
		c-2.086,0.699-4.296,0.963-6.496,0.963c-4.315,0-8.433-1.057-11.794-3.673c-0.255,0.435-0.576,0.85-0.935,1.228
		c-1.559,1.624-3.617,2.445-5.855,2.445c-1.992,0-3.899-0.642-5.316-2.125c-0.915-0.906-1.699-2.049-2.407-3.135l-0.028-0.066
		l-0.623-1c-0.35,1.416-1.029,2.738-2.115,3.824c-1.559,1.596-3.579,2.502-5.817,2.502c-2.351,0-4.551-0.906-6.118-2.7v-0.038
		c-0.02-0.019-0.057-0.019-0.057-0.057c-0.236,0.265-0.501,0.529-0.766,0.766c-1.529,1.293-3.381,2.029-5.373,2.029
		c-1.973,0-3.729-0.793-5.174-2.086c-0.529,0.264-1.115,0.528-1.672,0.793c-2.182,0.887-4.532,1.293-6.922,1.293
		c-2.313,0-4.607-0.472-6.723-1.558c-1.672-0.888-3.145-2.097-4.269-3.626c-0.52,0.595-1.114,1.123-1.757,1.596
		c-1.473,1.171-3.182,2.002-4.976,2.625c-2.087,0.699-4.287,0.963-6.487,0.963c-5.023,0-9.82-1.416-13.409-5.117
		c-3.494-3.589-4.905-8.291-4.905-13.268c0-0.643,0.023-1.284,0.085-1.974c-0.765-0.113-1.497-0.34-2.172-0.548
		c-0.057-0.037-0.151-0.066-0.241-0.094c-0.174,0.642-0.264,1.35-0.325,1.973c-0.137,1.521-0.175,3.061-0.175,4.59v5.523
		c0,2.332-0.614,4.627-2.257,6.355c-1.586,1.672-3.673,2.559-5.968,2.559c-2.328,0-4.415-0.906-6.001-2.625v-0.019
		c-0.789-0.878-1.355-1.889-1.705-2.975c-1.412,1.766-3.116,3.145-5.142,4.117c-2.087,1.029-4.353,1.501-6.705,1.501
		c-1.383,0-2.762-0.18-4.117-0.528c-0.973-0.265-1.874-0.585-2.733-1.029c-1.379,1.029-3.021,1.558-4.816,1.558
		c-1.705,0-3.329-0.5-4.646-1.473c-0.094,0.028-0.175,0.094-0.269,0.113c-2.167,1.096-4.726,1.359-7.139,1.359
		c-2.559,0-5.198-0.406-7.351-1.822c-2.087-1.379-3.522-3.324-4.174-5.732c-0.529-1.973-0.647-4.145-0.647-6.175v-7.177
		c-0.939,0.435-1.936,0.67-2.998,0.67c-1.082,0-2.229-0.349-3.258-0.67c-0.061-0.037-0.151-0.066-0.241-0.094
		c-0.142,0.642-0.26,1.35-0.316,1.973c-0.127,1.521-0.151,3.061-0.151,4.59v5.523c0,2.332-0.646,4.627-2.294,6.355
		c-1.563,1.672-3.674,2.559-5.968,2.559c-2.29,0-4.353-0.887-5.907-2.53c-0.174,0.151-0.358,0.321-0.533,0.501
		c-1.492,1.293-3.381,2.029-5.373,2.029c-1.969,0-3.734-0.793-5.18-2.086c-0.523,0.264-1.085,0.528-1.671,0.793
		c-2.177,0.887-4.528,1.293-6.879,1.293c-2.352,0-4.646-0.472-6.733-1.558c-1.699-0.888-3.172-2.097-4.296-3.626
		c-0.52,0.595-1.11,1.123-1.729,1.596c-1.501,1.171-3.206,2.002-5,2.625c-2.087,0.699-4.287,0.963-6.492,0.963
		c-5.028,0-9.821-1.416-13.404-5.117c-0.265-0.266-0.505-0.529-0.737-0.832c-0.349,1.209-0.916,2.333-1.761,3.268
		c-1.591,1.775-3.734,2.682-6.086,2.682c-5.269,0-8.177-3.909-8.177-8.914v-11.143c0-0.302-0.024-0.887-0.081-1.406
		c-0.061,0.075-0.151,0.17-0.184,0.283c-0.231,0.887-0.231,2.682-0.231,3.531v8.734c0,2.238-0.59,4.42-2.054,6.157
		c-1.596,1.851-3.796,2.757-6.176,2.757c-5.293,0-8.201-3.909-8.201-8.914v-28.621c0-2.219,0.557-4.429,2.025-6.166
		c1.558-1.822,3.768-2.738,6.176-2.738c2.379,0,4.58,0.878,6.143,2.71c1.497,1.737,2.087,3.938,2.087,6.194v1.209
		c1.086-0.198,2.176-0.312,3.291-0.312c2.384,0,4.703,0.519,6.823,1.671c2.115,1.143,3.786,2.852,4.967,4.967
		c0.118,0.208,0.231,0.444,0.35,0.643c0.472-0.727,1.029-1.407,1.619-2.049l0.028-0.029c1.643-1.766,3.668-3.097,5.906-3.975
		c2.295-0.879,4.736-1.294,7.205-1.294c3.206,0,6.351,0.681,9.117,2.323c1.969,1.143,3.64,2.653,4.934,4.447
		c0.208-0.359,0.439-0.68,0.708-1.029c1.497-2.002,3.612-3.361,5.907-4.297c2.62-1.095,5.528-1.444,8.342-1.444
		c2.885,0,6.001,0.293,8.702,1.407c2.063,0.859,3.796,2.182,5.062,3.918c1.091-3.087,3.555-5.259,7.436-5.259
		c1.497,0,2.932,0.349,4.146,1.048c1.463-0.736,3.083-1.048,4.764-1.048c2.229,0,4.343,0.558,6.289,1.587
		c0.028,0,0.062-0.039,0.085-0.039v-0.018c0-0.973,0-1.975,0.09-2.947c0.118-1.266,0.467-2.502,1.147-3.588
		c0.675-1.18,1.648-2.125,2.795-2.823l0.057-0.028l0.023-0.038c1.237-0.698,2.654-1.086,4.089-1.086c2.12,0,4.056,0.821,5.619,2.267
		c1.171,1.114,1.992,2.53,2.318,4.154c0.057,0.283,0.089,0.614,0.15,0.906c0.114-1.879,0.614-3.738,1.818-5.24l0.033-0.028
		c1.497-1.907,3.673-2.88,6.086-2.88c2.384,0,4.584,0.878,6.114,2.738c1.412,1.672,1.969,3.758,1.969,5.939v1.529
		c1.204-0.235,2.436-0.349,3.673-0.349c2.965,0,5.817,0.708,8.353,2.294c1.378,0.841,2.525,1.908,3.521,3.117
		c1.058-3.211,3.556-5.468,7.531-5.468c1.496,0,2.908,0.349,4.136,1.048c1.473-0.736,3.093-1.048,4.764-1.048
		c2.233,0,4.387,0.558,6.36,1.604c0.935,0.501,1.784,1.152,2.464,1.889c1.228-0.943,2.588-1.68,4.022-2.266
		c2.295-0.879,4.74-1.294,7.205-1.294c3.201,0,6.317,0.681,9.104,2.323c1.973,1.143,3.626,2.653,4.947,4.447
		c0.208-0.359,0.444-0.68,0.671-1.029c1.53-2.002,3.616-3.361,5.949-4.297c2.615-1.095,5.524-1.444,8.338-1.444
		c2.88,0,5.996,0.293,8.696,1.407c1.974,0.831,3.654,2.059,4.892,3.711v-5.439c0-2.238,0.463-4.447,1.823-6.26
		c1.491-2.088,3.786-3.154,6.345-3.154c2.39,0,4.552,0.916,6.138,2.738l0,0c1.53,1.766,2.088,4.004,2.088,6.299v3.691
		c0.537-0.52,1.086-1.02,1.68-1.436l0.029-0.027c1.35-1.002,2.975-1.464,4.646-1.464c2.059,0,3.966,0.728,5.438,2.144
		c0.794,0.727,1.379,1.615,1.795,2.559c1.529-1.529,3.371-2.682,5.41-3.475c2.285-0.879,4.731-1.294,7.195-1.294
		c3.211,0,6.346,0.681,9.113,2.323c1.596,0.935,2.975,2.059,4.154,3.418c0.991-3.305,3.522-5.675,7.573-5.675
		c1.501,0,2.946,0.349,4.146,1.048c1.473-0.736,3.088-1.048,4.769-1.048c2.229,0,4.372,0.558,6.346,1.604
		C436.473,484.186,437.002,484.507,437.474,484.895L437.474,484.895z M262.956,500.738c0,0.766,0.081,2.238,0.614,2.853
		c0.292,0.358,0.533,0.378,0.973,0.378c0.231,0,0.406-0.227,0.523-0.378c0.563-0.671,0.647-2.2,0.647-3.06
		c0-0.85-0.057-1.852-0.383-2.645l-0.023-0.027c-0.095-0.236-0.27-0.614-0.477-0.766l0,0c-0.057-0.057-0.208-0.057-0.288-0.057
		c-0.175,0-0.359,0.028-0.534,0.142c-0.264,0.18-0.495,0.595-0.613,0.888v0.028C263.037,498.889,262.956,499.889,262.956,500.738
		L262.956,500.738z"/>
	<path fill="#ED2224" d="M129.728,481.381v9.802c0.826-0.973,1.647-1.737,2.445-2.294c0.789-0.558,1.676-1.002,2.645-1.266
		c0.972-0.293,2.001-0.435,3.116-0.435c1.676,0,3.173,0.349,4.471,1.058c1.294,0.736,2.29,1.756,3.021,3.116
		c0.473,0.755,0.798,1.644,0.973,2.644c0.151,0.973,0.231,2.087,0.231,3.353v12.644c0,1.303-0.321,2.295-0.901,2.965
		c-0.624,0.689-1.417,1.039-2.413,1.039c-2.177,0-3.267-1.35-3.267-4.004v-11.143c0-2.115-0.288-3.738-0.935-4.854
		c-0.623-1.143-1.832-1.699-3.56-1.699c-1.181,0-2.233,0.312-3.173,0.991c-0.939,0.651-1.648,1.596-2.12,2.738
		c-0.349,0.973-0.533,2.729-0.533,5.231v8.734c0,1.303-0.288,2.267-0.878,2.965c-0.59,0.689-1.412,1.039-2.436,1.039
		c-2.177,0-3.268-1.35-3.268-4.004v-28.621c0-1.313,0.27-2.313,0.859-2.993c0.558-0.651,1.346-1.001,2.408-1.001
		c1.024,0,1.846,0.35,2.436,1.001C129.439,479.067,129.728,480.068,129.728,481.381L129.728,481.381z M171.531,502.212h-12.875
		c0,1.492,0.326,2.823,0.883,3.966c0.591,1.152,1.389,2.012,2.352,2.588c0.973,0.557,2.059,0.859,3.234,0.859
		c0.793,0,1.501-0.095,2.148-0.265c0.642-0.18,1.289-0.481,1.913-0.888c0.613-0.378,1.171-0.793,1.671-1.256
		c0.534-0.443,1.181-1.067,2.002-1.832c0.35-0.293,0.821-0.443,1.44-0.443c0.67,0,1.236,0.188,1.643,0.566
		c0.416,0.35,0.647,0.878,0.647,1.558c0,0.585-0.231,1.294-0.704,2.087c-0.477,0.793-1.18,1.559-2.12,2.295
		c-0.939,0.736-2.11,1.35-3.555,1.822c-1.407,0.5-3.06,0.736-4.906,0.736c-4.235,0-7.526-1.209-9.877-3.616
		c-2.355-2.408-3.526-5.713-3.526-9.858c0-1.936,0.292-3.73,0.883-5.41c0.581-1.682,1.435-3.079,2.526-4.297
		c1.114-1.172,2.469-2.088,4.112-2.729c1.62-0.614,3.442-0.944,5.411-0.944c2.583,0,4.792,0.539,6.615,1.625
		c1.851,1.086,3.234,2.502,4.146,4.201c0.907,1.738,1.378,3.504,1.378,5.26c0,1.682-0.472,2.738-1.436,3.239
		C174.585,501.977,173.264,502.212,171.531,502.212L171.531,502.212z M158.655,498.482h11.936c-0.142-2.275-0.765-3.947-1.823-5.062
		c-1.053-1.114-2.44-1.681-4.146-1.681c-1.671,0-2.998,0.566-4.056,1.681C159.51,494.563,158.863,496.244,158.655,498.482
		L158.655,498.482z M199.165,510.267c-1.586,1.237-3.116,2.181-4.617,2.795c-1.497,0.614-3.173,0.944-4.995,0.944
		c-1.705,0-3.206-0.35-4.472-1.001c-1.261-0.671-2.262-1.586-2.965-2.738c-0.675-1.143-1.029-2.38-1.029-3.702
		c0-1.793,0.557-3.361,1.7-4.617c1.147-1.266,2.734-2.125,4.74-2.559c0.406-0.085,1.435-0.33,3.116-0.652
		c1.643-0.349,3.055-0.642,4.263-0.934c1.171-0.293,2.432-0.624,3.82-1.039c-0.066-1.729-0.416-2.994-1.029-3.814
		c-0.623-0.832-1.912-1.209-3.857-1.209c-1.671,0-2.932,0.245-3.787,0.708c-0.859,0.472-1.553,1.143-2.177,2.087
		c-0.585,0.943-1.034,1.558-1.265,1.851c-0.265,0.302-0.789,0.444-1.61,0.444c-0.741,0-1.388-0.236-1.912-0.709
		c-0.557-0.472-0.821-1.086-0.821-1.822c0-1.18,0.406-2.295,1.228-3.381c0.821-1.113,2.12-2.002,3.857-2.71
		c1.728-0.698,3.881-1.058,6.487-1.058c2.885,0,5.179,0.33,6.823,1.029c1.647,0.68,2.828,1.766,3.498,3.239
		c0.708,1.464,1.058,3.437,1.058,5.883c0,1.558-0.023,2.88-0.023,3.938c0,1.086-0.038,2.295-0.038,3.626
		c0,1.228,0.208,2.521,0.624,3.844c0.41,1.35,0.618,2.238,0.618,2.615c0,0.68-0.326,1.303-0.973,1.832
		c-0.614,0.557-1.355,0.85-2.144,0.85c-0.685,0-1.355-0.33-2.002-0.963C200.605,512.42,199.93,511.504,199.165,510.267
		L199.165,510.267z M198.726,500.738c-0.944,0.35-2.351,0.737-4.202,1.125c-1.856,0.405-3.116,0.67-3.825,0.877
		c-0.708,0.18-1.378,0.529-2.025,1.086c-0.652,0.529-0.973,1.304-0.973,2.238c0,1.029,0.382,1.852,1.143,2.559
		c0.765,0.699,1.738,1.059,2.97,1.059c1.293,0,2.502-0.293,3.612-0.859c1.091-0.576,1.912-1.322,2.413-2.201
		c0.59-0.99,0.888-2.652,0.888-4.947V500.738z M218.424,504.479v5.523c0,1.322-0.302,2.332-0.949,3.003
		c-0.613,0.651-1.407,1.001-2.379,1.001c-0.935,0-1.733-0.35-2.351-1.039c-0.59-0.67-0.911-1.662-0.911-2.965v-18.375
		c0-2.947,1.086-4.438,3.206-4.438c1.114,0,1.879,0.349,2.379,1.058c0.473,0.67,0.737,1.699,0.798,3.05
		c0.789-1.351,1.587-2.38,2.408-3.05c0.845-0.709,1.936-1.058,3.324-1.058c1.402,0,2.733,0.349,4.056,1.058
		c1.289,0.67,1.936,1.586,1.936,2.729c0,0.803-0.265,1.474-0.821,2.002c-0.558,0.529-1.171,0.766-1.794,0.766
		c-0.26,0-0.826-0.151-1.766-0.444c-0.935-0.292-1.732-0.435-2.431-0.435c-0.973,0-1.771,0.256-2.384,0.766
		c-0.619,0.5-1.091,1.265-1.417,2.256c-0.349,1.011-0.581,2.182-0.704,3.561C218.504,500.834,218.424,502.505,218.424,504.479
		L218.424,504.479z M234.5,487.765h0.732v-3.956c0-1.068,0.023-1.889,0.089-2.503c0.062-0.595,0.203-1.124,0.467-1.567
		c0.265-0.435,0.623-0.784,1.124-1.086c0.463-0.293,0.996-0.406,1.61-0.406c0.822,0,1.586,0.293,2.271,0.935
		c0.439,0.415,0.727,0.916,0.845,1.53c0.118,0.595,0.174,1.473,0.174,2.559v4.495h2.413c0.944,0,1.643,0.245,2.148,0.688
		c0.5,0.436,0.731,0.992,0.731,1.7c0,0.878-0.35,1.501-1.053,1.851c-0.708,0.359-1.705,0.529-3.003,0.529h-1.237v12.125
		c0,1.029,0.033,1.813,0.123,2.369c0.062,0.566,0.26,1.011,0.557,1.36c0.326,0.358,0.85,0.528,1.558,0.528
		c0.382,0,0.911-0.094,1.558-0.207c0.642-0.151,1.175-0.208,1.53-0.208c0.557,0,1.024,0.208,1.473,0.623
		c0.406,0.444,0.614,0.973,0.614,1.587c0,1.057-0.59,1.879-1.737,2.445c-1.147,0.557-2.824,0.85-4.996,0.85
		c-2.059,0-3.612-0.35-4.679-1.058c-1.053-0.68-1.761-1.644-2.082-2.852c-0.326-1.237-0.5-2.861-0.5-4.91v-12.653h-0.878
		c-0.94,0-1.681-0.227-2.181-0.68c-0.496-0.435-0.728-1.029-0.728-1.7c0-0.708,0.265-1.265,0.789-1.7
		C232.763,488.01,233.495,487.765,234.5,487.765L234.5,487.765z M257.72,481.154v10.085c1.237-1.294,2.502-2.294,3.787-2.975
		c1.298-0.671,2.885-1.02,4.797-1.02c2.177,0,4.089,0.52,5.76,1.548c1.643,1.039,2.908,2.569,3.82,4.533
		c0.916,1.974,1.383,4.297,1.383,7.007c0,1.992-0.26,3.824-0.765,5.495c-0.524,1.652-1.232,3.117-2.205,4.325
		c-0.973,1.228-2.144,2.181-3.522,2.852c-1.388,0.651-2.885,1.001-4.561,1.001c-1.001,0-1.974-0.123-2.852-0.387
		c-0.883-0.236-1.647-0.558-2.295-0.936c-0.613-0.387-1.147-0.803-1.586-1.236c-0.439-0.416-1.024-1.029-1.761-1.86v0.651
		c0,1.237-0.292,2.182-0.883,2.805c-0.614,0.633-1.355,0.963-2.29,0.963c-0.916,0-1.681-0.33-2.205-0.963
		c-0.558-0.623-0.854-1.567-0.854-2.805v-28.781c0-1.332,0.264-2.361,0.821-3.041c0.533-0.68,1.298-1.029,2.238-1.029
		c1.029,0,1.818,0.321,2.351,0.973C257.456,479.029,257.72,479.945,257.72,481.154L257.72,481.154z M258.041,500.738
		c0,2.616,0.59,4.646,1.799,6.063c1.204,1.407,2.758,2.115,4.703,2.115c1.671,0,3.116-0.727,4.287-2.182
		c1.204-1.435,1.828-3.493,1.828-6.203c0-1.738-0.265-3.229-0.77-4.467c-0.5-1.266-1.208-2.238-2.11-2.908
		c-0.916-0.708-2.006-1.039-3.234-1.039c-1.237,0-2.352,0.331-3.348,1.039c-0.973,0.67-1.737,1.672-2.295,2.965
		C258.311,497.415,258.041,498.945,258.041,500.738L258.041,500.738z M289.08,504.479v5.523c0,1.322-0.316,2.332-0.939,3.003
		c-0.614,0.651-1.436,1.001-2.375,1.001c-0.973,0-1.738-0.35-2.352-1.039c-0.623-0.67-0.916-1.662-0.916-2.965v-18.375
		c0-2.947,1.058-4.438,3.211-4.438c1.086,0,1.874,0.349,2.351,1.058c0.496,0.67,0.765,1.699,0.822,3.05
		c0.765-1.351,1.586-2.38,2.408-3.05c0.826-0.709,1.94-1.058,3.319-1.058c1.389,0,2.734,0.349,4.027,1.058
		c1.299,0.67,1.945,1.586,1.945,2.729c0,0.803-0.265,1.474-0.831,2.002c-0.557,0.529-1.147,0.766-1.784,0.766
		c-0.241,0-0.822-0.151-1.738-0.444c-0.939-0.292-1.761-0.435-2.469-0.435c-0.973,0-1.761,0.256-2.352,0.766
		c-0.613,0.5-1.086,1.265-1.435,2.256c-0.326,1.011-0.567,2.182-0.708,3.561C289.141,500.834,289.08,502.505,289.08,504.479
		L289.08,504.479z M321.355,502.212h-12.898c0.027,1.492,0.32,2.823,0.906,3.966c0.595,1.152,1.388,2.012,2.352,2.588
		c0.973,0.557,2.067,0.859,3.21,0.859c0.793,0,1.53-0.095,2.182-0.265c0.632-0.18,1.284-0.481,1.869-0.888
		c0.624-0.378,1.181-0.793,1.71-1.256c0.5-0.443,1.18-1.067,2.001-1.832c0.35-0.293,0.821-0.443,1.436-0.443
		c0.68,0,1.237,0.188,1.644,0.566c0.415,0.35,0.651,0.878,0.651,1.558c0,0.585-0.265,1.294-0.708,2.087
		c-0.473,0.793-1.172,1.559-2.115,2.295c-0.944,0.736-2.115,1.35-3.561,1.822c-1.397,0.5-3.06,0.736-4.9,0.736
		c-4.24,0-7.526-1.209-9.877-3.616c-2.352-2.408-3.532-5.713-3.532-9.858c0-1.936,0.293-3.73,0.888-5.41
		c0.557-1.682,1.407-3.079,2.521-4.297c1.114-1.172,2.474-2.088,4.117-2.729c1.624-0.614,3.408-0.944,5.41-0.944
		c2.56,0,4.76,0.539,6.61,1.625c1.86,1.086,3.239,2.502,4.155,4.201c0.896,1.738,1.378,3.504,1.378,5.26
		c0,1.682-0.481,2.738-1.444,3.239C324.415,501.977,323.064,502.212,321.355,502.212L321.355,502.212z M308.457,498.482h11.964
		c-0.142-2.275-0.765-3.947-1.823-5.062c-1.057-1.114-2.445-1.681-4.174-1.681c-1.652,0-2.974,0.566-4.031,1.681
		C309.344,494.563,308.692,496.244,308.457,498.482L308.457,498.482z M348.994,510.267c-1.586,1.237-3.145,2.181-4.617,2.795
		c-1.501,0.614-3.173,0.944-4.995,0.944c-1.7,0-3.211-0.35-4.467-1.001c-1.294-0.671-2.266-1.586-2.974-2.738
		c-0.671-1.143-1.029-2.38-1.029-3.702c0-1.793,0.557-3.361,1.709-4.617c1.143-1.266,2.71-2.125,4.73-2.559
		c0.406-0.085,1.436-0.33,3.116-0.652c1.644-0.349,3.06-0.642,4.23-0.934c1.181-0.293,2.474-0.624,3.862-1.039
		c-0.076-1.729-0.416-2.994-1.039-3.814c-0.643-0.832-1.907-1.209-3.853-1.209c-1.671,0-2.937,0.245-3.786,0.708
		c-0.859,0.472-1.568,1.143-2.182,2.087c-0.586,0.943-1.029,1.558-1.266,1.851c-0.265,0.302-0.783,0.444-1.615,0.444
		c-0.736,0-1.378-0.236-1.907-0.709c-0.566-0.472-0.821-1.086-0.821-1.822c0-1.18,0.406-2.295,1.228-3.381
		c0.831-1.113,2.125-2.002,3.862-2.71c1.729-0.698,3.871-1.058,6.487-1.058c2.88,0,5.175,0.33,6.827,1.029
		c1.643,0.68,2.823,1.766,3.494,3.239c0.708,1.464,1.029,3.437,1.029,5.883c0,1.558,0,2.88,0,3.938
		c-0.029,1.086-0.029,2.295-0.029,3.626c0,1.228,0.208,2.521,0.614,3.844c0.415,1.35,0.585,2.238,0.585,2.615
		c0,0.68-0.292,1.303-0.935,1.832c-0.613,0.557-1.359,0.85-2.144,0.85c-0.68,0-1.359-0.33-2.002-0.963
		C350.43,512.42,349.731,511.504,348.994,510.267L348.994,510.267z M348.561,500.738c-0.954,0.35-2.361,0.737-4.212,1.125
		c-1.851,0.405-3.116,0.67-3.824,0.877c-0.698,0.18-1.379,0.529-2.021,1.086c-0.652,0.529-0.973,1.304-0.973,2.238
		c0,1.029,0.377,1.852,1.143,2.559c0.736,0.699,1.737,1.059,2.965,1.059c1.303,0,2.502-0.293,3.598-0.859
		c1.104-0.576,1.907-1.322,2.427-2.201c0.595-0.99,0.897-2.652,0.897-4.947V500.738z M378.126,510.975l-5.817-9.565l-3.56,3.39
		v5.241c0,1.265-0.358,2.257-1.001,2.927c-0.68,0.689-1.445,1.039-2.323,1.039c-1.001,0-1.794-0.35-2.389-1.039
		c-0.576-0.67-0.878-1.662-0.878-2.965v-28.111c0-1.473,0.302-2.587,0.859-3.352c0.557-0.766,1.378-1.152,2.407-1.152
		s1.823,0.35,2.408,1.029c0.614,0.708,0.916,1.737,0.916,3.098v15.958l7.403-7.763c0.916-0.973,1.624-1.643,2.087-2.002
		c0.5-0.349,1.086-0.519,1.766-0.519c0.821,0,1.501,0.255,2.059,0.784c0.558,0.537,0.821,1.18,0.821,1.973
		c0,0.973-0.906,2.238-2.672,3.854l-3.504,3.21l6.762,10.642c0.5,0.794,0.85,1.379,1.058,1.795c0.245,0.406,0.321,0.793,0.321,1.171
		c0,1.038-0.284,1.86-0.841,2.483c-0.566,0.576-1.331,0.906-2.276,0.906c-0.783,0-1.406-0.207-1.851-0.651
		C379.447,512.91,378.891,512.127,378.126,510.975L378.126,510.975z M406.549,502.212h-12.88c0,1.492,0.33,2.823,0.888,3.966
		c0.585,1.152,1.378,2.012,2.351,2.588c0.964,0.557,2.059,0.859,3.239,0.859c0.783,0,1.492-0.095,2.144-0.265
		c0.642-0.18,1.284-0.481,1.907-0.888c0.613-0.378,1.171-0.793,1.672-1.256c0.528-0.443,1.18-1.067,2.002-1.832
		c0.349-0.293,0.821-0.443,1.435-0.443c0.689,0,1.247,0.188,1.681,0.566c0.406,0.35,0.614,0.878,0.614,1.558
		c0,0.585-0.227,1.294-0.708,2.087c-0.463,0.793-1.171,1.559-2.105,2.295c-0.945,0.736-2.115,1.35-3.561,1.822
		c-1.407,0.5-3.06,0.736-4.91,0.736c-4.24,0-7.525-1.209-9.877-3.616c-2.352-2.408-3.522-5.713-3.522-9.858
		c0-1.936,0.293-3.73,0.878-5.41c0.586-1.682,1.436-3.079,2.531-4.297c1.114-1.172,2.465-2.088,4.107-2.729
		c1.624-0.614,3.438-0.944,5.41-0.944c2.598,0,4.797,0.539,6.62,1.625c1.851,1.086,3.229,2.502,4.146,4.201
		c0.906,1.738,1.379,3.504,1.379,5.26c0,1.682-0.473,2.738-1.417,3.239C409.608,501.977,408.276,502.212,406.549,502.212
		L406.549,502.212z M393.669,498.482h11.944c-0.15-2.275-0.765-3.947-1.831-5.062c-1.058-1.114-2.437-1.681-4.146-1.681
		c-1.644,0-2.994,0.566-4.051,1.681C394.527,494.563,393.877,496.244,393.669,498.482L393.669,498.482z M424.065,504.479v5.523
		c0,1.322-0.284,2.332-0.936,3.003c-0.613,0.651-1.416,1.001-2.389,1.001c-0.963,0-1.728-0.35-2.352-1.039
		c-0.613-0.67-0.906-1.662-0.906-2.965v-18.375c0-2.947,1.058-4.438,3.201-4.438c1.124,0,1.889,0.349,2.389,1.058
		c0.463,0.67,0.728,1.699,0.784,3.05c0.803-1.351,1.586-2.38,2.417-3.05c0.851-0.709,1.937-1.058,3.324-1.058
		c1.379,0,2.729,0.349,4.022,1.058c1.322,0.67,1.974,1.586,1.974,2.729c0,0.803-0.265,1.474-0.859,2.002
		c-0.528,0.529-1.143,0.766-1.794,0.766c-0.227,0-0.821-0.151-1.729-0.444c-0.943-0.292-1.766-0.435-2.474-0.435
		c-0.944,0-1.728,0.256-2.342,0.766c-0.623,0.5-1.096,1.265-1.444,2.256c-0.331,1.011-0.558,2.182-0.681,3.561
		C424.122,500.834,424.065,502.505,424.065,504.479L424.065,504.479z M459.174,505.385c0,1.832-0.444,3.381-1.332,4.674
		c-0.888,1.303-2.172,2.275-3.909,2.946c-1.737,0.651-3.843,1.001-6.327,1.001c-2.351,0-4.399-0.387-6.08-1.096
		c-1.7-0.727-2.938-1.643-3.73-2.729c-0.821-1.058-1.199-2.182-1.199-3.268c0-0.708,0.227-1.35,0.765-1.851
		c0.491-0.528,1.171-0.765,1.937-0.765c0.698,0,1.236,0.15,1.614,0.5c0.35,0.331,0.708,0.793,1.058,1.407
		c0.68,1.181,1.473,2.059,2.408,2.653c0.943,0.586,2.237,0.85,3.853,0.85c1.321,0,2.417-0.292,3.258-0.887
		c0.859-0.576,1.265-1.256,1.265-1.992c0-1.182-0.434-2.002-1.321-2.531c-0.878-0.529-2.313-1.058-4.315-1.529
		c-2.267-0.558-4.117-1.152-5.553-1.795c-1.416-0.613-2.559-1.406-3.418-2.436c-0.85-1.011-1.284-2.267-1.284-3.74
		c0-1.321,0.405-2.559,1.199-3.729c0.765-1.181,1.936-2.124,3.466-2.823c1.566-0.709,3.418-1.058,5.59-1.058
		c1.699,0,3.229,0.17,4.58,0.519c1.359,0.359,2.502,0.859,3.418,1.445c0.906,0.596,1.576,1.266,2.049,1.974
		c0.5,0.728,0.746,1.436,0.746,2.144c0,0.736-0.265,1.351-0.765,1.852c-0.511,0.471-1.237,0.707-2.182,0.707
		c-0.68,0-1.237-0.179-1.7-0.557c-0.51-0.378-1.028-0.973-1.643-1.737c-0.51-0.651-1.096-1.171-1.775-1.549
		c-0.67-0.396-1.586-0.595-2.729-0.595c-1.209,0-2.21,0.264-2.975,0.765c-0.784,0.501-1.199,1.143-1.199,1.88
		c0,0.707,0.293,1.265,0.878,1.736c0.595,0.416,1.36,0.793,2.352,1.086c0.973,0.293,2.332,0.652,4.061,1.059
		c2.021,0.5,3.701,1.086,4.995,1.793c1.293,0.681,2.266,1.502,2.937,2.446C458.843,503.09,459.174,504.157,459.174,505.385
		L459.174,505.385z"/>
	<path fill-rule="evenodd" clip-rule="evenodd" fill="#FFFFFF" d="M291.582,405.631c1.058-2.998,2.144-5.996,3.234-8.976
		c1.063-2.998,2.144-5.996,3.206-9.022c-0.09,0-0.175,0-0.265,0c-0.883,2.436-1.737,4.877-2.62,7.29c-7.762,0-15.52,0-23.31,0
		c0.883-2.413,1.737-4.854,2.62-7.29c-0.439,0-0.854,0-1.298,0c-1.643,4.646-3.324,9.263-4.996,13.909
		c-1.643,4.646-3.324,9.268-5,13.914c0.449,0,0.854,0,1.294,0c1.181-3.268,2.356-6.534,3.536-9.825
		C275.86,405.631,283.707,405.631,291.582,405.631L291.582,405.631z M280.647,436.863c-6.119,0-12.224,0-18.376,0
		c-6.104,0-12.257,0-18.371,0c-0.023,0-0.057,0-0.085,0c-4.263-0.175-7.205-2.088-8.56-5.529c-1.228-3.149-1.228-6.704,0.184-10.646
		c0.231-0.586,0.292-0.704,0.439-0.968c0.175-0.501,0.175-0.501,0.444-0.94c2.29-6.417,4.613-12.823,6.903-19.24
		c2.328-6.407,4.613-12.79,6.94-19.202c0.09-0.175,0.175-0.326,0.265-0.5c1.969-3.234,4.471-6.322,7.762-8.646
		c2.11-1.529,4.349-2.62,6.615-3.385c0.142-0.383,0.292-0.765,0.439-1.176c11.785,0,23.636,0,35.42,0c11.813,0,23.636,0,35.448,0
		c-1.265,3.56-2.521,7.087-3.786,10.614c-1.266,3.532-2.531,7.063-3.787,10.585c-1.473,0-2.918,0-4.391,0
		c-2.03,5.685-4.079,11.388-6.109,17.063c8.14,0,16.279,0,24.457,0c-1.907,5.326-3.824,10.642-5.703,15.968
		c-1.908,5.33-3.824,10.68-5.732,16.001c-8.413,0-16.817,0-25.193,0C297.465,436.863,289.056,436.863,280.647,436.863
		L280.647,436.863z"/>
	<path fill="#010101" d="M267.923,370.867c5.26,0,10.548,0,15.817,0c5.283,0,10.576,0,15.835,0c-1.171,3.295-2.351,6.619-3.555,9.91
		c-1.171,3.324-2.375,6.614-3.556,9.938c-4.972,0-9.967,0-14.9,0c0.845-2.437,1.728-4.854,2.615-7.29c-3.229,0-6.473,0-9.702,0
		c-2.182,6.058-4.349,12.087-6.525,18.116c-2.144,6.024-4.32,12.082-6.496,18.116c3.229,0,6.463,0,9.702,0
		c1.171-3.263,2.352-6.53,3.527-9.797c5.142,0,10.32,0,15.462,0c-1.355,3.796-2.734,7.587-4.089,11.383
		c-1.355,3.791-2.734,7.621-4.088,11.412c-5.411,0-10.846,0-16.223,0c-5.406,0-10.85,0-16.251,0
		c-3.002-0.118-5.004-1.412-5.977-3.881c-0.963-2.47-0.939-5.142,0.127-8.088c0.023-0.057,0.057-0.18,0.175-0.321
		c0.08-0.151,0.142-0.302,0.175-0.416c0,0,0-0.023,0.023-0.057c0-0.038,0-0.038,0-0.038c0.066-0.137,0.123-0.288,0.208-0.43
		c0.09-0.151,0.151-0.265,0.151-0.326c2.318-6.378,4.608-12.762,6.903-19.145c2.294-6.383,4.589-12.762,6.884-19.145
		c1.732-2.856,3.668-5.062,5.85-6.62c2.177-1.529,4.792-2.644,7.875-3.234C267.89,370.924,267.89,370.896,267.923,370.867
		L267.923,370.867z M303.877,370.867c4.4,0,8.838,0,13.248,0c4.438,0,8.848,0,13.286,0c-1.53,4.235-3.05,8.498-4.58,12.762
		c-1.444,0-2.908,0-4.353,0c-2.172,5.996-4.315,11.997-6.469,17.998c-2.144,6.001-4.287,12.03-6.431,18.031c2.578,0,5.203,0,7.819,0
		c1.265-3.499,2.521-7.03,3.786-10.562c5.524,0,11.058,0,16.581,0c-1.416,3.938-2.795,7.852-4.211,11.766
		c-1.407,3.942-2.785,7.856-4.202,11.794c-7.762,0-15.486,0-23.248,0c-7.729,0-15.491,0-23.22,0
		c1.553-4.354,3.116-8.678,4.669-12.998c1.379,0,2.795,0,4.174,0c2.177-6.034,4.354-12.092,6.53-18.116
		c2.143-6.029,4.325-12.059,6.468-18.116c-1.436,0-2.908,0-4.349,0C300.874,379.247,302.366,375.041,303.877,370.867
		L303.877,370.867z"/>
</g>
</svg>
