<?xml version="1.0" encoding="utf-8"?>
<!-- Generator: Adobe Illustrator 16.0.0, SVG Export Plug-In . SVG Version: 6.00 Build 0)  -->
<!DOCTYPE svg PUBLIC "-//W3C//DTD SVG 1.1//EN" "http://www.w3.org/Graphics/SVG/1.1/DTD/svg11.dtd">
<svg version="1.1" id="Layer_1" xmlns="http://www.w3.org/2000/svg" xmlns:xlink="http://www.w3.org/1999/xlink" x="0px" y="0px"
	 width="595.28px" height="841.89px" viewBox="0 0 595.28 841.89" enable-background="new 0 0 595.28 841.89" xml:space="preserve">
<g>
	<g>
		<g>
			<path fill-rule="evenodd" clip-rule="evenodd" fill="#051732" d="M296.333,688.043c-1.689,0-3.372-0.509-5.294-1.602
				c-43.094-24.482-79.032-55.091-106.816-90.978c-27.991-36.154-48.486-78.673-60.917-126.375
				c-8.052-30.899-11.311-64.261-9.684-99.155c1.245-26.726,5.9-53.999,13.837-81.061c0.365-1.247,0.559-2.511,0.746-3.733
				c0.189-1.232,0.368-2.4,0.709-3.452c0.421-19.388,0.316-54.485,0.231-82.708c-0.029-9.704-0.056-18.464-0.056-25.266v-1.013
				l0.958-0.328c2.166-0.742,3.997-1.102,5.598-1.102c5.747,0,7.419,4.587,8.297,9.074c4.517,23.106,22.48,38.105,45.764,38.213
				l0.225,0c22.073,0,40.483-15.458,45.811-38.465c0.537-2.314,2.57-4.025,4.537-5.68c0.836-0.704,1.626-1.368,2.277-2.053
				l1.093-1.15l1.02,1.216c0.549,0.655,1.218,1.298,1.926,1.979c1.678,1.613,3.413,3.282,3.854,5.446
				c4.95,24.204,22.208,38.884,46.165,39.268c0.265,0.004,0.528,0.006,0.792,0.006c22.313-0.001,40.934-15.414,46.337-38.354
				c0.515-2.187,2.174-3.911,3.778-5.579c0.69-0.717,1.342-1.395,1.886-2.087l1.138-1.447l1.108,1.47
				c0.518,0.687,1.134,1.359,1.785,2.071c1.517,1.654,3.084,3.365,3.596,5.506c5.178,21.627,20.693,36.366,40.492,38.466
				c2.03,0.215,4.068,0.324,6.06,0.324c19.547-0.001,36.042-10.5,44.124-28.085c0.816-1.778,1.256-3.751,1.721-5.84
				c0.486-2.186,0.99-4.446,1.97-6.532c0.863-1.84,2.669-3.016,4.416-4.153c0.716-0.466,1.392-0.906,1.979-1.375l1.181-0.941
				l0.865,1.237c0.391,0.56,0.891,1.13,1.42,1.734c1.313,1.5,2.672,3.05,2.803,4.945c0.391,5.678,0.342,11.455,0.296,17.041
				c-0.015,1.798-0.03,3.596-0.031,5.393l-0.027,26.539c-0.021,20.072-0.047,43.923-0.053,55.226l-0.003,1.364
				c0.15,0.331,0.261,0.623,0.342,0.902c9.048,30.683,13.747,59.078,14.364,86.801c0.104,4.614,0.076,9.298,0.049,13.828
				c-0.013,2.102-0.025,4.203-0.025,6.304c-2.456,86.802-33.234,162.732-91.479,225.725c-24.22,26.192-53.177,48.716-86.066,66.946
				C299.596,687.569,297.977,688.043,296.333,688.043C296.333,688.043,296.333,688.043,296.333,688.043z"/>
			<path fill="#FFFFFF" d="M135.645,172.688c4.358,0,5.968,3.136,6.906,7.929c4.652,23.794,23.353,39.249,47.148,39.358
				c0.078,0,0.154,0,0.231,0c22.995,0,41.722-15.943,47.192-39.563c0.629-2.713,4.234-4.734,6.46-7.076
				c1.89,2.253,4.961,4.265,5.478,6.798c5.028,24.585,22.934,40.007,47.53,40.401c0.273,0.004,0.543,0.006,0.815,0.006
				c23.152,0,42.162-15.858,47.718-39.446c0.623-2.649,3.545-4.757,5.398-7.115c1.764,2.339,4.51,4.443,5.135,7.054
				c5.291,22.101,21.182,37.367,41.721,39.545c2.099,0.222,4.168,0.332,6.209,0.332c20.002,0,36.973-10.548,45.412-28.911
				c1.775-3.869,1.877-8.512,3.686-12.361c1.004-2.141,3.934-3.377,5.996-5.022c1.387,1.983,3.828,3.896,3.971,5.965
				c0.51,7.416,0.266,14.885,0.262,22.334c-0.016,17.373-0.072,64.393-0.08,81.766c0,0.59-0.002,1.144-0.004,1.682
				c0.164,0.333,0.307,0.662,0.398,0.979c8.326,28.235,13.652,56.949,14.309,86.438c0.15,6.697,0.023,13.4,0.023,20.1
				c-2.439,86.188-32.443,161.322-91.104,224.763c-24.896,26.924-53.66,48.902-85.713,66.669c-1.597,0.885-3.012,1.313-4.409,1.313
				c-1.488,0-2.955-0.485-4.594-1.417c-85.945-48.825-142.089-120.65-167.062-216.478c-8.436-32.37-11.194-65.396-9.64-98.732
				c1.278-27.435,6.041-54.333,13.781-80.728c0.791-2.697,0.819-5.385,1.507-7.336c0.576-26.092,0.181-81.863,0.181-108.222
				C132.551,173.014,134.24,172.688,135.645,172.688 M243.715,169.083l-2.187,2.301c-0.596,0.627-1.356,1.267-2.162,1.944
				c-2.045,1.72-4.362,3.67-5.005,6.444c-5.176,22.352-23.031,37.369-44.431,37.369l-0.218,0
				c-22.578-0.104-39.998-14.654-44.379-37.068c-0.547-2.795-2-10.218-9.688-10.219l0,0c-1.76,0-3.741,0.385-6.057,1.179
				l-1.916,0.656v2.025c0,6.805,0.025,15.362,0.055,25.27c0.084,28.118,0.189,63.061-0.227,82.472
				c-0.334,1.098-0.511,2.254-0.697,3.47c-0.18,1.176-0.367,2.393-0.706,3.549c-7.968,27.17-12.642,54.555-13.893,81.394
				c-1.633,35.037,1.64,68.541,9.729,99.579c12.48,47.889,33.06,90.579,61.168,126.885c27.899,36.036,63.979,66.768,107.237,91.343
				c2.145,1.219,4.049,1.786,5.995,1.786c1.868,0,3.76-0.545,5.783-1.667c33.022-18.305,62.099-40.922,86.42-67.224
				c29.328-31.718,51.931-66.948,67.182-104.714c15.145-37.503,23.446-78.514,24.675-121.894l0.001-0.04v-0.04
				c0-2.098,0.012-4.196,0.024-6.294c0.027-4.54,0.055-9.234-0.049-13.869c-0.62-27.85-5.338-56.366-14.424-87.177
				c-0.072-0.25-0.164-0.509-0.28-0.787c0.001-0.347,0.002-0.702,0.002-1.072c0.005-11.277,0.03-35.051,0.052-55.095l0.028-26.668
				c0.001-1.793,0.016-3.587,0.03-5.381c0.047-5.613,0.095-11.418-0.299-17.15c-0.164-2.374-1.751-4.185-3.15-5.783
				c-0.503-0.574-0.979-1.116-1.325-1.612l-1.73-2.475l-2.36,1.883c-0.534,0.426-1.183,0.849-1.869,1.295
				c-1.824,1.188-3.891,2.533-4.926,4.74c-1.046,2.226-1.566,4.563-2.07,6.825c-0.448,2.014-0.872,3.916-1.625,5.558
				c-7.845,17.068-23.858,27.259-42.836,27.259c-1.941,0-3.931-0.106-5.91-0.316c-19.185-2.034-34.229-16.359-39.263-37.386
				c-0.598-2.498-2.367-4.429-3.929-6.134c-0.629-0.686-1.223-1.334-1.699-1.967l-2.217-2.94l-2.275,2.896
				c-0.5,0.636-1.128,1.289-1.793,1.979c-1.656,1.722-3.533,3.673-4.137,6.238c-5.249,22.286-23.316,37.26-44.958,37.26
				c-0.256,0-0.512-0.002-0.77-0.006c-23.244-0.372-39.991-14.628-44.798-38.135c-0.529-2.595-2.511-4.501-4.26-6.183
				c-0.68-0.654-1.323-1.272-1.823-1.869L243.715,169.083L243.715,169.083z"/>
		</g>
		<path fill-rule="evenodd" clip-rule="evenodd" fill="#FFFFFF" d="M239.628,393.523c-3.537,10.727-6.953,21.084-10.369,31.442
			c21.837-27.208,43.746-54.009,70.434-76.336c3.287,3.824,6.344,7.379,9.4,10.935c0.438-0.268,0.877-0.535,1.316-0.802
			c-4.637-11.691-6.766-23.754-5.363-36.217c0.424-3.765,1.764-7.427,2.947-12.203c27.188,26.228,57.27,48.305,75.357,81.875
			c-0.672-3.455-1.197-6.946-2.057-10.354c-0.893-3.545-2.107-7.009-3.182-10.508c0.373-0.28,0.744-0.561,1.117-0.841
			c4.131,4.573,8.555,8.923,12.305,13.79c3.162,4.102,5.871,8.646,8.135,13.308c1.129,2.326,0.803,5.355,1.152,8.065
			c0.367,2.847,0.141,5.957,1.24,8.489c4.852,11.163,10.088,22.16,15.189,33.216c0.371,0.806,0.559,1.832,1.17,2.372
			c5.656,4.984,4.527,9.838,0.719,15.545c-2.135,3.201-2.404,7.602-3.779,11.365c-2.789,7.647-6.945,8.69-12.545,2.79
			c-3.879-4.088-6.924-8.953-10.627-13.224c-4.32-4.984-8.953-9.698-13.451-14.53c-0.328,0.309-0.654,0.616-0.98,0.925
			c0.18,1.994,1.102,4.359,0.34,5.885c-0.818,1.64-3.238,2.461-4.912,3.701c-1.078,0.797-2.154,1.624-3.088,2.577
			c-3.998,4.081-2.988,8.504,2.461,10.245c4.387,1.402,8.988,2.187,13.285,3.8c3.279,1.231,6.375,3.122,9.279,5.117
			c2.227,1.53,2.381,3.403-0.689,4.468c-4.891,1.694-8.98,2.219-14.57-0.278c-8.648-3.86-13.191-10.244-16.859-17.946
			c-0.838-1.76-0.682-4.367-0.123-6.342c1.201-4.251,2.961-8.344,4.572-12.719c-0.654-0.076-1.111-0.28-1.414-0.143
			c-6.506,2.938-6.451,2.891-11.799-2.185c-3.213-3.051-6.617-5.899-10.578-9.406c11.197-5.54,19.76-11.729,25.248-21.59
			c-17.383,11.602-35.818,19.388-55.541,7.487c-20.124-12.141-21.394-32.026-17.829-52.88c-0.406-0.115-0.812-0.23-1.218-0.346
			c-1.662,5.9-3.786,11.715-4.887,17.718c-2.111,11.516-0.212,22.481,5.761,32.715c0.709,1.216,0.641,3.502-0.022,4.807
			c-8.033,15.802-12.04,32.605-12.795,50.23c-0.118,2.749,0.349,5.524,1.025,8.318c2.125-16.806,6.754-32.705,15.168-47.482
			c-7.378,21.804-10.189,43.855-4.053,66.498c-0.661-19.94,2.09-39.218,10.619-57.481c-8.165,29.111-7.254,57.531,6.082,85.107
			c-6.848-26.609-6.668-52.858,3.676-78.658c-7.314,30.762-5.111,60.722,7.736,90.521c-14.555-0.729-28.06,2.164-41.068,7.401
			c-12.956,5.217-24.3,12.709-32.995,23.979c24.683-14.651,51.028-16.563,78.485-11.239c15.877,3.08,27.379,13.734,41.004,22.477
			c-5.92,6.071-11.25,11.838-16.898,17.271c-15.412,14.825-32.354,27.683-50.559,38.909c-3.002,1.852-5.271,2.05-8.455,0.091
			c-22.997-14.142-43.677-31.068-62.298-50.592c-2.668-2.799-3.749-5.441-3.259-9.416c2.918-23.628,5.393-47.311,8.358-70.932
			c0.847-6.738,2.836-13.334,4.3-19.996c-0.373-0.204-0.745-0.409-1.118-0.615c-7.037,12.959-14.075,25.918-21.112,38.877
			c-0.23,0.013-0.461,0.026-0.69,0.039c2.665-15.876,4.91-31.838,8.116-47.604c3.224-15.849,7.405-31.504,10.869-47.346
			c-18.037,34.461-31.329,70.717-41.128,109.807c-2.728-4.558-4.7-8.246-7.045-11.679c-3.65-5.345-4.149-10.669-2.787-17.154
			c9.259-44.072,28.008-83.905,52.929-121.083c0.331-0.492,0.665-0.988,1.061-1.428
			C238.515,393.936,238.843,393.881,239.628,393.523z"/>
		<path fill-rule="evenodd" clip-rule="evenodd" fill="#6ABD45" d="M207.136,364.833c-8.613,0.624-15.914,1.222-23.227,1.604
			c-1.021,0.053-2.226-0.802-3.128-1.512c-7.721-6.073-15.317-12.307-23.123-18.267c-2.384-1.821-3.041-3.796-2.446-6.515
			c1.302-5.957,2.375-11.975,3.98-17.848c0.493-1.806,2.26-4.36,3.706-4.548c2.098-0.271,5.177,0.636,6.549,2.183
			c8.785,9.907,17.208,20.133,25.769,30.238c2.597,3.065,5.283,6.054,7.864,9.132C204.185,360.618,205.125,362.073,207.136,364.833z
			"/>
		<path fill-rule="evenodd" clip-rule="evenodd" fill="#6ABD45" d="M398.693,360.523c4.336-1.042,8.041-1.932,12.791-3.073
			c-4.813-3.09-8.852-5.683-13.549-8.698c4.119-5.263,8.002-10.266,11.928-15.234c3.6-4.556,7.402-8.963,10.82-13.649
			c2.459-3.37,5.852-3.105,8.836-2.188c1.732,0.532,3.508,2.962,4.066,4.887c1.494,5.132,2.518,10.425,3.34,15.713
			c0.264,1.694-0.061,4.272-1.174,5.264c-9.863,8.81-19.961,17.354-30.373,26.304C403.051,366.599,401.037,363.791,398.693,360.523z
			"/>
		<path fill-rule="evenodd" clip-rule="evenodd" fill="#FFFFFF" d="M230.364,391.72c-5.185,6.447-11.429,11.188-18.493,14.111
			c-7.327,3.032-15.197,5.104-23.025,6.484c-11.946,2.107-24.06,3.258-36.701,4.892c-1.667-2.563-0.177-4.495,2.79-6.288
			c16.185-9.78,33.8-15.951,51.956-20.776c2.867-0.763,5.925-1.011,8.636-2.124C221.197,385.688,225.556,387.886,230.364,391.72z"/>
		<path fill-rule="evenodd" clip-rule="evenodd" fill="#6ABD45" d="M219.977,344.686c-6.755,1.687-12.738,3.261-18.772,4.602
			c-0.927,0.206-2.428-0.359-3.1-1.088c-9.058-9.836-18.019-19.764-26.987-29.684c-0.173-0.19-0.152-0.556-0.38-1.488
			c4.339-0.678,8.638-1.351,12.937-2.021c4.256-0.663,8.495-1.579,12.776-1.861c1.761-0.116,4.467,0.582,5.285,1.851
			C207.85,324.478,213.599,334.194,219.977,344.686z"/>
		<path fill-rule="evenodd" clip-rule="evenodd" fill="#6ABD45" d="M376.654,337.242c4.537-8.005,8.791-15.634,13.221-23.161
			c0.457-0.78,2-1.464,2.928-1.342c8.928,1.178,17.832,2.539,27.705,3.989c-2.793,3.462-4.93,6.217-7.182,8.875
			c-5.189,6.124-10.553,12.104-15.605,18.339c-2.109,2.604-3.813,2.863-6.656,1.096C386.672,342.31,381.969,340.08,376.654,337.242z
			"/>
		<path fill-rule="evenodd" clip-rule="evenodd" fill="#6ABD45" d="M438.529,346.037c0.773,7.334,1.316,14.703,2.398,21.991
			c0.723,4.858-0.975,7.625-5.227,9.92c-7.02,3.787-13.721,8.16-20.84,12.457c-2.508-5.593-4.826-10.539-6.885-15.59
			c-0.336-0.822,0.139-2.489,0.828-3.135c9.322-8.724,18.748-17.335,28.146-25.975C437.479,345.816,438.002,345.927,438.529,346.037
			z"/>
		<path fill-rule="evenodd" clip-rule="evenodd" fill="#6ABD45" d="M155.407,347.553c6.945,5.976,13.891,11.951,21.893,18.834
			c-4.352,0.546-7.446,0.934-11.401,1.431c9.138,7.718,18.969,12.806,31.083,16.848c-6.879,2.237-12.476,4.186-18.168,5.791
			c-1.029,0.29-2.536-0.679-3.683-1.317c-6.639-3.688-13.19-7.533-19.868-11.146c-2.649-1.434-4.113-3.178-3.778-6.336
			c0.841-7.924,1.56-15.861,2.328-23.793C154.344,347.761,154.875,347.657,155.407,347.553z"/>
		<path fill-rule="evenodd" clip-rule="evenodd" fill="#6ABD45" d="M202.971,312.117c8.462-1.756,15.832-3.407,23.266-4.683
			c1.019-0.174,2.957,1.26,3.453,2.395c3.517,8.038,6.698,16.222,10.147,24.291c0.987,2.306,0.549,3.411-1.747,4.422
			c-13.856,6.104-13.819,6.131-22.058-6.58C211.924,325.623,207.73,319.341,202.971,312.117z"/>
		<path fill-rule="evenodd" clip-rule="evenodd" fill="#6ABD45" d="M337.193,506.808c9.17,7.289,18.328,14.593,27.514,21.862
			c8.633,6.834,17.199,13.757,25.992,20.379c2.994,2.255,3.197,4.079,0.969,6.868c-2.213,2.771-4.115,5.786-6.732,9.518
			c-17.129-18.969-33.186-38.1-49.115-57.337C336.279,507.667,336.736,507.237,337.193,506.808z"/>
		<path fill-rule="evenodd" clip-rule="evenodd" fill="#6ABD45" d="M306.533,299.524c-1.17,1.371-2.893,2.559-3.414,4.143
			c-2.162,6.59-3.961,13.301-5.903,19.965c-0.2,0.687-0.461,1.356-0.773,2.264c-2.32-0.515-4.602-0.682-6.553-1.573
			c-1.324-0.605-2.945-2.114-3.134-3.408c-1.31-8.976-2.33-17.997-3.295-27.019c-0.125-1.165,0.292-3.242,0.985-3.504
			c5.373-2.034,10.4-6.475,16.776-3.002c0.777,0.422,1.646,0.726,2.508,0.932c3.994,0.955,5.279,3.37,4.201,7.285
			c-0.391,1.417-0.428,2.932-0.627,4.402C307.047,299.849,306.791,299.687,306.533,299.524z"/>
		<path fill-rule="evenodd" clip-rule="evenodd" fill="#6ABD45" d="M231.125,306.201c7.525-2.023,14.199-3.945,20.961-5.479
			c0.88-0.199,2.926,1.413,3.223,2.512c2.012,7.448,3.829,14.958,5.351,22.52c0.238,1.184-1.003,3.375-2.155,3.998
			c-3.505,1.895-7.24,3.436-11.024,4.695c-1.053,0.35-3.36-0.377-3.785-1.248C239.477,324.56,235.535,315.785,231.125,306.201z"/>
		<path fill-rule="evenodd" clip-rule="evenodd" fill="#6ABD45" d="M280.721,291.58c0.606,7.032,1.155,13.357,1.695,19.682
			c0.215,2.52,0.228,5.073,0.656,7.555c0.571,3.312-0.43,4.948-3.943,5.397c-4.399,0.563-8.737,1.61-13.585,2.541
			c-0.35-0.696-1.023-1.653-1.334-2.717c-2.052-7.004-3.964-14.049-6.052-21.042c-0.843-2.827-0.223-4.382,2.799-5.243
			C267.237,295.964,273.43,293.879,280.721,291.58z"/>
		<path fill-rule="evenodd" clip-rule="evenodd" fill="#6ABD45" d="M339.035,497.64c5.629,3.149,11.262,6.292,16.887,9.449
			c15.043,8.445,30.055,16.948,45.152,25.298c2.941,1.627,3.355,3.18,1.447,5.938c-2.082,3.01-3.762,6.296-5.977,10.074
			c-19.723-16.911-38.926-33.376-58.131-49.841C338.621,498.251,338.828,497.945,339.035,497.64z"/>
		<path fill-rule="evenodd" clip-rule="evenodd" fill="#6ABD45" d="M406.811,530.746c-21.475-13.21-42.18-25.946-62.885-38.684
			c0.191-0.394,0.383-0.786,0.576-1.18c5.506,2.045,11.012,4.095,16.521,6.134c16.191,5.997,32.359,12.059,48.598,17.929
			c3.311,1.196,4.344,2.628,2.449,5.841C410.279,523.825,408.762,527.022,406.811,530.746z"/>
		<path fill-rule="evenodd" clip-rule="evenodd" fill="#6ABD45" d="M388.301,311.843c-5.059,8.114-9.621,15.536-14.359,22.845
			c-0.381,0.586-2.051,0.718-2.99,0.498c-4.756-1.115-9.516-2.271-14.156-3.78c-0.9-0.292-2.047-2.472-1.758-3.346
			c2.047-6.212,4.348-12.348,6.805-18.413c0.455-1.125,2.133-2.722,2.977-2.574C372.365,308.402,379.85,310.074,388.301,311.843z"/>
		<path fill-rule="evenodd" clip-rule="evenodd" fill="#FFFFFF" d="M188.453,372.906c7.448-0.905,16.01-1.55,24.414-3.069
			c10.003-1.807,18.685-6.843,26.391-13.304c3.881-3.254,7.755-2.577,12.537-0.881c-3.261,2.543-6.521,5.087-10.09,7.871
			c4.64,0.567,9.084,1.11,13.794,1.685C244.695,375.276,205.811,379.424,188.453,372.906z"/>
		<path fill-rule="evenodd" clip-rule="evenodd" fill="#6ABD45" d="M422.561,410.913c-2.016-5.131-3.854-9.503-5.396-13.979
			c-0.35-1.016-0.105-3.004,0.598-3.495c7.393-5.163,14.934-10.111,22.436-15.119c0.506,0.193,1.012,0.388,1.518,0.581
			c0,4.505,0.07,9.012-0.014,13.518c-0.234,12.754,2.018,9.775-10.033,14.811C428.818,408.42,425.943,409.548,422.561,410.913z"/>
		<path fill-rule="evenodd" clip-rule="evenodd" fill="#6ABD45" d="M414.24,419.207c8.705-3.979,17.48-7.989,27.377-12.513
			c-0.73,7.679-1.225,13.984-2.035,20.248c-0.125,0.976-1.551,2.028-2.617,2.574c-1.289,0.658-2.832,0.833-4.271,1.188
			C418.441,434.205,418.441,434.203,414.24,419.207z"/>
		<path fill-rule="evenodd" clip-rule="evenodd" fill="#FFFFFF" d="M196.234,441.999c-14.32-0.886-26.356,4.919-38.44,13.397
			c-0.969-5.019-1.958-9.156-2.438-13.351c-0.113-0.99,1.273-2.804,2.336-3.168c6.293-2.156,12.654-4.156,19.091-5.825
			c1.506-0.39,3.484,0.487,5.091,1.153c4.876,2.021,9.678,4.223,14.509,6.354C196.333,441.04,196.284,441.52,196.234,441.999z"/>
		<path fill-rule="evenodd" clip-rule="evenodd" fill="#6ABD45" d="M310.109,290.928c8.479,2.759,15.248,4.892,21.945,7.235
			c0.811,0.283,1.873,1.837,1.719,2.571c-1.33,6.337-2.91,12.622-4.602,19.686c-6.525-5.535-13.1-9.863-17.842-15.683
			C309.119,302.021,310.457,296.416,310.109,290.928z"/>
		<path fill-rule="evenodd" clip-rule="evenodd" fill="#FFFFFF" d="M402.438,383.038c-10.203-10.236-20.406-20.473-30.512-30.613
			c0.135-0.039,1.16-0.331,2.186-0.624c0.125-0.396,0.25-0.793,0.375-1.189c-9.037-3.288-18.072-6.576-27.109-9.863
			c0.223-0.544,0.447-1.088,0.67-1.632c15.982-0.968,28.943,7.153,43.113,14.648c-2.988,0.901-5.063,1.527-8.043,2.426
			C392.121,363.736,398.619,372.444,402.438,383.038z"/>
		<path fill-rule="evenodd" clip-rule="evenodd" fill="#6ABD45" d="M350.984,328.503c-5.455-6.721-10.586-12.182-14.555-18.386
			c-1.48-2.311-0.24-6.361-0.24-10.71c8.586,2.31,15.934,4.287,24.172,6.504C357.221,313.478,354.305,320.503,350.984,328.503z"/>
		<path fill-rule="evenodd" clip-rule="evenodd" fill="#FFFFFF" d="M223.722,351.293c17.242-6.26,34.359-12.898,51.777-18.625
			c8.976-2.951,18.322-0.593,23.33,3.942c-7.338,0.967-14.898,1.375-22.166,3.053c-12.297,2.838-24.359,6.68-36.622,9.687
			c-5.289,1.297-10.83,1.564-16.257,2.299C223.763,351.531,223.744,351.412,223.722,351.293z"/>
		<path fill-rule="evenodd" clip-rule="evenodd" fill="#6ABD45" d="M384.877,499.862c5.91-2.029,10.98-4.633,16.299-5.328
			c4.369-0.572,9.059,1.008,13.568,1.836c7.357,1.351,7.391,1.439,4.504,8.254c-3.922,9.272-2.502,8.438-11.559,4.781
			C400.262,506.405,392.904,503.229,384.877,499.862z"/>
		<path fill-rule="evenodd" clip-rule="evenodd" fill="#6ABD45" d="M151.193,404.038c0-8.497,0-16.229,0-25.214
			c7.776,4.759,14.65,8.967,22.168,13.568C165.843,396.342,158.979,399.949,151.193,404.038z"/>
		<path fill-rule="evenodd" clip-rule="evenodd" fill="#6ABD45" d="M420.791,438.007c6.504-1.821,11.662-3.268,18.18-5.093
			c-1.244,6.782-2.057,12.3-3.338,17.707c-0.559,2.353-4.818,3.162-6.223,1.173C426.486,447.651,423.998,443.203,420.791,438.007z"
			/>
		<path fill-rule="evenodd" clip-rule="evenodd" fill="#FFFFFF" d="M186.813,460.119c-7.483,5.501-15.017,11.039-23.188,17.045
			c-0.783-2.752-1.695-5.604-2.339-8.515c-0.139-0.624,0.496-1.797,1.104-2.152c7.272-4.255,14.941-7.237,23.575-6.749
			C186.463,459.775,186.939,460.179,186.813,460.119z"/>
		<path fill-rule="evenodd" clip-rule="evenodd" fill="#FFFFFF" d="M383.975,469.212c-2.275-1.351-4.553-2.702-7.152-4.246
			c3.514-2.97,6.627-2.816,9.061-0.001c4.02,4.649,7.637,9.645,10.779,14.981c-7.342-2.94-14.717-5.8-21.977-8.928
			c-0.867-0.373-1.105-2.2-1.637-3.354c1.361-0.312,2.871-1.142,4.043-0.805c1.428,0.411,2.486,1.973,3.877,2.713
			c0.936,0.497,2.17,0.433,3.27,0.62C384.15,469.865,384.063,469.539,383.975,469.212z"/>
		<path fill-rule="evenodd" clip-rule="evenodd" fill="#6ABD45" d="M415.363,491.5c2.338-3.945,4.551-8.023,7.154-11.836
			c0.695-1.021,2.58-1.229,3.92-1.811c0.385,1.315,1.17,2.665,1.057,3.936c-0.152,1.732-0.971,3.41-1.539,5.101
			C423.326,494.72,422.508,495.026,415.363,491.5z"/>
		<path fill-rule="evenodd" clip-rule="evenodd" fill="#FFFFFF" d="M409.113,401.053c3.875,3.58,7.318,6.762,11.395,10.529
			c-2.965,1.333-5.246,2.608-7.688,3.378c-1.92,0.604-4.836-4.174-4.568-7.376C408.41,405.682,408.744,403.794,409.113,401.053z"/>
		<path fill-rule="evenodd" clip-rule="evenodd" fill="#6ABD45" d="M434.438,456.99c-1.451,5.536-2.633,10.609-4.232,15.546
			c-0.234,0.725-2.479,1.141-3.74,1.042c-0.602-0.047-1.758-1.934-1.516-2.477c2.084-4.675,4.408-9.245,6.752-13.799
			C431.842,457.029,432.766,457.159,434.438,456.99z"/>
		<path fill-rule="evenodd" clip-rule="evenodd" fill="#6ABD45" d="M202.926,351.595c5.652,2.434,11.303,4.868,16.933,7.292
			C211.006,364.148,211.298,363.628,202.926,351.595z"/>
		<path fill-rule="evenodd" clip-rule="evenodd" fill="#6ABD45" d="M376.75,496.579c-9.852-4.169-19.703-8.338-30.723-13.002
			c13.385-0.999,21.188,8.077,31.346,11.509C377.164,495.583,376.957,496.081,376.75,496.579z"/>
		<path fill-rule="evenodd" clip-rule="evenodd" fill="#051732" d="M317.637,415.533c-6.529-7.015-9.758-15.351-10.441-24.719
			c-0.76-10.427,2.047-20.1,6.965-29.136c1.73-3.175,1.523-5.837,0.77-9.227c-1.803-8.093-2.893-16.348-4.15-24.556
			c-0.207-1.355,0.189-2.802,0.385-5.118c6.916,10.221,13.279,19.622,19.711,29.127C315.928,370.741,306.6,390.945,317.637,415.533z
			"/>
		<path fill-rule="evenodd" clip-rule="evenodd" fill="#051732" d="M390.84,421.679c-6.926-6.749-13.854-13.497-20.998-20.459
			c-0.635,0.554-1.469,1.28-2.574,2.243c-7.359-6.597-14.73-13.208-22.104-19.817c6.77,0.935,7.207-3.863,8.189-8.217
			c0.482-2.14,1.193-4.228,2.014-7.075c12.258,17.983,24.156,35.441,36.055,52.9C391.229,421.396,391.035,421.537,390.84,421.679z"
			/>
		<path fill-rule="evenodd" clip-rule="evenodd" fill="#051732" d="M374.029,418.966c6.32,8.818,12.352,17.232,18.381,25.646
			c-0.063,0.047-0.127,0.094-0.191,0.142c-5.379-5.515-10.756-11.029-16.104-16.515c-3.355,2.365-5.705,4.021-9.158,6.456
			C369.607,428.8,371.691,424.165,374.029,418.966z"/>
		<path fill-rule="evenodd" clip-rule="evenodd" fill="#051732" d="M409.658,467.931c-1.924-6.222-3.43-11.09-5.164-16.706
			c1.709-0.284,4.441-1.578,5.607-0.728c1.553,1.136,2.732,4.012,2.559,6.008C412.354,460.036,410.906,463.468,409.658,467.931z"/>
	</g>
	<g>
		<path fill-rule="evenodd" clip-rule="evenodd" fill="#6ABD45" d="M244.651,192.133c-10.494-0.026-19.503-8.743-19.674-19.035
			c-0.089-5.244,1.895-10.201,5.586-13.956c3.741-3.805,8.753-5.9,14.113-5.9c5.156,0.02,10.212,2.203,13.952,5.99
			c3.771,3.818,5.907,8.958,5.863,14.103c-0.089,10.19-9.152,18.798-19.791,18.798H244.651z"/>
		<path fill="#FFFFFF" d="M244.677,154.66c0.025,0,0.05,0,0.075,0c9.908,0.039,18.409,8.699,18.323,18.663
			c-0.083,9.482-8.444,17.393-18.373,17.393c-0.016,0-0.031,0-0.047,0c-9.723-0.024-18.103-8.121-18.261-17.641
			C226.222,162.948,234.461,154.66,244.677,154.66 M244.677,151.825L244.677,151.825c-5.744,0-11.115,2.246-15.124,6.324
			c-3.96,4.029-6.089,9.347-5.993,14.975c0.184,11.044,9.841,20.399,21.088,20.427h0.004l0.05,0c11.4,0,21.112-9.252,21.208-20.203
			c0.048-5.52-2.238-11.027-6.272-15.111c-4.003-4.053-9.424-6.39-14.875-6.411L244.677,151.825L244.677,151.825z"/>
	</g>
	<g>
		<path fill-rule="evenodd" clip-rule="evenodd" fill="#6ABD45" d="M135.37,192.188c-5.25-0.136-10.413-2.49-14.166-6.459
			c-3.763-3.979-5.83-9.284-5.672-14.556c0.299-9.92,8.969-17.991,19.326-17.991l0.146,0c5.143,0.038,10.286,2.327,14.112,6.28
			c3.854,3.982,5.988,9.25,5.854,14.451c-0.238,9.225-9.758,18.279-19.22,18.279L135.37,192.188z"/>
		<path fill="#FFFFFF" d="M134.858,154.6c0.045,0,0.09,0,0.136,0c10.036,0.073,18.818,9.197,18.56,19.277
			c-0.219,8.495-9.129,16.898-17.803,16.898c-0.115,0-0.229-0.001-0.344-0.004c-10.243-0.265-18.766-9.294-18.458-19.555
			C117.225,162.06,125.28,154.6,134.858,154.6 M134.858,151.765L134.858,151.765c-11.115,0-20.42,8.687-20.743,19.365
			c-0.169,5.646,2.039,11.322,6.059,15.573c4.01,4.24,9.536,6.756,15.159,6.901c0.139,0.004,0.278,0.005,0.417,0.005
			c10.159,0,20.381-9.738,20.637-19.66c0.143-5.579-2.136-11.219-6.252-15.473c-4.088-4.225-9.6-6.671-15.12-6.711L134.858,151.765
			L134.858,151.765z"/>
	</g>
	<g>
		<path fill-rule="evenodd" clip-rule="evenodd" fill="#6ABD45" d="M350.928,191.682c-4.893-0.089-9.812-2.292-13.495-6.045
			c-3.69-3.759-5.756-8.68-5.668-13.501c0.196-10.688,8.463-18.445,19.657-18.445l0.227,0.001
			c5.252,0.051,10.455,2.406,14.273,6.462c3.483,3.7,5.35,8.422,5.12,12.955c-0.511,10.069-9.566,18.577-19.775,18.577
			L350.928,191.682z"/>
		<path fill="#FFFFFF" d="M351.422,155.107c0.07,0,0.142,0,0.213,0.001c9.736,0.094,18.455,8.782,17.992,17.928
			c-0.478,9.398-8.858,17.231-18.36,17.231c-0.104,0-0.208-0.001-0.313-0.003c-9.492-0.173-17.941-8.782-17.771-18.104
			C333.362,162.323,341.099,155.107,351.422,155.107 M351.422,152.273L351.422,152.273c-11.808,0-20.867,8.528-21.074,19.836
			c-0.095,5.199,2.119,10.491,6.073,14.52c3.942,4.016,9.22,6.374,14.48,6.469c0.123,0.002,0.243,0.003,0.365,0.003
			c10.938,0,20.644-9.123,21.191-19.922c0.249-4.917-1.758-10.019-5.505-13.999c-4.081-4.335-9.655-6.853-15.291-6.908
			L351.422,152.273L351.422,152.273z"/>
	</g>
	<g>
		<path fill-rule="evenodd" clip-rule="evenodd" fill="#6ABD45" d="M460.573,191.461c-5.444,0-10.806-2.254-14.709-6.183
			c-3.444-3.466-5.325-7.802-5.297-12.208c0.065-10.292,8.994-19.065,19.497-19.155l0.175,0c10.735,0,19.226,8.34,19.326,18.986
			c0.098,10.578-7.756,18.383-18.674,18.558L460.573,191.461z"/>
		<path fill="#FFFFFF" d="M460.238,155.332c9.877,0,17.817,7.779,17.91,17.582c0.09,9.716-7.225,16.966-17.279,17.127
			c-0.099,0.001-0.197,0.002-0.296,0.002c-9.876,0-18.646-7.97-18.589-16.964c0.061-9.497,8.387-17.664,18.092-17.747
			C460.13,155.332,460.185,155.332,460.238,155.332 M460.239,152.497l-0.188,0.001c-11.26,0.097-20.831,9.514-20.902,20.563
			c-0.03,4.786,1.997,9.48,5.709,13.216c4.168,4.195,9.896,6.601,15.715,6.601c0.113,0,0.229-0.001,0.342-0.002
			c11.544-0.186,20.172-8.779,20.068-19.988C480.874,161.454,471.763,152.497,460.239,152.497L460.239,152.497z"/>
	</g>
	<g>
		<g>
			<path fill="#FFFFFF" d="M128.81,234.073l-13.676,60.209H99.91l4.902-22.536h-7.311l-5.333,22.536H76.945l13.762-60.209h15.138
				l-4.903,22.535h7.312l5.418-22.535H128.81 M135.228,228.949h-6.418h-15.138h-1.469h-6.358H90.707h-4.084l-0.91,3.982
				L71.95,293.141l-1.432,6.266h6.427h15.224h4.053h3.688h15.224h4.09l0.906-3.989l13.676-60.208L135.228,228.949L135.228,228.949z"
				/>
			<path fill="#FFFFFF" d="M165.278,234.073l5.849,7.312l-10.236,45.586l-9.289,7.312h-22.621l-5.849-7.312l10.322-45.586
				l9.289-7.312H165.278 M154.527,249.211H146.7l-6.881,29.934h7.827L154.527,249.211 M167.741,228.949h-2.462h-22.535h-1.774
				l-1.395,1.098l-9.289,7.311l-1.427,1.124l-0.401,1.771l-10.322,45.587l-0.544,2.405l1.541,1.927l5.849,7.311l1.539,1.924h2.463
				h22.621h1.774l1.395-1.098l9.289-7.312l1.431-1.126l0.399-1.777l10.235-45.587l0.539-2.401l-1.538-1.922l-5.849-7.311
				L167.741,228.949L167.741,228.949z"/>
			<path fill="#FFFFFF" d="M208.627,234.073l5.85,7.397l-3.354,15.138l-9.375,7.827l5.935,7.396l-3.527,15.139l-9.203,7.312h-7.397
				l4.903-22.45h-7.311l-5.418,22.45H164.59l13.676-60.209H208.627 M197.876,249.211h-7.828l-1.462,7.397h7.311L197.876,249.211
				 M211.108,228.949h-2.48h-30.362h-4.09l-0.906,3.989l-13.676,60.208l-1.422,6.26h6.418h15.138h4.034h3.792h7.397h1.788
				l1.399-1.112l9.203-7.312l1.398-1.11l0.405-1.739l3.526-15.138l0.565-2.426l-1.559-1.942l-2.79-3.479l5.518-4.607l1.342-1.119
				l0.377-1.705l3.354-15.139l0.527-2.376l-1.511-1.91l-5.849-7.396L211.108,228.949L211.108,228.949z"/>
			<path fill="#FFFFFF" d="M251.72,234.073l6.363,7.312l-3.44,13.245h-15.138l1.462-5.332h-7.396l-2.409,9.202h15.225l5.85,7.398
				l-4.387,21.072l-9.29,7.312h-23.051l-5.85-7.312l2.925-13.246h15.225l-1.033,5.333h7.312l2.494-9.289h-15.653l-5.419-7.312
				l4.473-21.072l9.288-7.312H251.72 M254.052,228.949h-2.332h-22.451h-1.774l-1.395,1.098l-9.288,7.311l-1.458,1.148l-0.385,1.814
				l-4.474,21.073l-0.479,2.259l1.376,1.856l2.292,3.093h-1.101h-4.116l-0.887,4.019l-2.924,13.246l-0.528,2.392l1.531,1.914
				l5.848,7.311l1.539,1.924h2.463h23.051h1.774l1.395-1.098l9.289-7.312l1.467-1.154l0.382-1.827l4.386-21.074l0.487-2.344
				l-1.484-1.878l-2.346-2.966h0.734h3.963l0.996-3.836l3.44-13.246l0.679-2.614l-1.773-2.037l-6.363-7.312L254.052,228.949
				L254.052,228.949z"/>
			<path fill="#FFFFFF" d="M304.014,234.073l-3.355,15.138h-22.534l-1.979,7.397h23.051l-3.441,15.138h-23.051l-1.462,7.398h22.535
				l-3.44,15.138h-30.363l-5.849-7.312l10.322-45.586l9.203-7.312H304.014 M310.396,228.949h-6.383h-30.362h-1.787l-1.4,1.112
				l-9.203,7.312l-1.412,1.121l-0.397,1.759l-10.322,45.587l-0.544,2.405l1.541,1.927l5.849,7.311l1.538,1.924h2.462h30.363h4.09
				l0.906-3.988l3.44-15.139l0.774-3.409h0.297l0.906-3.987l3.441-15.139l1.424-6.26h-0.215l0.26-1.164l3.354-15.139
				L310.396,228.949L310.396,228.949z"/>
			<path fill="#FFFFFF" d="M323.539,234.073l-10.322,44.984h23.053l-3.441,15.225h-30.363l-5.848-7.397l11.698-52.812H323.539
				 M329.971,228.949h-6.432h-15.225h-4.113l-0.889,4.016l-11.698,52.813l-0.526,2.375l1.51,1.91l5.849,7.396l1.538,1.947h2.48
				h30.363h4.096l0.902-3.994l3.441-15.225l1.412-6.254h-6.41h-16.621l8.885-38.715L329.971,228.949L329.971,228.949z"/>
			<path fill="#FFFFFF" d="M382.713,234.073l5.85,7.312l-10.234,45.586l-9.291,7.312h-22.621l-5.848-7.312l10.32-45.586l9.289-7.312
				H382.713 M371.963,249.211h-7.828l-6.881,29.934h7.828L371.963,249.211 M385.176,228.949h-2.463h-22.535h-1.773l-1.395,1.098
				l-9.289,7.311l-1.428,1.124l-0.4,1.771L335.57,285.84l-0.545,2.405l1.541,1.927l5.85,7.311l1.539,1.924h2.461h22.621h1.775
				l1.393-1.098l9.291-7.312l1.432-1.126l0.398-1.777l10.234-45.588l0.541-2.4l-1.539-1.922l-5.848-7.311L385.176,228.949
				L385.176,228.949z"/>
			<path fill="#FFFFFF" d="M426.064,234.073l5.848,7.397l-3.354,15.138l-9.377,7.827l5.936,7.396l-3.525,15.139l-9.205,7.312h-7.396
				l4.902-22.45h-7.311l-5.418,22.45h-15.139l13.676-60.209H426.064 M415.311,249.211h-7.826l-1.463,7.397h7.313L415.311,249.211
				 M428.545,228.949h-2.48h-30.363h-4.092l-0.904,3.989l-13.676,60.208l-1.422,6.26h6.418h15.139h4.033h3.793h7.396h1.787
				l1.4-1.112l9.203-7.312l1.398-1.11l0.404-1.739l3.527-15.138l0.564-2.426l-1.559-1.942l-2.791-3.479l5.52-4.607l1.34-1.119
				l0.379-1.705l3.354-15.139l0.527-2.376l-1.51-1.91l-5.85-7.396L428.545,228.949L428.545,228.949z"/>
			<path fill="#FFFFFF" d="M471.133,234.073l5.936,7.312l-10.322,45.586l-9.289,7.312h-30.363l13.762-60.209H471.133
				 M460.381,249.211h-7.826l-6.881,29.934h7.826L460.381,249.211 M473.572,228.949h-2.439h-30.277h-4.084l-0.91,3.982
				L422.1,293.141l-1.432,6.266h6.426h30.363h1.773l1.395-1.098l9.289-7.312l1.43-1.124l0.4-1.771l10.32-45.587l0.551-2.428
				l-1.57-1.934l-5.934-7.311L473.572,228.949L473.572,228.949z"/>
			<path fill="#FFFFFF" d="M513.451,234.073l6.365,7.312l-3.441,13.245h-15.137l1.461-5.332h-7.396l-2.408,9.202h15.225l5.848,7.398
				l-4.387,21.072l-9.289,7.312H477.24l-5.85-7.312l2.924-13.246h15.225l-1.031,5.333h7.311l2.494-9.289h-15.654l-5.418-7.312
				l4.473-21.072l9.289-7.312H513.451 M515.785,228.949h-2.334h-22.449h-1.775l-1.393,1.098l-9.289,7.311l-1.459,1.148l-0.385,1.814
				l-4.473,21.073l-0.48,2.259l1.375,1.856l2.293,3.093h-1.102h-4.115l-0.887,4.019l-2.924,13.246l-0.527,2.392l1.529,1.914
				l5.85,7.311l1.537,1.924h2.463h23.051h1.775l1.395-1.098l9.289-7.312l1.467-1.155l0.381-1.826l4.387-21.074l0.486-2.344
				l-1.484-1.877l-2.346-2.967h0.734h3.963l0.996-3.836l3.441-13.246l0.678-2.614l-1.771-2.037l-6.365-7.312L515.785,228.949
				L515.785,228.949z"/>
		</g>
		<g>
			<path fill="#051732" d="M108.253,256.608l5.418-22.535h15.138l-13.676,60.209H99.91l4.902-22.536h-7.311l-5.333,22.536H76.945
				l13.762-60.209h15.138l-4.903,22.535H108.253z"/>
			<path fill="#051732" d="M123.132,286.971l10.322-45.586l9.289-7.312h22.535l5.849,7.312l-10.236,45.586l-9.289,7.312h-22.621
				L123.132,286.971z M147.646,279.145l6.881-29.934H146.7l-6.881,29.934H147.646z"/>
			<path fill="#051732" d="M179.728,294.282H164.59l13.676-60.209h30.362l5.85,7.397l-3.354,15.138l-9.375,7.827l5.935,7.396
				l-3.527,15.139l-9.203,7.312h-7.397l4.903-22.45h-7.311L179.728,294.282z M188.587,256.608h7.311l1.979-7.397h-7.828
				L188.587,256.608z"/>
			<path fill="#051732" d="M240.967,249.298h-7.396l-2.409,9.202h15.225l5.85,7.398l-4.387,21.072l-9.29,7.312h-23.051l-5.85-7.312
				l2.925-13.246h15.225l-1.033,5.333h7.312l2.494-9.289h-15.653l-5.419-7.312l4.473-21.072l9.288-7.312h22.451l6.363,7.312
				l-3.44,13.245h-15.138L240.967,249.298z"/>
			<path fill="#051732" d="M293.779,279.145l-3.44,15.138h-30.363l-5.849-7.312l10.322-45.586l9.203-7.312h30.362l-3.355,15.138
				h-22.534l-1.979,7.397h23.051l-3.441,15.138h-23.051l-1.462,7.398H293.779z"/>
			<path fill="#051732" d="M323.539,234.073l-10.322,44.984h23.053l-3.441,15.225h-30.363l-5.848-7.397l11.698-52.812H323.539z"/>
			<path fill="#051732" d="M340.568,286.971l10.32-45.586l9.289-7.312h22.535l5.85,7.312l-10.234,45.586l-9.291,7.312h-22.621
				L340.568,286.971z M365.082,279.145l6.881-29.934h-7.828l-6.881,29.934H365.082z"/>
			<path fill="#051732" d="M397.164,294.282h-15.139l13.676-60.209h30.363l5.848,7.397l-3.354,15.138l-9.377,7.827l5.936,7.396
				l-3.525,15.139l-9.205,7.312h-7.396l4.902-22.45h-7.311L397.164,294.282z M406.021,256.608h7.313l1.977-7.397h-7.826
				L406.021,256.608z"/>
			<path fill="#051732" d="M427.094,294.282l13.762-60.209h30.277l5.936,7.312l-10.322,45.586l-9.289,7.312H427.094z
				 M445.674,279.145h7.826l6.881-29.934h-7.826L445.674,279.145z"/>
			<path fill="#051732" d="M502.699,249.298h-7.396l-2.408,9.202h15.225l5.848,7.398l-4.387,21.072l-9.289,7.312H477.24l-5.85-7.312
				l2.924-13.246h15.225l-1.031,5.333h7.311l2.494-9.289h-15.654l-5.418-7.312l4.473-21.072l9.289-7.312h22.449l6.365,7.312
				l-3.441,13.245h-15.137L502.699,249.298z"/>
		</g>
	</g>
</g>
</svg>
