<svg version="1.1" baseProfile="basic" id="Layer_1" xmlns="http://www.w3.org/2000/svg"
	xmlns:xlink="http://www.w3.org/1999/xlink" x="0px" y="0px" viewBox="-101.86 821.445 800 800" xml:space="preserve">
	<g>
		<path fill="#ABAAAA" stroke="#C0A062" stroke-width="0.7778" stroke-miterlimit="10" d="M298.425,885.811l-94.093,0.771
		c-22.428,6.138-97.736,38.977-114.55,37.224l-34.395-4.66l-29.058,44.141c25.555,17.122,37.134,41.321,34.305,88.671l4.87,76.415
		v35.086c-4.77,90.81,22.634,151.579,72.469,174.325c27.019,17.972,53.84,25.453,83.385,39.866
		c14.192,6.886,28.285,12.627,40.408,21.355c11.967,8.554,25.566,22.469,34.226,28.328c9.314-6.156,14.963-16.925,27.117-24.133
		c10.768-6.511,20.392-13.141,31.553-19.733c22.941-13.523,45.388-21.2,68.805-33.652c42.659-22.844,91.531-67.46,101.845-121.815
		c10.768-57.243-3.9-120.548-3.9-180.416c0.118-33.543,23.436-73.311,40.046-101.398l-30.424-44.636
		c-35.848,0.585-18.648,19.064-35.55,15.162c-25.458-5.817-45.191-16.516-74.148-16.516l-76.271-18.877
		C329.698,881.319,301.334,872.975,298.425,885.811L298.425,885.811z" />
		<path fill="#ABAAAA" stroke="#C0A062" stroke-width="1.7499" stroke-miterlimit="10" d="M2.823,1417.393v4.771
		c0,10.89,25.941,38.007,26.614,45.509c-8.265,5.545-27.682-1.166-38.47,2.315c-7.296,2.336-27.208,10.608-33.437,12.55l6.128,7.403
		l-1.058,0.078l-6.226,6.14c48.189,0,79.575,46.557,104.358,46.557h2.811c4.76,0,11.381-10.095,6.226-17.601
		c-4.265-6.116-10.205-9.345-15.656-13.813c-13.589-11.069-9.324-26.705-5.632-45.411c5.553-28.267,9.343-20.405-9.322-39.271
		C35.362,1422.738,2.823,1398.529,2.823,1417.393L2.823,1417.393z M544.846,1428.083c0.673,16.052,15.917,44.062,15.917,55.722
		c0,17.597-12.117,27.614-21.558,37.334c-4.377,4.57-10.807,9.341-15.936,13.52c-3.305,2.691-15.358,18.449-4.295,18.449h6.629
		c20.487,0,71.521-58.91,111.446-60.357l-9.522-6.229l0.277-1.745l12.629-3.8l0.793-2.712l-47.725-13.319l-0.478,1.839v-2.928
		c0-21.479,22.549-54.535,25.556-67.362l-1.147-2.613L544.846,1428.083z M468.737,1503.718c0,0.99,13.815,33.93,14.192,34.227
		c3.603-2.613,3.307-11.362,3.8-17.104c6.891,0.2,8.829,6.512,13.322,9.524c1.445-1.149,2.793-2.238,2.793-4.754
		c0-2.234-14.272-30.443-16.115-30.443C485.265,1495.168,468.737,1501.977,468.737,1503.718L468.737,1503.718z M113.879,1526.583
		c2.921-6.157,7.286-18.845,9.422-26.049c2.622-8.852-19.222-5.843-26.711-5.464C64.52,1496.436,113.482,1526.48,113.879,1526.583
		L113.879,1526.583z M60.732,1462.902c24.573,6.613,35.858,7.979,58.592,16.41c18.467,6.809,34.115,15.579,50.247,24.703
		c25.743,14.588,70.636,43.368,107.456,43.368h20.893c87.64,0,178.199-91.588,223.984-84.005l23.713,4.195l1.052-0.199
		l-35.156-111.126l-1.07,0.375c-4.473-0.375-7.205-1.937-12.332-1.937c-52.792,0-106.433,20.899-138.857,41.428
		c-15.958,10.217-38.007,26.15-51.616,38.598c-12.925,11.86-13.004,12.908-26.822,2.613c-7.769-5.936-15.438-15.855-23.89-21.674
		c-21.291-14.787-31.594-22.049-56.851-33.253c-16.716-7.383-46.926-21.38-66.074-24.111c-34.611-4.971-54.02-3.009-58.78,27.989
		C71.807,1408.644,62.583,1440.16,60.732,1462.902L60.732,1462.902z" />
		<path fill="#010101" d="M468.737,1503.718c0-1.745,16.528-8.555,17.992-8.555c1.843,0,16.115,28.21,16.115,30.444
		c0,2.516-1.348,3.604-2.793,4.754c-4.493-3.009-6.432-9.324-13.322-9.524c-0.493,5.741-0.2,14.49-3.8,17.104
		C482.552,1537.648,468.737,1504.708,468.737,1503.718L468.737,1503.718z M113.879,1526.583
		c-0.397-0.103-49.359-30.146-17.291-31.513c7.492-0.379,29.335-3.388,26.711,5.464
		C121.165,1507.738,116.801,1520.425,113.879,1526.583L113.879,1526.583z M60.732,1462.902
		c1.851-22.742,11.075-54.258,14.488-76.625c4.76-30.998,24.169-32.955,58.78-27.989c19.15,2.735,49.359,16.729,66.074,24.111
		c25.257,11.204,35.561,18.47,56.851,33.258c8.452,5.817,16.121,15.733,23.89,21.674c13.817,10.294,13.897,9.242,26.822-2.614
		c13.609-12.451,35.658-28.385,51.616-38.598c32.423-20.528,86.063-41.432,138.857-41.432c5.127,0,7.861,1.565,12.332,1.941
		l1.07-0.376l35.156,111.126l-1.052,0.195l-23.713-4.195c-45.785-7.583-136.342,84.005-223.984,84.005h-20.893
		c-36.82,0-81.713-28.776-107.456-43.364c-16.133-9.128-31.781-17.894-50.247-24.707C96.59,1470.88,85.305,1469.515,60.732,1462.902
		L60.732,1462.902z M69.767,1525.115c5.155,7.506-1.466,17.601-6.226,17.601H60.73c-24.782,0-56.168-46.557-104.357-46.557
		l6.226-6.14l1.058-0.078l-6.128-7.403c6.226-1.941,26.141-10.214,33.437-12.55c10.788-3.481,30.205,3.229,38.469-2.315
		c-0.672-7.502-26.613-34.619-26.613-45.509v-4.771c0-18.864,32.542,5.345,36.333,9.227c18.665,18.865,14.875,11.004,9.322,39.271
		c-3.692,18.706-7.957,34.342,5.632,45.411C59.562,1515.774,65.502,1518.999,69.767,1525.115L69.767,1525.115z M617.433,1393.88
		l1.147,2.609c-3.007,12.826-25.556,45.884-25.556,67.362v2.932l0.478-1.843l47.725,13.323l-0.793,2.712l-12.629,3.8l-0.277,1.74
		l9.522,6.234c-39.926,1.443-90.956,60.354-111.446,60.354h-6.629c-11.065,0,0.988-15.758,4.295-18.449
		c5.127-4.175,11.559-8.945,15.936-13.52c9.44-9.72,21.558-19.733,21.558-37.33c0-11.66-15.244-39.67-15.917-55.722L617.433,1393.88
		z M295.99,915.742c3.007-12.829,20.783-27.594,36.027-27.594h16.131c28.98,0,64.058,19.637,89.511,25.466
		c16.925,3.869,28.96,6.906,49.172,7.787c26.823,1.159,30.403-9.826,43.529-13.32l24.288,36.331
		c-16.886,11.273-26.901,45.509-33.433,69.419c-24.568,91.688,13.52,125.418-4.177,219.334
		c-10.297,54.356-50.911,89.529-93.57,112.394c-23.417,12.432-45.863,20.133-68.805,33.633
		c-11.163,6.608-20.686,13.222-31.553,19.753c-12.152,7.164-17.803,17.973-27.117,24.092c-8.66-5.843-22.259-19.737-34.225-28.287
		c-12.124-8.77-26.218-14.489-40.408-21.4c-29.545-14.372-56.364-21.854-83.385-39.866
		c-152.655-102.07,10.313-289.793-105.703-367.478l25.443-39.369l28.477,4.088c16.914,1.653,82.106-28.782,104.563-34.929
		c17.291-4.662,43.904-6.116,59.563-3.682c10.69,1.653,19.032,3.227,27.504,7.602C288.785,905.537,290.822,905.25,295.99,915.742
		L295.99,915.742z M69.975,1265.75c7.286,19.436,12.233,27.015,22.349,43.054c4.95,7.873,27.198,32.955,27.198,33.53
		c-24.2,5.659-41.213-3.584-50.15,21.021c-4.947,13.598-9.907,50.532-13.399,57.817c0,0-26.615-20.605-30.798-23.321
		c-7.098-4.668-29.337-12.744-41.303-11.774l-27.415,2.157l0.396-1.664l64.608,72.23l-2.514,2.259
		c-3.384,5.048-24.308,3.303-30.611,4.452c-10.005,1.94-17.191,4.97-25.942,8.175c-10.489,3.881-36.739,18.294-39.252,29.18
		c13.114-0.298,22.141-5.247,37.997-0.991c6.413,1.741,23.417,8.848,29.722,12.925c18.478,11.856,35.956,23.061,53.93,35.296
		c17.982,12.252,35.858,30.521,60.464,11.477c12.043-9.345,22.428-44.636,26.613-62.607c9.817,0,59.948,36.164,75.596,43.054
		c35.668,15.754,45.576,19.636,86.669,19.636h10.402c54.803,0,136.039-57.94,147.104-57.94h7.6c8.929,0,14.747,25.376,17.479,33.73
		c2.238,6.809,3.9,12.745,6.733,18.963c2.514,5.761,9.6,9.246,9.896,12.847l13.324,0.493c54.196,4.179,76.841-65.046,146.142-65.046
		h6.593c15.479,0,18.467,1.94,5.938-12.55c-5.643-6.413-10.413-11.559-17.579-16.626c-6.333-4.57-15.085-9.129-23.237-11.86
		c-8.451-2.712-26.623-0.294-24.883-6.984c3.7-13.622,14.586-37.632,21.576-48.045c4.771-7.086,31.194-32.837,31.592-36.837
		c-34.698,0-43.25,4.771-67.063,15.559c-9.997,4.456-16.431,11.281-24.109,17.679c-5.327,4.493-17.479,17.694-20.785,19.953
		c-7.284-15.183-10.891-39.589-17.876-56.22c-9.146-21.873-14.193-28.286-45.766-28.286h-3.784c-8.372,0-12.052,2.336-17.99,2.829
		c0.394-1.361,34.4-27.81,40.046-34.916c10.965-14.192,19.813-29.258,27.296-46.639c34.878-80.522,1.068-117.273,7.759-202.528
		c4.493-56.869,11.006-75.913,35.868-113.166l1.07-0.66l-33.81-51.526l-1.365,0.958c-19.438,5.157-15.163,14.192-51.307,14.192
		h-1.841c-11.936,0-66.056-18.28-79.673-22.755c-22.247-7.382-58.91-13.312-88.243-13.312h-1.931
		c-47.239,0-83.385,2.911-122.042,11.759c-20.123,4.582-33.819,8.076-50.843,15.558c-10.965,4.75-36.443,16.321-50.02,16.321H75.881
		c-11.163,0-12.629-4.742-21.764-4.742l-35.561,53.851c0.88,2.12,14.192,16.153,17.982,22.648
		c2.83,4.868,11.271,22.761,12.521,27.313C78.904,1121.059,29.931,1158.896,69.975,1265.75L69.975,1265.75z" />
		<path fill="#FFFFFF" stroke="#010101" stroke-width="1.0694" stroke-miterlimit="10" d="M327.938,1177.357
		c2.731,1.77,3.602,5.154,5.938,7.303c2.336,1.741,3.802,4.175,5.247,6.513c2.136,1.456,2.829,4.186,4.654,5.931
		c1.957,1.641,3.8,3.392,5.165,5.749c2.634,2.91,5.07,6.005,8.272,8.331c2.795,2.437,2.416,6.811,5.348,9.058
		c1.94,1.94,4.454,3.394,5.899,5.83c1.563,2.731,3.899-0.881,5.166-2.139c1.863-1.466,1.563-3.029,0.574-4.958
		c-0.495-3.206-2.913-5.532-4.177-8.453c-1.563-2.245-2.733-4.759-4.477-6.797c-1.346-2.939-3.284-5.355-5.027-7.999
		c-0.891-2.039-1.781-4.159-3.425-5.721c-2.038-1.948-3.009-4.572-4.947-6.513c-1.07-2.139-2.812-3.89-3.7-6.226
		c-0.87-2.909-3.286-4.948-5.622-6.799c-2.909-2.437-5.266,0.958-7.6,2.226c-2.514,0.791-5.029,2.039-6.593,4.176l-0.277,0.297
		L327.938,1177.357L327.938,1177.357z" />
		<path fill="#FFFFFF" stroke="#010101" stroke-width="1.0694" stroke-miterlimit="10" d="M246.622,1176.483
		c-2.147-1.068-2.828,3.802-4.583,5.553c-1.345,1.355-2.039,2.416-3.196,3.684c-1.643,1.664-3.296,1.951-4.564,3.205
		c-0.979,0.881-1.563,3.604-1.851,5.06c-0.285,1.078-11.946,15.368-12.439,17.409c-0.477,2.128-3.208,3.294-4.079,4.188
		c-1.564,1.541-2.049,2.909-3.207,4.087c-1.456,1.445,2.228,12.335,3.207,11.067c1.168-1.533,2.039-2.523,3.207-3.682
		c1.366-1.378,2.028-2.548,3.196-3.714c1.374-1.346,2.544-2.03,3.7-3.196c1.653-1.653,1.751-2.524,4.087-3.692
		c1.743-0.793,2.913-2.534,3.682-4.1c0.795-1.531,2.249-2.699,3.207-3.682c1.456-1.455,2.534-2.038,3.702-3.196
		c1.345-1.464,2.038-2.544,3.207-3.71c1.563-1.554,1.851-2.227,3.7-3.207c1.535-0.763,2.524-2.434,3.187-3.7
		c0.891-1.643,2.436-2.327,4.187-2.703c1.951-0.505,3.009-1.751,4.069-2.829c1.751-1.753,1.959-1.455,3.235-2.731
		c0.663-0.665,0-5.822,0-6.891c0-2.722-0.989-3.404-1.861-5.058c-0.683-1.453-3.117-1.951-4.572-2.326
		c-1.938-0.493-5.146,0.188-6.413,0.478C248.087,1173.191,247.286,1175.021,246.622,1176.483L246.622,1176.483z" />
		<path fill="#243E90" d="M290.932,971.364c-0.485,0-1.07,0-1.563,0c-2.524,0.188-4.958,0.772-7.097,2.326
		c-2.701,3.017-8.056,2.809-9.62,6.888c0.189,5.749,8.167,5.168,12.056,7.204c4.762,1.454,6.115,7.969,11.383,8.649
		c3.978,2.437,9.402,4.663,10.193,9.928c1.455,4.266-0.979,8.452-2.324,12.34c-1.959,3.702-4.881,6.908-8.552,8.947
		c-0.98,0.87-2.039,1.643-3.207,2.336c-1.456-0.188-3.129-0.188-4.66-0.188c-1.863,0.077-3.89-0.208-5.741,0.365
		c-1.178,1.959-2.624,3.899-4.958,3.502c-2.228-0.088-4.662,0.287-6.802-0.285c-2.047-0.783-3.095-3.79-2.622-5.732
		c1.266-0.87,5.235-1.453,6.026,0.188c2.516,0.98-0.494-2.229-1.187-3.097c-0.267-1.089-4.444-3.02-5.029-1.959
		c-2.039,1.078-1.376,5.266-3.792,5.849c-2.245,1.247-5.058-2.544-7.015-2.731c-2.326-0.29-3.671-0.098-6.008,0.485
		c-1.751,0.681-2.041,1.553-4,1.453c-2.226,0.585-3.097,2.831-3.977,4.762c-0.1,1.938-0.763,4.581,0.188,6.334
		c0,2.148,1.276,3.307,3.415,2.909c1.831,0.475,3.099-0.585,4.958-0.098c1.456-0.09,4.95,0.572,2.516,2.326
		c-0.583,0.681-4.473,1.365-2.039,1.851c2.149,0.87,4.375-1.644,4.285-3.682c0.375-2.148-0.573-3.515-2.622-3.702
		c-1.949-0.881-4.098-0.403-5.928-1.168c-2.041-0.683-2.336-2.434-1.851-4.583c-0.396-2.325,2.039-3.671,4.075-3.671
		c1.961-0.2,2.626-0.485,4.573-0.2c2.128-0.098,3.009,2.426,4.454,3.684c1.671,1.861,2.336,4.375,1.863,6.809
		c-0.477,0.981-1.466,4.08,0,4.08c1.264-1.831,3.592-0.961,5.531-0.961c2.326-0.098,5.641,0.296,7.877-0.285
		c1.07-0.585,3.108-2.644,5.255-4.583c2.229-1.841,3.784-3.592,4.85-3.781c1.653-0.881,3.009-1.753,4.87-1.276
		c-0.989,1.068-1.861,2.337-2.149,3.9c-2.622,4.175-3.415,9.718-6.701,13.122c-1.671,0.962-2.247,3.979,0.477,3.604
		c0.396,4.167-3.099,8.452-0.585,12.342c4.485,2.813,10.59,0.478,15.658,1.456c7.571,0,15.143,0.484,22.733-0.188
		c0.478-0.586,0.376-1.16,0.277-1.852c-0.67-1.378-1.07-3.209-1.247-5.058c1.07,0.296,2.514,0.296,2.812,0.189
		c0.395-0.09-1.364-2.523-2.137-3.021c-0.495-0.376-0.495-0.581-0.851-0.661c0,0,0.06-0.107,0-0.107
		c0.06-0.973,0.06-1.854,0.178-2.722c0.079-1.565,0.178-2.622,0.298-3.684c0.477,0.482,0.949,1.062,1.563,1.455
		c0.575,0.287,1.249,0.663,1.741,1.168c0.672,0.583,1.445,1.061,2.336,1.17c0.654,0.099,1.348-0.188,1.74-0.692
		c0.675-0.772,1.525-1.269,2.139-2.039c0.476-0.485,0.277-1.062,0.277-1.643c0-1.081-0.891-0.496-1.147,0
		c-0.693,0.76-1.663,1.541-2.733,1.354c-0.791-0.2-1.267-0.881-1.841-1.354c-0.693-0.496-0.989-1.17-1.169-1.961
		c-0.197-1.269-0.395-2.622-0.299-3.968c2.516-3.812,4.376-7.979,6.513-12.068c0.396,0.388,3.307,3.992,4.177,5.843
		c0.771,1.464,3.702,2.414,5.248,2.81c1.84,0.396,6.411,0.574,8.274,0.574c0.572,0,2.236,1.861,2.613,1.959
		c0.95,0.586,0.475-2.533,0.475-3.304c0-2.624,2.457-3.404,4.771-2.911c3.027,0.587,3.027,1.06,4.177,3.388
		c0.098,0.394-0.793,1.276-1.94,2.336c-1.187,1.079-2.041,0.869-2.414,1.079c-0.693,0.581-1.088,1.453-1.466,1.83
		c-1.761,1.771-0.297,4.683,0.772,6.04c0.969,1.166,0.693-3.496,2.041-4.188c1.563-0.761,2.039-2.039,3.384-3.387
		c1.464-1.455,1.168-1.455,1.168-4.185c0-2.245-1.643-3.117-2.988-4.475c-1.089-0.971-3.802-0.583-5.266-0.583
		c-2.613,0-2.139-1.664-2.139-4.178c0-1.355-3.602-1.671-4.925-1.671c-3.901,0-0.793,2.057,0.748,2.436
		c1.466,0.404,1.35,3.603,0.772,4.188c-0.67,0.683-1.643,1.451-2.711,1.751c-1.147,0.394-2.313,0.21-2.93,0.21
		c-1.05,0.077-2.118-0.11-2.613-0.21c-1.266-0.3-4.67-3.305-4.949-4.265c-0.474-1.959-1.938-3.019-2.332-4.772
		c0.295-0.87,0.394-1.661,0.493-2.434c0.771,0.396,1.641,0.772,1.839,0.772c1.745,0.394,1.845,0,0.795-1.355
		c-0.122,0.105-1.466-0.774-2.457-1.061c0.2-2.544-0.1-5.165-0.177-7.778c0-1.081,0-2.149,0.077-3.207
		c0.1,0.079,0.3,0.287,0.3,0.377c0.573,1.166,3.127,0.396,4.177,0c0,0-2.713-2.623-3.009-3.001c-0.673-0.692-0.95-1.088-1.365-1.187
		c0-1.643,0-3.386-0.277-5.039c0.1,0,0.1,0,0.177,0c1.466,0,1.664,0.871,3.228,1.545c1.427,0-2.354-2.148-2.632-3.604
		c-0.298-1.061-0.971-1.248-1.466-1.248c-0.356-1.751-0.772-3.602-1.346-5.353c0.277,0.085,0.475,0.085,0.772,0.085
		c1.839,0,2.135,0.21,3.78-1.168c1.563,0-2.514-1.348-4.078-1.348c-0.1,0-1.345,0-1.643-0.69c1.17-0.08,3.979-0.19,5.721-0.585
		c1.663-0.396,1.84-1.269,1.959-1.85c-0.396,0.208-1.171,0.495-1.959,0.581c-1.346,0.3-2.414,0-3.207,0c-1.068,0-2.216,0-3.305,0
		c-0.673-1.453-1.445-2.812-2.536-4.154c-0.177-0.29-0.375-0.693-0.673-0.979c0.396-0.11,0.795-0.189,1.171-0.189
		c1.365,0,2.256,0.079,3.483-0.581c1.188-0.495,1.563-0.795,3.247-2.326c-0.415,0.079-2.256,0.761-3.129,0.761
		c-0.87,0.109-3.007-0.188-3.798-0.188c-1.348,0-1.622,0-2.713,0c-0.298-0.416-0.594-0.779-0.891-1.158
		c0.791-0.416,1.682-0.881,2.354-1.464c0.672-0.783,2.415-1.476,3.404-2.345c0.081-0.189,1.822-2.226,1.35-1.94
		c-1.148,0.485-2.614,0.675-3.9,1.357c-1.82,0.869-5.304,0.188-6.513,0.188c-0.275-0.297-0.652-0.664-0.95-1.06
		c-3.698-2.81-8.473-3.502-12.925-4.473C298.425,971.945,294.634,971.253,290.932,971.364L290.932,971.364z M333.401,989.525
		c0.298-0.188,0.476-0.289,0.18-0.289C333.479,989.337,333.479,989.446,333.401,989.525L333.401,989.525z" />
		<path fill="#ED2224" stroke="#010101" stroke-width="1.0694" stroke-miterlimit="10" d="M305.697,1008.002
		c-2.325-0.681-4.177-2.613-6.513-3.196c-2.226-0.98-4.66-1.068-6.986-0.98c-2.436,0-4.87,0-7.314,0.1
		c-0.652,0.285-7.363,1.068-8.044,1.17c-2.041,0.476-4.079,1.456-6.226,1.059c-2.228,0.397-4.473-0.08-5.928-1.831
		c-2.041-0.87-3.099-3.513-1.17-4.98c1.563-0.949,0.395-2.118-0.95-1.443c-1.959,0.396-3.602,1.841-4.475,3.702
		c0.188,2.324,0.288,5.048,2.118,6.799c1.853,1.466,4.297,2.039,6.733,1.861c0.762,0.079,3.859,0.477,4.758,0.477
		c1.535,0.188,3.099,0.099,4.654-0.396c2.524-1.26,5.355-1.067,7.879-2.148c3.682-0.95,7.461-0.66,11.173-0.762
		c2.622,0.179,5.135,1.159,7.671,1.655c0.958,0.97,4.563,1.067,2.731-0.894L305.697,1008.002L305.697,1008.002z" />
		<rect x="297.732" y="937.823" fill="#010101" width="2.432" height="9.708" />
		<path fill="#DB1F26" stroke="#010101" stroke-width="1.0694" stroke-miterlimit="10" d="M295.406,948.701
		c-1.563,0-2.632-0.189-3.712,0.881c-0.661,0.681-1.831,1.651-2.514,2.434c-0.87,0.869-3.304,6.216-1.168,6.216
		c1.563,0,6.226,0.288,7.681,0.288c1.266,0,1.168-1.949,1.168-3.287c0-1.948,0-2.057,0.285-3.414
		C297.545,950.152,296.96,948.986,295.406,948.701L295.406,948.701z" />
		<path fill="#DB1F26" stroke="#010101" stroke-width="1.0694" stroke-miterlimit="10" d="M282.669,951.716
		c-0.772,0.772-1.565,1.643-1.753,2.621c-0.475,1.644-0.188,2.645,0.3,3.594c0.968,1.859,3.019,0.108,3.117-0.21
		c0.188-0.662,0.871-4.443,1.751-5.819c0.762-1.248,3.286-2.324,3.286-2.999c0-0.506-2.524,0-4.087,0.675
		C283.746,950.262,283.142,951.233,282.669,951.716L282.669,951.716z" />
		<path fill="#010101" d="M301.906,941.017c0.885,1.644,0.191,3.603-1.364,4.476c-1.643,0.868-3.582,0.207-4.452-1.377
		c-0.791-1.534-0.21-3.573,1.346-4.454C299.077,938.871,301.034,939.454,301.906,941.017L301.906,941.017z" />
		<path fill="#243E90" d="M240,952.191c-0.573,0-1.158,0.11-1.741,0.11c-0.297-0.11-2.624,0-3.494,0.287
		c-0.485,0.108-1.653,0.394-2.813,0.693c-0.581,0.177-1.079,0.364-1.563,0.475c-0.475,0.189-3.097,1.644-3.415,2.139
		c-1.741,1.751-3.394,3.603-4.265,5.83c-1.563,2.435-1.455,5.355-1.455,8.077c-0.394,2.436,0.583,4.772,2.226,6.415
		c1.089,1.751,3.813,2.909,5.058,4.57c1.376,2.041,2.733,3.314,3.889,5.453c0.398,1.831,0.585,4.74-1.355,5.828
		c-2.83,0-5.63-0.188-8.462-0.107c0-0.585,0-1.16,0-1.644c-6.601-6.216-16.133-11.964-25.266-13.135c-0.079,0-0.079,0-0.079,0
		c-0.583-0.477-1.376-0.968-1.456-1.643c0.079-0.493,0.079-1.08,0.475-1.366c0.288-0.295,0.288-1.067,0.871-1.166
		c0.298-0.09,1.276-0.297,0.772-0.664c-0.772-0.394-1.533-0.296-2.414-0.296c-0.102,0-0.2,0-0.29,0.088
		c-0.393,0.098-0.978,0-1.186,0.575c-0.585,0.98-0.952,2.038-0.862,3.204c0,0.396,0,0.791,0,1.17
		c-2.031,0.098-4.087,0.288-5.918,0.971c-4.772-0.575-17.797-4.465-24.022-4.177c-2.039,0.21-3.305,0.791-3.384,2.04
		c4.947,2.245,24.672,2.435,23.989,5.531c-7.094,0.426-37.895,5.086-44.885,6.621c-2.83,12.738,20.013,7.304,28.575,10.035
		c-1.466,0-3.019,0-4.375,0.367c-2.148,0.298-10.009,1.861-12.154,2.049c-5.247,0.1-10.601,0.969-15.756,1.16
		c-1.535,0-2.516,0.098-2.416,1.957c-1.663,0.683-5.532-0.108-7.304,0.289c-0.575-0.102-0.477,1.354,0.393,1.642
		c1.753,0.98,3.712,1.463,5.643,1.266c1.741,0,22.161-3.494,33.047-5.532c-8.472,5.345-21.684,7.778-30.613,13.511
		c-2.829,2.039-9.609,4.475-14.479,7.384c-2.436,1.454-7.79,4-8.66,5.847c-0.952,1.753,1.564,2.812,3.604,5.039
		c3.305,0.693,6.909,0.791,10.488,0.496c1.556-0.871,7.483-3.99,7.969-4.285c0.098-0.08-1.751,2.049-3.207,3.602
		c9.82-1.74,19.933-6.115,27.504-10.303c2.336-0.574,3.9-0.791,4.86-0.87c-5.643,1.931-17.774,12.054-21.28,12.549
		c-4.748,1.743-8.252,5.633-13.312,6.493c-2.324,0.605-4.87,2.137-6.909,3.307c-1.543,0.287-5.533,1.563-6.997,2.336
		c-1.348,0.681-0.179,1.177-0.387,3.009c-1.256,3.413-5.04,1.374-7.679,2.54c-1.751,0.873,0.604,4.188,1.761,3.099
		c2.632-0.96,6.018-1.455,9.135-3.89c3.881-1.168,37.214-20.495,40.125-22.444c1.851-2.04,4.287-3.506,6.413-5.149
		c-0.377,0.585-0.772,1.17-1.355,2.039c-2.624,3.684-10.305,11.175-13.024,13.034c-12.739,10.197-23.894,22.261-34.502,34.603
		c-2.999,0.575-15.63,13.124-16.123,15.746c-0.595,2.523,10.499,4.475,14.955,3.108c0.791-0.585,1.957-1.258,3.225-1.938
		c1.246-2.724,6.018-13.609,6.414-14.59c0.077-0.476-1.564,8.451-2.436,12.153c2.136-1.268,4.475-2.722,6.621-4.475
		c1.92-1.553,3.671-3.302,5.325-4.949c1.366-3.415,7.096-17.111,7.591-18.378c0.08-0.475-1.264,7.284-2.354,12.637
		c0.396-0.395,0.791-0.782,1.089-0.988c4.252-3.494,8.629-6.799,12.231-10.768c0.505-0.881,1.661-2.334,3.304-4.087
		c0.3-1.158,2.149-9.343,2.228-10.105c0-0.206,0.506,3.879,0.791,7.096c4.95-4.867,11.363-10.4,14.38-12.738
		c-2.336,2.516-4.077,5.532-6.115,8.254c-4.188,3.316-6.622,8.077-10.888,11.283c-3.304,4.473-7.017,7.871-10.115,12.55
		c-2.324,3.871-37.995,41.994-40.321,46.836c-3.099,2.254,1.644,3.425-1.465,5.561c-2.516,2.418-3.969,6.999-7.571,8.632
		c0.485,1.198,2.721,1.671,3.682,0.988c1.751-1.274,4.662-4.375,5.056-5.938c2.041-1.553,3.702-3.386,5.06-5.422
		c1.464-1.962-0.683,0.077,0.583-1.962c1.851-4.265,33.334-41.311,36.244-45.488c2.919-3.414,5.145-7.394,8.264-10.698
		c4.562-5.541,9.797-10.413,14.282-15.945c-5.531,10.194-13.907,24.598-16.608,28.287c-7.383,10.888-12.152,23.25-19.933,33.938
		c-8.849,13.223-10.303,29.732-19.042,42.975c-0.396,5.721-13.609,32.354-13.907,35.273c-0.08,1.366,9.055,0.493,10.59,0.208
		c1.673-0.298,3.129-0.881,4.477-1.751c2.731-1.563,5.058-4.098,6.917-6.909c1.535-2.336,2.989-4.287,4.08-6.515
		c0.098-2.047,0.95-14.773,0.95-15.852c0-0.378,1.197,5.343,2.039,9.628c0.505-0.772,0.903-1.454,1.386-2.326
		c1.841-2.909,3.782-6.126,5.235-8.261c2.336-3.783,4.958-8.653,7.682-14.106c-0.398-4.473-1.17-15.261-1.358-16.341
		c0-0.476,2.228,6.218,3.871,11.193c4.87-9.926,9.716-20.804,14.093-29.545c-0.088-1.671-0.773-9.638-0.871-10.323
		c0-0.188,2.136,3.702,3.305,5.931c2.246-4.377,4.364-7.969,6.224-10.117c3.492-6.118,10.294-27.297,15.142-26.634
		c-4.079,6.623-5.53,15.647-10.48,21.594c-1.751,8.93-16.608,37.424-17.884,44.51c-3.592,8.66-9.322,16.34-11.461,25.584
		c-3.017,7.097-6.917,13.708-9.718,20.806c-3.684,7.095-9.324,16.716-11.075,24.683c-0.871,2.247,0.2,3.117,0.297,4.761
		c0.08,1.673-0.791,3.999-2.733,5.643c-1.851,1.168-4.66,5.155-5.928,7.789c-1.158,2.626-2.149,3.89,1.643,3.119
		c3.415-2.544,6.611-7.594,8.077-11.384c0.683-1.961,4.185-9.642,5.056-11.396c1.851-4.175,8.662-20.695,10.986-24.593
		c3.394-6.107,30.405-76.201,33.135-83.315c2.613-5.831,6.803-15.253,10.086-22.536c-2.515,13.319-11.946,27.987-13.104,40.826
		c-3.604,12.438-14.392,23.912-10.393,37.629c-9.343,19.141-12.539,40.431-17.202,60.947c-0.783,4.66-2.436,11.856-4.581,18.27
		c-1.06,3.196-4.456,7.196-4.456,9.63c0.08,2.446,3.506,3.396,7.096,4.375c7.363-1.562,10.382-6.324,12.341-11.856
		c0.08-2.634,0.367-12.847,0.367-13.797c0-0.396,0.693,6.703,1.088,10.295c0.95-1.852,2.701-4.375,4.077-7.099
		c1.831-3.7,3.017-7.571,4.454-8.55c1.079-1.851,3.7-7.889,6.434-13.817c-0.396,0.208-0.791,0.396-1.088,0.583
		c0-1.058,1.376-30.523,1.376-32.747c0-0.881,2.326,16.123,3.286,23.9c1.662-3.968,3.019-7.571,3.019-10.589
		c0.793-6.226,3.898-12.341,6.038-18.569c0.375-0.97,0.871-2.908,1.535-5.058c-0.762-4.077-3.386-18.765-3.781-20.03
		c-0.09-0.478,3.494,6.421,6.217,11.964c0.989-2.811,1.957-5.343,2.732-6.513c2.226-3.099,4.265-9.352,6.036-15.251
		c0.189-0.505,0.269-1.198,0.477-1.674c-0.21,0.19-0.288,0.396-0.477,0.478c-0.206-0.665-4.768-20.121-5.264-21.576
		c-0.08-0.477,5.343,10.115,7.59,14.59c3.207-11.57,6.888-25.278,8.056-26.148c0.783-0.673,1.376-0.96,2.326-0.783
		c-2.723,9.325-6.89,28.495-8.837,32.968c-0.881,7.871-12.531,64.365-14.965,71.835c-3.207,7.889-3.019,16.341-6.889,24.01
		c-3.417,8.664-5.159,17.797-9.72,25.955c0,5.659-10.511,10.706-4.662,14.29c1.643,6.434-11.173,8.848-8.845,14.013
		c7.292-2.434,11.449-9.242,14.38-15.835c1.07-3.601,8.167-17.793,12.639-32.193c4.454-14.491,6.413-29.159,7.384-32.861
		c0.477-1.643,19.419-90.709,19.804-92.648c0.801-2.038,2.257-4.57,2.83-7.008c0.088-0.188,0.088-0.476,0.2-0.661
		c0.681,0.476,1.264,0.078,1.264,2.435c0,2.118-2.336,16.704-4.295,28.96c3.79-2.041,9.037-4.573,8.77-4.367
		c-0.683,0.774-8.375,9.8-9.928,11.551c-0.188,1.563-0.671,4.187-0.771,5.345c-0.871,5.058-1.851,15.756-2.624,25.474
		c2.812-2.413,6.414-5.324,6.208-5.056c-0.477,0.791-5.83,10.69-6.791,12.46c-0.396,5.83-0.683,10.775-0.495,11.469
		c-0.375,3.594-3.792,17.786-3.492,23.617c0.286,5.83,2.722,3.206,9.422,0.692c1.662-1.959,3.127-3.997,4.365-6.146
		c-0.288-1.644-1.533-9.798-1.743-10.48c0-0.296,2.546,2.801,4.477,5.53c3.602-7.204,5.928-14.886,8.077-22.347
		c-2.247-4.395-5.94-11.681-6.434-12.443c-0.267-0.394,4.473,4.069,7.885,7.464c0.29-0.871,0.585-1.752,0.772-2.624
		c3.384-6.589,5.247-19.825,6.414-31.296l-0.09,0.11c-0.316-0.396-7.394-12.265-7.967-13.137c-0.297-0.296,5.425,4.477,8.642,7.275
		c0.683-7.275,1.078-13.102,1.443-14.765c0.803-2.813,0.803-5.644,1.465-7.79c0.286-1.048,0.683-1.93,1.564-2.611
		c0.098,0,0.188-0.087,0.287-0.087c-0.287,3.682-0.287,11.471-0.1,12.339c0.387,3.021-0.088,6.118-0.088,9.137
		c0,2.544-1.565,13.797-1.851,17.104c-1.278,2.334-3.979,11.965-4.562,14.301c1.454,0.87,3.396,1.751,2.524,3.989
		c-0.11,2.523-1.674,4.86-2.624,7.294c-1.078,1.631,0.583,3.097,1.456,1.443c2.809-2.137,6.888-29.067,7.679-31.691
		c0.477-4.179,0.08-8.362,0.189-12.541c0.1-3.503-0.11-18.278-0.189-22.159c1.16-0.2,2.229-0.485,2.514-0.594
		c0.585-0.287,2.148,0,2.624,0.881c0.871,1.741,1.17,45.398,1.959,49.111c4.563,5.817,7.076,0.267,9.322-5.17h-0.098
		c0-0.285-0.098-8.261-0.098-8.835c-0.098-0.208,1.176,2.038,2.136,4.077c0.783-1.644,1.653-2.832,2.523-2.724
		c0.596-2.731,1.07-5.541,1.545-8.373c-0.762-1.534-3.967-9.026-4.265-9.611c-0.188-0.188,2.622,2.328,4.95,4.477
		c0.881-7.394,1.178-14.777,0.989-22.161c0-2.146-0.783-5.74,0.08-6.906c0.603-0.772,1.366-0.772,2.246-0.693
		c0,2.434-0.098,4.958,0.108,7.394c1.06,2.137,0.87,4.57,1.16,6.799c-0.098,1.751,0.595,10.224,0.483,12.739
		c0.29,2.719-0.108,7.094,0.683,9.718c0.379,0.574,0.773,0.972,1.06,0.21c0.396-0.791,0.19-3.307,0.593-3.702
		c0.683-1.068,0.477-1.068,0.871-2.227c0.288-1.753-0.483-13.43-0.979-14.479c-0.377-1.387-0.198-2.336-0.09-3.79
		c-0.108-1.275-0.21-2.654-0.287-3.999c3.494,9.53,15.252,21.873,3.017,29.257c-13.322,8.177-19.438,23.239-27.039,35.977
		c-1.831,1.456-4.66,4.188-6.888,8.167c-1.079,2.038-8.362,1.851-8.254,2.821c0,0.583-1.466,6.315,0.396,7.473
		c1.831,1.187,6.988-2.326,7.946-2.813c6.799-2.039,14.49-13.896,17.688-7.571c8.177-5.264-0.189,9.324,6.136,11.57
		c-1.366,8.632-3.989,28.475,6.888,30.139c-3.386-10.512-5.424-25.079,0.772-35.215c6.434-9.707,10.886-25.652,13.135-33.521
		c-0.475,2.434,0.1,6.401,1.355,9.907c0,0.791,0.1,1.659,0.493,2.829c0.477,6.414,0,12.818-0.098,18.56
		c7.969,0.979,1.643,18.963-5.749,11.566c-3.097-3.384,8.552-7.196,0.297-6.698c-6.018,0.868-7.284,7.493-2.226,10.192
		c-4.562,0.791-10.698,5.929-7.384,11.493c5.525,1.346,8.731,6.224,3.484,9.431c6.919,2.724,10.195-9.641,2.336-9.431
		c-6.126-3.416-1.058-7.493,3.604-6.246c4.464,1.079,9.61-10.192,10.115-2.226c-1.671,6.413-3.217,14.588-9.532,18.191
		c-4.295,1.346-10.005,4.771-7.286,10.006c2.516-5.832,12.233-2.516,13.501-10.698c0.483-3.099,4.76-9.822,2.919-2.516
		c-3.106,6.515-6.224,13.214-10.411,19.044c-3.207,3.792-9.135,12.439-4.76,15.848c4-6.315,8.76-12.354,11.094-19.636
		c0-3.493,5.048-9.426,2.911-2.613c-1.466,7.192-2.811,14.479-6.523,20.993c-2.611,6.413-4.552,14.091-10.482,18.172
		c-4.87,3.404-12.629-5.345-5.531-6.891c3.682,0.478,1.931,8.55,5.531,3.009c3.979-6.038-1.168-11.383-5.246-14.47
		c6.403-3.909,5.325-12.671,6.116-19.072c-2.039-5.83-10.115-10.404-15.25-5.532c-7.383,3.306-3.304,12.626,3.979,11.647
		c2.83-3.396-5.435-11.855,3.307-9.907c7.759,1.565,3.097,11.661-2.326,13.422c-6.333,1.831-16.054,3.001-14.015,12.052
		c-4.265,1.269-10.768-12.052-3.196-12.341c7.096-3.226-7.094-5.153-7.769,0.477c-4.364,4.077,6.303,15.073-3.592,11.571
		c-5.533,0-12.343-1.664-16.816,2.336c-5.345,4.668-2.118,13.993-10.303,16.406c-0.693,4,4.365,9.442-2.921,8.375
		c-3.592,2.254-0.683,6.813,2.049,3.009c3.7,0.791,6.513,3.8,10.4,0.396c3.684,0.493,11.067,3.204,6.02,7.697
		c-3.792-6.156-5.93,3.188,0,3.363c7.779-0.75,8.064-12.431,1.741-15.636c1.168-3.307,8.66-6.69,3.898-11.855
		c-0.771-5.149-12.45-5.149-5.938-0.396c5.453,4.749-12.043,1.186-6.116-4.75c3.315-4.868,12.529-8.75,16.043-2.435
		c1.356,5.741,1.07,12.15,3.979,17.397c1.938,5.94,10.59,4.276,12.727,7.975c-2.534,1.945-13.607,3.783-4.66,6.69
		c6.888,1.565,0.783,9.643-3.009,3.608c-1.653,6.906,12.233,8.252,13.214,0.971c1.456,2.454,5.533,8.37,7.088,1.74
		c-1.081-7.759,8.64-5.349,12.935-8.533c9.897-7.681,14.855-19.835,16.706-31.87c1.16-7.413,2.724-14.601,3.305-22.09
		c1.643,3.701-0.108,10.689,0,15.754c-0.683,8.256-2.542,16.333-4.473,24.486c-2.226,7.481-4.662,15.934-11.273,20.924
		c-3.602,2.116-6.311,1.521-7.282-1.981c-4.564-1.146-3.207,6.234-7.977,4.595c-1.158,3.385,6.699,6.019-0.08,8.848
		c-7.207,0.967-8.947,10.49-4.77,15.559c3.582,6.312,16.133-1.664,6.998-4.098c-6.118-0.18-0.87-5.427,2.911-3.388
		c3.394,0.97,2.919,8.354,8.344,7.563c0.506-2.137-3.582-5.521,1.672-5.92c7.196-0.294,3.386-11.856,10.005-14.367
		c4.771-2.932,5.056-14.49,6.986-15.086c0.982,7.086-3.007,13.52-6.986,18.963c-3.502,4.554-4.762,10.886-6.224,15.456
		c-7.858,1.468,5.343,3.563,8.55,3.686c2.336,0.298,3.892,3.682,4.96,5.94c0.583,1.068,1.563,3.404,2.534,3.303
		c0.85-0.195,1.751-2.829,2.048-3.303c1.158-2.259,2.802-5.643,5.027-5.94c3.307-0.122,16.529-2.218,8.552-3.686
		c-1.348-4.57-2.703-10.906-6.117-15.456c-3.979-5.443-8.044-11.877-6.986-18.963c1.929,0.592,2.134,12.154,6.908,15.086
		c6.69,2.511,2.911,14.073,10.096,14.367c5.167,0.396,1.088,3.783,1.563,5.92c5.543,0.791,4.927-6.593,8.431-7.563
		c3.723-2.039,9.048,3.208,2.93,3.388c-9.223,2.434,3.404,10.409,6.988,4.098c4.098-5.068,2.336-14.588-4.848-15.559
		c-6.713-2.829,1.168-5.463-0.102-8.848c-4.748,1.644-3.404-5.74-7.856-4.595c-0.991,3.507-3.702,4.098-7.286,1.981
		c-6.632-4.99-9.045-13.442-11.401-20.924c-1.821-8.153-3.682-16.23-4.453-24.482c0.198-5.068-1.661-12.057,0.088-15.758
		c0.585,7.489,2.039,14.677,3.207,22.09c1.851,12.035,6.799,24.189,16.816,31.87c4.274,3.185,13.895,0.774,12.924,8.533
		c1.466,6.63,5.62,0.714,7.088-1.74c0.871,7.281,14.886,5.936,13.204-0.971c-3.781,6.034-9.899-2.043-2.99-3.608
		c8.946-2.907-2.139-4.745-4.671-6.69c2.137-3.698,10.788-2.038,12.727-7.975c2.813-5.247,2.636-11.656,3.88-17.397
		c3.622-6.315,12.826-2.434,16.035,2.435c6.038,5.94-11.459,9.499-6.018,4.75c6.531-4.75-5.147-4.75-6.038,0.396
		c-4.732,5.165,2.829,8.549,3.899,11.855c-6.313,3.205-5.94,14.886,1.861,15.636c5.817-0.175,3.682-9.52-0.101-3.363
		c-5.065-4.493,2.314-7.204,6.019-7.697c3.979,3.404,6.711,0.396,10.492-0.396c2.611,3.8,5.539-0.755,1.938-3.009
		c-7.283,1.072-2.218-4.375-2.811-8.375c-8.154-2.413-5.07-11.738-10.295-16.406c-4.57-4-11.281-2.336-16.826-2.336
		c-9.897,3.502,0.772-7.494-3.604-11.571c-0.75-5.63-14.843-3.702-7.858-0.477c7.581,0.289,1.05,13.609-3.107,12.341
		c2.041-9.055-7.778-10.221-14.015-12.052c-5.404-1.761-10.175-11.856-2.394-13.422c8.827-1.948,0.476,6.512,3.387,9.907
		c7.281,0.979,11.279-8.342,3.975-11.647c-5.245-4.872-13.302-0.298-15.34,5.532c0.771,6.401-0.218,15.163,6.216,19.072
		c-4.079,3.087-9.322,8.432-5.264,14.47c3.602,5.541,1.861-2.535,5.581-3.009c6.968,1.546-0.811,10.295-5.581,6.891
		c-5.918-4.081-7.861-11.759-10.475-18.172c-3.787-6.515-5.065-13.797-6.521-20.993c-2.224-6.813,2.83-0.88,2.92,2.613
		c2.236,7.282,7.086,13.32,10.985,19.636c4.477-3.408-1.464-12.056-4.668-15.848c-4.177-5.83-7.294-12.529-10.403-19.044
		c-1.93-7.307,2.337-0.583,2.832,2.516c1.256,8.183,11.073,4.868,13.589,10.698c2.731-5.235-3.009-8.66-7.286-10.006
		c-6.402-3.604-7.966-11.778-9.609-18.191c0.581-7.967,5.729,3.305,10.205,2.226c4.649-1.247,9.718,2.83,3.603,6.246
		c-7.869-0.21-4.571,12.154,2.218,9.431c-5.146-3.207-2.041-8.087,3.604-9.431c3.305-5.564-2.811-10.698-7.383-11.493
		c5.047-2.699,3.781-9.32-2.219-10.192c-8.382-0.498,3.366,3.314,0.18,6.698c-7.296,7.396-13.701-10.588-5.643-11.566
		c-0.188-5.741-0.663-12.146-0.09-18.56c0.377-1.17,0.485-2.038,0.377-2.829c1.366-3.506,1.951-7.474,1.366-9.907
		c2.246,7.869,6.799,23.811,13.232,33.521c6.217,10.136,4.156,24.703,0.654,35.215c10.888-1.664,8.374-21.507,7.006-30.139
		c6.315-2.246-2.136-16.834,6.118-11.57c3.204-6.324,10.788,5.532,17.597,7.571c1.05,0.484,6.118,3.999,7.979,2.813
		c1.842-1.157,0.476-6.89,0.476-7.473c0-0.971-7.187-0.783-8.354-2.821c-2.236-3.979-5.067-6.711-6.809-8.167
		c-7.684-12.737-13.699-27.8-27.003-35.977c-12.352-7.384-0.593-19.725,2.913-29.257c-0.1,1.348-0.201,2.724-0.201,3.999
		c0.102,1.454,0.201,2.403-0.098,3.79c-0.573,1.048-1.364,12.727-1.087,14.479c0.394,1.16,0.216,1.16,0.991,2.227
		c0.297,0.396,0.195,2.911,0.475,3.702c0.396,0.762,0.793,0.364,1.17-0.21c0.791-2.624,0.396-6.997,0.691-9.718
		c-0.098-2.516,0.495-10.988,0.495-12.739c0.257-2.229,0.079-4.662,1.147-6.799c0.1-2.436,0.1-4.957,0.1-7.394
		c0.791-0.079,1.664-0.079,2.257,0.693c0.772,1.168,0.08,4.76,0,6.906c-0.216,7.384,0.178,14.768,1.048,22.161
		c2.337-2.148,5.068-4.66,4.969-4.477c-0.414,0.585-3.619,8.077-4.275,9.611c0.356,2.832,0.971,5.644,1.543,8.373
		c0.853-0.108,1.644,1.08,2.416,2.724c1.07-2.041,2.234-4.285,2.234-4.077c-0.078,0.574-0.078,8.55-0.178,8.835l0,0
		c2.139,5.437,4.752,10.987,9.322,5.17c0.772-3.713,0.973-47.37,1.845-49.111c0.491-0.881,2.039-1.168,2.632-0.881
		c0.277,0.108,1.445,0.394,2.534,0.594c0,3.877-0.216,18.656-0.216,22.159c0.118,4.179-0.178,8.362,0.216,12.541
		c0.771,2.621,4.85,29.551,7.682,31.691c0.87,1.653,2.634,0.188,1.425-1.443c-0.95-2.438-2.414-4.771-2.514-7.294
		c-0.87-2.238,0.991-3.119,2.514-3.989c-0.555-2.336-3.284-11.967-4.555-14.301c-0.295-3.307-1.841-14.562-1.841-17.104
		c0-3.019-0.475-6.115-0.197-9.137c0.298-0.868,0.197-8.657,0-12.339c0.1,0,0.197,0.087,0.298,0.087
		c0.752,0.682,1.266,1.563,1.543,2.611c0.673,2.146,0.673,4.979,1.366,7.79c0.475,1.663,0.87,7.489,1.466,14.765
		c3.304-2.801,8.946-7.571,8.729-7.275c-0.673,0.872-7.761,12.741-8.057,13.137c0,0,0-0.11-0.1-0.11
		c1.17,11.471,3.029,24.703,6.413,31.296c0.277,0.87,0.496,1.751,0.793,2.624c3.384-3.395,8.154-7.859,7.978-7.464
		c-0.514,0.763-4.298,8.047-6.532,12.443c2.234,7.461,4.553,15.143,8.055,22.347c2.041-2.731,4.591-5.826,4.493-5.53
		c-0.198,0.683-1.366,8.837-1.664,10.48c1.248,2.148,2.712,4.187,4.277,6.146c6.69,2.514,9.223,5.138,9.522-0.692
		c0.179-5.828-3.128-20.021-3.484-23.617c0.178-0.693-0.12-5.639-0.516-11.469c-0.95-1.773-6.295-11.669-6.889-12.46
		c-0.1-0.269,3.407,2.643,6.313,5.056c-0.772-9.718-1.841-20.416-2.632-25.474c-0.179-1.158-0.574-3.781-0.852-5.345
		c-1.464-1.751-9.146-10.776-9.918-11.551c-0.177-0.208,4.95,2.326,8.827,4.367c-2.039-12.256-4.277-26.842-4.277-28.96
		c0-2.356,0.596-1.959,1.289-2.435c0,0.188,0.098,0.476,0.098,0.661c0.673,2.438,2.04,4.97,2.891,7.008
		c0.377,1.939,19.342,91.006,19.735,92.648c1.07,3.702,2.93,18.37,7.401,32.861c4.557,14.396,11.641,28.593,12.711,32.193
		c2.911,6.593,7.007,13.401,14.408,15.835c2.221-5.165-10.529-7.579-8.847-14.013c5.72-3.584-4.689-8.631-4.689-14.29
		c-4.672-8.158-6.315-17.291-9.799-25.955c-3.899-7.669-3.702-16.121-6.809-24.01c-2.437-7.472-14.095-63.966-14.966-71.835
		c-1.959-4.473-6.217-23.643-8.828-32.968c0.951-0.177,1.563,0.11,2.317,0.783c1.068,0.87,4.771,14.578,8.072,26.148
		c2.236-4.475,7.663-15.063,7.464-14.59c-0.377,1.455-5.048,20.911-5.127,21.576c-0.217-0.077-0.414-0.285-0.516-0.478
		c0.102,0.478,0.299,1.169,0.516,1.674c1.742,5.899,3.783,12.152,5.897,15.251c0.872,1.17,1.863,3.702,2.733,6.513
		c2.83-5.543,6.411-12.441,6.234-11.964c-0.296,1.266-2.928,15.953-3.698,20.03c0.57,2.149,1.185,4.088,1.464,5.058
		c2.118,6.224,5.245,12.342,6.018,18.569c0.098,3.018,1.363,6.621,3.007,10.589c0.973-7.779,3.384-24.781,3.384-23.9
		c0,2.224,1.286,31.691,1.286,32.747c-0.295-0.188-0.593-0.375-0.988-0.583c2.731,5.929,5.345,11.967,6.411,13.817
		c1.464,0.979,2.654,4.85,4.396,8.55c1.464,2.728,3.204,5.251,4.175,7.099c0.277-3.592,0.95-10.69,0.95-10.295
		c0,0.95,0.415,11.163,0.415,13.797c2.039,5.532,4.928,10.295,12.432,11.856c3.504-0.979,6.988-1.929,6.988-4.375
		c0-2.434-3.404-6.434-4.475-9.63c-2.041-6.413-3.781-13.609-4.475-18.27c-4.752-20.521-7.959-41.807-17.182-60.947
		c3.88-13.719-6.908-25.19-10.41-37.629c-1.17-12.835-10.591-27.505-13.104-40.826c3.207,7.283,7.384,16.705,10.016,22.536
		c2.714,7.114,29.712,77.208,33.217,83.315c2.336,3.897,9.047,20.418,10.886,24.593c0.893,1.754,4.377,9.435,5.147,11.396
		c1.35,3.79,4.554,8.84,7.977,11.384c3.882,0.771,2.913-0.493,1.644-3.119c-1.169-2.634-4.078-6.621-5.938-7.789
		c-1.821-1.644-2.712-3.97-2.611-5.643c0.098-1.642,1.067-2.514,0.195-4.761c-1.661-7.967-7.382-17.588-10.983-24.683
		c-2.913-7.096-6.69-13.707-9.72-20.806c-2.139-9.244-7.859-16.922-11.461-25.584c-1.348-7.086-16.134-35.58-17.874-44.51
		c-5.05-5.946-6.514-14.971-10.493-21.592c4.851-0.665,11.541,20.514,15.143,26.632c1.743,2.146,3.9,5.74,6.236,10.117
		c1.048-2.229,3.307-6.118,3.206-5.931c-0.12,0.686-0.692,8.652-0.893,10.323c4.377,8.741,9.326,19.617,14.194,29.545
		c1.544-4.978,3.897-11.669,3.798-11.193c-0.098,1.08-0.988,11.868-1.384,16.341c2.733,5.453,5.363,10.323,7.781,14.106
		c1.365,2.135,3.404,5.352,5.184,8.261c0.478,0.872,0.95,1.556,1.329,2.326c0.889-4.285,2.157-10.006,2.157-9.628
		c0,1.078,0.868,13.805,0.97,15.852c1.068,2.228,2.412,4.179,3.978,6.515c1.94,2.812,4.197,5.346,6.889,6.909
		c1.445,0.87,2.911,1.453,4.475,1.751c1.643,0.289,10.788,1.158,10.59-0.208c-0.197-2.919-13.499-29.553-13.797-35.273
		c-8.827-13.242-10.293-29.75-19.042-42.975c-7.779-10.688-12.629-23.05-19.915-33.938c-2.711-3.694-11.163-18.093-16.626-28.287
		c4.475,5.532,9.72,10.404,14.192,15.945c3.206,3.305,5.347,7.284,8.254,10.698c2.93,4.178,34.484,41.224,36.243,45.488
		c1.267,2.039-0.87,0,0.575,1.962c1.484,2.038,3.125,3.869,5.048,5.422c0.512,1.563,3.326,4.66,5.165,5.938
		c0.894,0.683,3.209,0.21,3.604-0.988c-3.504-1.633-4.97-6.218-7.483-8.632c-3.087-2.136,1.563-3.307-1.462-5.561
		c-2.336-4.84-38.106-42.965-40.322-46.836c-3.107-4.679-6.889-8.075-10.195-12.55c-4.295-3.206-6.631-7.967-10.809-11.283
		c-2.038-2.722-3.877-5.74-6.194-8.254c3.106,2.336,9.499,7.871,14.369,12.738c0.38-3.217,0.894-7.302,0.894-7.096
		c0.057,0.763,1.92,8.947,2.218,10.105c1.563,1.753,2.829,3.208,3.206,4.089c3.582,3.967,8.075,7.271,12.252,10.766
		c0.377,0.21,0.772,0.594,1.168,0.988c-1.086-5.353-2.552-13.111-2.334-12.637c0.475,1.267,6.216,14.963,7.582,18.378
		c1.643,1.643,3.386,3.396,5.245,4.949c2.238,1.753,4.454,3.207,6.612,4.475c-0.793-3.702-2.533-12.629-2.336-12.153
		c0.375,0.98,5.146,11.866,6.313,14.59c1.348,0.681,2.514,1.354,3.187,1.938c4.572,1.366,15.558-0.585,15.085-3.108
		c-0.495-2.624-13.145-15.174-16.135-15.746c-10.69-12.342-21.754-24.405-34.599-34.603c-2.716-1.859-10.295-9.351-13.006-13.034
		c-0.495-0.869-0.969-1.454-1.266-2.039c2.136,1.644,4.554,3.109,6.297,5.149c3.027,1.949,36.343,21.276,40.141,22.444
		c3.107,2.435,6.512,2.93,9.245,3.89c1.05,1.089,3.386-2.226,1.762-3.099c-2.654-1.166-6.532,0.873-7.7-2.54
		c-0.197-1.83,0.952-2.328-0.493-3.009c-1.348-0.772-5.425-2.049-6.886-2.336c-2.139-1.17-4.594-2.701-6.913-3.307
		c-5.065-0.86-8.55-4.75-13.32-6.493c-3.583-0.495-15.638-10.618-21.262-12.549c0.973,0.079,2.436,0.3,4.771,0.87
		c7.561,4.186,17.678,8.563,27.573,10.303c-1.443-1.553-3.404-3.682-3.207-3.602c0.495,0.3,6.434,3.414,7.979,4.287
		c3.581,0.293,7.088,0.195,10.393-0.498c2.136-2.226,4.57-3.284,3.699-5.039c-0.87-1.847-6.215-4.393-8.649-5.847
		c-4.949-2.911-11.66-5.345-14.569-7.384c-8.947-5.732-22.049-8.166-30.603-13.511c10.946,2.038,31.375,5.532,33.019,5.532
		c2.038,0.197,3.979-0.285,5.74-1.266c0.87-0.288,0.87-1.743,0.396-1.642c-1.743-0.397-5.74,0.394-7.406-0.289
		c0.103-1.863-0.769-1.957-2.313-1.957c-5.247-0.188-10.591-1.061-15.756-1.16c-2.218-0.188-10.095-1.753-12.154-2.049
		c-1.427-0.367-2.911-0.367-4.354-0.367c8.552-2.731,31.273,2.703,28.465-10.035c-6.889-1.535-37.688-6.195-44.894-6.621
		c-0.675-3.097,19.141-3.286,24.011-5.531c0-1.249-1.269-1.83-3.425-2.04c-6.197-0.288-19.122,3.602-23.893,4.177
		c-1.94-0.683-3.879-0.87-5.92-0.971c0-0.375,0-0.772,0-1.17c0.101-1.168-0.375-2.224-0.87-3.204
		c-0.218-0.575-0.791-0.478-1.266-0.575c-0.101-0.088-0.18-0.088-0.298-0.088c-0.771,0-1.543-0.1-2.336,0.296
		c-0.476,0.367,0.377,0.574,0.793,0.664c0.477,0.099,0.477,0.871,0.85,1.166c0.394,0.286,0.394,0.873,0.516,1.366
		c-0.218,0.675-0.891,1.17-1.485,1.643h-0.078c-9.245,1.167-18.767,6.919-25.258,13.135c0,0.483,0,1.059-0.122,1.644
		c-2.812-0.08-5.522,0.107-8.331,0.107c-1.96-1.088-1.764-3.999-1.387-5.828c1.187-2.139,2.555-3.414,3.897-5.453
		c1.269-1.663,3.902-2.821,4.95-4.57c1.663-1.643,2.733-3.979,2.236-6.415c0-2.722,0.197-5.643-1.366-8.077
		c-0.968-2.228-2.611-4.079-4.373-5.83c-0.179-0.495-2.792-1.949-3.306-2.139c-0.478-0.105-1.05-0.296-1.644-0.475
		c-1.147-0.296-2.336-0.585-2.711-0.693c-0.993-0.287-3.307-0.397-3.507-0.287c-0.572,0-1.264-0.11-1.841-0.11
		c-1.761,0-3.602,0.11-4.968,1.455c-1.643,1.376-9.324,5.563-10.293,7.79c-0.495,2.244-1.172,3.494-1.07,5.948
		c0.101,2.208-0.199,4.752,1.542,6.493c1.386,2.336,4.079,4.087,7.09,3.127c2.257-0.979,4.771-1.466,5.561-3.998
		c0.671-2.13,0.573-4.662,3.405-5.039c0.97,0,3.086-0.318,1.742-1.078c-0.477-0.21-1.268-1.861-1.94-1.959
		c-0.693-0.08-1.543-0.08-2.336-0.08c-1.563,0.08-2.812,2.12-3.305,3.196c-0.396,2.337,0.493,4.87-1.445,6.622
		c-1.563,2.226-4.295,0.583-6.115-0.496c-2.159-1.068-3.128-3.712-2.534-5.918c0-2.346,1.048-4.968,2.889-6.531
		c0.793-0.477,3.504-2.405,4.197-3.001c0.673-0.493,3.384-2.531,4.177-2.621c0.891-0.495,3.029-1.286,4.077-1.081
		c2.435,0,3.604,0,6.018-0.098c3.107,0.188,5.94,2.801,7.781,4.968c2.039,1.356,2.731,3.79,2.514,6.208
		c-0.177,0.979-0.079,2.334-0.079,3.62c-0.2,2.416-5.918,5.325-5.741,6.105c-1.643,2.229-3.604,4.167-5.641,6.049
		c-1.543,2.118-1.17,5.026-0.772,7.461c1.269,1.94,2.911,5.168,5.365,5.455c1.921,0,5.226-0.98,7.262-1.558c0,1.061,0,2.139,0,3.198
		c-0.296,0.108-0.57,0.21-0.87,0.397c-0.573,0.286-2.435,2.722-2.791,3.503c-0.416,0.968-1.188,0.683-2.731,0.683
		c-0.773,0-4.178-0.397-4.593,0.285c-0.078,0.3-0.478,3.099,0.415,3.979c0.751,0.791,0.277,1.266,1.248,2.244
		c0.891,0.873,1.643,1.25,2.632,2.337c0.2,0.098,2.813,2.328,1.942,3.196c-0.477,0.477-1.17,1.565-2.236,2.04
		c-1.17,0.394-2.733,0.188-3.108,0.298c-0.891,0.21-1.661,0.287-2.416,0.287c-1.462,0-3.305-0.396-4.589-0.97
		c-1.17-0.673-1.545-1.258-2.913-1.94c-0.375-0.188-3.086-1.852-1.643-3.305c1.07-1.068,1.643-0.979,3.901-0.979
		c0.654,0,3.089-0.3,2.909-1.059c-0.12-0.397-4.67-2.336-5.168-2.336c-1.443,0-1.761-0.102-2.909,0.475
		c-1.465,0.793-1.365,1.377-1.365,3.603c0,2.041,0.593,2.041,1.365,3.604c0.573,1.268,1.051,1.455,2.234,2.516
		c0.478,0.505,2.139,2.068,3.01,2.246c1.149,0.296,2.533,0.693,4.177,0.693c1.563,0,3.206,0,4.85,0c1.266,0,2.731,0,3.307-1.166
		c0.216-0.397,3.127-2.645,3.127-2.932c0-1.166,0.87-3.207,0.079-3.979c-0.87-0.881-1.35-1.661-2.317-2.621
		c-0.771-0.791-2.137-1.171-2.928-1.957c-0.772-0.763-2.04-2.328,0.691-2.328c2.139,0,2.514-0.288,3.879-0.868
		c1.187-0.693,1.843-2.438,2.812-3.209c0.397,5.93,1.94,11.671,8.552,12.837c0.893,0.772,3.029-0.979,3.702,0.087
		c0.693,0.971,1.266,2.139,1.741,3.307c0.495,1.267-1.048,2.724-1.366,4.188c-0.375,1.443,0.416,2.909,0.318,4.272
		c0,1.258,3.682,2.524,3.304,3.79c-0.413,1.168-0.988,2.229-1.661,3.207c-1.466,2.038-7.483,3.414-10.492,3.999
		c-5.146,3.385-3.603,10.372-8.175,14.666c-4.454,4.188-11.638,4.366-17.379,5.74c-6.811-1.851-11.004,2.328-15.162,6.306
		c-2.039,2.04-4.077,7.383-6.313,7.979c-2.337,0.495-4.868-2.812-7.978-5.83c-3.604-2.624-16.907-2.624-22.644-1.355
		c-5.632-1.269-19.034-1.269-22.648,1.355c-3.007,3.019-5.629,6.325-7.857,5.83c-2.228-0.596-4.265-5.938-6.415-7.979
		c-4.065-3.978-8.362-8.156-15.063-6.306c-5.741-1.374-13.024-1.552-17.499-5.74c-4.552-4.296-2.911-11.281-8.057-14.666
		c-3.017-0.585-9.135-1.961-10.48-3.999c-0.793-0.979-1.278-2.039-1.674-3.207c-0.377-1.266,3.317-2.532,3.205-3.79
		c0-1.363,0.793-2.829,0.397-4.272c-0.397-1.468-1.851-2.921-1.455-4.188c0.477-1.168,1.17-2.336,1.851-3.307
		c0.663-1.067,2.734,0.684,3.574-0.087c6.731-1.168,8.264-6.907,8.562-12.837c1.079,0.774,1.662,2.516,2.93,3.209
		c1.257,0.583,1.643,0.868,3.869,0.868c2.621,0,1.465,1.565,0.693,2.328c-0.871,0.791-2.146,1.166-3.019,1.957
		c-0.979,0.96-1.464,1.74-2.226,2.621c-0.791,0.772,0.08,2.813,0.08,3.979c0,0.287,2.909,2.534,3.117,2.932
		c0.483,1.166,1.941,1.166,3.317,1.166c1.643,0,3.207,0,4.848,0c1.553,0,3.019-0.396,4.175-0.693
		c0.772-0.178,2.524-1.741,3.029-2.246c1.05-1.059,1.535-1.248,2.228-2.516c0.763-1.563,1.256-1.563,1.256-3.604
		c0-2.226,0.188-2.81-1.256-3.603c-1.278-0.572-1.465-0.475-2.921-0.475c-0.581,0-5.058,1.938-5.246,2.336
		c-0.108,0.763,2.326,1.059,2.999,1.059c2.247,0,2.832-0.09,3.812,0.979c1.456,1.455-1.168,3.119-1.565,3.305
		c-1.354,0.683-1.741,1.268-2.917,1.94c-1.258,0.574-3.117,0.97-4.572,0.97c-0.871,0-1.643-0.081-2.416-0.287
		c-0.396-0.108-2.039,0.1-3.117-0.298c-1.17-0.475-1.863-1.563-2.226-2.04c-0.871-0.868,1.751-3.099,1.929-3.196
		c0.979-1.087,1.751-1.464,2.542-2.337c1.062-0.979,0.477-1.453,1.347-2.244c0.881-0.881,0.483-3.684,0.296-3.979
		c-0.394-0.683-3.682-0.285-4.552-0.285c-1.466,0-2.247,0.285-2.734-0.683c-0.395-0.783-2.136-3.217-2.731-3.503
		c-0.396-0.188-0.683-0.289-0.871-0.397c0-1.058-0.098-2.138-0.098-3.198c2.138,0.575,5.345,1.558,7.304,1.558
		c2.416-0.287,4.077-3.515,5.325-5.455c0.495-2.435,0.88-5.343-0.773-7.461c-1.928-1.882-3.998-3.82-5.53-6.049
		c0.188-0.78-5.641-3.689-5.749-6.105c-0.08-1.288,0.108-2.642-0.08-3.62c-0.21-2.418,0.475-4.852,2.514-6.208
		c1.751-2.169,4.66-4.78,7.788-4.968c2.416,0.098,3.582,0.098,6.018,0.098c1.058-0.208,3.196,0.586,4.077,1.081
		c0.683,0.09,3.494,2.128,4.187,2.621c0.683,0.596,3.405,2.524,4.067,3.001c1.861,1.563,2.919,4.186,3.019,6.531
		c0.581,2.21-0.395,4.85-2.624,5.918c-1.741,1.079-4.464,2.722-6.118,0.496c-1.949-1.752-0.98-4.285-1.453-6.622
		c-0.396-1.08-1.753-3.116-3.305-3.196c-0.791,0-1.563,0-2.228,0.08c-0.791,0.098-1.564,1.751-1.957,1.959
		c-1.356,0.76,0.771,1.078,1.641,1.078c2.832,0.375,2.733,2.909,3.514,5.039c0.783,2.532,3.296,3.02,5.543,3.998
		c2.909,0.96,5.641-0.791,7.086-3.127c1.751-1.741,1.356-4.285,1.545-6.493c0-2.454-0.575-3.7-1.06-5.948
		c-0.98-2.227-8.66-6.414-10.401-7.79C243.713,952.301,241.86,952.191,240,952.191L240,952.191z" />
		<path fill="#FFFFFF" stroke="#010101" stroke-width="1.0694" stroke-miterlimit="10" d="M296.562,981.579
		c-0.97-0.289-2.624-1.476-3.888-1.753c-1.268-0.416-2.138-0.604-3.792-0.604c-0.968,0,0.88,1.937,1.753,2.353
		c0.693,0.3,1.563,2.416,1.741,3.001c0.693,1.268,0.88,2.038,1.563,2.623c1.06,1.079,0.871,1.456,2.921,1.456
		c1.741,0,2.801-0.08,3.887-0.585c0.952-0.485,1.156-2.326,1.456-3.207c0.377-1.831-1.563-1.741-2.435-2.118
		c-1.346-0.713-2.909-1.08-4.958-2.049 M296.562,981.579L296.562,981.579L296.562,981.579z" />
		<path fill="#010101" stroke="#010101" stroke-width="1.0694" stroke-miterlimit="10" d="M296.089,978.748c0,0.475,0,2.256,0,3.284
		c0,1.088,0,2.169,0,3.227c0,1.453-0.21,1.94,0.95,1.641c0.593-0.188,1.168-1.453,1.274-1.83c0.289-0.971,0.683-1.158,0.683-2.532
		c0-1.089,0.188-1.843,0-2.713C298.711,978.748,296.96,979.222,296.089,978.748L296.089,978.748z" />
		<path fill="#010101" d="M282.955,975.333c-1.851-1.535-3.099-3.684-3.684-6.026c-1.086-2.336-1.851-4.852-1.662-7.473
		c0.1-3.021-0.295-6.146,0.397-9.058c1.058-1.641,2.434-3.284,4.265-4.156c2.059-1.267,4.573-0.869,6.799-1.454
		c2.436-0.405,4.978-0.107,7.394-0.21c4.079,0,8.156,0,12.154,0c1.841,0.971,3.977,0.971,5.643,2.03
		c2.118,0.404,3.779,1.752,4.652,3.711c1.643,2.703,1.563,5.928,1.266,8.947c-1.445,2.513-1.666,5.532-2.832,8.235
		c-0.771,1.771-0.771,4.503-2.711,5.376c-6.218-0.397-12.431-0.11-18.547-0.208c-4.079,0.098-8.264-0.09-12.343,0.098
		C283.45,975.251,283.25,975.251,282.955,975.333L282.955,975.333z" />
		<path fill="#FFFFFF" d="M278.293,1003.132c-2.516-0.761-5.058-2.229-6.403-4.552c-1.463-2.149-3.207-4.375-3.127-7.207
		c0-2.611-0.08-5.234,0.098-7.858c0.693-2.731,3.395-4.187,5.543-5.551c2.039-1.938,4.473-0.673,6.324,0.87
		c1.751,0.871,2.724,2.83,4.156,4.197c3.998,4.553,8.56,8.642,13.431,12.244c1.643,1.058,3.019,2.621,4.762,3.781
		c2.045,1.959,3.978,3.71,5.729,5.937c1.653,2.438,1.266,5.553,1.378,8.256c-0.516,1.168-1.466,1.374-2.626,1.276
		c-1.196-0.108-7.975-0.988-10.331-1.653c-1.929-0.87-3.969-0.208-6.008-0.208c-2.226,0-4.375,0-6.601-0.287
		c-1.851-1.941,1.543-2.328,2.919-1.941c0.661,0.11,6.591-0.177,7.176-0.287c3.207-0.287,6.321-0.098,9.528-0.189
		c2.04-1.374,0.585-4.391-1.078-5.56c-0.773-0.949-4.563-4.364-5.829-4.662c-1.246-0.188-5.325-2.621-6.513-3.009
		c-1.168-0.295-5.938-1.056-7.176-1.453c-2.247-0.483-5.058,0.397-5.641,2.909C277.52,999.848,278.59,1001.492,278.293,1003.132
		L278.293,1003.132z" />
		<path fill="#FFFFFF" d="M204.044,1013.246c-3.783-1.158-2.416-8.342-6.99-7.759c-3.207,0.95-8.739,2.622-5.351,6.996
		c0.979,8.069-0.556,16.629,2.828,24.3c2.436,5.247,3.109,11.681,7.683,15.848c3.395,3.592,6.809,7.294,10.095,10.976
		c4.581,3.226,9.638,5.639,14.005,9.343c6.018,3.603,13.022,5.355,19.517,7.871c3.019,1.273,6.324,0.581,9.243,1.749
		c1.741,0,4.464,0.685,6.69,0.575c1.068,0,2.049-0.286,2.742-0.763c0.683-0.583,1.255-6.336,0.385-7.384
		c-0.871-1.068-2.326-1.562-4.285-1.276c-6.603-0.079-13.214-1.06-19.33-3.592c-6.226-2.621-12.233-5.65-18.092-9.145
		c-7.176-4.475-13.204-10.988-16.806-18.745c-2.128-3.119-4.455-6.336-4.96-10.215
		C199.382,1025.799,200.075,1018.592,204.044,1013.246L204.044,1013.246z" />
		<path fill="#FFFFFF" d="M388.489,1013.535c3.782-1.157,2.316-8.333,6.909-7.759c3.206,0.959,8.85,2.712,5.347,6.997
		c-0.891,8.066,0.673,16.628-2.733,24.308c-2.435,5.234-3.205,11.669-7.68,15.848c-3.404,3.584-6.89,7.294-10.115,10.976
		c-4.556,3.307-9.699,5.643-13.977,9.345c-6.134,3.592-13.042,5.343-19.612,7.856c-2.932,1.378-6.336,0.596-9.247,1.753
		c-1.641,0-4.375,0.681-6.611,0.583c-1.147,0-2.136-0.297-2.829-0.774c-0.673-0.573-1.266-6.323-0.375-7.382
		c0.848-1.07,2.334-1.565,4.274-1.278c6.591-0.079,13.322-0.949,19.439-3.592c6.118-2.621,12.231-5.643,17.973-9.137
		c7.285-4.475,13.224-10.983,16.785-18.755c2.159-3.118,4.495-6.315,5.068-10.213
		C393.064,1026.084,392.37,1018.888,388.489,1013.535L388.489,1013.535z" />

		<path fill="#010101" stroke="#010101" stroke-width="0.3889" stroke-linecap="round" stroke-linejoin="round"
			stroke-miterlimit="10" d="
		M390.805,989.24c-0.871-1.545-1.841-2.041-2.414-2.416c-0.575-0.287-1.464-0.396-2.356,0.08c-0.75,0.393-1.623,1.463-2.514,1.959
		c-0.85,0.475-2.218,0.585-3.009,1.058c-0.87,0.396-1.245,1.17-1.346,1.851c0,0.686-0.199,1.754,0.573,3.307
		c0.87,1.562,2.04,2.524,3.206,3.107c1.048,0.495,1.861,0.583,2.532,0.583c0.557,0,1.845-0.772,2.636-1.256
		c0.851-0.397,2.218-1.081,2.514-1.477c0.396-0.572,0.771-1.355,0.971-2.515C391.795,992.355,391.598,990.801,390.805,989.24
		L390.805,989.24z" />

		<path fill="#010101" stroke="#010101" stroke-width="0.3889" stroke-linecap="round" stroke-linejoin="round"
			stroke-miterlimit="10" d="
		M379.74,999.451c-1.348,0.772-1.743,1.753-2.041,2.326c-0.277,0.483-0.396,1.355,0.1,2.255c0.378,0.774,1.466,1.643,1.842,2.516
		c0.495,0.88,0.672,2.325,1.147,3.118c0.416,0.773,1.188,1.258,1.783,1.258c0.673,0.101,1.644,0.288,3.087-0.377
		c1.365-0.791,2.236-1.959,2.636-3.017c0.473-1.089,0.57-1.852,0.473-2.435c0-0.585-0.75-1.851-1.228-2.724
		c-0.415-0.771-1.088-2.146-1.504-2.523c-0.475-0.396-1.228-0.791-2.315-0.979C382.669,998.678,381.203,998.678,379.74,999.451
		L379.74,999.451z" />

		<path fill="#010101" stroke="#010101" stroke-width="0.3889" stroke-linecap="round" stroke-linejoin="round"
			stroke-miterlimit="10" d="
		M394.408,991.673c1.464-0.774,2.435-0.583,3.128-0.477c0.574,0.079,1.247,0.477,1.74,1.346c0.377,0.79,0.575,2.138,1.07,3.019
		c0.478,0.87,1.563,1.854,1.921,2.624c0.415,0.872,0.415,1.663,0.12,2.246c-0.298,0.585-0.693,1.535-2.159,2.336
		c-1.325,0.684-2.789,0.763-3.859,0.478c-1.188-0.188-1.862-0.585-2.336-0.982c-0.495-0.296-1.089-1.644-1.563-2.524
		c-0.377-0.762-1.147-2.136-1.266-2.621c0-0.575,0.12-1.443,0.477-2.437C392.189,993.632,393.064,992.457,394.408,991.673
		L394.408,991.673z" />

		<path fill="#010101" stroke="#010101" stroke-width="0.3889" stroke-linecap="round" stroke-linejoin="round"
			stroke-miterlimit="10" d="
		M395.179,992.752c1.486-0.981,3.604,0,3.425,1.83c0.3,1.959,2.614,3.226,2.614,5.056c-0.871,3.225-6.412,3.415-7.384,0.098
		c-0.592-1.551-1.939-3.097-0.892-4.76C393.418,993.998,394.23,993.127,395.179,992.752L395.179,992.752z" />

		<path fill="#010101" stroke="#010101" stroke-width="0.3889" stroke-linecap="round" stroke-linejoin="round"
			stroke-miterlimit="10" d="
		M386.927,987.99c2.435-0.107,3.603,2.909,3.404,4.95c0.099,1.74-1.168,3.019-2.731,3.394c-1.35,1.081-3.188,1.662-4.654,0.396
		c-1.742-0.979-3.404-3.604-2.158-5.532c1.882-0.881,4.199-1.089,5.463-2.83C386.448,988.177,386.65,987.99,386.927,987.99
		L386.927,987.99z" />
		<path fill="#010101" stroke="#010101" stroke-width="0.3889" stroke-miterlimit="10" d="M390.054,1001.492
		c0.673-0.397,1.741-0.397,2.137,0.396c0.18,0.188,1.05,1.643,1.346,1.751c0.495,0.394,2.536,2.721,3.129,2.801
		c0.296,0.21,0.871,0.108,1.246,0.396c0.495,0.298,0.872,0.99,0.992,1.278c0.098,0.583,0,0.966-0.3,1.354
		c-0.491,0.585-4.968,3.119-6.709,3.198c-0.572,0-1.266-0.287-1.465-0.87c-0.376-0.96,0-1.831,0-2.81
		c0.199-1.08,0.1-2.25-0.376-3.209c-0.479-0.868-1.088-1.851-1.088-2.91C389.064,1002.262,389.457,1001.597,390.054,1001.492
		L390.054,1001.492z" />

		<path fill="#010101" stroke="#010101" stroke-width="0.3889" stroke-linecap="round" stroke-linejoin="round"
			stroke-miterlimit="10" d="
		M380.51,1000.521c2.059-1.07,5.147-0.377,5.74,2.137c0.971,1.374,1.863,3.208,0.675,4.87c-0.772,1.551-3.108,3.019-4.852,1.74
		c-0.771-2.028-1.563-4.274-3.205-5.93C378.394,1002.172,379.541,1000.904,380.51,1000.521L380.51,1000.521z" />
		<path fill="#010101" stroke="#010101" stroke-width="0.3889" stroke-miterlimit="10" d="M390.727,1002.559
		c1.068-0.089,1.168,1.651,2.039,2.137c1.266,1.376,2.632,2.83,4.475,3.207c0.872,0.495,0.199,1.078-0.493,1.266
		c-1.566,0.883-3.387,2.328-5.147,2.041c-0.2-1.741,0.772-3.684-0.2-5.434c-0.298-0.97-1.464-2.248-0.87-3.118
		C390.528,1002.658,390.625,1002.559,390.727,1002.559L390.727,1002.559z" />

		<path fill="#010101" stroke="#010101" stroke-width="0.3889" stroke-linecap="round" stroke-linejoin="round"
			stroke-miterlimit="10" d="
		M384.987,1003.451c1.364,2.621,4.771,3.682,7.384,2.224c2.613-1.354,3.7-4.771,2.255-7.384c-1.385-2.621-4.691-3.708-7.404-2.255
		C384.608,997.415,383.521,1000.806,384.987,1003.451L384.987,1003.451z" />

		<path fill="#010101" stroke="#010101" stroke-width="0.3889" stroke-linecap="round" stroke-linejoin="round"
			stroke-miterlimit="10" d="
		M388.014,996.729c4.829-1.06,7.561,3.89,4.75,7.481c-3.404,2.622-6.514-0.387-6.909-2.613
		C385.478,1000.223,385.778,997.808,388.014,996.729L388.014,996.729z" />
		<polygon fill="#010101" points="299.868,936.542 300.829,939.089 297.039,939.089 298.207,936.465 295.692,937.823 
		295.692,933.634 298.314,935 297.147,932.258 300.937,932.466 299.868,934.902 302.294,933.734 302.205,937.711 	" />
		<path fill="#FFFFFF" stroke="#010101" stroke-width="1.0694" stroke-miterlimit="10" d="M212.417,1222.942
		c-1.861-0.555-3.9,0.803-6.313,1.277c-2.247,0.498-3.8,0.396-5.443,0.873c-2.148,0.493-2.622,1.77-3.792,2.911
		c-0.981,0.979-0.394,4.391-0.394,5.858c0,1.554,1.364,4.277,1.662,5.048c1.166,2.128,2.523,1.651,5.055,1.651
		c2.416,0,3.967-0.196,5.435-0.881c1.058-0.478,2.622-3.303,3.304-4.188c1.168-1.533,2.326-2.621,3.395-3.779
		c1.454-1.468,1.563-2.516,2.041-4.566c0.394-1.374-2.12-3.217-2.516-4.572C214.643,1221.705,213.21,1222.862,212.417,1222.942
		L212.417,1222.942z" />
		<path fill="#010101" d="M89.096,1107.166c0,0,0.098,3.404,3.019,3.711c2.909,0.387,39.936,3.958,52.269,11.272
		c2.828,1.644,6.621,4.763,8.845,9.61c2.326,4.87,79.883,192.402,79.883,192.402c0.96,3.029,7.582,1.269,6.414-1.94
		c-1.266-3.307-82.592-202.51-84.256-205.825c-3.207-6.115-3.79-7.858-9.807-10.104c-8.542-3.314-50.734-15.735-54.218-12.529
		C89.592,1095.297,89.096,1107.166,89.096,1107.166L89.096,1107.166z" />
		<path fill="#FFFFFF" stroke="#010101" stroke-width="1.0694" stroke-miterlimit="10" d="M208.232,1219.666
		c-0.188-0.585-4.95-0.506-6.699-0.506c-1.17,0-1.943,3.78-2.149,4.683c-0.583,2.416-1.245,1.931-0.762,3.684
		c0.29,1.374,3.684,1.276,5.427,1.276c2.642,0,3.71,0.098,4.581-1.655c0.871-1.659,0.762-3.117,0.762-5.442
		C209.389,1220.903,208.625,1220.346,208.232,1219.666L208.232,1219.666z" />
		<path fill="#FFFFFF" stroke="#010101" stroke-width="1.0694" stroke-miterlimit="10" d="M191.909,1224.219
		c-1.741-0.882-4.365-0.377-6.326-0.377c-1.454,0-1.741,0.772-1.553,1.646c0.29,0.881,0.603,2.324,0.793,2.915
		c0.285,0.575,2.909,2.03,4.947,2.03c2.514,0,5.347,0.506,8.364,0.506c3.79,0,1.246-0.396,0-2.939
		c-1.17-2.512-3.604-2.324-6.226-3.682 M191.909,1224.219L191.909,1224.219L191.909,1224.219z" />
		<path fill="#FFFFFF" stroke="#010101" stroke-width="1.0694" stroke-miterlimit="10" d="M198.907,1233.462
		c-0.19-0.403-2.911-1.562-4.077-2.145c-1.853-0.881-4.958-0.379-7.096-0.379c-1.643,0-2.149,2.625-2.149,4.179
		c0,1.94,2.842,2.523,5.07,2.523c2.028,0,4.177,0,6.216,0c2.721,0,1.93,0.583,2.513-1.744
		C199.668,1235.118,199.195,1234.225,198.907,1233.462L198.907,1233.462z" />
		<path fill="#FFFFFF" stroke="#010101" stroke-width="1.0694" stroke-miterlimit="10" d="M203.192,1238.906
		c0.565-2.435-5.055,0-7.589,0c-3.207,0-3.979,0.188-5.83,2.038c-0.475,0.485-0.188,1.945-0.475,2.813
		c-0.298,0.795,2.118,2.148,3.196,2.426c1.068,0.306,6.305-1.554,7.394-1.741C200.946,1244.258,203.282,1239.382,203.192,1238.906
		L203.192,1238.906z" />
		<path fill="#FFFFFF" stroke="#010101" stroke-width="1.0694" stroke-miterlimit="10" d="M199.015,1234.148
		c1.643-0.29,3.198,0.583,3.386,1.056c0.393,0.693-2.911,1.745-3.684,1.745C198.224,1236.949,198.907,1234.621,199.015,1234.148
		L199.015,1234.148z" />
		<path fill="#FFFFFF" stroke="#010101" stroke-width="1.0694" stroke-miterlimit="10" d="M199.975,1229.561
		c0.385-0.188,1.256-0.869,1.556-1.158c0.188-0.195-0.585-0.591-0.871-0.881c-0.397-0.285-0.585-0.473-1.07-0.583
		c-0.493-0.188-0.573-0.57-0.87,0.11c-0.288,0.367-0.394,0.583-0.394,1.268c0,0.481,0,1.057,0,1.533c0,0.791,0.583,0.216,0.87,0
		C199.49,1229.752,199.588,1229.67,199.975,1229.561L199.975,1229.561z" />
		<path fill="#FFFFFF" stroke="#010101" stroke-width="1.0694" stroke-miterlimit="10"
			d="M198.137,1228
		c0.96,0-1.268,1.753-0.981,2.731c0.19,0.872,2.434,0,3.317,0C201.531,1230.731,198.718,1228.9,198.137,1228L198.137,1228z" />
		<path fill="#FFFFFF" stroke="#010101" stroke-width="1.0694" stroke-miterlimit="10" d="M201.056,1238.224
		c1.048,0,1.831-0.774,2.991-0.188c0.591,0.298-0.95,1.166-1.545,1.644C201.531,1240.756,201.344,1239.382,201.056,1238.224
		L201.056,1238.224z" />
		<path fill="none" stroke="#010101" stroke-width="1.0694" stroke-miterlimit="10" d="M418.221,1246
		c-0.99,0.29-1.07,2.438-2.139,2.736c-0.97,0.179-0.97,0.88-2.236,0.88c-1.05,0-1.563,0.367-2.511,0.367
		c-1.269,0-2.041,0.208-2.913,0.388" />
		<path fill="#010101" d="M430.175,1230.641c-2.137,3.792-8.374,7.494-14.567,7.979c-13.045,1.061-27.119-8.374-28.188-21.005
		l-0.098-1.661c-0.102-1.454,0.277-4.177,0.871-5.058c-0.178,1.661-0.655,2.911-0.478,4.87l0.098,1.643
		c0.95,11.965,15.143,21.685,27.378,20.727l0.611-0.099c5.425-0.396,9.325-2.625,12.313-5.268c2.533-2.222,5.363-6.996,4.988-11.566
		l-0.219-2.523c-0.475-6.218-6.018-12.552-9.717-14.955c-4.671-3.127-10.075-5.851-17.877-5.266l-0.692,0.098
		c-7.164,0.585-13.577,5.168-15.536,10.008c-2.137,5.247-6.811,10.886-6.218,17.906v0.392c0.971,11.763,14.867,22.053,26.525,21.083
		l3.107-0.298c4.57-0.375,9.817-3.494,11.858-6.01c1.74-2.063,2.04-2.939,3.204-5.26c0.495-0.962,0.971-1.944,1.486-2.915
		c0.177-0.481,0.356-0.881,0.654-1.464c0.12-0.188,0.216-0.477,0.396-0.681c0-0.077,0.098-0.289,0.195-0.289
		c0-0.09,0.18-0.2,0.103-0.298L430.175,1230.641z" />
		<path fill="#FFFFFF" stroke="#010101" stroke-width="1.0694" stroke-miterlimit="10" d="M376.139,1222.466
		C376.532,1222.466,376.532,1222.466,376.139,1222.466c-3.208,0,3.603,5.166,5.066,7.967c0.772,1.753,0.87-2.621,0.87-3.196
		c0-1.859,0-3.604,0-5.355c0-1.83,0.693-2.722,1.743-3.305c1.266-0.583,1.365,1.957,3.206,1.957c2.257,0,0.396,1.566,0.396,3.686
		c0,1.949,0.18,3.78,0.594,5.631c0.377,2.047,0.673,4.008,1.149,5.94c0.296,1.264,0,3.115,0,4.477c0,0.489,3.9,0.294,4.373,0.294
		c1.861,0,3.307,0.289,4.752,0.289c1.563,0,3.504-2.038,4.274-2.813c0.793-0.791,4.87,2.524,4.298,3.682
		c-0.573,1.28-4,3.119-4.652,3.784c-0.596,0.685,3.859,1.088,5.343,1.088c1.248,0,3.188-1.157,4.555-1.565
		c2.04-0.473,2.793-2.911,5.345-3.384c3.109-0.604,1.348,3.196,0.873,3.584c-1.269,0.962,1.563,0.681,1.067,2.523
		c-0.593,2.148-0.772,1.871-1.363,4.188c-0.182,0.771-3.702,1.94-4.654,1.94c-1.464,0-2.93,0-4.375,0c-1.447,0-3.009,0-4.475,0
		c-1.959,0-3.106-0.298-4.475-0.57c-1.266-0.416-2.04-1.468-3.504-1.848c-1.663-0.399-2.414-0.611-3.307-1.472
		c-0.971-0.97-2.216-1.451-3.483-1.753c-1.741-0.481-2.335-0.583-3.603-1.166c-1.268-0.685-2.336-1.843-3.483-2.438
		c-1.882-0.868-3.327-3.489-4.771-4.945c-1.466-1.455-1.843-3.209-3.228-5.06c-1.227-1.644-1.445-3.017-3.009-4.188
		c-1.05-0.868-1.743-2.724-2.038-3.779c-0.478-2.148-1.525-1.753-0.575-3.604c0.673-1.247,1.563-1.74,3.207-2.038
		C374.396,1220.536,374.892,1220.428,376.139,1222.466L376.139,1222.466z" />
		<path fill="#FFFFFF" stroke="#010101" stroke-width="1.0694" stroke-miterlimit="10" d="M389.757,1226.654
		c0,0-2.435-1.068-5.348-1.562c-1.563-0.188-3.206,0.204-4.195,0.681c-1.743,0.881,1.563,3.127,1.859,3.209
		c0.872,0.501,3.307,0,4.375,0C388.864,1228.982,388.489,1229.67,389.757,1226.654L389.757,1226.654z" />
		<path fill="#FFFFFF" stroke="#010101" stroke-width="1.0694" stroke-miterlimit="10" d="M403.729,1238.224
		c0.793-0.297,4-2.226,4.197-2.148c0.771,0.221-0.493,1.741-1.067,2.435c-0.496,0.583-0.496,1.663-0.793,2.148
		c-0.08,0.375-1.644,0.375-2.118-0.298C403.552,1239.57,403.829,1238.413,403.729,1238.224L403.729,1238.224z" />
		<path fill="#FFFFFF" stroke="#010101" stroke-width="1.0694" stroke-miterlimit="10" d="M384.409,1219.56
		c0.1-0.29,0.971-1.278,1.366-1.644c0.475-0.506,0.872-0.585,1.443-0.872c0.593-0.316,1.072-0.316,1.942-0.316
		c1.264,0,0.891,0.394,0.118,0.98c-0.416,0.285-0.693,0.971-0.891,1.376c-0.2,0.476-0.673,0.87-0.971,1.16
		c-0.574,0.581-0.771,0.769-1.386,1.068C385.56,1221.497,384.608,1219.743,384.409,1219.56L384.409,1219.56z" />
		<path fill="#FFFFFF" stroke="#010101" stroke-width="1.0694" stroke-miterlimit="10" d="M417.546,1241.034
		c0.476-0.188,0.772-0.563,1.068-1.146c0.3-0.604,0.477-0.396,0.772-0.506c0.495-0.098,0,1.089,0,1.562c0,0.587,0,1.064-0.098,1.456
		c-0.1,0.396-0.675,0.595-0.971,0.685c-0.3,0-0.97-0.685-1.088-0.783c-0.357-0.375-0.772-0.188-0.259-0.583
		C417.231,1241.323,417.051,1241.429,417.546,1241.034L417.546,1241.034z" />
		<path fill="#FFFFFF" stroke="#010101" stroke-width="1.0694" stroke-miterlimit="10" d="M419.485,1247.745
		c-0.098-0.18-0.098-1.158-0.195-1.562c-0.2-0.388-0.495-0.575-0.575-1.052c-0.1-0.396-0.872,0.771-0.99,0.872
		c-0.178,0.18-0.078,0.689-0.078,1.061C417.646,1247.272,419.192,1247.647,419.485,1247.745L419.485,1247.745z" />
		<path fill="#FFFFFF" d="M293.07,1334.852c0.585-2.218-2.917-9.125-3.602-11.163c-1.16-3.029,1.068-5.072,2.039-6.336
		c1.268-1.741,2.257-7.09,2.919-9.047c0.772-2.039,0,5.956-0.773,7.999c-0.683,1.937-2.542,4.154-2.542,6.866
		C291.111,1325.209,293.653,1332.023,293.07,1334.852L293.07,1334.852z" />
		<path fill="#FFFFFF" d="M299.373,1334.852c-0.475-2.218,2.919-9.125,3.702-11.163c1.058-3.029-1.082-5.072-2.043-6.336
		c-1.264-1.741-2.244-7.09-3.007-9.047c-0.801-2.039,0.098,5.956,0.871,7.999c0.683,1.937,2.513,4.154,2.513,6.866
		C301.414,1325.209,298.901,1332.023,299.373,1334.852L299.373,1334.852z" />
		<path fill="#010101" stroke="#010101" stroke-width="1.8472" stroke-miterlimit="10" d="M280.914,982.914
		c-1.563-1.545-2.909-2.713-4.958-1.624C275.671,981.369,278.48,983.913,280.914,982.914L280.914,982.914z" />

		<path fill="#010101" stroke="#010101" stroke-width="0.3889" stroke-linecap="round" stroke-linejoin="round"
			stroke-miterlimit="10" d="
		M201.719,988.94c0.783-1.531,1.741-2.041,2.434-2.403c0.483-0.298,1.376-0.397,2.226,0.077c0.781,0.397,1.773,1.456,2.534,1.961
		c0.881,0.478,2.334,0.575,3.107,1.059c0.871,0.385,1.268,1.168,1.268,1.853c0.098,0.681,0.285,1.749-0.585,3.303
		c-0.773,1.545-2.039,2.516-3.109,3.108c-1.079,0.496-1.949,0.573-2.532,0.573c-0.583,0-1.831-0.761-2.731-1.248
		c-0.762-0.493-2.228-1.078-2.516-1.553c-0.397-0.506-0.683-1.276-0.871-2.435C200.758,992.067,200.848,990.503,201.719,988.94
		L201.719,988.94z" />

		<path fill="#010101" stroke="#010101" stroke-width="0.3889" stroke-linecap="round" stroke-linejoin="round"
			stroke-miterlimit="10" d="
		M212.704,999.164c1.456,0.774,1.851,1.74,2.148,2.328c0.288,0.475,0.288,1.374-0.108,2.244c-0.485,0.772-1.456,1.653-1.931,2.523
		c-0.503,0.871-0.693,2.229-1.086,3.009c-0.477,0.881-1.17,1.278-1.741,1.356c-0.672,0.109-1.751,0.297-3.108-0.367
		c-1.456-0.791-2.238-1.957-2.722-3.018c-0.396-1.088-0.485-1.853-0.485-2.434c0.088-0.596,0.871-1.854,1.268-2.733
		c0.483-0.773,1.068-2.139,1.543-2.524c0.503-0.385,1.168-0.782,2.244-0.97C209.893,998.393,211.348,998.393,212.704,999.164
		L212.704,999.164z" />

		<path fill="#010101" stroke="#010101" stroke-width="0.3889" stroke-linecap="round" stroke-linejoin="round"
			stroke-miterlimit="10" d="
		M198.035,991.374c-1.354-0.76-2.436-0.572-3.107-0.475c-0.495,0.077-1.268,0.475-1.751,1.346c-0.388,0.801-0.604,2.148-1.081,3.029
		c-0.475,0.87-1.443,1.841-1.851,2.621c-0.477,0.871-0.375,1.653-0.188,2.247c0.286,0.583,0.772,1.532,2.145,2.226
		c1.358,0.763,2.803,0.873,3.979,0.585c1.08-0.188,1.851-0.585,2.326-0.988c0.394-0.285,1.079-1.633,1.466-2.516
		c0.493-0.772,1.256-2.146,1.256-2.622c0-0.683,0-1.455-0.475-2.535C200.361,993.333,199.49,992.167,198.035,991.374
		L198.035,991.374z" />

		<path fill="#010101" stroke="#010101" stroke-width="0.3889" stroke-linecap="round" stroke-linejoin="round"
			stroke-miterlimit="10" d="
		M205.608,987.695c-2.416-0.208-3.604,2.809-3.506,4.957c-0.098,1.741,1.178,3.018,2.733,3.384c1.356,1.079,3.317,1.674,4.66,0.396
		c1.751-1.058,3.395-3.592,2.149-5.532c-1.751-0.881-4.079-1.087-5.453-2.909C206.004,987.882,205.816,987.695,205.608,987.695
		L205.608,987.695z" />
		<path fill="#010101" stroke="#010101" stroke-width="0.3889" stroke-miterlimit="10" d="M202.402,1001.204
		c-0.683-0.397-1.644-0.397-2.139,0.394c-0.188,0.18-1.068,1.644-1.354,1.741c-0.477,0.397-2.434,2.733-3.099,2.813
		c-0.296,0.107-0.801,0.107-1.278,0.396c-0.493,0.287-0.871,0.98-0.968,1.277c0,0.573,0,0.871,0.396,1.348
		c0.475,0.493,4.95,3.127,6.591,3.205c0.683,0,1.376-0.288,1.553-0.881c0.3-0.95,0-1.831-0.098-2.801
		c-0.08-1.089-0.08-2.257,0.495-3.205c0.385-0.982,1.068-1.853,0.96-2.932C203.459,1001.966,203.094,1001.301,202.402,1001.204
		L202.402,1001.204z" />

		<path fill="#010101" stroke="#010101" stroke-width="0.3889" stroke-linecap="round" stroke-linejoin="round"
			stroke-miterlimit="10" d="
		M211.931,1000.223c-2.039-1.06-5.166-0.375-5.643,2.148c-0.97,1.364-1.957,3.197-0.76,4.868c0.85,1.535,3.194,3.02,4.848,1.745
		c0.871-2.04,1.555-4.287,3.196-5.928C214.16,1001.887,212.89,1000.619,211.931,1000.223L211.931,1000.223z" />
		<path fill="#010101" stroke="#010101" stroke-width="0.3889" stroke-miterlimit="10" d="M201.816,1002.262
		c-1.158-0.088-1.268,1.663-2.148,2.138c-1.237,1.376-2.614,2.84-4.354,3.207c-0.88,0.506-0.306,1.087,0.496,1.264
		c1.535,0.881,3.286,2.337,5.135,2.047c0.11-1.749-0.772-3.682,0.188-5.433c0.286-0.98,1.456-2.244,0.871-3.117
		C201.927,1002.262,201.927,1002.262,201.816,1002.262L201.816,1002.262z" />

		<path fill="#010101" stroke="#010101" stroke-width="0.3889" stroke-linecap="round" stroke-linejoin="round"
			stroke-miterlimit="10" d="
		M197.264,992.355c-1.376-0.869-3.604,0.102-3.305,1.94c-0.298,1.951-2.624,3.217-2.734,5.047c0.979,3.217,6.416,3.427,7.394,0.11
		c0.575-1.554,2.041-3.117,0.97-4.771C199.097,993.712,198.324,992.839,197.264,992.355L197.264,992.355z" />

		<path fill="#010101" stroke="#010101" stroke-width="0.3889" stroke-linecap="round" stroke-linejoin="round"
			stroke-miterlimit="10" d="
		M207.567,1003.132c-1.464,2.644-4.771,3.702-7.492,2.257c-2.622-1.354-3.602-4.771-2.236-7.394c1.464-2.622,4.75-3.7,7.394-2.245
		C207.942,997.115,208.914,1000.521,207.567,1003.132L207.567,1003.132z" />

		<path fill="#010101" stroke="#010101" stroke-width="0.3889" stroke-linecap="round" stroke-linejoin="round"
			stroke-miterlimit="10" d="
		M204.44,996.431c-4.85-1.058-7.473,3.9-4.66,7.494c3.315,2.622,6.511-0.397,6.907-2.626
		C206.982,999.938,206.766,997.512,204.44,996.431L204.44,996.431z" />
		<path fill="#010101"
			d="M110.198,1392.038l8.344,3.486l-2.624,6.312L110.198,1392.038z M135.74,1414.466l4.167-10.177l8.185,3.388
		l4.762-11.681l3.871,7.877l-2.513,6.332L135.74,1414.466z M173.541,1470.58l4.868-11.775l3.967,7.6l-5.135,12.631l-16.418-6.711
		c-2.041-0.872-3.89-1.94-5.347-3.131c-1.376-1.146-2.534-2.512-3.415-4.073l-3.572-6.593c0.475,0.771,1.058,1.464,1.633,1.941
		c0.593,0.493,1.276,0.97,2.146,1.268l1.25,0.591L173.541,1470.58z M167.82,1437.505l6.016,11.302c0.575,1.068,0.97,1.94,1.16,2.712
		c0.208,0.872,0.208,1.744,0.208,2.638l-5.266-2.043c-0.365-0.195-0.663-0.473-0.76-0.791c-0.298-0.298-0.387-0.771-0.387-1.565
		L167.82,1437.505z M159.555,1426.044l20.608-5.145l10.382,4.272l4.77-11.656l3.594,8.554l-4.87,11.872l-14.669-6.038l-13.797,3.682
		c-0.661-1.166-1.564-2.132-2.524-2.988C161.971,1427.611,160.823,1426.835,159.555,1426.044L159.555,1426.044z M127.487,1434.497
		l2.625-6.315l10.588,4.493c1.357,0.477,2.228,1.149,2.813,1.94c0.583,0.774,0.871,1.921,0.979,3.307l0.288,3.779L127.487,1434.497z
		 M91.818,1436.755l40.618,16.725l4.77-11.677l4.375,6.809l-5.531,13.418l-38.402-15.755L91.818,1436.755z M92.986,1433.942
		l3.602-8.867l10.986,4.574l14.757-35.87l-10.976-4.57l3.69-8.848l34.978,14.47l-3.602,8.867l-8.044-3.306l-7.583,18.371
		l32.651-8.077l-5.058-2.042l3.582-8.844l30.426,12.451l-3.604,8.926l-8.549-3.584l-29.524,7.877l5.424,2.218
		c2.939,1.187,5.166,2.829,6.621,4.99c1.456,2.038,2.229,4.652,2.436,7.661l0.475,9.915c0.11,1.068,0.396,1.957,0.98,2.83
		c0.583,0.872,1.356,1.443,2.226,1.863l6.701,2.69l-3.603,8.868l-17.291-7.106c-2.039-0.869-3.494-1.839-4.454-3.107
		c-0.871-1.288-1.456-2.91-1.553-4.97l-0.98-13.694c-0.2-2.06-0.773-3.687-1.751-4.873c-1.062-1.17-3.019-2.336-5.83-3.502
		l-11.648-4.848l-4.87,11.856l10.888,4.489l-3.694,8.83L92.986,1433.942z M187.147,1476.046l18.461,7.641l4.87-11.66l3.492,8.672
		l-4.77,11.559l-17.787-7.384L187.147,1476.046z M188.317,1473.217l3.592-8.852l15.738,6.515l-3.682,8.827L188.317,1473.217z
		 M417.351,1456.688c-3.684,0.869-6.811,0.176-9.524-1.961c-2.731-2.038-5.264-5.817-7.481-11.184
		c-2.436-6.038-3.108-10.788-2.057-14.371c1.086-3.698,4.098-6.512,8.945-8.473c3.701-1.562,7.304-2.315,10.987-2.512
		c3.582-0.122,7.086,0.375,10.591,1.741l18.962-7.877l-6.811-16.431l8.334,3.106l6.038,14.788l-21.083,8.749
		c-3.979-0.477-7.679-0.477-11.086-0.102c-3.504,0.497-6.888,1.447-10.374,2.829c-4.098,1.741-6.629,3.784-7.401,6.315
		c-0.871,2.516-0.394,6.197,1.643,10.968c1.188,2.927,2.632,5.541,4.298,7.897C412.974,1452.391,415.015,1454.629,417.351,1456.688
		L417.351,1456.688z M446.408,1459.297l18.844-7.778l-9.619-23.338l9.619-3.979l-4.077-9.838l8.452,3.029l4.277,10.291l-9.72,3.999
		l9.619,23.439l-17.005,6.988L446.408,1459.297z M402.486,1475.255c3.8,0,7.384-0.416,10.886-1.187
		c3.504-0.673,6.889-1.741,10.372-3.188c3.606-1.463,6.911-3.307,9.838-5.54c2.913-2.259,5.721-5.048,8.554-8.473l2.234,5.345
		l1.741,0.494c-2.332,2.809-4.868,5.345-7.759,7.481c-2.928,2.136-6.134,3.877-9.538,5.345c-2.236,0.873-4.654,1.565-7.284,1.843
		c-2.733,0.298-5.17,0.298-7.581-0.102L402.486,1475.255z M427.543,1439.764l6.038-2.536c0.103,0.791,0.18,1.546,0.18,2.316
		c0.1,0.692,0,1.463-0.077,2.259L427.543,1439.764z M435.62,1433.151l-9.243,3.784l-2.913-6.992l34.978-14.389l2.93,7.005
		l-9.62,3.999l9.62,23.317l-16.054,6.593l-2.891-6.891c-1.562,4.098-4.077,7.682-7.579,10.886c-3.425,3.209-7.8,5.94-13.047,8.077
		c-10.095,4.158-18.845,4.852-26.405,2.12c-7.502-2.711-13.143-8.749-16.922-17.972c-3.88-9.423-4.078-17.699-0.573-24.703
		c3.481-6.988,10.688-12.729,21.576-17.182c4.653-1.961,8.945-3.029,12.808-3.425c4-0.297,8.195,0,12.649,1.089l-2.139-5.365
		l15.345-6.315l5.641,13.621l-15.36,6.414c-3.882-1.171-7.563-1.644-11.263-1.565c-3.702,0.199-7.284,0.97-10.788,2.434
		c-5.843,2.336-9.524,5.838-10.97,10.213c-1.562,4.477-0.989,10.018,1.745,16.509c3.027,7.326,6.588,11.974,10.965,14.017
		c4.275,2.137,9.738,1.859,16.231-0.872c5.047-2.039,8.651-5.443,10.807-10.014C437.263,1442.969,437.461,1438.199,435.62,1433.151
		L435.62,1433.151z M488.392,1442.096l18.449-7.677l-4.75-11.682l8.552,3.702l4.75,11.579l-17.797,7.282L488.392,1442.096z
		 M487.222,1439.267l-3.72-8.848l15.756-6.511l3.586,8.847L487.222,1439.267z M237.675,1515.497h77.239v-26.069l6.631,6.532v26.032
		h-73.942L237.675,1515.497z M295.298,1479.826h19.615v-25.298l6.631,6.434v25.453h-18.962L295.298,1479.826z M269.851,1467.077
		h22.526v6.516h-15.934v3.204h-6.593V1467.077L269.851,1467.077z M269.851,1490.198h15.353v-10.372l7.078,5.545v11.262h-15.836
		v3.208h-6.593v-9.643H269.851z M237.675,1512.39v-9.524h11.571v-38.794h-11.571v-9.544h74.25v22.269h-16.627v-12.725h-28.466
		v15.754h15.353v7.384h-15.353v15.656h28.466v-13.438h16.627v22.963H237.675z M237.675,1467.077h8.662v6.516L237.675,1467.077z
		 M330.667,1515.497h20.013v-12.631l6.593,6.69v12.432h-19.222L330.667,1515.497z M330.667,1512.39v-9.524h17.006v9.524H330.667z" />
	</g>
</svg>
