<?xml version="1.0" encoding="utf-8"?>
<!-- Generator: Adobe Illustrator 16.0.0, SVG Export Plug-In . SVG Version: 6.00 Build 0)  -->
<!DOCTYPE svg PUBLIC "-//W3C//DTD SVG 1.1//EN" "http://www.w3.org/Graphics/SVG/1.1/DTD/svg11.dtd">
<svg version="1.1" id="Layer_1" xmlns="http://www.w3.org/2000/svg" xmlns:xlink="http://www.w3.org/1999/xlink" x="0px" y="0px"
	 width="595.28px" height="841.89px" viewBox="0 0 595.28 841.89" enable-background="new 0 0 595.28 841.89" xml:space="preserve">
<g>
	<path fill-rule="evenodd" clip-rule="evenodd" fill="#ABAAAA" stroke="#C0A062" stroke-width="0.3726" stroke-miterlimit="10" d="
		M297.498,259.391l-45.075,0.369c-10.744,2.94-46.82,18.671-54.875,17.832l-16.476-2.233l-13.92,21.146
		c12.242,8.202,17.789,19.795,16.433,42.477l2.333,36.607v16.808c-2.285,43.501,10.843,72.612,34.716,83.508
		c12.943,8.61,25.792,12.194,39.945,19.098c6.799,3.3,13.55,6.05,19.358,10.231c5.732,4.097,12.247,10.763,16.395,13.57
		c4.462-2.949,7.169-8.107,12.991-11.56c5.158-3.12,9.768-6.296,15.115-9.454c10.99-6.477,21.743-10.155,32.961-16.12
		c20.436-10.943,43.848-32.316,48.788-58.355c5.158-27.423-1.868-57.749-1.868-86.428c0.057-16.068,11.227-35.119,19.183-48.574
		l-14.574-21.383c-17.173,0.28-8.933,9.132-17.03,7.264c-12.195-2.788-21.648-7.913-35.521-7.913l-36.537-9.042
		C312.48,257.238,298.892,253.241,297.498,259.391L297.498,259.391z"/>
	<path fill-rule="evenodd" clip-rule="evenodd" fill="#ABAAAA" stroke="#C0A062" stroke-width="0.8383" stroke-miterlimit="10" d="
		M155.891,514.043v2.285c0,5.216,12.427,18.207,12.749,21.801c-3.959,2.655-13.261-0.56-18.429,1.109
		c-3.495,1.119-13.034,5.082-16.017,6.012l2.935,3.547l-0.507,0.037l-2.982,2.94c23.085,0,38.12,22.303,49.992,22.303h1.347
		c2.28,0,5.452-4.836,2.982-8.431c-2.043-2.93-4.888-4.476-7.5-6.618c-6.51-5.301-4.467-12.792-2.698-21.753
		c2.66-13.541,4.476-9.776-4.466-18.813C171.479,516.604,155.891,505.006,155.891,514.043L155.891,514.043z M415.545,519.164
		c0.323,7.689,7.625,21.107,7.625,26.693c0,8.43-5.804,13.228-10.327,17.884c-2.096,2.19-5.177,4.476-7.634,6.477
		c-1.583,1.289-7.357,8.838-2.057,8.838h3.176c9.814,0,34.261-28.221,53.387-28.913l-4.561-2.986l0.133-0.835l6.049-1.82l0.38-1.299
		l-22.862-6.382l-0.228,0.882v-1.403c0-10.289,10.801-26.125,12.242-32.27l-0.55-1.251L415.545,519.164z M379.085,555.396
		c0,0.474,6.619,16.253,6.799,16.396c1.726-1.252,1.584-5.443,1.821-8.193c3.3,0.095,4.229,3.12,6.381,4.562
		c0.693-0.551,1.338-1.072,1.338-2.276c0-1.071-6.837-14.584-7.719-14.584C387.003,551.3,379.085,554.562,379.085,555.396
		L379.085,555.396z M209.092,566.349c1.399-2.949,3.49-9.027,4.514-12.479c1.256-4.239-9.208-2.798-12.796-2.617
		C185.447,551.907,208.902,566.301,209.092,566.349L209.092,566.349z M183.632,535.844c11.772,3.167,17.178,3.821,28.068,7.86
		c8.847,3.263,16.343,7.463,24.071,11.835c12.332,6.988,33.838,20.775,51.476,20.775h10.009c41.984,0,85.366-43.875,107.299-40.243
		l11.36,2.01l0.503-0.095l-16.841-53.234l-0.513,0.18c-2.143-0.18-3.451-0.929-5.907-0.929c-25.29,0-50.987,10.013-66.52,19.847
		c-7.644,4.893-18.207,12.526-24.726,18.49c-6.192,5.681-6.23,6.183-12.849,1.252c-3.722-2.845-7.396-7.596-11.445-10.383
		c-10.199-7.084-15.134-10.563-27.234-15.931c-8.008-3.537-22.479-10.241-31.652-11.55c-16.58-2.38-25.878-1.441-28.158,13.408
		C188.938,509.852,184.519,524.948,183.632,535.844L183.632,535.844z"/>
	<path fill-rule="evenodd" clip-rule="evenodd" fill="#010101" d="M379.085,555.396c0-0.835,7.918-4.097,8.62-4.097
		c0.882,0,7.719,13.513,7.719,14.584c0,1.204-0.645,1.726-1.338,2.276c-2.152-1.441-3.081-4.467-6.381-4.562
		c-0.237,2.75-0.096,6.941-1.821,8.193C385.704,571.649,379.085,555.87,379.085,555.396L379.085,555.396z M209.092,566.349
		c-0.19-0.048-23.645-14.441-8.283-15.096c3.589-0.181,14.053-1.622,12.796,2.617C212.582,557.321,210.491,563.399,209.092,566.349
		L209.092,566.349z M183.632,535.844c0.887-10.896,5.306-25.992,6.941-36.707c2.28-14.85,11.578-15.788,28.158-13.408
		c9.174,1.309,23.645,8.013,31.652,11.55c12.1,5.367,17.035,8.847,27.234,15.931c4.049,2.787,7.723,7.538,11.445,10.383
		c6.619,4.931,6.657,4.429,12.849-1.252c6.519-5.964,17.082-13.598,24.726-18.49c15.532-9.834,41.229-19.847,66.52-19.847
		c2.456,0,3.765,0.749,5.907,0.929l0.513-0.18l16.841,53.234l-0.503,0.095l-11.36-2.01c-21.933-3.632-65.314,40.243-107.299,40.243
		h-10.009c-17.638,0-39.144-13.787-51.476-20.775c-7.729-4.372-15.225-8.572-24.071-11.835
		C200.81,539.665,195.404,539.011,183.632,535.844L183.632,535.844z M187.96,565.646c2.47,3.595-0.702,8.431-2.982,8.431h-1.347
		c-11.872,0-26.907-22.303-49.992-22.303l2.982-2.94l0.507-0.037l-2.935-3.547c2.982-0.93,12.522-4.893,16.017-6.012
		c5.168-1.669,14.47,1.546,18.429-1.109c-0.322-3.594-12.749-16.585-12.749-21.801v-2.285c0-9.037,15.589,2.561,17.405,4.419
		c8.942,9.037,7.126,5.272,4.466,18.813c-1.769,8.961-3.812,16.452,2.698,21.753C183.072,561.171,185.917,562.717,187.96,565.646
		L187.96,565.646z M450.318,502.778l0.55,1.251c-1.441,6.145-12.242,21.98-12.242,32.27v1.403l0.228-0.882l22.862,6.382l-0.38,1.299
		l-6.049,1.82l-0.133,0.835l4.561,2.986c-19.126,0.692-43.572,28.913-53.387,28.913h-3.176c-5.301,0,0.474-7.549,2.057-8.838
		c2.457-2.001,5.538-4.286,7.634-6.477c4.523-4.656,10.327-9.454,10.327-17.884c0-5.586-7.302-19.004-7.625-26.693L450.318,502.778z
		 M296.331,273.728c1.441-6.145,9.957-13.218,17.259-13.218h7.728c13.883,0,30.686,9.407,42.88,12.199
		c8.107,1.854,13.873,3.309,23.555,3.731c12.85,0.555,14.565-4.708,20.853-6.382l11.635,17.405
		c-8.089,5.4-12.887,21.8-16.016,33.255c-11.769,43.923,6.477,60.081-2.001,105.07c-4.932,26.039-24.389,42.89-44.824,53.842
		c-11.218,5.955-21.971,9.644-32.961,16.111c-5.348,3.167-9.909,6.334-15.115,9.463c-5.822,3.433-8.529,8.61-12.991,11.541
		c-4.148-2.798-10.663-9.454-16.395-13.551c-5.808-4.201-12.56-6.941-19.358-10.251c-14.153-6.884-27.001-10.469-39.945-19.098
		c-73.129-48.896,4.94-138.824-50.637-176.038l12.189-18.86l13.641,1.958c8.103,0.792,39.333-13.788,50.091-16.732
		c8.283-2.233,21.032-2.93,28.533-1.764c5.121,0.792,9.118,1.546,13.176,3.642C292.88,268.84,293.856,268.702,296.331,273.728
		L296.331,273.728z M188.06,441.397c3.49,9.312,5.86,12.943,10.706,20.625c2.371,3.773,13.029,15.788,13.029,16.063
		c-11.593,2.712-19.743-1.717-24.024,10.07c-2.37,6.514-4.746,24.208-6.419,27.698c0,0-12.75-9.871-14.754-11.171
		c-3.4-2.237-14.054-6.106-19.786-5.642l-13.133,1.033l0.189-0.796l30.951,34.602l-1.204,1.081
		c-1.622,2.418-11.645,1.583-14.665,2.133c-4.793,0.93-8.235,2.381-12.427,3.917c-5.025,1.858-17.6,8.762-18.804,13.977
		c6.282-0.142,10.606-2.513,18.202-0.474c3.072,0.834,11.218,4.238,14.238,6.192c8.852,5.68,17.225,11.047,25.835,16.907
		c8.615,5.869,17.178,14.622,28.965,5.499c5.77-4.476,10.744-21.383,12.749-29.993c4.703,0,28.718,17.325,36.214,20.625
		c17.087,7.548,21.833,9.406,41.519,9.406h4.983c26.253,0,65.169-27.755,70.47-27.755h3.641c4.277,0,7.064,12.156,8.373,16.158
		c1.072,3.262,1.868,6.106,3.225,9.084c1.204,2.76,4.599,4.429,4.741,6.154l6.382,0.237c25.963,2.001,36.811-31.16,70.009-31.16
		h3.158c7.415,0,8.847,0.93,2.845-6.012c-2.703-3.072-4.988-5.538-8.421-7.965c-3.034-2.19-7.226-4.372-11.132-5.681
		c-4.049-1.299-12.754-0.142-11.92-3.347c1.773-6.524,6.988-18.026,10.336-23.015c2.285-3.395,14.944-15.731,15.134-17.646
		c-16.622,0-20.719,2.285-32.126,7.453c-4.789,2.134-7.871,5.405-11.55,8.468c-2.551,2.152-8.373,8.478-9.957,9.559
		c-3.489-7.273-5.216-18.965-8.563-26.931c-4.381-10.478-6.799-13.551-21.924-13.551h-1.812c-4.011,0-5.774,1.119-8.619,1.356
		c0.189-0.654,16.48-13.323,19.184-16.728c5.253-6.799,9.491-14.015,13.076-22.341c16.708-38.574,0.512-56.179,3.717-97.02
		c2.152-27.244,5.272-36.366,17.183-54.212l0.512-0.317l-16.196-24.683l-0.654,0.459c-9.312,2.471-7.264,6.799-24.578,6.799h-0.882
		c-5.718,0-31.644-8.757-38.167-10.9c-10.658-3.537-28.221-6.377-42.273-6.377h-0.925c-22.63,0-39.945,1.394-58.464,5.632
		c-9.639,2.195-16.201,3.869-24.356,7.453c-5.253,2.276-17.458,7.818-23.962,7.818h-5.04c-5.348,0-6.05-2.271-10.426-2.271
		l-17.035,25.797c0.422,1.015,6.799,7.738,8.614,10.849c1.356,2.332,5.4,10.904,5.998,13.085
		C192.337,372.085,168.877,390.211,188.06,441.397L188.06,441.397z"/>
	<path fill-rule="evenodd" clip-rule="evenodd" fill="#FFFFFF" stroke="#010101" stroke-width="0.5123" stroke-miterlimit="10" d="
		M311.636,399.054c1.309,0.849,1.726,2.47,2.845,3.499c1.119,0.834,1.821,2,2.514,3.12c1.023,0.697,1.355,2.005,2.229,2.84
		c0.938,0.787,1.82,1.626,2.475,2.754c1.261,1.395,2.428,2.878,3.963,3.992c1.338,1.167,1.157,3.262,2.561,4.339
		c0.93,0.929,2.134,1.626,2.826,2.792c0.749,1.309,1.868-0.422,2.475-1.024c0.892-0.702,0.749-1.451,0.275-2.375
		c-0.237-1.536-1.395-2.65-2.001-4.049c-0.749-1.076-1.309-2.28-2.144-3.257c-0.645-1.408-1.573-2.565-2.408-3.831
		c-0.427-0.977-0.854-1.992-1.641-2.741c-0.977-0.934-1.441-2.19-2.37-3.12c-0.513-1.024-1.347-1.863-1.773-2.982
		c-0.417-1.394-1.574-2.371-2.693-3.257c-1.394-1.167-2.522,0.459-3.641,1.066c-1.204,0.379-2.409,0.977-3.158,2.001l-0.133,0.142
		L311.636,399.054L311.636,399.054z"/>
	<path fill-rule="evenodd" clip-rule="evenodd" fill="#FFFFFF" stroke="#010101" stroke-width="0.5123" stroke-miterlimit="10" d="
		M272.682,398.636c-1.028-0.512-1.355,1.821-2.195,2.66c-0.645,0.649-0.977,1.157-1.532,1.764c-0.787,0.797-1.579,0.935-2.186,1.536
		c-0.469,0.422-0.749,1.726-0.887,2.423c-0.137,0.517-5.723,7.363-5.959,8.34c-0.228,1.02-1.537,1.579-1.954,2.006
		c-0.749,0.739-0.981,1.394-1.536,1.958c-0.697,0.692,1.067,5.908,1.536,5.301c0.56-0.734,0.977-1.209,1.536-1.764
		c0.654-0.659,0.972-1.219,1.531-1.778c0.659-0.645,1.219-0.972,1.773-1.531c0.792-0.792,0.839-1.209,1.958-1.769
		c0.835-0.379,1.395-1.214,1.764-1.963c0.38-0.734,1.077-1.294,1.536-1.764c0.697-0.697,1.214-0.977,1.773-1.531
		c0.645-0.702,0.977-1.219,1.536-1.778c0.749-0.744,0.887-1.066,1.773-1.536c0.735-0.365,1.209-1.166,1.526-1.773
		c0.427-0.787,1.167-1.114,2.006-1.294c0.934-0.242,1.441-0.839,1.949-1.356c0.839-0.839,0.939-0.697,1.55-1.309
		c0.317-0.318,0-2.788,0-3.3c0-1.304-0.474-1.631-0.892-2.423c-0.327-0.697-1.493-0.934-2.19-1.114
		c-0.929-0.237-2.465,0.09-3.072,0.228C273.384,397.058,273,397.935,272.682,398.636L272.682,398.636z"/>
	<path fill-rule="evenodd" clip-rule="evenodd" fill="#243E90" d="M293.908,300.374c-0.232,0-0.512,0-0.749,0
		c-1.209,0.09-2.375,0.37-3.399,1.114c-1.294,1.446-3.859,1.346-4.608,3.3c0.09,2.754,3.912,2.475,5.775,3.451
		c2.281,0.697,2.93,3.817,5.453,4.144c1.906,1.167,4.504,2.233,4.883,4.755c0.697,2.044-0.469,4.049-1.113,5.912
		c-0.939,1.773-2.338,3.31-4.097,4.286c-0.47,0.417-0.977,0.787-1.536,1.119c-0.697-0.09-1.499-0.09-2.233-0.09
		c-0.892,0.038-1.863-0.1-2.75,0.175c-0.564,0.939-1.256,1.868-2.375,1.678c-1.067-0.042-2.233,0.138-3.258-0.137
		c-0.981-0.375-1.483-1.816-1.256-2.746c0.606-0.417,2.508-0.696,2.887,0.09c1.205,0.469-0.237-1.067-0.569-1.484
		c-0.128-0.521-2.129-1.446-2.409-0.938c-0.977,0.517-0.659,2.522-1.816,2.802c-1.076,0.598-2.423-1.219-3.361-1.309
		c-1.114-0.138-1.759-0.047-2.878,0.232c-0.839,0.327-0.977,0.744-1.916,0.697c-1.066,0.28-1.483,1.356-1.905,2.281
		c-0.048,0.929-0.365,2.195,0.09,3.034c0,1.029,0.611,1.584,1.636,1.394c0.877,0.228,1.484-0.28,2.375-0.047
		c0.697-0.043,2.371,0.275,1.205,1.114c-0.28,0.327-2.143,0.654-0.977,0.887c1.029,0.417,2.096-0.787,2.053-1.764
		c0.18-1.029-0.275-1.684-1.256-1.773c-0.934-0.422-1.963-0.194-2.84-0.56c-0.977-0.327-1.119-1.166-0.887-2.195
		c-0.189-1.114,0.977-1.759,1.953-1.759c0.939-0.095,1.257-0.232,2.19-0.095c1.02-0.048,1.441,1.161,2.134,1.764
		c0.801,0.891,1.119,2.096,0.892,3.262c-0.228,0.47-0.702,1.954,0,1.954c0.606-0.877,1.721-0.46,2.65-0.46
		c1.114-0.047,2.702,0.142,3.773-0.137c0.513-0.28,1.489-1.266,2.518-2.195c1.067-0.882,1.812-1.721,2.323-1.812
		c0.792-0.422,1.441-0.839,2.333-0.611c-0.474,0.512-0.892,1.119-1.029,1.868c-1.256,2-1.636,4.656-3.21,6.287
		c-0.801,0.46-1.076,1.906,0.228,1.726c0.19,1.996-1.484,4.049-0.28,5.912c2.148,1.347,5.073,0.228,7.501,0.697
		c3.627,0,7.254,0.232,10.891-0.09c0.228-0.28,0.18-0.555,0.133-0.887c-0.322-0.659-0.513-1.536-0.598-2.422
		c0.513,0.142,1.204,0.142,1.347,0.09c0.189-0.043-0.654-1.209-1.024-1.446c-0.237-0.18-0.237-0.279-0.407-0.317
		c0,0,0.028-0.052,0-0.052c0.028-0.465,0.028-0.887,0.085-1.304c0.038-0.749,0.085-1.256,0.143-1.764
		c0.228,0.232,0.455,0.508,0.749,0.697c0.275,0.138,0.598,0.317,0.834,0.56c0.322,0.279,0.692,0.507,1.119,0.56
		c0.313,0.047,0.645-0.09,0.834-0.332c0.323-0.37,0.73-0.607,1.024-0.977c0.228-0.232,0.133-0.508,0.133-0.787
		c0-0.517-0.427-0.237-0.55,0c-0.332,0.365-0.797,0.739-1.309,0.649c-0.379-0.095-0.607-0.422-0.882-0.649
		c-0.332-0.237-0.474-0.56-0.56-0.939c-0.095-0.607-0.189-1.256-0.143-1.901c1.205-1.825,2.096-3.821,3.12-5.78
		c0.189,0.185,1.584,1.911,2.001,2.798c0.369,0.701,1.773,1.157,2.513,1.346c0.882,0.19,3.072,0.275,3.964,0.275
		c0.275,0,1.071,0.892,1.252,0.939c0.455,0.28,0.228-1.214,0.228-1.583c0-1.257,1.176-1.631,2.285-1.394
		c1.45,0.28,1.45,0.507,2.001,1.622c0.047,0.189-0.38,0.611-0.93,1.119c-0.568,0.517-0.977,0.417-1.156,0.517
		c-0.332,0.279-0.522,0.697-0.702,0.877c-0.844,0.849-0.143,2.243,0.37,2.893c0.464,0.559,0.332-1.674,0.977-2.006
		c0.749-0.365,0.977-0.977,1.621-1.622c0.702-0.697,0.56-0.697,0.56-2.005c0-1.076-0.787-1.494-1.432-2.143
		c-0.521-0.465-1.821-0.28-2.522-0.28c-1.252,0-1.024-0.797-1.024-2.001c0-0.649-1.726-0.801-2.36-0.801
		c-1.869,0-0.38,0.986,0.359,1.167c0.702,0.194,0.646,1.726,0.37,2.006c-0.322,0.327-0.787,0.696-1.299,0.839
		c-0.55,0.189-1.109,0.1-1.403,0.1c-0.503,0.038-1.015-0.052-1.252-0.1c-0.607-0.143-2.238-1.583-2.371-2.043
		c-0.227-0.939-0.929-1.446-1.118-2.286c0.142-0.417,0.189-0.796,0.237-1.166c0.369,0.189,0.786,0.37,0.881,0.37
		c0.835,0.189,0.883,0,0.38-0.65c-0.058,0.052-0.702-0.37-1.176-0.507c0.095-1.219-0.048-2.475-0.085-3.727
		c0-0.517,0-1.029,0.037-1.536c0.048,0.038,0.143,0.138,0.143,0.18c0.275,0.559,1.498,0.19,2.001,0c0,0-1.3-1.256-1.441-1.437
		c-0.322-0.332-0.455-0.521-0.654-0.568c0-0.787,0-1.622-0.133-2.414c0.048,0,0.048,0,0.085,0c0.702,0,0.797,0.417,1.546,0.74
		c0.683,0-1.128-1.029-1.261-1.726c-0.143-0.508-0.465-0.598-0.702-0.598c-0.171-0.839-0.37-1.726-0.645-2.565
		c0.133,0.042,0.228,0.042,0.37,0.042c0.881,0,1.023,0.1,1.811-0.56c0.749,0-1.204-0.645-1.953-0.645c-0.048,0-0.645,0-0.787-0.332
		c0.56-0.038,1.906-0.09,2.74-0.28c0.797-0.189,0.882-0.607,0.938-0.886c-0.189,0.1-0.56,0.237-0.938,0.279
		c-0.645,0.143-1.156,0-1.536,0c-0.512,0-1.062,0-1.583,0c-0.323-0.697-0.693-1.347-1.215-1.991
		c-0.085-0.138-0.18-0.332-0.322-0.469c0.189-0.052,0.38-0.09,0.56-0.09c0.654,0,1.081,0.038,1.669-0.279
		c0.569-0.237,0.749-0.38,1.556-1.114c-0.199,0.038-1.081,0.365-1.499,0.365c-0.417,0.052-1.441-0.09-1.82-0.09
		c-0.645,0-0.777,0-1.299,0c-0.143-0.199-0.285-0.374-0.427-0.555c0.379-0.199,0.806-0.422,1.128-0.701
		c0.322-0.375,1.157-0.707,1.631-1.124c0.039-0.09,0.873-1.066,0.646-0.929c-0.55,0.232-1.252,0.323-1.868,0.65
		c-0.872,0.417-2.541,0.09-3.12,0.09c-0.132-0.143-0.313-0.318-0.455-0.507c-1.772-1.347-4.059-1.678-6.192-2.143
		C297.498,300.653,295.682,300.321,293.908,300.374L293.908,300.374z M314.253,309.074c0.143-0.09,0.228-0.138,0.086-0.138
		C314.291,308.984,314.291,309.036,314.253,309.074L314.253,309.074z"/>
	<path fill-rule="evenodd" clip-rule="evenodd" fill="#ED2224" stroke="#010101" stroke-width="0.5123" stroke-miterlimit="10" d="
		M300.982,317.926c-1.114-0.327-2.001-1.252-3.12-1.531c-1.067-0.47-2.233-0.512-3.347-0.47c-1.167,0-2.333,0-3.504,0.048
		c-0.313,0.137-3.527,0.512-3.854,0.56c-0.977,0.228-1.954,0.697-2.982,0.507c-1.067,0.19-2.143-0.038-2.84-0.877
		c-0.977-0.417-1.484-1.683-0.56-2.385c0.749-0.455,0.189-1.015-0.455-0.692c-0.939,0.189-1.726,0.882-2.144,1.773
		c0.09,1.114,0.138,2.418,1.015,3.257c0.887,0.702,2.058,0.977,3.225,0.892c0.365,0.038,1.849,0.228,2.28,0.228
		c0.735,0.09,1.484,0.047,2.229-0.189c1.209-0.603,2.565-0.512,3.774-1.029c1.764-0.455,3.575-0.317,5.353-0.365
		c1.256,0.085,2.46,0.555,3.675,0.792c0.459,0.465,2.186,0.512,1.309-0.427L300.982,317.926L300.982,317.926z"/>
	<rect x="297.166" y="284.306" fill-rule="evenodd" clip-rule="evenodd" fill="#010101" width="1.166" height="4.651"/>
	<path fill-rule="evenodd" clip-rule="evenodd" fill="#DB1F26" stroke="#010101" stroke-width="0.5123" stroke-miterlimit="10" d="
		M296.052,289.517c-0.749,0-1.261-0.09-1.778,0.422c-0.317,0.327-0.877,0.792-1.204,1.166c-0.417,0.417-1.583,2.978-0.56,2.978
		c0.749,0,2.982,0.138,3.68,0.138c0.606,0,0.559-0.934,0.559-1.574c0-0.934,0-0.986,0.137-1.636
		C297.076,290.213,296.796,289.654,296.052,289.517L296.052,289.517z"/>
	<path fill-rule="evenodd" clip-rule="evenodd" fill="#DB1F26" stroke="#010101" stroke-width="0.5123" stroke-miterlimit="10" d="
		M289.95,290.962c-0.37,0.37-0.75,0.787-0.839,1.256c-0.228,0.787-0.09,1.266,0.143,1.721c0.464,0.891,1.446,0.052,1.493-0.1
		c0.09-0.318,0.417-2.129,0.839-2.788c0.365-0.598,1.574-1.114,1.574-1.437c0-0.242-1.209,0-1.958,0.323
		C290.466,290.266,290.177,290.73,289.95,290.962L289.95,290.962z"/>
	<path fill="#010101" d="M299.166,285.837c0.423,0.787,0.091,1.726-0.654,2.143c-0.787,0.417-1.716,0.1-2.133-0.659
		c-0.379-0.735-0.1-1.712,0.645-2.134C297.811,284.808,298.749,285.088,299.166,285.837L299.166,285.837z"/>
	<path fill-rule="evenodd" clip-rule="evenodd" fill="#243E90" d="M269.51,291.19c-0.274,0-0.555,0.052-0.834,0.052
		c-0.143-0.052-1.257,0-1.674,0.138c-0.232,0.052-0.792,0.189-1.347,0.332c-0.279,0.085-0.517,0.175-0.749,0.228
		c-0.228,0.09-1.484,0.787-1.636,1.024c-0.834,0.839-1.626,1.726-2.043,2.793c-0.749,1.166-0.697,2.565-0.697,3.869
		c-0.189,1.167,0.279,2.286,1.066,3.073c0.521,0.839,1.826,1.394,2.423,2.19c0.659,0.977,1.309,1.588,1.863,2.612
		c0.19,0.877,0.28,2.271-0.649,2.792c-1.356,0-2.698-0.09-4.054-0.052c0-0.28,0-0.555,0-0.787
		c-3.162-2.978-7.729-5.732-12.104-6.292c-0.038,0-0.038,0-0.038,0c-0.279-0.228-0.659-0.464-0.697-0.787
		c0.038-0.237,0.038-0.517,0.228-0.654c0.137-0.142,0.137-0.512,0.417-0.559c0.142-0.043,0.611-0.143,0.37-0.318
		c-0.37-0.189-0.735-0.142-1.157-0.142c-0.048,0-0.095,0-0.138,0.042c-0.189,0.047-0.469,0-0.569,0.275
		c-0.28,0.47-0.456,0.977-0.413,1.536c0,0.189,0,0.379,0,0.56c-0.972,0.047-1.958,0.138-2.835,0.465
		c-2.286-0.275-8.525-2.139-11.507-2.001c-0.977,0.1-1.583,0.379-1.622,0.977c2.371,1.076,11.82,1.166,11.493,2.65
		c-3.399,0.204-18.154,2.437-21.502,3.172c-1.356,6.102,9.587,3.499,13.688,4.808c-0.702,0-1.446,0-2.096,0.176
		c-1.029,0.142-4.794,0.891-5.822,0.981c-2.513,0.047-5.078,0.464-7.548,0.555c-0.735,0-1.205,0.047-1.157,0.938
		c-0.797,0.327-2.65-0.052-3.499,0.138c-0.275-0.048-0.228,0.649,0.189,0.787c0.839,0.469,1.778,0.701,2.703,0.606
		c0.834,0,10.616-1.674,15.831-2.65c-4.059,2.561-10.388,3.727-14.665,6.472c-1.356,0.977-4.604,2.144-6.937,3.537
		c-1.167,0.697-3.731,1.916-4.148,2.802c-0.456,0.839,0.749,1.346,1.726,2.414c1.583,0.332,3.31,0.379,5.025,0.237
		c0.745-0.417,3.585-1.911,3.817-2.053c0.047-0.038-0.839,0.981-1.536,1.726c4.704-0.834,9.549-2.93,13.176-4.936
		c1.119-0.275,1.868-0.379,2.328-0.417c-2.703,0.925-8.515,5.775-10.194,6.012c-2.275,0.835-3.954,2.698-6.377,3.11
		c-1.114,0.29-2.333,1.024-3.31,1.584c-0.739,0.138-2.65,0.749-3.352,1.119c-0.645,0.327-0.085,0.564-0.185,1.441
		c-0.602,1.636-2.414,0.659-3.679,1.218c-0.839,0.417,0.289,2.006,0.844,1.484c1.261-0.46,2.883-0.697,4.376-1.863
		c1.859-0.56,17.827-9.819,19.222-10.753c0.886-0.977,2.053-1.679,3.072-2.466c-0.181,0.28-0.37,0.56-0.65,0.977
		c-1.256,1.764-4.936,5.353-6.239,6.244c-6.102,4.884-11.446,10.663-16.528,16.576c-1.437,0.275-7.487,6.287-7.724,7.543
		c-0.285,1.209,5.03,2.143,7.164,1.489c0.379-0.28,0.938-0.602,1.545-0.929c0.597-1.304,2.883-6.52,3.072-6.989
		c0.038-0.228-0.749,4.049-1.167,5.822c1.024-0.607,2.144-1.304,3.172-2.143c0.92-0.744,1.759-1.583,2.551-2.371
		c0.654-1.636,3.4-8.198,3.637-8.804c0.038-0.228-0.606,3.489-1.128,6.054c0.189-0.19,0.379-0.375,0.521-0.474
		c2.038-1.674,4.134-3.257,5.86-5.158c0.242-0.422,0.796-1.119,1.583-1.958c0.143-0.555,1.029-4.476,1.067-4.841
		c0-0.099,0.242,1.859,0.379,3.4c2.371-2.333,5.443-4.983,6.889-6.103c-1.119,1.205-1.953,2.65-2.93,3.954
		c-2.006,1.589-3.172,3.869-5.216,5.405c-1.583,2.143-3.361,3.77-4.845,6.012c-1.114,1.854-18.202,20.117-19.316,22.436
		c-1.484,1.081,0.787,1.641-0.702,2.665c-1.205,1.157-1.901,3.352-3.627,4.134c0.232,0.574,1.304,0.801,1.764,0.474
		c0.839-0.611,2.233-2.096,2.422-2.845c0.977-0.744,1.773-1.622,2.423-2.598c0.702-0.939-0.327,0.038,0.28-0.939
		c0.886-2.043,15.968-19.79,17.362-21.791c1.398-1.636,2.465-3.542,3.959-5.125c2.186-2.655,4.693-4.988,6.842-7.638
		c-2.65,4.883-6.662,11.782-7.956,13.55c-3.537,5.216-5.822,11.138-9.549,16.258c-4.239,6.334-4.936,14.243-9.122,20.587
		c-0.19,2.74-6.52,15.499-6.662,16.897c-0.038,0.654,4.338,0.237,5.073,0.1c0.802-0.142,1.499-0.422,2.144-0.839
		c1.309-0.749,2.423-1.963,3.314-3.31c0.735-1.119,1.432-2.053,1.954-3.12c0.047-0.981,0.455-7.078,0.455-7.595
		c0-0.18,0.573,2.56,0.977,4.613c0.242-0.37,0.432-0.697,0.664-1.114c0.882-1.394,1.811-2.935,2.508-3.958
		c1.119-1.812,2.375-4.145,3.679-6.757c-0.19-2.143-0.56-7.311-0.65-7.828c0-0.228,1.067,2.978,1.854,5.362
		c2.333-4.755,4.655-9.966,6.751-14.153c-0.042-0.801-0.37-4.618-0.417-4.945c0-0.09,1.024,1.773,1.583,2.84
		c1.077-2.096,2.091-3.817,2.982-4.846c1.673-2.931,4.931-13.077,7.254-12.759c-1.954,3.172-2.65,7.496-5.021,10.345
		c-0.839,4.277-7.956,17.927-8.567,21.322c-1.721,4.148-4.466,7.827-5.49,12.256c-1.446,3.399-3.314,6.566-4.656,9.966
		c-1.764,3.399-4.466,8.008-5.305,11.825c-0.417,1.076,0.095,1.493,0.142,2.28c0.038,0.801-0.379,1.916-1.309,2.703
		c-0.887,0.559-2.233,2.47-2.84,3.731c-0.555,1.257-1.029,1.863,0.787,1.494c1.636-1.219,3.167-3.637,3.869-5.453
		c0.327-0.939,2.005-4.618,2.422-5.458c0.887-2,4.149-9.914,5.263-11.782c1.626-2.925,14.565-36.503,15.873-39.912
		c1.252-2.793,3.258-7.307,4.832-10.796c-1.205,6.381-5.723,13.408-6.278,19.558c-1.726,5.959-6.894,11.455-4.978,18.026
		c-4.476,9.169-6.007,19.368-8.24,29.196c-0.375,2.233-1.167,5.68-2.195,8.752c-0.508,1.532-2.134,3.447-2.134,4.613
		c0.038,1.172,1.679,1.627,3.399,2.096c3.527-0.749,4.974-3.029,5.912-5.68c0.038-1.262,0.176-6.154,0.176-6.609
		c0-0.189,0.332,3.21,0.521,4.931c0.455-0.886,1.294-2.095,1.953-3.399c0.877-1.773,1.446-3.627,2.134-4.096
		c0.517-0.887,1.773-3.779,3.082-6.619c-0.189,0.1-0.379,0.189-0.521,0.279c0-0.507,0.659-14.622,0.659-15.688
		c0-0.422,1.114,7.724,1.574,11.45c0.796-1.901,1.446-3.627,1.446-5.073c0.38-2.982,1.868-5.912,2.893-8.895
		c0.18-0.465,0.417-1.394,0.735-2.423c-0.365-1.953-1.622-8.989-1.811-9.596c-0.043-0.228,1.674,3.077,2.978,5.732
		c0.474-1.347,0.938-2.56,1.309-3.12c1.066-1.484,2.043-4.48,2.892-7.306c0.09-0.242,0.128-0.574,0.228-0.801
		c-0.1,0.09-0.138,0.189-0.228,0.228c-0.099-0.318-2.285-9.639-2.522-10.336c-0.038-0.228,2.56,4.845,3.636,6.989
		c1.536-5.543,3.3-12.109,3.859-12.526c0.375-0.323,0.659-0.46,1.114-0.375c-1.304,4.467-3.3,13.65-4.233,15.793
		c-0.422,3.77-6.003,30.833-7.169,34.412c-1.536,3.779-1.446,7.828-3.3,11.502c-1.636,4.149-2.471,8.525-4.656,12.432
		c0,2.711-5.035,5.13-2.233,6.846c0.787,3.082-5.353,4.239-4.238,6.714c3.494-1.166,5.485-4.429,6.889-7.586
		c0.513-1.726,3.912-8.524,6.055-15.423c2.134-6.941,3.072-13.968,3.537-15.741c0.228-0.787,9.303-43.454,9.487-44.383
		c0.384-0.977,1.081-2.19,1.356-3.357c0.042-0.09,0.042-0.228,0.095-0.317c0.327,0.228,0.606,0.038,0.606,1.166
		c0,1.015-1.119,8.003-2.058,13.873c1.816-0.977,4.329-2.19,4.201-2.091c-0.327,0.37-4.011,4.694-4.755,5.533
		c-0.09,0.749-0.322,2.005-0.37,2.56c-0.417,2.423-0.886,7.548-1.256,12.204c1.346-1.157,3.072-2.551,2.973-2.423
		c-0.228,0.379-2.793,5.121-3.253,5.969c-0.189,2.793-0.327,5.163-0.237,5.495c-0.18,1.721-1.816,8.52-1.673,11.313
		c0.137,2.793,1.304,1.536,4.514,0.332c0.796-0.938,1.498-1.915,2.091-2.944c-0.138-0.787-0.735-4.694-0.835-5.021
		c0-0.142,1.219,1.342,2.144,2.65c1.726-3.452,2.84-7.131,3.869-10.706c-1.076-2.105-2.845-5.595-3.082-5.96
		c-0.128-0.189,2.143,1.949,3.778,3.575c0.138-0.417,0.28-0.839,0.37-1.257c1.621-3.157,2.513-9.497,3.072-14.992l-0.043,0.052
		c-0.151-0.189-3.542-5.875-3.816-6.292c-0.143-0.142,2.598,2.144,4.139,3.485c0.327-3.485,0.517-6.277,0.692-7.074
		c0.384-1.347,0.384-2.702,0.702-3.731c0.137-0.502,0.327-0.924,0.749-1.251c0.047,0,0.09-0.042,0.138-0.042
		c-0.138,1.764-0.138,5.495-0.048,5.912c0.185,1.446-0.042,2.93-0.042,4.376c0,1.219-0.75,6.609-0.887,8.193
		c-0.612,1.119-1.906,5.732-2.186,6.851c0.697,0.417,1.627,0.839,1.209,1.911c-0.052,1.209-0.801,2.328-1.256,3.494
		c-0.517,0.782,0.279,1.484,0.697,0.692c1.346-1.024,3.3-13.925,3.679-15.182c0.228-2.001,0.038-4.006,0.09-6.007
		c0.048-1.678-0.052-8.757-0.09-10.616c0.555-0.095,1.067-0.232,1.204-0.284c0.28-0.138,1.029,0,1.257,0.422
		c0.417,0.834,0.56,21.748,0.938,23.526c2.186,2.788,3.39,0.128,4.466-2.476h-0.047c0-0.137-0.047-3.958-0.047-4.233
		c-0.047-0.1,0.564,0.977,1.024,1.953c0.375-0.787,0.792-1.356,1.209-1.304c0.285-1.309,0.512-2.655,0.74-4.011
		c-0.365-0.735-1.901-4.324-2.043-4.604c-0.09-0.09,1.256,1.114,2.371,2.144c0.422-3.542,0.564-7.079,0.474-10.616
		c0-1.028-0.375-2.75,0.038-3.309c0.289-0.37,0.654-0.37,1.076-0.332c0,1.166-0.047,2.375,0.052,3.542
		c0.507,1.024,0.417,2.19,0.555,3.257c-0.047,0.839,0.285,4.897,0.232,6.102c0.138,1.304-0.052,3.399,0.327,4.656
		c0.181,0.275,0.37,0.465,0.508,0.1c0.189-0.379,0.09-1.584,0.284-1.773c0.327-0.512,0.228-0.512,0.417-1.066
		c0.138-0.84-0.232-6.434-0.469-6.937c-0.181-0.664-0.095-1.119-0.043-1.816c-0.052-0.611-0.1-1.271-0.138-1.915
		c1.674,4.565,7.307,10.478,1.446,14.015c-6.382,3.917-9.312,11.133-12.953,17.235c-0.877,0.697-2.233,2.005-3.3,3.912
		c-0.517,0.977-4.006,0.887-3.954,1.351c0,0.28-0.702,3.025,0.189,3.58c0.877,0.569,3.348-1.114,3.807-1.347
		c3.257-0.977,6.941-6.656,8.473-3.627c3.917-2.522-0.09,4.466,2.94,5.543c-0.654,4.134-1.911,13.641,3.3,14.437
		c-1.622-5.035-2.599-12.014,0.37-16.869c3.082-4.651,5.215-12.289,6.292-16.059c-0.228,1.166,0.048,3.067,0.649,4.746
		c0,0.379,0.048,0.796,0.237,1.356c0.228,3.072,0,6.14-0.047,8.89c3.817,0.469,0.787,9.084-2.754,5.542
		c-1.484-1.621,4.096-3.447,0.142-3.21c-2.882,0.417-3.489,3.59-1.066,4.884c-2.186,0.379-5.125,2.84-3.537,5.505
		c2.646,0.645,4.182,2.982,1.669,4.518c3.314,1.304,4.884-4.618,1.119-4.518c-2.935-1.636-0.507-3.589,1.726-2.992
		c2.139,0.517,4.604-4.883,4.846-1.066c-0.801,3.072-1.541,6.988-4.566,8.714c-2.058,0.645-4.793,2.285-3.49,4.793
		c1.205-2.793,5.86-1.204,6.467-5.125c0.232-1.484,2.281-4.704,1.399-1.204c-1.489,3.12-2.982,6.33-4.988,9.122
		c-1.536,1.816-4.376,5.96-2.28,7.592c1.916-3.025,4.196-5.918,5.315-9.407c0-1.674,2.418-4.514,1.394-1.252
		c-0.702,3.447-1.347,6.937-3.125,10.057c-1.251,3.072-2.181,6.751-5.021,8.705c-2.333,1.631-6.05-2.561-2.65-3.3
		c1.764,0.228,0.925,4.096,2.65,1.441c1.906-2.893-0.56-5.453-2.513-6.932c3.067-1.873,2.551-6.069,2.93-9.137
		c-0.977-2.793-4.846-4.983-7.306-2.65c-3.537,1.584-1.583,6.05,1.906,5.58c1.356-1.626-2.603-5.68,1.584-4.746
		c3.717,0.75,1.484,5.586-1.114,6.43c-3.034,0.877-7.69,1.437-6.714,5.774c-2.043,0.606-5.158-5.774-1.531-5.912
		c3.399-1.546-3.399-2.47-3.722,0.228c-2.091,1.953,3.02,7.221-1.721,5.543c-2.65,0-5.913-0.797-8.055,1.118
		c-2.561,2.238-1.015,6.704-4.936,7.861c-0.332,1.915,2.091,4.523-1.399,4.011c-1.721,1.081-0.327,3.263,0.981,1.441
		c1.773,0.38,3.12,1.821,4.983,0.189c1.764,0.237,5.301,1.537,2.883,3.689c-1.816-2.949-2.84,1.526,0,1.611
		c3.727-0.36,3.864-5.955,0.834-7.491c0.56-1.583,4.149-3.205,1.868-5.68c-0.37-2.466-5.964-2.466-2.845-0.189
		c2.612,2.275-5.77,0.569-2.93-2.276c1.588-2.332,6.002-4.191,7.686-1.166c0.649,2.75,0.512,5.822,1.906,8.335
		c0.929,2.845,5.073,2.049,6.097,3.821c-1.214,0.93-6.519,1.812-2.233,3.205c3.3,0.75,0.375,4.618-1.441,1.727
		c-0.792,3.31,5.86,3.954,6.33,0.465c0.697,1.176,2.65,4.011,3.395,0.834c-0.517-3.717,4.139-2.561,6.197-4.087
		c4.741-3.68,7.116-9.502,8.003-15.267c0.555-3.552,1.304-6.994,1.583-10.583c0.787,1.773-0.052,5.121,0,7.548
		c-0.327,3.955-1.218,7.823-2.143,11.73c-1.066,3.584-2.233,7.633-5.4,10.022c-1.726,1.015-3.024,0.73-3.489-0.948
		c-2.186-0.55-1.536,2.987-3.821,2.2c-0.555,1.622,3.209,2.883-0.038,4.239c-3.452,0.464-4.286,5.025-2.285,7.453
		c1.716,3.024,7.728-0.797,3.352-1.963c-2.93-0.086-0.417-2.599,1.395-1.622c1.626,0.465,1.398,4.002,3.997,3.623
		c0.242-1.024-1.716-2.646,0.801-2.836c3.447-0.142,1.622-5.68,4.793-6.884c2.285-1.403,2.422-6.941,3.347-7.226
		c0.47,3.395-1.441,6.477-3.347,9.084c-1.678,2.181-2.281,5.215-2.982,7.405c-3.764,0.702,2.56,1.707,4.096,1.765
		c1.119,0.142,1.864,1.764,2.376,2.845c0.279,0.512,0.749,1.631,1.214,1.583c0.407-0.095,0.839-1.355,0.981-1.583
		c0.555-1.081,1.342-2.703,2.409-2.845c1.584-0.058,7.918-1.063,4.097-1.765c-0.646-2.19-1.295-5.225-2.931-7.405
		c-1.906-2.607-3.854-5.689-3.347-9.084c0.924,0.284,1.023,5.822,3.31,7.226c3.205,1.204,1.394,6.742,4.836,6.884
		c2.475,0.189,0.521,1.812,0.749,2.836c2.655,0.379,2.36-3.158,4.039-3.623c1.783-0.977,4.334,1.536,1.403,1.622
		c-4.418,1.166,1.631,4.987,3.348,1.963c1.963-2.428,1.119-6.989-2.323-7.453c-3.215-1.356,0.56-2.617-0.048-4.239
		c-2.275,0.787-1.631-2.75-3.764-2.2c-0.475,1.679-1.773,1.963-3.49,0.948c-3.177-2.39-4.333-6.438-5.462-10.022
		c-0.872-3.907-1.764-7.775-2.133-11.73c0.095-2.427-0.796-5.774,0.042-7.548c0.28,3.589,0.977,7.031,1.536,10.583
		c0.887,5.765,3.257,11.587,8.056,15.267c2.048,1.526,6.656,0.37,6.191,4.087c0.702,3.177,2.693,0.342,3.396-0.834
		c0.417,3.489,7.131,2.845,6.325-0.465c-1.812,2.892-4.742-0.977-1.433-1.727c4.286-1.394-1.024-2.275-2.237-3.205
		c1.023-1.772,5.168-0.977,6.097-3.821c1.347-2.513,1.262-5.585,1.858-8.335c1.735-3.025,6.145-1.166,7.682,1.166
		c2.892,2.846-5.49,4.552-2.883,2.276c3.129-2.276-2.466-2.276-2.893,0.189c-2.266,2.475,1.356,4.097,1.868,5.68
		c-3.024,1.536-2.845,7.131,0.892,7.491c2.787-0.085,1.764-4.561-0.048-1.611c-2.427-2.152,1.109-3.452,2.883-3.689
		c1.906,1.632,3.215,0.19,5.026-0.189c1.251,1.821,2.654-0.36,0.929-1.441c-3.489,0.513-1.062-2.096-1.347-4.011
		c-3.906-1.157-2.428-5.623-4.931-7.861c-2.19-1.915-5.405-1.118-8.061-1.118c-4.741,1.678,0.37-3.59-1.726-5.543
		c-0.36-2.697-7.111-1.773-3.765-0.228c3.632,0.138,0.503,6.519-1.488,5.912c0.977-4.338-3.727-4.897-6.714-5.774
		c-2.589-0.844-4.874-5.68-1.147-6.43c4.229-0.934,0.228,3.12,1.622,4.746c3.489,0.47,5.404-3.996,1.905-5.58
		c-2.513-2.333-6.372-0.143-7.349,2.65c0.369,3.067-0.104,7.264,2.978,9.137c-1.954,1.479-4.466,4.039-2.522,6.932
		c1.726,2.654,0.892-1.214,2.674-1.441c3.338,0.739-0.389,4.931-2.674,3.3c-2.835-1.954-3.765-5.633-5.017-8.705
		c-1.815-3.12-2.427-6.609-3.124-10.057c-1.066-3.262,1.355-0.422,1.398,1.252c1.071,3.489,3.395,6.382,5.263,9.407
		c2.144-1.632-0.701-5.775-2.237-7.592c-2.001-2.792-3.494-6.002-4.983-9.122c-0.925-3.5,1.119-0.28,1.356,1.204
		c0.602,3.921,5.305,2.333,6.51,5.125c1.309-2.508-1.441-4.148-3.49-4.793c-3.067-1.726-3.816-5.642-4.604-8.714
		c0.279-3.817,2.745,1.583,4.889,1.066c2.228-0.597,4.655,1.356,1.726,2.992c-3.77-0.1-2.19,5.822,1.062,4.518
		c-2.465-1.536-0.977-3.874,1.727-4.518c1.583-2.665-1.347-5.125-3.537-5.505c2.418-1.294,1.811-4.466-1.063-4.884
		c-4.016-0.237,1.612,1.589,0.086,3.21c-3.495,3.542-6.563-5.073-2.703-5.542c-0.09-2.75-0.317-5.818-0.043-8.89
		c0.181-0.56,0.232-0.977,0.181-1.356c0.654-1.679,0.934-3.58,0.654-4.746c1.076,3.77,3.257,11.407,6.339,16.059
		c2.978,4.855,1.991,11.834,0.313,16.869c5.216-0.796,4.012-10.303,3.357-14.437c3.025-1.077-1.024-8.065,2.93-5.543
		c1.536-3.029,5.168,2.65,8.43,3.627c0.503,0.232,2.931,1.916,3.822,1.347c0.882-0.555,0.228-3.3,0.228-3.58
		c0-0.464-3.442-0.375-4.002-1.351c-1.071-1.906-2.428-3.215-3.262-3.912c-3.68-6.102-6.562-13.318-12.935-17.235
		c-5.917-3.537-0.284-9.449,1.395-14.015c-0.048,0.645-0.096,1.304-0.096,1.915c0.048,0.697,0.096,1.152-0.047,1.816
		c-0.275,0.502-0.654,6.097-0.521,6.937c0.189,0.555,0.104,0.555,0.475,1.066c0.142,0.189,0.094,1.394,0.227,1.773
		c0.19,0.365,0.38,0.175,0.561-0.1c0.379-1.257,0.189-3.352,0.331-4.656c-0.047-1.204,0.237-5.263,0.237-6.102
		c0.123-1.067,0.038-2.233,0.55-3.257c0.048-1.167,0.048-2.375,0.048-3.542c0.379-0.038,0.797-0.038,1.081,0.332
		c0.37,0.56,0.038,2.281,0,3.309c-0.104,3.537,0.085,7.074,0.502,10.616c1.119-1.029,2.428-2.233,2.38-2.144
		c-0.198,0.28-1.734,3.869-2.048,4.604c0.171,1.356,0.465,2.703,0.739,4.011c0.408-0.052,0.787,0.517,1.157,1.304
		c0.513-0.977,1.071-2.053,1.071-1.953c-0.037,0.275-0.037,4.096-0.085,4.233l0,0c1.024,2.604,2.276,5.263,4.466,2.476
		c0.37-1.778,0.465-22.692,0.883-23.526c0.236-0.422,0.977-0.56,1.261-0.422c0.133,0.052,0.692,0.189,1.214,0.284
		c0,1.858-0.104,8.938-0.104,10.616c0.057,2.001-0.085,4.006,0.104,6.007c0.369,1.256,2.323,14.157,3.68,15.182
		c0.417,0.792,1.261,0.09,0.682-0.692c-0.455-1.167-1.156-2.285-1.204-3.494c-0.417-1.072,0.475-1.494,1.204-1.911
		c-0.265-1.119-1.573-5.732-2.181-6.851c-0.142-1.584-0.882-6.975-0.882-8.193c0-1.446-0.228-2.93-0.095-4.376
		c0.143-0.417,0.095-4.148,0-5.912c0.048,0,0.095,0.042,0.143,0.042c0.36,0.327,0.606,0.749,0.739,1.251
		c0.322,1.029,0.322,2.385,0.654,3.731c0.228,0.797,0.417,3.589,0.702,7.074c1.583-1.342,4.286-3.627,4.182-3.485
		c-0.322,0.417-3.718,6.103-3.859,6.292c0,0,0-0.052-0.048-0.052c0.56,5.495,1.451,11.834,3.072,14.992
		c0.133,0.417,0.237,0.839,0.38,1.257c1.621-1.626,3.906-3.765,3.821-3.575c-0.246,0.365-2.058,3.854-3.129,5.96
		c1.071,3.575,2.181,7.254,3.859,10.706c0.977-1.309,2.199-2.792,2.152-2.65c-0.095,0.327-0.654,4.234-0.797,5.021
		c0.598,1.029,1.299,2.006,2.049,2.944c3.205,1.204,4.418,2.461,4.561-0.332c0.086-2.792-1.498-9.591-1.669-11.313
		c0.085-0.332-0.057-2.702-0.247-5.495c-0.455-0.849-3.015-5.59-3.299-5.969c-0.048-0.128,1.631,1.266,3.024,2.423
		c-0.37-4.656-0.882-9.781-1.261-12.204c-0.086-0.555-0.275-1.811-0.408-2.56c-0.701-0.839-4.381-5.163-4.751-5.533
		c-0.085-0.1,2.371,1.114,4.229,2.091c-0.977-5.87-2.049-12.858-2.049-13.873c0-1.128,0.285-0.938,0.617-1.166
		c0,0.09,0.047,0.228,0.047,0.317c0.322,1.167,0.977,2.38,1.385,3.357c0.18,0.929,9.265,43.596,9.454,44.383
		c0.512,1.773,1.403,8.8,3.546,15.741c2.182,6.898,5.576,13.697,6.088,15.423c1.395,3.157,3.357,6.42,6.903,7.586
		c1.063-2.475-5.044-3.632-4.238-6.714c2.74-1.716-2.247-4.135-2.247-6.846c-2.238-3.907-3.025-8.283-4.694-12.432
		c-1.868-3.674-1.773-7.723-3.262-11.502c-1.167-3.579-6.752-30.643-7.169-34.412c-0.938-2.143-2.978-11.326-4.229-15.793
		c0.456-0.085,0.749,0.052,1.11,0.375c0.512,0.417,2.285,6.983,3.868,12.526c1.071-2.144,3.67-7.216,3.575-6.989
		c-0.181,0.697-2.418,10.018-2.456,10.336c-0.104-0.038-0.199-0.137-0.247-0.228c0.048,0.228,0.143,0.559,0.247,0.801
		c0.835,2.826,1.812,5.822,2.825,7.306c0.418,0.56,0.892,1.773,1.309,3.12c1.356-2.655,3.072-5.96,2.987-5.732
		c-0.142,0.607-1.403,7.643-1.772,9.596c0.274,1.029,0.568,1.958,0.701,2.423c1.015,2.982,2.513,5.912,2.883,8.895
		c0.047,1.446,0.654,3.172,1.441,5.073c0.465-3.727,1.621-11.872,1.621-11.45c0,1.066,0.616,15.182,0.616,15.688
		c-0.142-0.09-0.284-0.18-0.474-0.279c1.309,2.84,2.561,5.732,3.072,6.619c0.701,0.469,1.271,2.323,2.105,4.096
		c0.701,1.305,1.535,2.514,2,3.399c0.133-1.721,0.455-5.12,0.455-4.931c0,0.455,0.199,5.348,0.199,6.609
		c0.977,2.65,2.361,4.931,5.955,5.68c1.679-0.469,3.348-0.924,3.348-2.096c0-1.166-1.631-3.081-2.143-4.613
		c-0.978-3.072-1.812-6.519-2.144-8.752c-2.276-9.829-3.812-20.027-8.23-29.196c1.858-6.572-3.31-12.067-4.988-18.026
		c-0.56-6.149-5.073-13.176-6.277-19.558c1.536,3.489,3.537,8.003,4.798,10.796c1.3,3.409,14.233,36.986,15.912,39.912
		c1.119,1.868,4.334,9.781,5.215,11.782c0.428,0.839,2.096,4.519,2.466,5.458c0.646,1.816,2.181,4.234,3.821,5.453
		c1.859,0.369,1.395-0.237,0.787-1.494c-0.56-1.261-1.953-3.172-2.845-3.731c-0.872-0.787-1.299-1.901-1.251-2.703
		c0.047-0.787,0.512-1.204,0.094-2.28c-0.796-3.817-3.536-8.426-5.262-11.825c-1.395-3.399-3.205-6.566-4.656-9.966
		c-1.024-4.429-3.765-8.107-5.49-12.256c-0.646-3.395-7.729-17.045-8.563-21.322c-2.419-2.849-3.12-7.173-5.026-10.345
		c2.323-0.318,5.528,9.828,7.254,12.759c0.835,1.028,1.868,2.75,2.987,4.846c0.502-1.067,1.584-2.931,1.536-2.84
		c-0.057,0.327-0.332,4.144-0.427,4.945c2.096,4.187,4.467,9.397,6.799,14.153c0.74-2.385,1.868-5.59,1.82-5.362
		c-0.047,0.517-0.474,5.685-0.663,7.828c1.309,2.612,2.569,4.945,3.727,6.757c0.654,1.023,1.631,2.564,2.484,3.958
		c0.228,0.417,0.455,0.745,0.636,1.114c0.426-2.053,1.033-4.793,1.033-4.613c0,0.517,0.417,6.614,0.465,7.595
		c0.512,1.067,1.156,2.001,1.906,3.12c0.929,1.347,2.01,2.561,3.299,3.31c0.693,0.417,1.395,0.697,2.144,0.839
		c0.787,0.138,5.168,0.555,5.073-0.1c-0.095-1.398-6.467-14.157-6.609-16.897c-4.229-6.344-4.931-14.252-9.122-20.587
		c-3.727-5.12-6.05-11.042-9.54-16.258c-1.299-1.769-5.348-8.667-7.965-13.55c2.143,2.65,4.656,4.983,6.799,7.638
		c1.536,1.583,2.561,3.489,3.954,5.125c1.403,2.001,16.519,19.748,17.362,21.791c0.607,0.977-0.417,0,0.275,0.939
		c0.711,0.977,1.498,1.854,2.418,2.598c0.246,0.749,1.594,2.233,2.475,2.845c0.428,0.327,1.537,0.1,1.727-0.474
		c-1.679-0.782-2.381-2.978-3.585-4.134c-1.479-1.024,0.749-1.584-0.701-2.665c-1.119-2.318-18.254-20.582-19.316-22.436
		c-1.488-2.242-3.3-3.869-4.884-6.012c-2.057-1.536-3.176-3.816-5.177-5.405c-0.977-1.304-1.858-2.75-2.968-3.954
		c1.488,1.119,4.551,3.77,6.884,6.103c0.181-1.541,0.427-3.499,0.427-3.4c0.028,0.365,0.92,4.286,1.063,4.841
		c0.749,0.839,1.355,1.537,1.536,1.958c1.716,1.901,3.868,3.484,5.869,5.158c0.181,0.1,0.37,0.284,0.56,0.474
		c-0.521-2.565-1.223-6.282-1.119-6.054c0.228,0.606,2.978,7.168,3.632,8.804c0.787,0.787,1.622,1.626,2.513,2.371
		c1.072,0.839,2.134,1.536,3.168,2.143c-0.38-1.773-1.214-6.05-1.119-5.822c0.18,0.469,2.465,5.685,3.024,6.989
		c0.646,0.327,1.204,0.649,1.527,0.929c2.19,0.654,7.453-0.28,7.226-1.489c-0.237-1.257-6.297-7.269-7.729-7.543
		c-5.121-5.913-10.421-11.692-16.575-16.576c-1.3-0.891-4.931-4.48-6.23-6.244c-0.237-0.417-0.464-0.697-0.606-0.977
		c1.023,0.787,2.181,1.489,3.016,2.466c1.45,0.934,17.41,10.193,19.23,10.753c1.488,1.166,3.119,1.403,4.428,1.863
		c0.503,0.521,1.622-1.067,0.844-1.484c-1.271-0.559-3.129,0.417-3.688-1.218c-0.095-0.877,0.456-1.114-0.237-1.441
		c-0.645-0.37-2.598-0.981-3.299-1.119c-1.024-0.56-2.2-1.294-3.311-1.584c-2.427-0.412-4.096-2.275-6.381-3.11
		c-1.717-0.237-7.491-5.087-10.185-6.012c0.465,0.038,1.167,0.143,2.285,0.417c3.622,2.005,8.468,4.101,13.209,4.936
		c-0.692-0.745-1.631-1.764-1.536-1.726c0.237,0.143,3.082,1.636,3.822,2.053c1.716,0.142,3.395,0.095,4.978-0.237
		c1.024-1.067,2.19-1.574,1.773-2.414c-0.417-0.886-2.978-2.105-4.144-2.802c-2.371-1.394-5.586-2.56-6.979-3.537
		c-4.286-2.745-10.563-3.911-14.66-6.472c5.244,0.977,15.03,2.65,15.817,2.65c0.977,0.095,1.906-0.137,2.75-0.606
		c0.417-0.138,0.417-0.835,0.189-0.787c-0.834-0.19-2.75,0.189-3.547-0.138c0.048-0.892-0.369-0.938-1.109-0.938
		c-2.513-0.09-5.073-0.508-7.548-0.555c-1.062-0.09-4.836-0.84-5.822-0.981c-0.683-0.176-1.394-0.176-2.086-0.176
		c4.097-1.309,14.982,1.294,13.636-4.808c-3.3-0.735-18.055-2.968-21.506-3.172c-0.323-1.484,9.169-1.574,11.502-2.65
		c0-0.598-0.607-0.877-1.641-0.977c-2.968-0.138-9.16,1.726-11.445,2.001c-0.93-0.327-1.858-0.417-2.836-0.465c0-0.18,0-0.37,0-0.56
		c0.048-0.56-0.18-1.066-0.417-1.536c-0.104-0.275-0.379-0.228-0.606-0.275c-0.048-0.042-0.086-0.042-0.143-0.042
		c-0.369,0-0.739-0.048-1.119,0.142c-0.228,0.176,0.181,0.275,0.38,0.318c0.228,0.047,0.228,0.417,0.407,0.559
		c0.189,0.137,0.189,0.417,0.247,0.654c-0.104,0.323-0.427,0.56-0.712,0.787h-0.037c-4.429,0.559-8.99,3.314-12.1,6.292
		c0,0.232,0,0.507-0.058,0.787c-1.347-0.038-2.646,0.052-3.991,0.052c-0.939-0.521-0.845-1.916-0.664-2.792
		c0.568-1.024,1.223-1.636,1.867-2.612c0.607-0.797,1.869-1.352,2.371-2.19c0.797-0.787,1.309-1.906,1.071-3.073
		c0-1.304,0.095-2.703-0.654-3.869c-0.464-1.067-1.251-1.954-2.095-2.793c-0.086-0.237-1.338-0.934-1.584-1.024
		c-0.228-0.052-0.503-0.142-0.787-0.228c-0.55-0.142-1.119-0.28-1.299-0.332c-0.475-0.138-1.584-0.19-1.679-0.138
		c-0.275,0-0.606-0.052-0.882-0.052c-0.844,0-1.726,0.052-2.38,0.697c-0.787,0.659-4.467,2.665-4.931,3.731
		c-0.237,1.076-0.561,1.674-0.513,2.85c0.048,1.058-0.095,2.276,0.739,3.11c0.664,1.119,1.954,1.958,3.396,1.498
		c1.081-0.469,2.285-0.702,2.664-1.915c0.322-1.02,0.275-2.233,1.631-2.414c0.465,0,1.479-0.152,0.835-0.517
		c-0.228-0.1-0.607-0.891-0.93-0.938c-0.332-0.038-0.739-0.038-1.119-0.038c-0.749,0.038-1.346,1.015-1.583,1.531
		c-0.189,1.119,0.237,2.333-0.692,3.172c-0.749,1.067-2.058,0.28-2.93-0.237c-1.034-0.512-1.498-1.778-1.214-2.835
		c0-1.124,0.502-2.38,1.384-3.129c0.38-0.228,1.679-1.152,2.011-1.437c0.322-0.237,1.621-1.214,2.001-1.257
		c0.427-0.237,1.451-0.616,1.953-0.517c1.166,0,1.726,0,2.883-0.047c1.488,0.09,2.845,1.342,3.727,2.38
		c0.977,0.649,1.309,1.815,1.204,2.973c-0.085,0.469-0.038,1.119-0.038,1.735c-0.095,1.157-2.835,2.551-2.75,2.925
		c-0.787,1.067-1.726,1.996-2.702,2.897c-0.739,1.015-0.56,2.408-0.37,3.575c0.607,0.929,1.395,2.475,2.57,2.612
		c0.92,0,2.503-0.469,3.479-0.745c0,0.508,0,1.024,0,1.532c-0.142,0.052-0.274,0.1-0.417,0.19c-0.275,0.137-1.166,1.304-1.337,1.678
		c-0.199,0.464-0.569,0.327-1.309,0.327c-0.37,0-2.001-0.19-2.2,0.137c-0.037,0.143-0.228,1.484,0.199,1.906
		c0.36,0.379,0.133,0.607,0.598,1.076c0.427,0.417,0.787,0.598,1.261,1.119c0.095,0.047,1.347,1.114,0.93,1.531
		c-0.228,0.228-0.56,0.749-1.071,0.977c-0.56,0.189-1.309,0.09-1.489,0.143c-0.427,0.1-0.796,0.137-1.157,0.137
		c-0.701,0-1.583-0.189-2.199-0.464c-0.56-0.322-0.74-0.603-1.395-0.93c-0.18-0.09-1.479-0.887-0.787-1.583
		c0.513-0.512,0.787-0.469,1.869-0.469c0.313,0,1.479-0.143,1.394-0.507c-0.058-0.19-2.238-1.119-2.476-1.119
		c-0.691,0-0.844-0.048-1.394,0.228c-0.702,0.379-0.654,0.659-0.654,1.726c0,0.977,0.284,0.977,0.654,1.726
		c0.275,0.607,0.503,0.697,1.071,1.205c0.228,0.242,1.024,0.991,1.441,1.076c0.551,0.142,1.214,0.332,2.001,0.332
		c0.749,0,1.536,0,2.323,0c0.607,0,1.309,0,1.584-0.559c0.104-0.19,1.498-1.266,1.498-1.404c0-0.559,0.417-1.536,0.038-1.906
		c-0.417-0.422-0.646-0.796-1.11-1.256c-0.369-0.379-1.023-0.56-1.402-0.938c-0.37-0.365-0.978-1.114,0.331-1.114
		c1.024,0,1.204-0.138,1.858-0.417c0.569-0.332,0.883-1.167,1.347-1.536c0.19,2.84,0.93,5.59,4.097,6.149
		c0.427,0.37,1.451-0.469,1.773,0.042c0.332,0.465,0.606,1.024,0.834,1.584c0.237,0.606-0.502,1.304-0.654,2.005
		c-0.18,0.692,0.199,1.394,0.152,2.048c0,0.602,1.764,1.209,1.583,1.815c-0.198,0.56-0.474,1.067-0.796,1.536
		c-0.702,0.977-3.585,1.636-5.026,1.916c-2.465,1.621-1.726,4.969-3.916,7.026c-2.134,2.006-5.575,2.091-8.325,2.75
		c-3.263-0.887-5.272,1.114-7.264,3.02c-0.977,0.977-1.953,3.537-3.025,3.822c-1.119,0.237-2.332-1.347-3.821-2.793
		c-1.726-1.256-8.099-1.256-10.848-0.649c-2.698-0.607-9.118-0.607-10.849,0.649c-1.441,1.446-2.697,3.03-3.764,2.793
		c-1.067-0.285-2.043-2.845-3.073-3.822c-1.948-1.906-4.006-3.907-7.216-3.02c-2.75-0.659-6.239-0.744-8.383-2.75
		c-2.181-2.058-1.394-5.405-3.859-7.026c-1.446-0.28-4.376-0.939-5.021-1.916c-0.38-0.469-0.612-0.977-0.802-1.536
		c-0.18-0.606,1.589-1.213,1.536-1.815c0-0.654,0.38-1.356,0.19-2.048c-0.19-0.702-0.887-1.399-0.697-2.005
		c0.228-0.56,0.56-1.119,0.887-1.584c0.317-0.512,1.309,0.327,1.711-0.042c3.225-0.56,3.959-3.309,4.102-6.149
		c0.517,0.37,0.796,1.205,1.403,1.536c0.603,0.28,0.787,0.417,1.854,0.417c1.256,0,0.702,0.749,0.332,1.114
		c-0.417,0.379-1.028,0.559-1.446,0.938c-0.469,0.46-0.702,0.834-1.067,1.256c-0.379,0.37,0.038,1.347,0.038,1.906
		c0,0.138,1.394,1.214,1.493,1.404c0.232,0.559,0.93,0.559,1.589,0.559c0.787,0,1.536,0,2.323,0c0.744,0,1.446-0.189,2-0.332
		c0.37-0.085,1.209-0.834,1.451-1.076c0.503-0.507,0.735-0.597,1.067-1.205c0.365-0.749,0.602-0.749,0.602-1.726
		c0-1.067,0.09-1.347-0.602-1.726c-0.612-0.275-0.702-0.228-1.399-0.228c-0.279,0-2.423,0.929-2.513,1.119
		c-0.052,0.365,1.114,0.507,1.437,0.507c1.076,0,1.356-0.043,1.826,0.469c0.697,0.697-0.56,1.494-0.75,1.583
		c-0.649,0.327-0.834,0.607-1.398,0.93c-0.602,0.275-1.493,0.464-2.19,0.464c-0.417,0-0.787-0.038-1.157-0.137
		c-0.19-0.052-0.977,0.047-1.494-0.143c-0.56-0.228-0.892-0.749-1.066-0.977c-0.417-0.417,0.839-1.484,0.924-1.531
		c0.469-0.521,0.839-0.702,1.218-1.119c0.508-0.469,0.228-0.697,0.645-1.076c0.422-0.422,0.232-1.764,0.142-1.906
		c-0.189-0.327-1.764-0.137-2.181-0.137c-0.702,0-1.076,0.137-1.309-0.327c-0.19-0.375-1.024-1.541-1.309-1.678
		c-0.19-0.09-0.327-0.138-0.417-0.19c0-0.507-0.047-1.024-0.047-1.532c1.024,0.275,2.561,0.745,3.499,0.745
		c1.157-0.137,1.953-1.683,2.551-2.612c0.237-1.167,0.422-2.56-0.37-3.575c-0.924-0.901-1.915-1.83-2.65-2.897
		c0.09-0.374-2.702-1.768-2.754-2.925c-0.038-0.617,0.052-1.266-0.038-1.735c-0.1-1.157,0.228-2.323,1.204-2.973
		c0.839-1.039,2.233-2.29,3.731-2.38c1.157,0.047,1.716,0.047,2.883,0.047c0.507-0.1,1.531,0.28,1.953,0.517
		c0.327,0.043,1.674,1.02,2.006,1.257c0.327,0.284,1.631,1.209,1.948,1.437c0.892,0.749,1.398,2.005,1.446,3.129
		c0.279,1.058-0.189,2.323-1.257,2.835c-0.834,0.517-2.138,1.304-2.93,0.237c-0.934-0.839-0.47-2.053-0.697-3.172
		c-0.189-0.517-0.839-1.493-1.583-1.531c-0.379,0-0.749,0-1.067,0.038c-0.379,0.047-0.749,0.839-0.938,0.938
		c-0.649,0.365,0.37,0.517,0.787,0.517c1.356,0.18,1.309,1.394,1.683,2.414c0.375,1.213,1.579,1.446,2.655,1.915
		c1.394,0.46,2.703-0.379,3.395-1.498c0.839-0.834,0.649-2.053,0.74-3.11c0-1.176-0.275-1.773-0.508-2.85
		c-0.469-1.066-4.148-3.072-4.982-3.731C271.288,291.242,270.401,291.19,269.51,291.19L269.51,291.19z"/>
	<path fill-rule="evenodd" clip-rule="evenodd" fill="#FFFFFF" stroke="#010101" stroke-width="0.5123" stroke-miterlimit="10" d="
		M296.606,305.267c-0.465-0.138-1.257-0.706-1.863-0.839c-0.607-0.199-1.024-0.29-1.816-0.29c-0.464,0,0.422,0.929,0.84,1.128
		c0.332,0.143,0.749,1.157,0.834,1.437c0.332,0.607,0.422,0.977,0.749,1.257c0.508,0.517,0.417,0.697,1.399,0.697
		c0.834,0,1.342-0.038,1.863-0.28c0.456-0.232,0.554-1.114,0.697-1.536c0.181-0.877-0.749-0.834-1.166-1.015
		c-0.645-0.341-1.394-0.517-2.375-0.981 M296.606,305.267L296.606,305.267L296.606,305.267z"/>
	<path fill-rule="evenodd" clip-rule="evenodd" fill="#010101" stroke="#010101" stroke-width="0.5123" stroke-miterlimit="10" d="
		M296.379,303.911c0,0.228,0,1.081,0,1.574c0,0.521,0,1.039,0,1.545c0,0.697-0.1,0.93,0.455,0.787
		c0.284-0.09,0.56-0.697,0.611-0.877c0.138-0.465,0.327-0.555,0.327-1.214c0-0.521,0.09-0.882,0-1.299
		C297.635,303.911,296.796,304.138,296.379,303.911L296.379,303.911z"/>
	<path fill-rule="evenodd" clip-rule="evenodd" fill="#010101" d="M290.087,302.275c-0.887-0.735-1.484-1.764-1.764-2.887
		c-0.521-1.119-0.887-2.323-0.796-3.58c0.047-1.446-0.142-2.944,0.19-4.338c0.507-0.787,1.166-1.574,2.043-1.991
		c0.986-0.607,2.19-0.417,3.257-0.697c1.167-0.194,2.385-0.052,3.542-0.1c1.954,0,3.907,0,5.822,0
		c0.882,0.465,1.906,0.465,2.703,0.972c1.015,0.194,1.811,0.839,2.229,1.778c0.787,1.294,0.749,2.84,0.606,4.286
		c-0.692,1.204-0.797,2.65-1.356,3.945c-0.369,0.849-0.369,2.157-1.299,2.575c-2.978-0.19-5.955-0.053-8.885-0.1
		c-1.954,0.047-3.959-0.043-5.913,0.047C290.324,302.237,290.229,302.237,290.087,302.275L290.087,302.275z"/>
	<path fill-rule="evenodd" clip-rule="evenodd" fill="#FFFFFF" d="M287.854,315.593c-1.205-0.365-2.423-1.067-3.068-2.181
		c-0.701-1.029-1.536-2.096-1.498-3.452c0-1.251-0.038-2.508,0.047-3.764c0.332-1.309,1.626-2.006,2.655-2.66
		c0.977-0.929,2.143-0.322,3.03,0.417c0.839,0.417,1.304,1.356,1.991,2.011c1.915,2.181,4.101,4.139,6.434,5.865
		c0.787,0.507,1.446,1.256,2.281,1.811c0.98,0.939,1.905,1.778,2.744,2.845c0.792,1.167,0.607,2.66,0.66,3.954
		c-0.247,0.56-0.702,0.659-1.257,0.612c-0.574-0.052-3.821-0.474-4.95-0.792c-0.924-0.417-1.901-0.1-2.878-0.1
		c-1.066,0-2.096,0-3.162-0.138c-0.887-0.929,0.739-1.114,1.398-0.929c0.317,0.052,3.158-0.085,3.438-0.138
		c1.536-0.137,3.029-0.047,4.565-0.09c0.977-0.659,0.28-2.104-0.517-2.664c-0.37-0.455-2.186-2.091-2.792-2.233
		c-0.597-0.09-2.551-1.256-3.12-1.441c-0.56-0.142-2.845-0.507-3.438-0.697c-1.076-0.232-2.423,0.19-2.702,1.394
		C287.484,314.019,287.996,314.806,287.854,315.593L287.854,315.593z"/>
	<path fill-rule="evenodd" clip-rule="evenodd" fill="#FFFFFF" d="M252.285,320.438c-1.812-0.555-1.157-3.997-3.348-3.717
		c-1.536,0.455-4.187,1.256-2.564,3.352c0.469,3.864-0.266,7.965,1.355,11.64c1.167,2.513,1.489,5.595,3.68,7.591
		c1.626,1.721,3.262,3.495,4.836,5.258c2.195,1.545,4.618,2.702,6.709,4.476c2.883,1.726,6.239,2.565,9.35,3.77
		c1.446,0.611,3.029,0.279,4.428,0.839c0.834,0,2.138,0.327,3.205,0.275c0.512,0,0.981-0.137,1.313-0.365
		c0.327-0.28,0.602-3.035,0.185-3.537c-0.417-0.512-1.114-0.749-2.053-0.612c-3.163-0.038-6.33-0.507-9.26-1.721
		c-2.982-1.256-5.86-2.707-8.667-4.381c-3.437-2.143-6.325-5.263-8.05-8.979c-1.02-1.494-2.134-3.035-2.376-4.894
		C250.052,326.451,250.384,322.999,252.285,320.438L252.285,320.438z"/>
	<path fill-rule="evenodd" clip-rule="evenodd" fill="#FFFFFF" d="M340.643,320.576c1.812-0.555,1.109-3.992,3.31-3.717
		c1.536,0.459,4.239,1.299,2.561,3.352c-0.427,3.864,0.322,7.966-1.309,11.645c-1.166,2.508-1.536,5.59-3.679,7.591
		c-1.631,1.717-3.301,3.494-4.846,5.258c-2.182,1.584-4.646,2.703-6.695,4.476c-2.939,1.721-6.248,2.56-9.396,3.765
		c-1.404,0.659-3.035,0.285-4.429,0.839c-0.787,0-2.096,0.327-3.167,0.279c-0.55,0-1.024-0.142-1.356-0.37
		c-0.322-0.275-0.606-3.03-0.18-3.537c0.407-0.513,1.119-0.75,2.048-0.612c3.158-0.038,6.382-0.455,9.313-1.721
		c2.93-1.256,5.859-2.703,8.609-4.376c3.49-2.144,6.335-5.263,8.041-8.985c1.034-1.494,2.153-3.025,2.428-4.893
		C342.834,326.588,342.502,323.141,340.643,320.576L340.643,320.576z"/>
	
		<path fill-rule="evenodd" clip-rule="evenodd" fill="#010101" stroke="#010101" stroke-width="0.1863" stroke-linecap="round" stroke-linejoin="round" stroke-miterlimit="10" d="
		M341.752,308.937c-0.417-0.74-0.881-0.977-1.156-1.157c-0.275-0.137-0.701-0.189-1.129,0.038c-0.359,0.189-0.777,0.702-1.204,0.939
		c-0.407,0.228-1.062,0.28-1.441,0.507c-0.417,0.189-0.597,0.56-0.645,0.887c0,0.327-0.095,0.839,0.275,1.583
		c0.417,0.749,0.977,1.209,1.536,1.489c0.502,0.237,0.891,0.279,1.213,0.279c0.266,0,0.883-0.37,1.262-0.602
		c0.408-0.19,1.063-0.517,1.204-0.707c0.19-0.274,0.37-0.649,0.465-1.204C342.227,310.43,342.132,309.686,341.752,308.937
		L341.752,308.937z"/>
	
		<path fill-rule="evenodd" clip-rule="evenodd" fill="#010101" stroke="#010101" stroke-width="0.1863" stroke-linecap="round" stroke-linejoin="round" stroke-miterlimit="10" d="
		M336.452,313.829c-0.646,0.37-0.835,0.84-0.978,1.114c-0.133,0.232-0.189,0.65,0.048,1.081c0.181,0.37,0.702,0.787,0.882,1.205
		c0.237,0.422,0.322,1.114,0.55,1.494c0.199,0.37,0.569,0.602,0.854,0.602c0.322,0.048,0.787,0.138,1.479-0.18
		c0.654-0.379,1.071-0.939,1.262-1.446c0.227-0.521,0.274-0.887,0.227-1.166c0-0.28-0.359-0.887-0.588-1.304
		c-0.199-0.37-0.521-1.029-0.721-1.209c-0.227-0.19-0.588-0.379-1.109-0.469C337.855,313.459,337.153,313.459,336.452,313.829
		L336.452,313.829z"/>
	
		<path fill-rule="evenodd" clip-rule="evenodd" fill="#010101" stroke="#010101" stroke-width="0.1863" stroke-linecap="round" stroke-linejoin="round" stroke-miterlimit="10" d="
		M343.479,310.103c0.701-0.37,1.166-0.279,1.498-0.228c0.275,0.038,0.598,0.228,0.834,0.645c0.181,0.379,0.275,1.024,0.513,1.446
		c0.228,0.417,0.749,0.887,0.92,1.257c0.199,0.417,0.199,0.796,0.057,1.076s-0.332,0.735-1.034,1.119
		c-0.635,0.327-1.336,0.365-1.849,0.228c-0.569-0.09-0.892-0.28-1.119-0.47c-0.237-0.142-0.521-0.787-0.749-1.209
		c-0.18-0.365-0.55-1.024-0.606-1.256c0-0.275,0.057-0.692,0.228-1.167C342.416,311.042,342.834,310.478,343.479,310.103
		L343.479,310.103z"/>
	
		<path fill-rule="evenodd" clip-rule="evenodd" fill="#010101" stroke="#010101" stroke-width="0.1863" stroke-linecap="round" stroke-linejoin="round" stroke-miterlimit="10" d="
		M343.848,310.62c0.712-0.469,1.727,0,1.641,0.877c0.143,0.938,1.252,1.545,1.252,2.422c-0.417,1.545-3.072,1.636-3.537,0.047
		c-0.284-0.744-0.929-1.484-0.427-2.28C343.004,311.217,343.393,310.8,343.848,310.62L343.848,310.62z"/>
	
		<path fill-rule="evenodd" clip-rule="evenodd" fill="#010101" stroke="#010101" stroke-width="0.1863" stroke-linecap="round" stroke-linejoin="round" stroke-miterlimit="10" d="
		M339.895,308.339c1.166-0.052,1.726,1.394,1.631,2.371c0.047,0.834-0.56,1.446-1.309,1.626c-0.646,0.517-1.527,0.796-2.229,0.189
		c-0.835-0.469-1.631-1.726-1.034-2.65c0.901-0.422,2.011-0.521,2.617-1.355C339.666,308.429,339.762,308.339,339.895,308.339
		L339.895,308.339z"/>
	<path fill-rule="evenodd" clip-rule="evenodd" fill="#010101" stroke="#010101" stroke-width="0.1863" stroke-miterlimit="10" d="
		M341.393,314.806c0.322-0.19,0.834-0.19,1.023,0.19c0.086,0.09,0.503,0.787,0.645,0.839c0.237,0.189,1.215,1.304,1.499,1.342
		c0.142,0.1,0.417,0.052,0.597,0.189c0.237,0.143,0.418,0.475,0.475,0.612c0.047,0.28,0,0.464-0.143,0.649
		c-0.236,0.28-2.38,1.494-3.214,1.532c-0.275,0-0.607-0.138-0.702-0.417c-0.18-0.46,0-0.877,0-1.346
		c0.095-0.517,0.048-1.077-0.18-1.536c-0.229-0.417-0.521-0.887-0.521-1.395C340.918,315.176,341.107,314.858,341.393,314.806
		L341.393,314.806z"/>
	
		<path fill-rule="evenodd" clip-rule="evenodd" fill="#010101" stroke="#010101" stroke-width="0.1863" stroke-linecap="round" stroke-linejoin="round" stroke-miterlimit="10" d="
		M336.821,314.342c0.986-0.513,2.466-0.181,2.75,1.023c0.465,0.659,0.892,1.537,0.323,2.333c-0.37,0.744-1.489,1.446-2.324,0.834
		c-0.369-0.972-0.749-2.048-1.535-2.84C335.807,315.133,336.357,314.526,336.821,314.342L336.821,314.342z"/>
	<path fill-rule="evenodd" clip-rule="evenodd" fill="#010101" stroke="#010101" stroke-width="0.1863" stroke-miterlimit="10" d="
		M341.715,315.318c0.512-0.043,0.56,0.792,0.977,1.024c0.606,0.659,1.261,1.356,2.143,1.536c0.418,0.237,0.096,0.517-0.236,0.607
		c-0.75,0.422-1.622,1.114-2.466,0.977c-0.095-0.834,0.37-1.764-0.095-2.603c-0.143-0.465-0.702-1.077-0.417-1.494
		C341.62,315.365,341.667,315.318,341.715,315.318L341.715,315.318z"/>
	
		<path fill="#010101" stroke="#010101" stroke-width="0.1863" stroke-linecap="round" stroke-linejoin="round" stroke-miterlimit="10" d="
		M338.965,315.745c0.654,1.256,2.285,1.764,3.537,1.066c1.252-0.649,1.773-2.285,1.081-3.537c-0.664-1.256-2.248-1.777-3.547-1.081
		C338.784,312.853,338.263,314.479,338.965,315.745L338.965,315.745z"/>
	
		<path fill="#010101" stroke="#010101" stroke-width="0.1863" stroke-linecap="round" stroke-linejoin="round" stroke-miterlimit="10" d="
		M340.416,312.525c2.313-0.507,3.622,1.863,2.275,3.584c-1.631,1.256-3.12-0.185-3.31-1.251
		C339.201,314.199,339.344,313.042,340.416,312.525L340.416,312.525z"/>
	<polygon fill-rule="evenodd" clip-rule="evenodd" fill="#010101" points="298.19,283.694 298.65,284.913 296.834,284.913 
		297.394,283.656 296.189,284.306 296.189,282.3 297.445,282.954 296.886,281.641 298.702,281.74 298.19,282.907 299.352,282.348 
		299.309,284.253 	"/>
	<path fill-rule="evenodd" clip-rule="evenodd" fill="#FFFFFF" stroke="#010101" stroke-width="0.5123" stroke-miterlimit="10" d="
		M256.296,420.892c-0.891-0.266-1.868,0.384-3.024,0.612c-1.076,0.237-1.821,0.189-2.608,0.417
		c-1.029,0.237-1.256,0.849-1.816,1.394c-0.47,0.47-0.189,2.105-0.189,2.807c0,0.744,0.654,2.049,0.796,2.418
		c0.559,1.02,1.209,0.792,2.422,0.792c1.157,0,1.901-0.095,2.604-0.422c0.507-0.228,1.256-1.583,1.583-2.006
		c0.559-0.734,1.114-1.256,1.626-1.811c0.696-0.702,0.749-1.204,0.977-2.187c0.189-0.658-1.015-1.541-1.205-2.19
		C257.363,420.299,256.676,420.854,256.296,420.892L256.296,420.892z"/>
	<path fill-rule="evenodd" clip-rule="evenodd" fill="#010101" d="M197.22,365.429c0,0,0.047,1.631,1.446,1.778
		c1.394,0.185,19.131,1.896,25.039,5.4c1.355,0.787,3.172,2.281,4.238,4.604c1.114,2.333,38.267,92.17,38.267,92.17
		c0.46,1.45,3.632,0.606,3.072-0.93c-0.606-1.584-39.565-97.011-40.362-98.599c-1.536-2.93-1.815-3.765-4.698-4.841
		c-4.092-1.588-24.304-7.539-25.973-6.002C197.457,359.744,197.22,365.429,197.22,365.429L197.22,365.429z"/>
	<path fill-rule="evenodd" clip-rule="evenodd" fill="#FFFFFF" stroke="#010101" stroke-width="0.5123" stroke-miterlimit="10" d="
		M254.291,419.322c-0.09-0.28-2.371-0.242-3.209-0.242c-0.56,0-0.93,1.811-1.029,2.243c-0.279,1.157-0.597,0.925-0.365,1.764
		c0.138,0.659,1.764,0.611,2.599,0.611c1.266,0,1.778,0.048,2.195-0.792c0.417-0.796,0.365-1.493,0.365-2.607
		C254.846,419.915,254.48,419.649,254.291,419.322L254.291,419.322z"/>
	<path fill-rule="evenodd" clip-rule="evenodd" fill="#FFFFFF" stroke="#010101" stroke-width="0.5123" stroke-miterlimit="10" d="
		M246.472,421.503c-0.834-0.422-2.091-0.18-3.03-0.18c-0.697,0-0.834,0.37-0.744,0.787c0.138,0.422,0.289,1.114,0.379,1.398
		c0.137,0.275,1.394,0.972,2.371,0.972c1.204,0,2.561,0.242,4.006,0.242c1.816,0,0.597-0.189,0-1.408
		c-0.56-1.204-1.726-1.114-2.982-1.764 M246.472,421.503L246.472,421.503L246.472,421.503z"/>
	<path fill-rule="evenodd" clip-rule="evenodd" fill="#FFFFFF" stroke="#010101" stroke-width="0.5123" stroke-miterlimit="10" d="
		M249.824,425.932c-0.09-0.194-1.394-0.749-1.953-1.029c-0.887-0.422-2.375-0.18-3.399-0.18c-0.787,0-1.029,1.256-1.029,2.001
		c0,0.929,1.361,1.209,2.428,1.209c0.972,0,2.001,0,2.978,0c1.304,0,0.925,0.279,1.204-0.835
		C250.189,426.724,249.962,426.297,249.824,425.932L249.824,425.932z"/>
	<path fill-rule="evenodd" clip-rule="evenodd" fill="#FFFFFF" stroke="#010101" stroke-width="0.5123" stroke-miterlimit="10" d="
		M251.877,428.539c0.271-1.166-2.422,0-3.636,0c-1.536,0-1.906,0.09-2.792,0.977c-0.228,0.232-0.09,0.93-0.228,1.347
		c-0.143,0.38,1.015,1.029,1.531,1.162c0.512,0.146,3.021-0.745,3.542-0.835C250.801,431.104,251.92,428.767,251.877,428.539
		L251.877,428.539z"/>
	<path fill-rule="evenodd" clip-rule="evenodd" fill="#FFFFFF" stroke="#010101" stroke-width="0.5123" stroke-miterlimit="10" d="
		M249.876,426.259c0.787-0.138,1.532,0.28,1.622,0.507c0.189,0.332-1.394,0.835-1.764,0.835
		C249.497,427.601,249.824,426.486,249.876,426.259L249.876,426.259z"/>
	<path fill-rule="evenodd" clip-rule="evenodd" fill="#FFFFFF" stroke="#010101" stroke-width="0.5123" stroke-miterlimit="10" d="
		M250.336,424.063c0.185-0.09,0.602-0.417,0.745-0.555c0.09-0.095-0.28-0.284-0.417-0.422c-0.19-0.138-0.28-0.228-0.512-0.28
		c-0.237-0.09-0.275-0.274-0.417,0.053c-0.138,0.176-0.189,0.279-0.189,0.607c0,0.231,0,0.507,0,0.734c0,0.379,0.279,0.104,0.417,0
		C250.104,424.153,250.151,424.115,250.336,424.063L250.336,424.063z"/>
	<path fill-rule="evenodd" clip-rule="evenodd" fill="#FFFFFF" stroke="#010101" stroke-width="0.5123" stroke-miterlimit="10" d="
		M249.455,423.314c0.46,0-0.607,0.839-0.469,1.309c0.09,0.417,1.166,0,1.588,0C251.081,424.623,249.734,423.746,249.455,423.314
		L249.455,423.314z"/>
	<path fill-rule="evenodd" clip-rule="evenodd" fill="#FFFFFF" stroke="#010101" stroke-width="0.5123" stroke-miterlimit="10" d="
		M250.854,428.212c0.502,0,0.877-0.37,1.432-0.09c0.284,0.143-0.455,0.56-0.74,0.787
		C251.081,429.426,250.991,428.767,250.854,428.212L250.854,428.212z"/>
	<path fill="none" stroke="#010101" stroke-width="0.5123" stroke-miterlimit="10" d="M354.886,431.938
		c-0.474,0.138-0.512,1.167-1.024,1.309c-0.465,0.086-0.465,0.423-1.071,0.423c-0.503,0-0.749,0.175-1.204,0.175
		c-0.607,0-0.977,0.1-1.395,0.185"/>
	<path fill-rule="evenodd" clip-rule="evenodd" fill="#010101" d="M360.613,424.58c-1.024,1.816-4.012,3.59-6.979,3.822
		c-6.249,0.507-12.991-4.012-13.503-10.062l-0.047-0.796c-0.048-0.697,0.133-2.001,0.417-2.423
		c-0.085,0.796-0.313,1.394-0.228,2.333l0.047,0.787c0.455,5.732,7.254,10.388,13.115,9.929l0.293-0.048
		c2.599-0.189,4.467-1.257,5.898-2.522c1.214-1.066,2.57-3.352,2.39-5.542l-0.104-1.209c-0.228-2.978-2.883-6.012-4.656-7.164
		c-2.237-1.498-4.826-2.802-8.563-2.522l-0.332,0.047c-3.432,0.28-6.504,2.475-7.443,4.794c-1.023,2.513-3.262,5.215-2.978,8.577
		v0.189c0.465,5.633,7.122,10.563,12.707,10.099l1.488-0.143c2.19-0.18,4.703-1.673,5.681-2.878c0.834-0.99,0.977-1.408,1.535-2.521
		c0.237-0.461,0.465-0.93,0.712-1.395c0.085-0.232,0.171-0.422,0.313-0.701c0.058-0.091,0.104-0.229,0.19-0.328
		c0-0.037,0.047-0.137,0.094-0.137c0-0.043,0.086-0.096,0.048-0.143L360.613,424.58z"/>
	<path fill-rule="evenodd" clip-rule="evenodd" fill="#FFFFFF" stroke="#010101" stroke-width="0.5123" stroke-miterlimit="10" d="
		M334.727,420.664C334.916,420.664,334.916,420.664,334.727,420.664c-1.537,0,1.726,2.475,2.427,3.816
		c0.37,0.84,0.417-1.256,0.417-1.531c0-0.891,0-1.726,0-2.565c0-0.877,0.332-1.304,0.835-1.583c0.606-0.28,0.654,0.938,1.536,0.938
		c1.081,0,0.189,0.75,0.189,1.764c0,0.934,0.086,1.811,0.285,2.698c0.18,0.981,0.322,1.92,0.55,2.845c0.142,0.606,0,1.493,0,2.144
		c0,0.236,1.868,0.142,2.095,0.142c0.892,0,1.584,0.138,2.276,0.138c0.749,0,1.679-0.977,2.048-1.347
		c0.38-0.379,2.333,1.209,2.059,1.764c-0.275,0.612-1.916,1.493-2.229,1.812c-0.285,0.327,1.849,0.521,2.56,0.521
		c0.598,0,1.527-0.555,2.182-0.749c0.977-0.228,1.337-1.395,2.56-1.622c1.489-0.289,0.646,1.531,0.418,1.717
		c-0.607,0.46,0.749,0.327,0.512,1.209c-0.284,1.029-0.37,0.896-0.654,2.006c-0.086,0.369-1.773,0.929-2.229,0.929
		c-0.701,0-1.403,0-2.096,0s-1.441,0-2.143,0c-0.939,0-1.489-0.142-2.144-0.274c-0.606-0.199-0.977-0.702-1.679-0.883
		c-0.796-0.193-1.156-0.293-1.583-0.706c-0.465-0.465-1.062-0.696-1.669-0.839c-0.834-0.232-1.119-0.28-1.726-0.56
		c-0.607-0.327-1.119-0.882-1.669-1.167c-0.901-0.417-1.594-1.673-2.285-2.37c-0.702-0.697-0.883-1.536-1.546-2.423
		c-0.588-0.787-0.692-1.446-1.441-2.006c-0.503-0.417-0.835-1.304-0.977-1.811c-0.228-1.029-0.73-0.839-0.275-1.726
		c0.322-0.597,0.749-0.834,1.536-0.977C333.892,419.739,334.129,419.688,334.727,420.664L334.727,420.664z"/>
	<path fill-rule="evenodd" clip-rule="evenodd" fill="#FFFFFF" stroke="#010101" stroke-width="0.5123" stroke-miterlimit="10" d="
		M341.25,422.67c0,0-1.166-0.512-2.561-0.749c-0.749-0.09-1.536,0.099-2.01,0.327c-0.835,0.422,0.749,1.498,0.891,1.536
		c0.418,0.241,1.584,0,2.096,0C340.823,423.784,340.643,424.115,341.25,422.67L341.25,422.67z"/>
	<path fill-rule="evenodd" clip-rule="evenodd" fill="#FFFFFF" stroke="#010101" stroke-width="0.5123" stroke-miterlimit="10" d="
		M347.944,428.212c0.38-0.142,1.916-1.066,2.011-1.028c0.369,0.104-0.237,0.834-0.512,1.166c-0.237,0.279-0.237,0.797-0.38,1.029
		c-0.038,0.18-0.787,0.18-1.015-0.143C347.859,428.857,347.992,428.303,347.944,428.212L347.944,428.212z"/>
	<path fill-rule="evenodd" clip-rule="evenodd" fill="#FFFFFF" stroke="#010101" stroke-width="0.5123" stroke-miterlimit="10" d="
		M338.689,419.271c0.048-0.138,0.465-0.612,0.654-0.787c0.228-0.242,0.418-0.28,0.692-0.417c0.284-0.152,0.513-0.152,0.93-0.152
		c0.606,0,0.427,0.189,0.057,0.47c-0.199,0.137-0.332,0.464-0.427,0.659c-0.095,0.228-0.322,0.417-0.465,0.555
		c-0.275,0.279-0.369,0.369-0.664,0.512C339.24,420.199,338.784,419.36,338.689,419.271L338.689,419.271z"/>
	<path fill-rule="evenodd" clip-rule="evenodd" fill="#FFFFFF" stroke="#010101" stroke-width="0.5123" stroke-miterlimit="10" d="
		M354.563,429.559c0.228-0.09,0.37-0.271,0.512-0.55c0.143-0.289,0.228-0.189,0.37-0.242c0.237-0.047,0,0.521,0,0.749
		c0,0.28,0,0.508-0.047,0.697c-0.048,0.189-0.323,0.285-0.465,0.327c-0.143,0-0.465-0.327-0.521-0.374
		c-0.171-0.181-0.37-0.091-0.124-0.28C354.412,429.696,354.326,429.748,354.563,429.559L354.563,429.559z"/>
	<path fill-rule="evenodd" clip-rule="evenodd" fill="#FFFFFF" stroke="#010101" stroke-width="0.5123" stroke-miterlimit="10" d="
		M355.492,432.773c-0.047-0.086-0.047-0.555-0.094-0.749c-0.096-0.185-0.237-0.275-0.275-0.503c-0.048-0.189-0.418,0.37-0.475,0.417
		c-0.085,0.086-0.037,0.332-0.037,0.508C354.611,432.546,355.351,432.726,355.492,432.773L355.492,432.773z"/>
	<path fill-rule="evenodd" clip-rule="evenodd" fill="#FFFFFF" d="M294.933,474.501c0.28-1.062-1.398-4.371-1.726-5.348
		c-0.555-1.451,0.512-2.428,0.977-3.035c0.607-0.834,1.081-3.395,1.398-4.333c0.37-0.977,0,2.854-0.37,3.831
		c-0.327,0.929-1.218,1.991-1.218,3.29C293.994,469.883,295.212,473.146,294.933,474.501L294.933,474.501z"/>
	<path fill-rule="evenodd" clip-rule="evenodd" fill="#FFFFFF" d="M297.953,474.501c-0.228-1.062,1.398-4.371,1.773-5.348
		c0.507-1.451-0.518-2.428-0.978-3.035c-0.606-0.834-1.076-3.395-1.441-4.333c-0.384-0.977,0.047,2.854,0.417,3.831
		c0.327,0.929,1.204,1.991,1.204,3.29C298.93,469.883,297.726,473.146,297.953,474.501L297.953,474.501z"/>
	<path fill-rule="evenodd" clip-rule="evenodd" fill="#010101" stroke="#010101" stroke-width="0.8849" stroke-miterlimit="10" d="
		M289.11,305.907c-0.749-0.74-1.394-1.299-2.375-0.778C286.598,305.167,287.944,306.386,289.11,305.907L289.11,305.907z"/>
	
		<path fill-rule="evenodd" clip-rule="evenodd" fill="#010101" stroke="#010101" stroke-width="0.1863" stroke-linecap="round" stroke-linejoin="round" stroke-miterlimit="10" d="
		M251.171,308.794c0.375-0.734,0.834-0.977,1.166-1.152c0.232-0.142,0.659-0.19,1.067,0.038c0.374,0.19,0.849,0.697,1.213,0.939
		c0.422,0.228,1.119,0.275,1.489,0.507c0.417,0.185,0.607,0.56,0.607,0.887c0.047,0.327,0.137,0.839-0.28,1.583
		c-0.37,0.74-0.977,1.205-1.489,1.489c-0.517,0.237-0.934,0.275-1.213,0.275c-0.28,0-0.877-0.365-1.309-0.598
		c-0.365-0.237-1.067-0.517-1.205-0.744c-0.19-0.242-0.327-0.612-0.417-1.167C250.711,310.292,250.754,309.543,251.171,308.794
		L251.171,308.794z"/>
	
		<path fill-rule="evenodd" clip-rule="evenodd" fill="#010101" stroke="#010101" stroke-width="0.1863" stroke-linecap="round" stroke-linejoin="round" stroke-miterlimit="10" d="
		M256.434,313.692c0.697,0.37,0.887,0.834,1.029,1.114c0.138,0.228,0.138,0.659-0.052,1.076c-0.232,0.37-0.697,0.792-0.924,1.209
		c-0.242,0.417-0.332,1.067-0.521,1.441c-0.228,0.422-0.56,0.612-0.834,0.65c-0.322,0.052-0.839,0.142-1.489-0.176
		c-0.697-0.379-1.072-0.938-1.304-1.446c-0.189-0.521-0.232-0.887-0.232-1.166c0.042-0.285,0.417-0.887,0.607-1.309
		c0.232-0.37,0.512-1.024,0.739-1.209c0.242-0.185,0.56-0.375,1.076-0.465C255.087,313.322,255.784,313.322,256.434,313.692
		L256.434,313.692z"/>
	
		<path fill-rule="evenodd" clip-rule="evenodd" fill="#010101" stroke="#010101" stroke-width="0.1863" stroke-linecap="round" stroke-linejoin="round" stroke-miterlimit="10" d="
		M249.407,309.96c-0.649-0.365-1.167-0.275-1.489-0.228c-0.237,0.038-0.607,0.228-0.839,0.645c-0.185,0.384-0.289,1.029-0.517,1.451
		c-0.228,0.417-0.692,0.882-0.887,1.256c-0.228,0.417-0.18,0.792-0.09,1.076c0.137,0.28,0.37,0.735,1.028,1.067
		c0.65,0.365,1.342,0.417,1.906,0.28c0.517-0.09,0.887-0.28,1.114-0.474c0.189-0.137,0.517-0.782,0.702-1.205
		c0.237-0.37,0.602-1.028,0.602-1.256c0-0.327,0-0.697-0.228-1.214C250.521,310.899,250.104,310.34,249.407,309.96L249.407,309.96z"
		/>
	
		<path fill-rule="evenodd" clip-rule="evenodd" fill="#010101" stroke="#010101" stroke-width="0.1863" stroke-linecap="round" stroke-linejoin="round" stroke-miterlimit="10" d="
		M253.034,308.197c-1.157-0.1-1.726,1.346-1.679,2.375c-0.047,0.834,0.564,1.446,1.309,1.621c0.65,0.517,1.589,0.802,2.233,0.19
		c0.839-0.507,1.626-1.721,1.029-2.65c-0.839-0.422-1.954-0.521-2.612-1.394C253.224,308.287,253.134,308.197,253.034,308.197
		L253.034,308.197z"/>
	<path fill-rule="evenodd" clip-rule="evenodd" fill="#010101" stroke="#010101" stroke-width="0.1863" stroke-miterlimit="10" d="
		M251.498,314.669c-0.327-0.19-0.787-0.19-1.024,0.189c-0.09,0.085-0.512,0.787-0.649,0.834c-0.228,0.19-1.166,1.309-1.484,1.347
		c-0.142,0.052-0.384,0.052-0.612,0.19c-0.237,0.137-0.417,0.469-0.464,0.612c0,0.274,0,0.417,0.189,0.645
		c0.228,0.237,2.371,1.498,3.158,1.536c0.327,0,0.659-0.138,0.744-0.422c0.143-0.455,0-0.877-0.047-1.342
		c-0.038-0.521-0.038-1.081,0.237-1.536c0.185-0.47,0.512-0.887,0.46-1.403C252.005,315.034,251.83,314.716,251.498,314.669
		L251.498,314.669z"/>
	
		<path fill-rule="evenodd" clip-rule="evenodd" fill="#010101" stroke="#010101" stroke-width="0.1863" stroke-linecap="round" stroke-linejoin="round" stroke-miterlimit="10" d="
		M256.064,314.199c-0.977-0.507-2.475-0.18-2.703,1.029c-0.465,0.654-0.938,1.532-0.365,2.333c0.408,0.735,1.531,1.446,2.323,0.835
		c0.417-0.977,0.745-2.053,1.531-2.84C257.131,314.996,256.523,314.389,256.064,314.199L256.064,314.199z"/>
	<path fill-rule="evenodd" clip-rule="evenodd" fill="#010101" stroke="#010101" stroke-width="0.1863" stroke-miterlimit="10" d="
		M251.218,315.176c-0.555-0.042-0.607,0.797-1.029,1.024c-0.593,0.659-1.252,1.36-2.086,1.536c-0.422,0.242-0.147,0.521,0.237,0.606
		c0.735,0.422,1.574,1.119,2.46,0.981c0.053-0.839-0.37-1.764,0.09-2.603c0.137-0.47,0.697-1.076,0.417-1.494
		C251.271,315.176,251.271,315.176,251.218,315.176L251.218,315.176z"/>
	
		<path fill-rule="evenodd" clip-rule="evenodd" fill="#010101" stroke="#010101" stroke-width="0.1863" stroke-linecap="round" stroke-linejoin="round" stroke-miterlimit="10" d="
		M249.037,310.43c-0.659-0.417-1.726,0.048-1.583,0.93c-0.142,0.934-1.256,1.541-1.309,2.418c0.469,1.541,3.073,1.641,3.542,0.052
		c0.275-0.744,0.977-1.493,0.465-2.285C249.915,311.08,249.545,310.662,249.037,310.43L249.037,310.43z"/>
	
		<path fill="#010101" stroke="#010101" stroke-width="0.1863" stroke-linecap="round" stroke-linejoin="round" stroke-miterlimit="10" d="
		M253.973,315.593c-0.701,1.266-2.285,1.773-3.589,1.081c-1.256-0.649-1.726-2.285-1.071-3.542c0.701-1.256,2.275-1.773,3.542-1.076
		C254.153,312.71,254.618,314.342,253.973,315.593L253.973,315.593z"/>
	
		<path fill="#010101" stroke="#010101" stroke-width="0.1863" stroke-linecap="round" stroke-linejoin="round" stroke-miterlimit="10" d="
		M252.475,312.383c-2.323-0.507-3.58,1.868-2.233,3.589c1.588,1.256,3.12-0.19,3.309-1.257
		C253.693,314.062,253.589,312.9,252.475,312.383L252.475,312.383z"/>
	<path fill="#010101" d="M207.328,501.896l3.997,1.669l-1.256,3.024L207.328,501.896z M219.565,512.64l1.996-4.874l3.921,1.622
		l2.281-5.595l1.854,3.773l-1.204,3.034L219.565,512.64z M237.673,539.522l2.332-5.642l1.901,3.641l-2.46,6.05l-7.866-3.214
		c-0.977-0.418-1.863-0.93-2.561-1.499c-0.659-0.55-1.214-1.204-1.636-1.953l-1.711-3.157c0.228,0.369,0.507,0.701,0.782,0.929
		c0.285,0.237,0.612,0.465,1.029,0.607l0.598,0.284L237.673,539.522z M234.932,523.678l2.882,5.414
		c0.275,0.512,0.465,0.93,0.555,1.299c0.1,0.418,0.1,0.835,0.1,1.262l-2.522-0.977c-0.175-0.095-0.318-0.228-0.365-0.38
		c-0.142-0.142-0.185-0.369-0.185-0.749L234.932,523.678z M230.973,518.187l9.872-2.465l4.974,2.048l2.285-5.585l1.721,4.097
		l-2.333,5.689l-7.027-2.893l-6.609,1.764c-0.317-0.56-0.749-1.023-1.209-1.432C232.13,518.937,231.58,518.566,230.973,518.187
		L230.973,518.187z M215.611,522.236l1.257-3.025l5.073,2.152c0.65,0.228,1.067,0.551,1.347,0.93c0.28,0.37,0.417,0.92,0.469,1.584
		l0.138,1.811L215.611,522.236z M198.524,523.317l19.458,8.013l2.285-5.595l2.096,3.262l-2.65,6.429l-18.396-7.548L198.524,523.317z
		 M199.083,521.971l1.726-4.248l5.263,2.19l7.069-17.183l-5.258-2.19l1.768-4.238l16.756,6.932l-1.726,4.248l-3.854-1.584
		l-3.632,8.8l15.641-3.869l-2.423-0.977l1.716-4.238l14.575,5.965l-1.726,4.276l-4.096-1.717l-14.143,3.774l2.598,1.062
		c1.408,0.569,2.475,1.356,3.172,2.39c0.697,0.977,1.067,2.229,1.167,3.67l0.228,4.751c0.052,0.512,0.189,0.938,0.469,1.355
		c0.28,0.418,0.65,0.692,1.067,0.892l3.21,1.29l-1.726,4.248l-8.283-3.404c-0.977-0.417-1.674-0.882-2.134-1.489
		c-0.417-0.616-0.697-1.394-0.744-2.38l-0.47-6.562c-0.095-0.986-0.37-1.764-0.839-2.333c-0.508-0.56-1.446-1.119-2.793-1.678
		l-5.58-2.323l-2.333,5.68l5.216,2.152l-1.769,4.229L199.083,521.971z M244.191,542.14l8.843,3.66l2.333-5.585l1.673,4.153
		l-2.285,5.538l-8.52-3.537L244.191,542.14z M244.751,540.784l1.721-4.239l7.539,3.12l-1.764,4.229L244.751,540.784z
		 M354.469,532.866c-1.764,0.417-3.262,0.085-4.562-0.939c-1.309-0.977-2.522-2.787-3.584-5.357
		c-1.167-2.892-1.489-5.168-0.986-6.884c0.521-1.773,1.963-3.12,4.286-4.059c1.773-0.749,3.499-1.109,5.263-1.204
		c1.716-0.058,3.395,0.18,5.073,0.834l9.084-3.774l-3.262-7.87l3.992,1.489l2.893,7.083l-10.1,4.191
		c-1.906-0.228-3.679-0.228-5.311-0.048c-1.678,0.237-3.299,0.692-4.969,1.356c-1.963,0.834-3.176,1.811-3.546,3.024
		c-0.417,1.205-0.189,2.969,0.787,5.254c0.569,1.403,1.261,2.655,2.058,3.783C352.373,530.809,353.35,531.88,354.469,532.866
		L354.469,532.866z M368.389,534.117l9.027-3.727l-4.608-11.18l4.608-1.906l-1.953-4.712l4.049,1.45l2.049,4.931l-4.656,1.916
		l4.608,11.228l-8.146,3.347L368.389,534.117z M347.348,541.761c1.82,0,3.537-0.199,5.215-0.569c1.679-0.322,3.3-0.834,4.969-1.526
		c1.727-0.702,3.31-1.584,4.713-2.655c1.395-1.081,2.74-2.418,4.097-4.059l1.071,2.561l0.834,0.237
		c-1.118,1.346-2.332,2.56-3.717,3.584c-1.403,1.024-2.939,1.858-4.57,2.561c-1.071,0.417-2.229,0.749-3.489,0.882
		c-1.309,0.142-2.476,0.142-3.632-0.048L347.348,541.761z M359.352,524.759l2.893-1.214c0.048,0.379,0.086,0.739,0.086,1.109
		c0.047,0.332,0,0.701-0.038,1.081L359.352,524.759z M363.221,521.591l-4.428,1.812l-1.395-3.348l16.756-6.894l1.403,3.356
		l-4.608,1.916l4.608,11.17l-7.69,3.158l-1.385-3.3c-0.748,1.963-1.953,3.679-3.631,5.215c-1.641,1.536-3.736,2.845-6.25,3.869
		c-4.836,1.991-9.027,2.323-12.649,1.015c-3.594-1.299-6.296-4.191-8.107-8.61c-1.858-4.514-1.953-8.478-0.274-11.834
		c1.668-3.348,5.12-6.098,10.336-8.23c2.229-0.939,4.285-1.451,6.135-1.641c1.916-0.143,3.926,0,6.06,0.521l-1.024-2.57l7.35-3.024
		l2.702,6.524l-7.358,3.072c-1.859-0.56-3.623-0.787-5.396-0.75c-1.773,0.096-3.489,0.465-5.168,1.167
		c-2.798,1.119-4.562,2.797-5.254,4.893c-0.749,2.144-0.474,4.799,0.835,7.908c1.451,3.509,3.157,5.737,5.253,6.714
		c2.048,1.024,4.665,0.892,7.776-0.417c2.418-0.977,4.144-2.607,5.177-4.798C364.008,526.295,364.103,524.009,363.221,521.591
		L363.221,521.591z M388.501,525.877l8.838-3.679l-2.275-5.595l4.097,1.773l2.275,5.547l-8.525,3.489L388.501,525.877z
		 M387.941,524.521l-1.782-4.239l7.548-3.119l1.717,4.238L387.941,524.521z M268.396,561.038h37.001V548.55l3.177,3.13v12.469
		h-35.422L268.396,561.038z M296,543.951h9.397v-12.119l3.177,3.082v12.194h-9.084L296,543.951z M283.81,537.844h10.791v3.12h-7.633
		v1.536h-3.158V537.844z M283.81,548.92h7.354v-4.969l3.391,2.655v5.396h-7.586v1.536h-3.158V548.92z M268.396,559.55v-4.562h5.543
		v-18.585h-5.543v-4.571h35.569V542.5H296v-6.097h-13.636v7.548h7.354v3.537h-7.354v7.5H296v-6.438h7.965v11H268.396z
		 M268.396,537.844h4.149v3.12L268.396,537.844z M312.944,561.038h9.587v-6.05l3.158,3.205v5.955h-9.208L312.944,561.038z
		 M312.944,559.55v-4.562h8.146v4.562H312.944z"/>
</g>
</svg>
