<?xml version="1.0" encoding="utf-8"?>
<!-- Generator: Adobe Illustrator 16.0.0, SVG Export Plug-In . SVG Version: 6.00 Build 0)  -->
<!DOCTYPE svg PUBLIC "-//W3C//DTD SVG 1.1//EN" "http://www.w3.org/Graphics/SVG/1.1/DTD/svg11.dtd">
<svg version="1.1" id="Layer_1" xmlns="http://www.w3.org/2000/svg" xmlns:xlink="http://www.w3.org/1999/xlink" x="0px" y="0px"
	 width="45.197px" height="39.578px" viewBox="0 0 45.197 39.578" enable-background="new 0 0 45.197 39.578" xml:space="preserve">
<g>
	<path fill-rule="evenodd" clip-rule="evenodd" fill="#010101" d="M5.003,19.053L4.85,19.216L5.003,19.053z M19.609,30.871
		l-2.038,1.982l-0.819-3.081l-1.499,2.146l-3.177-6.468l0.535,8.719l-4.109-1.288L7.76,31.537l-2.229-3.441l-0.41,4.445
		l-2.118,2.807l0.028-11.115l-1.889-0.74l1.893-0.761l0.003-1.566l1.965-2.111l0.319,5.039l4.573-5.216l3.972-1.244l4.607-0.073
		l0.357,2.414l14.871-1.278l6.943,3.074l3.618-1.57l-1.084,2.01l-1.152,1.275l-1.673,0.955l3.527,0.732l0.569,1.126l-0.944,2.224
		l-1.819,1.587l-5.615,2.813l-1.03,3.924l-1.039,2.251l-0.392-0.069l1.921-15.762l-1.028-0.712l-1.319,1.932l-0.07,6.694
		l-1.968,1.739l-0.181-7.791l-1.247,0.142l-0.075,5.697l-1.781,1.345L27.5,25.607l-0.818,0.292l-0.084,7.245l-1.889-1.809
		l-0.333-1.516l-2.5,0.834l-1.785-1.051L19.609,30.871z M9.517,23.53l-1.785,1.901l1.857,2.716L9.517,23.53z M32.914,18.677
		l-0.015,0.011L32.914,18.677z M22.457,6.867c1.576-0.622,2.326-1.782,3.835-0.681c0.095,0.185,0.841,0.313,1.019,0.379
		c0.08-0.003,0.517,0.042,0.562,0.021c1.5-0.966,1.803-3.266,1.265-4.766c-0.429-1.289-2.503-1.619-3.788-1.299
		c-2.305,0.771,0.438,0.257-2.768-0.146c-2.681-0.211-3.78,2.574-5.708,4.075c-0.643,0.431-1.257,0.878-2.114,0.556
		c-0.108,0-0.642,0.243-0.535,0.351c0.601,0.535-0.124,1.011,1.364,1.181c-2.037,0.104-3.83,0-5.329,1.715
		c0.857,0.212,1.871,0.202,2.298,1.06c0.215,0.646,0.331,0.917,0.118,1.559c-0.302,0.799-1.486,1.629-2.482,2.04
		c-1.138,0.476-1.896,1.048-1.833,1.104c0.149,0.093-0.285-0.069,1.034,0.569c0.61,0.295,1.301,0.295,1.964,0.431
		c-1.18,0-2.464,0.32-3.537,0.751c-1.135,0-2.274,1.456-2.961,2.216l-0.024,0.059c0.174-0.201,0.767,0.827,1.069,0.73
		c0.511-0.17,1.056-1.003,1.888-1.452c0.836-0.452,1.959-0.518,3.358-1.032c1.125-0.142,3.037,0.292,4.68,0
		c1.32-0.236,2.987-0.972,1.938-2.439c0.047-2.042,1.069-1.583,1.543-3.039c2.153-1.417,2.709,0.4,0.295-2.549
		c0.022-0.014,0.046-0.031,0.066-0.049c0.112-0.135,0.232-0.26,0.365-0.378C20.504,7.416,21.953,7.131,22.457,6.867L22.457,6.867z
		 M8.965,19.302c0.857-1.714,2.968-2.473,4.899-2.473c-0.424-0.069-0.9-0.444-2.177-0.348c-2.283,0.178-5.889,1.435-5.889,2.849
		l-0.247,3.471l0.861,0.049c0.26,0.013,0.645-1.512,0.892-1.793C7.784,20.512,8.652,19.932,8.965,19.302L8.965,19.302z
		 M13.561,22.728h0.872v0.938h-0.872V22.728z M22.042,26.622h1.328v0.938h-1.328V26.622z M29.98,20.498h0.871v2.321H29.98V20.498z
		 M33.361,21.092h1.65v1.17h-1.65V21.092z M36.542,26.858h0.875l3.955,0.253l-2.855,1.724l-1.867,2.73l-0.514-0.091L36.542,26.858z
		 M37.614,21.355l1.124,0.216l0.598,1.077l-1.825,1.397L37.614,21.355z M20.043,22.109h0.965v2.429h-0.965V22.109z"/>
	<polygon fill-rule="evenodd" clip-rule="evenodd" fill="#27A349" points="35.906,20.095 37.727,20.661 36.243,30.242 
		35.143,37.029 34.003,39.097 33.656,38.671 	"/>
	<path fill-rule="evenodd" clip-rule="evenodd" fill="#A6A5A3" d="M20.526,8.125c0.254-0.229,0.583-0.497,0.961-0.739
		C21.158,7.59,20.832,7.833,20.526,8.125 M28.683,22.126c-0.144,0.132-0.293,0.261-0.435,0.382
		c-0.115,0.094-0.229,0.186-0.337,0.271c-0.065,0.053-0.132,0.101-0.198,0.149c-0.024,0.021-0.05,0.038-0.077,0.06
		c-0.68,0.506-1.204,0.802-1.204,0.802l-0.03-0.003l-0.47-0.053c0,0-0.014-0.034-0.041-0.101c-0.223-0.563-1.219-3.528-0.102-9.19
		c0.015-0.084,0.043-0.126,0.077-0.139c-0.099-0.083-0.182-0.157-0.236-0.208c-0.004-0.004-0.004-0.004-0.008-0.007
		c-0.079-0.074-0.298-0.289-0.298-0.289s-0.118-0.107-0.195-0.142c-0.114-0.052-0.198-0.038-0.198-0.038s0.043,1.337,0.018,2.038
		l0,0c0,0-0.006,2.946-0.018,5.235c-0.002,1.394-0.059,2.613-0.051,3.251c0,0.039,0,0.069,0,0.104
		c0.007,0.182,0.024,0.313,0.084,0.383c0,0.004,0.207,0.048,0.45,0.031c0.153-0.008,0.413-0.086,0.65-0.174
		c0.068-0.024,0.135-0.049,0.197-0.072c0.109-0.046,0.209-0.084,0.268-0.111c0.016-0.015,0.031-0.024,0.049-0.039
		c0.242-0.191,0.623-0.504,1.058-0.913c0.035-0.034,0.07-0.066,0.104-0.101c0.059-0.053,0.114-0.107,0.171-0.164
		c0.11-0.107,0.222-0.221,0.337-0.341c0.036-0.041,0.076-0.078,0.113-0.12c0.311-0.334,0.626-0.702,0.921-1.06
		c0.023-0.031,0.049-0.059,0.072-0.091c0.053-0.063,0.104-0.124,0.153-0.191c0.041-0.048,0.084-0.1,0.121-0.148
		c-0.086,0.101-0.18,0.205-0.274,0.309C29.137,21.686,28.91,21.918,28.683,22.126 M31.046,12.922
		c-0.003,0.007-0.003,0.014-0.007,0.021c0,0.011-0.007,0.021-0.012,0.028c0.147-0.198,0.258-0.358,0.316-0.448
		c-0.021,0.013-0.038,0.027-0.038,0.027L31.046,12.922z M24.914,13.044l0.959-0.89h-0.005c0,0-0.496-1.966-0.488-3.498
		c0.007-1.348,0.517-2.289,0.517-2.289H25.9l-0.219-0.243l-0.69-0.764l0.003,0.007v0.205L24.914,13.044z M25.574,8.673
		c0,0.004,0,0.007,0,0.01c0-0.006,0-0.013,0.003-0.021C25.574,8.667,25.574,8.67,25.574,8.673 M25.574,8.698
		c-0.003,0.417,0.031,0.851,0.087,1.265C25.609,9.535,25.577,9.094,25.574,8.698 M25.574,8.698c0-0.003,0-0.006,0-0.014
		c0,0.003,0,0.003,0,0.008C25.574,8.691,25.574,8.695,25.574,8.698 M23.04,22.349v0.171l-0.108,0.215c0,0-0.03-0.09-0.078-0.244
		c-0.14-0.434-0.414-1.396-0.512-2.437c-0.16-1.74-0.027-3.696-0.027-3.696l0.778,0.21L23.04,22.349z M21.324,21.446l-0.215-0.535
		c0,0-0.292-1.385-0.375-2.733c-0.076-1.274,0.035-2.519,0.035-2.519l0.555,0.32V21.446z M19.985,19.945l-0.376-1.125
		c0,0-0.163-0.708-0.193-1.483c-0.045-1.035,0.031-2.25,0.031-2.25l0.645,0.304L19.985,19.945z M24.46,17.615
		c0,0-0.063-1.178-0.143-2.112c-0.059-0.694-0.1-1.237-0.1-1.237l-0.105,0.033V14.3c0,0-0.541,0.376-1.055,0.574
		c-0.411,0.156-1.364,0.232-1.785,0.142c-0.486-0.103-0.857-0.396-0.857-0.396s-0.49-0.271-0.84-0.625
		c-0.382-0.386-0.449-0.604-0.449-0.604l-0.697-0.862c-0.038,0.713-0.076,1.956,0.038,3.057c0.215,2.021,0.75,4.252,0.75,4.252
		s0.292,0.458,0.786,1.086c0.201,0.222,0.802,0.888,1.475,1.525c0.191,0.181,0.441,0.369,0.702,0.546
		c0.426,0.296,0.889,0.556,1.202,0.708c0.2,0.098,0.342,0.152,0.374,0.139c0.041-0.021,0.146-0.052,0.25-0.145
		c0.167-0.15,0.208-0.448,0.268-0.928c0.065-0.535,0.145-1.293,0.193-2.144c0.059-0.99,0.035-2.132-0.006-3.015V17.615
		 M24.028,6.892c-0.034-0.135-0.068-0.264-0.097-0.39c-0.011-0.052-0.018-0.104-0.021-0.153l-0.087,0.09c0,0-0.003,0-0.007,0
		c0.014,0.007,0.021,0.014,0.021,0.014S23.929,6.624,24.028,6.892 M31.201,12.292c0.053-0.038,0.115-0.08,0.174-0.114
		c-0.097-0.521-0.547-2.609-1.729-3.88c-0.939-1.018-2.329-1.529-3.113-1.751c0.493,0.167,1.261,0.483,1.829,1.001
		c0.778,0.705,1.125,2.098,1.101,2.501c-0.01,0.17-0.038,0.386-0.086,0.649c-0.08,0.42-0.865,0.945-1.621,1.244
		c-0.816,0.323-1.573,0.285-1.573,0.285h-0.091l-0.104,0.081l-1.073,0.884l-1.143-0.961c0,0,0.25-0.563,0.431-2.071
		c-0.027,0.198-0.056,0.407-0.09,0.601c-0.143,0.792-0.357,1.431-0.357,1.431s-0.875-0.132-1.608-0.357
		c-0.462-0.143-0.864-0.333-0.967-0.428c-0.258-0.236-0.462-0.608-0.462-0.608s-0.261-0.382-0.24-0.768
		c0.021-0.379,0.083-0.806,0.115-1.007c0.01-0.073,0.016-0.122,0.016-0.122s-0.432,0.194-1.009,0.973
		c-0.007,0.01-0.017,0.017-0.024,0.031c-0.082,0.108-0.296,0.317-0.362,0.458c-0.486,1.06-0.531,2.004-0.531,2.004l-0.1-0.041
		l0.464,0.49l0.063,0.038v-0.002c0,0-0.098-0.154-0.052-0.252c0.045-0.1,0.379-0.204,0.552-0.193
		c0.244,0.014,0.539,0.107,0.539,0.107s0.397,0.119,0.659,0.229c0.182,0.081,0.712,0.365,0.732,0.376
		c0.139,0.086,0.631,0.402,1.038,0.582c0.423,0.188,0.896,0.261,0.997,0.258c0.197-0.003,0.393-0.032,0.476-0.045l0.348-0.295
		l0.357-0.273l0.444-0.011c0,0,0.173,0.149,0.34,0.313c0.129,0.124,0.25,0.256,0.323,0.34l0.212-0.011l1.038-0.25l2.357-1.108
		c0,0,0.489-0.188,0.927-0.177c0.24,0.007,0.469,0.128,0.563,0.184l0.121-0.153C31.08,12.473,31.098,12.379,31.201,12.292
		 M27.158,14.933c0.266,0.074,0.582,0.128,0.909,0.128C27.799,15.054,27.466,15.002,27.158,14.933 M31.265,15.287
		c0.027-0.354,0.049-0.697,0.066-1.021c-0.015,0.17-0.025,0.348-0.042,0.536C31.278,14.958,31.271,15.121,31.265,15.287
		L31.265,15.287z"/>
	<path fill-rule="evenodd" clip-rule="evenodd" fill="#CFD2D2" d="M18.54,12.282l0.042,0.046l0.1,0.041c0,0,0.045-0.944,0.531-2.004
		c0.065-0.142,0.28-0.35,0.362-0.461c0.007-0.011,0.017-0.018,0.024-0.028c0.577-0.778,1.009-0.969,1.009-0.969
		c0-0.004-0.006,0.045-0.016,0.118c-0.032,0.202-0.095,0.628-0.115,1.007c-0.021,0.386,0.24,0.768,0.24,0.768
		s0.204,0.372,0.462,0.608c0.104,0.094,0.505,0.285,0.967,0.428c0.733,0.225,1.608,0.357,1.608,0.357s0.215-0.639,0.357-1.431
		c0.034-0.194,0.063-0.403,0.09-0.601c0.049-0.389,0.09-0.84,0.123-1.361c-0.039-0.956-0.179-1.483-0.297-1.907
		c-0.1-0.268-0.19-0.438-0.19-0.438s-0.007-0.007-0.021-0.014c-0.011-0.003-0.023-0.006-0.042,0
		c-0.048,0.014-0.125,0.028-0.219,0.049c-0.156,0.035-0.36,0.083-0.569,0.156c-0.411,0.149-0.848,0.375-1.045,0.476
		c-0.097,0.052-0.191,0.104-0.285,0.16c-0.454,0.268-0.841,0.58-1.132,0.844c-0.35,0.32-0.559,0.567-0.559,0.567
		s-0.636,0.694-0.965,1.5c-0.038,0.091-0.073,0.188-0.108,0.285c-0.185,0.494-0.336,1.018-0.411,1.362
		c-0.024,0.125-0.034,0.219-0.041,0.289l0.011,0.014L18.54,12.282z M36.726,25.208l-0.181,1.09l-1.01,6.2l-0.087,0.541l-0.102,0.616
		l-0.006,0.035L35.194,34.6l-0.367,2.257l-0.91,2.091l0.004-0.048l2.564-18.097l0.23,0.028l0.707,0.079l-0.002,0.025l-0.105,0.645
		l-0.367,2.245l-0.22,1.344L36.726,25.208z M33.753,38.87l-0.068-2.13l0.927-8.384l0.851-7.711l0.007-0.057l-0.857-0.104
		l-0.909,0.58l-0.267,0.169l-0.209-0.023l-0.143-0.018l-0.031-0.003l-0.146-0.018l-0.386-0.044l0.386-0.623l0.156-0.247l0.007-0.013
		l0.174-0.278l0.458-0.737l0.319-0.517l0.594,0.076l1.045,0.128l0.076,0.011l0.591-5.27l0.215-0.25l1.06-0.858l0.064-0.056
		l-0.01,0.056l-0.257,1.827l0.08,0.079l0.518,0.539l0.363,0.376v0.465l0,0l-1.029-0.969l-0.06,0.413l0.072,0.076l0.611,0.608
		l0.194,0.195v0.427l-0.948-0.826l-0.066,0.458l0.125,0.124l0.709,0.709l0.107,0.107l-0.034,0.393l-0.966-0.904l-0.079,0.569
		l0.083,0.081l0.715,0.66l0.101,0.094v0.427l-0.962-0.83l-0.188,1.316l0.087,0.015l0.552,0.09l0.421,0.066l1.737,0.274l0.008,0.031
		l0.633,1.824l0.09,0.268l0.073,0.211l0.057,0.154l0.055,0.162l0.004,0.007l0.024,0.073l0.02,0.055h-0.013l-0.084-0.018
		l-0.113-0.023h-0.012l-0.256-0.053l-0.179-0.034l-0.148-0.032l-0.117-0.142l-0.483-0.58l-0.191-0.226l-0.01-0.018l-1.326-0.149
		l-1.007-0.114L36.485,20.8l-2.568,18.113v0.009h-0.004L33.753,38.87z M36.882,25.833l0.035-0.198l0.017-0.098l0.011-0.076
		l0.08-0.473l0.083-0.49l0.164-0.975l0.378-2.255l1.069,0.108l0.549,0.697l0.191,0.242l0.045,0.06l0.045,0.004l0.25,0.028
		l0.045,0.002l0.118,0.012l0.642,0.066l0.296,0.031l-0.052-0.153l-0.119-0.351l-0.024-0.07l-0.002-0.01l-0.057-0.167l-0.06-0.177
		l-0.062-0.181l-0.733-2.178l-1.715-0.357l0.785-5.006l-1.108-1.535h-0.177l-1.284,1.035l-0.146,0.288l-0.604,4.968l-1.646-0.251
		l-0.193,0.32l-0.452,0.729l-0.185,0.307l-0.002,0.003L32.91,19.98l-0.833,1.358l0.825,0.139l0.15,0.025l0.038,0.007l0.128,0.02
		l0.358,0.063l0.125-0.08l1.017-0.635l0.535,0.106l-0.163,1.383l-0.024,0.216l-1.631,13.873l0.176,2.572l0.392,0.069l1.039-2.251
		l0.539-3.222l0.011-0.057l0.109-0.674L35.852,32l0.899-5.371L36.882,25.833z M26.79,16.568l0.642-0.158l-0.428,6.268l-0.214-0.106
		V16.568z M28.931,15.711l-0.427,5.683l-0.107-0.161l-0.107-5.146L28.931,15.711z M29.737,15.5l0.59-0.376l-0.459,4.461
		l-0.023,0.254l-0.087-0.213l-0.021-0.055V15.5z M25.932,23.735l0.47,0.053l0.03,0.003c0,0,0.524-0.296,1.204-0.802
		c0.027-0.021,0.053-0.039,0.077-0.06c0.066-0.049,0.133-0.097,0.198-0.149c0.107-0.086,0.222-0.178,0.337-0.271
		c0.142-0.121,0.291-0.25,0.435-0.382c0.228-0.208,0.454-0.44,0.672-0.681c0.095-0.104,0.188-0.208,0.274-0.309
		c0.16-0.184,0.31-0.364,0.448-0.535c0.129-0.164,0.245-0.314,0.347-0.449c0.223-0.291,0.361-0.5,0.379-0.539
		c0-0.006,0.003-0.02,0.008-0.044c0.01-0.038,0.018-0.101,0.03-0.188c0.011-0.076,0.024-0.167,0.038-0.274
		c0.09-0.656,0.236-1.859,0.345-3.046c0.023-0.261,0.03-0.521,0.041-0.776c0.007-0.166,0.014-0.329,0.024-0.485
		c0.017-0.188,0.027-0.365,0.042-0.536c0.059-0.923,0.064-1.586,0.064-1.771c0,0,0,0-0.003,0c-0.018,0.007-0.034,0.018-0.049,0.028
		c-0.059,0.089-0.169,0.25-0.316,0.448c-0.054,0.146-0.199,0.295-0.199,0.295s-0.47,0.625-0.907,1.032
		c-0.227,0.21-0.587,0.437-0.934,0.593c-0.191,0.083-0.365,0.118-0.521,0.139c-0.009,0.003-0.015,0.003-0.021,0.003
		c-0.042,0.007-0.084,0.011-0.121,0.017c-0.073,0.01-0.163,0.01-0.257,0.01c-0.327,0-0.644-0.054-0.909-0.128
		c-0.335-0.076-0.637-0.176-0.795-0.274c-0.188-0.111-0.362-0.243-0.497-0.354c-0.034,0.013-0.063,0.055-0.077,0.139
		c-1.117,5.662-0.121,8.627,0.102,9.19C25.918,23.701,25.932,23.735,25.932,23.735 M26.137,12.189l-0.056-0.007l0.056,0.011
		l-0.046,0.035h0.091c0,0,0.757,0.038,1.573-0.285c0.756-0.299,1.541-0.824,1.621-1.244c0.048-0.263,0.076-0.479,0.086-0.649
		c0.024-0.403-0.322-1.796-1.101-2.501c-0.568-0.518-1.336-0.833-1.829-1.001c-0.052-0.017-0.101-0.031-0.144-0.045
		c-0.074-0.024-0.151-0.042-0.217-0.056c-0.005,0.004-0.005,0.004-0.005,0.007c-0.177,0.337-0.572,1.198-0.59,2.209
		c-0.003,0.01-0.003,0.018-0.003,0.028c0,0.399,0.035,0.84,0.087,1.271C25.816,11.154,26.137,12.189,26.137,12.189 M11.895,33.632
		l-2.743-0.894l-0.298-0.097l-0.137-0.045L8.124,31.53l-2.538-4.554l-0.013-0.024l-0.608,0.713v4.432l-1.534,2.543l-0.139,0.229
		l-0.226,0.375l-0.063,0.104V35.33v-0.028l0.024-10.607l0.004-0.709l0.003-1.732l0.003-1.088l0.972-1.046l0.84-0.903l0.153-0.163
		v0.003l0.003,0.622v0.004v0.093l0.025,4.258l0.006,0.743v0.135l0.139-0.158l0.77-0.899l1.491-1.74l0.406-0.48l1.537-1.795
		l0.549-0.643l0.333-0.098l3.204-0.938l-0.568,0.618l-0.768,0.836l-0.035,0.039L9.232,22.77l-1.271,1.381l-0.993,1.085
		L11.895,33.632z M8.674,23.884l1.182-1.317l2.668-2.958l0.128-0.146l1.458-1.619l0.356-0.399l-1.2,0.375l-2.211,0.691l-1.16,0.365
		l-1.42,1.619l-0.777,0.885l-0.311,0.355l-1.954,2.229L5.43,23.967l-0.107,0.125V18.16L5.08,18.431l-0.713,0.793l-1.354,1.499
		l-0.299,0.331v15.294l2.574-4.07v-4.506l0.249-0.25l2.964,5.36l4.109,1.288l-5.25-8.825L8.674,23.884z M15.496,30.967l-0.207,0.271
		l-0.002,0.018l-3.24-6.68l-0.011-0.022l-0.25,0.073l0.254,6.146l0.035,0.788l-1.841-3.031l-0.06-5.087v-0.03h0.004l0.813-0.963
		l0.902-1.072l0.268,0.406l0.348,0.531l0.555,0.844l1.722,2.629l0.038,0.057l-0.111-2.918l-0.039-1.074l-0.03-0.799l1.823-1.5
		l0.003,0.553v0.847l0.007,1.286l0.024,7.393L15.496,30.967z M16.724,20.797l-0.006-1.852l-2.357,2.001l0.028,0.996l0.028,1.035
		l0.05,1.899l-1.117-1.771l-0.521-0.83L12.022,21l-0.013-0.023l-0.041-0.066l-1.341,1.57l-0.691,0.811l-0.041,0.052v5.286
		l1.479,2.369l1.02,1.633l-0.318-7.181l3.177,6.468l1.499-2.146l-0.024-7.717L16.724,20.797z M33.201,22.77l0.015-1.039
		l-0.122-0.018l-0.046-0.006l-0.146-0.025l-0.006,1.463l0.086-0.015l0.879-0.128l-0.444,0.639l-0.538,0.771l-0.035,6.881
		l-1.287,1.229l-0.41,0.396l-0.007-7.66h0.003v-0.548l-1.809,0.305l0.021,5.844l-1.152,1.122l-0.34,0.33l-0.063-7.01v-0.027
		l-1.436,0.238l-0.071,6.783l-0.003,0.286v0.015l-0.423-0.411l-1.107-1.073l0.259-2.861l0.004-0.049c0,0-1.03,1.166-1.944,1.726
		c-0.614,0.379-1.219,0.237-1.243,0.229l0,0c0,0-0.664-0.104-1.125-0.778c-0.185-0.268-0.483-0.785-0.629-1.383
		c-0.028-0.11-0.052-0.229-0.069-0.344c-0.062-0.481-0.017-0.99,0.073-1.423c0.069-0.348,0.17-0.646,0.263-0.855
		c0.373-0.833,0.993-1.5,1.217-1.726c-0.039-0.027-0.074-0.057-0.111-0.084c-0.004-0.004-0.008-0.007-0.011-0.012
		c-0.004,0-0.004-0.002-0.004-0.002c-0.059-0.045-0.114-0.091-0.169-0.139c-0.267,0.326-0.802,1.021-1.184,1.765c0,0,0,0,0,0.002
		c-0.052,0.099-0.1,0.195-0.142,0.293c-0.234,0.523-0.292,1.402-0.2,2.22c0.043,0.364,0.137,0.698,0.248,0.989
		c0.028,0.073,0.059,0.144,0.087,0.212c0.118,0.261,0.246,0.483,0.365,0.646c0.53,0.754,1.364,0.913,1.364,0.913
		s0.725,0.063,1.364-0.267c0.781-0.403,1.503-1.209,1.503-1.209L24.46,31.23l2.136,2.117l0.086-7.59l0.152-0.028l0.223-0.042
		l0.443-0.08l0.066,7.459l2.077-2.099l0.068-5.304l0.005-0.355l0.002-0.072l1.129-0.185v0.268l-0.02,8.334l2.283-2.217V31.43
		l0.003-0.25l0.07-6.694l1.319-1.932L33.201,22.77z M43.882,25.172c-0.661-0.469-1.713-0.454-1.713-0.454v0.003
		c-0.065,0-0.433,0.004-0.912,0.027c-0.705,0.021-1.527,0.051-1.527,0.051s0.25-0.318,0.802-0.619
		c0.787-0.428,1.954-0.883,1.954-0.883l1.813-2.837l0.226-0.351c0,0-0.095,0.032-0.26,0.09c-0.56,0.208-1.955,0.739-3.34,1.43
		l0.052,0.164l0.008,0.014l0.02,0.074c1.386-0.666,2.716-1.13,2.716-1.13l-0.354,0.574l-1.065,1.729c0,0-1.126,0.424-1.929,0.886
		c-0.579,0.333-0.909,0.75-0.909,0.75s-0.09,0.146-0.027,0.268c0.015,0.028,0.045,0.057,0.084,0.08
		c0.068,0.046,0.156,0.084,0.156,0.084s0.604-0.063,1.287-0.084c0.584-0.018,1.194,0,1.194,0l0.199,0.004l0,0
		c0.363,0.021,1.048,0.107,1.451,0.427c0.125,0.101,0.276,0.378,0.318,0.691c0.011,0.08,0.015,0.163,0.008,0.25
		c-0.066,0.671-0.435,1.522-0.931,2.025c-0.841,0.854-2.08,1.694-2.08,1.694s-1.934,1.109-3.249,1.751
		c-0.178,0.087-0.337,0.157-0.48,0.216c-0.495,0.198-0.771,0.233-0.771,0.233l1.818-3.109c0,0,0.603-0.261,1.161-0.504
		c0.333-0.146,0.673-0.302,0.852-0.383l0,0c0,0,0.621-0.263,1.113-0.642c0.215-0.16,0.428-0.449,0.553-0.694
		c0.004-0.008,0.007-0.014,0.01-0.018c0.073-0.153,0.076-0.303,0.059-0.389c-0.006-0.026-0.013-0.046-0.021-0.061
		c-0.098-0.146-0.598-0.086-0.917-0.042c-0.677,0.081-1.706,0.216-2.329,0.23c-0.131,0.002-0.25-0.004-0.363-0.018
		c-0.452-0.06-0.789-0.239-1.032-0.476c-0.049-0.049-0.097-0.101-0.14-0.153c-0.01-0.014-0.021-0.028-0.027-0.042
		c-0.026-0.045-0.055-0.09-0.08-0.139c-0.018-0.031-0.034-0.065-0.048-0.101l-0.004,0.014l-0.037,0.236l-0.039,0.239
		c0.018,0.026,0.039,0.05,0.059,0.07c0.421,0.451,1.027,0.646,1.556,0.677c0.268,0.018,0.653-0.011,0.985-0.028
		c0.837-0.041,1.893-0.267,1.893-0.267s0.178-0.031,0.216,0.007c0.083,0.059-0.16,0.438-0.496,0.699
		c-0.493,0.399-1.188,0.728-1.202,0.735l-1.93,0.778l-2.063,3.395l-0.066,0.408l-0.028,0.167c0.007,0,0.012-0.003,0.018-0.003
		c0.375-0.125,1.032-0.364,1.845-0.727c1.184-0.527,2.76-1.445,2.76-1.445s1.757-0.989,2.813-2.226
		c0.458-0.535,0.933-1.479,0.944-2.224C44.462,25.752,44.104,25.329,43.882,25.172 M19.324,30.988l-1.357,1.448l-0.396,0.417
		l0.004-0.007l-0.132-11.168l-0.011-0.982l1.132,0.601l0.76,0.399V30.988z M19.051,21.223l-1.602-0.847l-0.256-0.136l-0.1-0.052
		l0.007,0.378v0.021l0.02,1.25l0.129,7.423v0.031l0.066,3.893l0.011,0.485l0.259-0.3l2.024-2.303v-9.306
		c-0.083-0.111-0.169-0.24-0.27-0.385L19.051,21.223z M39.336,22.648l-0.059-0.007l-0.049-0.057
		c-0.742,0.498-1.322,1.039-1.718,1.461l-0.049,0.305l-0.023,0.146l-0.036,0.211c0.288-0.463,0.838-1.166,1.788-1.813
		c0.115-0.076,0.232-0.154,0.353-0.226l-0.074-0.009L39.336,22.648z M31.375,19.474c-0.01,0.073-0.021,0.131-0.023,0.166
		c-0.003,0.011-0.003,0.021-0.008,0.027l1.556-0.979l0.015-0.011v0.459v0.062v0.055l0.134-0.215l0.022-0.032l0.193-0.302
		l0.008-0.618l-1.848,1.063c-0.017,0.111-0.031,0.208-0.045,0.289C31.379,19.449,31.375,19.462,31.375,19.474 M30.206,23.321
		l-0.512,0.102l-0.038,0.008l-0.017-0.637l-0.021-0.86c-0.076,0.089-0.152,0.176-0.236,0.267c-0.031,0.035-0.063,0.07-0.095,0.105
		l0.018,1.447l0.025-0.003l1.826-0.319v-3.485l-0.03,0.042l-0.123,0.173l-0.107,0.15l-0.068,0.101l0.048,2.775v0.004h-0.004
		L30.206,23.321z M22.839,28.379L22.839,28.379c0.083-0.052,0.368-0.258,1.148-1c0.496-0.508,1.018-1.202,1.152-1.384
		c0.021-0.03,0.035-0.045,0.035-0.045l-1.719,0.271l-0.01,0.004L23.04,26.29c0,0,0.007-0.021,0.024-0.057
		c0.035-0.084,0.104-0.25,0.198-0.449c0.035-0.075,0.077-0.155,0.119-0.235c0.104-0.204,0.217-0.41,0.308-0.575
		c0.021-0.036,0.041-0.071,0.06-0.105l-0.118-0.041c0,0-0.015-0.008-0.032-0.015c-0.023-0.011-0.065-0.028-0.124-0.056
		c-0.101,0.191-0.265,0.508-0.417,0.82c-0.254,0.518-0.474,1.017-0.474,1.017l1.957-0.278c0,0-0.289,0.362-0.685,0.766
		c-0.434,0.445-0.961,0.916-1.059,1c-0.006,0.007-0.166,0.136-0.316,0.166c-0.031,0.007-0.06,0.011-0.084,0.007
		c-0.03-0.002-0.062-0.02-0.086-0.041c-0.076-0.069-0.125-0.191-0.125-0.191c0-0.002-0.181-0.354-0.202-0.858
		c-0.004-0.037-0.004-0.076-0.004-0.114c0-0.076,0.009-0.155,0.015-0.235c0.042-0.465,0.174-0.956,0.174-0.956
		s0.069-0.347,0.256-0.628c0.073-0.11,0.169-0.23,0.261-0.342c0.139-0.162,0.267-0.304,0.315-0.354
		c-0.048-0.027-0.103-0.055-0.155-0.082c-0.014-0.008-0.021-0.012-0.036-0.018c-0.009-0.004-0.018-0.012-0.031-0.014
		c-0.017-0.011-0.035-0.021-0.052-0.032c-0.073,0.069-0.333,0.337-0.517,0.61c-0.193,0.289-0.282,0.591-0.282,0.591
		s-0.079,0.293-0.142,0.672c-0.002,0.034-0.011,0.071-0.013,0.106c-0.021,0.154-0.039,0.317-0.045,0.48
		c-0.024,0.568,0.107,1.111,0.107,1.111s0.052,0.156,0.131,0.298c0.022,0.035,0.039,0.063,0.06,0.091
		c0.003,0.008,0.007,0.01,0.01,0.014c0.017,0.024,0.039,0.048,0.059,0.073c0.038,0.041,0.087,0.079,0.15,0.098
		c0.194,0.056,0.471-0.088,0.563-0.136l0,0C22.807,28.397,22.818,28.394,22.839,28.379 M27.921,24.307l-0.004-0.678
		c-0.045,0.039-0.09,0.074-0.136,0.113c-0.048,0.041-0.097,0.083-0.146,0.121v0.284l-0.465,0.091
		c-0.131,0.107-0.261,0.205-0.381,0.295c-0.011,0.008-0.019,0.014-0.029,0.021c-0.075,0.056-0.146,0.108-0.211,0.157l1.375-0.223
		v-0.014l-0.004-0.121V24.307z"/>
	<path fill-rule="evenodd" clip-rule="evenodd" fill="#323130" d="M22.853,22.491c0.048,0.154,0.078,0.244,0.078,0.244l0.108-0.215
		v-0.171l0.052-5.781l-0.778-0.21c0,0-0.132,1.956,0.027,3.696C22.439,21.095,22.713,22.057,22.853,22.491 M20.734,18.177
		c0.083,1.349,0.375,2.733,0.375,2.733l0.215,0.535v-5.467l-0.555-0.32C20.769,15.658,20.658,16.903,20.734,18.177 M18.603,6.85
		c-0.093,0.01-0.185,0.017-0.278,0.017C18.436,6.923,18.518,6.892,18.603,6.85 M38.899,21.071l0.01,0.018l0.191,0.226l0.483,0.58
		l0.117,0.142l0.148,0.032l0.179,0.034l0.256,0.053h0.012l0.113,0.023l0.084,0.018h0.013l-0.02-0.055l-0.024-0.073l-0.004-0.007
		l-0.055-0.162l-0.057-0.154l-0.073-0.211l-0.09-0.268l-0.633-1.824l-0.008-0.031l-1.737-0.274l-0.421-0.066l-0.552-0.09
		l-0.087-0.015l0.188-1.316l0.962,0.83v-0.427l-0.101-0.094l-0.715-0.66l-0.083-0.081l0.079-0.569l0.966,0.904l0.034-0.393
		l-0.107-0.107l-0.709-0.709l-0.125-0.124l0.066-0.458l0.948,0.826v-0.427l-0.194-0.195l-0.611-0.608l-0.072-0.076l0.06-0.413
		l1.029,0.969l0,0v-0.465l-0.363-0.376l-0.518-0.539l-0.08-0.079l0.257-1.827l0.01-0.056l-0.064,0.056l-1.06,0.858l-0.215,0.25
		l-0.591,5.27l-0.076-0.011l-1.045-0.128l-0.594-0.076l-0.319,0.517l-0.458,0.737l-0.174,0.278l-0.011,0.013l-0.152,0.247
		l-0.386,0.623l0.386,0.044l0.146,0.018l0.031,0.003l0.143,0.018l0.209,0.023l0.267-0.169l0.909-0.58l0.857,0.104l-0.007,0.057
		l-0.851,7.711l-0.927,8.384l0.068,2.13l0.16,0.052h0.004v-0.009L36.485,20.8l0.081,0.008l1.007,0.114L38.899,21.071z
		 M19.416,17.336c0.031,0.775,0.193,1.483,0.193,1.483l0.376,1.125l0.106-4.554l-0.645-0.304
		C19.446,15.087,19.37,16.301,19.416,17.336 M28.396,21.233l0.107,0.161l0.427-5.683l-0.642,0.375L28.396,21.233z M26.79,22.572
		l0.214,0.106l0.428-6.268l-0.642,0.158V22.572z M40.531,24.18c-0.552,0.301-0.802,0.619-0.802,0.619s0.822-0.029,1.527-0.051
		c0.479-0.023,0.847-0.027,0.912-0.027v-0.003c0,0,1.052-0.015,1.713,0.454c0.223,0.156,0.58,0.58,0.569,1.126
		c-0.012,0.744-0.486,1.688-0.944,2.224c-1.056,1.236-2.813,2.226-2.813,2.226s-1.576,0.918-2.76,1.445
		c-0.813,0.362-1.47,0.602-1.845,0.727c-0.006,0-0.011,0.003-0.018,0.003l0.028-0.167l0.066-0.408l2.063-3.395l1.93-0.778
		c0.014-0.008,0.709-0.336,1.202-0.735c0.336-0.261,0.579-0.641,0.496-0.699c-0.038-0.038-0.216-0.007-0.216-0.007
		S40.586,26.958,39.749,27c-0.332,0.018-0.718,0.046-0.985,0.028c-0.528-0.03-1.135-0.226-1.556-0.677
		c-0.02-0.021-0.041-0.044-0.059-0.07l0.039-0.239l0.037-0.236l0.004-0.014c0.014,0.035,0.03,0.069,0.048,0.101
		c0.077,0.121,0.163,0.236,0.247,0.334c0.243,0.236,0.58,0.416,1.032,0.476c-0.214-0.077-0.664-0.267-0.804-0.573
		c-0.156-0.352-0.267-0.949,0.182-1.556c0.569-0.625,1.458-1.348,2.246-1.838l1.135,0.121l-0.198-0.617
		c0.852-0.393,1.865-0.771,2.247-0.914l0.354-0.574c0,0-1.33,0.464-2.716,1.13l-0.02-0.074l-0.008-0.014l-0.052-0.164
		c1.385-0.691,2.78-1.222,3.34-1.43c0.165-0.059,0.26-0.09,0.26-0.09l-0.226,0.351l-1.809,2.837
		C42.489,23.297,41.318,23.752,40.531,24.18 M37.399,27.184c1.017,0.518,3.643,0.104,3.643,0.104l-3,1.233l-1.691,2.685l0.691-4.266
		C37.146,27.032,37.265,27.115,37.399,27.184 M37.646,23.2l0.24-1.469l0.643,0.053l0.423,0.482
		C38.416,22.606,37.979,22.932,37.646,23.2 M39.229,22.584l0.049,0.057l0.059,0.007l0.133,0.013l0.074,0.009
		c-0.12,0.071-0.237,0.149-0.353,0.226c-0.95,0.646-1.5,1.35-1.788,1.813l0.036-0.211l0.023-0.146l0.049-0.305
		C37.906,23.624,38.486,23.083,39.229,22.584 M35.852,32l-0.15,0.895l-0.109,0.674l-0.011,0.057l-0.539,3.222l-1.039,2.251
		l-0.392-0.069l-0.176-2.572l1.631-13.873l0.024-0.216l0.163-1.383l-0.535-0.106l-1.017,0.635l-0.125,0.08l-0.358-0.063l-0.128-0.02
		l-0.038-0.007l-0.15-0.025l-0.825-0.139l0.833-1.358l0.153-0.247l0.002-0.003l0.185-0.307l0.452-0.729l0.193-0.32l1.646,0.251
		l0.604-4.968l0.146-0.288l1.284-1.035h0.177l1.108,1.535l-0.785,5.006l1.715,0.357l0.733,2.178l0.062,0.181l0.06,0.177l0.057,0.167
		l0.002,0.01l0.024,0.07l0.119,0.351l0.052,0.153l-0.296-0.031l-0.642-0.066l-0.118-0.012l-0.045-0.002l-0.25-0.028l-0.045-0.004
		l-0.045-0.06l-0.191-0.242l-0.549-0.697l-1.069-0.108l-0.378,2.255l-0.164,0.975l-0.083,0.49l-0.08,0.473l-0.011,0.076
		l-0.017,0.098l-0.035,0.198l-0.131,0.795L35.852,32z M33.702,22.172v-0.477l0.968-0.556l0.216,0.052l-0.106,0.858L33.702,22.172z
		 M22.48,27.091l0.826-0.122l-0.753,0.552L22.48,27.091z M33.185,24.486l-0.07,6.694l-0.003,0.25v0.006l-2.283,2.217l0.02-8.334
		v-0.268l-1.129,0.185l-0.002,0.072l-0.005,0.355l-0.068,5.304l-2.077,2.099L27.5,25.607l-0.443,0.08l-0.223,0.042l-0.152,0.028
		l-0.086,7.59L24.46,31.23l0.215-2.253c0,0-0.723,0.806-1.503,1.209c-0.639,0.329-1.364,0.267-1.364,0.267s-0.834-0.159-1.364-0.913
		c-0.12-0.163-0.248-0.386-0.365-0.646c-0.028-0.068-0.059-0.139-0.087-0.212c-0.111-0.291-0.204-0.625-0.248-0.989
		c-0.092-0.817-0.035-1.696,0.2-2.22c0.045-0.098,0.089-0.194,0.142-0.293c0-0.002,0-0.002,0-0.002
		c0.382-0.743,0.917-1.438,1.184-1.765c0.055,0.048,0.111,0.094,0.169,0.139c0,0,0,0.002,0.004,0.002
		c0.003,0.005,0.006,0.008,0.011,0.012c0.037,0.027,0.072,0.057,0.111,0.084c-0.224,0.226-0.844,0.893-1.219,1.726
		c-0.09,0.209-0.191,0.508-0.261,0.855c-0.089,0.433-0.135,0.941-0.073,1.423c0.017,0.115,0.041,0.233,0.069,0.344
		c0.149,0.598,0.44,1.115,0.629,1.383c0.461,0.674,1.125,0.778,1.125,0.778l0,0c-0.251-0.264-1.528-1.691-1.477-3.244
		c0.042-1.215,1.299-2.657,1.597-2.983c0.268,0.177,0.532,0.33,0.771,0.458c0.017,0.011,0.035,0.021,0.052,0.032
		c0.013,0.002,0.022,0.01,0.031,0.014c0.015,0.006,0.021,0.01,0.036,0.018c0.052,0.027,0.107,0.055,0.155,0.082
		c-0.048,0.05-0.176,0.191-0.315,0.354c-0.091,0.111-0.188,0.231-0.261,0.342c-0.187,0.281-0.256,0.628-0.256,0.628
		s-0.132,0.491-0.174,0.956c-0.006,0.08-0.015,0.159-0.015,0.235c0,0.038,0,0.077,0.004,0.114c0.021,0.504,0.202,0.858,0.202,0.858
		c0-0.002,0.049,0.122,0.125,0.191c0.024,0.021,0.056,0.039,0.086,0.041c0.024,0.004,0.053,0,0.084-0.007
		c0.15-0.03,0.31-0.159,0.316-0.166c0.098-0.084,0.625-0.555,1.059-1c0.396-0.403,0.685-0.766,0.685-0.766l-1.957,0.278
		c0,0,0.219-0.499,0.474-1.017c0.152-0.313,0.316-0.629,0.417-0.82c0.056,0.027,0.101,0.045,0.124,0.056
		c0.018,0.007,0.032,0.015,0.032,0.015l0.118,0.041l0.011,0.003l-0.049,0.091l-0.448,0.822c-0.094,0.199-0.164,0.365-0.201,0.449
		c-0.014,0.035-0.021,0.057-0.021,0.057l0.407-0.063l0,0l0.614-1.245l0.587,0.22c0,0,0.267,0.118,0.589,0.107
		c0.32-0.013,0.695-0.163,0.695-0.163s0.156-0.101,0.406-0.277l0.008,0.188l1.915-0.285l-0.023-0.538l0.006-0.889
		c0.123-0.112,0.248-0.223,0.368-0.341c0.234-0.223,0.462-0.462,0.677-0.697c0.032-0.035,0.063-0.07,0.095-0.105
		c0.084-0.091,0.16-0.178,0.236-0.267l0.021,0.86l0.017,0.637l0.038-0.008l0.512-0.102l0.666-0.131h0.004v-0.004l-0.048-2.775
		l0.068-0.101l0.107-0.15l0.123-0.173l0.03-0.042v3.485l-1.826,0.319l0.031,0.378l2.25-0.324l-0.021-2.33l1.312,0.209l0.146,0.025
		l0.046,0.006l0.122,0.018l-0.015,1.039l1.303-0.216L33.185,24.486z M19.609,31.068l-2.024,2.303l-0.259,0.3l-0.011-0.485
		l-0.066-3.893v-0.031l-0.129-7.423l-0.02-1.25v-0.021l-0.007-0.378l0.1,0.052l0.256,0.136l1.602,0.847l0.289,0.154
		c0.1,0.145,0.187,0.273,0.27,0.385V31.068z M17.332,18.053c0.104-0.209,0.319-0.327,0.701-0.265
		c0.099,0.539,0.215,1.025,0.324,1.432c0.018,0.267-0.056,0.504-0.354,0.674c-0.049,0.052-0.105,0.108-0.167,0.167l-0.136-0.076
		l-0.226-0.129L17.189,19.7l-0.006-1.074l-0.181-0.18C17.108,18.326,17.22,18.198,17.332,18.053 M15.541,15.767
		c-3.31,0.618-7.017-0.258-9.294,2.477l-0.208,0.309l-0.093,0.101l0.002-0.25v-0.816l-0.201-0.15l-0.226-0.17l-0.683,0.774
		l0.024-0.059l1.069-1.182l0.007,0.008c0.476-0.554,1.795-1.042,1.885-1.042c1.073-0.431,2.357-0.751,3.537-0.751
		c-0.663-0.136-1.354-0.136-1.964-0.431c-1.319-0.639-0.885-0.476-1.034-0.569c-0.063-0.055,0.968-0.493,2.107-0.965
		c0.993-0.414,2.201-1.203,2.499-2.001c0.215-0.643,0.215-1.289,0-1.932c-0.43-0.857-1.499-0.75-2.357-0.964
		c1.5-1.713,4.074-1.394,6.108-1.501c-0.858-0.107-1.5-0.643-2.143-1.178c-0.108-0.107,0-0.215,0.109-0.215
		c0.857,0.322,1.605-0.108,2.249-0.535c1.927-1.5,3.108-4.29,5.784-4.075c0.858,0.108,1.609,0.75,2.146,1.393
		c-0.322-0.535-0.215-1.07,0.428-1.285c1.283-0.323,3.106-0.108,3.537,1.177c0.535,1.504,0.212,3.432-1.288,4.398
		c-0.045,0.021-0.11,0.035-0.19,0.035c-0.307-0.111-0.584-0.194-0.799-0.25c-0.035-0.031-0.062-0.069-0.084-0.107
		c-0.426-0.858,0.107-2.143-0.746-2.893c0.419,0.632,0.632,1.893-0.079,2.337l-0.114-0.143c-0.039-0.052-0.081-0.104-0.129-0.152
		l-0.418-0.515c-0.003-0.007-0.01-0.017-0.01-0.028c-0.003,0.004-0.006,0.004-0.006,0.008l-0.05-0.059L23.762,5.86
		c-0.322-0.493-0.84-0.497-1.256-0.601c-1.5-0.32-2.465,0.965-3.646,1.5c-0.1,0-0.18,0.048-0.256,0.09
		c0.961-0.111,1.844-0.771,2.721-1.16c0.535-0.108,1.072,0.104,1.392,0.535c-0.416,0.153-0.805,0.358-1.18,0.594
		c-0.503,0.264-1.032,0.597-1.496,1.014c-0.132,0.118-0.253,0.243-0.365,0.378c-0.021,0.018-0.044,0.035-0.066,0.049
		c-2.034-0.427-4.392-0.212-5.676,1.608c1.069-0.962,2.462-1.608,3.858-1.177c0,0,0.427,0.215,0.106,0.215
		c-0.749,0.211-1.502,0.427-2.038,0.854c-1.499,1.181-2.141,3.54-4.284,3.647c0.535,0,1.177-0.107,1.712-0.322
		c1.499-0.751,2.145-2.575,3.752-3.217c0.536-0.108,1.285-0.32,1.5,0.107c0.035,0.069,0.06,0.156,0.073,0.25
		c-0.129,0.392-0.18,0.66-0.18,0.66l-0.492,0.327c0,0-0.137,1.171-0.17,2.635c-1.431,0.821-3.132,1.275-4.803,1.275
		c1.393,0.428,2.892,0,4.285-0.215C16.717,15.336,16.183,15.658,15.541,15.767 M15.892,19.091l-0.181,0.15l-0.126,0.103l-0.51,0.414
		l-0.183,0.148l-0.924,0.754l0.083,1.369c-0.285,0.068-0.563,0.128-0.785,0.17l-0.958-1.518l1.239-1.396
		c0.33-0.19,0.695-0.549,0.893-0.729c0.176-0.232,0.378-0.539,0.562-0.539c0.642-0.215,1.268,0.125,1.913,0.018
		C16.578,18.417,16.271,18.748,15.892,19.091 M13.808,23.059c0.091-0.012,0.19-0.025,0.302-0.039l0.035,0.572L13.808,23.059z
		 M15.253,31.918l-3.177-6.468l0.318,7.181l-1.02-1.633l-1.479-2.369v-5.286l0.041-0.052l0.691-0.811l1.341-1.57l0.041,0.066
		L12.022,21l0.806,1.275l0.521,0.83l1.117,1.771l-0.05-1.899l-0.028-1.035l-0.028-0.996l2.357-2.001l0.006,1.852l0.004,1.258
		l0.024,7.717L15.253,31.918z M9.425,27.723l-1.349-2.272l1.322-1.493L9.425,27.723z M5.93,22.627l0.015-3.588l0.059-0.049v-0.007
		c1.819-2.147,4.926-2.573,7.607-2.147c-1.931,0-3.965,0.751-4.823,2.466c-0.028,0.057-0.055,0.109-0.087,0.161l-0.985,1.129
		l-0.313,0.355l-0.011,0.013l-0.087,0.098L5.93,22.627z M5.389,23.974l0.101-0.166l-0.056,0.159
		C5.417,23.967,5.403,23.971,5.389,23.974 M8.502,32.881l-2.964-5.36l-0.249,0.25v4.506l-2.574,4.07V21.053l0.299-0.331l1.354-1.499
		l0.713-0.793l0.242-0.271v5.932l0.107-0.125l0.004-0.003l1.954-2.229l0.311-0.355l0.777-0.885l1.42-1.619l1.16-0.365l2.211-0.691
		l1.2-0.375l-0.356,0.399l-1.458,1.619l-0.128,0.146l-2.668,2.958l-1.182,1.317l-1.313,1.46l5.25,8.825L8.502,32.881z M24.991,5.36
		l0.69,0.764L25.9,6.367h-0.004c0,0-0.51,0.941-0.517,2.286c-0.008,1.535,0.488,3.501,0.488,3.501h0.005l-0.959,0.89l0.08-7.473
		V5.367L24.991,5.36z M19.667,13.207l0.441-0.066c0,0,0.254-0.027,0.663,0.143c0.744,0.306,1.859,0.893,1.859,0.893
		s0.138,0.08,0.267,0.106c0.184,0.042,0.375,0.035,0.375,0.035s-0.239,0.122-0.5,0.18c-0.275,0.06-0.574,0.053-0.574,0.053
		s-0.555-0.019-1.069-0.233c-0.513-0.211-1.195-0.743-1.305-0.876C19.727,13.325,19.667,13.207,19.667,13.207 M20.998,23.176
		l-0.91,1.264l0.003-2.098C20.317,22.579,20.584,22.807,20.998,23.176 M20.002,20.925c-0.493-0.628-0.786-1.086-0.786-1.086
		s-0.535-2.231-0.75-4.252c-0.114-1.102-0.076-2.344-0.038-3.057l0.697,0.862c0,0,0.066,0.218,0.449,0.604
		c0.35,0.354,0.84,0.625,0.84,0.625s0.372,0.293,0.857,0.396c0.42,0.09,1.374,0.014,1.785-0.146c0.514-0.194,1.055-0.57,1.055-0.57
		v-0.002l0.105-0.033c0,0,0.041,0.543,0.1,1.237c0.08,0.934,0.143,2.112,0.143,2.112v-0.003c0.041,0.882,0.064,2.025,0.006,3.015
		c-0.049,0.851-0.128,1.609-0.193,2.144c-0.06,0.479-0.101,0.777-0.268,0.928c-0.104,0.093-0.209,0.123-0.25,0.145
		c-0.032,0.014-0.174-0.041-0.374-0.139c-0.313-0.152-0.776-0.412-1.202-0.708c-0.261-0.177-0.51-0.365-0.702-0.546
		C20.804,21.813,20.203,21.147,20.002,20.925 M29.646,8.298c1.183,1.271,1.633,3.359,1.729,3.88
		c-0.059,0.034-0.121,0.076-0.174,0.118c-0.104,0.083-0.121,0.176-0.121,0.176l-0.121,0.153c-0.094-0.055-0.322-0.18-0.563-0.184
		c-0.438-0.011-0.927,0.177-0.927,0.177l-2.357,1.108l-1.038,0.25l-0.212,0.011c-0.073-0.083-0.194-0.216-0.323-0.34
		c-0.167-0.164-0.34-0.313-0.34-0.313l-0.444,0.011l-0.357,0.273l-0.348,0.295c-0.083,0.013-0.278,0.042-0.476,0.045
		c-0.101,0.003-0.574-0.07-0.997-0.258c-0.407-0.18-0.898-0.496-1.038-0.582c-0.021-0.011-0.551-0.295-0.732-0.376
		c-0.262-0.111-0.659-0.229-0.659-0.229s-0.295-0.093-0.539-0.107c-0.173-0.011-0.506,0.094-0.552,0.193
		c-0.045,0.098,0.052,0.252,0.052,0.252v0.007l-0.063-0.042l-0.464-0.49l-0.042-0.046l-0.087-0.142l-0.011-0.014
		c0.007-0.069,0.017-0.163,0.041-0.289c0.074-0.344,0.226-0.868,0.411-1.362c0.035-0.097,0.074-0.194,0.108-0.285
		c0.329-0.805,0.965-1.5,0.965-1.5s0.209-0.247,0.559-0.567c0.357-0.344,0.747-0.622,1.132-0.844
		c0.094-0.055,0.188-0.108,0.285-0.16c0.198-0.101,0.635-0.327,1.045-0.476c0.208-0.073,0.413-0.122,0.569-0.156
		c0.094-0.021,0.171-0.035,0.219-0.049c0.019-0.006,0.031-0.003,0.042,0c0.004,0,0.007,0,0.007,0l0.087-0.09
		c0.003,0.048,0.01,0.101,0.021,0.153c0.028,0.125,0.063,0.254,0.097,0.39c0.118,0.423,0.258,0.951,0.297,1.907
		c-0.033,0.521-0.074,0.972-0.123,1.361c-0.181,1.508-0.431,2.071-0.431,2.071l1.143,0.961l1.073-0.884l0.104-0.081l0.046-0.035
		l-0.056-0.011l0.056,0.007c0,0-0.32-1.035-0.476-2.227c-0.06-0.424-0.094-0.869-0.087-1.289c0-0.003,0-0.007,0-0.01
		c0.021-1.011,0.416-1.872,0.593-2.209c0-0.003,0-0.003,0.005-0.007c0.065,0.014,0.143,0.032,0.217,0.056
		c0.047,0.014,0.092,0.028,0.144,0.045C27.316,6.77,28.706,7.281,29.646,8.298 M26.557,14.3l0.039-0.018
		c0,0,0.002,0.008,0.013,0.016c0.098-0.004,0.33-0.022,0.573-0.087c0.277-0.077,0.583-0.269,0.684-0.331
		c0.15-0.094,0.851-0.452,1.406-0.654c0.43-0.152,0.72-0.106,0.768-0.087c0.104,0.039,0.143,0.143,0.143,0.143
		s-0.622,0.656-1.229,0.982c-0.635,0.336-1.253,0.336-1.253,0.336s-0.403,0.04-0.682-0.044c-0.228-0.066-0.371-0.212-0.409-0.259
		C26.578,14.3,26.557,14.3,26.557,14.3 M27.925,24.489l-1.375,0.223c0.065-0.049,0.136-0.102,0.211-0.157
		c0.011-0.007,0.019-0.013,0.029-0.021c0.12-0.09,0.25-0.188,0.381-0.295l0.465-0.091v-0.284c0.049-0.038,0.098-0.08,0.146-0.121
		c0.046-0.039,0.091-0.074,0.136-0.113l0.004,0.678v0.047l0.004,0.121V24.489z M30.414,20.966l-0.018,1.661l-0.25,0.055
		l-0.046-1.322C30.223,21.213,30.327,21.079,30.414,20.966 M31.396,12.495c0,0.185-0.006,0.848-0.064,1.771
		c-0.018,0.324-0.039,0.667-0.066,1.021c-0.011,0.254-0.018,0.515-0.041,0.776c-0.108,1.187-0.255,2.39-0.345,3.046
		c-0.014,0.107-0.027,0.198-0.038,0.274c-0.011,0.087-0.021,0.15-0.03,0.188c-0.005,0.025-0.008,0.038-0.008,0.044
		c-0.018,0.039-0.156,0.248-0.379,0.539c-0.102,0.135-0.218,0.285-0.347,0.449c-0.139,0.171-0.288,0.351-0.448,0.535
		c-0.037,0.049-0.08,0.101-0.121,0.148c-0.049,0.067-0.101,0.129-0.153,0.191c-0.023,0.032-0.049,0.06-0.072,0.091
		c-0.295,0.357-0.61,0.726-0.921,1.06c-0.037,0.042-0.077,0.079-0.113,0.12c-0.115,0.12-0.227,0.233-0.337,0.341
		c-0.057,0.057-0.112,0.111-0.171,0.164c-0.034,0.034-0.069,0.066-0.104,0.101c-0.435,0.409-0.815,0.722-1.058,0.913
		c-0.018,0.015-0.033,0.024-0.049,0.039c-0.059,0.027-0.158,0.065-0.268,0.111c-0.063,0.023-0.129,0.048-0.197,0.072
		c-0.237,0.088-0.497,0.166-0.65,0.174c-0.243,0.017-0.45-0.027-0.45-0.031c-0.06-0.069-0.077-0.201-0.081-0.383
		c-0.003-0.034-0.003-0.064-0.003-0.104c-0.008-0.639,0.049-1.857,0.051-3.251c0.012-2.285,0.018-5.235,0.018-5.235l0,0
		c0.025-0.701-0.018-2.038-0.018-2.038s0.084-0.014,0.198,0.038c0.077,0.035,0.195,0.142,0.195,0.142s0.219,0.215,0.298,0.289
		c0.004,0.002,0.004,0.002,0.008,0.007c0.055,0.052,0.138,0.125,0.236,0.208c0.135,0.111,0.309,0.243,0.497,0.354
		c0.158,0.098,0.46,0.198,0.795,0.274c0.308,0.069,0.641,0.122,0.909,0.128c0.094,0,0.184,0,0.257-0.01
		c0.037-0.006,0.079-0.01,0.121-0.017c0.007,0,0.013,0,0.021-0.003c0.155-0.021,0.329-0.057,0.521-0.139
		c0.347-0.156,0.707-0.382,0.938-0.593c0.434-0.408,0.903-1.032,0.903-1.032s0.146-0.15,0.199-0.295
		c0.005-0.007,0.012-0.018,0.012-0.028c0.004-0.006,0.004-0.013,0.007-0.021l0.26-0.369c0,0,0.018-0.017,0.038-0.03
		c0.015-0.011,0.031-0.021,0.049-0.028C31.396,12.495,31.396,12.495,31.396,12.495 M33.271,18.087l-0.008,0.618l-0.193,0.302
		l-0.022,0.032l-0.134,0.215l-1.327,2.084l-0.01-1.319l1.337-0.82v-0.062l-0.015-0.449l-1.556,0.979
		c0.005-0.007,0.005-0.017,0.008-0.027c0.003-0.035,0.014-0.093,0.023-0.166c0-0.011,0.004-0.025,0.004-0.035
		c0.014-0.081,0.028-0.178,0.045-0.289L33.271,18.087z M2.247,23.797c-0.139-0.035-0.257-0.07-0.324-0.094
		c-0.25-0.098-0.461-0.201-0.461-0.201s0.405-0.121,0.785-0.271V23.797z M45.187,19.688l0.011-0.014l-0.083-0.066
		c0,0-2.177,0.678-4.303,1.667l-0.729-2.295l-1.77-0.359l0.857-4.88l-1.053-1.696l-0.767-0.124l-1.447,1.177l-0.698,5.093
		l-1.445-0.268l-0.058,0.094v-0.591l-2.223,1.323c0.09-0.639,0.204-1.535,0.292-2.449c0.208-2.167,0.323-4.501,0.323-4.501
		l-0.375-0.164c0,0-0.601-2.42-2.091-3.91c-0.367-0.368-0.802-0.664-1.243-0.897c0.185-0.271,0.67-0.986,0.938-1.608
		c0.376-0.858,0.358-1.712,0.358-1.712s-0.014-0.831-0.251-1.539c-0.076-0.229-0.207-0.667-0.5-0.962
		c-0.409-0.42-1.041-0.685-1.431-0.824C27.076,0.028,26.65,0.003,26.425,0h-0.046c-0.079,0-0.128,0.003-0.128,0.003
		s-0.718-0.01-1.249,0.107c-0.574,0.132-1.063,0.334-1.063,0.334l-0.973-0.226c0,0-0.451-0.142-0.891-0.142
		c-0.417,0-0.824,0.142-0.824,0.142s-0.708,0.257-1.108,0.5c-0.419,0.257-0.898,0.65-1.319,1.074
		c-0.437,0.434-0.93,1.142-0.93,1.142s-0.569,0.529-1.035,0.928c-0.25,0.215-1.681,0.858-1.681,0.858s-0.478,0.164-1.041,0.14
		c-0.587-0.024-1.157-0.16-1.157-0.16s0.164,0.573,0.34,0.879c0.175,0.295,0.539,0.538,0.539,0.538l0.677,0.393
		c0,0-0.413-0.09-0.857-0.073c-0.514,0.021-1.069,0.143-1.069,0.143s-0.661,0.16-1.146,0.393c-0.398,0.194-1.002,0.625-1.25,0.823
		c-0.285,0.229-0.461,0.5-0.461,0.5S9.627,8.486,9.478,8.719C9.25,9.069,8.965,9.511,8.965,9.511s0.531-0.195,1.038-0.216
		c0.41-0.014,1.19,0.121,1.392,0.323c0.286,0.281,0.428,0.82,0.428,0.82s0.094,0.563-0.462,1.181
		c-0.472,0.517-1.297,1.035-1.297,1.035S9.36,13.14,8.715,13.262c-0.472,0.091-0.917-0.038-0.948-0.055
		c-0.208-0.104-0.586-0.41-0.586-0.41S7.128,13.533,7.5,14.085c0.299,0.435,0.948,0.737,0.948,0.737l0.448,0.122
		c0,0,0.037,0.098-0.289,0.177c-0.385,0.098-1.142,0.177-1.142,0.177s-0.486,0.052-0.927,0.25c-0.576,0.261-1.143,0.682-1.143,0.682
		s-0.372,0.318-0.645,0.676c-0.296,0.394-0.5,0.824-0.5,0.824s-0.275,0.389-0.428,0.786c-0.059,0.156-0.225,0.614-0.419,1.145
		l-1.149,1.306L2.25,22.252c-0.223,0.232-0.528,0.506-0.82,0.659c-0.273,0.143-0.53,0.181-0.656,0.198
		C0.309,23.182,0,23.054,0,23.054s1.093,1.035,1.5,1.178c0.146,0.052,0.428,0.142,0.743,0.239L2.214,37.135l0.393,0.179l3.181-4.717
		l-0.052-3.859l2.41,4.644l4.571,1.396l0.715-0.323l-0.441-0.74l-0.239-5.693l2.392,4.934l1.695-2.439l0.122,3.287l-0.011,0.955
		l3.124-3.412l0.004-1.354c0.031,0.059,0.065,0.117,0.104,0.177c0.25,0.361,0.84,0.625,0.84,0.625s0.732,0.292,1.552,0.125
		c0.652-0.135,1.517-0.732,1.517-0.732l-0.143,1.268l2.607,2.519l0.51-0.222l-0.01-7.668l0.056-0.006l0.063,7.638l0.506-0.188
		l2.448-2.34v-5.575l0.285-0.035l-0.035,8.485l0.393,0.284l2.767-2.723l0.107-6.996l0.99-1.424l-1.68,13.534l0.271,2.733
		l0.854,0.106l1.34-2.625l0.573-3.536c1.836-0.698,6.819-2.782,8.208-5.214c2.545-4.423-3.267-3.808-3.267-3.808l1.874-0.75
		L45.187,19.688z M29.737,19.57l0.021,0.055l0.087,0.213l0.023-0.254l0.459-4.461l-0.59,0.376V19.57z M39.518,25.038l0.148,0.448
		c0,0,1.545-0.184,2.694-0.073c0.712,0.069,1.23,0.338,1.34,0.417c0.178,0.132,0.327,0.25,0.424,0.33
		c-0.042-0.313-0.193-0.591-0.318-0.691c-0.403-0.319-1.088-0.406-1.451-0.427l0,0l-0.199-0.004c0,0-0.61-0.018-1.194,0
		c-0.683,0.021-1.287,0.084-1.287,0.084S39.586,25.083,39.518,25.038 M42.187,26.591c0.018,0.086,0.015,0.235-0.059,0.389
		c-0.003,0.004-0.006,0.01-0.01,0.018c-0.125,0.245-0.338,0.534-0.553,0.694c-0.492,0.379-1.113,0.642-1.113,0.642l0,0
		c-0.179,0.081-0.519,0.237-0.852,0.383c-0.559,0.243-1.161,0.504-1.161,0.504l-1.818,3.109c0,0,0.275-0.035,0.771-0.233
		l1.383-2.465c0,0,2.051-0.693,3.069-1.484c0.871-0.674,0.749-1.269,0.749-1.269L42.187,26.591z M31.143,24.736v0.523H31.14
		l0.007,7.66l0.41-0.396l-0.052-7.86L31.143,24.736z M32.951,23.592l0.466,0.049l0.444-0.639l-0.879,0.128L32.951,23.592z
		 M27.862,32.312l0.34-0.33l0.018-6.764l-0.421,0.084L27.862,32.312z M25.414,27.969l-0.396,0.282l-0.259,2.861l1.107,1.073
		l0.423,0.396l0.003-0.286l-1.197-1.201L25.414,27.969z M25.14,25.996c-0.135,0.182-0.659,0.879-1.152,1.384
		c-0.78,0.742-1.066,0.948-1.148,1l0,0c-0.021,0.015-0.032,0.018-0.032,0.018l0,0c-0.091,0.048-0.368,0.191-0.563,0.136
		c-0.063-0.019-0.112-0.057-0.15-0.098c-0.02-0.025-0.042-0.049-0.059-0.073c-0.002-0.004-0.007-0.006-0.01-0.014
		c-0.021-0.027-0.038-0.056-0.06-0.091v0.053c0,0,0.05,0.378,0.215,0.534c0.18,0.168,0.518,0.053,0.518,0.053
		s0.517-0.236,1.107-0.785c0.879-0.816,1.716-2.035,1.716-2.035L25.14,25.996z M17.432,20.696l0.011,0.982l0.132,11.168
		l-0.004,0.007l0.396-0.417l-0.139-10.924l-0.003-0.262l0.295,0.156l1.204,0.654v-0.365l-0.76-0.399L17.432,20.696z M14.645,21.053
		l0.03,0.799l0.039,1.074l0.111,2.918l-0.038-0.057l0,0l0.43,0.647l-0.138-3.583l-0.042-1.143l-0.018-0.389l1.451-1.215
		l-0.003-0.553L14.645,21.053z M12.048,24.577l3.24,6.68l0.002-0.018l0.207-0.271l-3.063-6.305L12.048,24.577z M10.609,28.362
		l0.018-4.77l0.156-0.188l0.861-1.014l0.518-0.607l-0.268-0.406l-0.902,1.072l-0.813,0.963h-0.004v0.03l0.06,5.087l1.841,3.031
		l-0.035-0.788L10.609,28.362z M5.586,26.976l2.538,4.554l0.61,1.067l0.12,0.045l0.298,0.097l-3.205-6.093L5.586,26.976z
		 M6.628,23.666l0.879-0.993l0.513-0.583l2.268-2.571l2.611-0.74l0.568-0.618l-3.204,0.938L9.93,19.195l-0.549,0.643l-1.537,1.795
		l-0.406,0.48l-1.491,1.74l-0.77,0.899l-0.139,0.158v0.557l0.735-0.837L6.628,23.666z M4.85,19.216l-0.84,0.903l-0.972,1.046
		l-0.003,1.088l-0.003,1.732l-0.004,0.709L3.003,35.301v0.028v0.018l0.063-0.104l0.226-0.375l0.139-0.229l0.041-9.852l0.003-0.713
		l0.01-2.521l1.372-1.688l0.149-0.184v-0.004l-0.003-0.622L4.85,19.216z"/>
	<path fill-rule="evenodd" clip-rule="evenodd" fill="#27A349" d="M22.897,14.283c-0.129-0.027-0.267-0.106-0.267-0.106
		s-1.115-0.587-1.859-0.893c-0.409-0.17-0.663-0.143-0.663-0.143l-0.441,0.066c0,0,0.059,0.118,0.158,0.235
		c0.11,0.133,0.792,0.665,1.305,0.876c0.514,0.215,1.069,0.233,1.069,0.233s0.299,0.006,0.574-0.056
		c0.261-0.056,0.5-0.178,0.5-0.178S23.081,14.325,22.897,14.283 M26.557,14.3c0,0,0.021,0,0.052-0.002
		c-0.011-0.008-0.013-0.016-0.013-0.016L26.557,14.3z M30.039,13.14c-0.048-0.02-0.338-0.065-0.768,0.087
		c-0.556,0.202-1.256,0.56-1.406,0.654c-0.101,0.062-0.406,0.253-0.684,0.331c-0.243,0.065-0.476,0.083-0.573,0.087
		c0.038,0.047,0.182,0.193,0.409,0.259c0.278,0.084,0.682,0.044,0.682,0.044s0.618,0,1.253-0.336
		c0.607-0.326,1.229-0.982,1.229-0.982S30.143,13.179,30.039,13.14L30.039,13.14z"/>
</g>
</svg>
