<svg version="1.1" baseProfile="basic" id="Layer_1" xmlns="http://www.w3.org/2000/svg"
	xmlns:xlink="http://www.w3.org/1999/xlink" x="0px" y="0px" viewBox="-376.902 420.289 800 800" xml:space="preserve">
	<g>
		<path fill="#010101" d="M-268.886,808.07l-2.528,2.707L-268.886,808.07z M-26.516,1004.178l-33.819,32.895l-13.595-51.141
		l-24.874,35.617l-52.713-107.322l8.88,144.674l-68.188-21.375l-12.315-22.297l-36.979-57.104l-6.806,73.763l-35.147,46.572
		l0.47-184.439l-31.34-12.268l31.404-12.623l0.049-25.992l32.604-35.033l5.299,83.615l75.885-86.549l65.904-20.645l76.453-1.215
		l5.915,40.057l246.77-21.195l115.215,51.012l60.021-26.057l-17.987,33.35l-19.122,21.162l-27.742,15.848l58.499,12.138
		l9.464,18.685L370,965.222l-30.173,26.315l-93.176,46.686l-17.08,65.126l-17.24,37.335l-6.515-1.135l31.89-261.539l-17.079-11.83
		l-21.876,32.053l-1.166,111.098l-32.637,28.844l-3.014-129.279l-20.678,2.366l-1.264,94.521l-29.557,22.314l-6.027-111.261
		l-13.547,4.829l-1.395,120.237l-31.371-30.026l-5.51-25.166l-41.492,13.838l-29.622-17.436L-26.516,1004.178z M-193.973,882.368
		l-29.622,31.55l30.805,45.049L-193.973,882.368z M194.246,801.832l-0.227,0.178L194.246,801.832z M20.737,605.871
		c26.146-10.322,38.59-29.573,63.643-11.311c1.588,3.078,13.936,5.201,16.918,6.287c1.328-0.032,8.556,0.713,9.301,0.356
		c24.891-16.026,29.914-54.188,21.001-79.077c-7.13-21.391-41.548-26.867-62.841-21.553c-38.275,12.785,7.26,4.246-45.948-2.43
		c-44.481-3.501-62.711,42.715-94.715,67.621c-10.663,7.146-20.855,14.567-35.083,9.22c-1.783,0-10.646,4.035-8.864,5.833
		c9.965,8.881-2.058,16.772,22.621,19.592c-33.786,1.734-63.554,0-88.428,28.455c14.228,3.517,31.048,3.354,38.146,17.582
		c3.565,10.728,5.493,15.232,1.944,25.879c-5.007,13.255-24.647,27.029-41.175,33.851c-18.878,7.907-31.469,17.388-30.416,18.312
		c2.463,1.555-4.732-1.135,17.161,9.447c10.111,4.894,21.584,4.894,32.587,7.146c-19.575,0-40.884,5.314-58.692,12.477
		c-18.83,0-37.74,24.145-49.132,36.752l-0.405,0.988c2.9-3.338,12.737,13.726,17.744,12.105c8.475-2.82,17.517-16.627,31.324-24.08
		c13.871-7.503,32.506-8.605,55.727-17.129c18.667-2.35,50.396,4.846,77.652,0c21.908-3.921,49.569-16.123,32.166-40.462
		c0.778-33.899,17.728-26.284,25.603-50.429c35.714-23.529,44.951,6.628,4.894-42.31c0.356-0.228,0.762-0.503,1.086-0.811
		c1.863-2.235,3.856-4.31,6.06-6.271C-11.673,614.979,12.375,610.246,20.737,605.871L20.737,605.871z M-203.145,812.203
		c14.228-28.439,49.262-41.03,81.298-41.03c-7.033-1.15-14.94-7.373-36.12-5.784c-37.886,2.965-97.729,23.82-97.729,47.284
		l-4.1,57.591l14.292,0.811c4.311,0.227,10.711-25.085,14.811-29.752C-222.736,832.28-208.33,822.654-203.145,812.203
		L-203.145,812.203z M-126.87,869.064h14.47v15.557h-14.47V869.064z M13.85,933.672h22.045v15.572H13.85V933.672z M145.567,832.053
		h14.455v38.502h-14.455V832.053z M201.668,841.906h27.386v19.412h-27.386V841.906z M254.462,937.576h14.52l65.628,4.214
		l-47.382,28.601l-30.982,45.292l-8.523-1.491L254.462,937.576z M272.255,846.281l18.635,3.564l9.917,17.89l-30.27,23.173
		L272.255,846.281z M-19.321,858.791h16.01v40.301h-16.01V858.791z" />
		<polygon fill="#27A349" points="243.897,825.361 274.134,834.76 249.503,993.742 231.257,1106.363 212.331,1140.684 
		206.561,1133.603 	" />
		<path fill="#A6A5A3" d="M-11.3,626.742c4.213-3.791,9.674-8.248,15.945-12.267C-0.816,617.862-6.228,621.897-11.3,626.742
		 M124.048,859.066c-2.397,2.188-4.861,4.326-7.227,6.336c-1.912,1.555-3.792,3.078-5.574,4.504c-1.07,0.876-2.204,1.67-3.307,2.464
		c-0.389,0.356-0.81,0.632-1.264,1.005c-11.277,8.394-19.963,13.304-19.963,13.304l-0.52-0.049l-7.777-0.875
		c0,0-0.26-0.567-0.682-1.685c-3.727-9.334-20.255-58.531-1.717-152.484c0.26-1.395,0.713-2.107,1.296-2.301
		c-1.653-1.395-3.014-2.626-3.921-3.469c-0.064-0.064-0.064-0.064-0.13-0.113c-1.329-1.215-4.958-4.797-4.958-4.797
		s-1.945-1.766-3.242-2.35c-1.879-0.875-3.272-0.631-3.272-0.631s0.713,22.184,0.292,33.818l0,0c0,0-0.098,48.873-0.292,86.855
		c-0.032,23.141-0.973,43.363-0.843,53.961c0,0.648,0,1.135,0,1.718c0.129,3.015,0.389,5.186,1.394,6.353
		c0,0.064,3.436,0.811,7.454,0.519c2.561-0.13,6.871-1.427,10.792-2.885c1.134-0.405,2.236-0.81,3.273-1.199
		c1.815-0.761,3.468-1.394,4.44-1.847c0.259-0.244,0.518-0.389,0.81-0.648c4.019-3.16,10.339-8.361,17.565-15.135
		c0.584-0.584,1.167-1.102,1.719-1.686c0.972-0.875,1.912-1.783,2.852-2.723c1.814-1.782,3.662-3.662,5.574-5.655
		c0.615-0.681,1.264-1.296,1.88-1.993c5.153-5.542,10.403-11.65,15.297-17.598c0.389-0.502,0.81-0.973,1.199-1.491
		c0.875-1.054,1.718-2.074,2.528-3.176c0.68-0.811,1.393-1.653,2.009-2.464c-1.426,1.686-2.981,3.404-4.537,5.121
		C131.599,851.758,127.807,855.615,124.048,859.066 M163.262,706.339c-0.064,0.13-0.064,0.228-0.129,0.356
		c0,0.178-0.098,0.34-0.195,0.454c2.432-3.273,4.279-5.931,5.251-7.422c-0.356,0.21-0.616,0.438-0.616,0.438L163.262,706.339z
		 M61.499,708.365l15.913-14.764h-0.065c0,0-8.231-32.635-8.102-58.044c0.129-22.362,8.588-37.983,8.588-37.983h0.033l-3.631-4.035
		l-11.439-12.688l0.032,0.129v3.404L61.499,708.365z M72.453,635.834c0,0.064,0,0.113,0,0.178c0-0.113,0-0.227,0.065-0.357
		C72.453,635.736,72.453,635.785,72.453,635.834 M72.453,636.254c-0.032,6.92,0.519,14.115,1.458,20.985
		C73.036,650.142,72.518,642.817,72.453,636.254 M72.453,636.254c0-0.048,0-0.113,0-0.242c0,0.064,0,0.064,0,0.129
		C72.453,636.141,72.453,636.206,72.453,636.254 M30.419,862.777v2.819l-1.783,3.565c0,0-0.518-1.491-1.296-4.035
		c-2.333-7.211-6.878-23.173-8.515-40.431c-2.642-28.876-0.438-61.351-0.438-61.351l12.907,3.501L30.419,862.777z M1.939,847.771
		l-3.565-8.863c0,0-4.845-22.994-6.223-45.357c-1.264-21.13,0.583-41.791,0.583-41.791l9.204,5.299V847.771z M-20.277,822.881
		l-6.239-18.667c0,0-2.706-11.765-3.208-24.614c-0.745-17.177,0.519-37.336,0.519-37.336l10.695,5.04L-20.277,822.881z
		 M53.98,784.218c0,0-1.037-19.542-2.366-35.05c-1.004-11.521-1.686-20.531-1.686-20.531l-1.717,0.551v0.016
		c0,0-8.978,6.239-17.502,9.529c-6.838,2.592-22.645,3.84-29.629,2.35c-8.07-1.702-14.228-6.563-14.228-6.563
		s-8.134-4.489-13.936-10.371c-6.336-6.4-7.454-10.03-7.454-10.03l-11.554-14.293c-0.632,11.83-1.264,32.441,0.616,50.721
		C-41.894,784.088-33.03,821.1-33.03,821.1s4.845,7.6,13.045,18.02c3.338,3.693,13.32,14.746,24.485,25.311
		c3.16,2.998,7.308,6.125,11.651,9.059c7.073,4.91,14.754,9.221,19.94,11.748c3.305,1.621,5.672,2.527,6.189,2.301
		c0.682-0.355,2.432-0.858,4.148-2.398c2.787-2.495,3.468-7.438,4.473-15.394c1.069-8.88,2.398-21.455,3.176-35.585
		c1.005-16.432,0.584-35.375-0.097-50.039V784.218 M46.817,606.293c-0.583-2.253-1.134-4.393-1.62-6.482
		c-0.194-0.859-0.292-1.717-0.356-2.527l-1.426,1.49c0,0-0.064,0-0.13,0c0.228,0.098,0.356,0.227,0.356,0.227
		S45.165,601.836,46.817,606.293 M165.823,695.887c0.875-0.632,1.912-1.328,2.885-1.896c-1.588-8.638-9.074-43.298-28.682-64.38
		c-15.589-16.886-38.632-25.36-51.66-29.055c8.199,2.771,20.936,8.021,30.367,16.609c12.898,11.699,18.668,34.823,18.246,41.5
		c-0.162,2.818-0.615,6.416-1.426,10.775c-1.329,6.968-14.324,15.67-26.899,20.629c-13.515,5.379-26.089,4.73-26.089,4.73h-1.523
		l-1.718,1.361l-17.792,14.649l-18.96-15.945c0,0,4.148-9.334,7.13-34.354c-0.453,3.273-0.907,6.741-1.49,9.966
		c-2.366,13.142-5.932,23.739-5.932,23.739s-14.52-2.171-26.664-5.915c-7.665-2.381-14.341-5.525-16.042-7.097
		c-4.294-3.922-7.665-10.096-7.665-10.096s-4.343-6.336-3.986-12.737c0.34-6.287,1.377-13.385,1.912-16.723
		c0.162-1.199,0.259-2.01,0.259-2.01s-7.163,3.209-16.739,16.141c-0.114,0.162-0.292,0.291-0.405,0.518
		c-1.361,1.783-4.91,5.251-6.012,7.601c-8.054,17.582-8.799,33.251-8.799,33.251l-1.669-0.68l7.697,8.118l1.053,0.647v-0.031
		c0,0-1.621-2.561-0.859-4.182c0.746-1.668,6.288-3.402,9.156-3.208c4.051,0.228,8.945,1.782,8.945,1.782s6.579,1.961,10.938,3.792
		c3.014,1.345,11.813,6.061,12.137,6.239c2.317,1.426,10.468,6.66,17.225,9.657c7.008,3.128,14.883,4.327,16.537,4.278
		c3.273-0.049,6.547-0.535,7.907-0.746l5.77-4.893l5.931-4.521l7.356-0.195c0,0,2.885,2.464,5.64,5.186
		c2.14,2.074,4.148,4.262,5.38,5.656l3.5-0.179l17.242-4.148l39.117-18.392c0,0,8.102-3.128,15.361-2.934
		c3.986,0.113,7.779,2.107,9.334,3.047l2.01-2.527C163.813,698.885,164.137,697.329,165.823,695.887 M98.737,739.721
		c4.407,1.215,9.658,2.105,15.102,2.105C109.367,741.729,103.857,740.854,98.737,739.721 M166.893,745.586
		c0.453-5.865,0.81-11.57,1.102-16.949c-0.26,2.819-0.422,5.785-0.713,8.896C167.12,740.125,166.99,742.832,166.893,745.586
		L166.893,745.586z" />
		<path fill="#CFD2D2" d="M-44.26,695.725l0.697,0.762l1.669,0.681c0,0,0.746-15.669,8.799-33.251
		c1.086-2.366,4.651-5.802,6.012-7.648c0.113-0.195,0.275-0.309,0.405-0.471c9.561-12.914,16.739-16.074,16.739-16.074
		c0-0.082-0.097,0.745-0.275,1.961c-0.519,3.338-1.572,10.402-1.896,16.707c-0.356,6.4,3.97,12.736,3.97,12.736
		s3.387,6.174,7.681,10.096c1.717,1.555,8.377,4.73,16.042,7.097c12.146,3.728,26.665,5.931,26.665,5.931s3.598-10.598,5.931-23.756
		c0.584-3.208,1.037-6.676,1.491-9.965c0.81-6.466,1.491-13.953,2.042-22.59c-0.648-15.863-2.949-24.614-4.926-31.646
		c-1.653-4.44-3.145-7.26-3.145-7.26s-0.129-0.113-0.356-0.227c-0.162-0.065-0.389-0.098-0.681,0
		c-0.811,0.227-2.074,0.453-3.629,0.81c-2.594,0.583-5.996,1.378-9.464,2.593c-6.814,2.463-14.058,6.223-17.331,7.892
		c-1.604,0.858-3.176,1.733-4.731,2.657c-7.535,4.44-13.952,9.609-18.781,14.001c-5.817,5.299-9.285,9.415-9.285,9.415
		s-10.549,11.505-16.01,24.89c-0.632,1.507-1.199,3.111-1.783,4.731c-3.079,8.199-5.574,16.885-6.822,22.59
		c-0.405,2.074-0.567,3.629-0.681,4.797l0.178,0.227L-44.26,695.725z M257.509,910.207l-3.014,18.084l-16.756,102.883l-1.426,8.978
		l-1.686,10.226l-0.13,0.566l-2.397,15.103l-6.094,37.465l-15.103,34.694l0.065-0.795l42.553-300.301l3.791,0.47l11.732,1.313
		l-0.032,0.421l-1.718,10.695l-6.093,37.254l-3.662,22.297L257.509,910.207z M208.182,1136.908l-1.135-35.342l15.395-139.132
		l14.098-127.95l0.129-0.94l-14.227-1.718l-15.07,9.625l-4.44,2.788l-3.468-0.373l-2.365-0.308l-0.52-0.033l-2.43-0.307l-6.385-0.73
		l6.385-10.338l2.592-4.1l0.13-0.211l2.885-4.618l7.583-12.234l5.315-8.571l9.853,1.264l17.339,2.123l1.264,0.178l9.788-87.439
		l3.564-4.148l17.598-14.244l1.07-0.924l-0.162,0.924l-4.278,30.318l1.329,1.313l8.588,8.945l6.028,6.238v7.714l0,0l-17.079-16.075
		l-0.973,6.855l1.199,1.264l10.111,10.079l3.241,3.241v7.081l-15.751-13.709l-1.102,7.6l2.074,2.058l11.797,11.766l1.75,1.781
		l-0.551,6.515l-16.043-14.989l-1.297,9.432l1.361,1.345l11.862,10.954l1.685,1.556v7.081l-15.945-13.773l-3.143,21.844l1.458,0.26
		l9.14,1.49l7,1.086l28.812,4.553l0.13,0.52l10.533,30.27l1.49,4.439l1.199,3.5l0.939,2.561l0.908,2.69l0.064,0.097l0.422,1.232
		l0.324,0.906h-0.228l-1.394-0.307l-1.88-0.373h-0.194l-4.246-0.875l-2.949-0.584l-2.463-0.518l-1.944-2.367l-8.005-9.625
		l-3.176-3.743l-0.162-0.308l-22.006-2.463l-16.723-1.88l-1.361-0.081l-42.618,300.561v0.146h-0.065L208.182,1136.908z
		 M260.1,920.578l0.584-3.289l0.291-1.621l0.162-1.264l1.33-7.843l1.393-8.135l2.723-16.172l6.255-37.433l17.761,1.799l9.106,11.57
		l3.144,4.002l0.746,1.005l0.744,0.065l4.148,0.469l0.778,0.033l1.944,0.194l10.662,1.085l4.895,0.52l-0.843-2.528l-1.978-5.833
		l-0.421-1.167l-0.032-0.162l-0.939-2.755l-1.005-2.949l-1.005-2.998l-12.186-36.152l-28.455-5.914l13.028-83.064l-18.376-25.473
		h-2.949l-21.293,17.176l-2.431,4.781l-10.015,82.432l-27.32-4.164l-3.209,5.314l-7.486,12.088l-3.078,5.089l-0.033,0.065
		l-2.561,4.115l-13.806,22.524l13.677,2.301l2.496,0.421l0.615,0.113l2.139,0.341l5.932,1.037l2.074-1.329l16.885-10.532l8.88,1.75
		l-2.723,22.962l-0.389,3.581l-27.062,230.2l2.917,42.684l6.515,1.134l17.24-37.351l8.945-53.459l0.162-0.939l1.814-11.182
		l2.528-14.811l14.908-89.125L260.1,920.578z M92.643,766.847l10.663-2.626l-7.13,104.001l-3.533-1.75V766.847z M128.165,752.619
		l-7.098,94.311l-1.75-2.69l-1.783-85.382L128.165,752.619z M141.55,749.119l9.787-6.239l-7.616,74.022l-0.39,4.213l-1.457-3.533
		l-0.324-0.923V749.119z M78.417,885.755l7.777,0.892l0.52,0.049c0,0,8.686-4.91,19.963-13.305c0.454-0.355,0.875-0.648,1.264-0.988
		c1.103-0.826,2.236-1.62,3.307-2.479c1.782-1.443,3.662-2.967,5.574-4.506c2.365-1.992,4.829-4.148,7.227-6.336
		c3.793-3.451,7.552-7.291,11.149-11.311c1.588-1.717,3.111-3.436,4.537-5.121c2.657-3.046,5.153-6.027,7.454-8.879
		c2.139-2.723,4.051-5.202,5.736-7.455c3.727-4.828,5.996-8.297,6.32-8.928c0-0.113,0.031-0.341,0.129-0.729
		c0.162-0.632,0.292-1.686,0.486-3.128c0.194-1.248,0.389-2.771,0.615-4.553c1.523-10.873,3.922-30.838,5.736-50.525
		c0.39-4.344,0.486-8.654,0.682-12.883c0.129-2.755,0.227-5.461,0.389-8.054c0.291-3.111,0.453-6.061,0.713-8.88
		c0.973-15.33,1.069-26.316,1.069-29.396c0,0,0,0-0.065,0c-0.291,0.114-0.551,0.292-0.81,0.454c-0.972,1.49-2.819,4.148-5.251,7.454
		c-0.875,2.414-3.305,4.894-3.305,4.894s-7.778,10.371-15.038,17.111c-3.759,3.484-9.755,7.26-15.491,9.854
		c-3.176,1.36-6.061,1.943-8.653,2.301c-0.162,0.049-0.259,0.049-0.356,0.049c-0.681,0.113-1.394,0.178-2.01,0.275
		c-1.199,0.162-2.689,0.162-4.246,0.162c-5.443,0-10.694-0.892-15.102-2.107c-5.542-1.264-10.565-2.933-13.191-4.553
		c-3.11-1.848-5.995-4.035-8.231-5.883c-0.583,0.227-1.036,0.908-1.296,2.301c-18.538,93.954-2.01,143.15,1.717,152.501
		C78.157,885.204,78.417,885.755,78.417,885.755 M81.819,694.186l-0.939-0.129l0.939,0.193l-0.777,0.584h1.523
		c0,0,12.542,0.615,26.089-4.732c12.542-4.958,25.57-13.676,26.899-20.645c0.777-4.375,1.264-7.956,1.426-10.775
		c0.389-6.692-5.348-29.801-18.278-41.5c-9.431-8.588-22.168-13.822-30.335-16.609c-0.875-0.275-1.686-0.502-2.398-0.745
		c-1.231-0.405-2.496-0.696-3.598-0.924c-0.097,0.065-0.097,0.065-0.097,0.113c-2.917,5.591-9.464,19.883-9.788,36.655
		c-0.032,0.162-0.032,0.307-0.032,0.469c0,6.611,0.583,13.937,1.427,21.082C76.471,677.009,81.819,694.186,81.819,694.186
		 M-154.515,1049.987l-45.519-14.827l-4.942-1.621l-2.285-0.744l-9.836-17.68l-42.116-75.562l-0.21-0.405l-10.096,11.83v73.552
		l-25.441,42.196l-2.317,3.792l-3.743,6.222l-1.053,1.719v-0.292v-0.47l0.405-175.997l0.065-11.765l0.048-28.746l0.049-18.053
		l16.124-17.354l13.952-14.989l2.528-2.689v0.031l0.048,10.34v0.064v1.523l0.421,70.667l0.097,12.332v2.235l2.301-2.625
		l12.785-14.908l24.744-28.876l6.725-7.972l25.506-29.785l9.123-10.662l5.525-1.62l53.151-15.573l-9.415,10.258l-12.753,13.871
		l-0.567,0.648l-47.495,51.692l-21.099,22.913l-16.479,18.02L-154.515,1049.987z M-207.973,888.234l19.624-21.859l44.271-49.068
		l2.123-2.43l24.193-26.867l5.898-6.611l-19.899,6.223l-36.687,11.456l-19.251,6.061l-23.561,26.867l-12.899,14.681l-5.153,5.883
		l-32.425,36.994l-0.048,0.049l-1.783,2.074V793.26l-4.035,4.505l-11.829,13.158l-22.459,24.857l-4.975,5.51v253.762l42.715-67.54
		v-74.768l4.132-4.148l49.181,88.947l68.188,21.373l-87.115-146.439L-207.973,888.234z M-94.769,1005.766l-3.436,4.504l-0.032,0.293
		l-53.767-110.84l-0.178-0.355l-4.148,1.199l4.213,101.99l0.583,13.061l-30.545-50.282l-1.004-84.409v-0.502h0.081l13.482-15.978
		l14.973-17.793l4.44,6.741l5.769,8.799l9.221,14.018l28.568,43.622l0.632,0.94l-1.847-48.42l-0.648-17.809l-0.486-13.255
		l30.237-24.89l0.065,9.171v14.05l0.113,21.341l0.389,122.668L-94.769,1005.766z M-74.384,837.012l-0.114-30.724l-39.101,33.187
		l0.47,16.529l0.454,17.176l0.827,31.518l-18.522-29.378l-8.653-13.774l-13.385-21.162l-0.227-0.389l-0.681-1.086l-22.249,26.04
		l-11.457,13.466l-0.681,0.859v87.715l24.534,39.313l16.934,27.094l-5.282-119.152l52.713,107.322l24.874-35.602l-0.389-128.047
		L-74.384,837.012z M199.01,869.745l0.259-17.241l-2.009-0.292l-0.778-0.098l-2.431-0.421l-0.098,24.273l1.426-0.242l14.584-2.123
		l-7.355,10.598l-8.945,12.802l-0.551,114.177l-21.357,20.385l-6.807,6.58l-0.129-127.109h0.064v-9.09l-30.043,5.072l0.356,96.967
		l-19.122,18.604l-5.639,5.477l-1.037-116.315v-0.454l-23.82,3.954l-1.199,112.556l-0.032,4.748v0.244l-7.033-6.807l-18.376-17.824
		l4.311-47.463l0.064-0.811c0,0-17.079,19.348-32.246,28.633c-10.201,6.287-20.231,3.938-20.637,3.809l0,0
		c0,0-11.019-1.734-18.667-12.915c-3.063-4.44-8.005-13.028-10.436-22.946c-0.454-1.83-0.859-3.791-1.134-5.703
		c-1.037-7.989-0.292-16.432,1.199-23.627c1.151-5.768,2.82-10.711,4.375-14.178c6.19-13.823,16.464-24.891,20.191-28.634
		c-0.648-0.454-1.232-0.956-1.848-1.394c-0.064-0.064-0.129-0.13-0.178-0.211c-0.065,0-0.065-0.032-0.065-0.032
		c-0.988-0.745-1.896-1.507-2.803-2.302c-4.44,5.396-13.304,16.934-19.656,29.282c0,0,0,0,0,0.032
		c-0.859,1.652-1.653,3.241-2.35,4.861c-3.889,8.686-4.845,23.27-3.322,36.85c0.713,6.027,2.269,11.569,4.116,16.398
		c0.47,1.215,0.972,2.398,1.442,3.533c1.961,4.31,4.083,8.004,6.061,10.711c8.799,12.51,22.638,15.15,22.638,15.15
		s12.024,1.037,22.629-4.439c12.965-6.676,24.924-20.062,24.924-20.062l-3.565,37.433l35.455,35.131l1.427-125.957l2.494-0.47
		l3.728-0.681l7.325-1.329l1.102,123.771l34.482-34.84l1.103-88.007l0.097-5.882l0.033-1.199l18.732-3.079v4.44l-0.324,138.289
		l37.886-36.785v-0.097l0.032-4.148l1.167-111.065l21.876-32.053L199.01,869.745z M376.255,909.607
		c-10.954-7.777-28.423-7.535-28.423-7.535v0.049c-1.069,0-7.194,0.065-15.135,0.454c-11.7,0.356-25.344,0.843-25.344,0.843
		s4.148-5.283,13.319-10.273c13.062-7.098,32.41-14.649,32.41-14.649l30.075-47.073l3.759-5.818c0,0-1.555,0.52-4.311,1.491
		c-9.301,3.452-32.441,12.251-55.418,23.724l0.875,2.723l0.129,0.227l0.324,1.231c23.01-11.052,45.08-18.749,45.08-18.749
		l-5.898,9.528l-17.662,28.698c0,0-18.7,7.033-32.02,14.682c-9.594,5.541-15.07,12.445-15.07,12.445s-1.491,2.43-0.454,4.455
		c0.259,0.471,0.745,0.957,1.394,1.329c1.135,0.762,2.593,1.394,2.593,1.394s10.015-1.053,21.357-1.394
		c9.69-0.308,19.802,0,19.802,0l3.306,0.065l0,0c6.028,0.34,17.403,1.766,24.08,7.081c2.074,1.685,4.569,6.287,5.282,11.473
		c0.195,1.329,0.26,2.706,0.13,4.148c-1.102,11.132-7.228,25.247-15.459,33.608c-13.937,14.162-34.516,28.098-34.516,28.098
		s-32.085,18.408-53.896,29.055c-2.949,1.443-5.607,2.609-7.973,3.582c-8.199,3.289-12.802,3.873-12.802,3.873l30.173-51.58
		c0,0,10.014-4.342,19.283-8.377c5.51-2.414,11.148-5.008,14.13-6.352l0,0c0,0,10.306-4.359,18.474-10.646
		c3.564-2.658,7.098-7.455,9.172-11.521c0.064-0.13,0.097-0.244,0.162-0.309c1.199-2.527,1.264-5.023,0.972-6.449
		c-0.097-0.422-0.227-0.762-0.356-1.004c-1.621-2.432-9.917-1.427-15.199-0.714c-11.246,1.361-28.326,3.598-38.664,3.825
		c-2.172,0.031-4.148-0.065-5.996-0.293c-7.52-1.004-13.094-3.97-17.145-7.907c-0.811-0.81-1.588-1.669-2.301-2.528
		c-0.194-0.227-0.356-0.47-0.453-0.713c-0.454-0.745-0.908-1.49-1.33-2.301c-0.291-0.519-0.582-1.069-0.81-1.669l-0.065,0.228
		l-0.615,3.921l-0.648,3.97c0.292,0.422,0.648,0.826,0.973,1.167c7,7.47,17.047,10.711,25.83,11.214
		c4.439,0.308,10.824-0.162,16.334-0.454c13.903-0.681,31.437-4.44,31.437-4.44s2.949-0.502,3.565,0.13
		c1.394,0.972-2.658,7.26-8.232,11.603c-8.167,6.611-19.705,12.072-19.932,12.186l-32.02,12.915l-34.256,56.327l-1.07,6.773
		l-0.486,2.771c0.131,0,0.195-0.049,0.324-0.049c6.223-2.074,17.112-6.045,30.594-12.072c19.641-8.734,45.795-23.967,45.795-23.967
		s29.168-16.416,46.701-36.93c7.584-8.881,15.459-24.551,15.653-36.914C385.88,919.233,379.95,912.217,376.255,909.607
		 M-31.247,1006.121l-22.524,24.016l-6.563,6.936l0.065-0.129l-2.188-185.314l-0.178-16.303l18.781,9.982l12.607,6.611V1006.121z
		 M-35.785,844.077l-26.575-14.05l-4.246-2.252l-1.669-0.875l0.129,6.287v0.34l0.324,20.742l2.139,123.17v0.52l1.102,64.59
		l0.178,8.055l4.294-4.975l33.592-38.211V852.989c-1.377-1.847-2.803-3.985-4.488-6.384L-35.785,844.077z M300.806,867.735
		l-0.972-0.13l-0.811-0.939c-12.315,8.264-21.941,17.242-28.487,24.242l-0.843,5.056l-0.356,2.431l-0.616,3.5
		c4.797-7.681,13.904-19.348,29.688-30.076c1.912-1.264,3.824-2.56,5.833-3.759l-1.199-0.146L300.806,867.735z M168.708,815.07
		c-0.162,1.199-0.324,2.172-0.356,2.756c-0.065,0.162-0.065,0.34-0.13,0.438l25.798-16.254l0.259-0.178v7.616v1.037v0.907
		l2.204-3.564l0.389-0.535l3.208-5.008l0.131-10.257l-30.691,17.63c-0.26,1.848-0.486,3.469-0.746,4.797
		C168.772,814.65,168.708,814.86,168.708,815.07 M149.327,878.885l-8.49,1.701l-0.648,0.146l-0.26-10.581l-0.356-14.276
		c-1.264,1.491-2.528,2.917-3.921,4.44c-0.52,0.583-1.037,1.166-1.588,1.75l0.323,23.998l0.39-0.049l30.302-5.282v-57.851
		l-0.486,0.714l-2.042,2.868l-1.782,2.479l-1.134,1.686l0.811,46.054v0.064h-0.065L149.327,878.885z M27.081,962.823L27.081,962.823
		c1.361-0.858,6.093-4.278,19.057-16.593c8.231-8.427,16.885-19.948,19.121-22.963c0.324-0.502,0.551-0.744,0.551-0.744
		l-28.52,4.488l-0.162,0.064l-6.709,1.086c0,0,0.098-0.34,0.389-0.956c0.584-1.394,1.718-4.148,3.307-7.438
		c0.551-1.247,1.264-2.576,1.943-3.904c1.75-3.387,3.631-6.807,5.121-9.529c0.356-0.615,0.681-1.199,1.005-1.75l-1.978-0.68
		c0,0-0.227-0.13-0.518-0.26c-0.39-0.178-1.07-0.453-2.043-0.924c-1.685,3.176-4.407,8.443-6.936,13.612
		c-4.213,8.589-7.867,16.868-7.867,16.868l32.466-4.602c0,0-4.797,5.996-11.344,12.704c-7.227,7.39-15.945,15.2-17.598,16.594
		c-0.098,0.113-2.755,2.253-5.226,2.755c-0.519,0.113-1.005,0.178-1.394,0.113c-0.502-0.033-1.037-0.34-1.426-0.681
		c-1.264-1.15-2.074-3.16-2.074-3.16c0-0.032-3.014-5.882-3.354-14.243c-0.064-0.616-0.064-1.264-0.064-1.896
		c0-1.264,0.146-2.561,0.243-3.889c0.697-7.713,2.884-15.881,2.884-15.881s1.15-5.736,4.246-10.402
		c1.215-1.832,2.819-3.824,4.351-5.672c2.302-2.69,4.407-5.057,5.218-5.883c-0.811-0.453-1.717-0.924-2.561-1.361
		c-0.259-0.146-0.355-0.211-0.615-0.308c-0.162-0.065-0.291-0.194-0.519-0.227c-0.259-0.179-0.583-0.356-0.843-0.519
		c-1.231,1.135-5.534,5.574-8.596,10.111c-3.192,4.797-4.667,9.804-4.667,9.804s-1.313,4.861-2.366,11.165
		c-0.033,0.551-0.178,1.166-0.211,1.75c-0.356,2.561-0.648,5.25-0.745,7.973c-0.405,9.414,1.766,18.424,1.766,18.424
		s0.875,2.594,2.171,4.943c0.373,0.583,0.648,1.037,1.005,1.523c0.048,0.129,0.113,0.162,0.162,0.227
		c0.292,0.389,0.648,0.794,0.989,1.199c0.616,0.68,1.442,1.328,2.479,1.637c3.225,0.924,7.819-1.475,9.342-2.253l0,0
		C26.562,963.115,26.723,963.082,27.081,962.823 M111.409,895.251l-0.064-11.246c-0.746,0.647-1.491,1.231-2.27,1.88
		c-0.777,0.68-1.588,1.377-2.43,2.01v4.699l-7.714,1.522c-2.171,1.767-4.311,3.403-6.319,4.894c-0.162,0.13-0.293,0.228-0.486,0.357
		c-1.232,0.906-2.398,1.782-3.5,2.592l22.815-3.694v-0.227l-0.065-2.009v-0.778H111.409z" />
		<path fill="#323130"
			d="M27.307,865.127c0.811,2.544,1.297,4.035,1.297,4.035l1.782-3.565v-2.819l0.875-95.931l-12.907-3.501
		c0,0-2.188,32.475,0.438,61.351C20.445,841.954,24.973,857.916,27.307,865.127 M-7.848,793.535
		c1.377,22.379,6.223,45.356,6.223,45.356l3.565,8.88v-90.713l-9.204-5.314C-7.265,751.744-9.112,772.389-7.848,793.535
		 M-43.206,605.58c-1.556,0.162-3.079,0.291-4.618,0.291C-45.977,606.795-44.616,606.293-43.206,605.58 M293.579,841.549
		l0.162,0.309l3.177,3.742l8.005,9.626l1.944,2.366l2.464,0.518l2.949,0.584l4.245,0.875h0.194l1.88,0.389l1.394,0.292h0.227
		l-0.324-0.907l-0.421-1.232l-0.065-0.097l-0.907-2.69l-0.939-2.56l-1.199-3.5l-1.491-4.44l-10.533-30.27l-0.129-0.52l-28.812-4.537
		l-7.001-1.102l-9.139-1.49l-1.459-0.26l3.145-21.844l15.945,13.773v-7.064l-1.686-1.572l-11.861-10.954l-1.361-1.345l1.296-9.432
		l16.042,15.006l0.551-6.53l-1.781-1.767l-11.766-11.78l-2.074-2.058l1.103-7.584l15.751,13.693v-7.082l-3.241-3.24l-10.144-10.08
		l-1.167-1.264l0.972-6.854l17.08,16.075l0,0v-7.714l-6.028-6.239l-8.589-8.944l-1.328-1.313l4.277-30.318l0.162-0.924l-1.068,0.924
		l-17.599,14.243l-3.565,4.148l-9.787,87.456l-1.264-0.194l-17.339-2.123l-9.853-1.264l-5.314,8.572l-7.584,12.234l-2.885,4.617
		l-0.194,0.211l-2.528,4.1l-6.385,10.339l6.385,0.729l2.432,0.308l0.518,0.032l2.366,0.309l3.468,0.372l4.439-2.787l15.07-9.626
		l14.229,1.719l-0.131,0.939L222.409,962.5l-15.395,139.131l1.135,35.342l2.658,0.859h0.064v-0.146l42.65-300.625l1.328,0.146
		l16.724,1.879L293.579,841.549z M-29.724,779.583c0.519,12.866,3.208,24.599,3.208,24.599l6.239,18.668l1.75-75.546l-10.695-5.056
		C-29.222,742.264-30.486,762.406-29.724,779.583 M119.284,844.239l1.783,2.69l7.098-94.311l-10.663,6.223L119.284,844.239z
		 M92.643,866.472l3.533,1.75l7.13-104.001l-10.663,2.626V866.472z M320.641,893.145c-9.14,4.99-13.288,10.273-13.288,10.273
		s13.612-0.486,25.312-0.843c7.973-0.389,14.065-0.454,15.135-0.454v-0.049c0,0,17.469-0.242,28.423,7.535
		c3.728,2.594,9.626,9.626,9.464,18.684c-0.195,12.349-8.07,28.018-15.687,36.898c-17.501,20.515-46.669,36.946-46.669,36.946
		s-26.154,15.231-45.794,23.982c-13.481,5.995-24.403,9.981-30.626,12.056c-0.098,0-0.162,0.049-0.292,0.049l0.485-2.771l1.07-6.774
		l34.256-56.326l32.021-12.915c0.227-0.13,11.765-5.574,19.931-12.202c5.575-4.311,9.626-10.63,8.232-11.586
		c-0.615-0.632-3.564-0.113-3.564-0.113s-17.501,3.711-31.372,4.408c-5.51,0.291-11.927,0.761-16.335,0.453
		c-8.782-0.486-18.861-3.743-25.829-11.213c-0.324-0.357-0.681-0.746-0.973-1.168l0.648-3.97l0.616-3.905l0.064-0.242
		c0.227,0.582,0.486,1.15,0.777,1.668c1.297,2.01,2.723,3.922,4.116,5.543c4.019,3.921,9.626,6.902,17.112,7.907
		c-3.565-1.28-11.02-4.44-13.353-9.513c-2.561-5.85-4.407-15.734,3.046-25.813c9.432-10.371,24.178-22.363,37.271-30.498
		l18.829,2.01l-3.305-10.241c14.162-6.515,30.95-12.802,37.303-15.167l5.865-9.528c0,0-22.07,7.696-45.08,18.749l-0.324-1.216
		l-0.13-0.243l-0.875-2.723c23.011-11.456,46.15-20.271,55.452-23.723c2.722-0.988,4.311-1.508,4.311-1.508l-3.76,5.834
		l-30.012,47.074C353.147,878.495,333.702,886.047,320.641,893.145 M268.689,942.989c16.853,8.604,60.442,1.733,60.442,1.733
		l-49.779,20.467l-28.066,44.546l11.473-70.798C264.476,940.478,266.453,941.855,268.689,942.989 M272.772,876.891l3.986-24.387
		l10.663,0.891l7.032,7.988C285.542,867.022,278.315,872.436,272.772,876.891 M299.056,866.666l0.811,0.939l0.972,0.13l2.204,0.211
		l1.231,0.146c-2.01,1.184-3.922,2.463-5.865,3.76c-15.752,10.711-24.891,22.395-29.654,30.076l0.583-3.501l0.389-2.431l0.811-5.056
		C277.083,883.924,286.709,874.947,299.056,866.666 M243.021,1022.91l-2.495,14.843l-1.814,11.181l-0.195,0.957l-8.945,53.458
		l-17.24,37.368l-6.482-1.15l-2.917-42.684l27.062-230.201l0.389-3.58l2.69-22.945l-8.848-1.768l-16.886,10.55l-2.074,1.313
		l-5.93-1.037l-2.14-0.341l-0.616-0.113l-2.495-0.404l-13.709-2.318l13.839-22.539l2.527-4.084l0.033-0.064l3.078-5.089
		l7.486-12.089l3.209-5.314l27.32,4.164l10.015-82.432l2.431-4.781l21.293-17.176h2.949l18.376,25.473l-13.028,83.064l28.455,5.914
		l12.186,36.152l1.005,2.998l1.005,2.949l0.939,2.755l0.032,0.179l0.421,1.15l1.978,5.834l0.843,2.527l-4.895-0.502l-10.662-1.102
		l-1.944-0.195l-0.778-0.032l-4.148-0.47l-0.744-0.064l-0.746-1.006l-3.144-4.002l-9.106-11.57l-17.761-1.799l-6.255,37.434
		l-2.723,16.172l-1.393,8.135l-1.33,7.842l-0.162,1.265l-0.291,1.62l-0.584,3.289l-2.171,13.191L243.021,1022.91z M207.339,859.828
		v-7.908l16.043-9.236l3.598,0.875l-1.75,14.228L207.339,859.828z M21.125,941.449l13.702-2.025l-12.486,9.172L21.125,941.449z
		 M198.751,898.232l-1.166,111.065l-0.033,4.148v0.097l-37.886,36.785l0.323-138.289v-4.44l-18.732,3.079l-0.031,1.199l-0.098,5.882
		l-1.102,88.007l-34.483,34.84l-1.134-123.771l-7.325,1.329l-3.728,0.681l-2.494,0.47l-1.427,125.957l-35.455-35.131l3.565-37.4
		c0,0-11.992,13.385-24.955,20.062c-10.59,5.478-22.614,4.44-22.614,4.44s-13.839-2.642-22.638-15.152
		c-1.993-2.705-4.116-6.4-6.061-10.711c-0.47-1.134-0.972-2.316-1.442-3.532c-1.847-4.829-3.387-10.37-4.116-16.399
		c-1.523-13.563-0.583-28.146,3.322-36.848c0.746-1.621,1.475-3.209,2.35-4.861c0-0.033,0-0.033,0-0.033
		c6.336-12.315,15.216-23.854,19.656-29.281c0.907,0.794,1.831,1.556,2.803,2.301c0,0,0,0.049,0.065,0.049
		c0.049,0.064,0.097,0.129,0.178,0.194c0.616,0.438,1.199,0.94,1.847,1.394c-3.727,3.743-14,14.811-20.223,28.633
		c-1.507,3.469-3.176,8.427-4.343,14.18c-1.475,7.194-2.236,15.621-1.199,23.626c0.276,1.912,0.681,3.856,1.134,5.704
		c2.479,9.917,7.309,18.506,10.436,22.945c7.648,11.182,18.667,12.915,18.667,12.915l0,0c-4.165-4.392-25.344-28.066-24.501-53.831
		c0.697-20.158,21.552-44.093,26.494-49.505c4.456,2.949,8.832,5.478,12.793,7.616c0.292,0.162,0.583,0.34,0.875,0.519
		c0.194,0.032,0.356,0.161,0.519,0.227c0.227,0.097,0.324,0.162,0.584,0.308c0.875,0.438,1.781,0.908,2.56,1.361
		c-0.778,0.826-2.917,3.16-5.218,5.883c-1.499,1.83-3.119,3.824-4.334,5.672c-3.095,4.666-4.246,10.402-4.246,10.402
		s-2.188,8.168-2.885,15.881c-0.097,1.328-0.243,2.625-0.243,3.889c0,0.633,0,1.28,0.064,1.896
		c0.34,8.361,3.354,14.243,3.354,14.243c0-0.032,0.81,2.01,2.074,3.16c0.389,0.341,0.924,0.647,1.426,0.681
		c0.389,0.064,0.875,0,1.394-0.113c2.488-0.502,5.145-2.642,5.243-2.755c1.62-1.394,10.371-9.204,17.565-16.594
		c6.579-6.677,11.376-12.704,11.376-12.704l-32.482,4.602c0,0,3.638-8.279,7.883-16.868c2.496-5.202,5.219-10.437,6.904-13.612
		c0.939,0.454,1.685,0.746,2.074,0.924c0.291,0.13,0.518,0.26,0.518,0.26l1.945,0.68l0.193,0.049l-0.81,1.508l-7.421,13.644
		c-1.589,3.306-2.723,6.061-3.339,7.454c-0.259,0.584-0.356,0.939-0.356,0.939l6.741-1.037l0,0l10.208-20.676l9.723,3.662
		c0,0,4.441,1.943,9.788,1.782c5.315-0.228,11.538-2.723,11.538-2.723s2.561-1.669,6.709-4.586l0.161,3.128l31.761-4.732
		l-0.389-8.944l0.098-14.746c2.041-1.848,4.115-3.694,6.125-5.655c3.889-3.695,7.648-7.665,11.213-11.555
		c0.551-0.582,1.07-1.166,1.588-1.75c1.395-1.522,2.658-2.949,3.922-4.439l0.357,14.276l0.259,10.581l0.647-0.146l8.492-1.686
		l11.051-2.188h0.064v-0.064l-0.81-46.037l1.134-1.669l1.783-2.496l2.041-2.867l0.486-0.697v57.817l-30.303,5.299l0.52,6.271
		l37.334-5.38l-0.355-38.664l21.778,3.468l2.431,0.421l0.777,0.098l2.01,0.291l-0.259,17.242l21.616-3.564L198.751,898.232z
		 M-26.516,1007.451l-33.592,38.209l-4.294,4.976l-0.178-8.054l-1.102-64.592v-0.518l-2.139-123.17l-0.324-20.742v-0.34
		l-0.129-6.288l1.669,0.875l4.246,2.253l26.575,14.049l4.797,2.561c1.669,2.398,3.111,4.537,4.488,6.385v154.396H-26.516z
		 M-64.304,791.477c1.734-3.467,5.299-5.412,11.635-4.391c1.637,8.945,3.565,16.998,5.38,23.756
		c0.292,4.424-0.94,8.377-5.882,11.197c-0.81,0.842-1.734,1.782-2.771,2.754l-2.252-1.264l-3.743-2.139l-4.732-2.576l-0.097-17.825
		l-3.014-2.997C-68.015,796.015-66.152,793.892-64.304,791.477 M-94.024,753.559c-54.917,10.241-116.429-4.294-154.218,41.095
		l-3.452,5.12l-1.54,1.686l0.033-4.148v-13.547l-3.338-2.495l-3.743-2.819l-11.343,12.85l0.405-0.988l17.744-19.607l0.114,0.13
		c7.892-9.188,29.784-17.274,31.274-17.274c17.809-7.162,39.118-12.477,58.693-12.477c-11.003-2.253-22.476-2.253-32.587-7.146
		c-21.892-10.614-14.681-7.893-17.161-9.447c-1.053-0.908,16.059-8.168,34.969-16.01c16.464-6.871,36.509-19.965,41.451-33.203
		c3.581-10.663,3.581-21.391,0-32.053c-7.13-14.228-24.857-12.445-39.102-15.994c24.89-28.422,67.605-23.14,101.359-24.922
		c-14.244-1.767-24.89-10.663-35.569-19.543c-1.799-1.766,0-3.564,1.815-3.564c14.211,5.347,26.624-1.783,37.319-8.881
		c31.971-24.89,51.563-71.17,95.971-67.605c14.228,1.783,26.705,12.445,35.617,23.108c-5.348-8.88-3.564-17.761,7.098-21.325
		c21.293-5.348,51.531-1.783,58.693,19.543c8.88,24.955,3.5,56.941-21.391,72.969c-0.745,0.34-1.814,0.583-3.144,0.583
		c-5.088-1.848-9.69-3.225-13.255-4.148c-0.584-0.519-1.037-1.15-1.394-1.782c-7.065-14.244,1.782-35.553-12.38-47.998
		c6.967,10.484,10.5,31.404-1.297,38.777l-1.912-2.365c-0.648-0.875-1.328-1.734-2.139-2.528l-6.936-8.556
		c-0.033-0.098-0.162-0.275-0.162-0.454c-0.033,0.065-0.098,0.065-0.098,0.13l-0.842-0.973L42.41,589.148
		c-5.347-8.168-13.968-8.232-20.863-9.966c-24.89-5.299-40.9,16.026-60.491,24.89c-1.669,0-2.981,0.795-4.246,1.508
		c15.945-1.848,30.594-12.803,45.146-19.252c8.88-1.799,17.792,1.719,23.083,8.881c-6.895,2.527-13.344,5.931-19.567,9.852
		c-8.345,4.375-17.128,9.901-24.825,16.82c-2.188,1.961-4.197,4.035-6.061,6.271c-0.34,0.309-0.729,0.584-1.086,0.811
		c-33.754-7.082-72.888-3.517-94.18,26.688c17.728-15.962,40.852-26.688,64.008-19.542c0,0,7.097,3.58,1.766,3.58
		c-12.429,3.5-24.922,7.082-33.819,14.163c-24.874,19.591-35.52,58.741-71.089,60.524c8.88,0,19.526-1.783,28.406-5.348
		c24.874-12.461,35.602-42.731,62.258-53.378c8.896-1.799,21.325-5.315,24.89,1.782c0.583,1.135,1.004,2.576,1.215,4.148
		c-2.139,6.498-2.982,10.938-2.982,10.938l-8.167,5.43c0,0-2.269,19.429-2.819,43.719c-23.756,13.629-51.968,21.164-79.71,21.164
		c23.124,7.098,47.998,0,71.105-3.565C-74.513,746.396-83.361,751.744-94.024,753.559 M-88.19,808.703l-3.014,2.495l-2.09,1.701
		l-8.459,6.871l-3.03,2.463l-15.346,12.51l1.377,22.719c-4.715,1.134-9.333,2.122-13.012,2.819L-147.66,835.1l20.547-23.172
		c5.477-3.16,11.538-9.107,14.827-12.089c2.917-3.856,6.271-8.944,9.317-8.944c10.663-3.582,21.05,2.074,31.745,0.291
		C-76.814,797.521-81.903,803.015-88.19,808.703 M-122.77,874.541c1.507-0.193,3.144-0.404,5.007-0.648l0.583,9.496L-122.77,874.541
		z M-98.804,1021.549l-52.713-107.322l5.282,119.151l-16.934-27.095l-24.534-39.312v-87.715l0.681-0.858l11.457-13.45l22.249-26.057
		l0.681,1.103l0.227,0.389l13.369,21.162l8.653,13.774l18.522,29.378l-0.827-31.518l-0.454-17.176l-0.47-16.529l39.102-33.187
		l0.113,30.724l0.065,20.871l0.389,128.049L-98.804,1021.549z M-195.512,951.934l-22.378-37.691l21.941-24.776L-195.512,951.934z
		 M-253.492,867.379l0.243-59.535l0.972-0.811v-0.129c30.189-35.617,81.751-42.684,126.233-35.617
		c-32.036,0-65.79,12.461-80.034,40.916c-0.47,0.955-0.908,1.814-1.442,2.674l-16.35,18.732l-5.186,5.898l-0.178,0.211l-1.442,1.636
		L-253.492,867.379z M-262.469,889.741l1.669-2.755l-0.924,2.625C-262.015,889.611-262.242,889.676-262.469,889.741
		 M-210.825,1037.525l-49.181-88.93l-4.132,4.148v74.768l-42.715,67.54V841.258l4.975-5.478l22.459-24.89l11.83-13.158l4.019-4.488
		v98.426l1.783-2.074l0.064-0.049l32.425-36.979l5.153-5.898l12.899-14.682l23.562-26.867l19.251-6.061l36.687-11.473l19.899-6.223
		l-5.898,6.628l-24.193,26.867l-2.123,2.415l-44.271,49.1l-19.624,21.844l-21.779,24.225l87.115,146.44L-210.825,1037.525z
		 M62.796,580.852l11.439,12.688l3.631,4.035h-0.065c0,0-8.458,15.621-8.589,37.919c-0.129,25.474,8.103,58.108,8.103,58.108h0.098
		l-15.913,14.764l1.329-124.014v-3.371L62.796,580.852z M-25.56,711.07l7.325-1.102c0,0,4.213-0.438,11.003,2.382
		c12.348,5.072,30.845,14.812,30.845,14.812s2.301,1.328,4.44,1.766c3.046,0.697,6.222,0.584,6.222,0.584s-3.986,2.009-8.296,2.981
		c-4.578,1.005-9.537,0.875-9.537,0.875s-9.204-0.308-17.744-3.856c-8.507-3.5-19.818-12.332-21.649-14.552
		C-24.555,713.031-25.56,711.07-25.56,711.07 M-3.473,876.486l-15.103,20.969l0.048-34.808
		C-14.767,866.585-10.344,870.361-3.473,876.486 M-20.002,839.135c-8.183-10.42-13.044-18.02-13.044-18.02
		s-8.864-37.027-12.445-70.555c-1.88-18.295-1.248-38.891-0.616-50.72l11.554,14.309c0,0,1.102,3.598,7.454,10.015
		c5.801,5.865,13.936,10.371,13.936,10.371s6.174,4.861,14.228,6.578c6.968,1.491,22.808,0.228,29.614-2.43
		c8.523-3.225,17.5-9.464,17.5-9.464v-0.032l1.75-0.551c0,0,0.682,9.01,1.653,20.531c1.329,15.508,2.366,35.05,2.366,35.05v-0.065
		c0.68,14.649,1.069,33.608,0.097,50.04c-0.81,14.13-2.106,26.705-3.176,35.585c-1.005,7.939-1.686,12.883-4.473,15.395
		c-1.718,1.539-3.468,2.041-4.148,2.398c-0.519,0.227-2.884-0.682-6.19-2.301c-5.186-2.529-12.865-6.839-19.939-11.749
		c-4.343-2.933-8.475-6.061-11.651-9.058C-6.681,853.865-16.663,842.813-20.002,839.135 M140.026,629.611
		c19.64,21.082,27.094,55.742,28.682,64.38c-0.973,0.567-2.01,1.264-2.885,1.96c-1.717,1.378-2.01,2.934-2.01,2.934l-2.009,2.527
		c-1.556-0.906-5.315-2.98-9.333-3.046c-7.26-0.194-15.362,2.933-15.362,2.933l-39.118,18.393L80.75,723.84l-3.5,0.162
		c-1.231-1.361-3.241-3.564-5.38-5.639c-2.755-2.723-5.639-5.186-5.639-5.186l-7.357,0.178l-5.931,4.537l-5.769,4.895
		c-1.395,0.21-4.603,0.696-7.908,0.744c-1.652,0.049-9.528-1.15-16.537-4.277c-6.757-2.998-14.892-8.232-17.226-9.658
		c-0.34-0.178-9.139-4.894-12.137-6.238c-4.359-1.848-10.938-3.792-10.938-3.792s-4.894-1.556-8.945-1.782
		c-2.868-0.195-8.394,1.556-9.155,3.209c-0.746,1.619,0.859,4.18,0.859,4.18v0.098l-1.054-0.681l-7.697-8.135l-0.697-0.762
		l-1.442-2.35l-0.178-0.243c0.113-1.15,0.275-2.706,0.681-4.797c1.231-5.703,3.743-14.405,6.822-22.604
		c0.583-1.604,1.215-3.208,1.782-4.731c5.461-13.354,16.01-24.891,16.01-24.891s3.468-4.084,9.285-9.398
		c5.915-5.704,12.396-10.322,18.781-14c1.556-0.908,3.127-1.799,4.732-2.658c3.29-1.686,10.533-5.429,17.331-7.908
		c3.468-1.199,6.871-2.009,9.463-2.592c1.557-0.341,2.82-0.568,3.631-0.811c0.291-0.098,0.518-0.033,0.68,0c0.064,0,0.13,0,0.13,0
		l1.427-1.491c0.064,0.811,0.161,1.686,0.355,2.544c0.454,2.074,1.037,4.213,1.621,6.466c1.944,7.032,4.277,15.783,4.926,31.647
		c-0.551,8.637-1.231,16.123-2.041,22.589c-3.015,25.021-7.163,34.37-7.163,34.37l18.96,15.945l17.824-14.682l1.718-1.328
		l0.778-0.584l-0.94-0.194l0.94,0.13c0,0-5.315-17.178-7.908-36.963c-1.005-7.033-1.556-14.422-1.459-21.39c0-0.049,0-0.114,0-0.162
		c0.357-16.771,6.903-31.063,9.853-36.655c0-0.048,0-0.048,0.065-0.113c1.102,0.228,2.398,0.52,3.629,0.924
		c0.778,0.244,1.523,0.471,2.366,0.746C101.362,604.251,124.437,612.742,140.026,629.611 M88.788,729.203l0.647-0.291
		c0,0,0.032,0.129,0.194,0.259c1.621-0.064,5.478-0.372,9.528-1.442c4.569-1.279,9.658-4.473,11.343-5.493
		c2.496-1.556,14.098-7.503,23.335-10.841c7.13-2.527,11.927-1.766,12.737-1.458c1.717,0.647,2.365,2.382,2.365,2.382
		s-10.307,10.873-20.385,16.285c-10.533,5.574-20.807,5.574-20.807,5.574s-6.677,0.682-11.311-0.713
		c-3.793-1.102-6.158-3.532-6.773-4.311C89.111,729.203,88.788,729.203,88.788,729.203 M111.473,898.281l-22.816,3.694
		c1.07-0.81,2.27-1.702,3.501-2.608c0.194-0.113,0.323-0.211,0.485-0.341c1.978-1.507,4.148-3.128,6.32-4.894l7.713-1.508v-4.715
		c0.811-0.632,1.621-1.328,2.432-2.01c0.745-0.648,1.49-1.23,2.236-1.879l0.064,11.262v0.777l0.064,2.01V898.281L111.473,898.281z
		 M152.762,839.815l-0.291,27.563l-4.148,0.908l-0.746-21.941C149.619,843.915,151.337,841.695,152.762,839.815 M169.064,699.258
		c0,3.063-0.097,14.065-1.069,29.379c-0.292,5.379-0.648,11.084-1.07,16.949c-0.193,4.213-0.323,8.54-0.68,12.867
		c-1.814,19.704-4.246,39.668-5.736,50.558c-0.227,1.767-0.454,3.272-0.648,4.537c-0.162,1.442-0.324,2.495-0.486,3.111
		c-0.064,0.421-0.129,0.647-0.129,0.745c-0.293,0.648-2.594,4.116-6.288,8.945c-1.685,2.236-3.63,4.731-5.769,7.453
		c-2.301,2.82-4.764,5.818-7.422,8.881c-0.615,0.811-1.328,1.669-2.01,2.447c-0.81,1.117-1.685,2.139-2.527,3.159
		c-0.389,0.534-0.811,1.005-1.199,1.523c-4.894,5.915-10.145,12.04-15.297,17.582c-0.615,0.696-1.264,1.313-1.88,1.993
		c-1.912,1.992-3.759,3.856-5.574,5.655c-0.94,0.956-1.88,1.847-2.853,2.722c-0.551,0.568-1.134,1.086-1.717,1.67
		c-7.228,6.806-13.515,11.99-17.566,15.167c-0.291,0.243-0.551,0.39-0.81,0.648c-0.973,0.438-2.626,1.069-4.44,1.831
		c-1.037,0.373-2.139,0.794-3.273,1.199c-3.922,1.458-8.231,2.754-10.792,2.885c-4.019,0.275-7.454-0.454-7.454-0.52
		c-1.004-1.15-1.264-3.322-1.361-6.352c-0.032-0.567-0.032-1.054-0.032-1.734c-0.13-10.598,0.811-30.805,0.843-53.928
		c0.194-37.919,0.291-86.873,0.291-86.873l0,0c0.422-11.635-0.291-33.818-0.291-33.818s1.394-0.227,3.273,0.632
		c1.297,0.567,3.24,2.35,3.24,2.35s3.631,3.565,4.959,4.797c0.064,0.032,0.064,0.032,0.13,0.13c0.907,0.842,2.301,2.074,3.921,3.436
		c2.236,1.847,5.121,4.034,8.232,5.881c2.625,1.621,7.648,3.29,13.19,4.555c5.12,1.134,10.63,2.009,15.103,2.105
		c1.556,0,3.047,0,4.246-0.162c0.615-0.097,1.328-0.162,2.009-0.275c0.13,0,0.228,0,0.356-0.048c2.561-0.356,5.445-0.94,8.653-2.302
		c5.736-2.592,11.731-6.352,15.556-9.852c7.195-6.773,14.974-17.112,14.974-17.112s2.431-2.495,3.306-4.894
		c0.098-0.13,0.194-0.309,0.194-0.486c0.065-0.098,0.065-0.194,0.13-0.34l4.311-6.109c0,0,0.291-0.291,0.648-0.519
		c0.227-0.162,0.485-0.341,0.81-0.454C169.064,699.258,169.064,699.258,169.064,699.258 M200.177,792.045l-0.129,10.257
		l-3.209,5.007l-0.356,0.535l-2.236,3.564l-22.005,34.581l-0.162-21.876l22.167-13.611v-1.037l-0.227-7.455l-25.83,16.254
		c0.097-0.113,0.097-0.275,0.13-0.438c0.064-0.584,0.227-1.557,0.389-2.756c0-0.193,0.064-0.42,0.064-0.582
		c0.227-1.361,0.454-2.966,0.746-4.797L200.177,792.045z M-314.615,886.792c-2.301-0.583-4.262-1.167-5.38-1.556
		c-4.148-1.621-7.649-3.338-7.649-3.338s6.725-2.01,13.029-4.505V886.792z M397.904,818.604l0.194-0.227l-1.394-1.102
		c0,0-36.104,11.262-71.397,27.677l-12.088-38.081l-29.363-5.963l14.195-80.974l-17.469-28.147l-12.703-2.058l-24.016,19.526
		l-11.603,84.522l-23.982-4.456l-0.94,1.572v-9.82l-36.881,21.957c1.49-10.614,3.371-25.474,4.829-40.641
		c3.468-35.958,5.38-74.688,5.38-74.688l-6.223-2.722c0,0-9.982-40.155-34.71-64.883c-6.093-6.093-13.32-11.019-20.612-14.876
		c3.047-4.504,11.116-16.366,15.557-26.672c6.223-14.26,5.931-28.423,5.931-28.423s-0.228-13.79-4.148-25.538
		c-1.264-3.792-3.435-11.068-8.296-15.962c-6.807-6.968-17.275-11.359-23.756-13.66c-7.033-2.593-14.099-2.998-17.826-3.046h-0.777
		c-1.297,0-2.106,0.048-2.106,0.048s-11.927-0.161-20.741,1.767c-9.496,2.203-17.631,5.542-17.631,5.542l-16.14-3.743
		c0,0-7.479-2.35-14.787-2.35c-6.919,0-13.677,2.35-13.677,2.35s-11.748,4.262-18.376,8.297
		c-6.952,4.262-14.908,10.791-21.892,17.824c-7.243,7.211-15.427,18.943-15.427,18.943s-9.447,8.783-17.177,15.395
		c-4.148,3.581-27.888,14.243-27.888,14.243s-7.94,2.723-17.274,2.317c-9.755-0.389-19.203-2.641-19.203-2.641
		s2.723,9.512,5.639,14.584c2.901,4.893,8.945,8.928,8.945,8.928l11.229,6.515c0,0-6.854-1.491-14.211-1.199
		c-8.54,0.341-17.744,2.366-17.744,2.366s-10.971,2.657-19.024,6.514c-6.595,3.225-16.625,10.371-20.742,13.66
		c-4.715,3.809-7.648,8.297-7.648,8.297s-2.09,3.16-4.553,7.017c-3.792,5.802-8.524,13.142-8.524,13.142s8.815-3.225,17.226-3.58
		c6.806-0.228,19.753,2.009,23.107,5.363c4.748,4.65,7.098,13.596,7.098,13.596s1.556,9.35-7.665,19.607
		c-7.827,8.572-21.52,17.176-21.52,17.176s-11.684,8.07-22.395,10.08c-7.827,1.523-15.216-0.616-15.719-0.908
		c-3.451-1.717-9.723-6.806-9.723-6.806s-0.891,12.218,5.283,21.374c4.958,7.211,15.735,12.234,15.735,12.234l7.438,2.01
		c0,0,0.616,1.637-4.796,2.949c-6.384,1.619-18.959,2.933-18.959,2.933s-8.054,0.858-15.378,4.147
		c-9.561,4.327-18.959,11.328-18.959,11.328s-6.174,5.266-10.711,11.213c-4.91,6.53-8.296,13.677-8.296,13.677
		s-4.554,6.449-7.098,13.028c-0.972,2.593-3.727,10.192-6.952,19.008l-19.073,21.666l-0.065,21.324
		c-3.694,3.857-8.75,8.395-13.595,10.938c-4.538,2.382-8.799,2.997-10.89,3.29c-7.713,1.198-12.85-0.908-12.85-0.908
		s18.133,17.16,24.89,19.543c2.431,0.858,7.114,2.35,12.332,3.953l-0.486,210.141l6.531,2.98l52.778-78.268l-0.859-64.039
		l39.993,77.052l75.837,23.156l11.878-5.348l-7.324-12.282l-3.97-94.473l39.701,81.881l28.115-40.463l2.026,54.545l-0.178,15.832
		l51.838-56.603l0.065-22.476c0.519,0.973,1.085,1.928,1.734,2.934c4.148,5.995,13.936,10.37,13.936,10.37
		s12.137,4.845,25.749,2.074c10.816-2.235,25.173-12.153,25.173-12.153l-2.365,21.05l43.266,41.792l8.459-3.68L97.052,924.76
		l0.907-0.098l1.037,126.734l8.427-3.111l40.608-38.825v-92.511l4.731-0.584l-0.584,140.801l6.515,4.699l45.924-45.178l1.782-116.09
		l16.432-23.625l-27.904,224.577l4.505,45.356l14.163,1.75l22.232-43.558l9.527-58.677c30.465-11.586,113.141-46.166,136.184-86.516
		c42.229-73.39-54.188-63.197-54.188-63.197l31.081-12.445L397.904,818.604z M141.55,816.659l0.324,0.907l1.457,3.533l0.39-4.214
		l7.616-74.022l-9.787,6.239V816.659z M303.853,907.388l2.431,7.438c0,0,25.635-3.063,44.725-1.216
		c11.797,1.15,20.385,5.606,22.232,6.919c2.949,2.188,5.412,4.148,7.032,5.478c-0.713-5.186-3.208-9.819-5.282-11.473
		c-6.676-5.282-18.053-6.741-24.08-7.081l0,0l-3.306-0.065c0,0-10.112-0.308-19.802,0c-11.344,0.341-21.357,1.394-21.357,1.394
		S304.955,908.133,303.853,907.388 M348.124,933.152c0.291,1.427,0.26,3.906-0.973,6.467c-0.064,0.064-0.098,0.162-0.162,0.291
		c-2.074,4.067-5.606,8.863-9.172,11.506c-8.166,6.287-18.473,10.662-18.473,10.662l0,0c-2.981,1.345-8.621,3.922-14.131,6.352
		c-9.301,4.035-19.283,8.361-19.283,8.361l-30.172,51.596c0,0,4.569-0.584,12.801-3.856l22.945-40.917
		c0,0,34.029-11.488,50.947-24.614c14.422-11.181,12.413-21.065,12.413-21.065L348.124,933.152z M164.884,902.381v8.67h-0.064
		l0.129,127.107l6.807-6.563l-0.875-130.43L164.884,902.381z M194.862,883.389l7.746,0.811l7.355-10.598l-14.584,2.123
		L194.862,883.389z M110.436,1028.096l5.639-5.478l0.293-112.249l-7.001,1.395L110.436,1028.096z M69.796,956.018l-6.547,4.684
		l-4.311,47.463l18.376,17.824l7.001,6.563l0.064-4.748l-19.867-19.931L69.796,956.018z M65.259,923.285
		c-2.236,3.014-10.922,14.584-19.121,22.961c-12.932,12.315-17.695,15.734-19.057,16.594l0,0c-0.324,0.242-0.519,0.308-0.519,0.308
		l0,0c-1.523,0.778-6.101,3.16-9.342,2.253c-1.037-0.309-1.863-0.957-2.479-1.637c-0.34-0.405-0.697-0.811-0.989-1.199
		c-0.032-0.064-0.113-0.098-0.162-0.227c-0.357-0.454-0.632-0.94-1.005-1.523v0.875c0,0,0.843,6.287,3.581,8.863
		c2.982,2.804,8.58,0.892,8.58,0.892s8.589-3.921,18.376-13.028c14.585-13.547,28.487-33.771,28.487-33.771L65.259,923.285z
		 M-62.635,835.326l0.178,16.303l2.188,185.314l-0.065,0.129l6.563-6.936l-2.301-181.264l-0.049-4.342l4.894,2.592l19.98,10.857
		v-6.061l-12.607-6.627L-62.635,835.326z M-108.883,841.258l0.486,13.255l0.648,17.825l1.847,48.419l-0.632-0.94l0,0l7.13,10.728
		l-2.285-59.438l-0.697-18.975l-0.292-6.466l24.08-20.158l-0.065-9.172L-108.883,841.258z M-151.987,899.739l53.767,110.839
		l0.032-0.292l3.436-4.505l-50.817-104.615L-151.987,899.739z M-175.856,962.531l0.292-79.143l2.593-3.111l14.292-16.82
		l8.588-10.078l-4.44-6.742l-14.973,17.793l-13.482,15.978h-0.081v0.486l1.004,84.425l30.546,50.299l-0.583-13.093L-175.856,962.531
		z M-259.212,939.554l42.116,75.562l10.127,17.711l1.993,0.746l4.942,1.604l-53.183-101.1L-259.212,939.554z M-241.922,884.621
		l14.584-16.48l8.523-9.674l37.627-42.65l43.331-12.283l9.415-10.258l-53.15,15.573l-5.526,1.588l-9.123,10.663l-25.49,29.783
		l-6.741,7.973l-24.745,28.877l-12.769,14.908l-2.317,2.625v9.236l12.202-13.888L-241.922,884.621z M-271.414,810.777
		l-13.952,14.988l-16.124,17.355l-0.049,18.052l-0.048,28.73l-0.065,11.765l-0.421,176.013v0.47v0.309l1.053-1.734l3.743-6.223
		l2.317-3.808l0.681-163.472l0.049-11.828l0.162-41.84l22.768-28.002l2.463-3.047v-0.08l-0.048-10.322L-271.414,810.777z" />
		<path fill="#27A349" d="M28.053,728.928c-2.14-0.453-4.44-1.766-4.44-1.766s-18.498-9.739-30.845-14.812
		c-6.79-2.819-11.003-2.382-11.003-2.382l-7.325,1.102c0,0,0.989,1.961,2.625,3.89c1.831,2.22,13.142,11.052,21.649,14.552
		c8.54,3.564,17.744,3.856,17.744,3.856s4.958,0.097,9.521-0.924c4.342-0.924,8.296-2.966,8.296-2.966
		S31.099,729.625,28.053,728.928 M88.788,729.203c0,0,0.323,0,0.842-0.032c-0.162-0.13-0.194-0.259-0.194-0.259L88.788,729.203z
		 M146.54,709.969c-0.777-0.34-5.606-1.086-12.736,1.426c-9.236,3.371-20.84,9.302-23.334,10.857
		c-1.653,1.037-6.742,4.197-11.344,5.493c-4.019,1.085-7.908,1.378-9.496,1.442c0.616,0.777,3.014,3.209,6.773,4.311
		c4.603,1.393,11.311,0.713,11.311,0.713s10.273,0,20.807-5.574c10.08-5.412,20.386-16.286,20.386-16.286
		S148.29,710.617,146.54,709.969L146.54,709.969z" />
	</g>
</svg>
