<?xml version="1.0" encoding="utf-8"?>
<!-- Generator: Adobe Illustrator 16.0.0, SVG Export Plug-In . SVG Version: 6.00 Build 0)  -->
<!DOCTYPE svg PUBLIC "-//W3C//DTD SVG 1.1//EN" "http://www.w3.org/Graphics/SVG/1.1/DTD/svg11.dtd">
<svg version="1.1" id="Layer_1" xmlns="http://www.w3.org/2000/svg" xmlns:xlink="http://www.w3.org/1999/xlink" x="0px" y="0px"
	 width="595.28px" height="841.89px" viewBox="0 0 595.28 841.89" enable-background="new 0 0 595.28 841.89" xml:space="preserve">
<g>
	<path fill-rule="evenodd" clip-rule="evenodd" fill="#010101" d="M293.836,321.14c-11.55,0-23.023-5.099-25.729-13.709
		l-4.865-17.695c-19.437,5.42-46.089,16.736-58.078,16.736h-17.005c-7.288,0-5.259,0.798-10.558,7.653
		c-2.627,3.43-6.89,8.052-8.845,11.72c1.873,6.894,14.703,19.086,14.703,33.473v5.901c0,14.226-11.833,35.189-16.411,46.992
		c-6.777,17.369-8.849,29.969-8.849,54.042v1.145c0,43.245,23.825,61.101,50.512,77.56c12.904,7.934,29.8,13.076,45.973,18.02
		c7.527,2.35,17.2,5.264,24.021,8.29c11.347,5.099,11.069,7.969,18.64,13.033c7.684-5.143,7.007-8.1,18.723-12.99
		c7.448-3.113,15.695-5.585,23.543-8.177c16.017-5.256,32.103-9.6,45.37-17.457c25.252-15.019,51.544-34.868,51.544-74.723V450.98
		c0-32.641-19.441-53.76-24.697-79.346c-3.069-14.945,3.703-30.008,10.111-39.295c5.784-8.412,4.146-7.492-2.307-15.422
		c-5.688-6.977-5.177-10.445-13.059-10.445H396.01c-16.008,0-32.657-5.736-44.693-9.959c-5.775-1.995-11.352-4.067-16.85-6.019
		l-3.668,26.583l-29.912,4.063H293.836z"/>
	<path fill-rule="evenodd" clip-rule="evenodd" fill="#010101" d="M262.41,296.031c-6.135,1.756-12.231,3.867-18.206,5.936
		c-7.05,2.394-14.144,4.865-21.311,6.938c-5.376,1.557-12.071,3.386-17.729,3.386h-17.005c-0.559,0-1.556-0.039-2.276,0.043
		c-0.273,0.355-0.512,0.793-0.715,1.114c-0.958,1.435-1.908,2.827-2.944,4.223c-2.072,2.632-4.899,5.697-6.972,8.689
		c0.516,0.915,1.114,1.834,1.513,2.51c1.674,2.632,3.387,5.22,5.021,7.891c4.141,6.894,7.487,14.348,7.487,22.555v5.901
		c0,8.567-3.464,18.21-6.694,26.063c-1.791,4.306-3.703,8.533-5.658,12.756c-1.509,3.387-3.144,6.812-4.461,10.28
		c-2.112,5.342-3.941,10.762-5.255,16.381c-2.745,11.637-3.187,23.639-3.187,35.554v1.145c0,20.058,5.216,36.872,19.359,51.38
		c8.247,8.411,18.362,15.063,28.36,21.201c13.107,8.091,30,12.947,44.655,17.457c8.168,2.514,16.854,5.021,24.662,8.523
		c5.255,2.359,9.162,4.666,13.385,8.498c0.989,0.911,1.947,1.743,2.905,2.55c0.954-0.807,1.869-1.674,2.866-2.593
		c4.262-3.98,8.242-6.218,13.618-8.455c7.813-3.26,15.939-5.697,23.951-8.359c14.577-4.787,30.984-9.053,44.209-16.936
		c27.688-16.467,48.717-34.921,48.717-69.711V450.98c0-13.433-3.582-25.183-8.768-37.384c-4.934-11.637-10.952-22.871-14.412-35.068
		c-0.52-1.873-0.997-3.785-1.396-5.697c-3.104-15.184,2.429-31.326,10.996-43.8c0.477-0.681,1.674-2.311,2.264-3.426
		c-0.27-0.359-0.59-0.681-0.789-0.919c-1.153-1.396-2.351-2.71-3.469-4.106c-1.553-1.873-2.861-3.824-4.215-5.819
		c-0.364-0.555-1.084-1.673-1.604-2.072c-0.478-0.399-2.186-0.399-2.74-0.399H396.01c-15.973,0-31.66-5.06-46.602-10.28
		c-5.818-2.034-11.594-4.188-17.369-6.178c0.919,3.507,1.075,7.215,0.434,10.562c-1.066,6.019-4.414,11.078-9.4,14.625
		c-6.373,4.544-14.533,5.94-22.186,5.94h-7.051c-11.949,0-27.328-5.22-31.27-17.772C261.296,305.119,261.296,300.376,262.41,296.031
		L262.41,296.031z"/>
	<g>
		<path fill="#FFFFFF" d="M222.902,475.556l-24.185,5.948c-0.538,0.131-1.587-0.095-3.166-0.676
			c-1.578-0.581-2.61-1.093-3.087-1.526c-1.08-0.945-1.83-2.307-2.259-4.05c-0.191-0.771-0.316-1.569-0.369-2.376
			c-0.026-0.624-0.095-1.734-0.217-3.33l-0.308-4.214c-0.086-1.656-0.013-2.957,0.239-3.92c0.364-1.37,1.348-2.939,2.966-4.709
			c1.622-1.76,3.087-2.81,4.396-3.139l23.652-5.811l0.464,5.516l-16.676,4.093c-0.598,0.147-1.448,0.755-2.558,1.83
			c-1.323,1.301-1.938,2.419-1.856,3.355l0.139,1.491l21.419-5.264l0.473,5.637l-21.207,5.212c-0.187,0.295-0.19,0.789-0.026,1.457
			c0.251,1.015,0.893,1.839,1.942,2.489c1.036,0.633,2.06,0.823,3.079,0.572l16.675-4.102L222.902,475.556z"/>
	</g>
	<g>
		<path fill="#FFFFFF" d="M255.733,459.331c0.13,1.466-0.686,3.347-2.428,5.663c-1.748,2.314-3.347,3.685-4.804,4.109
			c-0.962,0.277-3.694,0.972-8.177,2.073c0.381-0.096-0.906,0.26-3.841,1.066c-1.526,0.416-2.758,0.659-3.712,0.72
			c-1.34,0.096-2.614-0.069-3.815-0.512c-1.569-0.563-2.584-1.058-3.052-1.482c-0.884-0.842-1.531-1.805-1.943-2.896
			c-0.329-0.911-0.55-2.064-0.654-3.443c-0.026-0.615-0.091-1.742-0.212-3.425c-0.087-0.624-0.251-1.83-0.477-3.607
			c-0.104-0.963-0.096-1.778,0.035-2.445c0.667-3.442,2.133-6.062,4.388-7.865c1.587-1.267,3.858-2.272,6.815-3.001
			c0.451-0.112,1.145-0.277,2.064-0.502c0.928-0.226,1.613-0.399,2.073-0.512c-0.477,0.112-0.555,0.139-0.234,0.061
			c0.33-0.087,0.928-0.234,1.786-0.442l3.478-0.858c1.102-0.27,2.168-0.46,3.208-0.59c1.557-0.174,3.33,0.398,5.316,1.708
			c1.76,1.188,2.792,2.385,3.096,3.607c0.052,0.217,0.087,0.391,0.095,0.512l0.239,3.174l-10.662,2.619
			c0.069-0.485,0.061-0.919-0.039-1.318c-0.256-1.032-1.041-1.864-2.346-2.479c-1.231-0.538-2.385-0.686-3.451-0.417
			c-3.62,0.885-5.229,3.538-4.843,7.927c0.03,0.312,0.091,0.901,0.178,1.769c0.229,2.55,0.546,4.258,0.971,5.099
			c0.928,1.908,2.628,2.559,5.086,1.951c1.075-0.26,2.164-0.945,3.261-2.029c1.596-1.569,2.146-3.183,1.656-4.83l10.666-2.619
			L255.733,459.331z"/>
	</g>
	<g>
		<path fill="#FFFFFF" d="M300.917,456.027l-18.826,4.622c-1.388,0.347-3.131-0.183-5.225-1.587
			c-1.869-1.275-2.962-2.559-3.282-3.868c-0.026-0.104-0.052-0.277-0.074-0.555l-1.682-19.841l10.667-2.619l1.543,18.263
			c0.078,0.824,0.746,1.562,1.995,2.203c1.249,0.633,2.285,0.858,3.1,0.659l11.316-2.784L300.917,456.027z"/>
	</g>
	<g>
		<path fill="#FFFFFF" d="M333.349,433.784c0.069,0.59,0.208,1.734,0.398,3.426c0.104,1.109,0.087,1.985-0.034,2.627
			c-0.677,3.435-2.15,6.044-4.388,7.839c-1.596,1.275-3.886,2.281-6.868,3.01c-0.451,0.112-1.127,0.277-2.012,0.494
			s-1.544,0.382-2.012,0.494c0.381-0.087-0.92,0.226-3.868,0.954c-1.543,0.416-2.792,0.667-3.746,0.729
			c-1.335,0.095-2.618-0.078-3.815-0.512c-1.525-0.546-2.532-1.05-3.018-1.491c-0.902-0.833-1.543-1.787-1.938-2.889
			c-0.339-0.944-0.556-2.09-0.66-3.434c-0.017-0.598-0.095-1.734-0.233-3.399c-0.087-0.624-0.234-1.829-0.434-3.599
			c-0.112-1.031-0.112-1.829,0-2.437c0.685-3.451,2.15-6.07,4.392-7.839c1.613-1.275,3.92-2.272,6.868-3.001
			c0.469-0.112,1.145-0.277,2.047-0.503c0.901-0.225,1.578-0.39,2.046-0.503c-0.45,0.113,0.815-0.199,3.781-0.928
			c3.295-0.893,5.845-1.015,7.684-0.347c1.214,0.451,2.202,0.988,2.913,1.604c1.093,0.954,1.873,2.323,2.307,4.119
			c0.208,0.814,0.329,1.673,0.382,2.584C333.158,431.305,333.227,432.302,333.349,433.784z M321.746,431.607
			c-0.902-2.072-2.637-2.792-5.168-2.168c-2.498,0.616-4.041,2.064-4.613,4.354c-0.243,0.997-0.261,2.74-0.07,5.238
			c0.139,1.795,0.243,2.826,0.277,3.112c0.643,3.348,2.55,4.622,5.741,3.842c2.358-0.581,3.833-1.917,4.457-4.007
			c0.347-1.145,0.451-2.887,0.313-5.229S322.231,432.691,321.746,431.607z"/>
	</g>
	<g>
		<path fill="#FFFFFF" d="M369.318,439.291l-32.103,7.891l-0.468-5.515l21.245-5.221c0.174-0.277,0.19-0.729,0.035-1.361
			c-0.226-0.894-0.851-1.674-1.908-2.341c-1.179-0.772-2.22-1.032-3.156-0.807l-16.685,4.102l-0.746-8.697
			c-0.139-1.7,0.712-3.712,2.533-6.036c1.82-2.246,3.59-3.59,5.271-4.006l23.656-5.811l0.451,5.516l-16.667,4.093
			c-0.624,0.156-1.474,0.763-2.584,1.83c-1.335,1.301-1.942,2.419-1.855,3.364l0.139,1.613l13.527-3.321
			c1.457-0.364,3.261,0.234,5.359,1.777c1.821,1.318,2.861,2.559,3.156,3.712c0.035,0.155,0.052,0.304,0.069,0.425L369.318,439.291z
			"/>
	</g>
	<g>
		<path fill="#FFFFFF" d="M231.318,509.011l-10.658,2.619l-1.531-18.202c-0.086-1.119-0.958-1.925-2.618-2.428
			c-1.345-0.408-2.385-0.512-3.118-0.338c-0.993,0.242-2.042,0.85-3.152,1.829c-1.37,1.196-2.012,2.367-1.917,3.503l1.553,18.28
			l-10.667,2.628l-1.682-19.841c-0.135-1.596,0.65-3.513,2.376-5.767c1.652-2.177,3.269-3.529,4.848-4.067
			c0.659-0.226,1.552-0.494,2.679-0.789c0.676-0.183,1.587-0.407,2.74-0.677l2.74-0.667c0.061-0.018,0.667-0.165,1.813-0.451
			c0.459-0.13,1.535-0.391,3.226-0.789c0.589-0.147,1.656-0.355,3.187-0.616c1.53-0.217,3.317,0.355,5.354,1.709
			c1.73,1.153,2.758,2.367,3.065,3.633c0.052,0.217,0.083,0.391,0.1,0.503L231.318,509.011z"/>
	</g>
	<g>
		<path fill="#FFFFFF" d="M265.016,486.785c0.083,0.599,0.212,1.734,0.395,3.426c0.104,1.109,0.095,1.985-0.017,2.627
			c-0.694,3.434-2.159,6.045-4.396,7.84c-1.596,1.274-3.89,2.28-6.873,3.009c-0.451,0.112-1.123,0.277-2.007,0.494
			c-0.885,0.217-1.552,0.382-2.012,0.494c0.377-0.095-0.915,0.226-3.868,0.954c-1.543,0.416-2.788,0.668-3.742,0.729
			c-1.34,0.096-2.615-0.078-3.82-0.512c-1.526-0.547-2.532-1.049-3.018-1.492c-0.897-0.832-1.543-1.786-1.942-2.887
			c-0.334-0.945-0.555-2.09-0.65-3.426c-0.026-0.607-0.1-1.743-0.238-3.408c-0.091-0.624-0.238-1.829-0.438-3.599
			c-0.108-1.032-0.104-1.829,0-2.428c0.689-3.46,2.159-6.079,4.396-7.848c1.622-1.284,3.911-2.272,6.873-3.001
			c0.455-0.112,1.136-0.277,2.038-0.503c0.906-0.226,1.583-0.39,2.042-0.503c-0.438,0.113,0.824-0.199,3.781-0.928
			c3.295-0.893,5.862-1.015,7.692-0.347c1.223,0.442,2.194,0.988,2.914,1.604c1.102,0.953,1.869,2.324,2.307,4.119
			c0.204,0.814,0.33,1.674,0.382,2.584C264.83,484.305,264.903,485.303,265.016,486.785z M253.427,484.608
			c-0.911-2.081-2.637-2.792-5.177-2.167c-2.498,0.615-4.041,2.055-4.613,4.353c-0.243,0.997-0.264,2.74-0.078,5.237
			c0.147,1.795,0.243,2.827,0.291,3.113c0.638,3.348,2.545,4.622,5.745,3.842c2.341-0.581,3.824-1.916,4.448-4.006
			c0.355-1.154,0.46-2.889,0.313-5.229C254.211,487.41,253.903,485.692,253.427,484.608z"/>
	</g>
	<g>
		<path fill="#FFFFFF" d="M300.777,473.292c0.057,0.668-0.212,1.64-0.806,2.948c-0.599,1.301-1.158,2.221-1.683,2.749
			c1.11,1.075,1.752,1.7,1.921,1.899c0.745,0.815,1.21,1.569,1.37,2.22c0.035,0.139,0.052,0.269,0.064,0.399l0.733,8.793
			l-10.662,2.619c0.005-2.559-0.151-4.484-0.481-5.819c-0.833-3.399-2.779-4.726-5.836-3.972c-2.207,0.538-3.659,1.743-4.361,3.607
			c-0.494,1.318-0.638,3.174-0.434,5.567c0.009,0.199,0.117,1.292,0.329,3.261l-10.666,2.627l-0.741-8.688
			c-0.052-0.65,0.221-1.665,0.828-3.062c0.585-1.301,1.145-2.22,1.665-2.749l-1.93-1.925c-0.724-0.815-1.17-1.561-1.34-2.255
			c-0.043-0.165-0.061-0.294-0.073-0.434l-0.746-8.688l10.662-2.619c0.056,1.752,0.104,2.888,0.147,3.408
			c0.078,0.91,0.195,1.708,0.364,2.402c0.832,3.398,2.774,4.726,5.814,3.979c2.142-0.528,3.577-1.717,4.305-3.555
			c0.547-1.379,0.716-3.296,0.512-5.759c-0.026-0.285-0.086-0.823-0.178-1.621l-0.182-1.509l10.666-2.619L300.777,473.292z"/>
	</g>
	<g>
		<path fill="#FFFFFF" d="M314.635,488.095l-10.666,2.619l-2.341-27.802l10.666-2.619L314.635,488.095z"/>
	</g>
	<g>
		<path fill="#FFFFFF" d="M350.067,465.869c0.087,0.59,0.208,1.726,0.399,3.417c0.104,1.11,0.086,1.978-0.018,2.628
			c-0.694,3.434-2.168,6.043-4.405,7.83c-1.596,1.274-3.885,2.28-6.868,3.018c-0.451,0.113-1.127,0.277-2.012,0.494
			s-1.543,0.382-2.012,0.494c0.381-0.096-0.902,0.226-3.867,0.945c-1.544,0.425-2.793,0.668-3.746,0.729
			c-1.336,0.104-2.602-0.061-3.816-0.503c-1.525-0.555-2.531-1.05-3.018-1.491c-0.901-0.833-1.543-1.795-1.942-2.888
			c-0.329-0.945-0.555-2.09-0.642-3.426c-0.035-0.606-0.104-1.743-0.242-3.407c-0.087-0.625-0.243-1.83-0.434-3.6
			c-0.122-1.031-0.104-1.838,0-2.428c0.693-3.46,2.15-6.078,4.387-7.848c1.631-1.283,3.92-2.281,6.868-3.009
			c0.469-0.104,1.146-0.278,2.047-0.495c0.901-0.225,1.578-0.39,2.046-0.502c-0.45,0.104,0.815-0.209,3.781-0.929
			c3.295-0.893,5.862-1.022,7.684-0.347c1.23,0.442,2.202,0.988,2.913,1.596c1.11,0.954,1.873,2.333,2.307,4.128
			c0.208,0.815,0.33,1.665,0.382,2.584C349.877,463.381,349.946,464.369,350.067,465.869z M338.482,463.676
			c-0.92-2.072-2.637-2.793-5.186-2.168c-2.498,0.615-4.041,2.063-4.613,4.37c-0.243,0.989-0.261,2.723-0.07,5.229
			c0.14,1.795,0.243,2.826,0.295,3.104c0.625,3.348,2.532,4.631,5.741,3.842c2.341-0.572,3.815-1.907,4.439-3.997
			c0.347-1.153,0.469-2.888,0.313-5.238C339.263,466.485,338.95,464.768,338.482,463.676z"/>
	</g>
	<g>
		<path fill="#FFFFFF" d="M385.396,463.545c0.122,1.457-0.693,3.356-2.428,5.672c-1.752,2.315-3.348,3.677-4.787,4.093
			c-0.937,0.277-3.659,0.963-8.169,2.072l-0.867,0.217l-2.445,0.563l-4.891,1.171c-1.248,0.313-2.948-0.233-5.081-1.63
			c-1.925-1.249-3.053-2.541-3.365-3.851c-0.034-0.078-0.052-0.251-0.069-0.521l-1.682-19.866l10.648-2.619l1.561,18.298
			c0.087,1.006,0.867,1.777,2.342,2.323c1.266,0.469,2.358,0.59,3.243,0.373c1.075-0.26,2.168-0.884,3.295-1.873
			c1.353-1.196,1.978-2.394,1.873-3.572l-1.526-18.193l10.666-2.628L385.396,463.545z"/>
	</g>
	<g>
		<path fill="#FFFFFF" d="M422.285,461.629l-32.103,7.891l-0.469-5.515l21.245-5.22c0.174-0.278,0.191-0.737,0.035-1.371
			c-0.208-0.884-0.85-1.664-1.908-2.341c-1.161-0.763-2.22-1.032-3.156-0.798l-16.684,4.102l-0.746-8.706
			c-0.139-1.691,0.711-3.703,2.532-6.026c1.821-2.246,3.59-3.591,5.272-4.007l23.656-5.81l0.468,5.497l-16.684,4.103
			c-0.625,0.155-1.475,0.771-2.585,1.838c-1.317,1.292-1.941,2.42-1.855,3.364l0.139,1.613l13.528-3.321
			c1.456-0.364,3.261,0.234,5.358,1.777c1.821,1.318,2.879,2.559,3.156,3.703c0.035,0.165,0.053,0.304,0.07,0.434L422.285,461.629z"
			/>
	</g>
	<path fill-rule="evenodd" clip-rule="evenodd" fill="#ED2224" d="M196.48,529.936c4.943,3.59,10.12,6.885,15.257,10.041
		c13.107,8.091,30,12.947,44.655,17.457c8.168,2.514,16.854,5.021,24.662,8.523c5.255,2.359,9.162,4.666,13.385,8.498
		c0.989,0.911,1.947,1.743,2.905,2.55c0.954-0.807,1.869-1.674,2.866-2.593c4.262-3.98,8.242-6.218,13.618-8.455
		c7.813-3.26,15.939-5.697,23.951-8.359c14.577-4.787,30.984-9.053,44.209-16.936c27.324-16.225,48.127-34.4,48.674-68.28
		L196.48,529.936z"/>
	<path fill-rule="evenodd" clip-rule="evenodd" fill="#ED2224" d="M262.41,296.031c-6.135,1.756-12.231,3.867-18.206,5.936
		c-7.05,2.394-14.144,4.865-21.311,6.938c-5.376,1.557-12.071,3.386-17.729,3.386h-17.005c-0.559,0-1.556-0.039-2.276,0.043
		c-0.273,0.355-0.512,0.793-0.715,1.114c-0.958,1.435-1.908,2.827-2.944,4.223c-2.072,2.632-4.899,5.697-6.972,8.689
		c0.516,0.915,1.114,1.834,1.513,2.51c1.674,2.632,3.387,5.22,5.021,7.891c4.141,6.894,7.487,14.348,7.487,22.555v5.901
		c0,8.567-3.464,18.21-6.694,26.063c-1.791,4.306-3.703,8.533-5.658,12.756c-1.509,3.387-3.144,6.812-4.461,10.28
		c-2.112,5.342-3.941,10.762-5.255,16.381c-1.474,6.174-2.268,12.479-2.71,18.774l246.578-60.58
		c-1.353-3.387-2.549-6.855-3.547-10.363c-0.52-1.873-0.997-3.785-1.396-5.697c-3.104-15.184,2.429-31.326,10.996-43.8
		c0.477-0.681,1.674-2.311,2.264-3.426c-0.27-0.359-0.59-0.681-0.789-0.919c-1.153-1.396-2.351-2.71-3.469-4.106
		c-1.553-1.873-2.861-3.824-4.215-5.819c-0.364-0.555-1.084-1.673-1.604-2.072c-0.478-0.399-2.186-0.399-2.74-0.399H396.01
		c-15.973,0-31.66-5.06-46.602-10.28c-5.818-2.034-11.594-4.188-17.369-6.178c0.919,3.507,1.075,7.215,0.434,10.562
		c-1.066,6.019-4.414,11.078-9.4,14.625c-6.373,4.544-14.533,5.94-22.186,5.94h-7.051c-11.949,0-27.328-5.22-31.27-17.772
		C261.296,305.119,261.296,300.376,262.41,296.031L262.41,296.031z"/>
	<path fill-rule="evenodd" clip-rule="evenodd" fill="#010101" d="M293.763,331.862c-0.841,0.876-1.683,2.15-1.839,4.063
		c-0.16,2.433,0.998,4.146,2.194,5.264c1.114,1.075,2.827,1.791,4.773,1.631c3.391-0.239,6.335-2.988,6.014-6.973
		c-0.112-1.717-0.988-3.147-1.864-4.027c-1.157-1.153-2.788-2.112-5.264-1.912C295.987,330.067,294.678,330.943,293.763,331.862
		L293.763,331.862z M298.06,382.514c-3.426,3.867-7.488,7.414-12.388,10.046c-4.856,2.588-10.597,4.622-17.408,4.981
		c-15.015,0.837-24.979-5.064-32.545-12.079c-0.043-0.078-0.16-0.161,0-0.078c5.377,4.184,11.75,7.492,21.033,7.375
		c8.802-0.082,15.817-3.59,20.673-7.774c5.06-4.383,8.923-10.164,10.679-17.734c0.915-3.984,1.032-8.771,0.273-12.916
		c-0.75-3.984-2.068-7.41-3.785-10.437c-3.421-5.857-8.52-10.645-14.933-13.515c-3.347-1.513-7.093-2.51-11.433-2.788
		c-4.544-0.32-8.724,0.438-12.349,1.674c-6.929,2.354-12.431,6.616-16.294,12.158c-3.863,5.537-6.573,12.791-5.693,22.316
		c-1.474-6.178-0.958-14.026,0.478-19.529c1.513-5.701,4.102-10.601,7.128-14.625c6.218-8.29,14.941-14.23,27.047-16.463
		c-1.947-5.22-3.109-12.192-2.351-19.407c0.677-6.534,2.827-12.192,5.498-16.736c5.459-9.327,13.74-16.104,25.014-19.49
		c-6.886,2.87-12.188,7.214-15.93,13.189c-1.834,2.871-3.387,6.46-4.224,10.402c-0.876,3.989-0.958,8.888-0.082,13.232
		c1.596,7.931,5.541,13.827,10.8,18.371c4.938,4.267,11.95,7.891,21.15,7.891c9.201,0,16.251-3.585,21.229-7.891
		c5.22-4.5,9.209-10.44,10.762-18.371c0.832-4.305,0.798-9.244-0.087-13.232c-0.876-3.941-2.385-7.492-4.223-10.402
		c-3.738-5.975-9.002-10.363-15.931-13.15c5.654,1.474,10.519,4.262,14.698,7.531c4.146,3.269,7.692,7.336,10.363,11.958
		c2.662,4.661,4.734,10.164,5.454,16.858c0.798,7.132-0.398,14.147-2.394,19.368c11.872,2.471,20.552,8.489,26.648,16.896
		c3.026,4.106,5.42,9.088,6.894,14.906c1.396,5.619,1.63,13.472,0.156,19.529c1.118-9.604-1.63-17.057-5.376-22.676
		c-3.781-5.619-9.201-10.042-16.095-12.475c-3.659-1.318-7.839-1.994-12.47-1.795c-4.302,0.2-8.203,1.279-11.508,2.749
		c-6.495,2.87-11.551,7.657-15.02,13.55c-1.751,2.991-3.147,6.577-3.858,10.522c-0.72,4.228-0.563,8.971,0.355,12.956
		c1.708,7.609,5.775,13.307,10.918,17.695c5.012,4.301,11.862,7.57,20.985,7.57c4.622,0,8.567-0.993,11.958-2.351
		c3.425-1.396,6.252-3.191,8.923-5.38c0.355-0.36-0.242,0.277-0.407,0.399c-3.503,3.547-7.839,6.495-12.661,8.689
		c-5.255,2.311-11.715,3.907-19.164,3.546c-7.05-0.32-12.981-2.193-17.924-4.864C305.669,390.045,301.445,386.58,298.06,382.514
		L298.06,382.514z M323.793,305.236c-1.631,2.471-3.591,4.583-5.819,6.421c-4.935-3.668-10.987-6.776-19.555-6.776
		c-8.485,0-14.577,3.065-19.477,6.776c-2.271-1.795-4.145-3.989-5.861-6.339c1.479-1.318,3.108-2.51,4.821-3.508
		c5.264-3.069,11.355-5.22,19.363-5.58c5.854-0.281,11.108,0.958,15.297,2.554C316.977,300.415,320.688,302.647,323.793,305.236
		L323.793,305.236z M258.902,329.547c3.226,0.239,5.897,0.998,8.446,1.917c-1.392,8.884,1.197,16.458,4.535,21.718
		c3.512,5.541,8.412,9.687,14.664,12.357c-0.56,3.065-1.518,5.775-2.706,8.247c-8.247-3.347-14.785-8.688-19.282-15.86
		c-2.232-3.547-4.063-7.609-5.22-12.396c-1.071-4.544-1.436-10.601-0.478-15.86C258.863,329.629,258.863,329.547,258.902,329.547
		L258.902,329.547z M337.893,329.469c0.199,0,0.156,0.282,0.156,0.399c0.962,4.86,0.52,11.277-0.512,15.704
		c-1.153,4.821-3.07,9.005-5.342,12.552c-4.7,7.253-11.316,12.673-19.797,15.943c-1.311-2.394-2.272-5.143-2.862-8.251
		c6.53-2.55,11.75-6.738,15.331-12.396c1.752-2.749,3.27-5.94,4.189-9.721c0.832-3.547,1.223-8.29,0.434-12.518
		C331.961,330.267,334.754,329.668,337.893,329.469L337.893,329.469z"/>
	<path fill-rule="evenodd" clip-rule="evenodd" fill="#161717" d="M281.969,537.15c0,0,0.833-1.197,1.99-0.642
		c1.153,0.598,15.492,8.212,21.666,8.532c1.475,0.035,3.59-0.156,5.585-1.396c2.029-1.197,75.278-50.616,75.278-50.616
		c1.075-0.842,3.07,1.396,1.83,2.271c-1.188,0.876-78.713,53.643-80.1,54.397c-2.594,1.474-3.227,1.951-5.979,1.353
		c-3.898-0.876-22.182-6.495-22.702-8.559C279.298,541.564,281.969,537.15,281.969,537.15L281.969,537.15z"/>
	<path fill-rule="evenodd" clip-rule="evenodd" fill="#161717" d="M394.18,509.565c0,0-1.318-0.676-2.072,0.355
		c-0.754,1.084-9.92,14.43-15.254,17.577c-1.274,0.764-3.226,1.518-5.575,1.396c-2.351-0.156-90.15-10.007-90.15-10.007
		c-1.353-0.234-2.068,2.714-0.594,2.913c1.513,0.2,94.603,11.049,96.198,11.083c2.983,0.078,3.781,0.234,5.94-1.596
		c3.026-2.593,16.649-16.06,16.164-18.089C398.603,512.245,394.18,509.565,394.18,509.565L394.18,509.565z"/>
</g>
</svg>
