<svg version="1.1" baseProfile="basic" id="Layer_1" xmlns="http://www.w3.org/2000/svg"
	xmlns:xlink="http://www.w3.org/1999/xlink" x="0px" y="0px" viewBox="-101.86 821.445 800 800" xml:space="preserve">
	<g>
		<path fill="#010101" d="M290.049,992.513c-26.506,0-52.837-11.703-59.047-31.461l-11.163-40.609
		c-44.607,12.438-105.772,38.408-133.285,38.408H47.529c-16.726,0-12.071,1.829-24.231,17.562
		C17.269,984.284,7.487,994.888,3,1003.311c4.298,15.817,33.742,43.801,33.742,76.816v13.541c0,32.649-27.156,80.758-37.662,107.844
		c-15.553,39.86-20.307,68.776-20.307,124.024v2.627c0,99.241,54.675,140.223,115.921,177.995
		c29.612,18.207,68.388,30.009,105.503,41.354c17.275,5.392,39.473,12.079,55.127,19.022c26.04,11.703,25.401,18.292,42.776,29.91
		c17.632-11.802,16.081-18.588,42.966-29.812c17.096-7.141,36.02-12.814,54.029-18.763c36.759-12.062,73.675-22.03,104.123-40.063
		c57.951-34.469,118.287-80.022,118.287-171.482v-45.841c0-74.912-44.612-123.374-56.678-182.097
		c-7.042-34.293,8.498-68.865,23.204-90.179c13.276-19.305,9.516-17.189-5.293-35.392c-13.053-16.011-11.883-23.967-29.969-23.967
		h-24.24c-36.736,0-74.948-13.164-102.567-22.855c-13.255-4.58-26.051-9.336-38.669-13.813l-8.418,61.003l-68.646,9.328H290.049
		L290.049,992.513z" />
		<path fill="#010101" d="M217.929,934.889c-14.081,4.029-28.07,8.875-41.782,13.621c-16.181,5.495-32.46,11.166-48.908,15.921
		c-12.337,3.572-27.703,7.772-40.686,7.772H47.529c-1.284,0-3.572-0.09-5.224,0.099c-0.627,0.816-1.174,1.82-1.64,2.555
		c-2.199,3.295-4.379,6.49-6.757,9.691c-4.755,6.042-11.241,13.074-16,19.941c1.184,2.102,2.557,4.209,3.472,5.76
		c3.841,6.042,7.772,11.98,11.524,18.108c9.502,15.822,17.181,32.931,17.181,51.766v13.541c0,19.659-7.949,41.788-15.361,59.812
		c-4.11,9.883-8.499,19.583-12.985,29.273c-3.462,7.772-7.216,15.634-10.237,23.595c-4.848,12.259-9.045,24.697-12.06,37.593
		c-6.3,26.705-7.315,54.249-7.315,81.595v2.627c0,46.033,11.97,84.616,44.428,117.915c18.926,19.301,42.138,34.567,65.083,48.65
		c30.081,18.57,68.848,29.713,102.48,40.063c18.745,5.773,38.68,11.524,56.597,19.561c12.06,5.415,21.026,10.708,30.717,19.503
		c2.27,2.093,4.469,4.002,6.667,5.854c2.188-1.852,4.291-3.842,6.576-5.952c9.78-9.135,18.915-14.268,31.251-19.404
		c17.934-7.48,36.579-13.074,54.966-19.184c33.455-10.986,71.106-20.775,101.456-38.866
		c63.545-37.79,111.802-80.139,111.802-159.981v-45.831c0-30.829-8.221-57.794-20.121-85.795
		c-11.322-26.705-25.133-52.487-33.075-80.479c-1.192-4.299-2.286-8.688-3.2-13.075c-7.127-34.846,5.571-71.891,25.235-100.515
		c1.094-1.564,3.841-5.303,5.194-7.862c-0.623-0.824-1.354-1.564-1.811-2.111c-2.648-3.204-5.396-6.217-7.96-9.422
		c-3.568-4.298-6.567-8.775-9.673-13.353c-0.838-1.277-2.488-3.841-3.685-4.755c-1.094-0.919-5.016-0.919-6.289-0.919h-24.235
		c-36.66,0-72.657-11.609-106.951-23.591c-13.349-4.666-26.606-9.609-39.861-14.177c2.111,8.045,2.47,16.557,1,24.239
		c-2.447,13.811-10.13,25.424-21.573,33.563c-14.626,10.426-33.353,13.631-50.914,13.631h-16.182
		c-27.422,0-62.716-11.981-71.763-40.784C215.372,955.745,215.372,944.858,217.929,934.889L217.929,934.889z" />
		<g>
			<path fill="#FFFFFF" d="M127.26,1346.885l-55.502,13.648c-1.235,0.301-3.642-0.215-7.266-1.551
			c-3.622-1.331-5.991-2.505-7.084-3.5c-2.479-2.17-4.2-5.294-5.184-9.297c-0.439-1.766-0.726-3.599-0.847-5.45
			c-0.061-1.435-0.22-3.98-0.498-7.643l-0.708-9.672c-0.197-3.802-0.029-6.787,0.549-8.996c0.836-3.143,3.093-6.746,6.807-10.807
			c3.722-4.039,7.084-6.45,10.089-7.203l54.278-13.335l1.065,12.658l-38.27,9.395c-1.371,0.336-3.323,1.73-5.869,4.2
			c-3.037,2.984-4.449,5.549-4.261,7.695l0.321,3.425l49.155-12.08l1.084,12.937l-48.668,11.958
			c-0.428,0.677-0.437,1.812-0.061,3.344c0.576,2.331,2.051,4.223,4.458,5.715c2.377,1.453,4.727,1.888,7.066,1.31l38.268-9.413
			L127.26,1346.885z" />
		</g>
		<g>
			<path fill="#FFFFFF" d="M202.604,1309.652c0.298,3.361-1.573,7.678-5.571,12.993c-4.012,5.312-7.68,8.458-11.024,9.431
			c-2.208,0.637-8.479,2.232-18.765,4.756c0.874-0.22-2.08,0.597-8.816,2.447c-3.501,0.955-6.329,1.516-8.519,1.654
			c-3.075,0.22-6-0.161-8.754-1.175c-3.602-1.295-5.93-2.429-7.006-3.401c-2.028-1.932-3.512-4.142-4.458-6.647
			c-0.755-2.089-1.262-4.737-1.501-7.902c-0.061-1.412-0.208-3.998-0.486-7.857c-0.199-1.435-0.576-4.2-1.093-8.278
			c-0.24-2.21-0.222-4.079,0.078-5.612c1.531-7.897,4.897-13.913,10.072-18.05c3.642-2.904,8.853-5.213,15.639-6.885
			c1.035-0.26,2.629-0.637,4.738-1.152c2.129-0.52,3.702-0.919,4.758-1.174c-1.096,0.255-1.275,0.318-0.538,0.139
			c0.758-0.201,2.129-0.538,4.099-1.018l7.981-1.968c2.53-0.618,4.975-1.053,7.362-1.354c3.575-0.398,7.643,0.914,12.201,3.922
			c4.039,2.726,6.408,5.473,7.104,8.274c0.119,0.498,0.2,0.901,0.218,1.179l0.549,7.284l-24.469,6.011
			c0.159-1.116,0.141-2.111-0.09-3.025c-0.587-2.371-2.389-4.281-5.383-5.693c-2.826-1.232-5.473-1.573-7.92-0.954
			c-8.308,2.03-11.999,8.117-11.114,18.193c0.069,0.713,0.208,2.066,0.408,4.057c0.526,5.854,1.252,9.771,2.229,11.703
			c2.129,4.379,6.031,5.872,11.672,4.478c2.465-0.596,4.966-2.169,7.483-4.657c3.662-3.599,4.924-7.306,3.801-11.084l24.478-6.011
			L202.604,1309.652z" />
		</g>
		<g>
			<path fill="#FFFFFF" d="M306.298,1302.068l-43.204,10.609c-3.185,0.793-7.185-0.422-11.99-3.645
			c-4.29-2.927-6.799-5.872-7.532-8.875c-0.061-0.242-0.121-0.637-0.17-1.277l-3.859-45.531l24.48-6.01l3.541,41.913
			c0.177,1.887,1.712,3.581,4.577,5.052c2.866,1.457,5.244,1.972,7.115,1.515l25.967-6.392L306.298,1302.068z" />
		</g>
		<g>
			<path fill="#FFFFFF" d="M380.726,1251.023c0.161,1.354,0.479,3.977,0.914,7.862c0.238,2.546,0.202,4.554-0.076,6.028
			c-1.555,7.885-4.935,13.868-10.071,17.987c-3.662,2.927-8.92,5.235-15.764,6.907c-1.031,0.26-2.587,0.637-4.617,1.135
			c-2.03,0.497-3.541,0.878-4.616,1.134c0.874-0.197-2.111,0.52-8.875,2.191c-3.541,0.955-6.41,1.528-8.598,1.672
			c-3.065,0.22-6.011-0.179-8.754-1.174c-3.5-1.255-5.813-2.412-6.93-3.425c-2.065-1.909-3.541-4.097-4.446-6.629
			c-0.775-2.165-1.277-4.797-1.515-7.88c-0.04-1.372-0.215-3.98-0.533-7.8c-0.202-1.434-0.538-4.199-0.995-8.261
			c-0.26-2.366-0.26-4.195,0-5.594c1.568-7.92,4.931-13.927,10.076-17.987c3.702-2.927,8.996-5.213,15.764-6.889
			c1.076-0.256,2.627-0.637,4.697-1.152c2.066-0.516,3.622-0.896,4.693-1.156c-1.031,0.26,1.874-0.457,8.678-2.129
			c7.562-2.049,13.415-2.331,17.633-0.798c2.788,1.035,5.057,2.268,6.688,3.684c2.511,2.188,4.299,5.33,5.294,9.453
			c0.479,1.865,0.758,3.837,0.879,5.931C380.286,1245.331,380.448,1247.622,380.726,1251.023z M354.097,1246.026
			c-2.066-4.756-6.051-6.405-11.86-4.976c-5.732,1.412-9.273,4.737-10.582,9.991c-0.561,2.29-0.601,6.288-0.162,12.021
			c0.318,4.119,0.556,6.485,0.637,7.14c1.475,7.688,5.85,10.609,13.174,8.821c5.41-1.336,8.794-4.401,10.229-9.197
			c0.798-2.627,1.035-6.625,0.717-11.999C355.935,1252.453,355.213,1248.513,354.097,1246.026z" />
		</g>
		<g>
			<path fill="#FFFFFF" d="M463.272,1263.659l-73.671,18.108l-1.076-12.653l48.754-11.981c0.403-0.636,0.439-1.676,0.081-3.124
			c-0.516-2.053-1.95-3.841-4.38-5.374c-2.702-1.771-5.092-2.366-7.238-1.852l-38.292,9.413l-1.712-19.96
			c-0.318-3.899,1.631-8.516,5.813-13.854c4.177-5.149,8.238-8.238,12.098-9.192l54.284-13.335l1.035,12.657l-38.247,9.396
			c-1.434,0.358-3.384,1.752-5.93,4.199c-3.065,2.985-4.455,5.554-4.258,7.724l0.317,3.702l31.045-7.624
			c3.344-0.834,7.485,0.537,12.299,4.078c4.178,3.025,6.566,5.872,7.244,8.521c0.08,0.354,0.116,0.694,0.156,0.973L463.272,1263.659
			z" />
		</g>
		<g>
			<path fill="#FFFFFF" d="M146.573,1423.663l-24.458,6.011l-3.514-41.775c-0.197-2.568-2.199-4.415-6.008-5.571
			c-3.086-0.937-5.473-1.174-7.156-0.775c-2.279,0.556-4.686,1.95-7.232,4.2c-3.145,2.743-4.619,5.433-4.402,8.036l3.566,41.954
			l-24.48,6.029l-3.861-45.535c-0.31-3.662,1.493-8.06,5.453-13.232c3.792-4.997,7.503-8.1,11.127-9.336
			c1.513-0.516,3.562-1.13,6.147-1.812c1.551-0.417,3.642-0.932,6.289-1.551l6.289-1.532c0.139-0.041,1.531-0.377,4.16-1.036
			c1.053-0.296,3.523-0.896,7.405-1.811c1.352-0.336,3.799-0.812,7.313-1.412c3.512-0.497,7.613,0.816,12.288,3.922
			c3.969,2.645,6.329,5.433,7.033,8.337c0.119,0.498,0.19,0.896,0.229,1.157L146.573,1423.663z" />
		</g>
		<g>
			<path fill="#FFFFFF" d="M223.908,1372.654c0.19,1.376,0.486,3.98,0.907,7.862c0.238,2.546,0.218,4.559-0.04,6.028
			c-1.591,7.885-4.955,13.873-10.087,17.992c-3.665,2.927-8.929,5.235-15.773,6.907c-1.036,0.255-2.578,0.637-4.605,1.134
			c-2.033,0.498-3.563,0.874-4.619,1.134c0.865-0.22-2.1,0.521-8.877,2.188c-3.541,0.955-6.396,1.533-8.586,1.677
			c-3.077,0.22-6.002-0.18-8.768-1.179c-3.503-1.256-5.811-2.407-6.927-3.425c-2.057-1.905-3.541-4.097-4.456-6.625
			c-0.766-2.165-1.272-4.796-1.492-7.861c-0.059-1.395-0.229-3.999-0.545-7.822c-0.21-1.43-0.547-4.195-1.006-8.256
			c-0.249-2.371-0.238-4.2,0-5.571c1.582-7.943,4.955-13.954,10.089-18.015c3.72-2.944,8.974-5.213,15.773-6.885
			c1.042-0.26,2.606-0.637,4.675-1.156c2.08-0.516,3.633-0.892,4.686-1.152c-1.004,0.261,1.892-0.457,8.678-2.129
			c7.562-2.053,13.454-2.331,17.653-0.798c2.806,1.013,5.034,2.269,6.688,3.68c2.528,2.188,4.29,5.334,5.293,9.453
			c0.469,1.869,0.758,3.842,0.876,5.931C223.483,1366.961,223.648,1369.252,223.908,1372.654z M197.313,1367.661
			c-2.091-4.778-6.051-6.409-11.88-4.975c-5.733,1.411-9.274,4.715-10.587,9.99c-0.558,2.286-0.605,6.289-0.179,12.018
			c0.338,4.119,0.558,6.49,0.667,7.145c1.463,7.683,5.84,10.604,13.185,8.816c5.372-1.331,8.776-4.397,10.208-9.193
			c0.813-2.648,1.056-6.629,0.717-11.999C199.113,1374.088,198.404,1370.149,197.313,1367.661z" />
		</g>
		<g>
			<path fill="#FFFFFF" d="M305.975,1341.691c0.135,1.532-0.483,3.761-1.847,6.764c-1.376,2.985-2.657,5.096-3.863,6.311
			c2.546,2.466,4.021,3.899,4.41,4.357c1.708,1.869,2.774,3.599,3.143,5.096c0.08,0.318,0.121,0.614,0.147,0.915l1.681,20.179
			l-24.467,6.011c0.011-5.872-0.347-10.291-1.105-13.357c-1.912-7.799-6.376-10.843-13.393-9.112
			c-5.065,1.232-8.398,3.998-10.007,8.279c-1.134,3.021-1.466,7.283-0.998,12.774c0.021,0.457,0.269,2.963,0.755,7.48l-24.478,6.028
			l-1.701-19.937c-0.119-1.493,0.509-3.819,1.9-7.028c1.343-2.985,2.629-5.092,3.821-6.307l-4.428-4.42
			c-1.663-1.869-2.685-3.581-3.075-5.172c-0.099-0.381-0.141-0.677-0.168-0.995l-1.712-19.941l24.469-6.011
			c0.128,4.024,0.238,6.629,0.336,7.821c0.179,2.089,0.448,3.922,0.836,5.513c1.909,7.8,6.367,10.848,13.344,9.131
			c4.915-1.21,8.209-3.94,9.879-8.158c1.255-3.164,1.643-7.562,1.174-13.213c-0.059-0.655-0.197-1.892-0.408-3.721l-0.417-3.465
			l24.476-6.011L305.975,1341.691z" />
		</g>
		<g>
			<path fill="#FFFFFF" d="M337.781,1375.662l-24.478,6.011l-5.375-63.805l24.479-6.011L337.781,1375.662z" />
		</g>
		<g>
			<path fill="#FFFFFF" d="M419.094,1324.654c0.197,1.354,0.476,3.962,0.915,7.844c0.237,2.546,0.197,4.536-0.041,6.028
			c-1.591,7.88-4.975,13.868-10.107,17.97c-3.666,2.923-8.92,5.235-15.764,6.925c-1.036,0.26-2.587,0.637-4.617,1.134
			c-2.03,0.498-3.541,0.879-4.616,1.135c0.874-0.22-2.071,0.52-8.875,2.169c-3.546,0.978-6.41,1.533-8.598,1.672
			c-3.065,0.242-5.97-0.139-8.758-1.151c-3.501-1.273-5.81-2.412-6.925-3.425c-2.066-1.909-3.541-4.119-4.456-6.625
			c-0.757-2.169-1.277-4.796-1.475-7.861c-0.08-1.395-0.237-4.003-0.556-7.822c-0.201-1.434-0.556-4.199-0.995-8.261
			c-0.282-2.366-0.237-4.218,0-5.571c1.591-7.942,4.935-13.948,10.067-18.01c3.742-2.944,8.996-5.235,15.76-6.907
			c1.08-0.237,2.631-0.637,4.697-1.134c2.07-0.521,3.621-0.896,4.697-1.152c-1.031,0.238,1.869-0.479,8.678-2.133
			c7.562-2.049,13.451-2.345,17.633-0.798c2.824,1.017,5.052,2.268,6.688,3.662c2.547,2.191,4.295,5.355,5.294,9.475
			c0.476,1.869,0.758,3.824,0.874,5.931C418.659,1318.943,418.817,1321.211,419.094,1324.654z M392.505,1319.62
			c-2.111-4.755-6.051-6.409-11.9-4.975c-5.732,1.411-9.273,4.737-10.587,10.031c-0.556,2.268-0.596,6.248-0.161,11.999
			c0.322,4.119,0.561,6.485,0.677,7.122c1.435,7.683,5.813,10.627,13.178,8.816c5.37-1.309,8.754-4.375,10.188-9.171
			c0.793-2.645,1.075-6.629,0.717-12.021C394.298,1326.07,393.581,1322.125,392.505,1319.62z" />
		</g>
		<g>
			<path fill="#FFFFFF" d="M500.169,1319.32c0.283,3.344-1.591,7.705-5.571,13.017c-4.021,5.315-7.683,8.439-10.986,9.395
			c-2.151,0.637-8.395,2.21-18.744,4.756l-1.99,0.497l-5.612,1.291l-11.224,2.689c-2.864,0.717-6.768-0.538-11.662-3.742
			c-4.415-2.864-7.006-5.832-7.724-8.84c-0.076-0.175-0.116-0.573-0.156-1.191l-3.859-45.594l24.438-6.011l3.581,41.994
			c0.197,2.309,1.99,4.079,5.374,5.329c2.904,1.076,5.41,1.354,7.44,0.856c2.47-0.597,4.976-2.026,7.562-4.299
			c3.106-2.743,4.541-5.49,4.299-8.198l-3.501-41.747l24.478-6.033L500.169,1319.32z" />
		</g>
		<g>
			<path fill="#FFFFFF" d="M584.826,1314.922l-73.671,18.108l-1.076-12.653l48.754-11.981c0.399-0.636,0.439-1.689,0.081-3.146
			c-0.479-2.025-1.95-3.818-4.38-5.369c-2.662-1.753-5.096-2.371-7.243-1.834l-38.287,9.413l-1.712-19.978
			c-0.318-3.882,1.631-8.498,5.809-13.832c4.182-5.15,8.238-8.238,12.102-9.193l54.29-13.335l1.071,12.618l-38.288,9.412
			c-1.435,0.359-3.384,1.771-5.935,4.218c-3.021,2.968-4.45,5.554-4.254,7.724l0.318,3.702l31.045-7.624
			c3.344-0.834,7.485,0.537,12.295,4.078c4.182,3.026,6.611,5.872,7.243,8.499c0.08,0.381,0.121,0.699,0.161,0.995L584.826,1314.922
			z" />
		</g>
		<path fill="#ED2224" d="M66.623,1471.681c11.345,8.242,23.225,15.805,35.013,23.043c30.081,18.57,68.848,29.713,102.48,40.063
		c18.745,5.773,38.68,11.524,56.597,19.561c12.06,5.415,21.026,10.708,30.717,19.503c2.27,2.093,4.469,4.002,6.667,5.854
		c2.188-1.852,4.291-3.842,6.576-5.952c9.78-9.135,18.915-14.268,31.251-19.404c17.934-7.48,36.579-13.074,54.966-19.184
		c33.455-10.986,71.106-20.775,101.456-38.866c62.707-37.234,110.447-78.946,111.702-156.695L66.623,1471.681z" />
		<path fill="#ED2224" d="M217.929,934.889c-14.081,4.029-28.07,8.875-41.782,13.621c-16.181,5.495-32.46,11.166-48.908,15.921
		c-12.337,3.572-27.703,7.772-40.686,7.772H47.529c-1.284,0-3.572-0.09-5.224,0.099c-0.627,0.816-1.174,1.82-1.64,2.555
		c-2.199,3.295-4.379,6.49-6.757,9.691c-4.755,6.042-11.241,13.074-16,19.941c1.184,2.102,2.557,4.209,3.472,5.76
		c3.841,6.042,7.772,11.98,11.524,18.108c9.502,15.822,17.181,32.931,17.181,51.766v13.541c0,19.659-7.949,41.788-15.361,59.812
		c-4.11,9.883-8.499,19.583-12.985,29.273c-3.462,7.772-7.216,15.634-10.237,23.595c-4.848,12.259-9.045,24.697-12.06,37.593
		c-3.384,14.168-5.206,28.637-6.219,43.083l565.876-139.026c-3.106-7.772-5.85-15.732-8.14-23.782
		c-1.192-4.299-2.291-8.688-3.205-13.075c-7.122-34.846,5.576-71.891,25.235-100.515c1.094-1.564,3.841-5.303,5.194-7.862
		c-0.618-0.824-1.354-1.564-1.811-2.111c-2.645-3.204-5.392-6.217-7.96-9.422c-3.563-4.298-6.567-8.775-9.673-13.353
		c-0.834-1.277-2.488-3.841-3.68-4.755c-1.099-0.919-5.016-0.919-6.289-0.919h-24.24c-36.66,0-72.657-11.609-106.951-23.591
		c-13.349-4.666-26.606-9.609-39.861-14.177c2.111,8.045,2.47,16.557,1,24.239c-2.447,13.811-10.13,25.424-21.573,33.563
		c-14.626,10.426-33.353,13.631-50.914,13.631h-16.182c-27.422,0-62.716-11.981-71.763-40.784
		C215.372,955.745,215.372,944.858,217.929,934.889L217.929,934.889z" />
		<path fill="#010101" d="M289.881,1017.116c-1.93,2.013-3.862,4.936-4.22,9.323c-0.368,5.585,2.291,9.516,5.036,12.084
		c2.555,2.466,6.485,4.11,10.953,3.743c7.781-0.552,14.536-6.857,13.801-16.002c-0.255-3.944-2.268-7.226-4.275-9.242
		c-2.658-2.649-6.401-4.85-12.085-4.388C294.984,1012.997,291.98,1015.009,289.881,1017.116L289.881,1017.116z M299.74,1133.359
		c-7.861,8.875-17.184,17.015-28.428,23.058c-11.145,5.938-24.318,10.604-39.951,11.43c-34.458,1.918-57.324-11.623-74.688-27.724
		c-0.099-0.179-0.367-0.367,0-0.179c12.34,9.605,26.965,17.194,48.27,16.925c20.199-0.188,36.297-8.238,47.443-17.839
		c11.611-10.059,20.477-23.326,24.507-40.699c2.1-9.14,2.369-20.126,0.627-29.642c-1.721-9.14-4.747-17.006-8.687-23.948
		c-7.851-13.442-19.554-24.434-34.27-31.018c-7.683-3.474-16.279-5.76-26.239-6.4c-10.428-0.731-20.02,1.008-28.339,3.846
		c-15.903,5.4-28.53,15.181-37.394,27.897c-8.866,12.707-15.085,29.354-13.065,51.214c-3.382-14.177-2.199-32.187,1.098-44.817
		c3.472-13.08,9.413-24.326,16.358-33.563c14.269-19.022,34.287-32.653,62.07-37.781c-4.469-11.977-7.136-27.979-5.396-44.536
		c1.555-14.993,6.488-27.978,12.617-38.408c12.528-21.402,31.533-36.956,57.407-44.729c-15.804,6.589-27.971,16.558-36.56,30.269
		c-4.208,6.589-7.772,14.827-9.693,23.873c-2.01,9.152-2.198,20.394-0.188,30.367c3.662,18.198,12.716,31.729,24.785,42.16
		c11.333,9.789,27.425,18.108,48.539,18.108c21.112,0,37.293-8.229,48.718-18.108c11.977-10.327,21.135-23.962,24.697-42.16
		c1.91-9.884,1.829-21.215-0.201-30.367c-2.008-9.046-5.473-17.194-9.69-23.873c-8.579-13.711-20.659-23.782-36.558-30.179
		c12.972,3.384,24.137,9.78,33.729,17.283c9.517,7.504,17.651,16.836,23.783,27.445c6.109,10.694,10.865,23.325,12.515,38.687
		c1.833,16.364-0.914,32.465-5.495,44.446c27.248,5.67,47.167,19.484,61.156,38.775c6.947,9.422,12.438,20.856,15.822,34.209
		c3.205,12.896,3.742,30.919,0.358,44.818c2.563-22.039-3.743-39.144-12.34-52.039c-8.678-12.896-21.116-23.048-36.934-28.633
		c-8.399-3.021-17.992-4.572-28.619-4.119c-9.875,0.462-18.826,2.936-26.41,6.311c-14.903,6.585-26.508,17.57-34.468,31.099
		c-4.021,6.862-7.226,15.092-8.857,24.146c-1.649,9.704-1.291,20.587,0.815,29.731c3.922,17.463,13.255,30.537,25.056,40.609
		c11.502,9.869,27.226,17.373,48.162,17.373c10.605,0,19.66-2.277,27.44-5.396c7.862-3.205,14.349-7.324,20.479-12.345
		c0.812-0.829-0.556,0.632-0.937,0.914c-8.036,8.141-17.987,14.904-29.054,19.942c-12.063,5.302-26.885,8.964-43.98,8.135
		c-16.181-0.734-29.789-5.033-41.134-11.16C317.203,1150.643,307.508,1142.691,299.74,1133.359L299.74,1133.359z M358.799,956.014
		c-3.747,5.67-8.243,10.515-13.357,14.733c-11.327-8.418-25.213-15.55-44.877-15.55c-19.472,0-33.452,7.033-44.698,15.55
		c-5.211-4.12-9.512-9.153-13.449-14.546c3.393-3.025,7.131-5.759,11.062-8.05c12.082-7.046,26.06-11.981,44.438-12.806
		c13.433-0.646,25.494,2.196,35.104,5.858C343.156,944.947,351.672,950.071,358.799,956.014L358.799,956.014z M209.876,1011.804
		c7.405,0.547,13.535,2.291,19.384,4.397c-3.193,20.39,2.748,37.772,10.408,49.843c8.059,12.717,19.305,22.232,33.653,28.359
		c-1.286,7.033-3.485,13.254-6.21,18.924c-18.926-7.678-33.931-19.937-44.251-36.396c-5.121-8.14-9.323-17.463-11.979-28.449
		c-2.458-10.426-3.297-24.325-1.098-36.396C209.787,1011.993,209.787,1011.804,209.876,1011.804L209.876,1011.804z
		 M391.156,1011.625c0.457,0,0.358,0.646,0.358,0.914c2.205,11.156,1.192,25.881-1.179,36.042
		c-2.645,11.063-7.042,20.663-12.259,28.803c-10.785,16.647-25.966,29.086-45.433,36.589c-3.008-5.495-5.213-11.802-6.566-18.933
		c14.984-5.854,26.965-15.464,35.181-28.449c4.021-6.311,7.508-13.631,9.615-22.309c1.909-8.14,2.806-19.026,0.995-28.727
		C377.543,1013.458,383.953,1012.083,391.156,1011.625L391.156,1011.625z" />
		<path fill="#161717" d="M262.814,1488.239c0,0,1.912-2.748,4.567-1.475c2.645,1.376,35.55,18.848,49.723,19.583
		c3.384,0.08,8.238-0.359,12.814-3.205c4.657-2.748,172.756-116.158,172.756-116.158c2.47-1.937,7.046,3.2,4.2,5.208
		c-2.726,2.013-180.641,123.11-183.822,124.841c-5.953,3.38-7.405,4.473-13.721,3.102c-8.946-2.008-50.906-14.903-52.099-19.642
		C256.685,1498.369,262.814,1488.239,262.814,1488.239L262.814,1488.239z" />
		<path fill="#161717" d="M520.33,1424.935c0,0-3.025-1.555-4.755,0.812c-1.73,2.487-22.766,33.115-35.007,40.341
		c-2.927,1.752-7.405,3.482-12.797,3.2c-5.393-0.354-206.885-22.963-206.885-22.963c-3.106-0.538-4.747,6.226-1.363,6.683
		c3.472,0.462,217.104,25.356,220.766,25.438c6.845,0.179,8.678,0.538,13.631-3.662c6.943-5.952,38.207-36.857,37.096-41.515
		C530.479,1431.085,520.33,1424.935,520.33,1424.935L520.33,1424.935z" />
	</g>
</svg>
