<?xml version="1.0" encoding="utf-8"?>
<!-- Generator: Adobe Illustrator 16.0.0, SVG Export Plug-In . SVG Version: 6.00 Build 0)  -->
<!DOCTYPE svg PUBLIC "-//W3C//DTD SVG 1.1//EN" "http://www.w3.org/Graphics/SVG/1.1/DTD/svg11.dtd">
<svg version="1.1" id="Layer_1" xmlns="http://www.w3.org/2000/svg" xmlns:xlink="http://www.w3.org/1999/xlink" x="0px" y="0px"
	 width="263.039px" height="210.274px" viewBox="0 0 263.039 210.274" enable-background="new 0 0 263.039 210.274"
	 xml:space="preserve">
<path fill-rule="evenodd" clip-rule="evenodd" fill="#243E90" d="M43.43,124.974c-2.191-2.539-3.379-5.516-4.594-8.594
	c-0.265-0.672-0.621-1.66-0.992-2.43c-12.008-6.926-12.23-27.852-12.781-40.613c-0.203-0.274-0.398-0.551-0.582-0.836
	c-2.965-4.574-2.922-9.813-2.172-15.016c0.195-1.359,0.625-3.133,0.75-4.609c-0.238-0.379-0.523-0.774-0.742-1.098l-1.543-2.306
	L20.7,46.705c-0.102-3.988,0.504-7.813,0.847-11.711l-1.914-1.285l0.301-5.441c0.336-6.031,0.508-12.055,1.309-18.048
	c0.472-3.526,2.343-6.652,5.406-8.522c6.144-3.762,13.324-0.762,17.836,4.059c3.242,3.461,7.222,6.512,10.937,9.449
	c5.328,4.215,10.731,8.336,15.989,12.637c11.363,9.3,28.238,23.851,28.722,39.636c0.004,0.211,0.004,0.418,0,0.629
	c17.317-15.351,45.461-15.351,62.779,0c-0.004-0.211-0.004-0.418,0.004-0.629c0.48-15.785,17.355-30.336,28.717-39.636
	c5.258-4.301,10.66-8.422,15.99-12.637c3.717-2.938,7.695-5.988,10.936-9.449c4.514-4.82,11.691-7.82,17.842-4.059
	c3.057,1.871,4.93,4.996,5.4,8.522c0.803,5.993,0.979,12.017,1.311,18.048l0.305,5.441l-1.918,1.285
	c0.346,3.897,0.949,7.723,0.846,11.707l-0.068,2.772l-1.543,2.306c-0.221,0.324-0.51,0.719-0.746,1.098
	c0.125,1.48,0.553,3.25,0.75,4.609c0.797,5.52,0.672,11.391-2.754,15.905c-0.553,12.759-0.789,33.641-12.777,40.559
	c-0.375,0.77-0.727,1.758-0.998,2.43c-1.234,3.137-2.449,6.164-4.717,8.734c-2.262,2.563-5.193,4.07-8.439,4.598l-1.314,2.469
	l-2.711,5.422l-0.15,0.223c-1.311,1.988-3.053,3.531-5.043,4.742h61.207l-11.928,67.707h-39.357l0.93-5.363H0l14.207-79.938H43.43z
	 M43.43,124.974"/>
<path fill-rule="evenodd" clip-rule="evenodd" fill="#F6EB16" d="M227.361,146.981h30.418l-10.375,58.875H217l0.93-5.359H5.27
	l12.641-71.105h79.902l-3.215,17.59H227.361z M227.361,146.981"/>
<path fill-rule="evenodd" clip-rule="evenodd" fill="#243E90" d="M18.395,151.399h33.957l-7.863,44.68h-8.938l6.258-35.742h-3.578
	l-6.254,35.742h-8.934l6.254-35.742h-3.574l-6.254,35.742h-8.937L18.395,151.399z M69.508,196.079H48.063l7.863-44.68h21.446
	l-5.661,32.168H59.204l-0.657,3.574h12.508L69.508,196.079z M66.829,160.337h-3.575l-2.504,14.297h3.575L66.829,160.337z
	 M98.282,174.634H85.77l-0.652,3.574h12.507l-3.097,17.871h-8.875l1.547-8.938h-3.633l-1.547,8.938h-8.938l7.864-44.68h21.445
	L98.282,174.634z M90.954,165.696l0.894-5.359h-3.574l-0.895,5.359H90.954z M108.586,187.142h3.575l2.203-12.566h8.937
	l-3.754,21.504H98.102l7.863-44.68h21.446l-3.454,19.66h-8.937l1.848-10.723h-3.575L108.586,187.142z M144.567,196.079h-21.445
	l7.863-44.68h21.444l-5.655,32.168h-12.512l-0.656,3.574h12.513L144.567,196.079z M141.887,160.337h-3.574l-2.5,14.297h3.574
	L141.887,160.337z M156.007,151.399h21.447l-7.865,44.68h-8.936l6.254-35.742h-3.576l-6.252,35.742h-8.938L156.007,151.399z
	 M181.029,151.399h21.443l-7.861,44.68h-21.445l5.656-32.168h12.51l0.598-3.574h-12.512L181.029,151.399z M183.65,187.142h3.572
	l2.5-14.297h-3.572L183.65,187.142z M223.382,174.634h-12.51l-0.658,3.574h12.514l-3.1,17.871h-8.875l1.547-8.938h-3.633
	l-1.549,8.938h-8.936l7.863-44.68h21.447L223.382,174.634z M216.054,165.696l0.896-5.359h-3.576l-0.893,5.359H216.054z
	 M240.003,151.399l-5.064,28.594h3.572l5.068-28.594h8.932l-8.814,50.039H222.25l1.547-8.934h12.512l0.656-3.574h-12.51
	l6.613-37.531H240.003z M240.003,151.399"/>
<path fill-rule="evenodd" clip-rule="evenodd" fill="#F6EB16" d="M100.434,124.396l16.855,4.586v14.781
	c1.211,0.125,2.473,0.195,3.262,0.25c3.641,0.238,7.321,0.316,10.973,0.316c3.647,0,7.328-0.078,10.97-0.316
	c0.789-0.055,2.049-0.125,3.26-0.25v-14.781l16.857-4.586c-0.332-0.949-0.613-1.98-0.896-3.105l-0.207-0.828l0.018-0.156
	c-5.543,5.496-13.609,8.145-21.47,8.906l-2.548,4.285l1.068,1.797l-3.297,1.957l-1.958,3.301l-1.797-1.07l-1.797,1.07l-1.961-3.301
	l-3.297-1.957l1.067-1.797l-2.543-4.285c-7.864-0.762-15.93-3.41-21.469-8.906l0.012,0.156l-0.207,0.828
	C101.047,122.415,100.77,123.446,100.434,124.396L100.434,124.396z M100.883,100.951l0.032,0.012l-0.032,3.617v1.668l1.239,0.148
	c8.269,0.977,16.41,2.754,24.644,3.93l2.199,0.313l2.559,3.625l2.558-3.625l2.197-0.313c8.233-1.176,16.375-2.953,24.643-3.93
	l1.24-0.148v-1.668l-0.029-3.617l0.029-0.012v-0.953c0-9.07-3.537-17.039-10.938-22.43c-5.164-3.762-11.556-5.742-17.922-5.98
	l-1.777-0.024l-1.781,0.024c-6.368,0.238-12.758,2.218-17.922,5.98c-7.399,5.391-10.938,13.36-10.938,22.43V100.951z
	 M171.572,91.419c0.758-0.918,1.289-2.008,1.467-3.317c0.24-1.75-0.096-3.656-0.561-5.343c-0.699-2.551-1.799-5-2.863-7.416
	c-1.025-2.316-2.365-5.167-2.285-7.729c0.428-14.039,17.049-28.129,27.1-36.355c5.242-4.29,10.621-8.391,15.932-12.59
	c3.807-3.012,8.104-6.355,11.422-9.895c3.004-3.211,8.057-5.914,12.311-3.313c1.922,1.175,3.035,3.141,3.328,5.343
	c0.789,5.903,0.951,11.774,1.279,17.708l0.164,2.93l-1.953,1.305c0.225,4.617,1.139,9.133,1.018,13.84l-0.039,1.492l-0.832,1.238
	c-0.365,0.551-1.314,1.901-1.521,2.594c-0.037,1.777,0.574,4.43,0.828,6.203c0.703,4.867,0.678,10.102-2.729,13.559
	c-0.586,11.89-0.418,33.75-11.555,38.929c-0.664,0.734-1.648,3.32-1.979,4.156c-1.018,2.57-2.074,5.34-3.924,7.434
	c-2.029,2.301-4.789,3.313-7.807,3.313c-0.029,0-0.055,0-0.084,0l-2.48,4.648l-2.615,5.234c-6.025,9.105-27.271,7.699-47.146,6.195
	v12.043c0.012,3.465-2.707,5.199-5.668,5.867c-1.635,0.371-3.389,0.559-5.062,0.703c-2.856,0.254-5.758,0.387-8.651,0.453v0.059
	l-5.142-0.004l-5.145,0.004v-0.059c-2.894-0.066-5.793-0.199-8.652-0.453c-1.672-0.145-3.422-0.332-5.062-0.703
	c-2.961-0.668-5.68-2.402-5.668-5.867c0-2.594,0.796-12.531-1.122-12.598c-11.582-0.402-36.187,2.305-46.023-5.641l-2.617-5.234
	l-2.481-4.648c-0.027,0-0.054,0-0.082,0c-3.019,0-5.777-1.012-7.808-3.313c-1.848-2.094-2.907-4.863-3.922-7.434
	c-0.328-0.836-1.317-3.422-1.977-4.156c-11.152-5.184-10.972-27.086-11.558-38.968c-0.453-0.465-0.86-0.977-1.219-1.532
	c-2.316-3.578-2.09-7.957-1.508-11.988c0.254-1.773,0.863-4.426,0.828-6.203c-0.207-0.692-1.156-2.043-1.523-2.594l-0.828-1.238
	l-0.039-1.492c-0.125-4.707,0.789-9.223,1.015-13.84l-1.953-1.305l0.164-2.93c0.328-5.933,0.488-11.804,1.278-17.708
	c0.296-2.202,1.406-4.168,3.332-5.343c4.25-2.602,9.304,0.102,12.308,3.313c3.317,3.539,7.613,6.883,11.422,9.895
	c5.309,4.199,10.691,8.3,15.93,12.59c10.054,8.227,26.672,22.316,27.101,36.355c0.078,2.563-1.261,5.414-2.285,7.729
	c-1.066,2.415-2.16,4.864-2.863,7.416c-1.063,3.863-0.793,6.584,0.902,8.671C100.008,51.134,163.021,51.126,171.572,91.419
	L171.572,91.419z M171.572,91.419"/>
<path fill-rule="evenodd" clip-rule="evenodd" fill="#243E90" d="M131.524,155.556c9.729-0.008,19.388-0.645,19.375-1.914v-20.727
	l14.954-4.066l5.43,2.844l6.582-7.141c4.061,4.598,16.633,6.738,21.957,6.07l1.418-2.832l4.443-8.336
	c0.842,0.461,1.732,0.902,2.689,0.902c1.527,0,2.91-0.395,3.949-1.57c2.84-3.219,3.807-11.191,7.467-12.797
	c8.74-3.832,8.189-27.707,8.848-36.957c5.57-2.973,1.561-12.449,1.764-17.465c0.064-1.711,1.469-3.746,2.383-5.113
	c0.143-5.434-1.068-9.91-1.068-15.668c0-1.176,1.033-1.442,1.85-1.988c-0.316-5.715-0.436-11.274-1.242-17.309
	c-0.41-3.078-4.008-2.16-6.783,0.801c-12.346,13.183-52.484,36.39-53.066,55.48c-0.154,5.129,16.096,24.399-5.168,32.227
	c0-21.992-17.874-33.793-35.78-33.578 M131.524,123.192l5.479-7.773c8.154-1.164,16.443-2.957,24.525-3.914
	c-4.275,9.176-15.298,12.383-24.525,12.758l-5.479,9.234V123.192z M225.74,54.903l-1.1,12.438
	c-6.193,4.957-13.225,11.8-20.857,13.539l0.043-9.465C211.24,65.896,218.978,61.337,225.74,54.903L225.74,54.903z M213.33,47.908
	c2.881-2.391,13.023-12.621,13.656-12.25c0.551,4.254,0.686,5.312,1.164,9.02c-1.139,3.41-4.242,5.996-6.768,8.011
	c-1.961,1.574-5.111,5.004-7.385,5.582L213.33,47.908z M209.386,62.49l-5.133,3.422c-4.588,2.922-15.539,8.644-17.164,13.129
	c5.051,0,7.557-1.988,12.008-4.821c0.25,3.821,0.457,6.997,0.617,9.473c-2.85,1.207-7.928,2.426-10.193,4.426
	c-0.971,0.855-0.854,2.828-0.953,4.051c6.482-2.16,13.086-5.785,19.525-7.512c0.043,1.586,0.443,5.945-0.207,7.354
	c-2.268,4.954-18.693,5.793-22.918,6.56c4.199,1.996,10.039,1.426,13.32,0.867c0.129,2.504-0.768,3.653-1.488,5.938
	c-6.535-0.09-10.635-0.715-18.078-0.715c4.66,4.047,8.328,4.406,13.824,3.848c-1.043,2.086-2.564,3.949-3.881,5.875
	c-3.313,0-8.465-2.125-11.305-3.91c-1.1-0.691-2.324-0.922-3.607-0.953l-2.961-0.066c4.176,2.785,7.391,5.75,12.205,7.355
	l-3.27,4.07c-4.338-2.527-7.41-4.883-11.816-7.125c0.092,1.207-0.037,3.148,0.721,4.102c1,1.25,4.414,3.121,5.639,3.766
	l-3.811,4.746c-2.674-1.582-3.049-3.527-3.75-6.328c0.814-9.73,0.637-10.188,0.594-15.48c22.424-8.129,14.449-25.773,10.363-36.843
	c3.189-19.106,40.418-41.786,50.318-51.68c0.229,0.113,0.771,9.262,1.264,12.004c-2.674,0.191-9.246,8.137-11.721,10.597
	c-6.211,4.661-10.426,9.075-15.758,13.336c-7.482,5.489-11.609,9.137-17.66,15.293c9.59-0.132,18.328-10.547,25.676-15.902
	L209.386,62.49z M182.832,122.431c-0.156-0.277,2.418-4.375,2.973-5.059c6.875-0.273,10.363,1.734,16.41,1.609l-4.842,7.555h-2.232
	L182.832,122.431z M192.218,114.931l2.781-3.93l2.529-2.02c8.346,0.438,4.518-1.98,13.932-0.777l0.004-0.004h0.068l-0.826,4.367
	l-2.799,3.355C202.603,115.767,197.468,115.681,192.218,114.931L192.218,114.931z M202.128,104.053l1.494-6.274
	c6.531-1.34,10.328-2.328,15.863-5.414l-1.564,9.297C212.296,102.887,208.162,104.053,202.128,104.053L202.128,104.053z
	 M211.951,90.767c0.824-2.957-0.586-5.136,0.146-8.898c4.199-1.68,7.449-5.016,11.814-7.637c-0.004,3.625,0.795,6.856,0.771,6.922
	l-4.576,5.387C217.408,88.041,214.814,89.623,211.951,90.767L211.951,90.767z M131.524,123.192l-5.485-7.773
	c-8.152-1.164-16.441-2.957-24.519-3.914c4.269,9.176,15.293,12.383,24.519,12.758l5.485,9.234V123.192z M131.524,155.556
	c-9.735-0.008-19.391-0.645-19.379-1.914v-20.727l-14.949-4.066l-5.434,2.844l-6.578-7.141c-4.066,4.598-16.637,6.738-21.961,6.07
	l-1.414-2.832l-4.449-8.336c-0.84,0.461-1.731,0.902-2.688,0.902c-1.527,0-2.91-0.395-3.949-1.57
	c-2.84-3.219-3.808-11.191-7.469-12.797c-8.734-3.832-8.187-27.707-8.847-36.957c-5.571-2.973-1.559-12.449-1.762-17.465
	c-0.066-1.711-1.469-3.746-2.383-5.113c-0.14-5.434,1.07-9.91,1.07-15.668c0-1.176-1.035-1.442-1.851-1.988
	c0.316-5.715,0.434-11.274,1.242-17.309c0.41-3.078,4.008-2.16,6.785,0.801c12.348,13.183,52.481,36.39,53.063,55.48
	c0.16,5.129-16.094,24.399,5.168,32.227c0-21.992,17.875-33.793,35.785-33.578V155.556z M37.305,54.903l1.098,12.438
	c6.195,4.957,13.226,11.8,20.859,13.539l-0.043-9.465C51.805,65.896,44.067,61.337,37.305,54.903L37.305,54.903z M49.715,47.908
	c-2.879-2.391-13.023-12.621-13.656-12.25c-0.547,4.254-0.687,5.312-1.164,9.02c1.137,3.41,4.242,5.996,6.766,8.011
	c1.964,1.574,5.113,5.004,7.386,5.582L49.715,47.908z M53.657,62.49l5.132,3.422c4.59,2.922,15.54,8.644,17.165,13.129
	c-5.051,0-7.551-1.988-12.008-4.821c-0.25,3.821-0.457,6.997-0.617,9.473c2.851,1.207,7.929,2.426,10.195,4.426
	c0.969,0.855,0.851,2.828,0.953,4.051c-6.484-2.16-13.086-5.785-19.527-7.512c-0.043,1.586-0.438,5.945,0.207,7.354
	c2.269,4.954,18.695,5.793,22.922,6.56c-4.204,1.996-10.043,1.426-13.325,0.867c-0.125,2.504,0.77,3.653,1.489,5.938
	c6.535-0.09,10.636-0.715,18.078-0.715c-4.66,4.047-8.328,4.406-13.824,3.848c1.042,2.086,2.566,3.949,3.882,5.875
	c3.313,0,8.465-2.125,11.305-3.91c1.098-0.691,2.324-0.922,3.605-0.953l2.961-0.066c-4.175,2.785-7.39,5.75-12.203,7.355l3.274,4.07
	c4.332-2.527,7.41-4.883,11.812-7.125c-0.094,1.207,0.035,3.148-0.722,4.102c-1,1.25-4.414,3.121-5.637,3.766l3.808,4.746
	c2.676-1.582,3.055-3.527,3.754-6.328c-0.816-9.73-0.636-10.188-0.597-15.48c-22.418-8.129-14.45-25.773-10.364-36.843
	C82.192,48.61,44.957,25.93,35.059,16.037c-0.23,0.113-0.773,9.262-1.266,12.004c2.68,0.191,9.246,8.137,11.723,10.597
	c6.211,4.661,10.426,9.075,15.758,13.336c7.48,5.489,11.609,9.137,17.66,15.293c-9.59-0.132-18.328-10.547-25.676-15.902
	L53.657,62.49z M80.211,122.431c0.157-0.277-2.418-4.375-2.972-5.059c-6.875-0.273-10.36,1.734-16.41,1.609l4.847,7.555h2.227
	L80.211,122.431z M70.825,114.931l-2.782-3.93l-2.527-2.02c-8.348,0.438-4.519-1.98-13.934-0.777V108.2h-0.066l0.82,4.367
	l2.801,3.355C60.442,115.767,65.575,115.681,70.825,114.931L70.825,114.931z M60.915,104.053l-1.493-6.274
	c-6.531-1.34-10.328-2.328-15.859-5.414l1.559,9.297C50.747,102.887,54.883,104.053,60.915,104.053L60.915,104.053z M51.094,90.767
	c-0.824-2.957,0.59-5.136-0.148-8.898c-4.196-1.68-7.449-5.016-11.813-7.637c0.004,3.625-0.797,6.856-0.773,6.922l4.578,5.387
	C45.637,88.041,48.231,89.623,51.094,90.767L51.094,90.767z M51.094,90.767"/>
<path fill-rule="evenodd" clip-rule="evenodd" fill="#243E90" d="M29.461,133.231l-0.785,4.488h-2.804l0.281-1.684h-1.125
	l-0.485,2.805h3.926l-1.476,8.414h-6.731l0.785-4.488h2.805l-0.301,1.684h1.121l0.489-2.805h-3.926l1.496-8.414H29.461z
	 M30.582,133.231h6.731l-2.469,14.023h-6.73l1.777-10.098h3.926l0.187-1.121h-3.925L30.582,133.231z M31.407,144.45h1.121
	l0.785-4.488h-1.121L31.407,144.45z M35.965,147.255l2.77-15.703h2.804l-2.769,15.703H35.965z M42.36,133.231l-0.785,4.488h2.804
	l0.282-1.684h1.121l-0.485,2.805h-3.925l-1.477,8.414h6.73l0.786-4.488h-2.805l-0.301,1.684h-1.121l0.488-2.805h3.926l1.496-8.414
	H42.36z M47.446,148.938h6.734l2.766-15.707h-6.731l-2.078,11.781h3.93l-0.207,1.121h-3.926L47.446,148.938z M52.516,136.036h1.121
	l-1.086,6.172H51.43L52.516,136.036z M57.676,135.478h2.805l-2.078,11.777h-2.805L57.676,135.478z M58.368,131.552h2.804
	l-0.507,2.801H57.86L58.368,131.552z M62.817,144.45h1.121l1.289-7.309h2.805l-1.774,10.113h-6.734l2.769-15.703h2.805l-0.301,1.68
	h3.926l-0.504,2.805h-3.926L62.817,144.45z M70.668,144.45h1.121l1.293-7.309h2.805l-1.777,10.113h-6.731l2.766-15.703h2.805
	l-0.297,1.68h3.926l-0.504,2.805h-3.93L70.668,144.45z M81.961,147.255h-6.73l2.469-14.023h6.73l-1.777,10.098h-3.926l-0.203,1.121
	h3.926L81.961,147.255z M81.122,136.036H80l-0.785,4.488h1.121L81.122,136.036z M90.993,140.524h-3.926l-0.207,1.121h3.926
	l-0.969,5.609h-2.789l0.488-2.805h-1.141l-0.488,2.805h-2.805l2.469-14.023h6.731L90.993,140.524z M88.692,137.72l0.281-1.684
	h-1.121l-0.281,1.684H88.692z M88.692,137.72"/>
</svg>
