<?xml version="1.0" encoding="utf-8"?>
<!-- Generator: Adobe Illustrator 16.0.0, SVG Export Plug-In . SVG Version: 6.00 Build 0)  -->
<!DOCTYPE svg PUBLIC "-//W3C//DTD SVG 1.1//EN" "http://www.w3.org/Graphics/SVG/1.1/DTD/svg11.dtd">
<svg version="1.1" id="Layer_1" xmlns="http://www.w3.org/2000/svg" xmlns:xlink="http://www.w3.org/1999/xlink" x="0px" y="0px"
	 width="595.28px" height="841.89px" viewBox="0 0 595.28 841.89" enable-background="new 0 0 595.28 841.89" xml:space="preserve">
<path fill-rule="evenodd" clip-rule="evenodd" fill="#ECEDED" d="M371.1,291.495c-0.051,0.66-0.143,1.285-0.254,1.894l0.039-0.011
	l0.326-0.164v-1.395l-0.102-0.301L371.1,291.495z M371.1,291.495"/>
<path fill-rule="evenodd" clip-rule="evenodd" fill="#ECEDED" d="M378.211,446.408l-0.404-0.809l-0.371-0.375l-0.371-0.742
	l-0.744-0.742l-0.371-0.742l-1.113-1.113l-0.369-0.742l-3.982-3.98l-0.742-0.371l-1.854-1.855l-0.742-0.371l-1.115-1.113
	l-0.742-0.371l-1.112-1.113l-0.741-0.371l-0.746-0.742l-0.744-0.371l-0.371-0.371l-0.741-0.375l-0.371-0.371l-1.457-0.727
	l-1.112-0.371l-1.486-0.742l-2.229-0.742l-0.741-0.371l-1.115-0.371l-0.742-0.371l-1.112-0.371l-0.741-0.375l-1.115-0.371
	l-2.328-1.164v2.473l-0.422,2.957l-0.41,2.043l-1.168,4.676l-0.371,1.113l-0.37,1.484l-0.371,1.113l-0.371,1.488l-0.194,0.586
	c1.092,0.152,2.187,0.355,3.264,0.605c3.064-0.652,6.193-0.949,9.318-0.949c4.553,0,9.125,0.426,13.547,1.531
	C372.156,443.357,375.363,444.67,378.211,446.408L378.211,446.408z M378.211,446.408"/>
<path fill-rule="evenodd" clip-rule="evenodd" fill="#ECEDED" d="M354.307,502.756l-0.154,0.574l-2.16,0.504
	c-3.53,0.828-9.534,2.02-12.922,0.625l-4.293-1.703h-2.433l-0.267,1.008c-1.008,3.852-4.561,5.387-8.206,4.594
	c-0.095,0.648-0.222,1.305-0.402,1.992l-0.887,3.375c-1.009,3.848-4.47,6.895-8.608,5.809l-0.615-0.16
	c-4.972-1.309-5.453-9.563-3.838-13.5l0.226-0.559l-0.22-0.059c-1.53-0.402-2.752-1.316-3.582-2.5h-0.453
	c-4.047,0-8.069-0.547-11.952-1.684c-3.566,1.082-7.332,1.566-11.058,1.664v0.02H253.22l-0.035,0.309l-0.571,1.227
	c-1.062,3.238-4.527,5.156-7.867,4.281l-0.918-0.242c-1.5-0.395-2.679-1.211-3.515-2.277c-0.754,1.758-1.68,3.332-2.848,4.363
	c-1.106,0.977-2.277,1.66-3.629,2.23c-0.434,0.18-1.223,0.441-1.602,0.691c-0.222,0.363-0.343,1.539-0.375,1.918
	c-0.168,2.16-0.703,4.238-0.937,6.371c-0.223,2.004-0.129,4.668-0.625,6.547l-0.563,2.148c-0.902,3.434-4.128,5.672-7.671,4.742
	l-1.227-0.324c-0.191-0.047-0.375-0.105-0.551-0.168l-1.344,7.684l-0.242,1.398l-0.039,0.145c-0.906,3.441-3.672,7.434-7.773,6.359
	l-1.164-0.309l-0.785,5.156l-0.016,0.074c-0.836,4.293-5.172,6.641-9.305,5.555c-5.265-1.379-6.554-7.398-4.91-11.98l2.77-7.754
	c-0.477-0.016-0.965-0.09-1.469-0.223L195.7,540.6c-3.918-1.031-4.847-6.02-3.953-9.434l1.571-5.984l1.75-4.859
	c-1.329,0.641-2.825,0.688-4.286,0.305l-0.304-0.082c-1.844-0.484-3.426-1.52-4.375-3.203c-2.594-4.586,1.121-10.152,2.285-14.59
	c0.051-0.18,0.101-0.398,0.164-0.641c-0.984,0.129-2.004,0.031-3.008-0.23c-0.051-0.016-0.105-0.027-0.156-0.043
	c-3.336,0.719-6.781,0.918-10.188,0.918h-22.14V400.572h38.113v-1.336l-0.203-1.016l-0.254-0.507l-0.356-0.356h-0.988l-1.484,0.371
	h-4.879v-5.582l3.726-3.726l2.997-1.5l1.929-0.641h6.16l1.856,0.371h2.379l0.297-0.101l0.715-0.356l0.371-0.371l0.746-0.371
	l0.265-0.27l0.371-0.742l1.485-1.483l0.371-0.742l2.23-2.231l0.371-0.738l1.485-1.488l0.137-0.274l-0.875,0.293l-0.364,0.363
	l-1.488,0.743l-0.371,0.371l-0.742,0.371l-0.371,0.371l-0.743,0.371l-0.742,0.746l-0.742,0.371l-1.484,1.484l-0.743,0.372
	l-2.511,2.511h-5.582v-6.136l0.644-1.93l1.871-3.738l0.371-0.371l0.372-0.743l0.371-0.371l0.371-0.742l1.113-1.113l0.371-0.742
	l3.442-3.446l0.742-0.371l1.488-1.483l0.742-0.371l0.742-0.742l0.743-0.372l0.371-0.371l0.742-0.371l0.371-0.371l0.742-0.371
	l0.371-0.371l0.742-0.371l0.371-0.371l1.485-0.742l0.371-0.372l2.227-1.117l0.371-0.371l6.711-3.351l1.113-0.371l2.969-1.485
	l1.113-0.372l1.461-0.729l0.371-0.371l1.484-0.743l0.344-0.343h-3.637l-1.179-4.715v-4.469l0.445-2.676l0.504-2.019l1.562-3.121
	l0.371-0.372l0.371-0.742l2.704-2.703l0.742-0.371l0.371-0.371l3.738-1.871l2.61-0.867l3.191-0.797l2.043-0.41l7.855-1.121
	l2.125-0.356l1.711-0.344l1.266-0.312l1.113-0.371l0.809-0.203h-0.863v-6.332l2.242-1.121l1.011-1.012l0.372-0.742l0.363-0.364
	l0.238-0.715l0.317-1.261l0.343-1.711l0.383-2.313l0.508-2.019l1.187-2.383l1.59-1.586l2.055-1.027h6.148l2.063,0.515l3.723,1.239
	l0.742,0.371l0.101,0.035v-4.094l3.754-1.879l1.496-0.5l1.707-0.426l2.301-0.461h12.444l3.572,0.399l8.836,1.105l4.967,0.352h0.72
	l2.012-0.285l1.664-0.555l2.944-1.473l0.742-0.742l0.744-0.371l1.01-1.012l0.371-0.742l0.024-0.027l-0.637-0.32l-1.763-0.586
	l-2.117-0.422l-3.217-1.61v-5.304l3.851-1.282l2.438-0.488h4.381l2.586,0.435l2.138,0.426l4.922,1.64l1.483,0.742l1.115,0.371
	l7.449,3.727l0.37,0.371l2.974,1.485l0.371,0.371l1.483,0.742l0.379,0.379c1.996-2.016,4.022-3.782,5.724-4.685l-0.09-0.042v-6.333
	h7.15l3.539,1.771l0.371,0.371l0.742,0.371l3.076,3.074l0.371,0.742l1.113,1.114l0.369,0.742l0.371,0.372l0.371,0.742l0.742,0.742
	l0.373,0.742l0.371,0.371l0.371,0.743l0.742,0.742l0.369,0.742l1.113,1.117l0.371,0.742l0.271,0.266l0.74,0.371l0.371,0.371
	l0.742,0.371l0.086,0.09h1.961l0.301-0.101l0.717-0.36l0.371-0.371l0.74-0.371l1.113-1.113l0.744-0.371l1.768-1.77h5.582v9.27
	l0.074-0.075l0.744-0.371l0.742-0.742l0.742-0.371l0.74-0.742l0.742-0.371l0.371-0.371l0.744-0.371l0.371-0.372l0.742-0.371
	l0.369-0.375l1.484-0.742l0.373-0.371l6.709-3.351l3.043-1.016h4.348l1.646,1.644l2.6-1.66l-1.715,2.809v4.828l-2.129,6.383
	l-0.371,0.742l-0.371,1.117l-0.371,0.742l-0.371,1.114l-0.74,1.484l-0.371,1.113l-0.742,1.485l-0.373,1.113l-0.742,1.484
	l-0.375,1.114l-1.482,2.972l-0.371,1.114l-1.775,3.55l0.918,0.918l0.744,0.371l4.182,4.188l0.371,0.742l1.113,1.113l0.373,0.743
	l0.375,0.371l0.371,0.742l1.025,1.026v6.692h-7.412l0.814,0.816l0.371,0.746l1.857,1.856l0.369,0.742l1.113,1.113l0.371,0.742
	l0.744,0.742l0.375,0.743l0.742,0.742l0.742,1.484l0.369,0.371l1.125,2.254l0.871,2.61l0.518,2.062v5.363l-0.518,2.059l-1.082,3.238
	l0.484,1.446v7.273l-0.459,2.301l-0.426,1.707l-0.371,1.113l-0.371,1.484l-0.744,2.227l-0.664,2.648l-0.307,2.153v2.847l0.328,2.61
	l0.328,1.64l0.369,1.485l0.371,1.854l1.061,4.231l0.371,1.113l0.74,2.973l0.371,1.113l0.371,1.484l0.371,1.114l0.371,1.484
	l0.744,2.227l0.371,1.484l0.371,1.113l0.371,1.489l0.396,1.195l0.439,2.18l0.389,2.734l0.732,5.836l0.693,3.496l0.318,1.262
	l0.246,0.73l0.371,0.742l0.18,0.539l0.174,0.18l0.34,0.672l1.414,0.707l1.59,1.59l0.816,1.637l0.582,2.316v5.586l-0.445,2.672
	l-0.811,3.25l-1.244,3.723l-2.613,5.223l-0.371,0.371l-0.371,0.742l-0.74,0.746l-0.371,0.742l-2.699,2.699l-0.744,0.371
	l-0.371,0.371l-2.254,1.129l-4.838,1.609l-1.709,0.43l-3.756,0.75l0.1,0.207l0.279,2.199l-0.012,0.641l0.111,0.898l-0.012,0.637
	l0.061,0.449l-0.045,2.57l-0.297,1.27l0.203,1.621l-0.178,0.52l0.207,0.496l-0.521,0.391l-0.701,2l-1.26,0.602l-0.357,0.688
	l-1.129,1.453l-0.504,0.242l-0.324,0.313l-1.336,0.641l-1.021,0.129l-0.414,0.398l-2.686,1.289l-5.121-1.801l-1.336-1.379
	l-0.004-0.016l-0.029-0.02l-0.109-0.113l-1.629-0.895l-0.586-1.227l-1.236,0.594l0.311-2.855l-0.174-0.371l-0.451-3.547l0.039-2.32
	l0.08-0.832l0.01-0.727l0.168-1.16l0.082-0.891l0.229-1.297l0.164-1.156l0.232-0.93l-1.168-0.387l-4.479-2.242l-0.371-0.371
	l-0.742-0.371l-0.744-0.742l-0.396-0.199v29.785h-21c-0.578,0-1.152-0.012-1.729-0.035v0.035H354.307z M354.307,502.756"/>
<path fill-rule="evenodd" clip-rule="evenodd" fill="#FFFFFF" d="M399.643,315.525c2.092,0.652,6.686,2.078,7.176,3.906h0.742
	c1.047-4.484,8.215-11.781,10.65-15.769L399.643,315.525z M352.622,317.576c0,1.289,0.56,2.543,1.112,3.34
	c1.263-5.41,0.731-4.477,2.978-8.903c0.789-1.558,3.086-7.285,3.767-8.234l-0.431-0.309c-0.06-0.058-2.108,2.442-2.383,2.813
	c-0.875,1.19-1.519,1.992-2.302,3.269C354.203,311.456,352.622,314.759,352.622,317.576L352.622,317.576z M403.85,450.1
	c2.646,0.613,10.021-0.328,10.021,2.598c0,3.672-6,4.453-10.021,4.453c0.797,0.555,1.225,0.742,2.596,0.742h2.604
	c2.486,0,6.309-3.363,6.309-5.938v-0.742c0-1.184-1.891-2.602-3.34-2.602h-1.486C407.961,448.611,405.246,448.885,403.85,450.1
	L403.85,450.1z M301.396,411.119v2.23c0,8.309,3.711,12.778,3.711,20.786c0,9.281-2.375,16.289-4.774,23.07
	c-0.961,2.715-7.519,18.391-8.652,19.684l0.433,0.309c0.071,0.07,3.133-4.145,3.496-4.672c1.145-1.684,2.137-3.238,3.059-5.105
	c1.862-3.773,3.754-6.809,5.375-10.961c2.233-5.719,7.375-17.82,7.375-25.293v-2.598c0-6.605-2.974-10.949-2.974-18.562v-0.372
	c0-6.843,5.047-15.644,7.552-20.66c1.848-3.703,9.288-15.703,9.899-18.316c-8.072,4.269-12.849,6.711-17.672,14.625
	C304.535,391.334,301.396,401.486,301.396,411.119L301.396,411.119z M396.428,368.802c7.24,0.602,7.551,8.45,9.271,14.481
	c1.371,4.801,5.051,13.476,4.932,18.933l-0.842,24.125c-0.25,6.152,0.75,15.59,6.311,15.59h0.371c2.336,0,9.279-3.539,9.279-4.824
	c0-0.078-4.932-10.957-5.494-13.066c-1.471-5.496-2.688-8.996-3.449-15.485c-0.707-6.015-1.064-10.347-1.072-17.492
	c-0.002-5.68-1.863-11-1.863-17.066c0-5.953,2.07-5.903,4.082-8.907c-2.854-0.667-10.453-8.945-11.135-11.878l-0.744-0.743
	L396.428,368.802z M392.342,366.947l-0.742-6.313l-5.568,6.684C387.789,367.318,391.682,368.588,392.342,366.947L392.342,366.947z
	 M368.953,376.228l0.371,0.371c0.125,0.121,0.307-0.293,0.4-0.343c1.031-0.586-0.283,0.066,0.754-0.364
	c0.713-0.297,0.846-0.312,1.57-0.656c1.098-0.52,1.75-0.867,3.219-0.867h1.113c2.619,0,4.943,3.137,7.422,3.344
	c-0.443-1.668-5.25-4.829-7.422-4.829h-0.371C372.775,372.884,370.914,374.917,368.953,376.228L368.953,376.228z M368.953,376.228"
	/>
<path fill-rule="evenodd" clip-rule="evenodd" fill="#868789" d="M402.104,487.182l1.289-0.617l0.4-1.145
	c1.35-1.012,1.152,0.23,2.402-1.273c1.029-1.234,1.365-0.441,2.736,0.078c0.564-0.145,1.186-0.656,1.672-0.484l0.189,0.066
	c0.678,0.238,0.375,0.777,0.756,0.91c0.689,0.242,1.119,0.215,1.658,0.156c0.217-1.965,0.414-2.43-1.865-3.23l-1.332-0.469
	c-2.471-0.871-7.07,0.59-7.721,2.43l-0.064,0.191C401.768,485.088,402.221,486.096,402.104,487.182L402.104,487.182z
	 M403.35,477.541c1.551-0.395,1.9-1.094,4.01-1.23c1.748-0.117,2.973,0.473,5.012,1.191c-0.41-1.594-1.447-5.656-3.35-6.324
	l-0.953-0.336C404.756,469.674,404.146,475.283,403.35,477.541L403.35,477.541z M403.35,477.541"/>
<path fill-rule="evenodd" clip-rule="evenodd" fill="#322D2E" d="M402.406,488.146c0.168-0.484,0.957-0.652,1.422-1l0.475-1.336
	c0.35-0.09,1.479-0.258,1.697-0.426c0.729-0.559,0.168-0.914,1.461-1.25c0.764,0.344,0.359,0.344,1.078,0.594
	c0.717,0.254,1.32-0.391,1.607-0.293c1.061,0.375,0.945,1.191,1.256,1.301c0.797,0.281,0.672-0.375,1.955,0.039l-0.434,1.609
	l0.602,1.457c-0.52,0.391-1.051,0.488-1.537,1.098c-0.617,0.77-0.379,1.293-1.221,1.754c-0.828,0.449-1.094-0.066-1.867,0.402
	c-0.422,0.254-1.184,1.352-1.654,1.184c-0.629-0.219-0.625-0.863-1.514-1.176c-0.43-0.148-0.473,0.004-0.943,0.137l-0.518-0.863
	l-1.146-0.402C403.025,490.291,402.342,488.33,402.406,488.146L402.406,488.146z M404.414,490.354
	c-0.033,0.465-0.154,0.59,0.371,0.773l0.193,0.07c0.578,0.203,0.604-0.039,0.842-0.59l-0.842-0.051l0.021-0.641l-1.254-0.488
	l-0.262-0.688C402.125,489.15,403.156,490.025,404.414,490.354L404.414,490.354z M413.207,484.873
	c-0.539,0.059-0.969,0.086-1.658-0.156c-0.381-0.133-0.078-0.672-0.756-0.91l-0.189-0.066c-0.486-0.172-1.107,0.34-1.672,0.484
	c-1.371-0.52-1.707-1.313-2.736-0.078c-1.25,1.504-1.053,0.262-2.402,1.273l-0.4,1.145l-1.289,0.617
	c0.117-1.086-0.336-2.094,0.121-3.387l0.064-0.191c0.65-1.84,5.25-3.301,7.721-2.43l1.332,0.469
	C413.621,482.443,413.424,482.908,413.207,484.873L413.207,484.873z M402.381,482.131c0.119-1.129-0.014-1.797,0.5-3.254
	c0.447-1.273,5.098-2.277,7.189-1.543l0.762,0.27c1.936,0.68,2.424,2.316,2.229,4.023l-1.643-0.816l-1.336-0.469
	C406.514,479.084,404.586,481.463,402.381,482.131L402.381,482.131z M403.35,477.541c0.797-2.258,1.406-7.867,4.719-6.699
	l0.953,0.336c1.902,0.668,2.939,4.73,3.35,6.324c-2.039-0.719-3.264-1.309-5.012-1.191C405.25,476.447,404.9,477.146,403.35,477.541
	L403.35,477.541z M401.793,478.924l-0.146,1.02l-0.211,1.215l-0.078,0.828l-0.146,1.023l-0.012,0.637l-0.078,0.832l-0.008,0.641
	l-0.01,0.637l-0.012,0.641l0.059,0.449l0.053,0.449l0.061,0.449l0.107,0.898l0.061,0.445l0.125,0.258l0.121,0.262l0.125,0.258
	l0.383,0.133l-0.137,0.383l0.125,0.258l0.055,0.449l0.125,0.258l1.078,0.594l0.311,0.324l0.508,0.391l0.121,0.258l0.318,0.324
	l0.381,0.137l0.258-0.125l0.572,0.203l0.125,0.258l1.523,0.535l0.262-0.121l0.514-0.25l0.326-0.313l0.389-0.504l0.26-0.125
	l0.447-0.059l0.643,0.012l0.447-0.055l0.26-0.125l0.322-0.313l0.26-0.125l0.391-0.504l0.664-1.27l0.324-0.316l0.258-0.121
	l0.514-0.25l0.404-1.145l-0.055-0.449l-0.125-0.258l-0.057-0.445l0.41-1.785l0.025-1.281l0.01-0.637l-0.057-0.449l0.012-0.641
	l-0.061-0.449l-0.055-0.449l0.012-0.641l-0.059-0.445l-0.053-0.449l-0.061-0.449L414,479.576l-0.059-0.449l-0.053-0.449
	l-0.061-0.449l-0.121-0.258l-0.057-0.449l-0.055-0.449l-0.125-0.258l-0.057-0.449l-0.125-0.258l-0.055-0.445l-0.125-0.258
	l-0.125-0.262l-0.121-0.258l-0.057-0.445l-0.121-0.258l-0.125-0.262l-0.125-0.258l-0.121-0.258l-0.318-0.324l-0.125-0.258
	l-0.121-0.258l-0.125-0.258l-0.311-0.324l-0.25-0.516l-0.314-0.324l-0.508-0.395l-0.311-0.324l-2.482-0.875L407,469.607
	l-0.258,0.125l-0.449,0.055l-0.258,0.125l-0.258,0.121l-0.324,0.316l-0.258,0.121l-0.324,0.316l-0.328,0.313l-0.457,0.699
	l-1.744,4.961L401.793,478.924z M401.793,478.924"/>
<path fill-rule="evenodd" clip-rule="evenodd" fill="#C6C7C8" d="M410.082,480.342l1.336,0.469l1.643,0.816
	c0.195-1.707-0.293-3.344-2.229-4.023l-0.762-0.27c-2.092-0.734-6.742,0.27-7.189,1.543c-0.514,1.457-0.381,2.125-0.5,3.254
	C404.586,481.463,406.514,479.084,410.082,480.342L410.082,480.342z M410.082,480.342"/>
<path fill-rule="evenodd" clip-rule="evenodd" fill="#ED2224" d="M404.414,490.354c-1.258-0.328-2.289-1.203-0.93-1.613l0.262,0.688
	l1.254,0.488l-0.021,0.641l0.842,0.051c-0.238,0.551-0.264,0.793-0.842,0.59l-0.193-0.07
	C404.26,490.943,404.381,490.818,404.414,490.354L404.414,490.354z M407.461,484.135c-1.293,0.336-0.732,0.691-1.461,1.25
	c-0.219,0.168-1.348,0.336-1.697,0.426l-0.475,1.336c-0.465,0.348-1.254,0.516-1.422,1c-0.064,0.184,0.619,2.145,0.719,2.828
	l1.146,0.402l0.518,0.863c0.471-0.133,0.514-0.285,0.943-0.137c0.889,0.313,0.885,0.957,1.514,1.176
	c0.471,0.168,1.232-0.93,1.654-1.184c0.773-0.469,1.039,0.047,1.867-0.402c0.842-0.461,0.604-0.984,1.221-1.754
	c0.486-0.609,1.018-0.707,1.537-1.098l-0.602-1.457l0.434-1.609c-1.283-0.414-1.158,0.242-1.955-0.039
	c-0.311-0.109-0.195-0.926-1.256-1.301c-0.287-0.098-0.891,0.547-1.607,0.293C407.82,484.479,408.225,484.479,407.461,484.135
	L407.461,484.135z M407.461,484.135"/>
<path fill-rule="evenodd" clip-rule="evenodd" fill="#575858" d="M418.211,303.663c-2.436,3.988-9.604,11.285-10.65,15.769h-0.742
	c-0.49-1.828-5.084-3.254-7.176-3.906L418.211,303.663z M420.553,296.045l-1.113,0.371l-5.939,2.968l-0.369,0.372l-1.484,0.742
	l-0.371,0.371l-0.744,0.371l-0.371,0.371l-0.742,0.371l-0.369,0.371l-0.746,0.375l-0.742,0.742l-0.742,0.371l-0.744,0.743
	l-0.742,0.371l-1.111,1.113l-0.742,0.371l-5.197,5.195l-0.371,0.743l-0.742,0.742l-0.74,1.484l-0.375,0.746v0.742
	c1.436,1.247,6.957,4.016,9.133,5.344c3.311,2.017,5.764,4.207,8.686,6.164v-0.371l-0.371-0.375l-0.369-0.371v-0.742l0.369-0.742
	l0.371-1.114l1.857-3.71l0.371-1.114l1.482-2.969l0.371-1.113l0.371-0.746l0.371-0.741l0.373-1.113l0.742-1.485l0.371-1.113
	l0.371-0.742l0.375-0.742l0.371-1.114l0.369-0.742l0.371-1.113l0.371-0.742l0.371-1.114l0.371-1.117l1.115-3.34v-2.968l-0.371-0.371
	h-2.229L420.553,296.045z M352.622,317.576c0-2.817,1.581-6.121,2.741-8.024c0.783-1.277,1.427-2.078,2.302-3.269
	c0.274-0.371,2.323-2.871,2.383-2.813l0.431,0.309c-0.681,0.949-2.978,6.676-3.767,8.234c-2.246,4.426-1.715,3.493-2.978,8.903
	C353.182,320.119,352.622,318.865,352.622,317.576L352.622,317.576z M347.798,316.834c0,5.765,5.793,12.992,11.879,12.992h1.113
	c5.671,0,8.86-4.61,8.194-10.427c-0.709-6.237-3.371-10.59-3.371-16.301v-2.601c0-3.696,1.857-6.098,1.857-10.396
	C362.712,292.624,347.798,310.193,347.798,316.834L347.798,316.834z M301.396,411.119c0-9.633,3.139-19.785,6.828-25.836
	c4.823-7.914,9.6-10.356,17.672-14.625c-0.611,2.613-8.052,14.613-9.899,18.316c-2.505,5.016-7.552,13.817-7.552,20.66v0.372
	c0,7.613,2.974,11.957,2.974,18.562v2.598c0,7.473-5.142,19.574-7.375,25.293c-1.621,4.152-3.513,7.188-5.375,10.961
	c-0.922,1.867-1.914,3.422-3.059,5.105c-0.363,0.527-3.425,4.742-3.496,4.672l-0.433-0.309c1.133-1.293,7.691-16.969,8.652-19.684
	c2.399-6.781,4.774-13.789,4.774-23.07c0-8.008-3.711-12.477-3.711-20.786V411.119z M415.357,451.955
	c0,2.574-3.822,5.938-6.309,5.938h-2.604c-1.371,0-1.799-0.188-2.596-0.742c4.021,0,10.021-0.781,10.021-4.453
	c0-2.926-7.375-1.984-10.021-2.598c1.396-1.215,4.111-1.488,6.682-1.488h1.486c1.449,0,3.34,1.418,3.34,2.602V451.955z
	 M377.492,313.861v0.742l0.361,1.168l-1.104-0.422l-1.482-0.371l-1.486-0.375l-1.857-0.371h-1.484l0.488,5.181l-0.117,4.101
	c0,4.606-6.16,8.168-11.134,8.168c-6.526,0-13.366-7.445-13.366-13.363v-2.969c0-1.281,0.276-1.437,0.371-2.601h-4.824l-4.455,0.371
	l-3.713,0.372l-5.197,0.741l-2.225,0.371l-2.228,0.375l-1.858,0.371l-1.857,0.371l-5.937,1.485l-1.112,0.371l-1.485,0.371
	l-1.113,0.371l-1.116,0.371l-5.568,1.856l-0.741,0.371l-1.113,0.372l-1.485,0.742l-1.112,0.371l-0.742,0.372l-0.746,0.371
	l-5.195,2.598l-0.372,0.371l-1.484,0.742l-0.371,0.375l-1.484,0.742l-0.371,0.371l-0.743,0.372l-0.371,0.371l-0.742,0.371
	l-0.371,0.371l-0.746,0.371l-0.742,0.742l-0.742,0.371l-0.743,0.742l-0.742,0.372l-1.484,1.484l-0.742,0.371l-1.856,1.855
	l-0.742,0.372l-2.598,2.597l-0.371,0.375l-1.113,1.113l-0.375,0.372l-2.598,2.597l-0.371,0.742l-2.226,2.227l-0.372,0.742
	l-1.484,1.485l-0.371,0.742l-1.113,1.113l-0.371,0.742l-0.371,0.375l-0.743,0.742l-0.371,0.743l-0.742,0.742l-0.371,0.742
	l-0.371,0.371l-0.375,0.371l-0.371,0.742l-0.371,0.371l-0.371,0.743l-0.743,0.742l-0.371,0.742l-0.371,0.371l-0.371,0.742
	l-0.742,0.742l-0.371,0.743l-0.371,0.371l-0.371,0.742l-0.371,0.371l-0.372,0.746l-0.371,0.371l-0.371,0.742l-0.742,0.743
	l-0.371,0.742l-0.371,0.371l-0.371,0.742l-0.371,0.371l-0.371,0.742l-0.371,0.371l-0.372,0.743l-0.371,0.371l-0.371,0.742
	l-0.371,0.371l-0.371,0.742l-0.371,0.371l-0.371,0.742l-0.375,0.372l-0.371,0.742l-0.742,0.742l-0.371,0.742l-0.372,0.371
	l-0.371,0.746l-0.371,0.371l-0.371,0.743l-0.371,0.371l-0.371,0.742l-0.742,0.742l-0.371,0.742l-0.371,0.371l-0.372,0.743
	l-0.742,0.742l-0.371,0.742l-0.742,0.742l-0.371,0.742l-0.742,0.742l-0.371,0.743l-0.743,0.742l-0.371,0.742l-0.742,0.742
	l-0.371,0.375l-0.371,0.742l-0.371,0.371l-0.375,0.372l-0.371,0.371l-0.371,0.742l-1.856,1.855l-0.371,0.743l-6.308,6.308
	l-0.372,0.375l-2.226,2.227l-0.375,0.371l-0.371,0.371l-0.742,0.371l-1.856,1.855l-0.742,0.372l-0.742,0.742l-0.742,0.371
	l-0.743,0.742l-0.742,0.371l-0.371,0.371l-0.742,0.371l-0.371,0.371l-0.742,0.371l-0.371,0.372l-1.485,0.742l-0.371,0.371
	l-0.742,0.371l-0.746,0.371l-1.485,0.742l-1.484,0.375l-1.855,0.371l-2.227,0.371l-1.855,0.371l-2.227,0.372l-1.859,0.371
	l-1.485,0.371l-1.854,0.371l-2.227,0.742l-0.742,0.371l-1.484,1.485l-1.485,2.968l-0.371,0.371l-1.113,2.227l-0.375,0.742
	l-0.371,0.746l-0.742,1.484l-0.371,1.113l-0.372,1.484v14.848l0.372,1.484l1.484,2.969l0.375,0.742l0.371,0.746l0.371,0.371
	l0.371,0.742l0.371,0.371l0.371,0.742l0.371,0.371l0.372,0.742l1.113,1.113l0.371,0.742l1.113,1.113l0.371,0.742l2.598,2.598
	l0.371,0.742l1.113,1.113l0.371,0.375l1.856,1.855l0.375,0.371l4.082,4.082l0.742,0.371l3.34,3.34l0.742,0.371l1.113,1.113
	l0.372,0.375l0.371,0.371l0.742,0.371l0.371,0.371l0.375,0.371l0.742,0.742l0.742,0.371l1.114,1.113l0.742,0.371l0.742,0.742
	l0.742,0.371l0.742,0.742l0.742,0.371l0.372,0.371l0.742,0.371l0.371,0.371l0.742,0.371l0.371,0.371l2.969,1.484l0.746,0.371
	l2.227,0.742l0.742,0.371l2.226,0.742l1.485,0.371l1.113,0.375l2.969,0.742l1.488,0.371l2.969,0.742l3.711,0.742l1.484,0.371
	l2.227,0.371l1.859,0.371l2.227,0.371l1.855,0.371l2.227,0.371l2.597,0.371l2.227,0.371l2.601,0.371l2.598,0.371l2.969,0.371
	l2.597,0.371l3.344,0.371l2.969,0.371l3.34,0.371l3.711,0.371l3.715,0.371l3.71,0.371l4.454,0.371l4.458,0.371l5.194,0.371
	l5.569,0.371l6.681,0.371l8.168,0.371l12.25,0.375h11.509v-2.602l-0.371-1.855l-0.371-1.484l-1.115-3.34l-1.112-2.227l-0.371-0.746
	l-0.375-0.742l-1.112-2.227l-0.371-0.371l-1.115-2.227l-0.37-0.371l-0.742-1.484l-0.371-0.371l-1.112-2.227l-0.373-0.371
	l-0.742-1.484l-0.37-0.746l-0.371-0.371l-1.854-3.711l-0.371-1.113l-0.373-0.742l-1.112-3.34l-0.371-1.855l-0.371-2.602v-3.34
	l0.371-3.34l0.371-2.227l0.37-1.859l1.115-4.453l0.371-1.113l0.371-1.484l0.741-2.227l0.371-1.484l0.371-1.113l0.371-1.488
	l0.37-1.113l1.115-4.453l0.371-1.855l0.371-2.598v-9.281l-0.203-1.172l0.203,0.801l1.854,1.855l0.742,0.372l0.373,0.371l0.742,0.371
	l0.371,0.371l0.745,0.371l0.371,0.371l2.228,1.113l1.112,0.371l0.742,0.371l1.112,0.372l0.742,0.371l1.115,0.371l0.741,0.371
	l2.228,0.742l1.483,0.742l1.117,0.375l2.228,1.113l0.371,0.371l0.741,0.371l0.371,0.371l0.741,0.371l0.742,0.742l0.744,0.371
	l1.113,1.113l0.74,0.371l1.113,1.113l0.744,0.371l1.855,1.855l0.744,0.371l2.6,2.598l0.371,0.375l1.854,1.855l0.371,0.742
	l1.115,1.113l0.371,0.742l0.742,0.742l0.369,0.742l0.371,0.371l0.742,1.484l0.371,0.371l1.115,2.227l0.371,1.113l0.371,0.742
	l0.375,1.117l0.371,1.113l0.369,1.484l0.371,1.855l0.371,2.598l0.371,2.227l0.371,1.113l0.373,1.117l0.371,0.742l0.371,1.113
	l0.371,0.371l0.742,1.484l0.74,0.742l0.371,0.742l2.6,2.598l0.74,0.371l0.742,0.742l0.744,0.371l0.371,0.371l0.742,0.371
	l0.746,0.371l2.225,1.113l1.115,0.375l2.225,0.742l1.857,0.371l2.596,0.371h7.426l2.971-0.371l3.711-0.742l1.486-0.371l1.113-0.375
	l3.34-1.113l1.486-0.742l0.371-0.371l0.742-0.371l1.854-1.855l0.373-0.742l0.742-0.742l0.371-0.742l0.371-0.371l0.375-0.742
	l1.854-3.711l0.371-1.117l0.744-2.227l0.742-2.969l0.371-2.227v-4.828l-0.371-1.484l-0.371-0.742l-0.742-0.742l-1.486-0.742
	l-0.74-0.742l-0.371-0.742l-0.375-0.371l-0.371-1.113l-0.371-0.742l-0.371-1.113l-0.371-1.484l-0.373-1.859l-0.371-1.855
	l-0.742-5.938l-0.371-2.598l-0.369-1.859l-0.371-1.113l-0.371-1.485l-0.371-1.113l-0.371-1.484l-0.744-2.228l-0.371-1.484
	l-0.371-1.113l-0.371-1.485l-0.369-1.117l-0.742-2.969l-0.371-1.113l-1.115-4.453l-0.371-1.856l-0.371-1.488l-0.371-1.855
	l-0.371-2.969v-3.34l0.371-2.598l0.371-1.488l0.371-1.483l0.744-2.227l0.371-1.484l0.371-1.113l0.371-1.485l0.371-1.854v-6.313
	l-0.371-1.113l-1.486-2.969l-0.371-0.371l-0.742-1.484l-0.371-0.371l-0.74-1.485l-0.375-0.371l-0.371-0.746l-13.363-9.648
	l-0.744-0.743l0.744,0.743c0.682,2.933,8.281,11.211,11.135,11.878c-2.012,3.004-4.082,2.954-4.082,8.907
	c0,6.066,1.861,11.386,1.863,17.066c0.008,7.145,0.365,11.477,1.072,17.492c0.762,6.489,1.979,9.989,3.449,15.485
	c0.563,2.109,5.494,12.988,5.494,13.066c0,1.285-6.943,4.824-9.279,4.824H416.1c-5.561,0-6.561-9.438-6.311-15.59l0.842-24.125
	c0.119-5.457-3.561-14.132-4.932-18.933c-1.721-6.031-2.031-13.879-9.271-14.481l-3.268,5.239l-0.818-7.094
	c-0.66,1.641-4.553,0.371-6.311,0.371l5.568-6.684c-1.582-6.789-3.469-20.043-11.139-20.043h-1.482
	c-2.125,0-5.375,1.844-6.832,2.817c-1.25,0.835-1.707,1.058-2.732,2.098c-0.25,0.257-2.264,2.191-2.314,2.136l-0.436-0.308
	c4.113-2.774,11.943-18.43,11.943-26.047v-1.856L377.492,313.861z M377.492,313.861"/>
<path fill-rule="evenodd" clip-rule="evenodd" fill="#1B1918" d="M328.863,284.909l-1.112,0.371v0.371l0.741,0.372l1.857,0.371
	l2.225,0.742l1.486,0.743l0.371,0.371h0.745v0.742l0.371,0.371v2.602l-0.371,0.742l-0.375,0.371l-0.37,0.742l-1.857,1.856
	l-0.741,0.371l-0.742,0.742l-3.711,1.855l-2.228,0.742l-2.601,0.372h-1.112l-5.197-0.372l-5.937-0.742l-2.973-0.371l-3.341-0.371
	h-11.878l-1.855,0.371l-1.484,0.371l-1.114,0.371l-1.484,0.743v0.371l0.742,0.371l2.227,0.742l2.226,1.113l0.742,0.375l0.743,0.371
	l0.371,0.371l4.453,2.227l0.371,0.371l0.746,0.371l0.742,0.371h1.112v0.742h-0.741l-1.113,0.372l-2.602,0.371h-2.597l-5.938-0.371
	l-1.484-0.743l-0.746-0.371l-0.742-0.371l-1.114-0.371l-1.484-0.742l-1.113-0.371l-0.743-0.371l-3.339-1.114l-1.485-0.371h-4.828
	l-0.742,0.371l-0.742,0.743l-0.742,1.484l-0.372,1.484l-0.371,2.227l-0.371,1.855l-0.371,1.485l-0.371,1.113l-0.371,0.742
	l-0.371,0.375l-0.371,0.742l-1.856,1.856l-0.742,0.371v0.371h1.113l1.114-0.371l2.968-0.742l2.598-0.371h1.113l1.485,0.371
	l0.371,0.371v0.742l-0.742,1.484l-2.598,2.598l-0.742,0.372l-0.371,0.371l-2.227,1.114l-1.484,0.371l-3.711,0.742l-1.488,0.371
	l-1.114,0.371l-1.484,0.371l-1.856,0.371l-2.226,0.375l-2.598,0.371l-2.601,0.371l-2.598,0.371l-1.855,0.372l-2.969,0.742
	l-2.227,0.742l-1.484,0.742l-0.746,0.371l-0.742,0.371l-0.371,0.371l-0.743,0.372l-1.855,1.855l-0.371,0.742l-0.371,0.371
	l-1.114,2.228l-0.371,1.483l-0.371,2.231v3.711l0.371,1.484h0.742l0.743-0.371l0.371-0.371l0.742-0.371l0.371-0.371l1.484-0.743
	l0.372-0.371l1.484-0.742l0.746-0.371l2.969-1.484l1.484-0.371h1.113l0.371,1.855l-0.742,1.484l-0.371,0.372l-0.371,0.742
	l-0.742,0.742l-0.371,0.742l-3.34,3.34l-0.746,0.371l-0.742,0.742l-0.371,0.375l-0.743,0.371l-0.742,0.742l-0.742,0.372
	l-0.371,0.371l-1.484,0.742l-0.372,0.371l-2.226,1.113l-1.113,0.371l-2.969,1.485l-1.117,0.371l-5.938,2.969l-0.371,0.371
	l-2.226,1.113l-0.372,0.371l-0.742,0.371l-0.742,0.375l-0.371,0.371l-0.746,0.371l-0.371,0.371l-0.742,0.371l-0.371,0.372
	l-0.743,0.371l-0.371,0.371l-0.742,0.371l-0.742,0.742l-0.742,0.371l-1.485,1.485l-0.742,0.371l-2.598,2.597l-0.371,0.742
	l-1.113,1.114l-0.371,0.742l-0.371,0.371l-0.375,0.742l-0.371,0.375l-1.485,2.969l-0.371,1.113v1.856h0.371l1.856-1.856l0.746-0.371
	l1.484-1.483l0.743-0.371l0.742-0.743l0.742-0.371l0.371-0.371l0.742-0.371l0.371-0.375l1.485-0.742l0.371-0.371l0.742-0.371
	l2.227-0.742h4.457l0.742,0.371l0.371,0.742v0.371l-0.371,1.117l-1.114,2.228l-0.742,0.742l-0.371,0.742l-1.113,1.113l-0.375,0.372
	l-0.371,0.742l-2.227,2.226l-0.371,0.742l-1.484,1.485l-0.371,0.742l-0.743,0.742l-0.371,0.375l-0.742,0.371l-0.371,0.371
	l-1.484,0.743l-1.114,0.371h-3.343l-1.856-0.371h-5.195l-1.113,0.371l-2.227,1.113l-0.742,0.742l-0.375,0.371l-1.113,1.114v0.371
	h0.742l1.488-0.371h2.227l1.113,0.371l0.371,0.371h0.742v0.742l0.371,0.371l0.742,1.484l0.372,1.856v2.23l-0.372,1.856l-0.371,1.484
	l-1.855,3.711l-0.742,0.742l-0.371,0.742l-1.485,1.485l-0.742,0.371l-0.742,0.742l-0.746,0.371l-0.742,0.375l-0.371,0.371
	l-1.114,0.371v0.371h2.227l1.488-0.371l2.969-0.742l1.113-0.375l1.484-0.371l4.454-1.484l0.742-0.371l1.117-0.371l1.113-0.372
	l1.485-0.742l1.113-0.371l5.937-2.969l0.372-0.371l1.484-0.742l0.375-0.371l1.484-0.742l0.371-0.371l0.743-0.371l0.371-0.371
	l0.742-0.372l0.371-0.371l0.742-0.371l0.742-0.742l0.742-0.375l1.114-1.113l0.742-0.371l1.113-1.114l0.742-0.371l1.856-1.855
	l0.375-0.371l1.113-1.113l0.742-0.372l1.485-1.484l0.371-0.742l2.597-2.598l0.372-0.375l0.742-0.742l0.371-0.742l1.484-1.485
	l0.371-0.742l1.114-1.113l0.371-0.742l0.742-0.742l0.375-0.371l0.371-0.743l0.742-0.742l0.371-0.742l0.742-0.742l0.372-0.742
	l0.371-0.372l0.371-0.742l0.371-0.371l0.371-0.375l0.371-0.742l0.371-0.371l0.371-0.742l0.742-0.742l0.371-0.743l0.372-0.371
	l0.371-0.742l0.371-0.371l0.371-0.742l0.742-0.742l0.371-0.743l0.371-0.371l0.371-0.742l0.371-0.371l0.372-0.742l0.371-0.371
	l0.371-0.742l0.742-0.743l0.375-0.742l0.371-0.371l0.371-0.746l0.371-0.371l0.371-0.742l0.742-0.742l0.372-0.743l0.371-0.371
	l0.371-0.742l0.742-0.742l0.371-0.742l0.742-0.742l0.371-0.743l0.742-0.742l0.372-0.742l0.742-0.742l0.371-0.742l1.113-1.114
	l0.371-0.746l1.114-1.113l0.371-0.742l1.113-1.114l0.375-0.371l0.371-0.371l0.371-0.742l7.422-7.422l0.371-0.375l0.742-0.371
	l1.856-1.855l0.742-0.371l0.375-0.372l0.371-0.371l0.742-0.371l0.742-0.742l0.743-0.371l0.742-0.742l0.742-0.371l0.371-0.371
	l0.742-0.371l0.371-0.372l0.742-0.371l0.372-0.371l0.742-0.371l0.371-0.371l1.484-0.742l0.371-0.371l1.485-0.742l0.371-0.372
	l0.746-0.371l1.484-0.742l0.371-0.375l9.649-4.824l0.746-0.371l0.742-0.371l1.112-0.372l1.486-0.742l1.112-0.372l0.742-0.371
	l1.112-0.371l0.744-0.371l1.112-0.371l0.742-0.371l1.112-0.371l0.744-0.371l1.116-0.371l5.566-1.856l1.112-0.375l1.485-0.371
	l1.113-0.371l1.485-0.371l1.113-0.372l1.487-0.371l2.969-0.742l5.565-1.114l2.229-0.371l2.229-0.371l2.97-0.371l3.711-0.371
	l4.457-0.371c2.233-1.551,8.978-10.699,10.797-13.383l-0.405-0.723l-0.744-0.742l-1.483-0.742l-0.371-0.371l-2.969-1.485
	l-0.371-0.371l-1.483-0.742l-0.742-0.375l-2.228-1.113l-0.746-0.371l-1.483-0.742l-1.115-0.371l-1.483-0.743l-4.452-1.484
	l-1.857-0.371l-2.229-0.371h-3.712L328.863,284.909z M370.068,284.909l0.371,0.371l0.742,0.371l0.742,0.742l0.375,0.371l0.369,0.371
	l0.371,0.743l0.742,0.742l0.744,1.484l0.371,1.117v3.34l-0.371,0.742l-0.744,0.743l-1.482,0.742l-1.117,0.371l-1.486,0.742
	l-0.742,0.742l-0.742,1.485l-0.369,0.371c-0.582,0.426-0.742,0.07-0.742,1.113c0,3.211,1.018,7.785,2.596,9.281l0.744,0.371
	l1.484,0.371l1.115,0.372l1.486,0.371l2.225,0.742l0.742,0.742l1.115,5.57v1.856c0,7.617-7.83,23.272-11.943,26.047l0.436,0.308
	c0.051,0.055,2.064-1.879,2.314-2.136c1.025-1.04,1.482-1.262,2.732-2.098c1.457-0.974,4.707-2.817,6.832-2.817h1.482
	c7.67,0,9.557,13.254,11.139,20.043l0.742,6.313l0.818,7.094l3.268-5.239l9.646-16.332l0.744,0.743l13.363,9.648l0.746,0.746
	l0.74,0.371l0.742,0.742l0.742,0.371l0.744,0.743l0.742,0.371l0.371,0.371h0.371l0.369-1.113l0.371-1.485v-4.457l-0.371-1.484
	l-0.74-2.228l-0.742-1.484l-0.371-0.371l-0.744-1.485l-0.742-0.742l-0.371-0.746l-0.74-0.742l-0.371-0.742l-0.375-0.371
	l-0.742-0.743l-0.371-0.742l-1.857-1.854l-0.371-0.742l-1.111-1.114l-0.371-0.742l-0.744-0.742l-0.371-0.742l-0.371-0.371
	l-0.371-0.743l-0.371-0.371l-0.369-0.742l-0.371-0.746v-0.371l1.482-0.371h0.371l4.082,0.371h4.457v-1.484l-0.371-0.371
	l-0.371-0.743l-0.371-0.371l-0.371-0.742l-0.74-0.742l-0.375-0.371l-0.371-0.742l-3.34-3.34l-0.742-0.371l-1.486-1.485h-0.742
	c-2.922-1.957-5.375-4.147-8.686-6.164c-2.176-1.328-7.697-4.097-9.133-5.344l-0.371-0.371l-1.486-0.742v-0.375l1.115-2.226
	l0.371-1.114l0.371-0.742l0.375-0.742l0.371-0.742l0.369-1.113l0.742-1.485l1.115-3.34l0.371-1.488v-5.195h-0.371l-1.115,1.113
	l-0.742,0.371l-0.74,0.742l-0.375,0.371l-0.742,0.371l-0.371,0.372l-1.486,0.742l-1.111,0.371H389l-1.111-0.371l-0.371-0.371
	l-0.742-0.371l-0.373-0.372l-0.742-0.371l-1.111-1.113l-0.371-0.742l-0.375-0.371l-0.742-0.742l-0.371-0.743l-0.744-0.742
	l-0.371-0.742l-0.371-0.371l-0.371-0.742l-0.74-0.742l-0.371-0.743l-0.371-0.371l-0.371-0.746l-1.115-1.113l-0.371-0.742
	l-2.225-2.227l-0.742-0.372l-0.373-0.371l-1.484-0.742l-0.744-0.372h-2.6v0.372L370.068,284.909z M370.068,284.909"/>
<path fill-rule="evenodd" clip-rule="evenodd" fill="#FFFFFF" d="M376.25,379.24c0.121,0.18,0.121,0.441-0.008,0.789
	c-0.199,0.539-0.367,0.867-0.496,0.988c-0.014,0.117-0.008,0.258,0.025,0.422c0.031,0.16,0.049,0.293,0.053,0.396l-0.006,0.882
	c0.014,0.161,0.092,0.293,0.225,0.403c0.32,0.015,0.5,0.015,0.543,0.008l1.67-0.684l2.543-1.5c0.293-0.297,0.594-0.449,0.9-0.453
	l1.025,0.379c0.096,0.035,0.176,0.094,0.236,0.18c0.064,0.093,0.074,0.187,0.035,0.296c-0.035,0.098-0.133,0.176-0.285,0.219
	c-0.15,0.043-0.275,0.047-0.365,0.012l-1.271,0.426l-3.871,2.015c-0.254,0.164-0.453,0.367-0.596,0.602
	c-0.08,0.367,0.131,0.972,0.625,1.82c0.07,0.137,0.127,0.336,0.186,0.598c0.057,0.265,0.121,0.479,0.203,0.647l0.57,1.473
	l-0.092,0.254l0.592,0.777l-0.174,0.481l-1.24-0.489l-0.207-0.828c-0.385-1.094-0.66-1.789-0.811-2.094
	c-0.146-0.3-0.289-0.566-0.432-0.785c-0.146-0.222-0.258-0.515-0.346-0.875c-0.051-0.379-0.189-0.613-0.412-0.695
	c-0.045-0.016-0.143,0.027-0.281,0.125c-0.139,0.094-0.258,0.125-0.357,0.086l-3.346,1.523c-0.215,0.282-0.551,0.368-1.016,0.258
	c-0.027-0.066-0.125-0.172-0.293-0.316c-0.168-0.149-0.25-0.321-0.246-0.516l-0.018-1.836c-0.014-0.035-0.014-0.086-0.014-0.16
	c0.006-0.066,0.006-0.125-0.004-0.16c0.189-0.297,0.414-0.391,0.678-0.293c0.154,0.055,0.244,0.098,0.268,0.129l0.486,0.496
	c0.271,0.184,0.465,0.293,0.568,0.332c0.068,0.008,0.15,0.012,0.246,0.023c0.094,0.016,0.168,0.02,0.219,0.024l1.264-0.262
	l0.25-0.164l0.668-0.262c0.189-0.07,0.35-0.273,0.475-0.613c0.072-0.199,0.086-0.406,0.039-0.617l-0.453-1.274
	c-0.203-0.586-0.607-1.062-1.207-1.425l-0.822-0.434c-0.039-0.016-0.105-0.012-0.195,0.004c-0.098-0.117-0.15-0.223-0.15-0.316
	c0.004-0.086-0.01-0.161-0.035-0.204c0.092-0.07,0.146-0.101,0.16-0.097c0.572-0.25,1.168-0.41,1.797-0.489
	c0.625-0.082,1.195-0.023,1.711,0.165C375.82,378.767,376.086,378.966,376.25,379.24L376.25,379.24z M376.25,379.24"/>
<path fill-rule="evenodd" clip-rule="evenodd" fill="#ED2224" d="M272.614,483.564c0.715-2.723,5.258-4.191,8.114-3.441l1.226,0.32
	c1.543,0.406,2.668,2.332,2.262,3.871l-0.082,0.309c-0.684,2.609-7.293,4.969-9.66,4.348c-1.383-0.363-2.496-2.973-2.102-4.484
	L272.614,483.564z M164.368,462.689c2.485,0.594,4.106-0.887,6.614-0.23l0.921,0.242c4.039,1.063,3.766,8.199,7.426,9.16l1.84,0.484
	c2.418,0.633,3.731-0.125,6.149,0.301c2.32,2.625,0.562,8.031,0.093,12.406c-0.336,3.125-4.469,12.336-0.933,13.266
	c4.058,1.066,4.097-3.129,5.16-7.168c0.648-0.227,0.699-0.473,1.387-0.289c1.789,0.469-0.504,10.652-1.075,12.828
	c-1.242,4.738-5.871,11.895-0.539,13.293l0.305,0.082c3.535,0.926,3.23-3.559,4-6.488c0.297-1.141,2.301-2.676,3.562-2.344
	c1.973,0.52,1.524,5.434,0.911,7.777l-0.547,2.488l-2.805,7.777l-1.527,5.824c-0.43,1.629-0.164,4.547,1.324,4.938l0.308,0.078
	c2.348,0.617,4.106-1.902,4.743-4.324l1.562-5.824l1.555-11.059l0.644-2.449c0.715-2.727,2.172-6.137,4.079-6.797
	c0.5,0.617,0.734,0.945,0.437,2.082l-7.402,28.879l-4.383,12.273c-1.043,2.902-0.391,6.449,2.375,7.176
	c2.18,0.574,4.348-0.59,4.758-2.695l1.961-12.91l1.609-6.133c0.238-0.898,0.988-3.02,1.727-2.824
	c0.707,0.184,0.863,0.453,0.675,1.16l-0.144,0.961l-2.317,5.93c-0.714,1.742-0.308,5.164,1.164,5.551l1.84,0.484
	c1.543,0.402,2.821-2.016,3.274-3.73l0.219-1.246l3.714-21.289l0.328,0.055c0.18-1.043,1.461-3.875,2.274-3.664
	c2.629,0.691-0.746,6.582-1.414,9.137l-0.242,0.918c-0.508,1.926-0.153,3.895,1.793,4.402l1.226,0.324
	c1.582,0.414,2.789-0.633,3.176-2.117l0.566-2.145c0.246-0.953,0.329-4.258,0.52-6.02c0.191-1.727,0.777-4.281,0.93-6.25
	c0.488-6.277,3.507-4.371,6.839-7.316c4.286-3.789,5.098-23.113,10.414-21.715c1.282,0.336,1.293,3.141,0.985,4.207l-3.281,8.297
	l-0.485,1.84c-0.519,1.98,0.184,3.98,2.102,4.484l0.918,0.242c1.515,0.398,3.086-0.52,3.484-2.035l0.422-0.906l1.184-11.453
	l0.324-1.227c0.18-0.688,0.418-0.609,0.933-1.066c1.375,1.555,1.235,5.566,3.004,6.031l0.922,0.242
	c2.199,0.578,6.617-6.785,10.063-5.879c2.39,0.625,1.711,7.988,6.121,9.145c6.051,1.586,8.922-7.82,14.148-6.445
	c6.555,1.719,7.852,2.988,12.711-0.016c2.586-1.598,6.323-6.461,10.344-5.406l1.531,0.402c0.672,0.176,1.396,1.297,1.223,1.973
	l-3.266,8.309l-0.32,1.227c-0.405,1.547,0.302,3.355,1.953,3.789l0.612,0.16c1.779,0.469,3.525-1.141,3.853-2.941l1.048-8.227
	l0.241-0.918c0.134-0.504,0.427-0.875,0.854-0.762c0.942,0.25,0.99,1.223,0.744,2.164l-2.634,10.465l-2.245,5.625
	c-1,2.414-0.642,8.023,1.358,8.551l0.612,0.16c1.994,0.523,3.586-1.164,4.115-3.184l0.885-3.371
	c0.918-3.504,0.193-5.723,1.029-8.906l0.721-2.762c0.328-1.238,2.033-3.727,2.888-3.504c0.469,0.125,0.926,0.461,0.871,0.902
	l-2.177,5.313c-0.588,1.41-0.336,3.844,1.185,4.242c1.914,0.504,3.603,0.008,4.099-1.875l0.319-1.227
	c0.418-1.598-0.149-1.934,0.19-3.227c0.216-0.813,2.072-0.766,3.082-0.5l0.927,0.227l7.418,2.945
	c2.478,1.047,8.832-0.359,10.694-0.797l5.485-20.891l-17.504-13.074l-127.293-33.41l-40.914,4.82L164.368,462.689z M164.368,462.689
	"/>
<path fill-rule="evenodd" clip-rule="evenodd" fill="#ED2224" d="M318.854,444.662h18.836c2.776,0,5.5,0.367,8.147,1.047
	c3.039-0.723,6.181-1.047,9.349-1.047c4.25,0,8.53,0.391,12.66,1.422c10.561,2.613,18.975,10.16,18.975,21.656v31.332h-17.314
	c-1.811,0-3.613-0.121-5.411-0.332v0.332h-58.603c-3.858,0-7.69-0.539-11.382-1.676l-0.019-0.008
	c-0.191-0.059-0.383-0.117-0.57-0.184c-3.903,1.352-8.223,1.867-12.496,1.867c-0.743,0-1.485-0.023-2.227-0.063v0.063h-43.832
	c-8.836,0-17.688-2.348-23.027-9.473c-1.52,0.109-3.043,0.156-4.543,0.156h-9.004c-2.66,3.453-6.379,6.125-10.852,7.676
	l-0.187,0.066l-0.188,0.063c-3.82,1.227-7.973,1.512-11.965,1.512h-18.457v-94.82h50.907v-4.09h45.242v8.031h13.211
	c3.507,0,6.996,0.488,10.394,1.348l0.117,0.031l0.121,0.031c7.813,2.094,14.403,7.051,16.551,14.575h0.739v17.316
	c0,0.613-0.028,1.215-0.086,1.809c0.48,0.457,0.933,0.938,1.367,1.438h7.64c0.849-0.051,1.697-0.078,2.547-0.078H318.854z
	 M318.854,444.662"/>
<path fill-rule="evenodd" clip-rule="evenodd" fill="#6F7172" d="M324.626,450.643v-0.207h13.063c2.772,0,5.483,0.449,8.096,1.254
	c3.033-0.879,6.203-1.254,9.4-1.254c3.776,0,7.596,0.336,11.268,1.25c7.939,1.965,14.596,7.273,14.596,16.055v25.559h-11.543
	c-1.898,0-3.795-0.152-5.669-0.41l-0.06-0.008c-1.901-0.273-3.742-0.742-5.453-1.41v1.828h-33.698v-0.172
	c-1.22,0.117-2.449,0.172-3.681,0.172h-15.453c-3.284,0-6.542-0.453-9.682-1.418l-0.016-0.008c-0.793-0.242-1.566-0.527-2.312-0.852
	c-3.75,1.758-8.227,2.277-12.457,2.277c-1.59,0-3.18-0.117-4.754-0.305c-1.11-0.129-2.196-0.332-3.243-0.613v0.918h-38.062
	c-7.777,0-16.031-1.961-19.875-9.527c-0.043-0.094-0.09-0.184-0.133-0.277c-2.543,0.367-5.125,0.488-7.562,0.488h-12.137
	c-1.941,3.688-5.301,6.504-9.609,7.996l-0.25,0.086c-3.211,1.031-6.844,1.234-10.2,1.234h-12.683v-83.273h47.375
	c1.168,0,2.351,0.043,3.531,0.137v-4.228h33.695v8.199c1.172-0.113,2.352-0.168,3.532-0.168h15.453c3.027,0,6.047,0.43,8.98,1.172
	l0.078,0.02l0.078,0.023c6.981,1.871,13.012,6.539,13.012,14.422v11.891c0,1.445-0.238,2.82-0.687,4.109
	c1.98,1.273,3.636,2.922,4.812,4.906h9.59v0.094c1.168-0.113,2.349-0.168,3.526-0.168h15.453
	C322.177,450.436,323.402,450.506,324.626,450.643L324.626,450.643z M324.626,450.643"/>
<path fill-rule="evenodd" clip-rule="evenodd" fill="#FFFFFF" d="M330.4,457.799v-1.59h7.289c2.785,0,5.483,0.586,8.058,1.57
	c3-1.129,6.219-1.57,9.438-1.57c3.299,0,6.668,0.277,9.879,1.078c5.254,1.301,10.211,4.445,10.211,10.453v19.785h-5.77
	c-1.635,0-3.268-0.133-4.88-0.355l-0.031-0.004c-5.903-0.844-11.317-4.039-11.317-10.641v-4.68h-0.726v15.68H330.4v-1.605
	c-2.978,1.184-6.244,1.605-9.455,1.605h-15.453c-2.707,0-5.393-0.367-7.991-1.164c-1.523-0.473-2.976-1.137-4.223-2.012
	c-3.171,2.742-8.21,3.176-12.253,3.176c-1.364,0-2.731-0.105-4.083-0.266c-4.218-0.484-8.128-2.367-9.687-5.992v6.258h-32.289
	c-5.414,0-11.996-0.988-14.727-6.367c-0.707-1.395-1.043-2.918-1.043-4.48v-0.117c-3.73,1.441-8.261,1.648-11.8,1.648h-16.211
	c-0.676,3.98-3.414,6.926-7.426,8.316l-0.063,0.023l-0.062,0.02c-2.586,0.828-5.734,0.957-8.434,0.957h-6.91v-35.254h41.528
	c4.57,0,10.124,0.609,13.488,3.938h28.859c2.434,0,4.84,0.379,7.172,1.074l0.016,0.004c0.328,0.098,0.656,0.207,0.976,0.324v-1.402
	h6.211v-5.156c-0.144,0.004-0.293,0.004-0.437,0.004H250.65c-2.711,0-5.399-0.367-7.993-1.164c-1.75-0.543-3.402-1.34-4.761-2.41
	c-0.828,0.73-1.786,1.359-2.856,1.871c-2.531,1.219-5.305,1.703-8.101,1.703h-7.743v-1.348c-2.937,1.098-6.336,1.348-9.304,1.348
	H168.29v-25.711h0.567c-0.008-0.016-0.012-0.027-0.016-0.043c-0.371-0.977-0.551-2.004-0.551-3.047v-6.457h41.602
	c2.984,0,6.375,0.265,9.304,1.378v-5.468h22.149v9.578c0.484-0.185,0.976-0.348,1.48-0.492c2.543-0.727,5.18-1.055,7.825-1.055
	h15.453c2.55,0,5.093,0.371,7.562,0.996l0.039,0.012l0.039,0.008c4.36,1.168,8.739,3.742,8.739,8.847v4.164
	c0,0.66-0.079,1.316-0.231,1.957h0.231v5.77c0,2.578-1.411,4.684-3.469,6.109c-0.379,0.262-0.77,0.508-1.164,0.738
	c0.609,0.059,1.199,0.137,1.758,0.242l0.031,0.008c4.324,0.848,8.07,3.352,8.781,7.691h7.773v1.477
	c0.481-0.188,0.977-0.352,1.477-0.496c2.543-0.727,5.181-1.055,7.823-1.055h15.453c2.552,0,5.095,0.371,7.563,0.996l0.043,0.012
	l0.039,0.012C329.195,457.389,329.802,457.58,330.4,457.799L330.4,457.799z M289.267,471.025c-0.239,0.078-0.481,0.152-0.727,0.219
	v0.949h0.727V471.025z M191.501,434.662h11.637v-2.316h-11.637V434.662z M191.501,434.662"/>
<path fill-rule="evenodd" clip-rule="evenodd" fill="#050605" d="M220.349,440.436v-13.863c0-3.332-3.485-5-10.453-5h-35.832v0.684
	c0,2.875,3.812,4.316,11.437,4.316h23.41v13.863h-23.183v-9.32h-11.664v14.168h35.832
	C216.864,445.283,220.349,443.666,220.349,440.436L220.349,440.436z M235.575,421.572v-4.09H224.97v4.09H235.575z M235.575,425.51
	H224.97v19.773h1.969c2.171,0,4.039-0.379,5.605-1.137c2.02-0.961,3.031-2.426,3.031-4.395V425.51z M276.708,441.494H250.65v-3.863
	h15.679c6.922,0,10.379-1.285,10.379-3.863v-4.164c0-1.391-1.488-2.477-4.457-3.27c-2.144-0.543-4.203-0.824-6.148-0.824H250.65
	c-2.211,0-4.293,0.281-6.239,0.836c-2.812,0.809-4.215,2.043-4.215,3.711v10.453c0,1.719,1.387,3.004,4.164,3.863
	c1.973,0.605,4.067,0.91,6.29,0.91h15.453c4.089,0,7.297-0.809,9.621-2.426C276.38,442.404,276.708,441.951,276.708,441.494
	L276.708,441.494z M266.103,433.768H250.65v-4.164h15.453V433.768z M220.349,467.436v-4.395c0-3.332-3.512-5-10.531-5h-35.754
	v23.711h1.136c3.032,0,5.25-0.227,6.664-0.68c2.477-0.859,3.715-2.477,3.715-4.848v-13.184h23.18v4.395h-11.817
	c-3.335,0-5.457,1.113-6.363,3.332c-0.254,0.609-0.379,1.164-0.379,1.668h17.196C216.032,472.436,220.349,470.768,220.349,467.436
	L220.349,467.436z M261.482,481.752V466.15c0-1.465-1.262-2.578-3.786-3.336c-1.871-0.555-3.714-0.832-5.531-0.832h-24.543v0.379
	c0.363,2.473,3.016,3.711,7.953,3.711h15.379v4.016h-16.515c-2.829,0-4.875,0.227-6.137,0.68c-2.223,0.758-3.332,2.223-3.332,4.395
	v1.516c0,3.383,3.332,5.074,10,5.074H261.482z M250.954,477.967h-15.379v-3.941h15.379V477.967z M290.419,477.967h-7.648V466.15
	c4.089,0,6.539-0.887,7.347-2.652c0.2-0.457,0.301-0.934,0.301-1.441h-7.648v-4.242c0-1.816-1.414-3.004-4.243-3.559
	c-1.062-0.203-3.132-0.305-6.214-0.305v8.031h-6.211v4.168h6.211v11.461c0,2.211,1.769,3.512,5.304,3.914
	c1.262,0.152,2.399,0.227,3.41,0.227C287.29,481.752,290.419,480.49,290.419,477.967L290.419,477.967z M331.557,477.967h-26.064
	v-3.863h15.685c6.918,0,10.38-1.289,10.38-3.863v-4.168c0-1.387-1.492-2.473-4.457-3.27c-2.15-0.543-4.207-0.82-6.15-0.82h-15.457
	c-2.206,0-4.288,0.277-6.233,0.832c-2.817,0.809-4.219,2.047-4.219,3.711v10.457c0,1.715,1.391,3.004,4.168,3.863
	c1.969,0.605,4.067,0.906,6.284,0.906h15.457c4.091,0,7.298-0.805,9.621-2.422C331.229,478.873,331.557,478.42,331.557,477.967
	L331.557,477.967z M320.949,470.24h-15.457v-4.168h15.457V470.24z M369.506,481.752V467.74c0-2.273-1.941-3.891-5.833-4.848
	c-2.422-0.609-5.25-0.91-8.483-0.91c-3.74,0-6.869,0.707-9.396,2.121c-2.828-1.414-5.526-2.121-8.104-2.121h-1.513v19.77h10.604
	v-15.68h12.271v10.453c0,2.68,2.121,4.32,6.362,4.926C366.881,481.654,368.242,481.752,369.506,481.752L369.506,481.752z
	 M369.506,481.752"/>
</svg>
