<svg version="1.1" baseProfile="basic" id="Layer_1" xmlns="http://www.w3.org/2000/svg"
	xmlns:xlink="http://www.w3.org/1999/xlink" x="0px" y="0px" viewBox="-101.86 821.445 800 800" xml:space="preserve">
	<path fill="#ECEDED" d="M491.209,884.845c-0.132,1.72-0.377,3.348-0.661,4.933l0.102-0.027l0.85-0.428v-3.636l-0.27-0.783
	L491.209,884.845z" />
	<path fill="#ECEDED" d="M509.737,1288.446l-1.054-2.106l-0.967-0.978l-0.967-1.934l-1.938-1.934l-0.967-1.934l-2.9-2.9l-0.962-1.934
	l-10.375-10.365l-1.934-0.967l-4.829-4.834l-1.934-0.967l-2.906-2.901l-1.929-0.967l-2.9-2.9l-1.928-0.967l-1.944-1.934
	l-1.938-0.962l-0.967-0.967l-1.929-0.977l-0.967-0.967l-3.796-1.898l-2.9-0.967l-3.873-1.929l-5.806-1.934l-1.929-0.967
	l-2.905-0.967l-1.934-0.967l-2.896-0.967l-1.934-0.977l-2.906-0.967l-6.065-3.033v6.442l-1.099,7.704l-1.068,5.322l-3.043,12.183
	l-0.962,2.9l-0.967,3.867l-0.967,2.9l-0.967,3.877l-0.504,1.527c2.845,0.392,5.699,0.921,8.503,1.572
	c7.984-1.694,16.136-2.474,24.277-2.474c11.861,0,23.773,1.115,35.294,3.99C493.957,1280.498,502.313,1283.917,509.737,1288.446
	L509.737,1288.446z" />
	<path fill="#ECEDED" d="M447.458,1435.25l-0.402,1.496l-5.628,1.313c-9.195,2.157-24.837,5.262-33.666,1.629l-11.185-4.438h-6.34
	l-0.697,2.626c-2.626,10.039-11.882,14.039-21.377,11.973c-0.25,1.685-0.58,3.399-1.049,5.186l-2.31,8.793
	c-2.631,10.029-11.648,17.968-22.426,15.139l-1.603-0.418c-12.955-3.409-14.207-24.918-9.999-35.172l0.585-1.455l-0.57-0.158
	c-3.989-1.043-7.169-3.424-9.332-6.513h-1.181c-10.543,0-21.021-1.425-31.138-4.387c-9.292,2.819-19.103,4.081-28.812,4.336v0.051
	h-76.239l-0.092,0.809l-1.488,3.196c-2.766,8.437-11.792,13.434-20.494,11.153l-2.392-0.631c-3.908-1.032-6.981-3.154-9.159-5.933
	c-1.964,4.579-4.376,8.681-7.419,11.367c-2.883,2.545-5.934,4.325-9.455,5.812c-1.132,0.468-3.188,1.145-4.175,1.796
	c-0.578,0.946-0.893,4.01-0.977,4.997c-0.438,5.628-1.832,11.042-2.44,16.599c-0.58,5.221-0.336,12.162-1.628,17.058l-1.468,5.597
	c-2.349,8.946-10.755,14.777-19.985,12.355l-3.196-0.845c-0.499-0.122-0.977-0.275-1.435-0.438l-3.503,20.018l-0.628,3.644
	l-0.102,0.377c-2.361,8.966-9.569,19.372-20.252,16.568l-3.033-0.804l-2.046,13.434l-0.041,0.193
	c-2.178,11.185-13.475,17.301-24.242,14.472c-13.719-3.593-17.077-19.275-12.793-31.213l7.216-20.202
	c-1.242-0.04-2.514-0.233-3.827-0.58l-0.804-0.203c-10.21-2.682-12.629-15.683-10.299-24.578l4.091-15.591l4.56-12.655
	c-3.463,1.669-7.358,1.791-11.167,0.794l-0.791-0.214c-4.804-1.262-8.925-3.959-11.398-8.346
	c-6.758-11.947,2.921-26.45,5.954-38.011c0.132-0.469,0.262-1.038,0.427-1.67c-2.564,0.336-5.221,0.077-7.836-0.6
	c-0.132-0.041-0.274-0.071-0.407-0.112c-8.691,1.873-17.667,2.392-26.542,2.392H-76.86v-266.228h99.298v-3.48l-0.529-2.646
	l-0.662-1.323l-0.929-0.926h-2.572l-3.867,0.967H1.168v-14.543l9.706-9.709l7.809-3.908l5.027-1.669h16.047l4.836,0.967h6.198
	l0.773-0.265l1.863-0.926l0.967-0.967l1.944-0.967l0.692-0.702l0.964-1.934l3.87-3.865l0.967-1.934l5.809-5.813l0.967-1.921
	l3.87-3.878l0.356-0.715l-2.279,0.764l-0.947,0.946l-3.877,1.937l-0.967,0.967l-1.934,0.967l-0.967,0.967l-1.936,0.967l-1.931,1.943
	l-1.934,0.965l-3.868,3.867l-1.936,0.969l-6.542,6.542H30.173v-15.986l1.679-5.027l4.873-9.739l0.967-0.964l0.969-1.939l0.967-0.967
	l0.967-1.934l2.9-2.897l0.967-1.934l8.966-8.979l1.934-0.967l3.877-3.862l1.934-0.967l1.934-1.934l1.934-0.967l0.967-0.967
	l1.934-0.967l0.967-0.967l1.934-0.967l0.967-0.967l1.931-0.967l0.967-0.967l3.87-1.934l0.967-0.969l5.801-2.908l0.967-0.967
	l17.484-8.732l2.9-0.967l7.735-3.867l2.9-0.972l3.806-1.898l0.967-0.967l3.868-1.934l0.896-0.896h-9.475l-3.073-12.284v-11.643
	l1.16-6.971l1.313-5.262l4.071-8.132l0.964-0.969l0.967-1.932l7.045-7.042l1.934-0.967l0.967-0.968l9.739-4.874l6.798-2.26
	l8.315-2.076l5.322-1.068l20.464-2.921l5.536-0.926l4.46-0.896l3.297-0.814l2.9-0.967l2.106-0.529h-2.249v-16.497l5.842-2.921
	l2.633-2.636l0.969-1.934l0.946-0.946l0.621-1.865l0.824-3.285l0.896-4.457l0.998-6.025l1.323-5.261l3.091-6.208l4.145-4.132
	l5.353-2.677h16.016l5.376,1.343l9.699,3.227l1.934,0.967l0.265,0.092v-10.666l9.78-4.895l3.898-1.303l4.447-1.112l5.994-1.201
	h32.418l9.307,1.041l23.021,2.88l12.939,0.916h1.878l5.241-0.743l4.336-1.445l7.668-3.839l1.934-1.931l1.938-0.968l2.631-2.638
	l0.967-1.932l0.066-0.071l-1.664-0.834l-4.59-1.526l-5.516-1.1l-8.381-4.195v-13.818l10.034-3.34l6.351-1.271h11.414l6.737,1.133
	l5.571,1.109l12.823,4.271l3.862,1.934l2.905,0.967l19.408,9.709l0.962,0.967l7.75,3.87l0.967,0.967l3.862,1.934l0.986,0.987
	c5.201-5.254,10.478-9.854,14.915-12.205l-0.234-0.112v-16.497h18.624l9.221,4.613l0.967,0.967l1.934,0.967l8.015,8.007l0.967,1.934
	l2.9,2.903l0.962,1.934l0.967,0.969l0.967,1.934l1.934,1.934l0.972,1.935l0.967,0.967l0.967,1.934l1.934,1.934l0.957,1.934l2.9,2.91
	l0.967,1.934l0.707,0.692l1.929,0.967l0.967,0.967l1.934,0.967l0.225,0.234h5.108l0.783-0.265l1.868-0.937l0.967-0.967l1.929-0.967
	l2.9-2.9l1.938-0.967l4.605-4.61h14.543v24.15l0.193-0.193l1.938-0.967l1.934-1.934l1.929-0.967l1.929-1.934l1.934-0.967
	l0.967-0.967l1.938-0.967l0.967-0.97l1.934-0.964l0.962-0.978L595,898.49l0.972-0.967l17.479-8.732l7.928-2.646h11.327l4.29,4.284
	l6.772-4.325l-4.468,7.317V906l-5.546,16.63l-0.967,1.934l-0.967,2.91l-0.967,1.934l-0.967,2.9l-1.929,3.867l-0.967,2.9
	l-1.934,3.867l-0.973,2.901l-1.934,3.867l-0.977,2.9l-3.857,7.744l-0.967,2.901l-4.625,9.25l2.392,2.393l1.938,0.967l10.895,10.909
	l0.967,1.934l2.9,2.9l0.972,1.934l0.978,0.967l0.967,1.935l2.666,2.671v17.437h-19.306l2.117,2.127l0.967,1.94l4.839,4.837
	l0.962,1.934l2.9,2.9l0.967,1.932l1.938,1.934l0.978,1.936l1.934,1.935l1.928,3.864l0.962,0.967l2.932,5.872l2.27,6.804l1.354,5.371
	v13.971l-1.354,5.365l-2.819,8.435l1.262,3.771v18.947l-1.195,5.994l-1.109,4.447l-0.967,2.9l-0.967,3.865l-1.939,5.804
	l-1.729,6.897l-0.799,5.61v7.416l0.854,6.801l0.854,4.272l0.962,3.869l0.967,4.832l2.764,11.021l0.967,2.9l1.928,7.745l0.968,2.9
	l0.967,3.867l0.967,2.9l0.967,3.867l1.938,5.801l0.967,3.868l0.967,2.9l0.962,3.877l1.032,3.114l1.146,5.679l1.013,7.124
	l1.908,15.205l1.807,9.108l0.829,3.287l0.642,1.903l0.961,1.934l0.474,1.404l0.453,0.468l0.885,1.751l3.685,1.842l4.142,4.142
	l2.128,4.265l1.516,6.035v14.553l-1.16,6.962l-2.111,8.467l-3.241,9.704l-6.809,13.606l-0.967,0.967l-0.967,1.934l-1.929,1.939
	l-0.967,1.934l-7.032,7.032l-1.939,0.967l-0.967,0.967l-5.872,2.941l-12.604,4.192l-4.452,1.12l-9.785,1.953l0.26,0.54l0.728,5.729
	l-0.03,1.669l0.289,2.341l-0.03,1.659l0.158,1.17l-0.117,6.696l-0.773,3.308l0.529,4.224l-0.463,1.354l0.539,1.293l-1.358,1.018
	l-1.827,5.211l-3.282,1.572l-0.931,1.791l-2.941,3.786l-1.313,0.631l-0.844,0.813l-3.48,1.67l-2.662,0.335l-1.078,1.038
	l-6.997,3.358l-13.343-4.691l-3.48-3.593l-0.01-0.04l-0.076-0.057l-0.285-0.29l-4.244-2.335l-1.526-3.196l-3.221,1.548l0.813-7.435
	l-0.452-0.967l-1.176-9.246l0.102-6.04l0.209-2.168l0.025-1.897l0.438-3.018l0.214-2.326l0.596-3.379l0.427-3.012l0.605-2.423
	l-3.043-1.007l-11.673-5.842l-0.962-0.967l-1.934-0.967l-1.938-1.934l-1.033-0.52v77.601h-54.712c-1.506,0-3.002-0.03-4.503-0.092
	v0.092h-35.07V1435.25z" />
	<path fill="#FFFFFF" d="M565.573,947.452c5.449,1.697,17.418,5.414,18.695,10.177h1.934c2.728-11.683,21.402-30.693,27.748-41.084
	L565.573,947.452z M443.067,952.794c0,3.358,1.46,6.626,2.896,8.702c3.292-14.096,1.908-11.663,7.76-23.194
	c2.056-4.061,8.04-18.979,9.815-21.453l-1.124-0.807c-0.158-0.149-5.49,6.363-6.208,7.33c-2.28,3.1-3.959,5.19-6,8.516
	C447.183,936.85,443.067,945.455,443.067,952.794L443.067,952.794z M576.534,1298.063c6.89,1.598,26.104-0.85,26.104,6.772
	c0,9.567-15.632,11.603-26.104,11.603c2.076,1.445,3.19,1.929,6.763,1.929h6.782c6.479,0,16.437-8.758,16.437-15.47v-1.934
	c0-3.084-4.926-6.778-8.701-6.778h-3.873C587.245,1294.185,580.167,1294.898,576.534,1298.063L576.534,1298.063z M309.604,1196.505
	v5.812c0,21.646,9.669,33.289,9.669,54.152c0,24.181-6.188,42.438-12.437,60.105c-2.504,7.073-19.59,47.914-22.542,51.283
	l1.127,0.809c0.186,0.179,8.165-10.803,9.108-12.172c2.984-4.392,5.568-8.437,7.97-13.302c4.85-9.831,9.78-17.738,14.004-28.557
	c5.816-14.899,19.214-46.428,19.214-65.896v-6.768c0-17.21-7.749-28.529-7.749-48.364v-0.97c0-17.827,13.148-40.757,19.677-53.826
	c4.814-9.648,24.196-40.912,25.789-47.718c-21.031,11.121-33.473,17.484-46.041,38.103
	C317.781,1144.958,309.604,1171.409,309.604,1196.505L309.604,1196.505z M557.198,1086.254c18.863,1.57,19.673,22.016,24.15,37.729
	c3.572,12.508,13.164,35.108,12.854,49.326l-2.198,62.855c-0.651,16.029,1.954,40.617,16.446,40.617h0.967
	c6.086,0,24.176-9.221,24.176-12.568c0-0.204-12.854-28.547-14.314-34.043c-3.837-14.319-7.007-23.438-8.986-40.342
	c-1.842-15.673-2.773-26.959-2.794-45.573c-0.005-14.8-4.854-28.658-4.854-44.464c0-15.51,5.394-15.38,10.635-23.206
	c-7.435-1.737-27.234-23.303-29.01-30.946l-1.939-1.936L557.198,1086.254z M546.552,1081.423l-1.934-16.449l-14.507,17.416
	C534.686,1082.39,544.832,1085.698,546.552,1081.423L546.552,1081.423z M485.612,1105.604l0.967,0.967
	c0.326,0.315,0.805-0.764,1.044-0.896c2.687-1.526-0.738,0.173,1.964-0.946c1.857-0.773,2.203-0.814,4.091-1.71
	c2.86-1.356,4.56-2.26,8.386-2.26h2.901c6.823,0,12.879,8.173,19.336,8.712c-1.155-4.346-13.678-12.581-19.336-12.581h-0.968
	C495.57,1096.89,490.721,1102.187,485.612,1105.604L485.612,1105.604z" />
	<path fill="#868789" d="M571.985,1394.674l3.358-1.603l1.043-2.987c3.517-2.636,2.998,0.601,6.254-3.313
	c2.682-3.216,3.558-1.15,7.129,0.198c1.471-0.377,3.089-1.705,4.356-1.257l0.493,0.168c1.766,0.621,0.978,2.025,1.97,2.371
	c1.796,0.631,2.916,0.56,4.32,0.407c0.564-5.119,1.078-6.33-4.86-8.417l-3.47-1.221c-6.438-2.27-18.421,1.536-20.115,6.33
	l-0.168,0.499C571.11,1389.219,572.29,1391.845,571.985,1394.674L571.985,1394.674z M575.232,1369.557
	c4.04-1.028,4.951-2.85,10.446-3.206c4.555-0.3,7.745,1.236,13.058,3.104c-1.068-4.152-3.771-14.736-8.727-16.477l-2.483-0.876
	C578.895,1349.06,577.302,1363.674,575.232,1369.557L575.232,1369.557z" />
	<path fill="#322D2E" d="M572.769,1397.188c0.438-1.262,2.493-1.699,3.704-2.605l1.241-3.48c0.911-0.234,3.853-0.672,4.422-1.109
	c1.898-1.455,0.438-2.382,3.807-3.257c1.99,0.896,0.932,0.896,2.804,1.547c1.873,0.662,3.44-1.018,4.188-0.763
	c2.768,0.977,2.463,3.104,3.271,3.389c2.076,0.732,1.75-0.977,5.094,0.102l-1.13,4.193l1.567,3.796
	c-1.354,1.018-2.737,1.272-4.005,2.859c-1.607,2.005-0.987,3.369-3.18,4.57c-2.158,1.17-2.85-0.174-4.865,1.048
	c-1.099,0.661-3.083,3.521-4.31,3.084c-1.639-0.57-1.629-2.25-3.943-3.063c-1.12-0.387-1.232,0.01-2.458,0.356l-1.349-2.25
	l-2.982-1.048C574.382,1402.775,572.606,1397.667,572.769,1397.188L572.769,1397.188z M577.999,1402.938
	c-0.081,1.216-0.396,1.542,0.967,2.015l0.504,0.184c1.506,0.529,1.572-0.102,2.193-1.537l-2.193-0.132l0.057-1.669l-3.268-1.272
	l-0.682-1.791C572.04,1399.803,574.723,1402.083,577.999,1402.938L577.999,1402.938z M600.913,1388.66
	c-1.404,0.152-2.529,0.224-4.32-0.407c-0.992-0.346-0.203-1.75-1.969-2.371l-0.494-0.168c-1.267-0.448-2.885,0.886-4.355,1.257
	c-3.572-1.354-4.447-3.42-7.129-0.203c-3.257,3.923-2.743,0.687-6.26,3.317l-1.043,2.987l-3.358,1.603
	c0.306-2.829-0.875-5.455,0.315-8.823l0.168-0.499c1.694-4.794,13.678-8.6,20.115-6.33l3.471,1.221
	C601.987,1382.33,601.478,1383.541,600.913,1388.66L600.913,1388.66z M572.707,1381.515c0.311-2.941-0.04-4.682,1.303-8.478
	c1.16-3.317,13.281-5.934,18.726-4.02l1.99,0.702c5.043,1.775,6.314,6.035,5.806,10.482l-4.279-2.127l-3.48-1.222
	C583.475,1373.577,578.452,1379.775,572.707,1381.515L572.707,1381.515z M575.232,1369.557c2.076-5.883,3.663-20.497,12.294-17.454
	l2.483,0.876c4.956,1.74,7.658,12.324,8.727,16.477c-5.313-1.873-8.503-3.409-13.058-3.104
	C580.183,1366.708,579.267,1368.529,575.232,1369.557L575.232,1369.557z M571.176,1373.16l-0.382,2.661l-0.55,3.165l-0.203,2.158
	l-0.382,2.661l-0.03,1.664l-0.204,2.162l-0.021,1.675l-0.025,1.658l-0.03,1.669l0.152,1.171l0.138,1.17l0.158,1.171l0.279,2.335
	l0.158,1.161l0.325,0.671l0.315,0.688l0.326,0.672l0.997,0.346l-0.356,0.997l0.326,0.672l0.143,1.17l0.325,0.672l2.809,1.547
	l0.81,0.845l1.328,1.018l0.311,0.672l0.829,0.845l0.992,0.356l0.672-0.326l1.491,0.529l0.325,0.672l3.97,1.395l0.682-0.315
	l1.338-0.651l0.85-0.814l1.019-1.313l0.677-0.326l1.165-0.152l1.674,0.03l1.165-0.143l0.677-0.325l0.84-0.819l0.677-0.326
	l1.018-1.313l1.73-3.308l0.845-0.824l0.672-0.315l1.338-0.651l1.054-2.981l-0.143-1.171l-0.326-0.672l-0.147-1.16l1.063-4.65
	l0.066-3.333l0.025-1.664l-0.147-1.165l0.03-1.675l-0.157-1.17l-0.143-1.165l0.03-1.675l-0.152-1.155l-0.138-1.17l-0.163-1.17
	l-0.31-0.677l-0.158-1.171l-0.138-1.17l-0.157-1.171l-0.315-0.672l-0.147-1.17l-0.143-1.165l-0.326-0.672l-0.152-1.171l-0.326-0.671
	l-0.143-1.16l-0.325-0.672l-0.325-0.688l-0.316-0.672l-0.147-1.154l-0.315-0.677l-0.325-0.683l-0.326-0.671l-0.315-0.672
	l-0.829-0.845l-0.326-0.672l-0.315-0.672l-0.325-0.672l-0.81-0.845l-0.651-1.343l-0.819-0.845l-1.322-1.028l-0.81-0.845
	l-6.468-2.279l-1.16,0.152l-0.677,0.326l-1.165,0.143l-0.677,0.325l-0.672,0.315l-0.845,0.824l-0.672,0.315l-0.844,0.824
	l-0.851,0.814l-1.19,1.822l-4.544,12.925L571.176,1373.16z" />
	<path fill="#C6C7C8" d="M592.772,1376.854l3.48,1.222l4.279,2.127c0.509-4.447-0.763-8.712-5.806-10.482l-1.99-0.702
	c-5.449-1.914-17.565,0.702-18.726,4.02c-1.343,3.796-0.992,5.536-1.303,8.478C578.452,1379.775,583.475,1373.577,592.772,1376.854
	L592.772,1376.854z" />
	<path fill="#ED2224" d="M577.999,1402.938c-3.276-0.85-5.959-3.13-2.422-4.198l0.682,1.791l3.272,1.272l-0.057,1.669l2.193,0.133
	c-0.62,1.435-0.687,2.065-2.193,1.536l-0.503-0.183C577.603,1404.475,577.918,1404.149,577.999,1402.938L577.999,1402.938z
	 M585.943,1386.736c-3.368,0.875-1.908,1.802-3.807,3.257c-0.574,0.438-3.516,0.875-4.422,1.109l-1.241,3.485
	c-1.211,0.906-3.267,1.344-3.704,2.605c-0.163,0.479,1.613,5.587,1.877,7.363l2.982,1.048l1.349,2.25
	c1.231-0.347,1.343-0.743,2.458-0.356c2.314,0.813,2.305,2.493,3.943,3.063c1.231,0.438,3.211-2.423,4.31-3.084
	c2.016-1.222,2.707,0.122,4.865-1.048c2.192-1.201,1.572-2.565,3.18-4.57c1.268-1.587,2.656-1.842,4.005-2.859l-1.567-3.796
	l1.13-4.193c-3.344-1.078-3.018,0.631-5.094-0.102c-0.809-0.285-0.504-2.412-3.271-3.389c-0.748-0.255-2.32,1.425-4.188,0.763
	C586.874,1387.631,587.933,1387.631,585.943,1386.736L585.943,1386.736z" />
	<path fill="#575858" d="M613.95,916.546c-6.351,10.389-25.025,29.401-27.748,41.082h-1.934c-1.277-4.763-13.246-8.477-18.695-10.177
	L613.95,916.546z M620.051,896.699l-2.9,0.967l-15.474,7.732l-0.962,0.969l-3.867,1.934l-0.967,0.967l-1.939,0.967l-0.967,0.967
	l-1.929,0.967l-0.961,0.967l-1.944,0.978l-1.934,1.934l-1.934,0.964l-1.938,1.937l-1.934,0.967l-2.896,2.9l-1.934,0.967
	l-13.541,13.536l-0.967,1.934l-1.929,1.934l-1.928,3.867l-0.978,1.943v1.934c3.74,3.247,18.125,10.462,23.794,13.923
	c8.625,5.254,15.017,10.96,22.629,16.06v-0.967l-0.967-0.978l-0.962-0.967v-1.934l0.962-1.934l0.967-2.9l4.839-9.668l0.967-2.901
	l3.862-7.736l0.967-2.898l0.962-1.943l0.967-1.932l0.972-2.9l1.934-3.87l0.967-2.897l0.967-1.934l0.978-1.934l0.967-2.903
	l0.962-1.934l0.967-2.897l0.967-1.934l0.967-2.903l0.967-2.911l2.905-8.701v-7.732l-0.967-0.967h-5.806L620.051,896.699z
	 M443.067,952.794c0-7.34,4.116-15.947,7.139-20.906c2.041-3.325,3.72-5.411,6-8.516c0.712-0.967,6.05-7.479,6.208-7.33l1.124,0.807
	c-1.775,2.474-7.76,17.393-9.815,21.453c-5.852,11.531-4.468,9.099-7.76,23.194C444.527,959.42,443.067,956.153,443.067,952.794
	L443.067,952.794z M430.497,950.861c0,15.021,15.093,33.85,30.949,33.85h2.9c14.777,0,23.082-12.012,21.347-27.168
	c-1.848-16.248-8.783-27.59-8.783-42.469v-6.775c0-9.631,4.839-15.89,4.839-27.084C469.354,887.786,430.497,933.56,430.497,950.861
	L430.497,950.861z M309.604,1196.505c0-25.097,8.178-51.547,17.79-67.311c12.568-20.619,25.01-26.982,46.041-38.104
	c-1.593,6.809-20.975,38.072-25.789,47.721c-6.528,13.067-19.677,35.996-19.677,53.824v0.969c0,19.836,7.749,31.152,7.749,48.362
	v6.768c0,19.469-13.397,50.997-19.214,65.896c-4.224,10.818-9.154,18.73-14.004,28.557c-2.401,4.865-4.985,8.915-7.97,13.302
	c-0.944,1.374-8.923,12.355-9.108,12.172l-1.127-0.804c2.952-3.369,20.038-44.21,22.542-51.283
	c6.248-17.667,12.437-35.925,12.437-60.105c0-20.863-9.669-32.506-9.669-54.157V1196.505z M606.511,1302.897
	c0,6.707-9.959,15.47-16.437,15.47h-6.783c-3.571,0-4.687-0.489-6.763-1.929c10.473,0,26.104-2.035,26.104-11.603
	c0-7.627-19.214-5.17-26.104-6.772c3.634-3.165,10.712-3.872,17.408-3.872h3.872c3.776,0,8.702,3.694,8.702,6.777V1302.897
	L606.511,1302.897z M507.859,943.117v1.934l0.941,3.043l-2.875-1.1l-3.862-0.967l-3.872-0.977l-4.834-0.967h-3.867l1.271,13.497
	l-0.305,10.684c0,12.001-16.05,21.28-29.01,21.28c-17.001,0-34.821-19.397-34.821-34.816v-7.734c0-3.338,0.718-3.742,0.967-6.775
	h-12.568l-11.607,0.967l-9.673,0.97l-13.541,1.929l-5.796,0.967l-5.806,0.977l-4.84,0.967l-4.839,0.967l-15.469,3.87l-2.896,0.967
	l-3.867,0.967l-2.9,0.964l-2.911,0.967l-14.507,4.837l-1.929,0.967l-2.901,0.97l-3.867,1.934l-2.895,0.967l-1.934,0.967
	l-1.944,0.967l-13.537,6.771l-0.969,0.967l-3.865,1.931l-0.967,0.978l-3.867,1.934l-0.967,0.967l-1.934,0.969l-0.967,0.967
	l-1.934,0.968l-0.967,0.967l-1.944,0.967l-1.934,1.931l-1.934,0.967l-1.934,1.934l-1.934,0.972l-3.867,3.865l-1.934,0.967
	l-4.834,4.831l-1.934,0.973l-6.768,6.763l-0.967,0.977l-2.9,2.9l-0.977,0.972l-6.768,6.763l-0.967,1.934l-5.801,5.804l-0.969,1.932
	l-3.865,3.872l-0.967,1.931l-2.9,2.901l-0.967,1.931l-0.967,0.977l-1.937,1.935l-0.964,1.938l-1.934,1.931l-0.967,1.934
	l-0.967,0.967l-0.977,0.965l-0.967,1.934l-0.967,0.967l-0.967,1.938l-1.936,1.931l-0.967,1.935l-0.964,0.967l-0.967,1.931
	l-1.934,1.934l-0.967,1.938l-0.967,0.965l-0.967,1.934l-0.967,0.967l-0.969,1.943l-0.967,0.965l-0.967,1.934l-1.931,1.938
	l-0.967,1.932l-0.967,0.967l-0.967,1.934l-0.967,0.967l-0.967,1.931l-0.967,0.967l-0.969,1.938l-0.967,0.967l-0.967,1.932
	l-0.964,0.967l-0.967,1.934l-0.967,0.964l-0.967,1.934l-0.977,0.973l-0.967,1.934l-1.934,1.931l-0.967,1.934l-0.969,0.967
	l-0.967,1.941l-0.967,0.967l-0.964,1.938l-0.967,0.967l-0.967,1.932l-1.934,1.934l-0.967,1.934l-0.967,0.964l-0.97,1.939
	l-1.934,1.934l-0.964,1.931l-1.934,1.934l-0.967,1.934l-1.934,1.932l-0.967,1.938l-1.936,1.934l-0.967,1.932l-1.931,1.934
	l-0.967,0.977l-0.967,1.932l-0.967,0.967l-0.977,0.972l-0.967,0.967l-0.967,1.934l-4.837,4.831l-0.964,1.937l-16.436,16.434
	l-0.969,0.977l-5.798,5.804l-0.977,0.967l-0.967,0.967l-1.934,0.965l-4.834,4.834l-1.934,0.969l-1.934,1.934l-1.934,0.967
	l-1.936,1.932l-1.934,0.967l-0.964,0.967l-1.934,0.967l-0.967,0.967l-1.934,0.967l-0.967,0.97l-3.87,1.934l-0.964,0.967
	l-1.934,0.967l-1.944,0.964l-3.87,1.934l-3.865,0.978l-4.834,0.967l-5.801,0.967l-4.834,0.967l-5.801,0.969l-4.844,0.968
	l-3.87,0.967l-4.829,0.967l-5.803,1.931l-1.931,0.967l-3.867,3.87l-3.87,7.731l-0.967,0.97l-2.898,5.801l-0.977,1.934l-0.967,1.944
	l-1.934,3.867l-0.967,2.896l-0.969,3.867v38.683l0.969,3.867l3.867,7.735l0.977,1.934l0.967,1.943l0.967,0.967l0.964,1.934
	l0.967,0.967l0.967,1.934l0.967,0.967l0.97,1.934l2.9,2.901l0.967,1.934l2.898,2.896l0.967,1.934l6.77,6.768l0.967,1.934l2.898,2.9
	l0.967,0.977l4.836,4.834l0.977,0.968l10.635,10.635l1.934,0.967l8.701,8.701l1.934,0.967l2.898,2.9l0.97,0.978l0.967,0.967
	l1.934,0.967l0.967,0.967l0.977,0.967l1.934,1.934l1.931,0.962l2.903,2.9l1.934,0.967l1.934,1.934l1.934,0.967l1.931,1.934
	l1.934,0.967l0.97,0.967l1.934,0.967l0.967,0.967l1.934,0.967l0.967,0.967l7.734,3.867l1.944,0.967l5.801,1.929l1.934,0.967
	l5.798,1.934l3.87,0.967l2.9,0.978l7.735,1.934l3.877,0.967l7.734,1.934l9.668,1.934l3.867,0.967l5.801,0.967l4.844,0.967
	l5.801,0.967l4.834,0.967l5.801,0.967l6.765,0.967l5.803,0.967l6.775,0.967l6.771,0.962l7.734,0.967l6.766,0.967l8.714,0.967
	l7.735,0.967l8.701,0.967l9.668,0.967l9.678,0.967l9.666,0.967l11.604,0.967l11.616,0.967l13.53,0.967l14.508,0.967l17.407,0.967
	l21.28,0.967l31.916,0.978h29.986v-6.778l-0.967-4.834l-0.967-3.867l-2.905-8.701l-2.896-5.802l-0.967-1.943l-0.977-1.934
	l-2.9-5.801l-0.967-0.967l-2.906-5.807l-0.962-0.961l-1.934-3.868l-0.967-0.967l-2.896-5.801l-0.972-0.967l-1.934-3.867
	l-0.967-1.943l-0.967-0.967l-4.829-9.669l-0.967-2.9l-0.972-1.934l-2.896-8.701l-0.967-4.834l-0.967-6.778v-8.701l0.967-8.701
	l0.967-5.802l0.962-4.844l2.905-11.602l0.967-2.901l0.967-3.867l1.934-5.801l0.967-3.867l0.962-2.9l0.967-3.878l0.967-2.895
	l2.905-11.603l0.967-4.834l0.967-6.768v-24.184l-0.529-3.053l0.529,2.089l4.829,4.831l1.935,0.97l0.972,0.967l1.934,0.967
	l0.967,0.967l1.938,0.967l0.967,0.967l5.807,2.898l2.895,0.969l1.934,0.967l2.896,0.967l1.934,0.967l2.906,0.967l1.934,0.967
	l5.801,1.934l3.867,1.934l2.905,0.978l5.807,2.9l0.967,0.967l1.934,0.967l0.961,0.967l1.935,0.962l1.934,1.934l1.938,0.967l2.9,2.9
	l1.924,0.967l2.9,2.9l1.938,0.967l4.834,4.834l1.938,0.967l6.773,6.769l0.967,0.977l4.829,4.834l0.967,1.934l2.905,2.896
	l0.967,1.934l1.934,1.934l0.962,1.934l0.967,0.967l1.934,3.867l0.967,0.967l2.905,5.802l0.967,2.9l0.967,1.934l0.978,2.91l0.962,2.9
	l0.961,3.862l0.967,4.834l0.968,6.769l0.967,5.806l0.967,2.896l0.972,2.91l0.967,1.934l0.967,2.9l0.967,0.967l1.934,3.868
	l1.929,1.934l0.967,1.934l6.772,6.768l1.929,0.967l1.934,1.934l1.938,0.967l0.967,0.967l1.934,0.967l1.939,0.962l5.801,2.9
	l2.905,0.977l5.796,1.934l4.84,0.967l6.763,0.968h19.347l7.739-0.968l9.668-1.934l3.873-0.967l2.9-0.977l8.701-2.9l3.872-1.929
	l0.967-0.967l1.929-0.967l4.834-4.834l0.972-1.934l1.935-1.934l0.967-1.934l0.967-0.967l0.977-1.934l4.829-9.669l0.967-2.91
	l1.938-5.801l1.934-7.735l0.962-5.801v-12.579l-0.962-3.867l-0.967-1.934l-1.934-1.934l-3.872-1.934l-1.929-1.934l-0.967-1.929
	l-0.977-0.967l-0.967-2.9l-0.967-1.934l-0.968-2.9l-0.967-3.867l-0.972-4.845l-0.967-4.829l-1.934-15.474l-0.967-6.768l-0.956-4.845
	l-0.967-2.9l-0.967-3.867l-0.967-2.9l-0.968-3.867l-1.938-5.804l-0.967-3.865l-0.967-2.9l-0.967-3.869l-0.962-2.911l-1.934-7.734
	l-0.967-2.898l-2.905-11.602l-0.967-4.837l-0.967-3.877l-0.967-4.832l-0.967-7.734v-8.704l0.967-6.768l0.967-3.878l0.967-3.864
	l1.938-5.801l0.967-3.867l0.967-2.898l0.967-3.87l0.967-4.829v-16.448l-0.967-2.898l-3.872-7.736l-0.967-0.965l-1.934-3.867
	l-0.967-0.967l-1.924-3.87l-0.977-0.967l-0.967-1.941l-34.816-25.137l-1.938-1.937l1.938,1.937
	c1.776,7.64,21.576,29.208,29.01,30.945c-5.241,7.826-10.635,7.697-10.635,23.207c0,15.802,4.85,29.663,4.854,44.461
	c0.021,18.616,0.951,29.903,2.794,45.573c1.984,16.906,5.154,26.025,8.986,40.345c1.465,5.495,14.309,33.839,14.309,34.042
	c0,3.349-18.085,12.568-24.171,12.568h-0.977c-14.492,0-17.098-24.593-16.446-40.616l2.198-62.856
	c0.311-14.218-9.281-36.818-12.854-49.326c-4.483-15.713-5.287-36.159-24.15-37.729l-8.519,13.649l-2.127-18.481
	c-1.72,4.274-11.866,0.967-16.446,0.967l14.508-17.415c-4.122-17.688-9.037-52.219-29.021-52.219h-3.861
	c-5.537,0-14.004,4.804-17.8,7.34c-3.257,2.173-4.447,2.756-7.119,5.465c-0.651,0.67-5.897,5.71-6.024,5.564l-1.141-0.801
	c10.717-7.229,31.117-48.016,31.117-67.861v-4.837L507.859,943.117z" />
	<path fill="#1B1918" d="M381.164,867.686l-2.896,0.967v0.965l1.929,0.972l4.839,0.967l5.796,1.931l3.872,1.937l0.968,0.967h1.943
	v1.934l0.967,0.967v6.778l-0.967,1.934l-0.977,0.967l-0.967,1.934l-4.84,4.834l-1.929,0.967l-1.934,1.934l-9.668,4.834l-5.806,1.934
	l-6.773,0.967h-2.9l-13.54-0.967l-15.465-1.934l-7.75-0.967l-8.701-0.967h-30.947l-4.832,0.967l-3.867,0.967l-2.9,0.967
	l-3.867,1.934v0.967l1.934,0.967l5.801,1.935l5.801,2.9l1.931,0.977l1.937,0.967l0.967,0.967l11.603,5.801l0.968,0.967l1.943,0.967
	l1.929,0.967h2.9v1.934h-1.934l-2.896,0.967l-6.782,0.967h-6.765l-15.469-0.967l-3.867-1.934l-1.944-0.967l-1.934-0.967l-2.9-0.967
	l-3.868-1.934l-2.9-0.967l-1.936-0.967l-8.699-2.9l-3.867-0.967h-12.579l-1.934,0.967l-1.934,1.934l-1.934,3.867l-0.969,3.867
	l-0.967,5.801l-0.964,4.835l-0.967,3.867l-0.967,2.9l-0.967,1.934l-0.967,0.977l-0.967,1.934l-4.837,4.835l-1.931,0.967v0.967h2.897
	l2.903-0.967l7.732-1.934l6.771-0.967h2.898l3.87,0.967l0.967,0.967v1.934l-1.934,3.867l-6.768,6.768l-1.934,0.967l-0.967,0.967
	l-5.801,2.905l-3.867,0.965l-9.668,1.934l-3.877,0.967l-2.903,0.967l-3.865,0.967l-4.837,0.964l-5.798,0.978l-6.77,0.967
	l-6.775,0.967l-6.768,0.967l-4.834,0.972l-7.735,1.932l-5.803,1.934l-3.865,1.934l-1.944,0.964l-1.934,0.967l-0.967,0.967
	l-1.936,0.972l-4.832,4.832l-0.967,1.934l-0.967,0.964l-2.903,5.807l-0.967,3.862l-0.964,5.813v9.671l0.964,3.864h1.934l1.936-0.967
	l0.967-0.967l1.934-0.967l0.967-0.964l3.865-1.939l0.969-0.967l3.867-1.931l1.944-0.967l7.734-3.867l3.868-0.965h2.898l0.967,4.832
	l-1.934,3.864l-0.964,0.973l-0.967,1.931l-1.934,1.934l-0.967,1.934l-8.701,8.702l-1.944,0.967l-1.934,1.931l-0.967,0.977
	l-1.936,0.967l-1.934,1.935l-1.931,0.972l-0.967,0.967l-3.867,1.931l-0.969,0.967l-5.798,2.898l-2.9,0.967l-7.735,3.869
	l-2.911,0.967l-15.469,7.737l-0.967,0.967l-5.801,2.898l-0.969,0.967l-1.934,0.967l-1.931,0.977l-0.967,0.967l-1.944,0.965
	l-0.967,0.967l-1.934,0.967l-0.967,0.972l-1.936,0.967l-0.967,0.965l-1.931,0.967l-1.934,1.934l-1.934,0.967l-3.87,3.869
	l-1.931,0.967l-6.771,6.763l-0.967,1.934l-2.898,2.903l-0.967,1.934l-0.967,0.967l-0.977,1.934l-0.967,0.978l-3.87,7.734l-0.967,2.9
	v4.837h0.967l4.836-4.837l1.944-0.967l3.865-3.864l1.936-0.968l1.934-1.934l1.934-0.967l0.967-0.967l1.931-0.967l0.967-0.977
	l3.87-1.934l0.967-0.967l1.934-0.967l5.801-1.934h11.612l1.934,0.967l0.967,1.934v0.967l-0.967,2.91l-2.903,5.804l-1.934,1.934
	l-0.964,1.934l-2.901,2.898l-0.977,0.972l-0.967,1.934l-5.804,5.799l-0.964,1.931l-3.867,3.87l-0.967,1.934l-1.936,1.934
	l-0.967,0.977l-1.934,0.967l-0.964,0.965l-3.868,1.938l-2.903,0.967h-8.709l-4.837-0.967H25.265l-2.9,0.967l-5.801,2.898
	l-1.934,1.934l-0.977,0.967l-2.9,2.902v0.967h1.934l3.877-0.967h5.801l2.9,0.967l0.967,0.967h1.931v1.932l0.967,0.967l1.934,3.867
	l0.969,4.837v5.809l-0.969,4.836l-0.967,3.865l-4.832,9.668l-1.934,1.934l-0.967,1.932l-3.87,3.872l-1.931,0.964l-1.934,1.935
	l-1.944,0.967l-1.934,0.977l-0.967,0.967l-2.903,0.964v0.967h5.803l3.877-0.967l7.735-1.931l2.9-0.977l3.865-0.967l11.604-3.865
	l1.934-0.967l2.911-0.967l2.898-0.972l3.87-1.932l2.9-0.967l15.467-7.737l0.969-0.964l3.868-1.934l0.977-0.967l3.865-1.934
	l0.967-0.965l1.936-0.967l0.967-0.967l1.934-0.972l0.967-0.967l1.934-0.964l1.931-1.934l1.934-0.978l2.903-2.9l1.934-0.964
	l2.898-2.906l1.934-0.967l4.836-4.831l0.977-0.967l2.9-2.898l1.931-0.972l3.87-3.864l0.967-1.934l6.765-6.769l0.969-0.977
	l1.934-1.934l0.967-1.934l3.865-3.87l0.967-1.934l2.903-2.898l0.967-1.934l1.934-1.931l0.977-0.967l0.967-1.938l1.934-1.932
	l0.964-1.934l1.934-1.934l0.969-1.931l0.967-0.973l0.967-1.934l0.967-0.967l0.967-0.977l0.967-1.932l0.967-0.967l0.967-1.934
	l1.931-1.931l0.967-1.938l0.969-0.967l0.967-1.932l0.967-0.967l0.967-1.934l1.934-1.931l0.967-1.939l0.967-0.967l0.964-1.934
	l0.967-0.964l0.97-1.934l0.967-0.967l0.967-1.932l1.934-1.938l0.977-1.934l0.967-0.967l0.967-1.941l0.967-0.967l0.967-1.934
	l1.931-1.931l0.969-1.939l0.967-0.967l0.967-1.934l1.934-1.931l0.967-1.934l1.934-1.932l0.964-1.938l1.934-1.934l0.97-1.932
	l1.934-1.934l0.967-1.934l2.9-2.902l0.967-1.944l2.9-2.897l0.967-1.934l2.9-2.903l0.977-0.967l0.967-0.967l0.967-1.934
	l19.336-19.337l0.967-0.977l1.934-0.967l4.834-4.832l1.934-0.967l0.977-0.969l0.967-0.967l1.934-0.967l1.931-1.935l1.936-0.967
	l1.934-1.931l1.934-0.967l0.967-0.967l1.934-0.967l0.967-0.97l1.931-0.967l0.969-0.967l1.934-0.967l0.967-0.967l3.868-1.931
	l0.967-0.967l3.867-1.934l0.967-0.97l1.944-0.967l3.867-1.934l0.967-0.977l25.138-12.569l1.944-0.967l1.934-0.964l2.896-0.97
	l3.872-1.934l2.896-0.97l1.934-0.967l2.896-0.964l1.938-0.967l2.9-0.967l1.929-0.967l2.9-0.967l1.939-0.967l2.905-0.967
	l14.502-4.834l2.896-0.978l3.872-0.967l2.896-0.967l3.873-0.967l2.9-0.972l3.872-0.965l7.734-1.934l14.498-2.902l5.811-0.967
	l5.807-0.967l7.739-0.967l9.668-0.968l11.612-0.967c5.816-4.04,23.387-27.872,28.13-34.866l-1.059-1.883l-1.938-1.934l-3.862-1.934
	l-0.967-0.967l-7.735-3.867l-0.967-0.967l-3.861-1.934l-1.935-0.978l-5.806-2.9l-1.943-0.967l-3.862-1.931l-2.906-0.967
	l-3.862-1.937l-11.602-3.867l-4.839-0.967l-5.807-0.967h-9.668L381.164,867.686z M488.517,867.686l0.968,0.967l1.934,0.965
	l1.934,1.934l0.977,0.967l0.962,0.967l0.967,1.936l1.934,1.935l1.938,3.864l0.967,2.911v8.701l-0.967,1.934l-1.938,1.936
	l-3.862,1.935l-2.91,0.967l-3.873,1.931l-1.934,1.934l-1.929,3.87l-0.961,0.967c-1.517,1.109-1.934,0.183-1.934,2.9
	c0,8.365,2.65,20.28,6.762,24.178l1.939,0.967l3.867,0.968l2.9,0.969l3.872,0.967l5.802,1.934l1.928,1.934l2.906,14.51v4.837
	c0,19.846-20.4,60.633-31.117,67.861l1.141,0.802c0.132,0.145,5.373-4.896,6.024-5.563c2.672-2.712,3.862-3.289,7.119-5.468
	c3.796-2.536,12.263-7.34,17.8-7.34h3.861c19.983,0,24.898,34.531,29.021,52.219l1.934,16.448l2.132,18.482l8.514-13.65
	l25.132-42.551l1.939,1.937l34.815,25.138l1.943,1.941l1.929,0.967l1.929,1.934l1.934,0.967l1.939,1.936l1.934,0.967l0.967,0.967
	h0.967l0.961-2.897l0.967-3.872v-11.612l-0.967-3.865l-1.928-5.804l-1.934-3.867l-0.967-0.967l-1.939-3.867l-1.934-1.934
	l-0.967-1.943l-1.924-1.934l-0.967-1.934l-0.977-0.967l-1.934-1.934l-0.967-1.934l-4.839-4.832l-0.967-1.934l-2.896-2.903
	l-0.967-1.934l-1.939-1.931l-0.967-1.934l-0.967-0.967l-0.967-1.937l-0.961-0.967l-0.962-1.934l-0.967-1.944v-0.964l3.856-0.967
	h0.967l10.636,0.967h11.612v-3.867l-0.967-0.967l-0.968-1.937l-0.967-0.967l-0.961-1.934l-1.929-1.931l-0.978-0.967l-0.967-1.934
	l-8.701-8.702l-1.934-0.967l-3.872-3.869h-1.934c-7.613-5.1-14.004-10.804-22.629-16.06c-5.669-3.461-20.055-10.674-23.794-13.923
	l-0.968-0.967l-3.872-1.934v-0.977l2.905-5.799l0.967-2.903l0.968-1.934l0.977-1.934l0.967-1.931l0.962-2.9l1.929-3.87l2.905-8.701
	l0.967-3.878v-13.533h-0.967l-2.905,2.901l-1.929,0.964l-1.929,1.934l-0.977,0.967l-1.935,0.967l-0.967,0.97l-3.872,1.934
	l-2.896,0.967h-8.706l-2.896-0.967l-0.967-0.967l-1.934-0.967l-0.972-0.97l-1.934-0.967l-2.896-2.9l-0.967-1.931l-0.978-0.967
	l-1.934-1.935l-0.967-1.936l-1.938-1.934l-0.967-1.934l-0.967-0.965L516.571,888l-1.929-1.934l-0.967-1.936l-0.967-0.967
	l-0.967-1.944l-2.905-2.897l-0.967-1.934l-5.796-5.804l-1.934-0.967l-0.973-0.967l-3.867-1.934l-1.938-0.97h-6.772v0.97
	L488.517,867.686z" />
	<path fill="#FFFFFF" d="M504.628,1113.451c0.31,0.468,0.31,1.149-0.025,2.056c-0.515,1.404-0.952,2.259-1.293,2.575
	c-0.035,0.303-0.021,0.671,0.066,1.099c0.081,0.417,0.127,0.764,0.137,1.03l-0.015,2.298c0.035,0.42,0.239,0.763,0.59,1.051
	c0.829,0.038,1.303,0.038,1.415,0.021l4.351-1.784l6.625-3.907c0.764-0.774,1.547-1.168,2.341-1.179l2.672,0.987
	c0.249,0.089,0.458,0.244,0.615,0.468c0.168,0.242,0.193,0.486,0.092,0.771c-0.092,0.254-0.346,0.458-0.743,0.569
	c-0.392,0.112-0.718,0.123-0.951,0.033l-3.313,1.109l-10.086,5.249c-0.661,0.428-1.175,0.957-1.552,1.57
	c-0.209,0.954,0.341,2.531,1.628,4.739c0.184,0.359,0.331,0.876,0.489,1.56c0.147,0.689,0.31,1.25,0.523,1.688l1.486,3.837
	l-0.239,0.661l1.542,2.025l-0.453,1.252l-3.231-1.272l-0.539-2.157c-1.003-2.853-1.72-4.661-2.112-5.458
	c-0.381-0.781-0.753-1.473-1.124-2.043c-0.382-0.58-0.672-1.344-0.901-2.279c-0.132-0.99-0.493-1.598-1.073-1.812
	c-0.117-0.044-0.371,0.071-0.732,0.325c-0.361,0.244-0.672,0.326-0.932,0.225l-8.717,3.966c-0.56,0.735-1.435,0.959-2.646,0.675
	c-0.071-0.174-0.326-0.448-0.764-0.824c-0.438-0.388-0.651-0.838-0.641-1.344l-0.046-4.783c-0.041-0.092-0.041-0.224-0.041-0.417
	c0.021-0.174,0.021-0.326-0.01-0.418c0.493-0.773,1.078-1.018,1.771-0.763c0.396,0.143,0.631,0.254,0.697,0.336l1.267,1.292
	c0.702,0.479,1.211,0.764,1.476,0.865c0.179,0.021,0.393,0.03,0.642,0.059c0.249,0.043,0.438,0.054,0.575,0.063l3.292-0.682
	l0.651-0.428l1.74-0.682c0.488-0.184,0.911-0.713,1.236-1.598c0.188-0.52,0.225-1.059,0.102-1.608l-1.18-3.32
	c-0.529-1.526-1.583-2.766-3.146-3.712l-2.142-1.13c-0.102-0.043-0.275-0.03-0.509,0.011c-0.255-0.306-0.393-0.58-0.393-0.825
	c0.011-0.224-0.025-0.419-0.086-0.531c0.239-0.181,0.376-0.262,0.412-0.252c1.491-0.651,3.043-1.068,4.687-1.274
	c1.628-0.214,3.109-0.059,4.457,0.43C503.503,1112.219,504.2,1112.736,504.628,1113.451L504.628,1113.451z" />
	<path fill="#ED2224"
		d="M234.618,1385.25c1.865-7.094,13.701-10.92,21.14-8.966l3.196,0.834c4.02,1.059,6.951,6.076,5.893,10.086
	l-0.214,0.804c-1.781,6.798-19,12.945-25.168,11.327c-3.603-0.941-6.503-7.745-5.475-11.679L234.618,1385.25z M-47.397,1330.864
	c6.473,1.547,10.696-2.311,17.23-0.601l2.399,0.631c10.523,2.769,9.813,21.362,19.35,23.865l4.793,1.263
	c6.3,1.648,9.719-0.326,16.019,0.783c6.045,6.839,1.465,20.924,0.244,32.322c-0.875,8.142-11.645,32.14-2.432,34.562
	c10.574,2.778,10.676-8.151,13.444-18.675c1.689-0.59,1.822-1.231,3.613-0.753c4.661,1.221-1.313,27.753-2.799,33.422
	c-3.236,12.345-15.296,30.989-1.404,34.632l0.794,0.214c9.21,2.412,8.414-9.271,10.421-16.904c0.773-2.972,5.994-6.971,9.279-6.105
	c5.142,1.354,3.972,14.156,2.374,20.262l-1.425,6.483l-7.307,20.258l-3.979,15.174c-1.12,4.243-0.427,11.846,3.45,12.869
	l0.801,0.203c6.119,1.603,10.699-4.956,12.357-11.266l4.071-15.175l4.05-28.812l1.677-6.381c1.865-7.108,5.661-15.988,10.627-17.708
	c1.303,1.608,1.913,2.458,1.14,5.425l-19.286,75.239l-11.418,31.971c-2.717,7.562-1.018,16.803,6.188,18.701
	c5.679,1.49,11.327-1.542,12.396-7.022l5.109-33.636l4.193-15.978c0.621-2.341,2.575-7.872,4.498-7.358
	c1.842,0.479,2.249,1.181,1.758,3.022l-0.374,2.504l-6.038,15.449c-1.86,4.539-0.801,13.454,3.033,14.461l4.796,1.263
	c4.02,1.048,7.348-5.252,8.528-9.72l0.57-3.246l9.676-55.466l0.854,0.143c0.471-2.717,3.807-10.096,5.926-9.546
	c6.849,1.802-1.944,17.148-3.684,23.81l-0.631,2.392c-1.323,5.018-0.397,10.146,4.671,11.465l3.195,0.845
	c4.122,1.078,7.267-1.649,8.274-5.517l1.473-5.587c0.641-2.483,0.857-11.093,1.356-15.683c0.496-4.499,2.025-11.154,2.422-16.284
	c1.272-16.354,9.137-11.388,17.817-19.062c11.167-9.872,13.284-60.218,27.132-56.574c3.341,0.875,3.369,8.183,2.567,10.961
	l-8.549,21.616l-1.262,4.793c-1.354,5.16,0.479,10.37,5.476,11.684l2.392,0.631c3.946,1.038,8.04-1.354,9.078-5.303l1.099-2.36
	l3.084-29.84l0.845-3.195c0.468-1.791,1.089-1.588,2.43-2.778c3.582,4.051,3.218,14.502,7.826,15.713l2.404,0.632
	c5.727,1.506,17.237-17.678,26.216-15.317c6.226,1.629,4.458,20.813,15.947,23.825c15.765,4.132,23.245-20.375,36.862-16.792
	c17.077,4.478,20.456,7.785,33.114-0.041c6.738-4.162,16.473-16.833,26.949-14.085l3.989,1.048c1.751,0.458,3.639,3.379,3.186,5.14
	l-8.508,21.646l-0.835,3.201c-1.053,4.03,0.789,8.736,5.089,9.871l1.593,0.412c4.636,1.227,9.185-2.972,10.04-7.658l2.732-21.438
	l0.626-2.392c0.351-1.313,1.114-2.28,2.224-1.984c2.458,0.651,2.58,3.186,1.938,5.638l-6.859,27.265l-5.852,14.655
	c-2.605,6.289-1.669,20.903,3.541,22.277l1.594,0.417c5.195,1.364,9.342-3.032,10.721-8.294l2.306-8.783
	c2.392-9.129,0.504-14.909,2.682-23.203l1.878-7.195c0.854-3.227,5.297-9.709,7.525-9.129c1.222,0.325,2.412,1.2,2.265,2.351
	l-5.669,13.841c-1.531,3.674-0.875,10.015,3.089,11.053c4.987,1.313,9.384,0.02,10.676-4.886l0.835-3.195
	c1.089-4.162-0.393-5.037,0.493-8.406c0.56-2.122,5.399-1.995,8.03-1.303l2.411,0.591l19.327,7.673
	c6.457,2.728,23.01-0.937,27.864-2.076l14.289-54.427l-45.604-34.063l-331.64-87.045l-106.595,12.559L-47.397,1330.864z" />
	<path fill="#ED2224" d="M355.091,1283.897h49.073c7.231,0,14.329,0.956,21.225,2.727c7.918-1.883,16.105-2.727,24.358-2.727
	c11.073,0,22.223,1.018,32.984,3.704c27.514,6.809,49.436,26.471,49.436,56.422v81.63h-45.11c-4.717,0-9.414-0.315-14.095-0.864
	v0.864H320.28c-10.05,0-20.033-1.404-29.654-4.365l-0.049-0.021c-0.499-0.152-0.997-0.306-1.485-0.479
	c-10.167,3.521-21.423,4.864-32.557,4.864c-1.934,0-3.868-0.061-5.801-0.167v0.167H136.536c-23.021,0-46.084-6.121-59.994-24.685
	c-3.959,0.285-7.928,0.407-11.836,0.407H41.248c-6.931,8.997-16.619,15.958-28.272,19.998l-0.488,0.173l-0.489,0.163
	c-9.953,3.201-20.774,3.943-31.172,3.943H-67.26v-247.041H65.367v-10.655h117.871v20.922h34.419c9.137,0,18.228,1.271,27.082,3.514
	l0.305,0.078l0.313,0.082c20.357,5.455,37.526,18.369,43.123,37.976h1.923v45.115c0,1.598-0.071,3.165-0.224,4.712
	c1.251,1.19,2.432,2.442,3.562,3.745h19.902c2.214-0.133,4.423-0.203,6.636-0.203H355.091L355.091,1283.897z" />
	<path fill="#6F7172"
		d="M370.127,1299.478v-0.54h34.032c7.226,0,14.289,1.171,21.092,3.272c7.902-2.295,16.161-3.272,24.491-3.272
	c9.842,0,19.79,0.881,29.356,3.257c20.685,5.124,38.031,18.95,38.031,41.833v66.589h-30.073c-4.946,0-9.887-0.396-14.772-1.068
	l-0.157-0.021c-4.951-0.713-9.75-1.934-14.207-3.674v4.763h-87.793v-0.448c-3.181,0.306-6.381,0.448-9.592,0.448h-40.261
	c-8.554,0-17.041-1.181-25.223-3.694l-0.041-0.021c-2.066-0.631-4.081-1.374-6.025-2.219c-9.77,4.58-21.433,5.929-32.455,5.929
	c-4.142,0-8.284-0.306-12.385-0.794c-2.89-0.336-5.72-0.865-8.45-1.598v2.392h-99.163c-20.263,0-41.767-5.109-51.781-24.817
	c-0.112-0.249-0.234-0.483-0.346-0.723c-6.625,0.957-13.353,1.272-19.703,1.272h-31.62c-5.058,9.607-13.81,16.945-25.036,20.827
	l-0.651,0.229c-8.366,2.682-17.83,3.211-26.572,3.211h-33.045v-216.956H71.207c3.043,0,6.126,0.112,9.2,0.359V1183h87.788v21.359
	c3.053-0.293,6.126-0.438,9.2-0.438h40.26c7.887,0,15.754,1.122,23.397,3.056l0.204,0.051l0.201,0.062
	c18.189,4.872,33.902,17.036,33.902,37.573v30.979c0,3.766-0.621,7.348-1.791,10.706c5.16,3.317,9.475,7.612,12.538,12.782h24.984
	v0.244c3.043-0.295,6.121-0.438,9.185-0.438h40.261C363.746,1298.938,366.937,1299.122,370.127,1299.478L370.127,1299.478z" />
	<path fill="#FFFFFF" d="M385.169,1318.123v-4.143h18.99c7.256,0,14.289,1.526,20.995,4.091c7.816-2.94,16.202-4.091,24.588-4.091
	c8.595,0,17.372,0.723,25.738,2.809c13.688,3.39,26.603,11.582,26.603,27.234v51.547h-15.031c-4.26,0-8.514-0.346-12.711-0.926
	l-0.082-0.011c-15.383-2.198-29.488-10.522-29.488-27.723v-12.191h-1.888v40.851h-57.714v-4.183
	c-7.755,3.083-16.269,4.183-24.634,4.183h-40.261c-7.053,0-14.05-0.957-20.817-3.033c-3.968-1.231-7.753-2.961-11.002-5.241
	c-8.261,7.145-21.39,8.274-31.923,8.274c-3.552,0-7.114-0.274-10.637-0.692c-10.989-1.262-21.176-6.167-25.237-15.611v16.304
	h-84.124c-14.105,0-31.254-2.575-38.37-16.589c-1.842-3.633-2.717-7.603-2.717-11.673v-0.306
	c-9.716,3.756-21.522,4.295-30.743,4.295H22.469c-1.76,10.37-8.895,18.044-19.347,21.667l-0.165,0.062l-0.161,0.051
	c-6.737,2.157-14.94,2.493-21.972,2.493h-18.003v-91.849H71.013c11.907,0,26.376,1.588,35.142,10.259h75.188
	c6.34,0,12.609,0.987,18.685,2.799l0.041,0.01c0.855,0.255,1.71,0.54,2.544,0.845v-3.653h16.182v-13.434
	c-0.377,0.01-0.764,0.01-1.14,0.01h-40.26c-7.063,0-14.065-0.951-20.825-3.032c-4.559-1.415-8.861-3.491-12.403-6.274
	c-2.157,1.898-4.653,3.536-7.439,4.87c-6.595,3.18-13.823,4.437-21.107,4.437H95.446v-3.511c-7.651,2.859-16.507,3.511-24.239,3.511
	H-37.179v-66.985h1.476c-0.02-0.041-0.03-0.066-0.041-0.112c-0.967-2.544-1.435-5.221-1.435-7.938v-16.823H71.207
	c7.775,0,16.609,0.692,24.239,3.59v-14.245h57.707v24.954c1.262-0.483,2.542-0.905,3.857-1.282
	c6.625-1.893,13.495-2.748,20.385-2.748h40.26c6.643,0,13.269,0.967,19.703,2.596l0.102,0.03l0.102,0.021
	c11.357,3.043,22.766,9.75,22.766,23.051v10.849c0,1.721-0.206,3.43-0.601,5.099h0.601v15.032c0,6.717-3.677,12.202-9.038,15.917
	c-0.987,0.682-2.005,1.323-3.033,1.923c1.588,0.153,3.125,0.356,4.58,0.632l0.082,0.02c11.266,2.209,21.026,8.732,22.878,20.039
	h20.25v3.847c1.254-0.488,2.545-0.916,3.848-1.292c6.626-1.894,13.5-2.748,20.38-2.748h40.261c6.65,0,13.276,0.967,19.708,2.595
	l0.111,0.031l0.103,0.03C382.03,1317.053,383.612,1317.552,385.169,1318.123L385.169,1318.123z M278.005,1352.582
	c-0.623,0.204-1.251,0.397-1.893,0.57v2.473h1.893V1352.582z M23.293,1257.843h30.317v-6.035H23.293V1257.843z" />
	<path fill="#050605" d="M98.451,1272.885v-36.114c0-8.681-9.081-13.026-27.234-13.026h-93.354v1.781
	c0,7.49,9.933,11.245,29.798,11.245h60.991v36.114H8.251v-24.278h-30.389v36.913h93.354
	C89.37,1285.515,98.451,1281.301,98.451,1272.885L98.451,1272.885z M138.121,1223.74v-10.655H110.49v10.655H138.121z
	 M138.121,1233.999H110.49v51.517h5.129c5.656,0,10.523-0.987,14.604-2.962c5.261-2.504,7.897-6.32,7.897-11.449V1233.999z
	 M245.286,1275.643h-67.891v-10.065h40.851c18.034,0,27.041-3.349,27.041-10.065v-10.849c0-3.623-3.877-6.452-11.612-8.518
	c-5.587-1.415-10.951-2.147-16.019-2.147h-40.26c-5.76,0-11.185,0.732-16.253,2.178c-7.328,2.111-10.984,5.322-10.984,9.668v27.234
	c0,4.478,3.616,7.826,10.849,10.064c5.142,1.578,10.597,2.372,16.388,2.372h40.26c10.653,0,19.011-2.107,25.066-6.32
	C244.431,1278.014,245.286,1276.833,245.286,1275.643L245.286,1275.643z M217.655,1255.512h-40.26v-10.849h40.26V1255.512z
	 M98.451,1343.229v-11.449c0-8.681-9.149-13.026-27.438-13.026h-93.151v61.774h2.961c7.897,0,13.678-0.59,17.359-1.771
	c6.455-2.239,9.681-6.452,9.681-12.63v-34.348h60.391v11.449H37.467c-8.688,0-14.217,2.9-16.576,8.681
	c-0.662,1.588-0.987,3.033-0.987,4.346h44.799C87.202,1356.255,98.451,1351.91,98.451,1343.229L98.451,1343.229z M205.615,1380.528
	v-40.647c0-3.816-3.287-6.717-9.864-8.69c-4.873-1.445-9.676-2.168-14.408-2.168h-63.943v0.987
	c0.944,6.441,7.856,9.668,20.721,9.668h40.067v10.462h-43.029c-7.371,0-12.701,0.596-15.988,1.771
	c-5.791,1.979-8.681,5.796-8.681,11.455v3.948c0,8.813,8.681,13.22,26.053,13.22h69.072V1380.528z M178.188,1370.667h-40.067
	v-10.264h40.067V1370.667z M281.008,1370.667h-19.927v-30.786c10.653,0,17.037-2.31,19.143-6.91c0.519-1.19,0.784-2.432,0.784-3.755
	h-19.927v-11.048c0-4.732-3.684-7.831-11.055-9.276c-2.766-0.529-8.16-0.794-16.189-0.794v20.925h-16.182v10.858h16.182v29.86
	c0,5.76,4.61,9.148,13.821,10.197c3.287,0.396,6.249,0.59,8.882,0.59C272.856,1380.528,281.008,1377.241,281.008,1370.667
	L281.008,1370.667z M388.187,1370.667H320.28v-10.065h40.866c18.023,0,27.041-3.354,27.041-10.06v-10.859
	c0-3.618-3.888-6.447-11.612-8.523c-5.603-1.414-10.961-2.132-16.024-2.132H320.28c-5.745,0-11.169,0.718-16.237,2.168
	c-7.339,2.106-10.99,5.333-10.99,9.668v27.244c0,4.468,3.623,7.826,10.857,10.06c5.13,1.578,10.595,2.361,16.37,2.361h40.271
	c10.661,0,19.017-2.097,25.066-6.31C387.331,1373.028,388.187,1371.847,388.187,1370.667L388.187,1370.667z M360.545,1350.537
	h-40.271v-10.859h40.271V1350.537z M487.057,1380.528v-36.505c0-5.923-5.058-10.137-15.199-12.63
	c-6.31-1.588-13.679-2.371-22.1-2.371c-9.745,0-17.896,1.842-24.481,5.526c-7.368-3.685-14.396-5.526-21.112-5.526h-3.943v51.506
	h27.626v-40.851h31.971v27.233c0,6.981,5.526,11.256,16.574,12.834C480.218,1380.274,483.76,1380.528,487.057,1380.528
	L487.057,1380.528z" />
</svg>
