<?xml version="1.0" encoding="utf-8"?>
<!-- Generator: Adobe Illustrator 16.0.0, SVG Export Plug-In . SVG Version: 6.00 Build 0)  -->
<!DOCTYPE svg PUBLIC "-//W3C//DTD SVG 1.1//EN" "http://www.w3.org/Graphics/SVG/1.1/DTD/svg11.dtd">
<svg version="1.1" id="Layer_1" xmlns="http://www.w3.org/2000/svg" xmlns:xlink="http://www.w3.org/1999/xlink" x="0px" y="0px"
	 width="595.28px" height="841.89px" viewBox="0 0 595.28 841.89" enable-background="new 0 0 595.28 841.89" xml:space="preserve">
<path fill-rule="evenodd" clip-rule="evenodd" fill="#050605" d="M408.005,455.367h0.69v14.281l-0.69,0.934v11.121l-4.147-6.059
	h-0.623l0.008,0.016h-4.139c-54.149,0-137.918,0-192.063,0h-4.512l6.86-10.25v-2.375l-2.035-4.504l-21.946-9.145h43.25l0.516,0.898
	c5.508,0,11.019,0,16.531,0l-2.156-0.898h12.043c11.84,0,53.302,0,65.144,0h1.396l0.517,0.898c27.647,0,55.299,0.027,82.948,0.027
	h2.41V455.367z M408.005,455.367"/>
<path fill-rule="evenodd" clip-rule="evenodd" fill="#F6C51C" d="M405.811,452.719v5.059h0.69v11.078l-0.69,0.934v4.133
	l-1.466-2.145l-1.077,1.461h-3.957l0.008,0.012c-44.989,0-135.435,0-192.278,0l4.754-7.109v-4.488l-2.277-5.284l-10.977-4.575
	h28.723l0.515,0.898c11.856,0,19.114,0,29.969,0l-2.156-0.898c11.84,0,53.519,0,65.358,0l0.517,0.898
	C370.609,452.691,371.439,452.719,405.811,452.719L405.811,452.719z M405.811,452.719"/>
<path fill="none" stroke="#EF7E3E" stroke-width="3" d="M405.811,452.719v5.059h0.69v11.078l-0.69,0.934v4.133l-1.466-2.145
	l-1.077,1.461h-3.957l0.008,0.012c-44.989,0-135.435,0-192.278,0l4.754-7.109v-4.488l-2.277-5.285l-10.977-4.574h28.723l0.515,0.898
	c11.856,0,19.114,0,29.969,0l-2.156-0.898c11.84,0,53.519,0,65.358,0l0.517,0.898C370.609,452.691,371.439,452.719,405.811,452.719
	L405.811,452.719z M405.811,452.719"/>
<path fill-rule="evenodd" clip-rule="evenodd" fill="#050605" d="M215.692,457.277h6.133l0.016,0.195v4.188l-0.055,0.027
	l-1.59,0.013v-3.579l-6.828-0.012l2.282,1.324v7.875l-1.395,2.09h7.531l-1.59-1.992l-0.015-3.785h1.644l4.59-2.02v-3.551
	l-1.383-2.402h-14.027c0.113,0.047,0.551,0.203,1.313,0.477C213.083,456.398,214.208,456.781,215.692,457.277L215.692,457.277z
	 M226.868,456.656l1.219,1.754v9.176l1.254,1.782l7.16,0.03l1.242-1.813v-9.23l-1.242-1.809h-9.687L226.868,456.656z
	 M232.825,458.066l0.676-0.016v9.785l-0.082,0.027h-1.062l-0.016-9.797H232.825z M238.103,456.7l1.328,1.753l1.312,9.105
	l-0.859,1.824h5.016l-0.082-0.621l1.644-2.738l1.645,2.793l-0.153,0.566h5.016l-0.028-0.125l-0.828-1.727l1.286-9.105l1.41-1.879
	h-5.016l-0.926,6.41l-2.379-3.992l-2.472,4.172l-0.981-6.59h-4.988L238.103,456.7z M254.864,456.7l1.188,1.726v10.957h8.855
	l-0.027-5.375l-2.266,3.785h-2.265l-0.028-0.191v-3.801l0.969,0.012l1.617,2.031v-6.258l-1.48,2.156l-1.106-0.027v-3.605
	l2.321-0.031l2.265,3.375v-4.895H254.81L254.864,456.7z M265.282,456.684l1.188,1.727v9.012l-1.242,1.977h6.371l-0.86-1.867
	l0.028-3.496l1.48-0.012v3.508l0.758,1.867h4.715l-1.121-1.949v-3.73l-1.41-0.887l1.382-0.746v-3.328l-1.988-2.227l-9.355,0.016
	L265.282,456.684z M271.653,458.066c0.129-0.008,0.247-0.012,0.352-0.008s0.195,0.016,0.27,0.035v4.035h-1.536l0.028-4.063H271.653z
	 M310.568,457.277h6.136l0.012,0.195v4.188l-0.056,0.027l-1.59,0.013v-3.579l-6.823-0.012l2.28,1.324v7.875l-1.397,2.09h7.53
	l-1.59-1.992l-0.01-3.785h1.644l4.586-2.02v-3.551l-1.38-2.402h-14.026c0.108,0.047,0.552,0.203,1.312,0.477
	C307.962,456.395,309.087,456.781,310.568,457.277L310.568,457.277z M321.65,456.672l1.147,1.738v9.121l-1.203,1.867h5.347v-5.957
	c0-0.129-0.011-0.246-0.006-0.344c0.004-0.102,0.014-0.195,0.034-0.277h0.734c0.129,0,0.241-0.012,0.344-0.008
	s0.187,0.016,0.263,0.035v6.551h5.375l-1.201-1.922v-9.094l-1.246-1.836h-9.644L321.65,456.672z M327.704,458.051
	c0.129,0,0.241-0.012,0.336-0.004c0.098,0.004,0.188,0.016,0.271,0.035l-0.029,3.219l-1.34-0.027v-3.223H327.704z M334.07,456.7
	l1.121,1.726v9.105l-1.174,1.852h5.211v-6.563l3.272,4.945l-1.009,1.617h5.142v-12.824l-5.185,0.027l1.216,1.84v4.047l-3.41-5.914
	h-5.237L334.07,456.7z M347.294,461.148l1.563-2.418h1.506v8.785l-1.246,1.867h6.732l-0.029-0.055l-1.16-1.753l-0.014-8.872h1.578
	l1.557,2.348v-4.52h-10.487V461.148z M358.376,456.711l1.192,1.715v9.078l-1.248,1.895l5.5-0.016v-6.535h1.356v6.535h5.527
	l-1.259-1.906v-9.023l1.259-1.879h-5.527v4.699l-1.356,0.012v-4.711h-5.5L358.376,456.711z M370.992,456.7l1.188,1.726v10.957h8.859
	l-0.027-5.375l-2.271,3.785h-2.264l-0.029-0.191v-3.801l0.97,0.012l1.616,2.031v-6.258l-1.479,2.156l-1.106-0.027v-3.605
	l2.322-0.031l2.269,3.375v-4.895h-10.101L370.992,456.7z M381.41,456.684l1.189,1.727v9.012l-1.242,1.977h6.371l-0.861-1.867
	l0.029-3.496l1.479-0.012v3.508l0.758,1.867h4.716l-1.121-1.949v-3.73l-1.41-0.887l1.381-0.746v-3.328l-1.987-2.227l-9.354,0.016
	L381.41,456.684z M387.781,458.066c0.129,0,0.246-0.012,0.353-0.008c0.104,0.004,0.195,0.016,0.269,0.035v4.035h-1.535l0.029-4.063
	H387.781z M395.531,456.629l-1.213,1.781l0.011,5.848l4.978-0.015v3.604l-0.111,0.027h-2.336l-2.515-3.41v4.918h8.168l1.324-1.797
	v-5.953h-5.25v-3.539h2.254l2.306,3.371v-4.891h-7.56L395.531,456.629z M395.531,456.629"/>
<path fill-rule="evenodd" clip-rule="evenodd" fill="#F6C51C" d="M316.57,408.368c1.177,0.312,3.927,2.347,4.08,3.738
	c1.75-0.145,1.347-0.953,2.112-2.031l-0.413,2.371h2.379l-0.146-0.336l5.237-2.317l-3.385-0.394l-3.13,1.664l0.402-0.996
	c-1.224-0.328-2.039-1.571-2.039-3.059v-2.379c0-2.984,3.737-4.465,3.737-5.781v-1.02c-0.76,0.18-0.78,0.34-1.698,0.34h-2.379
	c-0.919,0-0.937-0.16-1.699-0.34c-0.16,1.922-1.961,6.461-3.737,6.461h-0.681c-0.785,0-1.021-0.238-1.021-1.023v-0.34
	c0-1.754,1.758-3.09,2.047-6.445c0.188-2.168,0.724-5.817,1.297-7.543c1.867-5.613,4.611-5.992,8.212-9.125
	c-3.019,0.254-7.609,4.422-8.496,4.422c-1.181,0-0.634-0.578-1.699-1.364c-0.284,1.219-0.68,1.598-0.68,3.063v2.379
	c0,1.855,0.68,1.883,0.68,3.738v0.34c0,1.98-1.202,4.309-2.379,5.098l0.396,0.136l-2.778,7.004c1.766,0.41,6.305,1.531,6.442,3.348
	L316.57,408.368z M274.083,405.989c0,2.082,1.641,2.714,3.137,3.477l2.301-2.457c-0.633-0.949-1.36-1.176-1.36-2.719v-1.363
	c0-2.465,2.707-4.578,3.739-6.117C278.985,397.489,274.083,402.293,274.083,405.989L274.083,405.989z M341.044,399.188l4.758-3.059
	c-0.918-1.734-3.844-4.57-6.116-4.758C339.564,396.77,341.044,394.235,341.044,399.188L341.044,399.188z M335.607,426.043
	c2.315-0.543,7.815-3.41,7.815-5.781c0-1.645-2.849-6.297-3.06-8.836h-0.678C339.686,416.543,336.609,422.27,335.607,426.043
	L335.607,426.043z M316.57,428.082c0-6.218,10.985-6.554,15.297-8.496c3.242-1.457,3.453-4.031,4.043-7.855
	c0.621-4.012,2.035-6.059,2.755-9.145l-1.687,0.418c-1.246,5.211-4.75,4.836-6.134,6.723c0.772,0.203,1.359,0.324,1.359,1.359
	c0,5.192-18.691,2.164-18.691,16.996v1.359c0,1.363,0.595,3.871,1.019,4.759c-0.389,0.577-0.741,1.358-1.698,1.358h-0.345
	c-1.125,0-0.707-0.68-1.358-0.68c-2.905,0-8.017,7.855-7.478,11.559l0.853,7.16c1.121-0.277,3.465-2.582,4.647-3.363
	c1.758-1.16,4.125-1.566,5.379-2.438c-2.687,0-5.78-1.137-5.78-3.742v-0.68c0-2.656,2.188-5.777,4.762-5.777
	c0.815,0,0.996,0.551,1.699,1.021c2.646-0.618,5.896-0.958,8.75-1.446c3.457-0.59,5.063-0.887,5.862-4.332
	c-2.674,0.625-3.269,2.039-7.475,2.039c-2.423,0-5.779-2.582-5.779-5.098V428.082z M314.872,456.293
	c7.163,0,16.491-10.496,16.653-17.675c-2.076,2.39-2.25,3.39-5.041,5.499c-2.562,1.934-5.367,2.066-7.194,3.34l3.391-0.402
	c0.375,0.012,1.027,0.773,1.027,1.422v0.68c0,2.098-9.711,4.047-10.535,7.137H314.872z M314.872,456.293"/>
<path fill-rule="evenodd" clip-rule="evenodd" fill="#E21F26" d="M283.259,419.922c2.062-0.172,6.117-3.094,6.117-5.097
	c0-0.782-0.234-1.02-1.019-1.02h-0.34C286.548,413.805,283.427,418.379,283.259,419.922L283.259,419.922z M283.259,419.922"/>
<path fill-rule="evenodd" clip-rule="evenodd" fill="#DD8432" d="M323.018,423.945l0.78,4.281l-1.108,0.535v1.699
	c0,0.816-0.552,1-1.021,1.699c0.008,0.004,0.633,0.34,0.681,0.34c0.965,0,2.28-1.727,2.719-2.379c0-3.625,0.582-4.621,2.01-6.949
	L323.018,423.945z M281.22,455.613c0.199-0.852,1.019-2.668,1.019-3.059c0-0.621-1.547-2.391-2.039-2.719v0.68l-0.886,0.047
	l1.16,5.066L281.22,455.613z M298.216,467.852l-0.68,1.699l-1.129,1.605l2.489,0.094c4.545,0,6.523-7.977,8.379-11.336
	c1.237-2.234,2.457-3.914,3.983-5.871c1.726-2.211,4.113-2.563,5.992-3.867C309.402,450.176,299.854,461.715,298.216,467.852
	L298.216,467.852z M334.927,377.774c6.543-0.543,11.548-8.746,12.914-14.617c-1.681,1.23-3,5.91-5.353,8.246
	c-1.476,1.465-2.159,1.855-3.823,2.972C336.941,375.535,334.975,375.559,334.927,377.774L334.927,377.774z M330.165,380.832v1.7
	c0,3.304,1.711,7.527,4.082,8.16c0.336-1.449,1.36-2.453,1.36-4.078c0-1.7-2.039-3.157-2.039-6.121v-0.68
	c0-6.078,3.233-7.59,5.437-10.875C334.814,369.914,330.165,375.594,330.165,380.832L330.165,380.832z M285.298,455.613l-0.68-0.68
	l-1.976-1.766c-0.492,1.918-1.082,2.543-1.082,5.164v1.359c0,1.023,0.738,2.195,1.019,3.398c0.817,0.547,1.43,1.945,2.281,1.566
	c1.055-0.473-0.242-1.125-0.242-2.586v-0.34c0-1.031,0.59-1.152,1.36-1.359v-2.039l1.308,1.078c0.496-0.953,0.391,0.223,0.391-1.078
	v-3.398c0-1.871-2.594-5.383-4.078-5.777l3.566,7.738l-0.312,0.25L285.298,455.613z M274.083,405.989c0-3.696,4.902-8.5,7.817-9.18
	c-1.032,1.539-3.739,3.652-3.739,6.117v1.363c0,1.543,0.727,1.77,1.36,2.719l-2.301,2.457
	C275.724,408.703,274.083,408.071,274.083,405.989L274.083,405.989z M288.017,385.594c0,1.242,2.039,1.977,2.039,2.719
	c0,5.789-17.676,7.066-17.676,18.015c0,3.556,3.656,2.844,4.359,6.06l5.297-5.203l-2.515-3.238
	c1.867-8.008,13.257-11.446,13.257-14.614c0-1.828-3.402-2.047-3.402-3.738v-0.34c0-3.422,3.805-2.449,4.422-4.761
	C292.2,380.918,288.017,383.368,288.017,385.594L288.017,385.594z M299.234,379.473v0.34c0,1.476,2.646,1.722,2.942,5.203
	l1.815-3.844c-0.133,5.985-9.792,12.488-10.194,17.336l0.512-0.145l3.48-4.008l0.414,0.34l-7.129,8.57
	c5.481-0.121,11.244-4.785,14.957-5.777v-0.68c-1.358-0.316-3.397-2.117-3.397-3.399v-1.359c0-0.918,0.164-0.938,0.513-1.738
	l0.506,1.398c0.845-3.621,5.438-7.078,5.438-10.539v-0.679c0-1.438-0.469-0.18-1.021-1.7l-0.967,0.02l-0.392,0.66
	c0.646-7.73,12.565-9.566,16.315-16.656c-1.492,0.402-4.086,3.172-5.635,4.222c-2.341,1.582-4.212,2.309-6.986,3.215
	C307.064,371.348,299.234,376.203,299.234,379.473L299.234,379.473z M314.872,456.293h-1.699c0.824-3.09,10.535-5.039,10.535-7.137
	v-0.68c0-0.648-0.652-1.41-1.027-1.422l-3.391,0.402c1.827-1.273,4.633-1.406,7.194-3.34c2.791-2.109,2.965-3.109,5.041-5.499
	C331.363,445.797,322.035,456.293,314.872,456.293L314.872,456.293z M335.607,426.043c1.002-3.773,4.078-9.5,4.078-14.617h0.678
	c0.211,2.539,3.06,7.191,3.06,8.836C343.423,422.633,337.923,425.5,335.607,426.043L335.607,426.043z M316.57,428.082v1.699
	c0,2.516,3.356,5.098,5.779,5.098c4.206,0,4.801-1.414,7.475-2.039c-0.799,3.445-2.405,3.742-5.862,4.332
	c-2.854,0.488-6.104,0.828-8.75,1.446c-0.703-0.47-0.884-1.021-1.699-1.021c-2.573,0-4.762,3.121-4.762,5.777v0.68
	c0,2.605,3.094,3.742,5.78,3.742c-1.254,0.871-3.621,1.277-5.379,2.438c-1.183,0.781-3.526,3.086-4.647,3.363l-0.853-7.16
	c-0.539-3.703,4.572-11.559,7.478-11.559c0.651,0,0.233,0.68,1.358,0.68h0.345c0.957,0,1.31-0.781,1.698-1.358
	c-0.424-0.888-1.019-3.396-1.019-4.759v-1.359c0-14.832,18.691-11.804,18.691-16.996c0-1.035-0.587-1.156-1.359-1.359
	c1.384-1.887,4.888-1.512,6.134-6.723l1.687-0.418c-0.72,3.086-2.134,5.133-2.755,9.145c-0.59,3.824-0.801,6.398-4.043,7.855
	C327.556,421.528,316.57,421.864,316.57,428.082L316.57,428.082z M341.044,399.188c0-4.953-1.479-2.418-1.358-7.817
	c2.272,0.188,5.198,3.024,6.116,4.758L341.044,399.188z M316.57,408.368l0.662-0.391c-0.138-1.817-4.677-2.938-6.442-3.348
	l2.778-7.004l-0.396-0.136c1.177-0.789,2.379-3.118,2.379-5.098v-0.34c0-1.855-0.68-1.883-0.68-3.738v-2.379
	c0-1.465,0.396-1.844,0.68-3.063c1.065,0.786,0.519,1.364,1.699,1.364c0.887,0,5.478-4.168,8.496-4.422
	c-3.601,3.133-6.345,3.512-8.212,9.125c-0.573,1.726-1.108,5.375-1.297,7.543c-0.289,3.355-2.047,4.691-2.047,6.445v0.34
	c0,0.785,0.235,1.023,1.021,1.023h0.681c1.776,0,3.577-4.539,3.737-6.461c0.763,0.18,0.78,0.34,1.699,0.34h2.379
	c0.918,0,0.938-0.16,1.698-0.34v1.02c0,1.316-3.737,2.797-3.737,5.781v2.379c0,1.487,0.815,2.73,2.039,3.059l-0.402,0.996
	l3.13-1.664l3.385,0.394l-5.237,2.317l0.146,0.336h-2.379l0.413-2.371c-0.766,1.078-0.362,1.886-2.112,2.031
	C320.497,410.715,317.747,408.68,316.57,408.368L316.57,408.368z M316.57,408.368l-0.836,0.488l1.517,1.89h-0.681l-0.049,2.008
	l1.75-2.008v0.681l0.729,0.151l-0.863,0.235l0.738,1.906l-0.945,1.106c1.972-0.461,3.505-0.418,6.246-1.231
	c2.031-0.602,4.414-1.801,5.988-2.168c-2.933,4.008-18.354,1.48-18.354,17.335v0.34c0,1.945,0.543,2.43,0.678,4.078
	c-2.323-1.074-6.168,2.922-7.381,4.512c-1.633,2.129-3.153,6.18-3.153,9.766c0,3.852,1.327,6.117,2.038,9.176h0.681
	c0.418-1.566,5.332-5.047,7.019-5.895c2.426-1.219,7.369-2.191,10.658-2.262c-1.65,2.25-8.837,3.258-13.259,9.855
	c10.5,0,16.34-3.996,20.47-10.461c2.303-3.609,2.94-6.926,4.389-11.25c0.693-2.07,1.231-3.641,2.396-5.421
	c0.953-1.457,3.173-2.731,3.681-4.138c-9.513,2.215-8.274,19.035-24.474,19.035h-0.68c-2.285,0-4.763-0.375-4.763-2.723
	c0-1.402,0.844-2.484,1.75-3.035l-0.729,2.016c2.737-1.832,3.246-2.27,7.444-2.75c2.423-0.277,7.117-1.328,9.211-1.328
	c2.134-1.426,4.509-7.082,7.048-9.605c1.25-1.242,3.629-2.309,5.426-3.074c2.996-1.273,2.496-2.617,4.522-3.977
	c-0.471,1.774-4.164,5.993-5.375,7.543c-2.483,3.18-3.639,3.02-4.819,8.094c4.892-0.406,10.875-7.605,10.875-12.914v-2.383
	c0-3.883-4.078-8.363-4.078-14.273c0-2.5,0.888-4.426,1.358-6.461c-6.393,4.285-3.437,31.953-20.053,31.953
	c-2.134,0-4.759-1.988-4.759-4.078c0-8.136,16.794-5.441,18.229-11.339c1.664-6.828,3.224-18.437,9.642-19.934
	c-1.043,1.559-1.438,0.942-2.383,3.055c-0.151,0.34-1.384,4.199-1.478,4.438l0.801,6.445c2.134-0.57,3.746-4.547,4.759-6.457
	c-0.863-0.203-1.699-0.285-1.699-1.363v-0.68c0-3,1.358-3.977,1.358-7.477c0-2.363-1.918-3.39-3.465-4.351
	c-0.78-0.485-4.711-3.039-4.846-3.086l-1.203,5.738c0.905,1.359,2.039,2.112,2.039,4.418v0.34c0,1.113-1.279,2.379-2.72,2.379
	h-1.021c-0.67,2.883-3.203,6.801-6.461,6.801h-1.699c-1.659,0-2.385-0.36-3.108-1.379l0.392-0.66l-0.681-0.68l-0.34,3.059
	c-0.539-0.623-1.021-1.211-1.021-2.379v-0.34c0-4.801,9.082-7.203,12.168-10.27c2.586-2.566,1.244-5.039,2.888-8.328
	c1.435-2.867,4.168-3.02,5.68-5.879c-9.133,2.442-6.403,12.024-14.616,13.938c-0.142,1.691-0.914,3.008-2.379,3.398
	c1.879-2.808,1.698-0.91,1.698-5.777c-1.767,1.183-2.901,4.078-5.776,4.078h-0.34c-1.328,0-2.509-1.102-3.371-1.691l-2.068,5.429
	c0.103-1.254,0.531-2.082,0.828-3.59c0.297-1.511,0.039-2.691,0.259-4.156c0.362-2.433,1.231-4.556,2.555-6.285
	c1.354-1.766,2.683-3.18,4.519-4.316c2.668-1.653,4.33-0.926,4.414-4.766c-7.69,1.793-6.28,1.34-11.894,5.098
	c0.888-3.316,8.246-4.5,9.177-8.497c-1.728,1.157-1.492,1.731-4.078,2.379c-1.478,0.375-3.371,1.172-4.485,1.977
	c-2.854,2.059-5.031,3.336-5.031,8.223v0.339c0,1.942,1.019,3.305,1.019,5.778c0,1.32-2.092,3.824-2.722,4.758
	c0,4.609-2.719,6.109-2.719,7.82C308.751,405.696,315.768,408.18,316.57,408.368L316.57,408.368z M316.57,408.368"/>
<path fill-rule="evenodd" clip-rule="evenodd" fill="#3A3A3A" d="M264.224,437.598c0,1.461,0.398,1.844,0.679,3.059h2.719
	c0.039,1.641,0.07,1.535,1.492,1.91c2.18,0.574,1.024,0.734,2.391,0.992l1.953-2.445l0.371,0.212l-0.426-2.368
	c1.915-1.012,4.758-2.613,4.758-5.438v-0.34c0-0.656-0.605-1.359-1.019-1.359c-0.473,0-4.711,2.988-5.664,3.516
	C269.294,436.555,264.224,436.336,264.224,437.598L264.224,437.598z M271.36,424.684c2.313,0,2.614-3,2.981-4.843
	c0.555-2.793,1.297-4.305,1.781-6.375C268.298,412.813,267.454,424.684,271.36,424.684L271.36,424.684z M297.536,469.551l0.68-1.699
	c-0.93-1.465,3.457-10.461,4.418-11.898c-0.155-1.871-1.112-5.023-1.56-7.277c-0.733-3.73-2-3.738-2.519-5.98l1.345,0.383
	l0.304-0.238l-4.586-6.688l4.59,3.543l-2.805-4.383l2.75,1.426c-0.144-3.121-3.125-4.309-4.315-5.938
	c2.41,0.199,5.125,3.566,6.457,5.098l0.313-0.223l-2.302-3.215c1.019,0.289,1.945,1.059,2.669,1.059c0.475,0,0.678-0.465,0.678-1.02
	c0-2.402-2.651-3.816-3.737-5.438l1.348-0.699l7.402,2.953l0.25-0.352l-1.556-1.879l1.715,1.016l-0.608-2.078l0.965,0.02v-1.359
	c0-1.065,0.609-0.965,1.359-1.363l-0.203-2.394c0.888-1.156,1.647-2.306,3.082-3.223c0.655-0.418,3.608-2.171,3.922-2.199v-1.019
	l-1.621,0.609l-1.985,2.246l-1.44-1.215l-3.125-0.117l-2.246,1.094l-0.31-0.426l1.361-1.359c-0.203-0.344,0.125-0.492-0.832-0.492
	h-2.38c-2.934,0-3.922,1.187-6.117,1.699c0.756-2.844,5.906-4.059,6.458-6.117l-1.685,0.41c1.176-1.696,3.828-1,4.063-3.809
	l-3.668,1.817l-0.072-0.797l-6.812,0.933l3.023-3.043l-0.289-0.269h-2.379c-1.144,0-2.687,0.883-3.398,1.359l1.039-1.688
	l-5.785,2.398l4.074-3.758l-0.223-0.402l-7.996,4.379l1.129-1.219c-4.914,1.078-11.273,7.94-11.273,14.223v2.039l3.847-1
	l-0.109-0.36c3.328,1.598,4.672-4.968,5.098-6.795l-2.954,3.152c0.571-2.988,2.711-4.477,4.926-5.942
	c2.211-1.459,3.926-4.084,6.184-4.687l-3,3.121l0.387,0.488l6.308-3.027l-6.551,5.355l0.934,1.465l1.535-0.695l-1.828,2.315
	l0.227,0.321l6.414-1.852c-3.051,2.633-15.512,4.905-16.661,9.843l4.332-1.891c-1.23,1.984-4.714,2.035-5.011,5.629
	c3.203-2.145,6.695-7.023,11.894-7.14c-1.359,1.859-7.07,3.996-9.855,8.16c3.828-1.023,6.383-3.738,11.215-3.738
	c1.468,0,1.91,0.711,3.062,1.02l-0.945,0.797l1.312,0.027l1.192,2.84l-1.61-0.875l-1.238,0.727l0.656,0.859l-1.746-0.309
	l-0.73,0.988l1.707,0.813l0.043,0.59h-1.703l1.078,1.309c-2.434,1.191-6.328,0.41-8.555,3.449c7.207,0,6.067,0.973,10.199,3.738
	l-0.73-2.016c2.008,1.29,4.808,9.383,4.808,12.895v4.078c0,1.172-0.252,1.317-0.338,2.379l-0.539-1.07
	c-0.172,1.332-2.473,10.75-3.2,8.552l-3.359,2.437c-1.414-0.059-2.297,0.422-3.102,0.281l-5.464-0.871l-0.383,1.531l1.332,1.566
	l2.945,1.888l1.75,1.179l0.316-1.25l0.184,1.395h1.02v-1.02l3.406,0.102l-0.387-1.449l1.668,0.82l1.449-3.543L297.536,469.551z
	 M268.763,448.637c0.515,2.215,2.484,5.254,4.543,6.355l0.094-2.82l2.722,0.043v-1.02c1.41,0.298,1.317,0.477,1.36-1.359
	l-1.106-0.949l-1.926,0.434l-0.183,0.891l-1.035-1.227l-0.168,1.191l-2.422-1.641l-0.145,0.672l-0.156-1.75L268.763,448.637z
	 M268.763,448.637"/>
<path fill-rule="evenodd" clip-rule="evenodd" fill="#050605" d="M279.86,462.07c1.067,0.715,4.297,3.309,4.559,4.551l1.406,0.949
	l-0.308,0.41l-0.899-0.809v0.68C281.978,467.629,280.79,464.148,279.86,462.07L279.86,462.07z M287.056,460.898l7.5,4.652
	l-2.379,2.379l-0.387,0.125L287.056,460.898z M279.314,450.563l0.886-0.047v-0.68c0.492,0.328,2.039,2.098,2.039,2.719
	c0,0.391-0.82,2.207-1.019,3.059l-0.746,0.016L279.314,450.563z M286.657,447.457c0-0.867,1.301-1.336,2.379-1.359v1.02
	c0,2.551,0.176,5.094,1.403,6.449l-0.723-5.09v-1.02c0-2.453,1.305-4.707,3.742-4.762v2.383c0,2.008,1.02,3.348,1.02,6.117v1.699
	c0,2.254-1.289,4.965-3.063,5.438v-2.039h-0.68v1.02c0,1.605-0.847,2.594-2.378,2.719
	C289.849,456.922,286.657,451.195,286.657,447.457L286.657,447.457z M285.298,455.613l1.555,1.531l0.312-0.25l-3.566-7.738
	c1.484,0.395,4.078,3.906,4.078,5.777v3.398c0,1.301,0.105,0.125-0.391,1.078l-1.308-1.078v2.039c-0.77,0.207-1.36,0.328-1.36,1.359
	v0.34c0,1.461,1.297,2.113,0.242,2.586c-0.851,0.379-1.464-1.02-2.281-1.566c-0.281-1.203-1.019-2.375-1.019-3.398v-1.359
	c0-2.621,0.59-3.246,1.082-5.164l1.976,1.766c-0.386-1.445-5.097-6.672-5.097-8.156c0-0.566,2.011-1.535,2.718-1.699
	C282.239,448.922,285.685,454.95,285.298,455.613L285.298,455.613z M326.775,439.348l-5.599,4.297
	c-0.366-1.031-0.526-1.051-0.526-1.969c0-0.719,0.121-0.445,0.334-1.391L326.775,439.348z M264.224,437.598
	c0-1.262,5.07-1.043,7.254-2.262c0.953-0.527,5.191-3.516,5.664-3.516c0.414,0,1.019,0.703,1.019,1.359v0.34
	c0,2.824-2.843,4.426-4.758,5.438l0.426,2.368l-0.371-0.212l-1.953,2.445c-1.367-0.258-0.211-0.418-2.391-0.992
	c-1.422-0.375-1.453-0.27-1.492-1.91h-2.719C264.622,439.441,264.224,439.059,264.224,437.598L264.224,437.598z M327.078,423.172
	c-1.428,2.328-2.01,3.324-2.01,6.949c-0.438,0.652-1.754,2.379-2.719,2.379c-0.048,0-0.673-0.336-0.681-0.34
	c0.469-0.699,1.021-0.883,1.021-1.699v-1.699l1.108-0.535l-0.78-4.281L327.078,423.172z M335.32,420.758
	c-0.987,3.843-5.78,11-10.592,11.402l3.293-3.883l-0.293-0.258l-1.582,1.484c0.004-2.832,0.838-4.816,2.129-6.125L335.32,420.758z
	 M283.259,419.922c0.168-1.543,3.289-6.117,4.758-6.117h0.34c0.785,0,1.019,0.238,1.019,1.02
	C289.376,416.828,285.321,419.75,283.259,419.922L283.259,419.922z M271.36,424.684c-3.906,0-3.062-11.871,4.762-11.218
	c-0.484,2.07-1.226,3.582-1.781,6.375C273.974,421.684,273.673,424.684,271.36,424.684L271.36,424.684z M298.216,467.852
	c1.638-6.137,11.187-17.676,19.035-17.676c-1.879,1.305-4.267,1.656-5.992,3.867c-1.526,1.957-2.746,3.637-3.983,5.871
	c-1.856,3.359-3.834,11.336-8.379,11.336l-2.489-0.094l1.129-1.605l-1.004,0.004l-1.449,3.547l-1.668-0.82l0.387,1.449l-3.406-0.102
	v1.02h-1.02l-0.184-1.395l-0.316,1.25l-1.75-1.179l-2.945-1.888l-1.332-1.566l0.383-1.531l5.464,0.871
	c0.805,0.141,1.688-0.34,3.102-0.281l3.359-2.437c0.727,2.198,3.028-7.22,3.2-8.552l0.539,1.07c0.086-1.062,0.338-1.207,0.338-2.379
	v-4.078c0-3.512-2.799-11.604-4.808-12.895l0.73,2.016c-4.132-2.766-2.992-3.738-10.199-3.738c2.227-3.039,6.121-2.258,8.555-3.449
	l-1.078-1.309h1.703l-0.043-0.59l-1.707-0.813l0.73-0.988l1.746,0.309l-0.656-0.859l1.238-0.727l1.61,0.875l-1.192-2.84
	l-1.312-0.027l0.945-0.797c-1.152-0.309-1.594-1.02-3.062-1.02c-4.832,0-7.387,2.715-11.215,3.738
	c2.785-4.164,8.496-6.301,9.855-8.16c-5.199,0.117-8.691,4.996-11.894,7.14c0.297-3.594,3.781-3.645,5.011-5.629l-4.332,1.887
	c1.149-4.934,13.61-7.21,16.661-9.839l-6.414,1.852l-0.227-0.321l1.828-2.315l-1.535,0.695l-0.934-1.465l6.551-5.355l-6.308,3.027
	l-0.387-0.488l3-3.121c-2.258,0.602-3.973,3.227-6.184,4.687c-2.215,1.465-4.355,2.954-4.926,5.942l2.954-3.152
	c-0.426,1.828-1.77,8.394-5.098,6.795l0.109,0.36l-3.847,1v-2.039c0-6.282,6.359-13.145,11.273-14.223l-1.129,1.219l7.996-4.379
	l0.223,0.402l-4.074,3.758l5.785-2.398l-1.039,1.688c0.711-0.477,2.254-1.359,3.398-1.359h2.379l0.289,0.269l-3.023,3.043
	l6.812-0.933l0.072,0.797l3.668-1.817c-0.235,2.809-2.888,2.113-4.063,3.809l1.685-0.41c-0.552,2.059-5.701,3.273-6.458,6.117
	c2.195-0.512,3.183-1.699,6.117-1.699h2.38c0.957,0,0.629,0.148,0.832,0.492l-1.361,1.359l0.31,0.426l2.246-1.094l3.125,0.117
	l1.44,1.215l1.985-2.246l1.621-0.609v1.019c-0.313,0.028-3.267,1.781-3.922,2.199c-1.435,0.917-2.194,2.067-3.082,3.223l0.203,2.394
	c-0.75,0.398-1.359,0.298-1.359,1.363v1.359l-0.965-0.02l0.608,2.078l-1.715-1.016l1.556,1.879l-0.25,0.352l-7.402-2.953
	l-1.348,0.699c1.086,1.621,3.737,3.035,3.737,5.438c0,0.555-0.203,1.02-0.678,1.02c-0.724,0-1.65-0.77-2.669-1.059l2.302,3.215
	l-0.313,0.223c-1.332-1.531-4.047-4.898-6.457-5.098c1.191,1.629,4.172,2.816,4.315,5.938l-2.75-1.426l2.805,4.383l-4.59-3.543
	l4.586,6.688l-0.304,0.238l-1.345-0.383c0.519,2.242,1.785,2.25,2.519,5.98c0.447,2.254,1.404,5.406,1.56,7.277
	C301.673,457.391,297.286,466.387,298.216,467.852L298.216,467.852z M322.35,395.789c-7.095,0-0.294-14.027,6.797-14.617v1.699
	c0,5.348,1.784,5.922,3.737,8.84l-3.164,2.407l-0.478-0.454l1.095-3.035c-3.293,0.352-4.25,5.16-7.647,5.16H322.35z
	 M288.017,385.594c0-2.227,4.183-4.676,5.781-5.101c-0.617,2.312-4.422,1.339-4.422,4.761v0.34c0,1.69,3.402,1.91,3.402,3.738
	c0,3.168-11.39,6.606-13.257,14.614l2.515,3.238l-5.297,5.203c-0.703-3.215-4.359-2.504-4.359-6.06
	c0-10.949,17.676-12.226,17.676-18.015C290.056,387.571,288.017,386.836,288.017,385.594L288.017,385.594z M324.388,405.309
	c0.707-3.043,3.234-4.41,5.888-5.672c4.5-2.137,3.608-2.465,6.69-4.527c0.724,0.531,1.699,1.793,1.699,3.058v1.02
	c0,0.793-0.906,1.699-1.699,1.699c-0.715,0-0.953-0.898-1.021-1.699c-1.237,0.906-1.026,8.16-7.14,8.16h-0.34
	c-1.573,0-2.728-0.445-3.397-1.359l-0.392,0.66c0.724,1.019,1.449,1.379,3.108,1.379h1.699c3.258,0,5.791-3.918,6.461-6.801h1.021
	c1.44,0,2.72-1.266,2.72-2.379v-0.34c0-2.306-1.134-3.059-2.039-4.418l1.203-5.738c0.135,0.047,4.065,2.601,4.846,3.086
	c1.547,0.961,3.465,1.988,3.465,4.351c0,3.5-1.358,4.477-1.358,7.477v0.68c0,1.078,0.836,1.16,1.699,1.363
	c-1.013,1.91-2.625,5.887-4.759,6.457l-0.801-6.445c0.094-0.239,1.326-4.098,1.478-4.438c0.944-2.113,1.34-1.496,2.383-3.055
	c-6.418,1.497-7.978,13.106-9.642,19.934c-1.436,5.898-18.229,3.203-18.229,11.339c0,2.09,2.625,4.078,4.759,4.078
	c16.616,0,13.66-27.667,20.053-31.953c-0.471,2.035-1.358,3.961-1.358,6.461c0,5.91,4.078,10.39,4.078,14.273v2.383
	c0,5.309-5.983,12.508-10.875,12.914c1.181-5.074,2.336-4.914,4.819-8.094c1.211-1.551,4.904-5.77,5.375-7.543
	c-2.026,1.36-1.526,2.704-4.522,3.977c-1.797,0.766-4.176,1.832-5.426,3.074c-2.539,2.523-4.914,8.18-7.048,9.605
	c-2.094,0-6.788,1.051-9.211,1.328c-4.198,0.48-4.707,0.918-7.444,2.75l0.729-2.016c-0.906,0.551-1.75,1.633-1.75,3.035
	c0,2.348,2.478,2.723,4.763,2.723h0.68c16.199,0,14.961-16.82,24.474-19.035c-0.508,1.406-2.728,2.681-3.681,4.138
	c-1.164,1.78-1.702,3.351-2.396,5.421c-1.448,4.324-2.086,7.641-4.389,11.25c-4.13,6.465-9.97,10.461-20.47,10.461
	c4.422-6.598,11.608-7.605,13.259-9.855c-3.289,0.07-8.232,1.043-10.658,2.262c-1.687,0.848-6.601,4.328-7.019,5.895h-0.681
	c-0.711-3.059-2.038-5.324-2.038-9.176c0-3.586,1.521-7.637,3.153-9.766c1.213-1.59,5.058-5.586,7.381-4.512
	c-0.135-1.648-0.678-2.133-0.678-4.078v-0.34c0-15.855,15.422-13.328,18.354-17.335c-1.574,0.367-3.957,1.566-5.988,2.168
	c-2.741,0.813-4.274,0.77-6.246,1.231l0.945-1.106l-0.738-1.906l0.863-0.235l-0.729-0.151v-0.681l-1.75,2.008l0.049-2.008h0.681
	l-1.517-1.89l0.836-0.488c-0.803-0.188-7.819-2.672-7.819-3.059c0-1.711,2.719-3.211,2.719-7.82c0.63-0.934,2.722-3.438,2.722-4.758
	c0-2.473-1.019-3.836-1.019-5.778v-0.339c0-4.887,2.177-6.164,5.031-8.223c1.114-0.805,3.008-1.602,4.485-1.977
	c2.586-0.648,2.351-1.222,4.078-2.379c-0.931,3.997-8.289,5.18-9.177,8.497c5.613-3.758,4.203-3.305,11.894-5.098
	c-0.084,3.84-1.746,3.113-4.414,4.766c-1.836,1.136-3.164,2.55-4.519,4.316c-1.323,1.729-2.192,3.852-2.555,6.285
	c-0.22,1.465,0.038,2.645-0.259,4.156c-0.297,1.508-0.726,2.336-0.828,3.59l2.068-5.429c0.862,0.589,2.043,1.691,3.371,1.691h0.34
	c2.875,0,4.01-2.895,5.776-4.078c0,4.867,0.181,2.969-1.698,5.777c1.465-0.39,2.237-1.707,2.379-3.398
	c8.213-1.914,5.483-11.496,14.616-13.938c-1.512,2.86-4.245,3.012-5.68,5.879c-1.644,3.289-0.302,5.762-2.888,8.328
	c-3.086,3.067-12.168,5.469-12.168,10.27v0.34c0,1.168,0.481,1.757,1.021,2.379L324.388,405.309z M330.165,380.832
	c0-5.238,4.649-10.918,8.84-11.894c-2.203,3.285-5.437,4.797-5.437,10.875v0.68c0,2.964,2.039,4.421,2.039,6.121
	c0,1.625-1.024,2.629-1.36,4.078c-2.371-0.633-4.082-4.856-4.082-8.16V380.832z M334.927,377.774
	c0.048-2.215,2.015-2.239,3.738-3.399c1.664-1.117,2.348-1.507,3.823-2.972c2.353-2.336,3.672-7.016,5.353-8.246
	C346.475,369.028,341.47,377.231,334.927,377.774L334.927,377.774z M299.234,379.473c0-3.27,7.83-8.125,11.172-9.219
	c2.774-0.906,4.646-1.633,6.986-3.215c1.549-1.05,4.143-3.82,5.635-4.222c-3.75,7.09-15.67,8.926-16.315,16.656l0.392-0.66
	l0.967-0.02c0.552,1.52,1.021,0.262,1.021,1.7v0.679c0,3.461-4.594,6.918-5.438,10.539l-0.506-1.398
	c-0.349,0.801-0.513,0.82-0.513,1.738v1.359c0,1.282,2.039,3.083,3.397,3.399v0.68c-3.713,0.992-9.476,5.656-14.957,5.777
	l7.129-8.57l-0.414-0.34l-3.48,4.008l-0.512,0.145c0.402-4.849,10.062-11.352,10.194-17.336l-1.815,3.844
	c-0.297-3.481-2.942-3.727-2.942-5.203V379.473z M268.302,448.477l2.039-1.02l0.156,1.75l0.145-0.672l2.422,1.641l0.168-1.191
	l1.035,1.227l0.183-0.891l1.926-0.434l1.106,0.949c2.148,0.18,1.086,0.777,1.48,2.934c0.309,1.66,0.73,2.305,1.254,3.508
	c0.883,2.051,0.176,5.211,2.363,6.813c-1.101,0.645-2.492-2.484-3.738-3.398c0,3.832,2.527,6.184,3.93,8.469l-0.411,3.559
	l0.825-0.797l0.535,2.16l0.898-0.813c0.469,1.297,2.039,1.406,2.039,2.719c0,1.461-0.394,1.844-0.398,3.16l1.121-3.59l1.527,0.789
	l0.809,3.379v-3.059l1.652,0.008l0.387,1.012v-1.699h1.703v-0.68l1.051-0.008l0.648,3.406h0.34c0-3.809-0.996-2.609,0.68-5.777
	c6.894,0,7.69-2.816,10.082-7.594c4.039-8.078,3.384-3.688,11.802-6.215c4.217-1.266,8.264-3.938,10.612-7.063
	c3.297-4.383,3.612-9.516,5.574-12.44c6.34,0,12.235-9.138,12.235-15.978v-0.68c0-3.668-2.72-7.343-2.72-8.496
	c0-1.961,6.798-5.918,6.798-13.258c-1.677,1.231,0.047,3.325-3.4,3.399v-1.02c0-2.312,1.361-3.461,1.361-5.777v-0.34
	c0-6.047-8.836-6.578-8.836-9.516c0-2.031,7.293-4.589,7.815-10.878c-2.552,1.871-1.156,2.429-5.644,4.214
	c-2.633,1.047-5.056,4.055-5.912,4.286c-0.338-1.273-1.358-2.219-1.358-3.743v-1.019c0-0.992,4.328-2.59,5.323-3.168
	c1.974-1.145,3.419-2.297,4.677-4.164c1.349-2.004,1.875-3.637,2.698-6.137c0.81-2.445,2.048-3.73,3.275-5.566
	c-6.134,1.64-6.884,12.136-14.615,13.938c3.158-5.973,7.431-6.102,9.177-13.597c-1.66,0.877-2.203,2.546-3.476,4.003
	c-1.697,1.938-2.313,2.114-4.345,3.477c-4.883,3.273-4.362,3.508-7.483,8.07l-3.946,0.492l1.913-4.483
	c-1.971,1.319-2.202,1.738-4.75,2.727c-2.047,0.793-3.514,0.761-5.569,1.91c-1.996,1.113-5.996,6.133-5.996,8.961
	c0,1.746,1.363,3.289,1.363,4.758v0.679c0,2.184-0.966,2.707-1.363,4.289l-3.399,0.129h-0.338c-1.168,0-3.74-1.183-3.74-2.379
	v-0.679c0-4.219,6.798-8.848,6.798-11.559c0-2.16-2.72-2.738-2.72-3.738c0-3.278,7.052-6.739,9.513-8.164
	c3.735-2.157,7-8.434,9.524-8.492v-0.68c-3.817,0.086-10.447,6.73-15.677,8.457c-4.649,1.535-13.215,5.762-13.215,11.258
	c0,2.199,2.72,2.75,2.72,5.101c0,3.989-9.181,10.114-9.181,14.953c1.43,0.473-3.328,4.004-4.57,4.61
	c-1.817,0.883-6.645,2.656-6.645-0.871v-1.02c0-4.836,13.258-10.273,13.258-13.254v-0.34c0-1.632-3.742-2.593-3.742-4.078
	c0-1.754,2.539-2.469,3.668-3.472c0.023-0.023,2.519-3.941,2.793-4.348c-1.457,0.34-2.942,2.101-4.992,3.168
	c-1.254,0.652-4.188,2.43-4.188,3.973v1.02c0,2.059,1.699,2.402,1.699,3.059c0,2.882-17.676,6.882-17.676,18.015v0.68
	c0,3,2.676,2.16,4.082,4.078c-0.566,0.567-1.132,1.133-1.699,1.699c-2.211,0.051-2.32,1.012-3.797,1.305
	c-1.668,0.332-4.023-0.695-4.023,1.074v0.34c0,2.691,1.769,2.441,2.719,3.738l-0.34,0.68v2.039c0,1.406,0.844,2.488,1.578,3.004
	l-1.238,3.457c-3.461,1.832-1.446,2.047-2.703,4.434c-0.657,1.246-2.352,3.035-2.235,4.746l-0.16,2.715
	c-0.023,0.898,0.524,1.337,1.02,1.699c-0.411,0.613-0.68,0.598-0.68,1.359v0.34C263.884,444.984,267.54,447.813,268.302,448.477
	L268.302,448.477z M268.302,448.477"/>
<path fill-rule="evenodd" clip-rule="evenodd" fill="#E21F26" d="M286.657,447.457c0,3.738,3.192,9.465,1.7,12.574
	c1.531-0.125,2.378-1.113,2.378-2.719v-1.02h0.68v2.039c1.774-0.473,3.063-3.184,3.063-5.438v-1.699c0-2.77-1.02-4.109-1.02-6.117
	v-2.383c-2.437,0.055-3.742,2.309-3.742,4.762v1.02l0.723,5.09c-1.227-1.355-1.403-3.898-1.403-6.449v-1.02
	C287.958,446.121,286.657,446.59,286.657,447.457L286.657,447.457z M286.657,447.457"/>
<path fill-rule="evenodd" clip-rule="evenodd" fill="#D6D6D6" d="M273.935,456.254l0.23-0.184c-0.555-1.211-1.687-3.672-2.687-5.84
	c-0.594-1.289-1.024-2.195-1.024-3.074c-0.535,0.125-2.051,0.855-2.051,1.281C268.403,451.277,272.04,454.469,273.935,456.254
	L273.935,456.254z M286.853,457.145l0.312-0.25c-0.742-1.602-2.242-4.867-3.566-7.738c-0.789-1.711-1.36-2.913-1.36-4.078
	c-0.707,0.164-2.718,1.133-2.718,1.699C279.521,450.543,284.341,454.773,286.853,457.145L286.853,457.145z M287.056,460.898
	l4.734,7.156l0.387-0.125l2.379-2.379L287.056,460.898z M279.86,462.07c0.93,2.078,2.118,5.559,4.758,5.781v-0.68l0.899,0.809
	l0.308-0.41l-1.406-0.949C284.157,465.379,280.927,462.785,279.86,462.07L279.86,462.07z M279.86,462.07"/>
</svg>
