<svg version="1.1" baseProfile="basic" id="Layer_1" xmlns="http://www.w3.org/2000/svg"
	xmlns:xlink="http://www.w3.org/1999/xlink" x="0px" y="0px" viewBox="-101.86 821.445 800 800" xml:space="preserve">
	<path fill="#050605" d="M670.823,1336.642h2.316v47.97l-2.316,3.136v37.355l-13.928-20.351h-2.093l0.026,0.053h-13.901
	c-181.887,0-463.258,0-645.125,0h-15.158l23.043-34.43v-7.978l-6.836-15.128l-73.712-30.716H68.413l1.732,3.018
	c18.5,0,37.01,0,55.527,0l-7.242-3.018h40.451c39.769,0,179.035,0,218.811,0h4.69l1.739,3.018c92.862,0,185.744,0.086,278.613,0.086
	h8.096v16.984H670.823z" />
	<path fill="#F6C51C" d="M663.456,1327.747v16.998h2.316v37.21l-2.316,3.136v13.882l-4.927-7.203l-3.614,4.907h-13.292l0.026,0.04
	c-151.119,0-454.916,0-645.847,0l15.968-23.881v-15.075l-7.649-17.746l-36.87-15.371h96.478l1.729,3.018
	c39.825,0,64.204,0,100.666,0l-7.243-3.018c39.769,0,179.764,0,219.532,0l1.738,3.018
	C545.212,1327.655,548,1327.747,663.456,1327.747L663.456,1327.747z" />
	<path fill="none" stroke="#EF7E3E" stroke-width="10.0768" d="M663.456,1327.747v16.998h2.316v37.21l-2.316,3.136v13.882
	l-4.927-7.203l-3.614,4.907h-13.292l0.026,0.04c-151.119,0-454.916,0-645.847,0l15.968-23.881v-15.075l-7.649-17.753l-36.87-15.364
	h96.478l1.729,3.018c39.825,0,64.204,0,100.666,0l-7.243-3.018c39.769,0,179.764,0,219.532,0l1.738,3.018
	C545.212,1327.655,548,1327.747,663.456,1327.747L663.456,1327.747z" />
	<path fill="#050605" d="M24.859,1343.058h20.603l0.052,0.656v14.065l-0.184,0.092l-5.343,0.046v-12.025l-22.932-0.039l7.663,4.448
	v26.451l-4.684,7.02H45.33l-5.343-6.691l-0.049-12.714h5.524l15.417-6.783v-11.928l-4.645-8.068H9.117
	c0.38,0.157,1.85,0.682,4.409,1.601C16.097,1340.106,19.876,1341.392,24.859,1343.058L24.859,1343.058z M62.401,1340.972
	l4.094,5.891v30.821l4.212,5.989l24.05,0.099l4.172-6.088v-31.005l-4.172-6.074h-32.54L62.401,1340.972z M82.41,1345.708l2.27-0.053
	v32.868l-0.276,0.092h-3.569l-0.052-32.907H82.41L82.41,1345.708z M100.136,1341.123l4.461,5.885l4.409,30.585l-2.886,6.127h16.847
	l-0.275-2.086l5.524-9.197l5.524,9.381l-0.512,1.902h16.847l-0.095-0.419l-2.782-5.8l4.32-30.585l4.737-6.311h-16.847l-3.109,21.531
	l-7.994-13.41l-8.302,14.014l-3.293-22.135H99.952L100.136,1341.123z M156.434,1341.123l3.992,5.793v36.804h29.745l-0.092-18.054
	l-7.613,12.714h-7.607l-0.095-0.643v-12.767l3.257,0.046l5.429,6.816v-21.02l-4.97,7.242l-3.716-0.092v-12.104l7.797-0.105
	l7.61,11.337v-16.447h-33.917L156.434,1341.123z M191.43,1341.064l3.989,5.806v30.27l-4.172,6.64h21.4l-2.89-6.271l0.095-11.743
	l4.973-0.04v11.783l2.545,6.271h15.837l-3.766-6.547v-12.531l-4.737-2.979l4.642-2.506v-11.179l-6.675-7.479l-31.424,0.052
	L191.43,1341.064z M212.827,1345.708c0.437-0.026,0.83-0.039,1.184-0.026c0.351,0.014,0.656,0.053,0.905,0.118v13.554h-5.16
	l0.095-13.646H212.827L212.827,1345.708z M343.538,1343.058h20.613l0.039,0.656v14.065l-0.19,0.092l-5.34,0.046v-12.025
	l-22.916-0.039l7.656,4.448v26.451l-4.69,7.02H364l-5.34-6.691l-0.033-12.714h5.524l15.403-6.783v-11.928l-4.638-8.068h-47.11
	c0.36,0.157,1.856,0.682,4.408,1.601C334.786,1340.093,338.566,1341.392,343.538,1343.058L343.538,1343.058z M380.762,1341.025
	l3.857,5.838v30.638l-4.041,6.271h17.956v-20.009c0-0.434-0.033-0.827-0.02-1.155c0.013-0.341,0.046-0.655,0.118-0.932h2.46
	c0.433,0,0.813-0.039,1.161-0.026c0.341,0.014,0.623,0.053,0.879,0.119v22.003h18.055l-4.035-6.455v-30.546l-4.186-6.166h-32.389
	L380.762,1341.025z M401.1,1345.656c0.433,0,0.807-0.039,1.128-0.013c0.328,0.013,0.63,0.053,0.912,0.118l-0.099,10.812l-4.5-0.085
	v-10.832H401.1z M422.48,1341.123l3.766,5.793v30.585l-3.942,6.219h17.503v-22.043l10.995,16.611l-3.392,5.432h17.273v-43.075
	l-17.418,0.092l4.081,6.18v13.594l-11.448-19.865h-17.595L422.48,1341.123z M466.901,1356.061l5.248-8.122h5.058v29.509
	l-4.186,6.271h22.614l-0.099-0.184l-3.896-5.891l-0.046-29.798h5.301l5.229,7.886v-15.181h-35.223V1356.061z M504.124,1341.156
	l4.002,5.76v30.493l-4.192,6.37l18.474-0.06v-21.95h4.56v21.95h18.56l-4.225-6.402v-30.303l4.225-6.312h-18.56v15.785l-4.56,0.039
	v-15.824h-18.474L504.124,1341.156z M546.497,1341.123l3.996,5.793v36.804h29.751l-0.085-18.054l-7.63,12.714h-7.604l-0.099-0.643
	v-12.767l3.261,0.046l5.425,6.816v-21.02l-4.966,7.242l-3.72-0.092v-12.104l7.801-0.105l7.623,11.337v-16.447h-33.931
	L546.497,1341.123z M581.49,1341.064l3.995,5.806v30.27l-4.172,6.64h21.4l-2.894-6.271l0.099-11.743l4.973-0.04v11.783l2.545,6.271
	h15.837l-3.766-6.547v-12.531l-4.736-2.979l4.638-2.506v-11.179l-6.672-7.479l-31.417,0.052L581.49,1341.064z M602.891,1345.708
	c0.433,0,0.827-0.039,1.188-0.026c0.348,0.014,0.656,0.053,0.905,0.118v13.554h-5.156l0.098-13.646H602.891L602.891,1345.708z
	 M628.922,1340.88l-4.073,5.982l0.039,19.643l16.723-0.046v12.104l-0.374,0.092h-7.847l-8.449-11.454v16.519h27.436l4.447-6.035
	v-19.996H639.19V1345.8h7.57l7.748,11.323v-16.427h-25.396L628.922,1340.88z" />
	<path fill="#F6C51C" d="M363.698,1178.776c3.956,1.046,13.193,7.882,13.705,12.554c5.878-0.486,4.526-3.202,7.098-6.82l-1.391,7.962
	h7.99l-0.491-1.129l17.595-7.78l-11.369-1.325l-10.517,5.589l1.352-3.346c-4.113-1.099-6.849-5.274-6.849-10.273v-7.99
	c0-10.024,12.55-14.997,12.55-19.419v-3.425c-2.552,0.604-2.618,1.142-5.701,1.142h-7.99c-3.09,0-3.149-0.538-5.708-1.142
	c-0.538,6.455-6.586,21.702-12.55,21.702h-2.29c-2.637,0-3.431-0.801-3.431-3.438v-1.142c0-5.892,5.904-10.379,6.875-21.649
	c0.637-7.282,2.435-19.537,4.356-25.337c6.271-18.851,15.489-20.127,27.586-30.649c-10.142,0.853-25.559,14.853-28.537,14.853
	c-3.969,0-2.132-1.938-5.708-4.579c-0.951,4.094-2.282,5.366-2.282,10.286v7.991c0,6.232,2.282,6.324,2.282,12.557v1.142
	c0,6.652-4.034,14.476-7.99,17.122l1.332,0.46l-9.336,23.525c5.938,1.377,21.184,5.143,21.644,11.244L363.698,1178.776z
	 M220.992,1170.786c0,6.99,5.511,9.115,10.536,11.677l7.729-8.253c-2.126-3.185-4.566-3.949-4.566-9.132v-4.579
	c0-8.279,9.093-15.374,12.557-20.544C237.455,1142.235,220.992,1158.37,220.992,1170.786L220.992,1170.786z M445.907,1147.939
	l15.98-10.273c-3.083-5.826-12.91-15.352-20.54-15.981C440.934,1139.817,445.907,1131.301,445.907,1147.939L445.907,1147.939z
	 M427.643,1238.144c7.78-1.823,26.255-11.454,26.255-19.419c0-5.523-9.572-21.15-10.28-29.679h-2.276
	C441.348,1206.235,431.008,1225.469,427.643,1238.144L427.643,1238.144z M363.698,1244.994c0-20.882,36.902-22.011,51.381-28.538
	c10.891-4.894,11.6-13.541,13.58-26.386c2.086-13.476,6.836-20.351,9.257-30.716l-5.668,1.403
	c-4.186,17.504-15.955,16.244-20.6,22.581c2.591,0.683,4.56,1.089,4.56,4.566c0,17.438-62.776,7.269-62.776,57.089v4.565
	c0,4.579,1.994,13.003,3.418,15.988c-1.306,1.935-2.486,4.56-5.701,4.56h-1.161c-3.779,0-2.375-2.283-4.56-2.283
	c-9.756,0-26.931,26.386-25.12,38.824l2.867,24.051c3.766-0.932,11.638-8.673,15.607-11.297c5.904-3.897,13.855-5.262,18.067-8.188
	c-9.021,0-19.413-3.818-19.413-12.57v-2.283c0-8.922,7.348-19.405,15.995-19.405c2.735,0,3.346,1.851,5.707,3.431
	c8.89-2.079,19.806-3.221,29.391-4.86c11.612-1.981,17.005-2.979,19.688-14.552c-8.98,2.1-10.976,6.85-25.106,6.85
	c-8.135,0-19.412-8.673-19.412-17.123V1244.994z M357.997,1339.751c24.058,0,55.39-35.255,55.935-59.365
	c-6.974,8.023-7.558,11.383-16.933,18.468c-8.601,6.495-18.028,6.941-24.162,11.219l11.389-1.352
	c1.26,0.046,3.451,2.598,3.451,4.776v2.289c0,7.046-32.618,13.593-35.387,23.972h5.707V1339.751z" />
	<path fill="#E21F26" d="M251.813,1217.583c6.924-0.577,20.547-10.392,20.547-17.119c0-2.627-0.787-3.428-3.424-3.428h-1.142
	C262.86,1197.037,252.377,1212.401,251.813,1217.583L251.813,1217.583z" />
	<path fill="#DD8432" d="M385.361,1231.098l2.618,14.381l-3.72,1.798v5.707c0,2.742-1.856,3.359-3.432,5.708
	c0.026,0.013,2.126,1.142,2.29,1.142c3.241,0,7.656-5.8,9.132-7.991c0-12.176,1.955-15.521,6.751-23.342L385.361,1231.098z
	 M244.964,1337.468c0.669-2.859,3.421-8.961,3.421-10.273c0-2.086-5.196-8.029-6.846-9.132v2.283l-2.978,0.157l3.896,17.018
	L244.964,1337.468z M302.05,1378.577l-2.282,5.707l-3.791,5.393l8.356,0.315c15.267,0,21.912-26.793,28.145-38.077
	c4.159-7.505,8.253-13.146,13.383-19.721c5.793-7.426,13.81-8.606,20.128-12.989C339.622,1319.205,307.555,1357.963,302.05,1378.577
	L302.05,1378.577z M425.36,1076.01c21.978-1.823,38.792-29.377,43.378-49.095c-5.648,4.13-10.077,19.849-17.982,27.695
	c-4.953,4.923-7.249,6.232-12.839,9.984C432.123,1068.493,425.524,1068.571,425.36,1076.01L425.36,1076.01z M409.365,1086.284v5.711
	c0,11.097,5.747,25.28,13.711,27.406c1.129-4.864,4.566-8.236,4.566-13.694c0-5.711-6.849-10.605-6.849-20.561v-2.286
	c0-20.416,10.863-25.494,18.264-36.528C424.98,1049.612,409.365,1068.689,409.365,1086.284L409.365,1086.284z M258.661,1337.468
	l-2.283-2.282l-6.639-5.931c-1.653,6.442-3.635,8.541-3.635,17.346v4.565c0,3.432,2.48,7.368,3.425,11.409
	c2.742,1.837,4.802,6.534,7.659,5.262c3.546-1.588-0.81-3.779-0.81-8.687v-1.142c0-3.464,1.981-3.87,4.566-4.566v-6.849l4.396,3.621
	c1.667-3.201,1.312,0.748,1.312-3.621v-11.415c0-6.285-8.712-18.08-13.698-19.399l11.979,25.986l-1.05,0.84L258.661,1337.468z
	 M220.992,1170.786c0-12.416,16.463-28.551,26.254-30.838c-3.464,5.17-12.557,12.269-12.557,20.548v4.579
	c0,5.183,2.44,5.943,4.566,9.132l-7.729,8.253C226.503,1179.901,220.992,1177.776,220.992,1170.786L220.992,1170.786z
	 M267.794,1102.279c0,4.172,6.849,6.639,6.849,9.132c0,19.444-59.372,23.735-59.372,60.513c0,11.943,12.281,9.553,14.639,20.357
	l17.795-17.478l-8.45-10.877c6.271-26.897,44.528-38.447,44.528-49.088c0-6.141-11.425-6.876-11.425-12.557v-1.142
	c0-11.494,12.78-8.224,14.853-15.991C281.846,1086.573,267.794,1094.802,267.794,1102.279L267.794,1102.279z M305.468,1081.718
	v1.142c0,4.959,8.89,5.786,9.887,17.477l6.095-12.911c-0.446,20.104-32.889,41.947-34.24,58.23l1.719-0.485l11.686-13.462
	l1.391,1.142l-23.94,28.787c18.409-0.407,37.764-16.073,50.234-19.406v-2.283c-4.559-1.063-11.408-7.111-11.408-11.418v-4.566
	c0-3.083,0.551-3.151,1.726-5.835l1.699,4.693c2.834-12.162,18.264-23.774,18.264-35.399v-2.28c0-4.828-1.574-0.604-3.431-5.71
	l-3.247,0.068l-1.313,2.218c2.165-25.967,42.203-32.133,54.799-55.947c-5.012,1.348-13.724,10.654-18.927,14.181
	c-7.865,5.313-14.15,7.757-23.467,10.798C331.769,1054.427,305.468,1070.736,305.468,1081.718L305.468,1081.718z M357.997,1339.751
	h-5.707c2.769-10.378,35.387-16.926,35.387-23.972v-2.282c0-2.179-2.191-4.737-3.451-4.776l-11.389,1.352
	c6.134-4.277,15.562-4.724,24.162-11.219c9.375-7.085,9.959-10.444,16.933-18.474
	C413.387,1304.497,382.055,1339.751,357.997,1339.751L357.997,1339.751z M427.643,1238.144
	c3.365-12.675,13.698-31.909,13.698-49.098h2.276c0.708,8.528,10.28,24.155,10.28,29.679
	C453.898,1226.69,435.423,1236.321,427.643,1238.144L427.643,1238.144z M363.698,1244.994v5.707c0,8.45,11.277,17.123,19.412,17.123
	c14.131,0,16.126-4.75,25.106-6.85c-2.683,11.573-8.075,12.57-19.688,14.552c-9.585,1.64-20.501,2.781-29.391,4.86
	c-2.361-1.58-2.972-3.431-5.707-3.431c-8.641,0-15.995,10.483-15.995,19.405v2.283c0,8.752,10.393,12.57,19.413,12.57
	c-4.212,2.926-12.163,4.29-18.067,8.188c-3.97,2.624-11.842,10.365-15.607,11.297l-2.867-24.051
	c-1.811-12.438,15.358-38.824,25.12-38.824c2.185,0,0.78,2.283,4.56,2.283h1.161c3.215,0,4.401-2.625,5.701-4.56
	c-1.424-2.985-3.418-11.409-3.418-15.988v-4.565c0-49.82,62.776-39.651,62.776-57.089c0-3.478-1.969-3.884-4.56-4.566
	c4.645-6.337,16.414-5.077,20.6-22.581l5.668-1.403c-2.421,10.365-7.171,17.24-9.257,30.716c-1.98,12.845-2.689,21.492-13.58,26.386
	C400.601,1222.983,363.698,1224.112,363.698,1244.994L363.698,1244.994z M445.907,1147.939c0-16.638-4.967-8.122-4.56-26.255
	c7.63,0.63,17.457,10.155,20.54,15.981L445.907,1147.939z M363.698,1178.776l2.225-1.315c-0.46-6.102-15.706-9.867-21.637-11.244
	l9.329-23.525l-1.325-0.456c3.949-2.65,7.99-10.474,7.99-17.126v-1.142c0-6.229-2.289-6.324-2.289-12.557v-7.991
	c0-4.92,1.331-6.192,2.289-10.286c3.575,2.641,1.738,4.579,5.708,4.579c2.978,0,18.396-14,28.53-14.853
	c-12.09,10.526-21.308,11.799-27.579,30.649c-1.923,5.8-3.72,18.055-4.356,25.337c-0.971,11.271-6.875,15.758-6.875,21.649v1.142
	c0,2.637,0.787,3.438,3.431,3.438h2.283c5.97,0,12.019-15.247,12.557-21.702c2.559,0.604,2.617,1.142,5.701,1.142h7.997
	c3.083,0,3.148-0.538,5.701-1.142v3.425c0,4.422-12.551,9.395-12.551,19.419v7.99c0,4.996,2.736,9.172,6.85,10.273l-1.352,3.346
	l10.51-5.589l11.369,1.325l-17.589,7.78l0.492,1.132h-7.99l1.384-7.965c-2.571,3.622-1.213,6.334-7.092,6.82
	C376.892,1186.658,367.655,1179.822,363.698,1178.776L363.698,1178.776z M363.698,1178.776l-2.808,1.637l5.098,6.351h-2.29
	l-0.164,6.744l5.878-6.744v2.29l2.454,0.505l-2.9,0.787l2.48,6.403l-3.176,3.716c6.62-1.548,11.77-1.403,20.98-4.136
	c6.816-2.021,14.826-6.049,20.107-7.282c-9.847,13.462-61.647,4.973-61.647,58.23v1.141c0,6.534,1.823,8.161,2.276,13.698
	c-7.801-3.608-20.718,9.814-24.792,15.155c-5.484,7.15-10.589,20.757-10.589,32.802c0,12.937,4.455,20.547,6.843,30.82h2.29
	c1.403-5.255,17.909-16.952,23.578-19.799c8.147-4.094,24.752-7.361,35.8-7.597c-5.544,7.557-29.686,10.942-44.539,33.104
	c35.27,0,54.885-13.423,68.76-35.138c7.735-12.124,9.874-23.263,14.741-37.788c2.329-6.954,4.133-12.229,8.05-18.212
	c3.201-4.894,10.654-9.171,12.36-13.901c-31.949,7.446-27.79,63.938-82.202,63.938h-2.29c-7.669,0-15.994-1.259-15.994-9.145
	c0-4.711,2.834-8.345,5.878-10.195l-2.446,6.777c9.19-6.154,10.903-7.63,25.001-9.237c8.136-0.932,23.906-4.461,30.939-4.461
	c7.17-4.796,15.147-23.788,23.677-32.265c4.198-4.172,12.188-7.754,18.225-10.325c10.063-4.278,8.384-8.791,15.188-13.357
	c-1.582,5.957-13.987,20.127-18.055,25.336c-8.338,10.681-12.222,10.143-16.185,27.187c16.427-1.364,36.528-25.546,36.528-43.377
	v-8.004c0-13.045-13.698-28.092-13.698-47.943c0-8.397,2.979-14.866,4.56-21.702c-21.473,14.394-11.546,107.328-67.355,107.328
	c-7.171,0-15.988-6.679-15.988-13.698c0-27.33,56.413-18.277,61.229-38.09c5.59-22.935,10.831-61.927,32.389-66.955
	c-3.503,5.235-4.828,3.162-8.004,10.261c-0.505,1.142-4.65,14.104-4.966,14.905l2.689,21.649
	c7.171-1.916,12.583-15.272,15.988-21.688c-2.9-0.683-5.708-0.958-5.708-4.58v-2.282c0-10.077,4.56-13.357,4.56-25.113
	c0-7.938-6.442-11.39-11.638-14.617c-2.618-1.627-15.824-10.208-16.276-10.365l-4.042,19.274c3.045,4.566,6.85,7.096,6.85,14.84
	v1.142c0,3.739-4.297,7.99-9.132,7.99h-3.432c-2.25,9.684-10.759,22.844-21.702,22.844h-5.707c-5.576,0-8.01-1.207-10.438-4.632
	l1.313-2.214l-2.283-2.286l-1.142,10.276c-1.811-2.093-3.432-4.067-3.432-7.99v-1.146c0-16.125,30.506-24.194,40.872-34.494
	c8.686-8.62,4.179-16.926,9.695-27.974c4.822-9.631,14-10.143,19.085-19.747c-30.677,8.204-21.512,40.386-49.099,46.815
	c-0.472,5.682-3.07,10.106-7.99,11.415c6.312-9.431,5.707-3.057,5.707-19.406c-5.937,3.977-9.748,13.698-19.405,13.698h-1.142
	c-4.461,0-8.424-3.699-11.323-5.678l-6.947,18.234c0.348-4.212,1.784-6.993,2.781-12.058c0.997-5.078,0.132-9.04,0.873-13.961
	c1.214-8.171,4.133-15.302,8.581-21.111c4.546-5.931,9.014-10.68,15.181-14.495c8.962-5.553,14.544-3.112,14.826-16.011
	c-25.828,6.022-21.098,4.501-39.952,17.126c2.984-11.14,27.697-15.115,30.827-28.541c-5.807,3.884-5.013,5.813-13.698,7.991
	c-4.967,1.26-11.323,3.936-15.069,6.639c-9.585,6.918-16.894,11.205-16.894,27.619v1.142c0,6.521,3.418,11.101,3.418,19.405
	c0,4.436-7.025,12.846-9.139,15.981c0,15.482-9.132,20.521-9.132,26.269C337.437,1169.798,361.009,1178.143,363.698,1178.776
	L363.698,1178.776z" />
	<path fill="#3A3A3A" d="M187.875,1276.956c0,4.907,1.338,6.2,2.28,10.28h9.135c0.131,5.511,0.233,5.156,5.009,6.416
	c7.324,1.922,3.44,2.46,8.033,3.326l6.56-8.207l1.247,0.709l-1.434-7.952c6.433-3.397,15.984-8.777,15.984-18.271v-1.142
	c0-2.197-2.034-4.56-3.424-4.56c-1.587,0-15.824,10.031-19.025,11.809C204.906,1273.453,187.875,1272.717,187.875,1276.956
	L187.875,1276.956z M211.843,1233.579c7.771,0,8.781-10.077,10.015-16.267c1.863-9.382,4.356-14.459,5.983-21.413
	C201.56,1193.705,198.726,1233.579,211.843,1233.579L211.843,1233.579z M299.768,1384.284l2.282-5.707
	c-3.122-4.921,11.612-35.138,14.84-39.96c-0.518-6.285-3.732-16.873-5.241-24.443c-2.46-12.531-6.718-12.557-8.457-20.089
	l4.514,1.286l1.023-0.801l-15.402-22.462l15.416,11.9l-9.421-14.722l9.236,4.789c-0.485-10.483-10.498-14.473-14.493-19.943
	c8.091,0.669,17.216,11.979,21.69,17.122l1.05-0.748l-7.735-10.798c3.425,0.971,6.535,3.556,8.969,3.556
	c1.594,0,2.276-1.562,2.276-3.425c0-8.069-8.902-12.818-12.557-18.271l4.533-2.342l24.857,9.919l0.84-1.188l-5.223-6.311
	l5.761,3.411l-2.041-6.974l3.241,0.065v-4.566c0-3.575,2.04-3.24,4.56-4.579l-0.676-8.043c2.979-3.884,5.53-7.744,10.353-10.824
	c2.197-1.404,12.117-7.292,13.173-7.387v-3.425l-5.445,2.047l-6.672,7.544l-4.835-4.08l-10.496-0.394l-7.545,3.674l-1.043-1.431
	l4.572-4.566c-0.682-1.154,0.42-1.649-2.794-1.649h-7.991c-9.86,0-13.173,3.985-20.547,5.704
	c2.539-9.552,19.839-13.633,21.688-20.544l-5.655,1.375c3.95-5.694,12.853-3.359,13.646-12.793l-12.32,6.104l-0.242-2.68
	l-22.883,3.136l10.155-10.222l-0.971-0.905h-7.99c-3.843,0-9.026,2.969-11.414,4.566l3.49-5.669l-19.432,8.054l13.685-12.622
	l-0.748-1.349l-26.858,14.708l3.792-4.097c-16.506,3.621-37.867,26.672-37.867,47.776v6.849l12.921-3.358l-0.364-1.207
	c11.179,5.366,15.692-16.689,17.123-22.827l-9.922,10.585c1.919-10.034,9.105-15.036,16.548-19.957
	c7.426-4.9,13.187-13.717,20.771-15.744l-10.077,10.483l1.299,1.64l21.19-10.168l-22.007,17.988l3.139,4.92l5.156-2.335
	l-6.141,7.777l0.761,1.079l21.544-6.223c-10.247,8.847-52.103,16.477-55.963,33.062l14.551-6.351
	c-4.13,6.665-15.833,6.836-16.831,18.907c10.759-7.204,22.489-23.589,39.949-23.981c-4.563,6.242-23.745,13.426-33.1,27.412
	c12.858-3.438,21.439-12.557,37.669-12.557c4.931,0,6.417,2.388,10.287,3.425l-3.175,2.677l4.405,0.092l4.003,9.539l-5.407-2.939
	l-4.156,2.44l2.201,2.887l-5.865-1.037l-2.45,3.32l5.734,2.729l0.144,1.981h-5.721l3.622,4.396
	c-8.174,4.002-21.256,1.378-28.734,11.586c24.208,0,20.376,3.267,34.255,12.557l-2.45-6.771c6.744,4.33,16.15,31.516,16.15,43.312
	v13.698c0,3.937-0.847,4.422-1.135,7.99l-1.811-3.595c-0.577,4.474-8.307,36.108-10.751,28.728l-11.281,8.182
	c-4.75-0.197-7.715,1.417-10.421,0.944l-18.353-2.926l-1.286,5.144l4.474,5.261l9.893,6.345l5.878,3.955l1.059-4.198l0.62,4.69
	h3.424v-3.431l11.441,0.348l-1.299-4.868l5.603,2.749l4.865-11.9L299.768,1384.284z M203.121,1314.035
	c1.729,7.439,8.345,17.647,15.259,21.348l0.315-9.473l9.146,0.145v-3.425c4.733,1.004,4.421,1.601,4.566-4.566l-3.713-3.188
	l-6.469,1.463l-0.616,2.992l-3.477-4.12l-0.564,3.995l-8.135-5.511l-0.485,2.257l-0.525-5.878L203.121,1314.035z" />
	<path fill="#050605" d="M240.394,1359.158c3.585,2.4,14.433,11.113,15.315,15.285l4.724,3.188l-1.037,1.378l-3.018-2.716v2.283
	C247.509,1377.829,243.52,1366.138,240.394,1359.158L240.394,1359.158z M264.566,1355.221l25.192,15.627l-7.991,7.99l-1.299,0.42
	L264.566,1355.221z M238.561,1320.503l2.978-0.157v-2.283c1.65,1.103,6.846,7.046,6.846,9.132c0,1.319-2.752,7.414-3.421,10.28
	l-2.506,0.053L238.561,1320.503z M263.228,1310.073c0-2.913,4.369-4.487,7.99-4.566v3.432c0,8.567,0.591,17.109,4.71,21.662
	l-2.427-17.103v-3.425c0-8.24,4.382-15.811,12.57-15.994v8.003c0,6.744,3.424,11.245,3.424,20.548v5.707
	c0,7.571-4.33,16.677-10.287,18.265v-6.85h-2.286v3.425c0,5.393-2.844,8.719-7.987,9.139
	C273.948,1341.865,263.228,1322.629,263.228,1310.073L263.228,1310.073z M258.661,1337.468l5.222,5.144l1.05-0.839l-11.979-25.993
	c4.985,1.325,13.698,13.121,13.698,19.406v11.415c0,4.369,0.354,0.42-1.312,3.621l-4.396-3.621v6.849
	c-2.585,0.695-4.566,1.103-4.566,4.566v1.142c0,4.907,4.356,7.092,0.81,8.686c-2.857,1.273-4.917-3.431-7.659-5.262
	c-0.945-4.041-3.425-7.977-3.425-11.415v-4.565c0-8.805,1.981-10.903,3.635-17.346l6.639,5.931
	c-1.299-4.849-17.123-22.411-17.123-27.39c0-1.902,6.754-5.156,9.129-5.708C248.385,1314.993,259.961,1335.245,258.661,1337.468
	L258.661,1337.468z M397.977,1282.833l-18.802,14.434c-1.234-3.458-1.771-3.53-1.771-6.613c0-2.414,0.406-1.489,1.121-4.671
	L397.977,1282.833z M187.875,1276.956c0-4.238,17.031-3.503,24.366-7.597c3.201-1.771,17.438-11.809,19.025-11.809
	c1.391,0,3.424,2.361,3.424,4.565v1.142c0,9.486-9.552,14.866-15.984,18.265l1.434,7.958l-1.247-0.716l-6.56,8.214
	c-4.593-0.866-0.709-1.404-8.033-3.333c-4.776-1.259-4.878-0.905-5.009-6.416h-9.135
	C189.213,1283.149,187.875,1281.863,187.875,1276.956L187.875,1276.956z M398.993,1228.5c-4.796,7.82-6.75,11.166-6.75,23.342
	c-1.47,2.191-5.892,7.991-9.133,7.991c-0.157,0-2.257-1.129-2.283-1.142c1.575-2.349,3.425-2.966,3.425-5.708v-5.707l3.727-1.798
	l-2.624-14.374L398.993,1228.5z M426.679,1220.392c-3.313,12.91-19.413,36.948-35.578,38.3l11.062-13.042l-0.984-0.866l-5.313,4.985
	c0.013-9.513,2.814-16.178,7.15-20.573L426.679,1220.392z M251.813,1217.583c0.564-5.183,11.047-20.547,15.981-20.547h1.142
	c2.637,0,3.424,0.801,3.424,3.428C272.36,1207.192,258.737,1217.006,251.813,1217.583L251.813,1217.583z M211.843,1233.579
	c-13.117,0-10.283-39.874,15.998-37.68c-1.627,6.954-4.12,12.031-5.983,21.413C220.624,1223.501,219.614,1233.579,211.843,1233.579
	L211.843,1233.579z M302.05,1378.577c5.505-20.613,37.578-59.372,63.938-59.372c-6.312,4.389-14.335,5.563-20.128,12.989
	c-5.123,6.574-9.224,12.216-13.377,19.721c-6.231,11.284-12.878,38.077-28.144,38.077l-8.359-0.315l3.793-5.393l-3.374,0.014
	l-4.868,11.913l-5.603-2.749l1.299,4.868l-11.441-0.348v3.432h-3.424l-0.62-4.691l-1.059,4.199l-5.878-3.956l-9.893-6.344
	l-4.474-5.262l1.286-5.144l18.353,2.926c2.707,0.473,5.672-1.142,10.421-0.944l11.281-8.181c2.444,7.38,10.174-24.254,10.751-28.729
	l1.811,3.596c0.288-3.569,1.135-4.055,1.135-7.991v-13.698c0-11.795-9.402-38.975-16.15-43.312l2.45,6.771
	c-13.878-9.289-10.047-12.557-34.255-12.557c7.479-10.208,20.56-7.584,28.734-11.586l-3.622-4.396h5.721l-0.144-1.981l-5.734-2.729
	l2.454-3.319l5.862,1.036l-2.201-2.887l4.156-2.44l5.407,2.939l-4.003-9.539l-4.405-0.092l3.175-2.677
	c-3.871-1.036-5.356-3.425-10.287-3.425c-16.23,0-24.811,9.119-37.669,12.557c9.355-13.986,28.538-21.17,33.104-27.412
	c-17.463,0.394-29.194,16.784-39.953,23.981c0.997-12.071,12.701-12.242,16.831-18.907l-14.551,6.337
	c3.861-16.571,45.716-24.217,55.963-33.048l-21.544,6.223l-0.761-1.079l6.141-7.777l-5.156,2.336l-3.139-4.921l22.007-17.988
	l-21.19,10.169l-1.299-1.641l10.077-10.483c-7.584,2.023-13.344,10.841-20.771,15.745c-7.443,4.92-14.629,9.923-16.548,19.957
	l9.922-10.586c-1.43,6.138-5.944,28.193-17.123,22.827l0.367,1.207l-12.924,3.359v-6.85c0-21.102,21.361-44.154,37.867-47.776
	l-3.792,4.098l26.858-14.709l0.748,1.349l-13.685,12.622l19.432-8.053l-3.49,5.668c2.388-1.601,7.571-4.566,11.414-4.566h7.99
	l0.971,0.906l-10.155,10.221l22.883-3.136l0.242,2.68l12.32-6.104c-0.787,9.434-9.702,7.099-13.646,12.793l5.655-1.378
	c-1.85,6.918-19.149,10.995-21.688,20.548c7.374-1.72,10.687-5.705,20.547-5.705h7.991c3.214,0,2.112,0.496,2.794,1.65l-4.572,4.565
	l1.043,1.431l7.545-3.674l10.496,0.394l4.835,4.081l6.672-7.545l5.445-2.047v3.425c-1.056,0.095-10.976,5.982-13.173,7.387
	c-4.822,3.08-7.374,6.94-10.353,10.825l0.683,8.043c-2.52,1.338-4.566,1.003-4.566,4.579v4.565l-3.241-0.065l2.041,6.974
	l-5.761-3.411l5.229,6.312l-0.84,1.187l-24.864-9.919l-4.526,2.342c3.647,5.445,12.55,10.195,12.55,18.271
	c0,1.862-0.683,3.424-2.276,3.424c-2.434,0-5.544-2.585-8.969-3.556l7.735,10.799l-1.05,0.747
	c-4.475-5.143-13.593-16.453-21.69-17.122c3.999,5.472,14.015,9.46,14.493,19.943l-9.236-4.789l9.421,14.722l-15.416-11.9
	l15.402,22.463l-1.023,0.8l-4.514-1.285c1.739,7.531,5.997,7.558,8.457,20.088c1.502,7.57,4.717,18.159,5.241,24.444
	C313.662,1343.439,298.928,1373.656,302.05,1378.577L302.05,1378.577z M383.117,1136.524c-23.834,0-0.991-47.117,22.83-49.099v5.708
	c0,17.962,5.989,19.891,12.55,29.692l-10.628,8.086l-1.606-1.525l3.68-10.195c-11.061,1.181-14.275,17.333-25.684,17.333H383.117z
	 M267.794,1102.279c0-7.479,14.052-15.706,19.419-17.133c-2.073,7.764-14.853,4.497-14.853,15.991v1.142
	c0,5.678,11.425,6.416,11.425,12.557c0,10.641-38.257,22.187-44.528,49.084l8.45,10.878l-17.792,17.477
	c-2.362-10.798-14.643-8.41-14.643-20.354c0-36.777,59.372-41.065,59.372-60.51C274.643,1108.917,267.794,1106.451,267.794,1102.279
	L267.794,1102.279z M389.96,1168.5c2.375-10.222,10.863-14.813,19.779-19.052c15.115-7.177,12.117-8.279,22.47-15.207
	c2.434,1.784,5.707,6.022,5.707,10.273v3.425c0,2.663-3.044,5.707-5.707,5.707c-2.401,0-3.202-3.018-3.432-5.707
	c-4.152,3.044-3.444,27.409-23.979,27.409h-1.142c-5.287,0-9.164-1.496-11.414-4.566l-1.313,2.218
	c2.428,3.425,4.867,4.632,10.438,4.632h5.707c10.943,0,19.452-13.16,21.702-22.844h3.432c4.835,0,9.132-4.251,9.132-7.99v-1.142
	c0-7.744-3.805-10.273-6.85-14.84l4.042-19.274c0.452,0.157,13.651,8.738,16.276,10.365c5.195,3.228,11.638,6.679,11.638,14.617
	c0,11.756-4.56,15.036-4.56,25.113v2.282c0,3.622,2.808,3.897,5.708,4.58c-3.405,6.416-8.817,19.772-15.988,21.688l-2.689-21.649
	c0.315-0.801,4.454-13.764,4.966-14.905c3.169-7.099,4.501-5.025,8.004-10.261c-21.558,5.028-26.799,44.021-32.389,66.955
	c-4.822,19.813-61.229,10.76-61.229,38.09c0,7.02,8.817,13.698,15.988,13.698c55.81,0,45.883-92.935,67.355-107.328
	c-1.581,6.833-4.56,13.305-4.56,21.702c0,19.852,13.698,34.898,13.698,47.943v8.004c0,17.831-20.102,42.013-36.528,43.377
	c3.963-17.044,7.847-16.506,16.185-27.187c4.067-5.209,16.473-19.386,18.055-25.336c-6.804,4.566-5.124,9.079-15.188,13.357
	c-6.036,2.571-14.026,6.153-18.225,10.325c-8.529,8.477-16.507,27.476-23.677,32.265c-7.033,0-22.804,3.529-30.939,4.454
	c-14.098,1.614-15.811,3.09-25.001,9.237l2.446-6.771c-3.044,1.851-5.878,5.484-5.878,10.195c0,7.886,8.325,9.145,15.994,9.145h2.29
	c54.412,0,50.253-56.491,82.202-63.938c-1.706,4.724-9.159,9.008-12.36,13.901c-3.91,5.977-5.721,11.258-8.05,18.212
	c-4.861,14.525-7.006,25.664-14.741,37.788c-13.875,21.715-33.49,35.138-68.76,35.138c14.854-22.161,38.989-25.547,44.539-33.104
	c-11.048,0.235-27.652,3.503-35.8,7.597c-5.669,2.847-22.175,14.538-23.578,19.799h-2.29c-2.388-10.273-6.843-17.884-6.843-30.82
	c0-12.045,5.111-25.651,10.589-32.802c4.074-5.341,16.991-18.764,24.792-15.155c-0.453-5.537-2.276-7.164-2.276-13.698v-1.141
	c0-53.258,51.801-44.769,61.647-58.23c-5.281,1.233-13.284,5.262-20.107,7.282c-9.211,2.732-14.36,2.585-20.98,4.136l3.176-3.716
	l-2.48-6.403l2.9-0.787l-2.454-0.509v-2.286l-5.878,6.744l0.164-6.744h2.29l-5.098-6.351l2.808-1.637
	c-2.696-0.633-26.262-8.978-26.262-10.276c0-5.747,9.133-10.786,9.133-26.269c2.119-3.136,9.145-11.546,9.145-15.981
	c0-8.305-3.424-12.884-3.424-19.405v-1.138c0-16.418,7.314-20.705,16.899-27.623c3.739-2.703,10.103-5.379,15.063-6.639
	c8.687-2.179,7.898-4.107,13.698-7.991c-3.123,13.426-27.843,17.398-30.82,28.541c18.848-12.625,14.117-11.104,39.945-17.126
	c-0.281,12.898-5.864,10.458-14.826,16.011c-6.167,3.815-10.628,8.564-15.174,14.495c-4.448,5.81-7.367,12.94-8.588,21.111
	c-0.734,4.921,0.131,8.887-0.866,13.961c-0.997,5.064-2.44,7.846-2.781,12.058l6.947-18.234c2.894,1.979,6.862,5.678,11.323,5.678
	h1.142c9.657,0,13.469-9.722,19.399-13.698c0,16.35,0.61,9.976-5.701,19.406c4.92-1.309,7.512-5.733,7.99-11.415
	c27.587-6.426,18.415-38.611,49.092-46.815c-5.078,9.608-14.256,10.116-19.078,19.747c-5.523,11.048-1.017,19.354-9.702,27.974
	c-10.365,10.303-40.871,18.369-40.871,34.494v1.146c0,3.923,1.62,5.9,3.431,7.99L389.96,1168.5z M409.365,1086.284
	c0-17.595,15.614-36.672,29.692-39.952c-7.4,11.034-18.264,16.112-18.264,36.528v2.286c0,9.955,6.849,14.85,6.849,20.557
	c0,5.459-3.438,8.834-4.566,13.698c-7.964-2.126-13.711-16.31-13.711-27.406V1086.284z M425.36,1076.01
	c0.164-7.439,6.771-7.518,12.557-11.415c5.59-3.752,7.886-5.062,12.839-9.984c7.905-7.847,12.334-23.565,17.982-27.695
	C464.152,1046.633,447.337,1074.187,425.36,1076.01L425.36,1076.01z M305.468,1081.718c0-10.982,26.301-27.291,37.525-30.965
	c9.323-3.045,15.607-5.485,23.467-10.799c5.203-3.526,13.915-12.832,18.927-14.184c-12.596,23.817-52.634,29.984-54.799,55.947
	l1.318-2.218l3.248-0.065c1.85,5.104,3.431,0.879,3.431,5.711v2.279c0,11.625-15.437,23.237-18.271,35.4l-1.699-4.697
	c-1.168,2.693-1.719,2.755-1.719,5.839v4.565c0,4.304,6.849,10.355,11.408,11.415v2.287c-12.471,3.329-31.829,18.995-50.238,19.402
	l23.944-28.787l-1.391-1.142l-11.689,13.465l-1.719,0.485c1.351-16.286,33.797-38.129,34.237-58.229l-6.095,12.914
	c-0.997-11.694-9.88-12.521-9.88-17.478v-1.147H305.468z M201.573,1313.498l6.849-3.425l0.525,5.878l0.485-2.257l8.135,5.511
	l0.564-3.995l3.477,4.12l0.616-2.992l6.469-1.463l3.713,3.188c7.216,0.604,3.647,2.611,4.973,9.854
	c1.037,5.577,2.45,7.748,4.212,11.789c2.965,6.889,0.59,17.503,7.938,22.883c-3.7,2.165-8.371-8.345-12.557-11.415
	c0,12.872,8.489,20.771,13.2,28.446l-1.381,11.953l2.772-2.677l1.797,7.256l3.018-2.729c1.575,4.356,6.849,4.724,6.849,9.132
	c0,4.907-1.325,6.193-1.338,10.615l3.766-12.059l5.13,2.65l2.716,11.35v-10.273l5.55,0.026l1.299,3.398v-5.708h5.721v-2.283
	l3.529-0.025l2.178,11.441h1.142c0-12.793-3.346-8.766,2.283-19.406c23.157,0,25.827-9.46,33.863-25.507
	c13.567-27.134,11.37-12.386,39.645-20.875c14.164-4.251,27.758-13.232,35.644-23.729c11.073-14.721,12.13-31.962,18.723-41.783
	c21.296,0,41.095-30.689,41.095-53.67v-2.283c0-12.32-9.132-24.664-9.132-28.538c0-6.587,22.83-19.878,22.83-44.532
	c-5.629,4.134,0.157,11.17-11.422,11.416v-3.425c0-7.768,4.572-11.625,4.572-19.406v-1.142c0-20.311-29.679-22.095-29.679-31.962
	c0-6.822,24.496-15.413,26.255-36.538c-8.575,6.281-3.884,8.158-18.96,14.154c-8.844,3.517-16.984,13.619-19.858,14.396
	c-1.135-4.277-4.56-7.456-4.56-12.573v-3.424c0-3.333,14.531-8.699,17.877-10.642c6.633-3.844,11.481-7.715,15.713-13.986
	c4.526-6.731,6.298-12.216,9.06-20.613c2.723-8.213,6.875-12.53,11.002-18.697c-20.606,5.512-23.126,40.767-49.092,46.818
	c10.608-20.062,24.963-20.498,30.821-45.67c-5.57,2.945-7.394,8.552-11.671,13.445c-5.701,6.512-7.774,7.102-14.598,11.682
	c-16.4,10.991-14.649,11.782-25.133,27.104l-13.259,1.653l6.43-15.06c-6.619,4.432-7.4,5.839-15.955,9.158
	c-6.875,2.664-11.802,2.559-18.703,6.416c-6.705,3.74-20.141,20.601-20.141,30.1c0,5.865,4.572,11.048,4.572,15.984v2.279
	c0,7.335-3.24,9.094-4.572,14.407l-11.422,0.433h-1.135c-3.924,0-12.563-3.976-12.563-7.99v-2.283
	c0-14.17,22.837-29.719,22.837-38.824c0-7.256-9.139-9.197-9.139-12.557c0-11.009,23.689-22.634,31.956-27.423
	c12.543-7.242,23.512-28.327,31.988-28.521v-2.287c-12.819,0.289-35.092,22.607-52.654,28.407
	c-15.62,5.156-44.388,19.356-44.388,37.813c0,7.388,9.133,9.237,9.133,17.136c0,13.399-30.836,33.974-30.836,50.227
	c4.802,1.588-11.179,13.449-15.351,15.482c-6.101,2.969-22.319,8.923-22.319-2.926v-3.425c0-16.243,44.532-34.507,44.532-44.519
	v-1.142c0-5.48-12.57-8.709-12.57-13.698c0-5.891,8.529-8.292,12.32-11.661c0.079-0.078,8.463-13.238,9.381-14.606
	c-4.894,1.142-9.883,7.06-16.768,10.641c-4.212,2.191-14.066,8.165-14.066,13.348v3.428c0,6.915,5.708,8.066,5.708,10.273
	c0,9.68-59.375,23.116-59.375,60.51v2.286c0,10.077,8.991,7.253,13.711,13.695c-1.899,1.906-3.802,3.809-5.704,5.707
	c-7.43,0.171-7.794,3.402-12.757,4.386c-5.603,1.115-13.511-2.335-13.511,3.605v1.145c0,9.037,5.94,8.197,9.132,12.554l-1.142,2.286
	v6.849c0,4.724,2.834,8.358,5.301,10.09l-4.159,11.612c-11.625,6.153-4.858,6.875-9.08,14.892
	c-2.208,4.186-7.899,10.195-7.505,15.942l-0.538,9.119c-0.079,3.018,1.758,4.493,3.424,5.707c-1.381,2.061-2.283,2.008-2.283,4.566
	v1.142C186.734,1301.767,199.014,1311.267,201.573,1313.498L201.573,1313.498z" />
	<path fill="#E21F26" d="M263.228,1310.073c0,12.557,10.72,31.792,5.708,42.235c5.143-0.42,7.987-3.739,7.987-9.132v-3.425h2.286
	v6.85c5.957-1.588,10.287-10.693,10.287-18.271v-5.701c0-9.31-3.424-13.804-3.424-20.548v-8.003
	c-8.188,0.184-12.57,7.754-12.57,15.994v3.425l2.427,17.096c-4.12-4.553-4.71-13.095-4.71-21.662v-3.425
	C267.597,1305.585,263.228,1307.16,263.228,1310.073L263.228,1310.073z" />
	<path fill="#D6D6D6" d="M220.493,1339.621l0.774-0.617c-1.867-4.066-5.668-12.333-9.027-19.615
	c-1.995-4.33-3.438-7.374-3.438-10.326c-1.797,0.42-6.892,2.874-6.892,4.304C201.911,1322.905,214.13,1333.625,220.493,1339.621
	L220.493,1339.621z M263.884,1342.612l1.05-0.839c-2.493-5.38-7.531-16.343-11.979-25.986c-2.651-5.747-4.569-9.788-4.569-13.698
	c-2.372,0.552-9.129,3.806-9.129,5.708C239.256,1320.438,255.447,1334.648,263.884,1342.612L263.884,1342.612z M264.566,1355.221
	l15.903,24.037l1.299-0.42l7.991-7.99L264.566,1355.221z M240.394,1359.158c3.126,6.98,7.115,18.671,15.984,19.419v-2.283
	l3.018,2.716l1.037-1.378l-4.724-3.188C254.83,1370.271,243.979,1361.558,240.394,1359.158L240.394,1359.158z" />
</svg>
