<?xml version="1.0" encoding="utf-8"?>
<!-- Generator: Adobe Illustrator 16.0.0, SVG Export Plug-In . SVG Version: 6.00 Build 0)  -->
<!DOCTYPE svg PUBLIC "-//W3C//DTD SVG 1.1//EN" "http://www.w3.org/Graphics/SVG/1.1/DTD/svg11.dtd">
<svg version="1.1" id="Layer_1" xmlns="http://www.w3.org/2000/svg" xmlns:xlink="http://www.w3.org/1999/xlink" x="0px" y="0px"
	 width="595.28px" height="841.89px" viewBox="0 0 595.28 841.89" enable-background="new 0 0 595.28 841.89" xml:space="preserve">
<g>
	<path d="M456.285,481.175c0.229-0.362,0.492-0.78,0.797-1.262c1.311-2.065,2.297-3.931,3.014-5.7l3.24-7.983l-7.416-4.385
		c-3.217-1.903-6.365-3.397-9.391-4.454c-3.881-1.328-7.732-2-11.447-2c-4.188,0-7.979,0.854-11.334,2.551
		c-0.627-0.951-1.334-1.857-2.105-2.725c2.369-2.051,4.227-4.867,5.381-8.328l0.174-0.523l2.34-10.92
		c0.172-0.666,0.338-1.117,0.461-1.402l6.789-2.93l-1.9-8.145c-0.23-0.987-0.559-2.009-0.996-3.106
		c-0.23-0.584-0.512-1.258-0.846-2.018l-2.016-4.585l-8.441-1.957l-3.072,1.378c-1.922,0.862-3.674,1.99-5.24,3.371l-8.336-0.07
		c-0.498,0-0.984,0.035-1.467,0.105l-7.41-0.039l-5.973,0.078l-0.07,0.079c-0.908-0.164-1.838-0.246-2.789-0.246
		c-0.654,0-1.297,0.036-1.928,0.106l-0.936-2.88l-3.096-0.436c-0.611-0.086-1.238-0.145-1.859-0.173
		c-0.469-0.021-0.93-0.033-1.385-0.033c-0.18,0-0.623,0.011-1.326,0.04l-2.906-4.324l-2.332,1.433l-9.59-2.208l-3.9,5.23
		c-0.096,0.129-0.191,0.259-0.285,0.39c-0.602-0.089-1.189-0.132-1.779-0.132c-0.43,0-0.832,0.024-1.199,0.064l-0.219,0.023
		c-2.189-1.014-4.242-1.256-5.701-1.256c-1.545,0-4.102,0.25-6.736,1.588c-2.598-1.138-5.723-1.696-9.449-1.696
		c-1.822,0-3.551,0.113-5.139,0.337l-9.951,1.404l1.453,9.944c0.24,1.643,0.402,3.377,0.48,5.152
		c0.088,1.973,0.133,4.165,0.133,6.518v6.596c-0.143,1.145-0.281,2.288-0.42,3.432c-2.404,0.426-4.074,1.021-5.572,1.973
		l-2.732,1.736c-4.4-3.461-9.031-4.14-11.982-4.14c-5.42,0-18.492,2.015-22.783,20.653c-0.184,0.782-0.39,1.829-0.61,3.475
		c-1.236-1.332-2.591-2.593-4.061-3.781c-7.872-6.373-17.691-9.604-29.184-9.604h-17.547c-2.612,0-5.461,0.043-8.47,0.129
		c-1.878,0.054-3.577,0.119-5.077,0.193c-2.02-2.402-4.564-4.476-7.599-6.187c-5.769-3.237-12.657-4.879-20.474-4.879
		c-2.278,0-4.806,0.081-7.515,0.243c-3.145,0.188-5.769,0.541-8.028,1.549c-4.223-1.393-9.325-2.073-15.503-2.073
		c-3.97,0-7.694,0.241-11.069,0.716L132,446.484l1.451,9.945c0.698,4.783,1.168,9.801,1.396,14.913
		c0.236,5.309,0.356,11.213,0.356,17.55v18.043c-0.708,5.626-1.397,11.25-2.067,16.876l-0.399,3.347l14.03,7.719l2.614-2.129
		c1.574-1.283,3.149-2.545,4.828-3.873c2.055-1.669,3.863-3.281,5.374-4.791l2.932-2.93v-9.951l8.027,2.533
		c1.373,0.432,2.804,0.723,4.249,0.864c1.083,0.106,2.236,0.161,3.427,0.161l10.918-0.364l0.251-0.252
		c1.671,4.966,2.937,8.454,3.855,10.64l1.735,4.117l26.961,9.285l2.814-14.033h3.747c2.377,0,4.822-0.04,7.27-0.117
		c2.287-0.074,3.749-0.189,4.934-0.395l1.609,0.005c0.147,0.001,1.073,0.021,6.825,0.22c1.208,0.041,2.742,0.062,4.559,0.062
		c5.409,0,10.209-0.735,14.359-2.195l1.287,1.769c0.872,1.2,1.744,2.42,2.717,3.796c1.399,1.912,2.632,3.42,3.77,4.608l7.18,7.507
		l7.227-7.459c3.216-3.318,5.771-7.287,7.589-11.78c1.058-2.59,1.952-5.617,2.67-9.027l1.373,1.373l16.914-0.264
		c-0.582,3.541-1.381,6.457-2.346,8.555l-1.74,3.777l14.828,10.47l2.977-2.905c2.002-1.953,3.867-3.592,5.594-4.91
		c1.863-1.459,3.76-2.7,5.639-3.689l5.34-2.813v-0.796c3.826,2.612,8.381,3.984,13.453,3.984c8.02,0,15.053-3.396,20.123-9.64
		c0.693,0.139,1.395,0.243,2.098,0.312c1.082,0.106,2.234,0.161,3.426,0.161l10.916-0.364l0.254-0.254
		c1.672,4.968,2.938,8.457,3.855,10.639l1.734,4.12l26.971,9.288l2.857-14.312c0.607,0.033,1.221,0.05,1.84,0.05
		c6.748,0,12.793-1.991,17.967-5.919c6.143-4.658,9.525-11.328,9.525-18.779C464.094,492.05,461.344,485.76,456.285,481.175z"/>
	<path fill="#6A211D" d="M450.48,482.977c-0.215-0.145-0.469-0.305-0.783-0.488l0.854-1.54c0.051-0.092,0.4-0.701,2.309-3.713
		c1.148-1.81,2-3.413,2.604-4.903l1.621-3.991l-3.709-2.192c-2.934-1.734-5.77-3.086-8.463-4.027c-3.359-1.148-6.668-1.73-9.83-1.73
		c-5.105,0-9.441,1.553-12.883,4.613c-0.145,0.129-0.287,0.26-0.428,0.393c-1.414-4.721-4.654-8.602-9.564-11.414
		c4.703-0.369,8.344-3.484,10.072-8.672l0.086-0.262l2.303-10.746c0.615-2.431,1.51-4.057,2.463-4.467l3.838-1.656l-0.951-4.072
		c-0.172-0.738-0.43-1.533-0.779-2.414c-0.209-0.531-0.465-1.144-0.77-1.836l-1.008-2.292l-4.363-1.011l-1.535,0.689
		c-2.621,1.176-4.826,3.004-6.576,5.447l-2.266-1.651l-6.781-0.057c-0.719,0-1.406,0.146-2.125,0.46l-0.277-0.36l-6.408-0.035
		l-3.803,0.05l-0.74,0.812c-1.324-0.625-2.787-0.949-4.355-0.949c-1.896,0-3.648,0.425-5.195,1.24l-1.459-4.498
		c-0.459-0.064-0.922-0.108-1.396-0.13c-0.389-0.018-0.773-0.027-1.152-0.027c-0.199,0-0.768,0.018-1.697,0.06
		c-0.721,0.032-1.293,0.049-1.719,0.049h-0.529l-1.76-2.621l-1.793,1.101l-1.152-1.79l-5.445-1.254l-1.951,2.615
		c-0.758,1.016-1.416,2.11-1.969,3.276c-0.1-0.041-0.201-0.082-0.303-0.124c-1.533-0.612-2.707-0.884-3.801-0.884
		c-0.236,0-0.459,0.013-0.664,0.035l-1.77,0.19c-1.84-1.194-3.67-1.394-4.686-1.394c-1.467,0-4.215,0.333-6.533,2.488
		c-2.193-1.747-5.355-2.596-9.652-2.596c-1.592,0-3.086,0.097-4.441,0.288l-4.975,0.702l0.727,4.972
		c0.264,1.812,0.441,3.715,0.529,5.653c0.09,2.048,0.137,4.315,0.137,6.739v6.908c-0.271,2.155-0.535,4.311-0.793,6.465l1.965,1.08
		c-1.877,0.046-3.424,0.156-4.688,0.334c-2.318,0.326-3.707,0.742-4.795,1.433l-1.615,1.026c0,0-1.42,5.068-1.867,6.677
		c-4.043-7.614-9.672-9.326-13.914-9.326c-5.247,0-14.551,2.186-17.917,16.8c-0.455,1.932-1.107,6.088-1.805,19.678
		c-1.56-6.878-5.201-12.656-10.879-17.244c-6.959-5.634-15.719-8.49-26.038-8.49h-2.212l-0.986,1.084l-1.085-1.084h-13.264
		c-2.574,0-5.375,0.043-8.327,0.127c-2.973,0.085-5.474,0.197-7.433,0.335l-0.19,0.013c-1.768-2.761-4.331-5.111-7.644-6.979
		c-5.012-2.813-11.078-4.239-18.027-4.239c-2.178,0-4.606,0.079-7.217,0.233c-3.575,0.215-5.526,0.627-6.959,1.469l-0.98,0.576
		c-3.995-1.717-9.249-2.56-15.89-2.56c-3.738,0-7.228,0.225-10.372,0.667l-4.976,0.701l0.726,4.973
		c0.722,4.945,1.208,10.131,1.443,15.414c0.239,5.377,0.361,11.357,0.361,17.771v18.356c-0.72,5.718-1.421,11.437-2.102,17.153
		l8.123,4.469c1.593-1.297,3.187-2.574,4.833-3.876c1.923-1.563,3.603-3.06,4.993-4.448l1.466-1.465v-8.82
		c0-2.443,0.046-4.797,0.137-6.995c0.056-1.374,0.138-2.688,0.245-3.925c2.62-2.126,5.24-4.265,7.859-6.416l0.121-0.104
		c1.764-1.545,3.325-3.049,4.696-4.525c-0.016,3.417-0.141,6.436-0.372,8.98c-0.273,3-0.819,4.14-0.979,4.418l-3.122,5.396
		l5.945,1.875c1.042,0.329,2.133,0.551,3.236,0.658c0.922,0.09,1.91,0.137,2.937,0.137l8.778-0.295l4.281-4.281l-1.114-3.006
		c-0.456-1.229-0.809-2.604-1.057-4.102c0.032,0.082,0.064,0.164,0.096,0.247c0.936,2.375,2.417,6.638,4.408,12.685
		c1.892,5.677,3.279,9.548,4.241,11.834l0.868,2.059l19.443,6.695l1.539-7.672l-2.028-4.832c0.012,0,0.023,0.001,0.036,0.002
		c1.198,0.038,2.729,0.059,4.55,0.059h6.243c2.324,0,4.715-0.039,7.108-0.115c2.238-0.072,3.617-0.18,4.628-0.397l2.098,0.006
		c0.278,0.001,1.713,0.04,6.974,0.222c1.147,0.039,2.624,0.06,4.389,0.06c8.205,0,14.697-1.839,19.297-5.469
		c2.104-1.661,3.797-3.671,5.077-6.02c-0.61,2.22-1.244,3.373-1.685,3.958c-0.4,0.344-0.801,0.691-1.195,1.041
		c-1.045,0.922-1.837,2.003-2.355,3.214l-1.119,2.612l1.672,2.298c0.885,1.218,1.771,2.455,2.707,3.782
		c1.269,1.734,2.363,3.076,3.348,4.105l3.59,3.752l3.613-3.729c2.766-2.854,4.972-6.287,6.551-10.191
		c1.221-2.989,2.212-6.691,2.943-11.003c0.315-1.848,0.768-5.257,1.386-10.422l0.035-0.296v-0.298c0-0.093,0.01-0.392,0.11-1.019
		c1.082-0.473,2.323-0.957,3.694-1.443c0.209-0.07,0.418-0.141,0.629-0.21c0.014,0.433,0.021,0.874,0.021,1.325
		c0,0.988-0.084,1.88-0.252,2.652c-0.137,0.63-0.373,1.232-0.721,1.842l-1.895,3.315l4.76,4.76l14.443-0.225l5.031-3.354
		l-1.141-3.587c-0.367-1.155-1.199-4.869-2.643-16.764c-0.59-4.865-1.23-9.02-1.932-12.512l1.121,0.936
		c1.555-0.743,3.277-2.266,5.768-5.098c0.039-0.045,0.098-0.112,0.197-0.184c0.031,0.322,0.057,0.648,0.078,0.979
		c0.123,1.909,0.186,4.109,0.186,6.538v17.938c0,6.681-0.254,12.381-0.756,16.936c-0.65,5.847-1.756,10.493-3.283,13.812
		l8.031,5.672c2.15-2.098,4.152-3.855,6.002-5.268c2.098-1.644,4.248-3.049,6.393-4.178l2.67-1.406v-3.693
		c0-0.914-0.143-2.431-1.182-7.302c-0.225-1.029-0.338-1.94-0.338-2.728l-0.016-3.771c0.619,2.776,1.498,5.312,2.633,7.587
		c3.627,7.27,9.627,11.112,17.355,11.112c7.494,0,13.697-3.508,17.939-10.149c0.053-0.082,0.105-0.164,0.156-0.247l1.379,0.435
		c1.043,0.329,2.135,0.551,3.236,0.658c0.92,0.09,1.908,0.137,2.936,0.137l8.777-0.295l4.283-4.279l-1.115-3.009
		c-0.455-1.226-0.809-2.601-1.057-4.099c0.031,0.081,0.063,0.162,0.096,0.245c0.934,2.373,2.416,6.635,4.408,12.685
		c1.893,5.678,3.279,9.547,4.24,11.832l0.867,2.061l19.447,6.697l1.533-7.676l-2.924-6.967c2.973,1.311,6.275,1.972,9.871,1.972
		c5.631,0,10.66-1.649,14.945-4.902c4.938-3.745,7.547-8.861,7.547-14.796C459.094,492.36,456.107,486.735,450.48,482.977z
		 M159.565,473.451c-0.425,0.688-0.975,1.405-1.644,2.145c-0.07-3.208-0.12-6.021-0.149-8.418c1.899,0.287,2.484,0.559,2.522,0.576
		c0.232,0.113,0.551,0.268,0.551,1.629C160.845,470.733,160.428,472.061,159.565,473.451z M193.472,471.623
		c-0.399,0.352-0.807,0.541-1.335,0.607c-1.22-0.293-2.43-0.585-3.631-0.877v-3.618c1.159,0.209,2.236,0.517,3.22,0.921
		c2.19,0.912,2.19,1.619,2.19,1.852C193.916,471.18,193.732,471.394,193.472,471.623z M203.994,486.515
		c1.265-0.782,2.407-1.67,3.422-2.658l0.108,11.067L203.994,486.515z M225.466,477.686c0.455-0.033,0.955-0.069,1.508-0.109
		c0.646-0.048,1.368-0.078,2.153-0.092l-0.725,0.678c-0.486,0.455-1.355,1.162-2.857,2.127
		C225.505,479.266,225.479,478.396,225.466,477.686z M240.262,496.445c-0.012,0.422-0.023,0.834-0.034,1.234h-0.321l-1.501,1.908
		c-0.723,0.919-2.285,1.633-4.494,2.06c-1.154,0.217-3.437,0.476-7.759,0.476h-0.33c-0.014-0.361-0.027-0.935-0.028-1.84
		l0.021-0.375c0.561-0.334,1.181-0.691,1.857-1.072c0.752-0.42,1.316-0.717,1.734-0.928c0.935,0.401,1.895,0.604,2.862,0.604h0.354
		l4.928-0.702l0.28-10.821c0-1.319-0.065-2.647-0.193-3.951c-0.174-1.766-0.698-3.031-1.365-3.938l3.871-1.644
		c0.188,2.445,0.284,5.827,0.284,10.064C240.429,489.491,240.373,492.494,240.262,496.445z M260.925,499.418
		c-0.447,0.521-1.139,1.156-2.394,1.533c-0.032-1.023-0.072-2.164-0.12-3.424c-0.258-6.883-0.39-11.54-0.39-13.842
		c0-0.049,0.001-0.178,0.011-0.492c0.514,0.512,1.004,1.076,1.475,1.693c2.074,2.718,3.082,5.531,3.082,8.603
		C262.589,496.123,262.023,498.125,260.925,499.418z M346.021,470.731c-1.611,2.716-2.801,5.756-3.564,9.097l-0.049-12.534
		c0.139,0.059,0.275,0.121,0.41,0.187c1.279,0.613,2.332,1.328,3.127,2.121l0.479,0.479
		C346.287,470.295,346.154,470.512,346.021,470.731z M365.508,498.002c-0.863,2.522-1.814,3.672-2.332,3.672
		c-0.766,0-1.662-1.721-2.191-3.18c-0.92-2.564-1.387-5.47-1.387-8.637c0-3.135,0.504-6.139,1.502-8.932
		c0.807-2.264,1.738-3.449,2.242-3.449c0.551,0,1.432,1.239,2.139,2.998c1.029,2.594,1.553,5.313,1.553,8.084
		C367.033,491.895,366.521,495.067,365.508,498.002z M363.99,460.391c-3.492,0-6.678,0.733-9.494,2.166
		c-0.377-1.254-0.875-2.725-1.502-4.447c-0.195-0.538-0.385-1.03-0.57-1.5h5.563l7.594-4.469v-5.213c0.016,0,0.801,0,0.801,0
		c0.531,0,1.078-0.066,1.684-0.207c0.336-0.078,0.65-0.162,0.943-0.252l3.434-1.053c0.029,0.163,0.047,0.274,0.059,0.347
		l-0.115,3.323l5.592,3.365l-2.67,1.57l2.902,4.395c0.33,0.499,1.447,2.68,1.992,9.824c0.039,0.531,0.076,1.105,0.109,1.726
		C375.441,462.104,368.828,460.391,363.99,460.391z M403.428,471.624c-0.398,0.352-0.807,0.54-1.336,0.606
		c-1.219-0.293-2.43-0.585-3.631-0.877v-3.618c1.16,0.209,2.236,0.517,3.221,0.921c2.191,0.912,2.191,1.619,2.191,1.852
		C403.873,471.18,403.689,471.394,403.428,471.624z M418.48,488.711c-0.803,1.574-1.422,2.941-1.871,4.139l-2.66-6.335
		c1.465-0.906,2.766-1.952,3.893-3.134c0.428,1.029,1.008,2.071,1.777,3.094L418.48,488.711z M437.83,477.486
		c-0.109-0.039-0.219-0.08-0.33-0.121c-0.51-0.189-0.947-0.369-1.32-0.537C436.74,476.955,437.285,477.174,437.83,477.486z
		 M440.043,501.109c-1.064,0.998-1.857,1.127-2.43,1.127c-1.521,0-2.869-0.334-4.09-1.004c-0.203-0.113-0.369-0.22-0.502-0.317
		c1.08-0.817,2.135-1.921,2.467-3.604l0.33-1.67l2.043,0.826c1.58,0.701,3.244,1.743,3.244,2.604
		C441.105,499.586,440.98,500.231,440.043,501.109z"/>
	<path fill="#FBC0A2" d="M153.134,496.766c-0.225,1.912-0.385,4.012-0.478,6.299c-0.094,2.286-0.141,4.686-0.141,7.197v6.748
		c-1.275,1.274-2.813,2.643-4.612,4.105c-1.612,1.273-3.225,2.566-4.837,3.879c0.692-5.811,1.405-11.621,2.137-17.432v-18.67
		c0-6.521-0.122-12.521-0.366-17.994c-0.244-5.473-0.741-10.777-1.49-15.914c2.925-0.412,6.149-0.618,9.674-0.618
		c8.212,0,13.929,1.368,17.155,4.104c2.7,2.287,4.049,5.662,4.049,10.123c0,3.936-1.163,7.741-3.487,11.414
		c-1.8,2.85-4.519,5.867-8.155,9.055C159.433,491.648,156.283,494.217,153.134,496.766z M155.102,461.847c-0.112,0-0.337,0-0.675,0
		c-0.413,0-0.713,0-0.9,0c-0.525,0-0.788,0.282-0.788,0.846c0,3.231,0.065,7.79,0.197,13.671c0.131,5.883,0.31,9.012,0.535,9.387
		c2.512-1.799,4.368-3.224,5.568-4.273c2.1-1.838,3.693-3.637,4.781-5.4c1.35-2.174,2.025-4.405,2.025-6.693
		c0-2.998-1.125-5.042-3.375-6.13C161.157,462.615,158.702,462.147,155.102,461.847z M202.459,520.902
		c-0.9-2.137-2.269-5.961-4.105-11.473c-2.025-6.149-3.525-10.462-4.5-12.937c-1.8-4.649-3.487-8.062-5.062-10.236
		c-0.938-0.675-1.623-1.21-2.053-1.603c-0.431-0.395-0.646-0.834-0.646-1.322c0-0.938,0.037-1.855,0.112-2.756
		c0.225-2.699,0.337-4.219,0.337-4.556c1.688,0.413,3.393,0.825,5.118,1.237c1.987,0,3.693-0.627,5.118-1.885
		c1.425-1.256,2.137-2.877,2.137-4.865c0-2.849-1.756-5.006-5.269-6.467c-2.645-1.088-5.647-1.632-9.009-1.632
		c-0.643,0-1.021,0.206-1.133,0.618c0,2.4,0,6,0,10.799c0,4.801,0,8.381,0,10.743c0,5.85,0.141,10.03,0.422,12.542
		c0.281,2.514,0.796,4.781,1.547,6.807l-0.619,0.618l-6.637,0.226c-0.863,0-1.678-0.037-2.446-0.113
		c-0.769-0.074-1.51-0.225-2.222-0.449c0.824-1.426,1.368-3.581,1.631-6.469c0.262-2.887,0.394-6.279,0.394-10.18v-1.013v-0.844
		v-0.675c0-0.75,0-1.471,0-2.166c0-0.693,0-1.358,0-1.996c0-5.625-0.115-9.955-0.344-12.992c-0.459-5.999-1.394-10.068-2.806-12.205
		c0.637-0.375,2.212-0.637,4.725-0.787c2.512-0.15,4.817-0.226,6.918-0.226c6.111,0,11.305,1.2,15.58,3.6
		c5.324,3.001,7.987,7.312,7.987,12.937c0,3-0.816,5.559-2.447,7.678c-1.631,2.118-3.928,3.759-6.89,4.92
		c-0.038,0.563-0.056,1.014-0.056,1.351c0,0.413,0.019,0.656,0.056,0.731l16.199,38.583l-0.113,0.563L202.459,520.902z
		 M239.524,513.647c-0.375,0.188-1.735,0.318-4.078,0.394c-2.344,0.075-4.66,0.113-6.946,0.113h-2.813h-3.431
		c-1.8,0-3.262-0.02-4.387-0.057c-4.5-0.15-6.956-0.225-7.368-0.225c0-0.338,0.468-1.671,1.406-3.999
		c0.487-1.201,0.731-2.216,0.731-3.042l-0.337-34.58c0-0.938-0.263-2.025-0.788-3.262c-0.713-1.65-1.125-2.7-1.237-3.15
		c1.912-0.133,4.321-0.241,7.228-0.324c2.905-0.084,5.633-0.125,8.183-0.125h11.193c0.563,0.563,1.153,2.1,1.771,4.611
		c0.619,2.513,0.928,4.369,0.928,5.568c-1.166-1.125-2.567-1.921-4.203-2.391c-1.636-0.469-3.413-0.703-5.331-0.703
		c-1.279,0-2.426,0.038-3.441,0.113c-3.611,0.264-5.548,0.395-5.811,0.395l-0.338,0.34v3.5c0,1.205,0.056,3.03,0.169,5.477
		c0.112,2.447,0.168,4.103,0.168,4.969l0.506,0.393c1.087,0,2.905-0.749,5.456-2.249c2.212-1.312,3.899-2.512,5.062-3.6
		c0.45,0,0.731,0.572,0.844,1.716c0.112,1.144,0.168,2.297,0.168,3.459l-0.168,6.468l-0.394,0.056c-0.337,0-0.694-0.093-1.068-0.281
		c-0.9-0.449-1.482-0.674-1.744-0.674c-0.525,0-1.932,0.637-4.218,1.912c-1.8,1.012-3.225,1.875-4.274,2.587l-0.169,3.093
		c0,1.201,0.019,2.082,0.056,2.645c0.037,0.563,0.169,1.855,0.395,3.881c0.338,0.15,0.809,0.262,1.41,0.337s1.147,0.112,1.636,0.112
		h1.861c3.796,0,6.69-0.188,8.684-0.563c3.496-0.675,5.995-1.969,7.5-3.881h0.507c-0.263,1.463-0.769,3.301-1.519,5.512
		C240.274,511.229,239.674,513.049,239.524,513.647z M253.697,513.929c-1.725,0-3.131-0.019-4.219-0.056
		c-4.312-0.15-6.692-0.226-7.143-0.226c0.187-0.563,0.599-1.521,1.237-2.872c1.013-2.139,1.519-3.848,1.519-5.124
		c0-2.026,0.056-5.049,0.169-9.065c0.112-4.017,0.168-7.039,0.168-9.066c0-4.654-0.112-8.296-0.337-10.924
		c-0.413-4.654-1.219-8.184-2.418-10.587l0.563-0.618c9.186,0,16.817,2.459,22.891,7.377c6.6,5.33,9.899,12.5,9.899,21.51
		c0,6.945-2.044,12.031-6.131,15.26C266.183,512.465,260.784,513.929,253.697,513.929z M253.022,483.686
		c0,2.366,0.131,7.043,0.394,14.029c0.149,3.982,0.225,6.801,0.225,8.452l2.363,0.112c3.748,0,6.654-1.201,8.717-3.605
		c1.912-2.254,2.869-5.314,2.869-9.185c0-4.169-1.369-8.048-4.105-11.636c-2.738-3.587-6.131-5.906-10.181-6.958
		c0,1.239-0.048,2.911-0.141,5.015C253.068,482.015,253.022,483.272,253.022,483.686z M316.803,502.286l-10.855,0.169l-0.563-0.563
		c0.6-1.049,1.021-2.137,1.266-3.262s0.365-2.363,0.365-3.713c0-1.312-0.057-2.549-0.168-3.712
		c-0.225-1.649-0.375-2.887-0.451-3.712l-0.336-0.338c-2.102,0.563-4.201,1.199-6.301,1.912c-2.437,0.863-4.462,1.705-6.074,2.529
		c-0.301,0.15-0.563,0.797-0.787,1.941c-0.226,1.143-0.338,2.052-0.338,2.726c-0.601,5.023-1.05,8.415-1.35,10.177
		c-0.675,3.973-1.557,7.291-2.644,9.951c-1.35,3.336-3.188,6.203-5.512,8.602c-0.826-0.862-1.801-2.063-2.926-3.601
		c-0.899-1.276-1.799-2.534-2.699-3.771c0.225-0.525,0.581-1.005,1.068-1.436c0.487-0.432,0.975-0.854,1.463-1.267
		c2.773-3.151,4.387-10.167,4.837-21.048c0.6-14.332,1.274-23.092,2.024-26.281c1.987-8.629,6.337-12.944,13.049-12.944
		c4.725,0,8.305,3.137,10.742,9.409c1.537,3.981,2.877,10.684,4.021,20.104c1.143,9.422,2.09,15.314,2.84,17.676L316.803,502.286z
		 M299.143,461.621c-0.226,0-0.704,0.301-1.435,0.9c-0.731,0.601-1.173,1.013-1.322,1.238c-0.825,1.124-1.415,3.478-1.771,7.059
		c-0.356,3.58-0.534,6.702-0.534,9.363v2.42c1.611-0.451,3.018-0.9,4.219-1.351c1.686-0.638,3.956-1.631,6.805-2.981
		c0-3.861-0.281-7.123-0.844-9.786C303.285,463.909,301.578,461.621,299.143,461.621z M349.479,466.064
		c-1.199-1.199-2.699-2.23-4.5-3.093c-1.986-0.975-4.35-1.462-7.086-1.462l-0.506,0.563l0.168,41.947
		c0,1.125,0.15,2.381,0.451,3.768c0.711,3.338,1.068,5.418,1.068,6.242v0.676c-2.42,1.273-4.803,2.83-7.146,4.666
		c-1.967,1.5-4.104,3.374-6.408,5.623c1.762-3.824,2.998-8.94,3.711-15.351c0.525-4.761,0.787-10.589,0.787-17.488
		c0-1.573,0-3.804,0-6.691c0-2.886,0-4.929,0-6.13v-5.116c0-2.548-0.064-4.835-0.195-6.86c-0.133-2.024-0.404-3.918-0.816-5.68
		c-0.449-0.037-0.965-0.103-1.547-0.197c-0.582-0.092-0.928-0.14-1.041-0.14c-2.438,0-4.311,0.751-5.623,2.249
		c-1.912,2.176-3.301,3.469-4.162,3.881c1.086-3.974,2.193-7.967,3.318-11.979c0.412-0.262,1.35-0.497,2.813-0.703
		c1.461-0.206,3.504-0.31,6.129-0.31h2.531l14.344,0.169c0.674,0.675,1.518,2.399,2.529,5.175c0.9,2.475,1.52,4.406,1.857,5.793
		L349.479,466.064z M362.527,513.929c-5.813,0-10.105-2.78-12.881-8.343c-2.137-4.285-3.205-9.678-3.205-16.181
		c0-6.389,1.293-11.763,3.881-16.122c3.15-5.262,7.705-7.893,13.668-7.893c5.549,0,9.842,2.875,12.879,8.625
		c2.438,4.623,3.656,10.016,3.656,16.18c0,6.127-1.426,11.426-4.275,15.896C372.912,511.316,368.338,513.929,362.527,513.929z
		 M363.342,472.477c-3.027,0-5.344,2.258-6.951,6.771c-1.197,3.349-1.793,6.885-1.793,10.609c0,3.762,0.561,7.204,1.682,10.326
		c1.568,4.327,3.867,6.49,6.896,6.49c3.1,0,5.455-2.352,7.063-7.054c1.195-3.461,1.795-7.148,1.795-11.062
		c0-3.422-0.637-6.732-1.906-9.931C368.48,474.527,366.221,472.477,363.342,472.477z M412.416,520.902
		c-0.9-2.137-2.27-5.961-4.105-11.473c-2.025-6.149-3.525-10.462-4.5-12.937c-1.801-4.649-3.488-8.062-5.063-10.236
		c-0.938-0.675-1.621-1.21-2.053-1.603c-0.432-0.395-0.646-0.834-0.646-1.322c0-0.938,0.037-1.855,0.113-2.756
		c0.225-2.699,0.336-4.219,0.336-4.556c1.688,0.413,3.395,0.825,5.119,1.237c1.986,0,3.693-0.627,5.117-1.885
		c1.426-1.256,2.139-2.877,2.139-4.865c0-2.849-1.758-5.006-5.27-6.467c-2.645-1.088-5.648-1.632-9.01-1.632
		c-0.643,0-1.02,0.206-1.133,0.618c0,2.4,0,6,0,10.799c0,4.801,0,8.381,0,10.743c0,5.85,0.141,10.03,0.422,12.542
		c0.281,2.514,0.797,4.781,1.547,6.807l-0.619,0.618l-6.637,0.226c-0.863,0-1.678-0.037-2.445-0.113
		c-0.77-0.074-1.51-0.225-2.223-0.449c0.824-1.426,1.369-3.581,1.631-6.469c0.262-2.887,0.395-6.279,0.395-10.18v-1.013v-0.844
		v-0.675c0-0.75,0-1.471,0-2.166c0-0.693,0-1.358,0-1.996c0-5.625-0.115-9.955-0.344-12.992c-0.459-5.999-1.395-10.068-2.807-12.205
		c0.637-0.375,2.213-0.637,4.725-0.787s4.818-0.226,6.918-0.226c6.111,0,11.305,1.2,15.58,3.6c5.324,3.001,7.986,7.312,7.986,12.937
		c0,3-0.814,5.559-2.447,7.678c-1.631,2.118-3.928,3.759-6.889,4.92c-0.037,0.563-0.057,1.014-0.057,1.351
		c0,0.413,0.02,0.656,0.057,0.731l16.197,38.583l-0.111,0.563L412.416,520.902z M420.234,500.059c0-1.503,0.262-3.063,0.787-4.68
		c0.375-1.166,1.012-2.631,1.912-4.397c0.676,0.113,1.949,0.885,3.824,2.313c1.275,1.016,2.551,2.032,3.824,3.048
		c-0.037,0.188-0.553,0.603-1.547,1.241c-0.992,0.641-1.49,1.582-1.49,2.822c0,2.146,1.182,3.877,3.545,5.193
		c1.986,1.092,4.162,1.637,6.523,1.637c2.137,0,4.086-0.826,5.85-2.479c1.762-1.652,2.643-3.548,2.643-5.688
		c0-2.967-2.1-5.37-6.299-7.211c-3.9-1.576-7.799-3.152-11.699-4.73c-4.236-2.289-6.355-5.406-6.355-9.348
		c0-3.793,1.256-6.807,3.77-9.04c2.512-2.233,5.699-3.351,9.561-3.351c2.625,0,5.361,0.487,8.213,1.462
		c2.361,0.825,4.873,2.024,7.535,3.6c-0.486,1.2-1.219,2.569-2.193,4.106c-1.426,2.249-2.25,3.58-2.475,3.992l-0.787,0.113
		c-0.9-2.025-2.316-3.693-4.246-5.006c-1.932-1.313-4.004-1.969-6.215-1.969c-1.389,0-2.654,0.479-3.797,1.436
		c-1.145,0.959-1.715,2.132-1.715,3.521c0,2.027,2.117,3.83,6.355,5.406c6.447,2.365,10.424,4.055,11.924,5.068
		c4.273,2.854,6.412,6.891,6.412,12.109c0,4.393-1.857,7.996-5.568,10.813c-3.414,2.59-7.389,3.886-11.924,3.886
		c-4.387,0-8.137-1.184-11.25-3.552C421.939,507.783,420.234,504.344,420.234,500.059z"/>
	<path fill="#FBC0A2" d="M333.646,438.096c-0.086,0.74-0.148,1.552-0.186,2.437c-0.035,0.884-0.053,1.813-0.053,2.784v2.609
		c-0.494,0.494-1.088,1.023-1.785,1.588c-0.623,0.494-1.248,0.994-1.871,1.502c0.268-2.248,0.545-4.496,0.828-6.744v-7.221
		c0-2.523-0.049-4.844-0.143-6.961s-0.287-4.168-0.576-6.155c1.131-0.16,2.379-0.239,3.742-0.239c3.176,0,5.387,0.529,6.635,1.587
		c1.045,0.885,1.566,2.189,1.566,3.916c0,1.521-0.449,2.994-1.348,4.415c-0.697,1.103-1.748,2.269-3.156,3.502
		C336.084,436.117,334.865,437.109,333.646,438.096z M334.408,424.589c-0.043,0-0.131,0-0.262,0c-0.16,0-0.275,0-0.348,0
		c-0.203,0-0.305,0.109-0.305,0.327c0,1.25,0.025,3.014,0.076,5.289c0.051,2.274,0.119,3.484,0.207,3.63
		c0.971-0.696,1.689-1.247,2.154-1.653c0.811-0.711,1.428-1.406,1.848-2.088c0.523-0.842,0.783-1.705,0.783-2.59
		c0-1.16-0.434-1.95-1.305-2.371C336.75,424.887,335.801,424.705,334.408,424.589z M356.338,440.231l-4.199,0.065l-0.217-0.218
		c0.23-0.405,0.395-0.827,0.488-1.262c0.096-0.436,0.143-0.914,0.143-1.437c0-0.507-0.021-0.986-0.066-1.436
		c-0.086-0.638-0.145-1.117-0.174-1.436l-0.131-0.131c-0.813,0.218-1.623,0.465-2.436,0.739c-0.943,0.334-1.727,0.66-2.35,0.979
		c-0.117,0.058-0.219,0.308-0.305,0.75c-0.088,0.442-0.131,0.793-0.131,1.055c-0.232,1.943-0.406,3.255-0.521,3.936
		c-0.262,1.537-0.602,2.82-1.023,3.85c-0.521,1.291-1.232,2.399-2.131,3.328c-0.32-0.334-0.697-0.799-1.133-1.394
		c-0.348-0.493-0.695-0.979-1.043-1.458c0.086-0.204,0.225-0.389,0.412-0.556c0.189-0.167,0.377-0.33,0.566-0.489
		c1.072-1.22,1.697-3.934,1.871-8.143c0.232-5.543,0.492-8.932,0.783-10.166c0.768-3.337,2.451-5.006,5.047-5.006
		c1.828,0,3.213,1.213,4.156,3.639c0.594,1.541,1.111,4.133,1.555,7.777c0.441,3.645,0.809,5.923,1.1,6.836L356.338,440.231z
		 M349.506,424.502c-0.086,0-0.271,0.116-0.555,0.348c-0.283,0.232-0.453,0.393-0.51,0.479c-0.32,0.436-0.549,1.346-0.686,2.73
		c-0.139,1.386-0.207,2.594-0.207,3.623v0.936c0.623-0.174,1.168-0.349,1.631-0.522c0.652-0.247,1.531-0.631,2.633-1.153
		c0-1.493-0.109-2.756-0.326-3.785C351.109,425.387,350.449,424.502,349.506,424.502z M366.977,430.42
		c0,1.174,0.043,2.407,0.129,3.698c0.088,1.291,0.182,2.636,0.283,4.036c0.102,1.398,0.152,2.577,0.152,3.535
		c-0.189,0.058-0.395,0.111-0.611,0.162c-0.221,0.051-0.402,0.076-0.549,0.076c-0.248,0-0.498,0-0.754,0s-0.506-0.007-0.754-0.021
		c-0.451-1.088-0.9-2.176-1.352-3.264c-0.16-0.377-0.625-1.465-1.395-3.263c-0.596-1.378-1.076-2.466-1.438-3.263
		c-0.088,0.159-0.146,0.365-0.176,0.619s-0.043,0.548-0.043,0.881c0,0.247,0.01,0.548,0.027,0.903s0.045,0.736,0.082,1.142v13.619
		l-3.957,2.328h-0.352c0.479-1.09,0.791-2.6,0.936-4.531c0.072-0.945,0.109-2.514,0.109-4.707v-11.156v-2.025
		c0-1.322-0.037-2.47-0.107-3.443c-0.072-0.973-0.217-1.896-0.432-2.768c0.404-0.043,1.098,0.131,2.08,0.523
		c0.709,0.289,1.424,0.58,2.146,0.869c0.434,1.001,0.867,1.994,1.301,2.98c0.52,1.146,0.996,2.125,1.43,2.938l0.086-0.131v-0.413
		c0-2.132,0.227-4.061,0.678-5.787c0.523-1.987,1.355-3.742,2.49-5.265l0.285,0.065l1.791,2.785
		c-0.479,1.102-0.947,2.222-1.404,3.361S366.977,427.882,366.977,430.42z M377.482,446.318l0.023-0.652
		c0-0.508-0.24-1.777-0.719-3.807c-0.479-2.031-0.973-3.908-1.479-5.634c-0.596-1.987-1.016-3.132-1.262-3.437
		c-0.813,0.942-1.32,1.588-1.523,1.936c-0.393,0.682-0.588,1.486-0.588,2.414c0,0.623,0.051,1.178,0.152,1.664
		s0.313,0.91,0.631,1.272l-0.367,0.239l-3.984-0.064c0.232-0.595,0.385-1.393,0.457-2.393c0.029-0.436,0.043-1.27,0.043-2.502
		v-6.199c0-0.971-0.035-1.813-0.107-2.523c-0.117-1.146-0.326-1.943-0.631-2.393c0.436-0.361,1.037-0.783,1.805-1.262
		c0.639-0.391,1.277-0.783,1.914-1.174l0.088,0.131c0,0.304-0.025,0.888-0.076,1.75c-0.051,0.863-0.076,1.512-0.076,1.947
		c0,1.029,0.012,1.795,0.033,2.295s0.082,1.105,0.184,1.816l0.152-0.045c1.002-1.246,1.727-2.334,2.176-3.262
		s0.879-2.189,1.283-3.785c0.48,0,1.125-0.018,1.938-0.054s1.305-0.055,1.479-0.055c0.305,0,0.613,0.008,0.926,0.022
		c0.311,0.014,0.619,0.043,0.924,0.086c-0.855,0.826-1.682,1.842-2.48,3.045c-0.609,0.929-1.27,2.066-1.979,3.416l5.547,19.902
		C380.471,448.115,378.977,447.217,377.482,446.318z M387.664,444.734c-2.248,0-3.908-1.075-4.98-3.227
		c-0.828-1.658-1.24-3.744-1.24-6.259c0-2.472,0.5-4.55,1.5-6.236c1.219-2.035,2.98-3.054,5.287-3.054
		c2.146,0,3.807,1.113,4.982,3.337c0.941,1.788,1.414,3.874,1.414,6.259c0,2.369-0.553,4.42-1.654,6.148
		C391.682,443.725,389.912,444.734,387.664,444.734z M387.98,428.701c-1.172,0-2.068,0.873-2.689,2.619
		c-0.463,1.295-0.693,2.662-0.693,4.104c0,1.455,0.217,2.787,0.65,3.994c0.607,1.674,1.496,2.51,2.668,2.51
		c1.199,0,2.109-0.908,2.732-2.729c0.461-1.338,0.693-2.764,0.693-4.277c0-1.324-0.246-2.605-0.738-3.842
		C389.967,429.494,389.094,428.701,387.98,428.701z M411.248,449.021c-0.436,0-0.879-0.089-1.328-0.265
		c-0.564-0.222-1.219-0.619-1.957-1.193c-0.711,0.465-1.408,0.823-2.09,1.077s-1.385,0.381-2.109,0.381
		c-1.959,0-3.539-1.617-4.742-4.852c-0.799-2.146-1.537-5.457-2.219-9.931c-0.684-4.475-1.168-7.118-1.459-7.931l0.219-0.239
		l1.631-0.021l3.873,0.021l0.217,0.283c-0.305,0.493-0.533,1.041-0.686,1.643s-0.229,1.229-0.229,1.881
		c0,0.885,0.197,2.568,0.588,5.048c0.449,2.843,0.922,5.178,1.414,7.005c0.639,2.35,1.219,3.525,1.74,3.525
		c0.697,0,1.232-0.85,1.609-2.546c0.275-1.232,0.465-2.923,0.566-5.069c0.043-0.942,0.064-2.153,0.064-3.633v-4.895
		c0-0.58-0.068-1.128-0.205-1.643c-0.139-0.516-0.359-1.005-0.664-1.469c0.131-0.072,0.232-0.127,0.305-0.164
		c0.072-0.035,0.123-0.054,0.152-0.054l5.135,0.044l0.238,0.174c-0.334,0.436-0.584,1.201-0.75,2.298
		c-0.168,1.097-0.275,2.327-0.326,3.692c-0.051,1.364-0.076,2.649-0.076,3.854v1.003c0,0.247,0,0.687,0,1.317
		c0,0.632,0,1.014,0,1.144c0,2.163,0.18,3.703,0.541,4.617c0.305,0.784,0.746,1.177,1.324,1.177s1.092-0.604,1.541-1.809
		c0.23-0.609,0.461-1.473,0.693-2.591c0.477-2.396,0.961-4.79,1.453-7.187c0.695-2.873,1.568-5.211,2.625-7.012
		c1.344-2.293,3.102-3.926,5.271-4.899l0.281,0.065c0.275,0.625,0.506,1.175,0.695,1.655c0.26,0.653,0.447,1.227,0.563,1.72
		c-2.523,1.09-4.307,3.73-5.352,7.926c-0.754,3.527-1.508,7.047-2.262,10.561C416.359,447.257,414.264,449.021,411.248,449.021z"/>
	<g>
		<path fill-rule="evenodd" clip-rule="evenodd" fill="#ED1C24" d="M267.067,393.323c0.634-2.689,1.268-5.376,1.899-8.065
			c0.661-2.81,2.383-4.048,5.257-3.471c2.663,0.534,2.971,2.765,3.091,4.84c0.089,1.558-0.293,3.142-0.996,4.633
			c-3.425,7.243-3.269,14.164,1.542,20.902c7.622,10.678-1.356,21.982-10.045,24.246c-1.591,0.414-2.959-0.221-4.319-0.793
			c-10.144-4.264-13.446-15.136-7.264-24.187c4.404-6.445,4.154-13.121,1.194-19.906c-0.839-1.924-1.196-3.792-1.016-5.803
			c0.17-1.891,0.753-3.58,2.962-3.929c2.301-0.365,4.07,0.203,4.992,2.658C265.453,387.35,265.646,390.458,267.067,393.323z
			 M266.881,407.028c-0.08,0.04-0.158,0.08-0.239,0.119c0,6.786,0,13.574,0,20.361c0.081-0.002,0.159-0.004,0.239-0.006
			C266.881,420.677,266.881,413.852,266.881,407.028z"/>
		<g>
			<path fill-rule="evenodd" clip-rule="evenodd" fill="#A3B1B9" d="M293.487,361.924c0.646,5.438,1.326,10.871,1.927,16.314
				c1.253,11.354,1.008,22.687-0.481,34.007c-1.127,8.554-3.247,16.839-6.449,24.849c-0.169,0.42-0.159,0.754,0.243,1.016
				c-1.238,1.508-1.016,3.83-3.195,5.353c0.727-3.889,1.409-7.403,2.036-10.929c3.648-20.5,4.322-41.009-0.172-61.468
				c-0.722-3.28,0.32-5.391,2.791-7.147C291.231,363.174,292.383,362.584,293.487,361.924z"/>
			<path fill-rule="evenodd" clip-rule="evenodd" fill="#A3B1B9" d="M245.366,439.418c0.163-0.91,0.022-1.768-0.33-2.629
				c-6.303-15.444-7.845-31.618-7.5-48.114c0.176-8.395,1.149-16.687,2.507-24.951c0.076-0.467,0.371-0.898,0.565-1.346
				c5.355,2.402,6.416,4.44,5.27,9.911c-3.535,16.867-3.474,33.831-1.357,50.855c0.833,6.706,2.228,13.318,3.557,20.32
				C246.246,442.365,246.199,440.638,245.366,439.418z"/>
			<path fill-rule="evenodd" clip-rule="evenodd" fill="#8D9BA6" d="M266.746,358.519c-1.213-0.357-2.356-0.695-3.501-1.032
				c-1.852-0.545-3.11-1.114-1.472-3.414c1.604-2.253,0.163-3.954-1.818-5.142c-2.154-1.292-4.604-1.869-6.988-2.564
				c-1.924-0.561-2.932-1.33-2.07-3.616c0.926-2.458,2.422-1.95,4.033-1.126c3.192,1.632,6.4,3.25,9.481,5.079
				c1.664,0.988,2.983,1.031,4.664,0.043c3.177-1.864,6.487-3.503,9.752-5.214c1.624-0.853,2.966-0.973,3.83,1.14
				c0.891,2.176,0.03,3.094-1.988,3.662c-2.39,0.674-4.828,1.279-6.996,2.551c-2.01,1.179-3.419,2.912-1.903,5.14
				c1.688,2.481,0.338,3.008-1.642,3.523C268.976,357.848,267.838,358.204,266.746,358.519z"/>
			<path fill-rule="evenodd" clip-rule="evenodd" fill="#A3B1B9" d="M284.284,370.894c-1.435-1.331-2.973-1.743-4.818-0.767
				c-1.254,0.663-2.669,0.751-4.074,0.616c-5.736-0.554-11.482-0.564-17.202,0.052c-2.953,0.318-5.479-1.972-8.445-1.095
				c0.294-2.35,1.43-3.144,3.651-2.003c1.366,0.701,2.828,0.778,4.351,0.766c6.068-0.05,12.138-0.017,18.206-0.008
				c1.193,0.001,2.347-0.015,3.516-0.45C283.035,366.67,283.346,366.893,284.284,370.894z"/>
			<path fill-rule="evenodd" clip-rule="evenodd" fill="#A3B1B9" d="M259.773,446.967c1.125-2.163,3.051-0.334,4.608-0.735
				c2.897-0.746,6.15-0.142,9.251-0.019c0.413,0.018,0.808,0.514,1.21,0.789C269.815,448.81,264.789,450.009,259.773,446.967z"/>
			<path fill-rule="evenodd" clip-rule="evenodd" fill="#A3B1B9" d="M275.348,447.074c3.342-1.345,4.846-4.227,6.114-7.307
				c0.63,2.791-0.019,5.458-0.767,8.117c-0.614,2.182-1.669,2.417-3.263,0.814C276.816,448.08,276.048,447.611,275.348,447.074z"/>
			<path fill-rule="evenodd" clip-rule="evenodd" fill="#A3B1B9" d="M252.075,440.379c1.588,2.623,2.892,5.504,6.045,6.72
				c-0.139,0.138-0.264,0.296-0.421,0.407c-4.117,2.915-4.828,2.607-5.581-2.667C251.91,443.379,252.079,441.867,252.075,440.379z"
				/>
			<path fill-rule="evenodd" clip-rule="evenodd" fill="#A3B1B9" d="M249.605,370.14c0.212,0.573-0.023,0.982-0.477,1.314
				C248.993,370.909,248.935,370.393,249.605,370.14z"/>
			<path fill-rule="evenodd" clip-rule="evenodd" fill="#A3B1B9" d="M284.973,373.826c-0.507-0.737-0.784-1.528-0.572-2.435
				C285.137,372.075,285.093,372.941,284.973,373.826z"/>
		</g>
		<g>
			<path fill-rule="evenodd" clip-rule="evenodd" fill="#952E1F" d="M221.895,388.886c-1.732,10.765-1.594,21.539-0.102,32.354
				c-2.785-3.964-3.75-8.524-4.557-13.102c-0.467-2.642-0.879-5.323-0.676-8.034c0.18-2.396-0.908-2.496-2.695-1.584
				c-1.182,0.604-2.139,1.454-3.053,2.382c-0.4,0.406-0.774,1.06-1.457,0.796c-0.695-0.271-0.504-1.012-0.516-1.579
				c-0.09-4.88,0.917-9.575,3.18-13.854c1.025-1.942,0.479-2.525-1.121-3.362c-5.307-2.774-10.568-2.323-15.863-0.051l-0.131-0.129
				c1.488-8.452,6.392-14.811,12.65-20.251c2.535-2.205,5.248-4.245,8.316-5.723c0.757-0.365,1.355-0.845,1.273-1.805
				c5.305-1.101,10.662-1.199,16.063-1.085c5.313,0.113,10.434,1.208,15.462,2.652c0.534-1.267-0.724-1.491-0.818-2.75
				c5.342,2.592,9.962,5.896,15.418,9.007c-6.124,1.344-11.403,1.591-16.562-1.197c-5.101-2.758-10.414-5.06-16.192-6.039
				c-1.075-0.182-2.183-0.261-3.274-0.247c-2.385,0.032-3.725,1.134-3.601,3.694c0.068,1.457,0.011,2.92,0.011,5.06
				c-1.655-2.846-3.254-1.714-4.883-0.718c-4.339,2.657-8.439,5.568-11.352,10.216c4.578,0.746,8.385,2.485,11.702,5.37
				c1.349,1.172,1.718,2.051,0.683,3.704c-1.631,2.608-2.915,5.427-3.895,8.686C218.37,391.231,219.792,389.144,221.895,388.886z"/>
			<path fill-rule="evenodd" clip-rule="evenodd" fill="#952E1F" d="M316.262,354.859c0.166,1.598,1.578,1.935,2.658,2.566
				c9.02,5.269,15.66,12.575,19.256,22.478c0.293,0.807,1.049,1.792,0.453,2.508c-0.734,0.886-1.637-0.124-2.412-0.404
				c-4.578-1.656-8.984-1.232-13.363,0.77c-1.795,0.819-2.328,1.582-1.301,3.569c2.783,5.39,3.438,9.562,2.922,15.871
				c-1.604-0.622-2.357-2.117-3.57-3.021c-0.975-0.727-2.143-1.519-3.266-1.111c-1.281,0.464-0.68,1.933-0.709,2.951
				c-0.184,6.748-1.271,13.285-4.258,19.41c-0.16,0.333-0.441,0.608-1.195,1.623c0.479-4.56,0.697-8.335,1.309-12.048
				c0.932-5.709,0.059-11.328-0.482-16.967c-0.123-1.293-0.404-2.559-0.111-3.856c1.625,0.713,3.254,1.428,5.324,2.338
				c-0.574-3.422-2.051-6.086-3.621-8.643c-1.115-1.815-0.857-2.918,0.777-4.219c3.34-2.657,7.01-4.475,11.637-5.111
				c-3.57-5.243-8.303-8.583-13.557-11.318c-0.178-0.091-0.432-0.284-0.539-0.225c-4.549,2.551-2.381-1.694-2.471-2.745
				c-0.287-3.489-0.691-4.183-4.35-3.974c-6.522,0.372-12.394,2.974-18,6.028c-5.349,2.915-10.757,2.862-16.995,1.436
				c5.259-3.189,10.064-6.103,15.001-9.097c0.506,1.563-1.113,1.629-1.38,3.006C294.733,353.428,305.451,352.965,316.262,354.859z"
				/>
			<path fill-rule="evenodd" clip-rule="evenodd" fill="#952E1F" d="M244.64,339.287c-2.114,1.765-2.993,3.875-3.038,6.767
				c-3.578-3.726-7.867-3.999-12.172-3.957c-3.861,0.037-7.735-0.471-11.592,0.408c-1.43,0.326-1.969-0.461-1.23-1.911
				c1.631-3.205,4.33-4.587,7.793-4.583C231.2,336.023,237.803,337.269,244.64,339.287z"/>
			<path fill-rule="evenodd" clip-rule="evenodd" fill="#952E1F" d="M292.11,345.494c-0.36-2.382-1.047-4.517-3.142-6.228
				c7.101-2.003,13.885-3.474,20.915-3.183c4.049,0.168,6.254,2.076,7.455,6.02C309,342.784,300.186,339.93,292.11,345.494z"/>
			<path fill-rule="evenodd" clip-rule="evenodd" fill="#952E1F" d="M317.969,351.909c0,0,0.031-0.075,0.031-0.074
				c-1.943,0.795-3.662-0.393-5.482-0.649c-2.432-0.341-4.848-0.816-7.234-1.481c3.676,0,7.355,0.078,11.027-0.032
				C318.168,349.617,318.191,350.591,317.969,351.909z"/>
			<path fill-rule="evenodd" clip-rule="evenodd" fill="#952E1F" d="M215.4,351.282c0,0,0.028,0.075,0.027,0.075
				c-0.124-1.312,0.513-1.694,1.767-1.672c3.595,0.063,7.189,0.022,11.592,0.022c-4.462,0.914-8.205,1.679-11.946,2.45
				C216.08,352.313,215.896,351.545,215.4,351.282z"/>
			<path fill-rule="evenodd" clip-rule="evenodd" fill="#952E1F" d="M305.227,345.908c4.18-0.69,7.791-0.962,11.428-1.008
				c1.053-0.014,1.701,0.229,1.725,1.438c0.027,1.438-0.967,0.971-1.648,0.897C313.094,346.846,309.467,346.403,305.227,345.908z"/>
			<path fill-rule="evenodd" clip-rule="evenodd" fill="#952E1F" d="M227.066,346.013c-3.515,0.431-7.028,0.868-10.544,1.287
				c-0.729,0.087-1.453,0.125-1.315-1c0.108-0.896,0.399-1.424,1.474-1.407C220.165,344.948,223.629,345.147,227.066,346.013z"/>
		</g>
		<g>
			<path fill-rule="evenodd" clip-rule="evenodd" fill="#F8F8F8" d="M245.366,439.418c-7.604-11.377-12.259-23.932-14.975-37.279
				c-2.635-12.957-3.324-26.046-3.022-39.229c0.06-2.625,1.188-3.717,3.664-3.381c3.329,0.453,6.722,0.766,9.575,2.85
				c-0.194,0.448-0.489,0.878-0.565,1.346c-1.357,8.264-2.331,16.556-2.507,24.951c-0.345,16.496,1.197,32.669,7.5,48.114
				C245.388,437.65,245.529,438.508,245.366,439.418z"/>
			<path fill-rule="evenodd" clip-rule="evenodd" fill="#F8F8F8" d="M293.487,361.924c2.866-1.525,6.003-2.049,9.167-2.417
				c1.947-0.226,3.389,0.404,3.455,2.66c0.662,22.794-1.504,45.105-11.53,66.022c-1.657,3.459-3.168,7.047-5.854,9.92
				c-0.402-0.262-0.412-0.596-0.243-1.016c3.202-8.01,5.322-16.294,6.449-24.849c1.489-11.321,1.734-22.654,0.481-34.007
				C294.813,372.795,294.132,367.362,293.487,361.924z"/>
			<path fill-rule="evenodd" clip-rule="evenodd" fill="#F8F8F8" d="M249.605,370.14c-0.002-0.162,0.046-0.308,0.139-0.44
				c2.966-0.877,5.492,1.413,8.445,1.095c5.72-0.616,11.466-0.606,17.202-0.052c1.405,0.136,2.82,0.047,4.074-0.616
				c1.846-0.976,3.384-0.563,4.818,0.767c0.088,0.154,0.126,0.32,0.117,0.498c-0.212,0.907,0.065,1.697,0.572,2.435
				c0.224,3.294,0.414,6.585-0.791,10.006c-1.568-1.847-2.159-4.325-4.114-5.693c-1.56-1.091-3.074-3.436-5.146-0.604
				c-0.444,0.607-0.938,0.232-1.201-0.148c-1.351-1.953-2.506-1.226-3.644,0.199c-0.063,0.078-0.13,0.153-0.192,0.229
				c-2.123-2.008-4.749,0.673-6.93-0.744c-0.487-0.316-0.942-0.684-1.411-1.027c-1.734,3.598-4.57-1.204-6.85,0.994
				c-2.037,1.965-3.681,4.07-5.152,7.11c-1.468-4.592-1.558-8.616-0.414-12.693C249.582,371.122,249.817,370.712,249.605,370.14z"/>
			<path fill-rule="evenodd" clip-rule="evenodd" fill="#F8F8F8" d="M252.075,440.379c-0.224-1.918,0.027-3.777,0.772-5.863
				c0.45,1.04,0.661,2.013,1.214,2.715c1.743,2.213,2.277,6.624,6.858,4.029c3.118,1.561,6.656-1.406,9.704,0.903
				c1.823-2.075,4.607,1.511,6.534-1.251c1.357-1.943,2.504-3.944,3.449-6.223c1.032,1.684,0.879,3.392,0.855,5.078
				c-1.269,3.08-2.772,5.962-6.114,7.307c-0.175,0.02-0.343-0.005-0.506-0.072c-0.402-0.275-0.797-0.771-1.21-0.789
				c-3.101-0.123-6.354-0.728-9.251,0.019c-1.558,0.401-3.483-1.428-4.608,0.735c-0.552,0.044-1.103,0.088-1.653,0.132
				C254.966,445.883,253.663,443.002,252.075,440.379z"/>
			<path fill-rule="evenodd" clip-rule="evenodd" fill="#F8F8F8" d="M297.408,334.666c-1.482,0.566-1.744-0.072-1.507-0.836
				c0.363-1.164-0.234-3.051,1.757-3.149c1.194-0.06,2.7-0.053,2.727,1.89C300.418,335.133,298.151,334.155,297.408,334.666z"/>
			<path fill-rule="evenodd" clip-rule="evenodd" fill="#F8F8F8" d="M237.735,333.208c-0.285,0.818,0.377,2-0.932,1.624
				c-1.32-0.38-3.361,0.318-3.516-2.16c-0.111-1.798,1.097-1.84,2.283-2.014C238.079,330.29,236.865,332.601,237.735,333.208z"/>
		</g>
		<g>
			<g>
				<path fill-rule="evenodd" clip-rule="evenodd" fill="#FBC0A2" d="M316.262,354.859c5.752,0.778,11.34,2.23,16.859,3.998
					c1.979,0.634,3.549,1.721,4.914,3.249c8.945,10.006,11.592,30.004,5.477,42.308c-1.131-2.97-2.059-5.918-3.914-8.428
					c-1.393-1.885-3.016-3.461-5.305-4.212c-3.211-1.054-4.086-0.401-3.537,2.844c1.65,9.82-0.6,18.823-5.555,27.285
					c-0.295,0.504-0.658,0.968-1.02,1.492c-1.125-0.693-0.574-1.682-0.625-2.457c-0.135-2.023-0.508-3.979-1.443-5.768
					c-0.596-1.138-1.348-2.76-2.576-2.679c-1.432,0.094-0.889,1.963-1.143,3.003c-1.582,6.527-4.371,12.411-8.838,17.455
					c-0.697,0.787-1.256,1.805-2.426,2.039c-0.092-0.123-0.209-0.211-0.199-0.279c0.207-1.455,1.936-3.264,0.352-4.224
					c-1.176-0.713-2.432,1.304-3.594,2.188c-1.17,0.888-1.881,2.327-3.787,3.029c5.771-16.08,7.203-32.47,6.732-49.364
					c1.975,0.644,3.52,1.449,4.939,2.52c0.182,0.176,0.365,0.353,0.549,0.529c0,0,0.068-0.191,0.068-0.189
					c-0.293,1.297-0.012,2.563,0.111,3.856c0.541,5.639,1.414,11.257,0.482,16.967c-0.611,3.713-0.83,7.488-1.309,12.048
					c0.754-1.015,1.035-1.29,1.195-1.623c2.986-6.125,4.074-12.663,4.258-19.41c0.029-1.019-0.572-2.487,0.709-2.951
					c1.123-0.407,2.291,0.384,3.266,1.111c1.213,0.904,1.967,2.399,3.57,3.021c0.516-6.31-0.139-10.481-2.922-15.871
					c-1.027-1.987-0.494-2.75,1.301-3.569c4.379-2.002,8.785-2.425,13.363-0.77c0.775,0.28,1.678,1.29,2.412,0.404
					c0.596-0.717-0.16-1.702-0.453-2.508c-3.596-9.903-10.236-17.209-19.256-22.478C317.84,356.794,316.428,356.458,316.262,354.859
					z"/>
				<path fill-rule="evenodd" clip-rule="evenodd" fill="#FBC0A2" d="M221.895,388.886c1.529-0.856,3.06-1.712,4.979-2.787
					c-0.203,8.808,0.115,17.064,1.107,25.292c0.983,8.139,2.809,16.075,5.092,24.116c-1.581-1.385-3.14-2.797-4.754-4.142
					c-0.659-0.55-1.431-1.489-2.316-0.865c-0.697,0.491-0.207,1.468,0.013,2.239c0.183,0.639,0.476,1.309-0.103,2.16
					c-6.441-6.223-9.833-13.905-11.422-22.946c-4.222,2.916-4.346,7.113-4.672,11.981c-3.871-5.542-5.965-11.005-7.021-16.905
					c-0.766-4.275-0.613-8.55,0.021-12.833c0.417-2.808-0.181-3.276-2.987-2.558c-3.138,0.803-5.066,3.03-6.698,5.627
					c-1.334,2.125-2.029,4.531-3.162,7.32c-2.212-5.249-3.096-10.346-3.232-15.519c-0.229-8.699,2.028-16.795,6.725-24.163
					c1.982-3.109,4.427-5.47,8.228-6.483c5.113-1.364,10.177-2.868,15.454-3.478c0.082,0.959-0.517,1.44-1.273,1.805
					c-3.068,1.478-5.781,3.518-8.316,5.723c-6.259,5.44-11.162,11.799-12.649,20.253c-0.069,0.066-0.14,0.132-0.208,0.197
					c0.049,0.049,0.096,0.098,0.145,0.146c0.064-0.072,0.129-0.144,0.193-0.216c5.295-2.272,10.557-2.724,15.863,0.051
					c1.6,0.837,2.146,1.42,1.121,3.362c-2.263,4.279-3.27,8.974-3.18,13.854c0.012,0.567-0.18,1.309,0.516,1.579
					c0.683,0.264,1.057-0.39,1.457-0.796c0.914-0.929,1.871-1.779,3.053-2.382c1.787-0.911,2.875-0.812,2.695,1.584
					c-0.203,2.71,0.209,5.392,0.676,8.034c0.807,4.578,1.771,9.138,4.557,13.102C220.301,410.425,220.163,399.651,221.895,388.886z"
					/>
				<path fill-rule="evenodd" clip-rule="evenodd" fill="#FBC0A2" d="M231.145,316.928c0.426,0.954,1.074,1.118,1.822,1.037
					c11.17-1.21,21.404,2.385,31.624,6.108c1.771,0.645,1.585,1.56,0.53,2.549c-1.773,1.662-3.875,2.456-6.311,1.644
					c-3.691-1.23-7.412-2.395-11.037-3.8c-7.042-2.728-14.209-3.918-21.715-2.42c-0.957,0.191-2.02,0.196-2.973-0.004
					c-1.603-0.337-3.402-1.16-3.833-2.587c-0.468-1.546,1.626-1.982,2.698-2.662c9.55-6.055,20.125-7.363,31.118-6.364
					c4.174,0.379,8.333,1.04,12.279,2.564c1.354,0.523,2.499,0.011,3.755-0.334c12.878-3.549,25.641-3.869,38.095,1.708
					c2.174,0.972,4.152,2.372,6.217,3.581c1.303,0.765,1.26,1.515,0.123,2.495c-1.813,1.56-3.854,2.067-6.143,1.608
					c-7.395-1.482-14.47-0.344-21.417,2.365c-3.623,1.413-7.355,2.54-11.031,3.817c-1.172,0.407-2.307,0.45-3.517,0.098
					c-1.722-0.5-3.52-1.318-3.636-3.091c-0.088-1.325,1.933-1.363,3.051-1.801c8.223-3.221,16.681-5.399,25.558-5.893
					c1.792-0.101,3.49,1.085,5.373,0.133c-0.355-1.591-1.738-1.325-2.79-1.501c-10.284-1.733-20.063,0.532-29.665,3.914
					c-1.797,0.633-3.309,0.617-5.111-0.019c-9.601-3.382-19.385-5.617-29.666-3.899C233.41,316.362,232.295,316.669,231.145,316.928
					z"/>
				<path fill-rule="evenodd" clip-rule="evenodd" fill="#FBC0A2" d="M321.23,321.89c-2.711,1.286-4.377,3.49-7.293,3.26
					c0.338-0.91,0.848-1.628,0.828-2.332c-0.117-4.148,2.322-3.062,4.576-2.294c8.24,2.809,15.031,7.668,20.451,14.48
					c3.934,4.945,7.018,10.359,9.576,16.838c-2.859-1.264-5.227-2.31-7.707-3.406c1.336-1.085,2.48,0.067,3.645-0.035
					c-2.039-7.027-14.502-18.22-20.531-18.293c1.84,1.605,3.965,2.737,5.379,4.767c-1.242,0.852-2.189-0.629-3.422,0.104
					c1.777,1.871,4.057,3.281,5.385,5.865c-1.295,0.418-3.059,0.328-2.795,2.366c0.068,0.52-0.453,0.598-0.84,0.543
					c-2.469-0.349-4.936-0.739-7.404-1.09c-0.947-0.135-0.988-0.9-1.086-1.557c-0.717-4.96-2.531-8.866-8.406-9.051
					c-0.324-0.01-0.639-0.431-1.557-1.095C315.334,329.819,318.822,326.938,321.23,321.89z"/>
				<path fill-rule="evenodd" clip-rule="evenodd" fill="#FBC0A2" d="M212.917,322.855c1.996,4.389,5.49,6.918,10.103,7.977
					c-0.205,0.955-0.877,1.361-1.538,1.366c-5.284,0.041-6.987,3.744-7.726,7.955c-0.353,2.011-1.054,2.729-2.907,2.808
					c-1.192,0.05-2.383,0.233-3.566,0.41c-1.41,0.211-3.057,1.346-3.345-1.438c-0.099-0.952-1.46-0.778-2.569-0.79
					c1.207-2.68,3.427-4.332,5.626-6.043c-1.332-0.853-2.261,0.31-3.769,0.133c1.59-2.532,4.173-3.688,5.858-5.733
					c-9.474,3.423-16.215,9.953-21.254,18.761c1.382,0.481,2.548-0.851,4.154,0.066c-2.554,1.179-4.864,2.242-7.876,3.631
					c5.791-13.737,13.607-24.583,27.178-30.285c0.176-0.074,0.428,0.004,0.584-0.089c1.732-1.039,3.806-2.066,5.576-1.707
					c2.244,0.454,0.588,3.539,2.465,5.007c-3.107,0.73-4.594-1.565-6.603-2.523c-0.231-0.038-0.464-0.077-0.698-0.115
					C212.713,322.451,212.815,322.653,212.917,322.855z"/>
				<path fill-rule="evenodd" clip-rule="evenodd" fill="#FBC0A2" d="M286.185,454.888c-0.934,2.442-1.675,4.819-2.729,7.048
					c-2.22,4.686-6.117,6.613-11.096,5.191c-3.797-1.083-7.369-1.067-11.161,0.002c-4.969,1.401-8.854-0.515-11.101-5.192
					c-1.028-2.14-1.715-4.442-2.652-6.933c2.445-0.352,4.525-0.643,6.627,0.795c1.751,1.195,3.762,1.262,5.988,1.084
					c4.503-0.357,9.073-0.316,13.583,0.014c1.998,0.146,3.887,0.193,5.433-0.893C281.269,454.465,283.54,454.645,286.185,454.888z"
					/>
				<path fill-rule="evenodd" clip-rule="evenodd" fill="#FBC0A2" d="M244.396,336.72c5.703-2.317,0.073-3.929-0.304-6.168
					c5.793,0.351,10.768,2.677,15.409,5.547c8.285,5.122,6.463,5.191,14.583-0.079c2.36-1.533,5.678-1.77,7.504-3.25
					c2.594-2.103,5.284-1.061,8.032-2.631c-0.763,2.27-2.433,3.029-3.327,4.41c0.524,1.191,1.964,1.31,2.77,2.323
					c-1.174,0.76-2.186,1.109-3.551,0.432c-3.104-1.545-6.2-1.147-9.154,0.532c-1.56,0.886-3.249,1.654-4.579,2.817
					c-3.45,3.017-6.629,2.793-10.075-0.045c-1.671-1.377-3.697-2.368-5.662-3.33c-2.436-1.193-5.033-1.351-7.517-0.15
					C247.116,337.811,245.881,337.929,244.396,336.72z"/>
				<path fill-rule="evenodd" clip-rule="evenodd" fill="#FBC0A2" d="M215.4,351.282c0.119,0.804-0.141,1.303-0.999,1.524
					c-4.881,1.262-9.612,2.998-14.398,4.833c0.215-5.388,0.748-6.027,5.469-6.702c2.362-0.338,4.744-0.57,7.09-0.997
					c1.406-0.256,2.242,0.274,2.866,1.417C215.428,351.356,215.4,351.282,215.4,351.282z"/>
				<path fill-rule="evenodd" clip-rule="evenodd" fill="#FBC0A2" d="M317.969,351.909c0.68-1.712,1.752-2.354,3.695-1.871
					c2.018,0.501,4.146,0.564,6.219,0.869c5.055,0.743,5.055,0.754,5.857,6.831c-5.246-2.426-10.789-3.306-15.74-5.902
					C318,351.833,317.969,351.909,317.969,351.909z"/>
				<path fill-rule="evenodd" clip-rule="evenodd" fill="#FBC0A2" d="M332.135,350.22c-4.061-0.843-7.432-1.56-10.814-2.233
					c-0.85-0.169-1.52-0.346-1.457-1.452c0.057-1.071,0.436-1.665,1.604-1.625c2.482,0.084,4.988-0.067,7.439,0.236
					C331.609,345.479,330.709,348.27,332.135,350.22z"/>
				<path fill-rule="evenodd" clip-rule="evenodd" fill="#FBC0A2" d="M201.76,350.193c1.466-5.188,1.467-5.277,7.657-5.215
					c1.392,0.015,3.762-1.281,4.107,1.27c0.387,2.854-2.41,1.65-3.708,2.105C207.332,349.224,204.661,349.566,201.76,350.193z"/>
			</g>
			<path fill-rule="evenodd" clip-rule="evenodd" fill="#FBC0A2" d="M312.123,389.387c-0.184-0.176-0.367-0.353-0.549-0.529
				C311.887,388.902,312.262,388.878,312.123,389.387z"/>
			<path fill-rule="evenodd" clip-rule="evenodd" fill="#FBC0A2" d="M195.036,382.853c-0.064,0.072-0.129,0.144-0.193,0.216
				c-0.049-0.049-0.096-0.098-0.145-0.146c0.068-0.065,0.139-0.13,0.208-0.197C194.905,382.724,195.036,382.853,195.036,382.853z"/>
		</g>
		<g>
			<path fill-rule="evenodd" clip-rule="evenodd" d="M266.881,407.028c-0.08,0.04-0.158,0.08-0.239,0.119c0,6.786,0,13.574,0,20.361
				c0.081-0.002,0.159-0.004,0.239-0.006C266.881,420.677,266.881,413.852,266.881,407.028z"/>
			<path fill-rule="evenodd" clip-rule="evenodd" d="M345.756,362.347c-0.039-0.079-0.006-0.197-0.006-0.32
				c1.348-0.614,2.645,0.878,4.127,0.075c-0.361-0.812-0.721-1.616-1.082-2.42c-0.008-0.24-0.014-0.48-0.021-0.72
				c0.221,0.083,0.441,0.165,0.664,0.247c3.57,1.7,7.139,3.398,11.016,5.243c-0.018-2.124-1.037-3.59-1.637-5.155
				c-2.143-5.574-4.25-11.16-6.912-16.519c-7.02-14.128-18.145-23.7-32.678-29.468c-2.133-0.847-4.064-1.985-5.967-3.223
				c-14.842-6.51-30.073-7.904-45.749-3.481c-1.018,0.287-1.954-0.109-2.926-0.347c-16.303-3.995-32.049-2.95-46.991,5.253
				c-2.188,2.208-5.172,2.892-7.913,3.916c-12.421,4.64-20.316,14.068-26.778,25.018c-4.393,7.438-7.012,15.681-10.666,23.948
				c4.367-1.085,7.715-3.723,11.592-5.104c0.689,1.356-0.727,1.944-0.598,2.937c1.477,0.625,2.859-0.684,4.679-0.201
				c-2.306,4.026-4.216,8.132-5.469,12.505c-2.747,9.591-2.409,19.152,0.413,28.649c2.19,7.37,5.502,14.311,8.467,22.297
				c1.604-6.357,3.004-11.91,4.404-17.462c0.289-0.084,0.578-0.168,0.866-0.253c2.276,14.399,12.036,24.715,19.17,37.008
				c1.187-2.736-0.248-5.063,0.241-7.301c0.216-0.991-0.707-2.466,0.602-2.906c1.29-0.432,1.216,1.283,1.871,1.938
				c4.316,4.307,8.452,8.809,12.94,12.927c5.503,5.052,10.949,10.06,13.467,17.386c1.454,0.796,1.639,2.555,2.936,3.606
				c5.029,4.079,10.582,3.823,16.308,2.337c1.495-0.387,2.865-0.672,4.356-0.127c7.093,2.592,13.333,1.17,18.746-4.049
				c3.553-9.178,10.463-15.686,17.446-22.189c4.291-3.998,8.525-8.08,12.416-13.055c0.707,3.826-0.234,7.259,0.082,10.684
				c4.904-3.375,17.434-26.688,20.27-36.966c1.496,5.877,2.99,11.754,4.484,17.63c4.643-11.869,10.82-23.083,10.936-36.104
				c0.074-8.678-2.035-16.779-6.143-24.391C346.391,363.58,346.068,362.965,345.756,362.347z M319.342,320.524
				c8.24,2.809,15.031,7.668,20.451,14.48c3.934,4.945,7.018,10.359,9.576,16.838c-2.859-1.264-5.227-2.31-7.707-3.406
				c1.336-1.085,2.48,0.067,3.645-0.035c-2.039-7.027-14.502-18.22-20.531-18.293c1.84,1.605,3.965,2.737,5.379,4.767
				c-1.242,0.852-2.189-0.629-3.422,0.104c1.777,1.871,4.057,3.281,5.385,5.865c-1.295,0.418-3.059,0.328-2.795,2.366
				c0.068,0.52-0.453,0.598-0.84,0.543c-2.469-0.349-4.936-0.739-7.404-1.09c-0.947-0.135-0.988-0.9-1.086-1.557
				c-0.717-4.96-2.531-8.866-8.406-9.051c-0.324-0.01-0.639-0.431-1.557-1.095c5.305-1.14,8.793-4.021,11.201-9.069
				c-2.711,1.286-4.377,3.49-7.293,3.26c0.338-0.91,0.848-1.628,0.828-2.332C314.648,318.67,317.088,319.756,319.342,320.524z
				 M312.518,351.186c-2.432-0.341-4.848-0.816-7.234-1.481c3.676,0,7.355,0.078,11.027-0.032c1.824-0.054,1.879,0.887,1.668,2.168
				c0.008-0.003,0.014-0.003,0.021-0.006c0,0,0.002,0.001,0.002,0.001c0.682-1.653,1.748-2.273,3.662-1.798
				c2.018,0.501,4.146,0.564,6.219,0.869c5.055,0.743,5.055,0.754,5.857,6.831c-5.246-2.426-10.787-3.306-15.738-5.901
				c-0.01,0.025-0.023,0.046-0.033,0.073c0.004-0.023,0.006-0.044,0.01-0.068C316.043,352.619,314.332,351.44,312.518,351.186z
				 M271.769,354.025c1.688,2.481,0.338,3.008-1.642,3.523c-1.151,0.3-2.289,0.655-3.382,0.971
				c-1.213-0.357-2.356-0.695-3.501-1.032c-1.852-0.545-3.11-1.114-1.472-3.414c1.604-2.253,0.163-3.954-1.818-5.142
				c-2.154-1.292-4.604-1.869-6.988-2.564c-1.924-0.561-2.932-1.33-2.07-3.616c0.926-2.458,2.422-1.95,4.033-1.126
				c3.192,1.632,6.4,3.25,9.481,5.079c1.664,0.988,2.983,1.031,4.664,0.043c3.177-1.864,6.487-3.503,9.752-5.214
				c1.624-0.853,2.966-0.973,3.83,1.14c0.891,2.176,0.03,3.094-1.988,3.662c-2.39,0.674-4.828,1.279-6.996,2.551
				C271.663,350.064,270.253,351.798,271.769,354.025z M284.182,383.832c-1.568-1.847-2.159-4.325-4.114-5.693
				c-1.56-1.091-3.074-3.436-5.146-0.604c-0.444,0.607-0.938,0.232-1.201-0.148c-1.351-1.953-2.506-1.226-3.644,0.199
				c-0.063,0.078-0.13,0.153-0.192,0.229c-2.123-2.008-4.749,0.673-6.93-0.744c-0.487-0.316-0.942-0.684-1.411-1.027
				c-1.734,3.598-4.57-1.204-6.85,0.994c-2.037,1.965-3.681,4.07-5.152,7.11c-1.468-4.592-1.558-8.616-0.414-12.693
				c-0.136-0.545-0.193-1.062,0.477-1.314c-0.002-0.162,0.046-0.308,0.139-0.439c0.294-2.351,1.43-3.145,3.651-2.004
				c1.366,0.701,2.828,0.778,4.351,0.766c6.068-0.05,12.138-0.017,18.206-0.008c1.193,0.001,2.347-0.015,3.516-0.45
				c3.567-1.333,3.879-1.11,4.816,2.891c0.088,0.154,0.126,0.32,0.117,0.498c0.736,0.684,0.692,1.55,0.572,2.435
				C285.197,377.12,285.387,380.411,284.182,383.832z M252.847,434.516c0.45,1.04,0.661,2.013,1.214,2.715
				c1.743,2.213,2.277,6.624,6.858,4.029c3.118,1.561,6.656-1.406,9.704,0.903c1.823-2.075,4.607,1.511,6.534-1.251
				c1.357-1.943,2.504-3.944,3.449-6.223c1.032,1.684,0.879,3.392,0.855,5.078c0.63,2.791-0.019,5.458-0.767,8.117
				c-0.614,2.182-1.669,2.417-3.263,0.814c-0.617-0.619-1.385-1.088-2.085-1.625c-0.175,0.02-0.343-0.005-0.506-0.072
				c-5.027,1.808-10.054,3.007-15.069-0.035c-0.552,0.044-1.103,0.088-1.653,0.132c-0.139,0.138-0.264,0.296-0.421,0.407
				c-4.117,2.915-4.828,2.607-5.581-2.667c-0.208-1.46-0.039-2.972-0.043-4.46C251.851,438.461,252.102,436.602,252.847,434.516z
				 M257.426,391.522c-0.839-1.924-1.196-3.792-1.016-5.803c0.17-1.891,0.753-3.58,2.962-3.929c2.301-0.365,4.07,0.203,4.992,2.658
				c1.088,2.902,1.281,6.01,2.702,8.875c0.634-2.689,1.268-5.376,1.899-8.065c0.661-2.81,2.383-4.048,5.257-3.471
				c2.663,0.534,2.971,2.765,3.091,4.84c0.089,1.558-0.293,3.142-0.996,4.633c-3.425,7.243-3.269,14.164,1.542,20.902
				c7.622,10.678-1.356,21.982-10.045,24.246c-1.591,0.414-2.959-0.221-4.319-0.793c-10.144-4.264-13.446-15.136-7.264-24.187
				C260.636,404.983,260.386,398.308,257.426,391.522z M276.358,337.836c-1.56,0.886-3.249,1.654-4.579,2.817
				c-3.45,3.017-6.629,2.793-10.075-0.045c-1.671-1.377-3.697-2.368-5.662-3.33c-2.436-1.193-5.033-1.351-7.517-0.15
				c-1.409,0.682-2.644,0.8-4.129-0.409c5.703-2.317,0.073-3.929-0.304-6.168c5.793,0.351,10.768,2.677,15.409,5.547
				c8.285,5.122,6.463,5.191,14.583-0.079c2.36-1.533,5.678-1.77,7.504-3.25c2.594-2.103,5.284-1.061,8.032-2.631
				c-0.763,2.27-2.433,3.029-3.327,4.41c0.524,1.191,1.964,1.31,2.77,2.323c-1.174,0.76-2.186,1.109-3.551,0.432
				C282.408,335.76,279.312,336.158,276.358,337.836z M215.427,351.357c-0.008-0.016-0.018-0.028-0.026-0.043
				c0.106,0.784-0.154,1.275-1,1.493c-4.881,1.262-9.612,2.998-14.398,4.833c0.215-5.388,0.748-6.027,5.469-6.702
				c2.362-0.338,4.744-0.57,7.09-0.997c1.387-0.252,2.218,0.263,2.84,1.373c-0.002-0.011,0.001-0.02-0.001-0.032
				c0.009,0.005,0.017,0.013,0.026,0.018c-0.098-1.262,0.534-1.636,1.768-1.615c3.595,0.063,7.189,0.022,11.592,0.022
				c-4.462,0.914-8.205,1.679-11.946,2.45c-0.746,0.153-0.938-0.581-1.414-0.857C215.427,351.32,215.425,351.336,215.427,351.357z
				 M201.76,350.193c1.466-5.188,1.467-5.277,7.657-5.215c1.392,0.015,3.762-1.281,4.107,1.27c0.387,2.854-2.41,1.65-3.708,2.105
				C207.332,349.224,204.661,349.566,201.76,350.193z M215.207,346.299c0.108-0.896,0.399-1.424,1.474-1.407
				c3.484,0.056,6.949,0.255,10.386,1.121c-3.515,0.431-7.028,0.868-10.544,1.287C215.792,347.387,215.069,347.425,215.207,346.299z
				 M217.838,342.505c-1.43,0.326-1.969-0.461-1.23-1.911c1.631-3.205,4.33-4.587,7.793-4.583
				c6.799,0.011,13.402,1.256,20.239,3.274c-2.114,1.765-2.993,3.875-3.038,6.767c-3.578-3.726-7.867-3.999-12.172-3.957
				C225.569,342.134,221.695,341.626,217.838,342.505z M236.803,334.832c-1.32-0.38-3.361,0.318-3.516-2.16
				c-0.111-1.798,1.097-1.84,2.283-2.014c2.508-0.367,1.294,1.944,2.164,2.55C237.45,334.026,238.112,335.208,236.803,334.832z
				 M309.883,336.083c4.049,0.168,6.254,2.076,7.455,6.02c-8.338,0.682-17.152-2.172-25.228,3.391
				c-0.36-2.382-1.047-4.517-3.142-6.228C296.069,337.262,302.854,335.792,309.883,336.083z M295.901,333.83
				c0.363-1.164-0.234-3.051,1.757-3.149c1.194-0.06,2.7-0.053,2.727,1.89c0.033,2.563-2.234,1.584-2.977,2.095
				C295.925,335.232,295.664,334.594,295.901,333.83z M316.654,344.9c1.053-0.014,1.701,0.229,1.725,1.438
				c0.027,1.438-0.967,0.971-1.648,0.897c-3.637-0.391-7.264-0.833-11.504-1.328C309.406,345.218,313.018,344.946,316.654,344.9z
				 M319.863,346.535c0.057-1.071,0.436-1.665,1.604-1.625c2.482,0.084,4.988-0.067,7.439,0.236
				c2.703,0.334,1.803,3.125,3.229,5.075c-4.061-0.843-7.432-1.56-10.814-2.233C320.471,347.817,319.801,347.641,319.863,346.535z
				 M221.952,316.792c9.55-6.055,20.125-7.363,31.118-6.364c4.174,0.379,8.333,1.04,12.279,2.564
				c1.354,0.523,2.499,0.011,3.755-0.334c12.878-3.549,25.641-3.869,38.095,1.708c2.174,0.972,4.152,2.372,6.217,3.581
				c1.303,0.765,1.26,1.515,0.123,2.495c-1.813,1.56-3.854,2.067-6.143,1.608c-7.395-1.482-14.47-0.344-21.417,2.365
				c-3.623,1.413-7.355,2.54-11.031,3.817c-1.172,0.407-2.307,0.45-3.517,0.098c-1.722-0.5-3.52-1.318-3.636-3.091
				c-0.088-1.325,1.933-1.363,3.051-1.801c8.223-3.221,16.681-5.399,25.558-5.893c1.792-0.101,3.49,1.085,5.373,0.133
				c-0.355-1.591-1.738-1.325-2.79-1.501c-10.284-1.733-20.063,0.532-29.665,3.914c-1.797,0.633-3.309,0.617-5.111-0.019
				c-9.601-3.382-19.385-5.617-29.666-3.899c-1.136,0.19-2.25,0.497-3.4,0.756c0.426,0.954,1.074,1.118,1.822,1.037
				c11.17-1.21,21.404,2.385,31.624,6.108c1.771,0.645,1.585,1.56,0.53,2.549c-1.773,1.662-3.875,2.456-6.311,1.644
				c-3.691-1.23-7.412-2.395-11.037-3.8c-7.042-2.728-14.209-3.918-21.715-2.42c-0.957,0.191-2.02,0.196-2.973-0.004
				c-1.603-0.337-3.402-1.16-3.833-2.587C218.786,317.908,220.879,317.471,221.952,316.792z M184.108,351.959
				c5.791-13.737,13.607-24.583,27.178-30.285c0.176-0.074,0.428,0.004,0.584-0.089c1.732-1.039,3.806-2.066,5.576-1.707
				c2.244,0.454,0.588,3.539,2.465,5.007c-3.107,0.73-4.594-1.565-6.603-2.524c0,0,0,0.001-0.001,0.001
				c-0.231-0.038-0.463-0.077-0.697-0.115c0.104,0.203,0.205,0.405,0.307,0.607c1.996,4.389,5.49,6.918,10.103,7.977
				c-0.205,0.955-0.877,1.361-1.538,1.366c-5.284,0.041-6.987,3.744-7.726,7.955c-0.353,2.011-1.054,2.729-2.907,2.808
				c-1.192,0.05-2.383,0.233-3.566,0.41c-1.41,0.211-3.057,1.346-3.345-1.438c-0.099-0.952-1.46-0.778-2.569-0.79
				c1.207-2.68,3.427-4.332,5.626-6.043c-1.332-0.853-2.261,0.31-3.769,0.133c1.59-2.532,4.173-3.688,5.858-5.733
				c-9.474,3.423-16.215,9.953-21.254,18.761c1.382,0.481,2.548-0.851,4.154,0.066C189.43,349.506,187.12,350.57,184.108,351.959z
				 M228.319,431.366c-0.659-0.55-1.431-1.489-2.316-0.865c-0.697,0.491-0.207,1.468,0.013,2.239
				c0.183,0.639,0.476,1.309-0.103,2.16c-6.441-6.223-9.833-13.905-11.422-22.946c-4.222,2.916-4.346,7.113-4.672,11.981
				c-3.871-5.542-5.965-11.005-7.021-16.905c-0.766-4.275-0.613-8.55,0.021-12.833c0.417-2.808-0.181-3.276-2.987-2.558
				c-3.138,0.803-5.066,3.03-6.698,5.627c-1.334,2.125-2.029,4.531-3.162,7.32c-2.212-5.249-3.096-10.346-3.232-15.519
				c-0.229-8.699,2.028-16.795,6.725-24.163c1.982-3.109,4.427-5.47,8.228-6.483c5.113-1.364,10.177-2.868,15.454-3.479
				c5.305-1.1,10.662-1.198,16.063-1.084c5.313,0.113,10.434,1.208,15.462,2.652c0.534-1.267-0.724-1.491-0.818-2.75
				c5.342,2.592,9.962,5.896,15.418,9.007c-6.124,1.344-11.403,1.591-16.562-1.197c-5.101-2.758-10.414-5.06-16.192-6.039
				c-1.075-0.182-2.183-0.261-3.274-0.247c-2.385,0.032-3.725,1.134-3.601,3.694c0.068,1.457,0.011,2.92,0.011,5.06
				c-1.655-2.846-3.254-1.714-4.883-0.718c-4.339,2.657-8.439,5.568-11.352,10.216c4.578,0.746,8.385,2.485,11.702,5.37
				c1.349,1.172,1.718,2.051,0.683,3.704c-1.631,2.608-2.915,5.427-3.895,8.686c2.463-0.067,3.885-2.154,5.988-2.412
				c1.529-0.856,3.06-1.712,4.979-2.787c-0.203,8.808,0.115,17.064,1.107,25.292c0.983,8.139,2.809,16.075,5.092,24.116
				C231.492,434.123,229.933,432.711,228.319,431.366z M245.366,439.418c-7.604-11.377-12.259-23.932-14.975-37.279
				c-2.635-12.957-3.324-26.046-3.022-39.229c0.06-2.625,1.188-3.717,3.664-3.381c3.329,0.453,6.722,0.766,9.575,2.85
				c5.355,2.402,6.416,4.44,5.27,9.911c-3.535,16.867-3.474,33.831-1.357,50.855c0.833,6.706,2.228,13.318,3.557,20.32
				C246.246,442.365,246.199,440.638,245.366,439.418z M283.456,461.936c-2.22,4.686-6.117,6.613-11.096,5.191
				c-3.797-1.083-7.369-1.067-11.161,0.002c-4.969,1.401-8.854-0.515-11.101-5.192c-1.028-2.14-1.715-4.442-2.652-6.933
				c2.445-0.352,4.525-0.643,6.627,0.795c1.751,1.195,3.762,1.262,5.988,1.084c4.503-0.357,9.073-0.316,13.583,0.014
				c1.998,0.146,3.887,0.193,5.433-0.893c2.192-1.539,4.463-1.359,7.108-1.116C285.251,457.33,284.51,459.707,283.456,461.936z
				 M294.58,428.189c-1.657,3.459-3.168,7.047-5.854,9.918c-1.238,1.51-1.016,3.832-3.195,5.354
				c0.727-3.889,1.409-7.403,2.036-10.929c3.648-20.5,4.322-41.009-0.172-61.468c-0.722-3.28,0.32-5.391,2.791-7.147
				c1.045-0.744,2.197-1.334,3.301-1.994c2.866-1.525,6.003-2.049,9.167-2.417c1.947-0.226,3.389,0.404,3.455,2.66
				C306.771,384.962,304.605,407.273,294.58,428.189z M343.512,404.415c-1.131-2.97-2.059-5.918-3.914-8.428
				c-1.393-1.885-3.016-3.461-5.305-4.212c-3.211-1.054-4.086-0.401-3.537,2.844c1.65,9.82-0.6,18.823-5.555,27.285
				c-0.295,0.504-0.658,0.968-1.02,1.492c-1.125-0.693-0.574-1.682-0.625-2.457c-0.135-2.023-0.508-3.979-1.443-5.768
				c-0.596-1.138-1.348-2.76-2.576-2.679c-1.432,0.094-0.889,1.963-1.143,3.003c-1.582,6.527-4.371,12.411-8.838,17.455
				c-0.697,0.787-1.256,1.805-2.426,2.039c-0.092-0.123-0.209-0.211-0.199-0.279c0.207-1.455,1.936-3.264,0.352-4.224
				c-1.176-0.713-2.432,1.304-3.594,2.188c-1.17,0.888-1.881,2.327-3.787,3.029c5.771-16.08,7.203-32.47,6.732-49.364
				c1.975,0.644,3.52,1.449,4.939,2.52c0.313,0.043,0.688,0.02,0.549,0.529l0.068-0.191c1.625,0.715,3.254,1.43,5.324,2.34
				c-0.574-3.422-2.051-6.086-3.621-8.643c-1.115-1.815-0.857-2.918,0.777-4.219c3.34-2.657,7.01-4.475,11.637-5.111
				c-3.57-5.243-8.303-8.583-13.557-11.318c-0.178-0.091-0.432-0.284-0.539-0.225c-4.549,2.551-2.381-1.694-2.471-2.745
				c-0.287-3.489-0.691-4.183-4.35-3.974c-6.522,0.372-12.394,2.974-18,6.028c-5.349,2.915-10.757,2.862-16.995,1.436
				c5.259-3.189,10.064-6.103,15.001-9.097c0.506,1.563-1.113,1.629-1.38,3.006c10.714-3.247,21.432-3.71,32.243-1.815
				c5.752,0.778,11.34,2.23,16.859,3.998c1.979,0.634,3.549,1.721,4.914,3.249C346.98,372.113,349.627,392.111,343.512,404.415z"/>
		</g>
	</g>
</g>
</svg>
