<?xml version="1.0" encoding="utf-8"?>
<!-- Generator: Adobe Illustrator 16.0.0, SVG Export Plug-In . SVG Version: 6.00 Build 0)  -->
<!DOCTYPE svg PUBLIC "-//W3C//DTD SVG 1.1//EN" "http://www.w3.org/Graphics/SVG/1.1/DTD/svg11.dtd">
<svg version="1.1" id="Layer_1" xmlns="http://www.w3.org/2000/svg" xmlns:xlink="http://www.w3.org/1999/xlink" x="0px" y="0px"
	 width="595.28px" height="841.89px" viewBox="0 0 595.28 841.89" enable-background="new 0 0 595.28 841.89" xml:space="preserve">
<g>
	<path fill-rule="evenodd" clip-rule="evenodd" fill="#126232" d="M443.318,469.926L274.1,534.508l-165.825-68.229
		c20.77-34.449,45.891-68.222,70.404-102.52c-1.072-2.984-2.337-6.422-3.288-8.943c-2.283-6.239-3.76-15.328-3.76-21.95
		c0-8.914,2.236-17.189,7.173-24.65c5.012-7.591,15.048-14.339,24.313-14.339h2.037c13.258,0,24.458,10.161,33.468,19.839
		c3.209-1.147,6.443-2.241,9.418-2.875c6.648-1.377,14.021-2.65,20.824-2.65h9.543c6.953,0,15.883,1.043,22.551,2.875
		c3.989,1.123,6.418,2.011,9.122,2.879c0.56-0.588,1.119-1.173,1.645-1.736c2.361-2.441,5.35-5.546,8.07-7.562
		c8.18-6.084,14.055-10.771,25.03-10.771c19.521,0,32.5,19.125,32.5,37.308v5.45c0,7.437-3.155,18.616-6.702,27.3
		C396.863,401.166,420.416,434.425,443.318,469.926L443.318,469.926z"/>
	<path fill-rule="evenodd" clip-rule="evenodd" fill="#FFFFFF" d="M185.397,332.994c0,5.625-0.18,13.546,1.327,17.648
		c0.605,1.627,6.748,14.943,6.748,14.943c0,0.56-25.689,36.109-28.411,40.8c-3.893,6.723-9.623,15.152-13.617,22.026
		c-3.818,6.543-12.039,11.639-15.553,18.286l138.032,55.385l136.359-55.689l-55.827-81.671c2.912-5.529,7.87-19.254,7.87-27.425
		v-5.45c0-12.402-5.601-22.514-17.502-22.514c-8.021,0-9.423,4.382-14.238,7.945c-2.12,1.553-15.749,11.409-16.309,13.421
		c-0.751,0-14.363-4.378-16.759-5.041c-4.891-1.352-13.279-2.445-19.347-2.445h-9.543c-5.805,0-12.085,1.807-17.13,2.85
		c-2.696,0.559-16.467,4.177-16.592,4.177c-0.359,0-16.571-21.107-29.628-21.107l-2.162-0.459c-5.571,0-10.896,3.255-13.212,6.772
		C186.825,320.079,185.397,325.378,185.397,332.994L185.397,332.994z"/>
	<path fill-rule="evenodd" clip-rule="evenodd" fill="#010101" d="M322.783,448.279l0.167,0.021l-13.379,12.248l41.38-30.556
		c-1.577-2.37-14.897-11.259-18.27-13.041c-5.049-2.649-15.841-8.425-22.943-8.425h-4.09c-9.757,0-15.657,6.514-19.071,12.958
		c-2.979-1.982-9.543-15.253-9.543-20.778v-1.043c0-6.368,3.613-8.609,5.671-13.729c1.937-4.757,3.414-9.343,5.325-14.104
		c1.903-4.637,3.681-9.527,5.317-14.113c0.817-2.392,1.836-4.937,2.721-7.153c1.068-2.75,0.968-5.066,4.808-5.066h4.773
		c5.926,0,14.271,4.248,18.27,6.568c6.01,3.488,9.648,7.027,14.765,10.466c1.878-1.373,7.478-11.538,8.863-14.313
		c2.129-4.277,5.434-11.48,5.434-17.723v-5.45c0-4.708-3.163-8.046-5.083-10.921c7.003,0.584,10.541,8.479,10.541,16.371v2.371
		c0,5.525-2.236,15.891-3.872,19.989c-0.71,1.782-6.669,17.088-6.669,17.164c0,0.484,15.983,22.769,17.619,24.625
		c1.911,2.191,17.435,23.453,17.777,24.73l-11.435,1.068l14.172,10.011l-14.364-0.968l27.643,12.094l-23.895,0.254l10.699,3.389
		l-13.012,3.459l14.189,0.844l-113.012,45.299l-113.061-45.045l14.351-1.247l-13.053-3.435l10.971-3.518l-24.232-0.101
		l27.646-12.147l-14.41,0.863l14.051-9.953l-11.275-1.177l35.813-49.046c-3.414-7.127-10.563-25.514-10.563-35.446V328.1
		c0-6.185,4.758-13.826,10.563-13.976c-2.696,4.019-5.45,6.084-5.45,13.291v3.08c0,4.996,3.739,13.955,5.55,17.598
		c1.448,2.879,2.575,4.761,4.173,7.411c1.402,2.291,3.539,5.066,4.578,7.027c7.921-5.295,21.921-17.394,34.395-17.394h1.703
		c4.832,0,4.832,0.589,6.13,3.748c0.973,2.341,1.79,4.836,2.729,7.152c1.882,4.611,3.718,9.757,5.416,14.364
		c1.757,4.812,3.439,9.598,5.371,14.389c1.582,3.848,1.252,3.338,3.389,6.493c1.068,1.552,2.521,4.916,2.521,7.361v1.703
		c0,6.164-6.264,18.925-9.544,21.137c-3.435-6.519-9.164-12.958-19.066-12.958h-2.721c-7.662,0-18.662,5.012-23.649,8.042
		c-4.503,2.754-16.137,9.757-18.578,13.425l40.929,30.405l-12.294-11.739l14.197,6.063l-6.79-6.702l0.38-0.309
		c0.021-0.021,4.127,2.575,4.653,2.854c0.897,0.484,4.586,2.6,5.225,2.6c1.089,0,15.499-17.469,18.554-19.459l7.328,23.562
		c-5.112,2.721-10.537,5.979-10.537,13.625v0.685c0,6.943,6.644,14.664,12.932,14.664h3.076c6.927,0,13.621-7.152,13.621-14.314
		c0-7.252-4.857-13.341-10.767-14.714l7.353-23.456c2.83,1.886,17.544,19.408,18.412,19.408c0.918,0,9.063-4.736,9.915-5.504
		l0.267,0.388l-6.701,6.673L322.783,448.279z M295.082,420.466c0-4.177,4.707-8.529,8.855-8.529h1.01
		c4.057,0,8.863,4.402,8.863,8.529v2.036c0,3.844-4.598,8.534-8.162,8.534h-2.036c-3.655,0-8.53-4.511-8.53-7.845V420.466z
		 M235.132,419.782c0-3.389,5.066-7.845,8.526-7.845h1.711c4.119,0,8.5,4.791,8.5,9.548c0,5.324-4.228,9.552-9.544,9.552
		c-4.94,0-9.193-3.793-9.193-8.863V419.782z M183.695,332.865c0,5.629,1.523,13.675,3.03,17.777
		c0.605,1.627,5.496,14.943,5.496,14.943l-58.239,81.467l140.073,57.066L415.242,448.2l-58.482-82.965
		c2.922-5.529,8.488-20.452,8.488-28.602v-5.45c0-12.424-8.521-25.239-20.423-25.239c-8.021,0-13.045,4.816-17.844,8.409
		c-2.12,1.552-11.943,11.38-12.485,13.416c-0.76-0.021-14.348-4.402-16.743-5.066c-4.891-1.348-13.287-2.445-19.346-2.445h-9.543
		c-5.805,0-13.337,1.377-18.383,2.42c-2.671,0.559-15.219,5.091-15.349,5.091c-0.351,0-16.896-21.825-29.979-21.825h-2.037
		c-5.571,0-11.914,5.425-14.23,8.939C185.807,319.52,183.695,325.274,183.695,332.865L183.695,332.865z"/>
	<path fill-rule="evenodd" clip-rule="evenodd" fill="#686867" d="M280.343,539.382c82.185-31.474,166.515-63.831,169.018-65.05
		c9.189-4.516,11.802-5.309,15.424-14.213c5.108-12.558,25.122-74.694,20.364-80.119c-2.229-2.496-19.713-3.614-19.713-3.614
		s-5.05,0-5.676,4.353c-0.609,4.357-7.277,59.232-18.479,77.189c-2.612,4.228-7.353,9.652-14.664,12.916
		c-3.589,1.568-77.827,30.305-152.692,59.199c1.678,0.434,3.23-0.034,4.841-0.034c0.38,0,3.455-0.275,2.316,0.551
		c-0.739,0.526-1.586,1.36-2.525,1.36c-0.505,0-1.298-0.074-1.682,0.209c-0.684,0.543,2.496-0.176,2.854-0.209
		c0.864-0.092-2.675,2.396-2.854,2.521c-0.634,0.517,1.757-0.293,2.316-0.401c1.402-0.317,3.389-0.793,4.532-1.569
		c0.1-0.083-0.384,0.275-0.943,0.602c-1.932,1.168-3.589,2.57-5.392,3.923c-0.514,0.384-2.091,1.159-0.739,0.434
		c1.782-1.026,4.557-1.436,6.54-1.911c0.483-0.125-6.849,3.897-3.693,2.955c0.358-0.101,2.75-0.894,2.649-0.443
		C282.046,538.497,279.55,539.615,280.343,539.382L280.343,539.382z"/>
	<g>
		<defs>
			<path id="SVGID_1_" d="M280.343,539.382c82.185-31.474,166.515-63.831,169.018-65.05c9.189-4.516,11.802-5.309,15.424-14.213
				c5.108-12.558,25.122-74.694,20.364-80.119c-2.229-2.496-19.713-3.614-19.713-3.614s-5.05,0-5.676,4.353
				c-0.609,4.357-7.277,59.232-18.479,77.189c-2.612,4.228-7.353,9.652-14.664,12.916c-3.589,1.568-77.827,30.305-152.692,59.199
				c1.678,0.434,3.23-0.034,4.841-0.034c0.38,0,3.455-0.275,2.316,0.551c-0.739,0.526-1.586,1.36-2.525,1.36
				c-0.505,0-1.298-0.074-1.682,0.209c-0.684,0.543,2.496-0.176,2.854-0.209c0.864-0.092-2.675,2.396-2.854,2.521
				c-0.634,0.517,1.757-0.293,2.316-0.401c1.402-0.317,3.389-0.793,4.532-1.569c0.1-0.083-0.384,0.275-0.943,0.602
				c-1.932,1.168-3.589,2.57-5.392,3.923c-0.514,0.384-2.091,1.159-0.739,0.434c1.782-1.026,4.557-1.436,6.54-1.911
				c0.483-0.125-6.849,3.897-3.693,2.955c0.358-0.101,2.75-0.894,2.649-0.443C282.046,538.497,279.55,539.615,280.343,539.382
				L280.343,539.382z"/>
		</defs>
		<clipPath id="SVGID_2_">
			<use xlink:href="#SVGID_1_"  overflow="visible"/>
		</clipPath>
		
			<path clip-path="url(#SVGID_2_)" fill-rule="evenodd" clip-rule="evenodd" fill="#FFFFFF" stroke="#010101" stroke-width="0.2037" stroke-miterlimit="10" d="
			M476.485,441.578l-29.345-13.087l-2.354,10.312l29.387,13.115L476.485,441.578z M479.999,426.096l-29.378-13.116l-2.32,10.341
			l29.354,13.111L479.999,426.096z M483.479,410.714l-19.488-8.709l20.474,4.407l2.312-10.341l-30.822-6.644l-1.836,8.171
			l-0.509,2.166l-1.837,8.15l29.379,13.116L483.479,410.714z"/>
	</g>
	<path fill-rule="evenodd" clip-rule="evenodd" fill="#686867" d="M265.449,526.763c-77.456-31.632-155.572-63.589-155.572-63.589
		l-4.528,8.854c2.291,1.019,81.141,34.152,158.368,65.927c-0.739-0.376,1.857,0.518,2.216,0.267
		c0.405-0.267-1.882-1.353-2.191-1.511c-2.955-1.511,5.145,0.635,4.708,0.393c-1.803-1.002-4.073-2.596-6.056-3.113
		c-1.498-0.384,0.18,0.125,0.818,0.2c2.236,0.251,4.398,0.376,6.589,0.843c0.639,0.159,1.244,0.2,1.123,0.2
		c-1.377-0.2-3.159-1.193-4.378-1.961c-0.459-0.309-2.775-1.353-1.99-1.302c0.259,0.033,4.532,0.634,3.818,0.142
		c-0.28-0.233-3.08-1.895-2.216-1.819c0.488,0.059,1.018,0.668,1.377,0.993c0.688,0.667,1.886,0.634,2.771,0.743
		c1.402,0.175-1.039-1.703-1.318-1.953C267.815,528.94,266.393,528.206,265.449,526.763L265.449,526.763z"/>
	<g>
		<defs>
			<path id="SVGID_3_" d="M265.449,526.763c-77.456-31.632-155.572-63.589-155.572-63.589l-4.528,8.854
				c2.291,1.019,81.141,34.152,158.368,65.927c-0.739-0.376,1.857,0.518,2.216,0.267c0.405-0.267-1.882-1.353-2.191-1.511
				c-2.955-1.511,5.145,0.635,4.708,0.393c-1.803-1.002-4.073-2.596-6.056-3.113c-1.498-0.384,0.18,0.125,0.818,0.2
				c2.236,0.251,4.398,0.376,6.589,0.843c0.639,0.159,1.244,0.2,1.123,0.2c-1.377-0.2-3.159-1.193-4.378-1.961
				c-0.459-0.309-2.775-1.353-1.99-1.302c0.259,0.033,4.532,0.634,3.818,0.142c-0.28-0.233-3.08-1.895-2.216-1.819
				c0.488,0.059,1.018,0.668,1.377,0.993c0.688,0.667,1.886,0.634,2.771,0.743c1.402,0.175-1.039-1.703-1.318-1.953
				C267.815,528.94,266.393,528.206,265.449,526.763L265.449,526.763z"/>
		</defs>
		<clipPath id="SVGID_4_">
			<use xlink:href="#SVGID_3_"  overflow="visible"/>
		</clipPath>
		
			<path clip-path="url(#SVGID_4_)" fill-rule="evenodd" clip-rule="evenodd" fill="#FFFFFF" stroke="#010101" stroke-width="0.2037" stroke-miterlimit="10" d="
			M473.506,601.427l-12.394-29.695l-8.78,5.909l12.386,29.688L473.506,601.427z M486.668,592.53l-12.369-29.688l-8.788,5.909
			l12.377,29.721L486.668,592.53z M499.755,583.717l-8.204-19.681l11.843,17.243l8.78-5.942l-17.869-25.974l-6.919,4.666
			l-1.87,1.243l-6.918,4.666l12.377,29.687L499.755,583.717z"/>
	</g>
	<g>
		<path fill="#FFFFFF" d="M133.372,448.964l5.316,2.203c1.694,0.701,2.729,1.606,3.088,2.696c0.367,1.089,0.129,2.637-0.705,4.657
			c-0.396,0.951-0.831,1.694-1.314,2.229c-0.468,0.538-0.968,0.826-1.478,0.876l-2.22,9.544l-4.173-1.728l2.345-8.547l-0.985-0.404
			l-3.364,8.116l-3.964-1.644L133.372,448.964z M134.382,457.385l0.659,0.275c0.609,0.251,1.06,0.293,1.377,0.126
			c0.313-0.167,0.622-0.63,0.935-1.394c0.267-0.635,0.342-1.136,0.238-1.494c-0.096-0.359-0.396-0.643-0.889-0.848l-0.802-0.33
			L134.382,457.385z"/>
	</g>
	<g>
		<path fill="#FFFFFF" d="M138.396,472.362l7.453-18.007l8.112,3.359l-1.419,3.426l-4.14-1.719l-1.269,3.059l3.989,1.652
			l-1.406,3.405l-3.989-1.652l-1.945,4.69l4.323,1.795l-1.415,3.43L138.396,472.362z"/>
	</g>
	<g>
		<path fill="#FFFFFF" d="M155.64,457.878l3.973,1.647l-7.453,18.003l-3.973-1.644L155.64,457.878z"/>
	</g>
	<g>
		<path fill="#FFFFFF" d="M161.887,460.557l3.681,1.527c0.121,0.764,0.212,1.632,0.258,2.583c0.046,0.952,0.059,1.986,0.021,3.089
			l1.966-4.741l3.947,1.636l-7.453,17.994l-3.947-1.636l1.456-3.522c0.634-1.519,1.085-3.055,1.335-4.606
			c0.254-1.536,0.326-3.071,0.192-4.624l-4.945,11.952l-3.964-1.653L161.887,460.557z"/>
	</g>
	<g>
		<path fill="#FFFFFF" d="M174.355,465.886l3.965,1.652l-7.453,17.994l-3.965-1.644L174.355,465.886z"/>
	</g>
	<g>
		<path fill="#FFFFFF" d="M178.003,474.299c0.922-2.221,1.949-3.622,3.084-4.207c1.139-0.584,2.612-0.5,4.415,0.234
			c1.811,0.751,2.917,1.735,3.305,2.963c0.384,1.21,0.125,2.93-0.797,5.149l-0.534,1.285l-4.031-1.669l0.918-2.203
			c0.301-0.735,0.426-1.219,0.372-1.478c-0.067-0.259-0.284-0.459-0.651-0.618c-0.376-0.158-0.672-0.175-0.881-0.05
			c-0.217,0.125-0.459,0.526-0.738,1.202l-0.221,0.525l-3.301,7.979c-0.283,0.685-0.392,1.152-0.325,1.395
			c0.059,0.242,0.279,0.442,0.647,0.592c0.375,0.159,0.68,0.168,0.897,0.025c0.217-0.142,0.476-0.576,0.789-1.327l0.163-0.4
			l1.123-2.712l4.031,1.66l-0.906,2.188c-0.918,2.22-1.949,3.639-3.08,4.223c-1.135,0.576-2.612,0.492-4.424-0.259
			c-1.803-0.743-2.904-1.728-3.296-2.946c-0.388-1.219-0.125-2.938,0.792-5.158L178.003,474.299z"/>
	</g>
	<g>
		<path fill="#FFFFFF" d="M191.52,494.413c1.076-2.654,1.798-4.624,2.161-5.942c0.359-1.303,0.476-2.271,0.326-2.904
			c-0.213,0.092-0.543,0.208-1.002,0.333c-0.146,0.059-0.271,0.101-0.359,0.134l-3.129,7.545l-3.89-1.619l7.453-17.994l3.89,1.619
			l-2.913,7.035c0.81-0.358,1.661-1.093,2.529-2.194c0.885-1.102,1.686-2.438,2.387-4.022l3.981,1.652
			c-0.042,0.1-0.087,0.217-0.125,0.334c-0.029,0.116-0.054,0.166-0.058,0.184c-0.53,1.276-1.185,2.42-1.949,3.404
			c-0.776,1.002-1.615,1.803-2.563,2.421c0.238,0.868,0.146,2.271-0.259,4.206c-0.409,1.937-1.076,4.023-1.999,6.243l-0.5,1.219
			L191.52,494.413z"/>
	</g>
	<g>
		<path fill="#FFFFFF" d="M197.203,496.416l7.453-17.994l8.112,3.355l-1.419,3.422l-4.14-1.72l-1.269,3.071l3.989,1.652
			l-1.406,3.389l-3.989-1.652l-1.944,4.707l4.323,1.786l-1.415,3.422L197.203,496.416z"/>
	</g>
	<g>
		<path fill="#FFFFFF" d="M214.446,482.861l3.689,1.536c0.125,0.768,0.208,1.619,0.258,2.579c0.051,0.96,0.051,1.986,0.021,3.096
			l1.965-4.748l3.948,1.636l-7.453,18.003l-3.948-1.637l1.46-3.521c0.63-1.536,1.072-3.072,1.331-4.607
			c0.255-1.535,0.326-3.08,0.192-4.624l-4.945,11.936l-3.973-1.636L214.446,482.861z"/>
	</g>
	<g>
		<path fill="#FFFFFF" d="M226.915,488.187l5.325,2.203c1.619,0.668,2.633,1.544,3.051,2.612c0.417,1.077,0.275,2.463-0.43,4.165
			l-3.434,8.296c-0.71,1.703-1.586,2.788-2.629,3.247c-1.047,0.459-2.375,0.358-4.01-0.325l-5.325-2.204L226.915,488.187z
			 M229.469,493.253l-4.62,11.158l0.676,0.268c0.493,0.208,0.864,0.259,1.131,0.15c0.255-0.101,0.543-0.534,0.852-1.302l0.188-0.451
			l3.03-7.312c0.313-0.751,0.417-1.269,0.321-1.535c-0.117-0.251-0.409-0.501-0.901-0.701L229.469,493.253z"/>
	</g>
	<g>
		<path fill="#FFFFFF" d="M236.806,498.369c0.922-2.221,1.953-3.623,3.084-4.207c1.139-0.584,2.612-0.5,4.415,0.242
			c1.811,0.751,2.908,1.728,3.305,2.955c0.388,1.21,0.125,2.93-0.797,5.149l-2.646,6.401c-0.918,2.22-1.953,3.631-3.084,4.215
			c-1.14,0.576-2.612,0.5-4.424-0.25c-1.803-0.752-2.9-1.736-3.296-2.955c-0.388-1.219-0.121-2.938,0.797-5.158L236.806,498.369z
			 M241.045,499.504l-3.301,7.979c-0.283,0.685-0.388,1.152-0.321,1.395c0.055,0.242,0.275,0.442,0.643,0.592
			c0.376,0.168,0.685,0.168,0.894,0.025c0.221-0.142,0.484-0.576,0.793-1.327l0.162-0.4l3.251-7.846
			c0.301-0.734,0.426-1.218,0.367-1.477c-0.063-0.259-0.279-0.46-0.646-0.609c-0.376-0.167-0.672-0.184-0.881-0.05
			c-0.217,0.116-0.459,0.517-0.738,1.193L241.045,499.504z"/>
	</g>
	<g>
		<path fill="#FFFFFF" d="M250.96,498.002l5.325,2.203c1.694,0.701,2.729,1.603,3.088,2.688c0.363,1.102,0.129,2.646-0.706,4.657
			c-0.392,0.951-0.826,1.702-1.314,2.236c-0.476,0.534-0.968,0.826-1.477,0.885l-2.22,9.531l-4.173-1.719l2.337-8.547l-0.977-0.417
			l-3.363,8.129l-3.973-1.652L250.96,498.002z M251.971,506.414l0.667,0.284c0.609,0.251,1.06,0.292,1.377,0.125
			c0.313-0.167,0.622-0.626,0.939-1.394c0.263-0.635,0.342-1.135,0.238-1.485c-0.097-0.367-0.401-0.651-0.894-0.852l-0.81-0.334
			L251.971,506.414z"/>
	</g>
	<g>
		<path fill="#FFFFFF" d="M255.993,520.453l7.453-18.012l7.929,3.289l-1.419,3.422l-3.964-1.645l-1.265,3.063l3.797,1.569
			l-1.406,3.405l-3.797-1.577l-3.363,8.121L255.993,520.453z"/>
	</g>
	<g>
		<path fill="#FFFFFF" d="M299.981,496.583l5.358-2.104c1.719-0.668,3.071-0.734,4.09-0.2c1.018,0.534,1.919,1.803,2.721,3.839
			c0.384,0.952,0.584,1.803,0.601,2.521c0.033,0.718-0.134,1.27-0.45,1.652l5.008,8.43l-4.207,1.637l-4.24-7.779l-0.984,0.385
			l3.205,8.195l-4.006,1.569L299.981,496.583z M306.541,501.949l0.668-0.259c0.618-0.242,0.969-0.534,1.085-0.868
			c0.101-0.334,0-0.885-0.3-1.652c-0.251-0.65-0.534-1.052-0.852-1.235c-0.334-0.2-0.734-0.2-1.235,0l-0.801,0.317L306.541,501.949z
			"/>
	</g>
	<g>
		<path fill="#FFFFFF" d="M319.178,510.421l-1.386-3.556c-1.335-3.422-2.203-6.393-2.62-8.914c-0.4-2.52-0.367-4.832,0.083-6.91
			l3.589-1.419c1.753,1.252,3.339,2.938,4.758,5.058c1.436,2.129,2.804,4.891,4.139,8.288l1.386,3.547l-4.006,1.569l-1.185-2.988
			l-1.953,0.768l1.168,2.988L319.178,510.421z M320.646,502.459l1.953-0.769c-0.701-1.719-1.386-3.205-2.07-4.481
			c-0.701-1.269-1.368-2.313-2.02-3.13c0.051,1.052,0.268,2.271,0.635,3.672C319.495,499.162,319.996,500.723,320.646,502.459z"/>
	</g>
	<g>
		<path fill="#FFFFFF" d="M326.105,492.71c-0.885-2.236-1.119-3.956-0.701-5.166c0.417-1.21,1.535-2.17,3.354-2.88
			c1.819-0.717,3.288-0.775,4.424-0.166c1.118,0.601,2.12,2.02,3.005,4.256l0.5,1.303l-4.056,1.594l-0.868-2.229
			c-0.283-0.734-0.534-1.168-0.768-1.318c-0.217-0.143-0.518-0.134-0.885,0.017c-0.384,0.149-0.602,0.333-0.668,0.567
			c-0.066,0.233,0.033,0.701,0.301,1.369l0.2,0.533l3.155,8.046c0.267,0.685,0.517,1.102,0.734,1.235
			c0.217,0.134,0.5,0.125,0.885-0.017c0.367-0.15,0.584-0.351,0.65-0.618c0.066-0.25-0.066-0.759-0.351-1.502l-0.167-0.4
			l-1.068-2.737l4.057-1.586l0.867,2.187c0.885,2.254,1.103,3.973,0.701,5.175c-0.417,1.219-1.535,2.17-3.354,2.888
			c-1.837,0.718-3.306,0.776-4.424,0.167c-1.135-0.601-2.12-2.02-3.005-4.273L326.105,492.71z"/>
	</g>
	<g>
		<path fill="#FFFFFF" d="M337.689,488.245c-0.885-2.237-1.102-3.956-0.701-5.166c0.417-1.219,1.535-2.171,3.355-2.888
			c1.836-0.719,3.305-0.769,4.423-0.167c1.136,0.617,2.12,2.036,3.005,4.272l0.501,1.285l-4.057,1.595l-0.868-2.229
			c-0.283-0.726-0.533-1.169-0.768-1.311c-0.217-0.158-0.501-0.142-0.885,0c-0.367,0.15-0.601,0.343-0.668,0.585
			c-0.066,0.225,0.034,0.692,0.301,1.359l0.217,0.552l3.139,8.028c0.267,0.685,0.518,1.102,0.734,1.235s0.501,0.117,0.885-0.024
			c0.367-0.143,0.601-0.343,0.65-0.609c0.067-0.234-0.05-0.752-0.35-1.503l-0.15-0.4l-1.068-2.737l4.056-1.586l0.852,2.203
			c0.885,2.237,1.118,3.956,0.701,5.175c-0.417,1.202-1.536,2.17-3.355,2.88c-1.819,0.717-3.288,0.775-4.423,0.166
			c-1.119-0.608-2.12-2.027-3.005-4.272L337.689,488.245z"/>
	</g>
	<g>
		<path fill="#FFFFFF" d="M350.158,483.788c-0.867-2.245-1.102-3.964-0.701-5.183c0.418-1.202,1.536-2.17,3.372-2.88
			c1.819-0.709,3.288-0.776,4.407-0.158c1.135,0.601,2.137,2.02,3.004,4.272l2.521,6.428c0.885,2.253,1.118,3.973,0.7,5.19
			c-0.417,1.202-1.535,2.17-3.354,2.88c-1.82,0.709-3.289,0.775-4.424,0.158c-1.118-0.601-2.12-2.02-3.005-4.273L350.158,483.788z
			 M354.015,481.66l3.138,8.045c0.284,0.685,0.518,1.103,0.734,1.236c0.217,0.133,0.518,0.116,0.885-0.025
			c0.385-0.143,0.602-0.351,0.668-0.609c0.05-0.25-0.066-0.751-0.367-1.502l-0.15-0.401l-3.104-7.912
			c-0.284-0.734-0.534-1.177-0.751-1.318c-0.234-0.15-0.518-0.134-0.885,0.009c-0.385,0.149-0.618,0.333-0.685,0.575
			c-0.067,0.233,0.033,0.701,0.3,1.369L354.015,481.66z"/>
	</g>
	<g>
		<path fill="#FFFFFF" d="M361.76,479.34c-0.868-2.236-1.102-3.965-0.685-5.175s1.536-2.17,3.355-2.888s3.288-0.768,4.423-0.167
			c1.119,0.618,2.12,2.036,2.988,4.273l2.537,6.443c0.868,2.236,1.102,3.956,0.685,5.175c-0.4,1.21-1.519,2.17-3.339,2.887
			c-1.836,0.71-3.305,0.769-4.423,0.159c-1.136-0.609-2.137-2.028-3.005-4.265L361.76,479.34z M365.615,477.22l3.155,8.029
			c0.267,0.685,0.501,1.102,0.718,1.235c0.217,0.133,0.518,0.125,0.885-0.018c0.384-0.149,0.601-0.35,0.668-0.617
			c0.05-0.233-0.067-0.751-0.352-1.502l-0.166-0.4l-3.088-7.912c-0.301-0.727-0.551-1.169-0.769-1.311
			c-0.217-0.15-0.518-0.143-0.885,0.008c-0.384,0.15-0.601,0.334-0.667,0.576c-0.067,0.226,0.033,0.692,0.283,1.36L365.615,477.22z"
			/>
	</g>
	<g>
		<path fill="#FFFFFF" d="M372.109,468.072l3.722-1.469c0.618,0.467,1.285,1.035,1.97,1.678c0.701,0.659,1.419,1.394,2.153,2.229
			l-1.869-4.791l3.989-1.553l7.094,18.128l-3.973,1.569l-1.402-3.556c-0.601-1.535-1.335-2.938-2.22-4.239
			c-0.885-1.285-1.903-2.438-3.071-3.455l4.724,12.018l-4.006,1.569L372.109,468.072z"/>
	</g>
	<g>
		<path fill="#FFFFFF" d="M392.907,467.171l-0.4-1.035c-0.217-0.559-0.484-0.935-0.784-1.126c-0.317-0.192-0.668-0.201-1.086-0.042
			c-0.3,0.125-0.517,0.3-0.634,0.567c-0.134,0.25-0.134,0.518-0.017,0.826c0.233,0.567,1.603,1.235,4.106,2.012
			c0.483,0.133,0.851,0.25,1.102,0.334c1.085,0.316,1.97,0.801,2.638,1.452c0.667,0.65,1.234,1.569,1.702,2.737
			c0.685,1.77,0.784,3.238,0.284,4.44c-0.484,1.21-1.586,2.136-3.271,2.804c-1.736,0.685-3.188,0.768-4.341,0.234
			c-1.135-0.518-2.069-1.687-2.771-3.506l-0.868-2.203l4.056-1.586l0.802,2.02c0.267,0.71,0.551,1.186,0.852,1.436
			c0.284,0.251,0.617,0.301,0.984,0.158c0.301-0.116,0.501-0.342,0.567-0.634c0.067-0.309,0.034-0.668-0.133-1.093
			c-0.234-0.602-0.568-1.077-1.002-1.436c-0.434-0.367-1.201-0.734-2.304-1.119c-0.184-0.066-0.467-0.167-0.817-0.283
			c-3.055-1.052-4.925-2.421-5.575-4.073c-0.567-1.469-0.585-2.771-0.017-3.89c0.551-1.135,1.636-2.027,3.238-2.658
			c1.785-0.692,3.188-0.805,4.256-0.35c1.052,0.459,1.937,1.59,2.638,3.409l0.468,1.168L392.907,467.171z"/>
	</g>
</g>
</svg>
