<svg version="1.1" baseProfile="basic" id="Layer_1" xmlns="http://www.w3.org/2000/svg"
	xmlns:xlink="http://www.w3.org/1999/xlink" x="0px" y="0px" viewBox="-101.86 821.445 800 800" xml:space="preserve">
	<path fill="#126232" d="M589.263,1326.458l-333.521,127.289l-326.835-134.477c40.938-67.897,90.45-134.464,138.764-202.063
	c-2.114-5.88-4.606-12.657-6.481-17.625c-4.5-12.298-7.41-30.211-7.41-43.263c0-17.569,4.408-33.88,14.137-48.585
	c9.878-14.962,29.659-28.262,47.921-28.262h4.013c26.133,0,48.206,20.027,65.966,39.102c6.325-2.262,12.697-4.417,18.563-5.666
	c13.102-2.714,27.634-5.223,41.043-5.223h18.809c13.703,0,31.305,2.056,44.447,5.667c7.861,2.214,12.649,3.963,17.978,5.674
	c1.104-1.158,2.206-2.313,3.243-3.422c4.654-4.812,10.544-10.931,15.906-14.905c16.122-11.991,27.701-21.229,49.332-21.229
	c38.476,0,64.056,37.694,64.056,73.532v10.742c0,14.658-6.217,36.691-13.207,53.807
	C497.701,1190.936,544.125,1256.49,589.263,1326.458L589.263,1326.458z" />
	<path fill="#FFFFFF" d="M80.911,1056.572c0,11.087-0.354,26.698,2.616,34.784c1.193,3.207,13.3,29.451,13.3,29.451
	c0,1.103-50.631,71.168-55.998,80.415c-7.672,13.25-18.966,29.864-26.839,43.414c-7.524,12.896-23.729,22.939-30.654,36.04
	l272.056,109.161l268.757-109.762l-110.033-160.969c5.74-10.897,15.512-37.95,15.512-54.055v-10.74
	c0-24.444-11.038-44.375-34.495-44.375c-15.809,0-18.572,8.636-28.063,15.657c-4.177,3.063-31.039,22.489-32.144,26.454
	c-1.48,0-28.31-8.631-33.031-9.936c-9.639-2.664-26.172-4.819-38.131-4.819h-18.809c-11.443,0-23.819,3.561-33.762,5.616
	c-5.314,1.103-32.458,8.234-32.704,8.234c-0.707,0-32.66-41.603-58.396-41.603l-4.262-0.904c-10.979,0-21.475,6.417-26.04,13.347
	C83.727,1031.117,80.911,1041.56,80.911,1056.572L80.911,1056.572z" />
	<path fill="#010101" d="M351.693,1283.794l0.329,0.042l-26.369,24.141l81.559-60.226c-3.109-4.67-29.36-22.193-36.009-25.704
	c-9.951-5.222-31.222-16.606-45.221-16.606h-8.061c-19.23,0-30.858,12.84-37.587,25.541c-5.873-3.907-18.809-30.064-18.809-40.953
	v-2.056c0-12.551,7.12-16.967,11.177-27.06c3.817-9.376,6.729-18.415,10.494-27.798c3.751-9.139,7.256-18.778,10.48-27.816
	c1.611-4.714,3.619-9.731,5.363-14.098c2.105-5.42,1.909-9.985,9.478-9.985h9.406c11.679,0,28.128,8.373,36.01,12.946
	c11.846,6.873,19.015,13.849,29.101,20.626c3.701-2.705,14.738-22.739,17.47-28.21c4.195-8.431,10.709-22.627,10.709-34.931v-10.742
	c0-9.279-6.234-15.857-10.019-21.524c13.803,1.151,20.776,16.711,20.776,32.267v4.674c0,10.89-4.408,31.319-7.632,39.396
	c-1.399,3.515-13.145,33.68-13.145,33.83c0,0.954,31.503,44.878,34.727,48.535c3.768,4.318,34.363,46.225,35.039,48.742
	l-22.539,2.105l27.932,19.733l-28.312-1.91l54.484,23.837l-47.097,0.5l21.088,6.68l-25.646,6.817l27.967,1.667l-222.744,89.282
	l-222.838-88.782l28.285-2.46l-25.727-6.771l21.623-6.933l-47.759-0.2l54.488-23.94l-28.4,1.701l27.694-19.617l-22.224-2.321
	l70.587-96.665c-6.729-14.047-20.82-50.288-20.82-69.863v-12.76c0-12.189,9.378-27.25,20.82-27.545
	c-5.314,7.921-10.742,11.991-10.742,26.196v6.07c0,9.848,7.37,27.505,10.938,34.685c2.854,5.676,5.076,9.383,8.225,14.606
	c2.764,4.516,6.976,9.986,9.023,13.852c15.612-10.437,43.205-34.284,67.792-34.284h3.355c9.524,0,9.524,1.162,12.083,7.387
	c1.917,4.616,3.528,9.532,5.378,14.098c3.709,9.089,7.328,19.229,10.675,28.31c3.463,9.484,6.779,18.918,10.586,28.361
	c3.118,7.585,2.467,6.578,6.679,12.798c2.106,3.058,4.97,9.688,4.97,14.509v3.356c0,12.147-12.347,37.298-18.811,41.659
	c-6.771-12.85-18.062-25.541-37.579-25.541h-5.363c-15.102,0-36.782,9.88-46.612,15.853c-8.875,5.428-31.805,19.231-36.617,26.461
	l80.671,59.926l-24.231-23.136l27.98,11.949l-13.383-13.212l0.751-0.607c0.04-0.043,8.134,5.077,9.169,5.624
	c1.769,0.954,9.039,5.127,10.299,5.127c2.146,0,30.548-34.43,36.569-38.353l14.443,46.437
	c-10.076,5.366-20.768,11.788-20.768,26.854v1.352c0,13.685,13.094,28.902,25.488,28.902h6.063
	c13.652,0,26.847-14.097,26.847-28.214c0-14.293-9.574-26.292-21.221-28.998l14.492-46.232c5.578,3.718,34.579,38.252,36.29,38.252
	c1.809,0,17.861-9.335,19.542-10.848l0.525,0.766l-13.208,13.15L351.693,1283.794z M297.097,1228.975
	c0-8.232,9.275-16.81,17.452-16.81h1.99c7.997,0,17.469,8.676,17.469,16.81v4.013c0,7.576-9.062,16.822-16.087,16.822h-4.014
	c-7.202,0-16.811-8.892-16.811-15.463V1228.975L297.097,1228.975z M178.937,1227.627c0-6.681,9.984-15.462,16.805-15.462h3.372
	c8.117,0,16.753,9.443,16.753,18.82c0,10.49-8.334,18.824-18.811,18.824c-9.737,0-18.12-7.476-18.12-17.469V1227.627z
	 M77.556,1056.318c0,11.094,3.003,26.952,5.973,35.038c1.193,3.207,10.833,29.451,10.833,29.451l-114.787,160.569l276.079,112.476
	l278.273-110.212l-115.265-163.524c5.759-10.896,16.728-40.309,16.728-56.372v-10.74c0-24.489-16.793-49.748-40.252-49.748
	c-15.809,0-25.711,9.493-35.17,16.576c-4.179,3.057-23.54,22.428-24.607,26.442c-1.498-0.042-28.279-8.677-32.999-9.985
	c-9.641-2.656-26.188-4.819-38.129-4.819h-18.811c-11.441,0-26.287,2.714-36.232,4.77c-5.264,1.101-29.996,10.035-30.251,10.035
	c-0.693,0-33.302-43.019-59.088-43.019h-4.013c-10.981,0-23.482,10.694-28.047,17.619
	C81.719,1030.014,77.556,1041.354,77.556,1056.318L77.556,1056.318z" />
	<path fill="#686867" d="M268.046,1463.356c161.982-62.035,328.194-125.811,333.127-128.213c18.112-8.9,23.261-10.463,30.4-28.013
	c10.068-24.753,49.514-147.22,40.137-157.912c-4.393-4.92-38.854-7.123-38.854-7.123s-9.953,0-11.187,8.578
	c-1.201,8.589-14.344,116.745-36.423,152.138c-5.146,8.334-14.491,19.024-28.902,25.457
	c-7.073,3.091-153.394,59.733-300.948,116.679c3.307,0.854,6.365-0.065,9.541-0.065c0.749,0,6.81-0.542,4.565,1.086
	c-1.457,1.035-3.125,2.679-4.978,2.679c-0.995,0-2.558-0.146-3.314,0.412c-1.349,1.07,4.92-0.346,5.625-0.412
	c1.704-0.181-5.272,4.724-5.625,4.971c-1.249,1.02,3.463-0.578,4.564-0.79c2.764-0.627,6.681-1.563,8.933-3.095
	c0.198-0.161-0.756,0.543-1.859,1.189c-3.807,2.302-7.073,5.063-10.626,7.73c-1.012,0.758-4.121,2.286-1.457,0.854
	c3.513-2.021,8.983-2.83,12.89-3.766c0.953-0.246-13.499,7.681-7.277,5.825c0.704-0.2,5.42-1.764,5.22-0.874
	C271.403,1461.612,266.484,1463.814,268.046,1463.356L268.046,1463.356z" />
	<path fill="#FFFFFF"
		d="M669.839,1179.797l-50.651-10.917c-1.464,10.223-3.537,23.782-6.182,38.516l44.658,19.938
	c1.939-6.725,3.804-13.422,5.526-19.916l-33.183-14.828l35.075,7.55C666.925,1192.902,668.544,1186.03,669.839,1179.797z" />
	<path fill="#FFFFFF" d="M639.197,1286.111c1.999-5.854,4.19-12.456,6.468-19.524l-41.116-18.335
	c-1.663,6.902-3.438,13.646-5.323,20.021L639.197,1286.111z" />
	<path fill="#FFFFFF" d="M611.122,1217.554c-1.298,6.775-2.707,13.685-4.226,20.539l41.882,18.705
	c2.008-6.395,4.042-13.032,6.036-19.738L611.122,1217.554z" />
	<path fill="#686867" d="M238.692,1438.484c-152.663-62.348-306.627-125.333-306.627-125.333l-8.925,17.453
	c4.516,2.006,159.925,67.31,312.137,129.938c-1.457-0.739,3.659,1.021,4.367,0.527c0.799-0.527-3.709-2.668-4.317-2.979
	c-5.825-2.976,10.14,1.251,9.279,0.777c-3.555-1.979-8.028-5.119-11.938-6.136c-2.953-0.759,0.354,0.246,1.613,0.393
	c4.406,0.496,8.667,0.743,12.986,1.663c1.259,0.312,2.452,0.393,2.213,0.393c-2.714-0.393-6.227-2.353-8.628-3.865
	c-0.905-0.608-5.47-2.668-3.923-2.567c0.51,0.065,8.933,1.251,7.526,0.281c-0.552-0.458-6.071-3.734-4.369-3.584
	c0.962,0.115,2.007,1.316,2.716,1.955c1.355,1.316,3.717,1.251,5.46,1.467c2.764,0.343-2.048-3.356-2.598-3.85
	C243.353,1442.776,240.551,1441.329,238.692,1438.484L238.692,1438.484z" />
	<path fill="#FFFFFF" d="M-21.627,1285.145l10.477,4.343c3.339,1.382,5.38,3.164,6.086,5.313c0.724,2.147,0.254,5.196-1.39,9.177
	c-0.779,1.875-1.638,3.342-2.589,4.396c-0.922,1.059-1.907,1.628-2.914,1.725l-4.375,18.813l-8.224-3.407l4.621-16.845l-1.94-0.797
	l-6.631,15.998l-7.813-3.241L-21.627,1285.145z M-19.637,1301.741l1.299,0.543c1.199,0.496,2.088,0.577,2.714,0.25
	c0.616-0.331,1.226-1.243,1.842-2.749c0.527-1.251,0.674-2.24,0.47-2.944c-0.188-0.708-0.781-1.267-1.751-1.671l-1.582-0.65
	L-19.637,1301.741z" />
	<path fill="#FFFFFF" d="M-11.726,1331.263l14.69-35.493l15.989,6.621l-2.797,6.752l-8.161-3.388l-2.5,6.028l7.863,3.257l-2.772,6.71
	l-7.863-3.257l-3.834,9.247l8.521,3.537l-2.789,6.76L-11.726,1331.263z" />
	<path fill="#FFFFFF" d="M22.261,1302.714l7.83,3.245l-14.688,35.485l-7.832-3.241L22.261,1302.714z" />
	<path fill="#FFFFFF" d="M34.574,1307.993l7.254,3.01c0.239,1.505,0.418,3.219,0.51,5.093c0.09,1.875,0.116,3.915,0.041,6.086
	l3.875-9.342l7.78,3.226l-14.69,35.462l-7.78-3.223l2.87-6.94c1.251-2.995,2.138-6.024,2.631-9.081
	c0.5-3.025,0.643-6.052,0.379-9.111l-9.747,23.555l-7.813-3.257L34.574,1307.993z" />
	<path fill="#FFFFFF" d="M59.148,1318.498l7.814,3.257l-14.688,35.466l-7.816-3.241L59.148,1318.498z" />
	<path fill="#FFFFFF" d="M66.339,1335.078c1.817-4.377,3.842-7.137,6.078-8.292c2.245-1.151,5.149-0.985,8.702,0.462
	c3.568,1.482,5.749,3.418,6.513,5.84c0.756,2.387,0.247,5.774-1.57,10.151l-1.053,2.529l-7.945-3.288l1.81-4.342
	c0.595-1.447,0.841-2.402,0.733-2.914c-0.131-0.509-0.558-0.905-1.282-1.217c-0.741-0.312-1.324-0.347-1.736-0.1
	c-0.43,0.246-0.905,1.039-1.456,2.371l-0.435,1.031l-6.507,15.729c-0.556,1.348-0.772,2.271-0.639,2.749
	c0.116,0.477,0.549,0.869,1.274,1.166c0.739,0.312,1.339,0.331,1.769,0.05c0.428-0.281,0.938-1.136,1.556-2.617l0.319-0.786
	l2.213-5.347l7.945,3.272l-1.786,4.312c-1.809,4.377-3.84,7.172-6.071,8.322c-2.236,1.136-5.146,0.971-8.719-0.508
	c-3.553-1.467-5.722-3.407-6.496-5.81c-0.765-2.401-0.247-5.789,1.561-10.162L66.339,1335.078z" />
	<path fill="#FFFFFF" d="M92.979,1374.724c2.121-5.231,3.543-9.116,4.259-11.714c0.708-2.568,0.938-4.474,0.643-5.721
	c-0.419,0.181-1.07,0.408-1.975,0.654c-0.289,0.115-0.535,0.2-0.708,0.266l-6.167,14.871l-7.667-3.191l14.69-35.466l7.667,3.191
	l-5.742,13.865c1.598-0.708,3.274-2.155,4.985-4.326c1.744-2.172,3.322-4.805,4.704-7.927l7.847,3.257
	c-0.083,0.196-0.171,0.428-0.247,0.658c-0.058,0.228-0.107,0.327-0.115,0.362c-1.043,2.514-2.335,4.77-3.842,6.71
	c-1.528,1.975-3.182,3.553-5.051,4.773c0.47,1.709,0.287,4.473-0.51,8.287c-0.807,3.819-2.121,7.931-3.94,12.304l-0.985,2.406
	L92.979,1374.724z" />
	<path fill="#FFFFFF" d="M104.181,1378.669l14.688-35.466l15.989,6.614l-2.796,6.744l-8.159-3.392l-2.502,6.056l7.863,3.256
	l-2.771,6.68l-7.861-3.257l-3.833,9.277l8.521,3.519l-2.789,6.748L104.181,1378.669z" />
	<path fill="#FFFFFF" d="M138.165,1351.954l7.271,3.03c0.247,1.513,0.41,3.188,0.508,5.081c0.1,1.89,0.1,3.915,0.042,6.102
	l3.873-9.358l7.782,3.226l-14.69,35.481l-7.782-3.226l2.877-6.94c1.242-3.026,2.113-6.052,2.624-9.078
	c0.502-3.025,0.643-6.07,0.379-9.115l-9.747,23.524l-7.832-3.222L138.165,1351.954z" />
	<path fill="#FFFFFF" d="M162.742,1362.452l10.494,4.342c3.191,1.317,5.191,3.042,6.015,5.147c0.822,2.125,0.541,4.854-0.849,8.211
	l-6.767,16.349c-1.399,3.357-3.126,5.497-5.182,6.402c-2.063,0.904-4.681,0.704-7.903-0.644l-10.496-4.342L162.742,1362.452z
	 M167.776,1372.437l-9.106,21.992l1.332,0.528c0.972,0.407,1.704,0.508,2.229,0.296c0.504-0.2,1.07-1.055,1.681-2.567l0.369-0.89
	l5.973-14.412c0.618-1.479,0.822-2.499,0.633-3.026c-0.231-0.492-0.807-0.985-1.776-1.378L167.776,1372.437z" />
	<path fill="#FFFFFF" d="M182.237,1382.519c1.817-4.377,3.85-7.141,6.078-8.292c2.244-1.15,5.149-0.985,8.702,0.478
	c3.57,1.482,5.732,3.407,6.513,5.824c0.766,2.387,0.247,5.774-1.571,10.147l-5.214,12.619c-1.81,4.373-3.85,7.156-6.079,8.307
	c-2.248,1.136-5.148,0.986-8.719-0.492c-3.555-1.482-5.716-3.423-6.498-5.824c-0.764-2.402-0.236-5.79,1.573-10.167
	L182.237,1382.519z M190.592,1384.755l-6.506,15.729c-0.558,1.348-0.766,2.268-0.633,2.749c0.108,0.477,0.541,0.87,1.267,1.166
	c0.741,0.331,1.351,0.331,1.763,0.05c0.435-0.28,0.953-1.136,1.563-2.617l0.32-0.789l6.407-15.464
	c0.593-1.447,0.839-2.398,0.724-2.91c-0.125-0.512-0.551-0.904-1.274-1.201c-0.741-0.327-1.324-0.361-1.736-0.096
	c-0.427,0.227-0.904,1.016-1.455,2.348L190.592,1384.755z" />
	<path fill="#FFFFFF" d="M210.134,1381.795l10.496,4.343c3.337,1.382,5.378,3.16,6.086,5.297c0.714,2.175,0.254,5.216-1.392,9.181
	c-0.774,1.875-1.628,3.354-2.591,4.408c-0.938,1.051-1.908,1.628-2.911,1.743l-4.376,18.786l-8.225-3.388l4.606-16.85l-1.925-0.819
	l-6.629,16.021l-7.83-3.257L210.134,1381.795z M212.126,1398.375l1.314,0.562c1.201,0.493,2.088,0.574,2.714,0.247
	c0.618-0.331,1.226-1.236,1.852-2.749c0.518-1.251,0.674-2.236,0.468-2.926c-0.19-0.724-0.789-1.285-1.761-1.682l-1.597-0.658
	L212.126,1398.375z" />
	<path fill="#FFFFFF" d="M220.054,1426.046l14.688-35.501l15.629,6.482l-2.797,6.745l-7.813-3.242l-2.495,6.036l7.483,3.092
	l-2.77,6.713l-7.485-3.11l-6.627,16.007L220.054,1426.046z" />
	<path fill="#FFFFFF" d="M306.751,1379l10.562-4.149c3.388-1.316,6.052-1.443,8.061-0.393c2.006,1.051,3.782,3.553,5.362,7.568
	c0.757,1.874,1.151,3.553,1.186,4.966c0.064,1.416-0.266,2.506-0.887,3.257l9.87,16.614l-8.292,3.229l-8.357-15.332l-1.938,0.758
	l6.315,16.152l-7.896,3.092L306.751,1379z M319.68,1389.576l1.318-0.509c1.217-0.477,1.909-1.055,2.139-1.713
	c0.198-0.658,0-1.743-0.593-3.257c-0.495-1.281-1.051-2.07-1.679-2.433c-0.658-0.393-1.447-0.393-2.435,0l-1.578,0.624
	L319.68,1389.576z" />
	<path fill="#FFFFFF"
		d="M344.588,1406.275l-2.73-7.01c-2.632-6.745-4.343-12.6-5.165-17.569c-0.789-4.966-0.724-9.524,0.164-13.62
	l7.073-2.795c3.455,2.468,6.581,5.79,9.378,9.967c2.829,4.196,5.525,9.643,8.157,16.337l2.733,6.991l-7.897,3.091l-2.335-5.89
	l-3.85,1.517l2.302,5.886L344.588,1406.275z M347.482,1390.581l3.85-1.514c-1.383-3.391-2.731-6.316-4.081-8.834
	c-1.382-2.499-2.696-4.559-3.98-6.167c0.101,2.07,0.527,4.473,1.251,7.237C345.212,1384.083,346.199,1387.158,347.482,1390.581z" />
	<path fill="#FFFFFF" d="M358.24,1371.367c-1.743-4.407-2.205-7.799-1.382-10.182c0.822-2.387,3.026-4.276,6.611-5.678
	c3.584-1.413,6.481-1.528,8.72-0.327c2.204,1.186,4.179,3.98,5.923,8.388l0.985,2.567l-7.994,3.146l-1.711-4.396
	c-0.558-1.443-1.053-2.302-1.515-2.595c-0.428-0.284-1.021-0.266-1.744,0.031c-0.756,0.292-1.186,0.658-1.316,1.12
	c-0.129,0.458,0.065,1.378,0.593,2.694l0.395,1.052l6.219,15.859c0.526,1.352,1.019,2.172,1.448,2.434
	c0.427,0.266,0.985,0.246,1.743-0.035c0.724-0.293,1.151-0.689,1.28-1.217c0.131-0.492-0.129-1.497-0.691-2.96l-0.329-0.789
	l-2.105-5.394l7.997-3.125l1.708,4.311c1.745,4.442,2.175,7.83,1.382,10.198c-0.822,2.401-3.025,4.276-6.609,5.693
	c-3.621,1.412-6.518,1.528-8.72,0.327c-2.238-1.182-4.179-3.98-5.925-8.419L358.24,1371.367z" />
	<path fill="#FFFFFF" d="M381.073,1362.567c-1.744-4.411-2.171-7.799-1.382-10.182c0.821-2.402,3.025-4.281,6.613-5.693
	c3.618-1.417,6.514-1.517,8.717-0.327c2.239,1.212,4.179,4.011,5.923,8.419l0.987,2.532l-7.995,3.142l-1.711-4.393
	c-0.559-1.432-1.052-2.302-1.515-2.583c-0.428-0.312-0.988-0.281-1.744,0c-0.724,0.297-1.184,0.674-1.316,1.151
	c-0.129,0.446,0.067,1.366,0.593,2.679l0.429,1.09l6.187,15.821c0.525,1.352,1.021,2.172,1.447,2.434
	c0.426,0.266,0.987,0.23,1.744-0.047c0.724-0.28,1.184-0.673,1.279-1.201c0.133-0.458-0.098-1.481-0.688-2.96l-0.297-0.789
	l-2.104-5.394l7.993-3.125l1.681,4.342c1.744,4.408,2.202,7.795,1.38,10.197c-0.821,2.371-3.027,4.277-6.611,5.679
	c-3.586,1.412-6.48,1.527-8.717,0.327c-2.206-1.201-4.179-3.996-5.923-8.419L381.073,1362.567z" />
	<path fill="#FFFFFF" d="M405.648,1353.783c-1.709-4.427-2.171-7.814-1.382-10.217c0.825-2.367,3.027-4.277,6.646-5.678
	c3.586-1.397,6.48-1.528,8.687-0.309c2.236,1.182,4.211,3.98,5.92,8.419l4.97,12.669c1.744,4.438,2.204,7.83,1.38,10.229
	c-0.821,2.371-3.025,4.276-6.611,5.678c-3.588,1.397-6.482,1.528-8.719,0.312c-2.204-1.186-4.179-3.983-5.923-8.423
	L405.648,1353.783z M413.25,1349.586l6.185,15.856c0.561,1.351,1.022,2.175,1.447,2.437c0.428,0.262,1.021,0.228,1.744-0.05
	c0.758-0.281,1.186-0.689,1.316-1.201c0.099-0.493-0.131-1.479-0.724-2.96l-0.295-0.79l-6.118-15.594
	c-0.561-1.447-1.053-2.317-1.48-2.599c-0.46-0.293-1.02-0.262-1.744,0.02c-0.758,0.292-1.218,0.654-1.351,1.132
	c-0.131,0.462,0.065,1.382,0.593,2.698L413.25,1349.586z" />
	<path fill="#FFFFFF" d="M428.516,1345.013c-1.711-4.407-2.173-7.814-1.351-10.197c0.821-2.387,3.027-4.277,6.613-5.693
	c3.584-1.417,6.48-1.513,8.717-0.327c2.206,1.216,4.179,4.011,5.89,8.419l5.001,12.699c1.709,4.408,2.171,7.799,1.35,10.201
	c-0.79,2.383-2.993,4.277-6.581,5.689c-3.619,1.397-6.514,1.518-8.718,0.313c-2.24-1.201-4.213-3.996-5.922-8.404L428.516,1345.013z
	 M436.113,1340.836l6.22,15.825c0.525,1.348,0.987,2.172,1.414,2.434c0.428,0.262,1.022,0.246,1.744-0.035
	c0.759-0.292,1.186-0.689,1.316-1.217c0.101-0.458-0.131-1.481-0.692-2.96l-0.328-0.789L439.7,1338.5
	c-0.593-1.432-1.085-2.302-1.517-2.583c-0.427-0.296-1.02-0.28-1.743,0.016c-0.757,0.297-1.185,0.658-1.315,1.136
	c-0.131,0.446,0.065,1.362,0.559,2.68L436.113,1340.836z" />
	<path fill="#FFFFFF" d="M448.912,1322.805l7.336-2.895c1.218,0.92,2.532,2.04,3.884,3.307c1.382,1.301,2.797,2.748,4.242,4.393
	l-3.682-9.443l7.86-3.061l13.983,35.731l-7.832,3.092l-2.762-7.011c-1.186-3.021-2.631-5.789-4.377-8.354
	c-1.744-2.532-3.75-4.804-6.052-6.81l9.311,23.687l-7.896,3.095L448.912,1322.805z" />
	<path fill="#FFFFFF" d="M489.905,1321.031l-0.787-2.04c-0.43-1.102-0.955-1.845-1.546-2.222c-0.625-0.377-1.316-0.396-2.141-0.081
	c-0.591,0.247-1.02,0.589-1.249,1.117c-0.266,0.492-0.266,1.02-0.034,1.628c0.46,1.116,3.16,2.433,8.094,3.965
	c0.95,0.262,1.676,0.493,2.171,0.658c2.139,0.624,3.882,1.578,5.198,2.864c1.315,1.278,2.434,3.091,3.355,5.394
	c1.351,3.487,1.545,6.382,0.56,8.75c-0.952,2.387-3.125,4.211-6.445,5.527c-3.423,1.352-6.285,1.513-8.558,0.462
	c-2.236-1.023-4.077-3.326-5.461-6.909l-1.711-4.343l7.993-3.126l1.583,3.98c0.525,1.397,1.085,2.337,1.678,2.829
	c0.561,0.497,1.217,0.593,1.94,0.313c0.593-0.228,0.987-0.674,1.116-1.251c0.133-0.608,0.067-1.316-0.262-2.152
	c-0.46-1.186-1.118-2.125-1.975-2.829c-0.854-0.724-2.367-1.447-4.541-2.206c-0.363-0.131-0.92-0.331-1.61-0.559
	c-6.021-2.074-9.707-4.773-10.989-8.029c-1.116-2.896-1.152-5.459-0.032-7.665c1.085-2.236,3.224-3.995,6.383-5.239
	c3.519-1.362,6.282-1.586,8.388-0.688c2.073,0.904,3.816,3.133,5.199,6.717l0.922,2.303L489.905,1321.031z" />
</svg>
