<?xml version="1.0" encoding="utf-8"?>
<!-- Generator: Adobe Illustrator 16.0.0, SVG Export Plug-In . SVG Version: 6.00 Build 0)  -->
<!DOCTYPE svg PUBLIC "-//W3C//DTD SVG 1.1//EN" "http://www.w3.org/Graphics/SVG/1.1/DTD/svg11.dtd">
<svg version="1.1" id="Layer_1" xmlns="http://www.w3.org/2000/svg" xmlns:xlink="http://www.w3.org/1999/xlink" x="0px" y="0px"
	 width="595.28px" height="841.89px" viewBox="0 0 595.28 841.89" enable-background="new 0 0 595.28 841.89" xml:space="preserve">
<g>
	<path fill-rule="evenodd" clip-rule="evenodd" fill="#EAEAE8" d="M208.717,421.807c-1.142,11.186-9.822,20.04-21.464,19.985
		l-2.399,0.543c-0.028-3.205,3.172-1.75,5.48-4.55l-1.092-1.008l-1.989-3.486l-2.413,0.027l1.377,4.356l-2.334,0.073l-0.631-0.971
		l-1.764-2.791l-3.726-0.193l-0.042,1.036l2.22,3.325l-2.049,0.082l-1.128-1.947l-1.146-1.893l-2.349-0.125l-1.929,0.042
		l0.438,3.435l-2.012-2.961h-2.487h-1.994l0.488,2.998l-0.028,1.031l3.035,4.965l6.879,2.827l-4.886,2.671l-6.995,8.004
		c1.81,6.014,15.615,2.754,19.972,0.985c5.24-2.118,14.16-8.603,16.987-9.486c1.741-1.161,3.03-3.592,4.895-3.905l-0.898,2.893
		c5.245,7.92,16.5-14.262,17.563-17.531c1.625-5.029-1.248-7.972-5.254-11.296C206.382,410.073,210.066,419.692,208.717,421.807
		L208.717,421.807z"/>
	<path fill-rule="evenodd" clip-rule="evenodd" fill="#EAEAE8" d="M181.755,387.334l0.046,1.418
		c3.877,0.207,9.634-2.422,14.929-2.422h6l4.572,0.534l0.143,0.612l-3.219,4.347c-0.575,2.404-5.231,12.323-7.041,13.548
		l-15.556-7.957l3.141-3.412c-1.925-0.751-2.491-1.115-4.517-1.17l-1.543-0.051l-7.488,4.918c0.143,0.424,7.617,14.308,8.1,15.059
		l-0.069,2.546l0.014,1.501l-3.979,0.584l-2.519-0.097l-4.476-0.599c0.825,3.284,3.357,3.638,2.86,8.5
		c-2.049,1.948-6.097,4.932-6.369,8.096h2.491l1.907-0.027l1.142-5.503l0.475,2.026l-0.028,2.997h3.993v-1.496v-0.981l1.501-2.51
		l0.392-0.584l1.52,0.124l-1.11,4.808l3.698,0.152c0-2.128,0.212-3.556,1.487-5.002l2.404-0.543l0.115,2.04l-0.014,0.507
		l0.028,1.906l1.971,0.083v-1.501l0.985-2.492l2.652-2.33c-3.541-5.189-8.625-9.113-8.639-16.145l0.046-1.05l-1.124-1.391
		l2.256-5.314l1.326,1.746l7.686,11.719c10.163-1.188,16.748-9.458,26.258-11.719l-2.984-4.987h-2.998l-1.003-0.502
		c-1.322-2.058,0.626-4.674-2.33-9.661c-0.93-1.603-3.859-4.844-5.277-6.709l-3.38-0.12
		C193.801,380.832,186.94,383.936,181.755,387.334L181.755,387.334z"/>
	<path fill-rule="evenodd" clip-rule="evenodd" fill="#EAEAE8" d="M291.605,279.919c56.563,9.845,67.882,18.088,109.852,53.956
		C407.803,310.795,313.475,274.55,291.605,279.919L291.605,279.919z"/>
	<path fill-rule="evenodd" clip-rule="evenodd" fill="#EAEAE8" d="M172.771,384.824l7.092,3.094l0.902-1.096
		c5.227-3.412,9.288-8.74,15.698-11.254l0.267-0.723c-0.253-3.002-10.601-9.804-13.479-10.5l-3.61,5.411l0.157,2.127
		c-2.367,4.209-4.665,7.166-7.055,11.416L172.771,384.824z"/>
	<path fill-rule="evenodd" clip-rule="evenodd" fill="#EAEAE8" d="M413.945,396.327c1.639-1.275,7.819-15.155,9.32-18.157
		c2.809-5.618,8.694-15.546,3.215-20.787c-1.419,2.013,0,7.511-1.604,10.887c-1.437,2.979-2.892,5.811-4.145,8.864
		C418.965,381.453,414.093,392.192,413.945,396.327L413.945,396.327z"/>
	<path fill-rule="evenodd" clip-rule="evenodd" fill="#7D8282" d="M269.645,345.359c8.344,0,19.3,0.695,27.441,2.523
		c8.146,1.824,3.56,2.676,10.78-0.262c4.974-2.021,5.95-0.345,10.702-4.255c-1.915-10.895-24.544-16.739-34.067-17.876
		c-16.034-1.92-30.015,0.682-45.192,5.512c-6.737,2.137-12.834,5.862-20.119,5.848c-8.515-0.009-15.505-1.501-24.733-0.783
		c-17.775,1.391-27.519,7.681-19.69,26.285c2.302-3.311,1.8-14.404,8.763-15.348c4.398-0.594,12.963,4.347,17.025,6.539
		c10.518,5.682,18.972,11.641,27.97,19.47c13.87,12.051,34.137,39.28,37.618,57.294l4.945-1.104l0.354-1.009
		c3.242,0.097,9.846-3.799,14.184-3.896c0.438-16.938-8.469-31.323-21.109-41.836c-5.834-4.831-12.926-8.215-19.521-11.937
		c-3.297-1.86-6.723-4.038-9.951-6.037c-1.607-0.985-3.348-2.049-4.982-3.016c-0.341-0.212-4.78-2.699-4.596-2.888l0.299-0.212
		l29.776,13.797l2.597-0.939c-4.13-5.406-23.729-13.819-28.942-18.36c28.077,4.555,56.075,9.924,83.395,17.982
		c57.24,16.891,41.73,54.739,42.063,55.065l0.027,0.056c18.355-26.561-9.431-46.542-30.438-57.796
		c-11.696-6.277-23.955-9.791-36.656-13.286c-6.539-1.8-14.188-2.942-20.92-4.052c-3.536-0.581-7.202-1.387-10.757-1.727
		c-1.852-0.184-3.707-0.208-5.558-0.428c-0.511-0.056-4.831-0.985-4.803-1.184l0.028-0.129l22.537-2.367L269.645,345.359z"/>
	<path fill-rule="evenodd" clip-rule="evenodd" fill="#7D8282" d="M413.945,396.327c0.147-4.135,5.02-14.874,6.787-19.193
		c1.253-3.053,2.708-5.885,4.145-8.864c1.604-3.376,0.185-8.874,1.604-10.887c5.479,5.241-0.406,15.169-3.215,20.787
		C421.765,381.172,415.584,395.052,413.945,396.327L413.945,396.327z M291.605,279.919c21.869-5.369,116.197,30.876,109.852,53.956
		C359.487,298.007,348.168,289.764,291.605,279.919L291.605,279.919z M156.787,323.873c10.163-4.49,19.345-10.08,29.867-14.57
		c10.417-4.443,21.947-8.312,32.939-11.015c26.382-6.461,52.75-7.801,79.582-3.468c23.021,3.726,44.277,12.065,64.032,24.365
		c9.412,5.88,16.366,12.065,24.498,19.438c5.011,4.536,7.755,6.479,7.81,13.898c0.037,6.636-0.994,14.137-1.049,21.316
		c4.66-1.98,14.606-13.917,19.129-12.079c1.086,4.389-6.751,10.477-4.117,17.08c2.191,5.498,2.469,15.044,2.469,20.989v3.992
		c2.568-3.67,17.489-32.474,18.134-35.813c1.511-7.889-2.247-14.901-10.646-15.62c-8.362-0.723-13.364,2.404-20.465,5.973
		c1.068-6.921,2.017-13.47,3.896-20.225c1.889-6.742,3.169-11.808-2.449-17.062c-8.077-7.52-17.996-15.026-27.574-20.506
		c-21.625-12.406-48.371-20.391-73.122-22.771c-28.279-2.708-57.608-1.345-84.515,8.611
		C195.357,293.757,170.302,307.313,156.787,323.873L156.787,323.873z"/>
	<path fill-rule="evenodd" clip-rule="evenodd" fill="#7D8282" d="M225.709,477.259c7.35,0,18.944,2.34,22.831-4.145
		c2.473-4.153,8.603-10.858,12.227-14.238c9.297-8.703,22.066-17.517,35.158-18.549c12.061-0.958,29.21,7.221,38.981,14.11
		c5.59,3.95,9.771,7.57,14.81,12.119c5.673,5.131,8.261,10.564,15.795,10.702c-1.197-5.894-11.448-16.228-15.86-20.611
		c-3.269-3.261-6.354-5.692-10.038-8.437c-2.606-1.934-8.896-5.572-10.555-7.423c11.899,1.482,27.759,9.173,38.129,15.307
		c4.604,2.726,10.896,7.957,14.699,11.771c9.256,9.339,1.731,9.477,17.084,9.394c-12.313-31.921-55.766-50.332-87.973-50.046
		c-18.54,0.151-37.346,6.212-53.146,15.767c-11.526,6.963-28.887,21.8-34.15,34.279H225.709z"/>
	<path fill-rule="evenodd" clip-rule="evenodd" fill="#7D8282" d="M208.717,421.807c1.349-2.114-2.335-11.733,8.326-2.864
		c4.006,3.324,6.879,6.267,5.254,11.296c-1.064,3.27-12.318,25.451-17.563,17.531l-2.662,3.904
		c8.575,0.01,10.232-0.682,17.863-3.665c3.191-1.243,11.374-5.535,13.032-8.437c0.93-1.64-0.737-15.643-0.778-19.267
		c-0.11-11.075,5.83-5.42,1.008-14.989c-2.454,0.654-10.213,9.947-12.051,12.046l-5.347-3.145l-2.081,0.092h-1.009l-3.992,0.521
		v4.467V421.807z"/>
	<path fill-rule="evenodd" clip-rule="evenodd" fill="#7D8282" d="M184.26,402.811l-0.604,2.56l7.175,11.352
		c7.05,0.516,13.787-3.514,19.488-7.317c8.51-5.655,10.987-5.752,20.948-6.129l-2.008-3.947l-14.041-1.506l2.984,4.987
		c-9.51,2.261-16.095,10.532-26.258,11.719L184.26,402.811z"/>
	<path fill-rule="evenodd" clip-rule="evenodd" fill="#7D8282" d="M211.217,397.322v-6.493c2.132,1.123,9.587,3.84,11.673,3.173
		c1.299-4.122-2.892-7.391-5.549-9.795c-3.859-3.504-7.221-3.781-12.12-3.863l-4.043-0.061l-0.949,0.548l3.38,0.12
		c1.418,1.865,4.347,5.107,5.277,6.709C211.844,392.647,209.896,395.264,211.217,397.322L211.217,397.322z"/>
	<path fill-rule="evenodd" clip-rule="evenodd" fill="#7D8282" d="M187.741,427.295l1.192,3.463c4.219-0.34,12.189-2.51,14.791-6.46
		l-3.923-4.168l-3.551,1.635l-5.001,0.612l-2.008-0.082c-2.744-4.223-5.401-10.49-7.487-13.475
		c0.014,7.032,5.098,10.955,8.639,16.145L187.741,427.295z"/>
	<path fill-rule="evenodd" clip-rule="evenodd" fill="#7D8282" d="M183.251,364.346c2.878,0.695,13.225,7.497,13.479,10.5
		l0.925-0.074l1.156-1.372c-0.207-5.904-6.581-12.576-12.056-13.046L183.251,364.346z"/>
	<path fill-rule="evenodd" clip-rule="evenodd" fill="#7D8282" d="M163.777,457.283l-1.046,1.445
		c8.055,11.282,32.143-1.501,38.005-9.946c-2.827,0.884-11.747,7.368-16.987,9.486C179.393,460.037,165.587,463.297,163.777,457.283
		L163.777,457.283z"/>
	<path fill-rule="evenodd" clip-rule="evenodd" fill="#7D8282" d="M204.227,391.823l3.219-4.347l-0.143-0.612l-4.572-0.534h-6
		c-5.295,0-11.052,2.629-14.929,2.422l-0.046-1.418l-0.99-0.512l-0.902,1.096l-7.092-3.094l0.051,0.948
		c3.048,1.874,7.842,4.563,11.438,4.053l16.946-2.179l1.524,0.185l1.69,0.226L204.227,391.823z"/>
	<path fill-rule="evenodd" clip-rule="evenodd" fill="#7D8282" d="M189.242,436.777l1.092,1.008c-2.308,2.8-5.508,1.345-5.48,4.55
		l2.399-0.543l-1.957-0.064l8.409-2.598l0.042-1.842c-0.465-1.938-1.009-3.017-2.551-4.038l-1.326,0.695l-0.129,1.851
		L189.242,436.777z"/>
	<polygon fill-rule="evenodd" clip-rule="evenodd" fill="#7D8282" points="170.772,449.279 175.658,446.608 168.778,443.781 	"/>
	<polygon fill-rule="evenodd" clip-rule="evenodd" fill="#7D8282" points="186.756,431.288 184.785,431.205 184.757,429.299 
		184.771,428.792 184.656,426.752 182.252,427.295 182.86,428.248 182.763,429.299 182.763,431.79 184.757,431.79 185.747,431.79 	
		"/>
	<path fill-rule="evenodd" clip-rule="evenodd" fill="#7D8282" d="M183.251,436.777l0.631,0.971l2.334-0.073l-1.377-4.356
		l2.413-0.027c-0.557-0.354,0.659-0.507-1.506-0.507c-1.63,0-1.63,0.249-2.496,1.009l0.552,2.551L183.251,436.777z"/>
	<polygon fill-rule="evenodd" clip-rule="evenodd" fill="#7D8282" points="180.765,432.297 177.067,432.145 178.177,427.337 
		176.657,427.213 176.266,427.797 176.869,428.755 176.763,429.787 176.763,432.784 178.752,432.784 179.756,432.784 	"/>
	<polygon fill-rule="evenodd" clip-rule="evenodd" fill="#7D8282" points="176.763,436.289 177.891,438.236 179.94,438.154 
		177.721,434.829 177.762,433.793 177.168,434.189 177.297,435.838 	"/>
	<polygon fill-rule="evenodd" clip-rule="evenodd" fill="#7D8282" points="165.771,437.785 165.283,434.787 167.277,434.787 
		169.764,434.787 168.819,434.189 167.774,434.285 164.786,434.285 164.786,435.796 	"/>
	<path fill-rule="evenodd" clip-rule="evenodd" fill="#010101" d="M225.709,477.259h-2.008c5.264-12.479,22.624-27.316,34.15-34.279
		c15.8-9.555,34.606-15.615,53.146-15.767c32.207-0.286,75.659,18.125,87.973,50.046c-15.353,0.083-7.828-0.055-17.084-9.394
		c-3.804-3.813-10.095-9.045-14.699-11.771c-10.37-6.134-26.229-13.824-38.129-15.307c1.658,1.851,7.948,5.489,10.555,7.423
		c3.684,2.744,6.77,5.176,10.038,8.437c4.412,4.384,14.663,14.718,15.86,20.611c-7.534-0.138-10.122-5.571-15.795-10.702
		c-5.038-4.549-9.22-8.169-14.81-12.119c-9.771-6.89-26.921-15.068-38.981-14.11c-13.092,1.032-25.861,9.846-35.158,18.549
		c-3.624,3.38-9.753,10.085-12.227,14.238C244.653,479.599,233.059,477.259,225.709,477.259L225.709,477.259z M204.733,447.77
		l0.898-2.893c-1.865,0.313-3.154,2.744-4.895,3.905c-5.862,8.445-29.95,21.229-38.005,9.946l1.046-1.445l6.995-8.004l-1.994-5.498
		l-3.035-4.965l0.028-1.031l-0.985-1.989v-1.511h2.989l1.045-0.096l0.944,0.598l2.012,2.961l-0.438-3.435l1.929-0.042l2.349,0.125
		l1.146,1.893l0.534-0.451l-0.129-1.648l0.594-0.396l3.726,0.193l1.764,2.791l0.552-0.434l-0.552-2.551
		c0.866-0.76,0.866-1.009,2.496-1.009c2.165,0,0.949,0.152,1.506,0.507l1.989,3.486l0.498-0.981l0.129-1.851l1.326-0.695
		c1.542,1.021,2.086,2.1,2.551,4.038l-0.042,1.842l-8.409,2.598l1.957,0.064c11.642,0.055,20.322-8.8,21.464-19.985v-2.51v-4.467
		l3.992-0.521h1.009l2.081-0.092l5.347,3.145c1.837-2.1,9.597-11.393,12.051-12.046c4.822,9.569-1.119,3.915-1.008,14.989
		c0.042,3.625,1.708,17.627,0.778,19.267c-1.658,2.901-9.841,7.193-13.032,8.437c-7.631,2.983-9.288,3.675-17.863,3.665
		L204.733,447.77z M196.73,374.845l-0.267,0.723c-6.41,2.514-10.472,7.842-15.698,11.254l0.99,0.512
		c5.185-3.398,12.046-6.502,18.475-6.502l0.949-0.548l4.043,0.061c4.899,0.083,8.261,0.359,12.12,3.863
		c2.657,2.404,6.848,5.673,5.549,9.795c-2.086,0.667-9.541-2.05-11.673-3.173v6.493l1.003,0.502h2.998l14.041,1.506l2.008,3.947
		c-9.96,0.377-12.438,0.474-20.948,6.129c-5.701,3.804-12.438,7.833-19.488,7.317l-7.175-11.352l0.604-2.56l-1.326-1.746
		l-2.256,5.314l1.124,1.391l-0.046,1.05c2.086,2.984,4.743,9.251,7.487,13.475l2.008,0.082l5.001-0.612l3.551-1.635l3.923,4.168
		c-2.602,3.95-10.572,6.12-14.791,6.46l-1.192-3.463l-0.985,2.492v1.501l-1.009,0.502h-0.99h-1.994v-2.491l0.097-1.051l-0.608-0.953
		c-1.275,1.446-1.487,2.874-1.487,5.002l-1.009,0.487h-1.003h-1.99v-2.997l0.106-1.032l-0.604-0.958l-1.501,2.51v0.981v1.496h-3.993
		l0.028-2.997l-0.475-2.026l-1.142,5.503l-1.907,0.027h-2.491c0.271-3.164,4.319-6.147,6.369-8.096
		c0.497-4.862-2.035-5.217-2.86-8.5l4.476,0.599l2.519,0.097l3.979-0.584l-0.014-1.501l0.069-2.546
		c-0.483-0.751-7.957-14.635-8.1-15.059l7.488-4.918l1.543,0.051c2.026,0.055,2.592,0.419,4.517,1.17l-3.141,3.412l15.556,7.957
		c1.81-1.225,6.465-11.144,7.041-13.548l0.194-3.767l-1.69-0.226l-1.524-0.185l-16.946,2.179c-3.597,0.511-8.39-2.179-11.438-4.053
		l-0.051-0.948l-0.027-1.524c2.39-4.25,4.688-7.207,7.055-11.416l-0.157-2.127l3.61-5.411l3.504-3.992
		c5.475,0.47,11.849,7.142,12.056,13.046l-1.156,1.372L196.73,374.845z M269.645,345.359l-1.533-0.354l-22.537,2.367l-0.028,0.129
		c-0.027,0.198,4.292,1.128,4.803,1.184c1.851,0.221,3.707,0.244,5.558,0.428c3.555,0.34,7.221,1.146,10.757,1.727
		c6.732,1.109,14.382,2.251,20.92,4.052c12.701,3.495,24.959,7.009,36.656,13.286c21.008,11.254,48.794,31.235,30.438,57.796
		l-0.027-0.056c-0.332-0.326,15.178-38.174-42.063-55.065c-27.32-8.059-55.318-13.428-83.395-17.982
		c5.213,4.541,24.812,12.954,28.942,18.36l-2.597,0.939l-29.776-13.797l-0.299,0.212c-0.184,0.189,4.255,2.676,4.596,2.888
		c1.635,0.967,3.375,2.03,4.982,3.016c3.229,1.999,6.654,4.177,9.951,6.037c6.595,3.721,13.687,7.105,19.521,11.937
		c12.641,10.513,21.547,24.898,21.109,41.836c-4.338,0.097-10.941,3.992-14.184,3.896l-0.354,1.009l-4.945,1.104
		c-3.481-18.014-23.748-45.243-37.618-57.294c-8.998-7.829-17.453-13.788-27.97-19.47c-4.062-2.192-12.627-7.133-17.025-6.539
		c-6.962,0.943-6.46,12.037-8.763,15.348c-7.829-18.604,1.916-24.894,19.69-26.285c9.229-0.718,16.219,0.774,24.733,0.783
		c7.285,0.014,13.382-3.711,20.119-5.848c15.178-4.831,29.158-7.432,45.192-5.512c9.523,1.138,32.152,6.981,34.067,17.876
		c-4.752,3.91-5.729,2.233-10.702,4.255c-7.22,2.938-2.634,2.086-10.78,0.262C288.944,346.055,277.989,345.359,269.645,345.359
		L269.645,345.359z M156.787,323.873c13.515-16.56,38.57-30.116,58.418-37.466c26.907-9.956,56.235-11.319,84.515-8.611
		c24.751,2.381,51.497,10.366,73.122,22.771c9.578,5.48,19.497,12.986,27.574,20.506c5.618,5.254,4.338,10.319,2.449,17.062
		c-1.879,6.755-2.827,13.304-3.896,20.225c7.101-3.569,12.103-6.695,20.465-5.973c8.399,0.719,12.157,7.731,10.646,15.62
		c-0.645,3.339-15.565,32.143-18.134,35.813v-3.992c0-5.945-0.277-15.491-2.469-20.989c-2.634-6.604,5.203-12.691,4.117-17.08
		c-4.522-1.837-14.469,10.099-19.129,12.079c0.055-7.18,1.086-14.681,1.049-21.316c-0.055-7.419-2.799-9.362-7.81-13.898
		c-8.132-7.373-15.086-13.557-24.498-19.438c-19.755-12.3-41.012-20.639-64.032-24.365c-26.833-4.333-53.2-2.993-79.582,3.468
		c-10.992,2.703-22.523,6.571-32.939,11.015C176.132,313.793,166.95,319.383,156.787,323.873L156.787,323.873z M392.975,375.343
		h2.008c3.803-2.533,11.807-10.016,15.463-10.997c-7.387,16.619-14.321,26.939-23.899,42.034c-3.813,6.037-9.22,13.75-13.787,19.185
		c-2.275,2.684-4.651,7.74-7.865,8.854c-5.544,1.925-0.451-6.838,0.313-8.008c10.057-15.481-1.143-34.998-12.849-45.906
		c-11.337-10.532-28.771-19.157-43.765-22.657c-0.01-9.703,9.191-6.498,15.39-12.079c1.031-10.918-5.996-13.626-14.524-17.761
		c-9.417-4.582-15.712-6.341-26.229-7.221c-9.712-0.815-22.025-1.105-31.447,1.207c-4.476,1.105-9.15,1.694-13.539,2.942
		c-4.255,1.234-8.234,3.044-12.696,4.292c-15.468,4.319-45.672,0-56.443,10.449c-6.7,6.474-4.743,17.72-0.079,24.784
		c2.086,3.178,6.217,5.766,4.545,9.96c-1.824,4.527-4.596,6.438-4.665,12.277c2.882,2.929,4.269,2.551,6.907,4.586
		c-1.86,1.653-5.489,4.775-8.538,5.042c0.055,2.606,0.552,2.335,2.38,4.107c0.461,3.629,2.119,5.729,2.119,10.375v2.998v0.502
		l-5.01-0.069l-2.15,0.396c-1.031,3.242,2.717,6.364,3.071,9.605c-1.206,2.399-5.268,6.322-5.461,9.049
		c-0.106,1.156,2.39,10.499,2.957,11.586c3.711,7.146-10.26,9.956-9.219,17.223c3.61,3.408,12.986,4.67,17.817,4.67
		c4.849,0,9.182-0.673,13.777-2.184c3.781-1.271,8.722-4.062,11.679-4.826c0.907,3.998,6.156,16.91,9.035,19.451
		c3.679,3.261,21.385,2.045,27.414,2.045h151.802h-2.993c5.028,0,19.635,0.838,23.19-1.354c0.995-3.979-8.869-14.45-11.411-17.932
		c-3.795-5.231-12-11.162-14.782-15.196c4.688-8.067,13.64-18.185,19.378-26.594c2.357-3.472,6.364-10.923,9.809-12.535
		c3.97-1.865,7.129-9.919,9.117-13.985c4.09-8.404,14.358-24.116,12.913-33.059c-0.949-6.009-6.42-10.242-12.286-10.766
		c-7.792-0.695-11.771,2.288-18.447,5.028c3.158-11.186,8.62-26.621,0.027-36.591c-4.477-5.19-22.73-17.126-29.26-20.565
		c-22.583-11.909-51.244-19.825-76.589-22.293c-55.466-5.378-106.439,9.73-144.71,51.239c-4.974,5.397-17.545,20.648-0.433,9.846
		c12.898-8.151,18.898-12.028,32.925-18.416c25.268-11.512,55.619-16.426,83.23-14.772c27.639,1.671,52.078,9.633,76.428,22.532
		C368.928,339.286,377.188,352.99,392.975,375.343L392.975,375.343z"/>
	<path fill-rule="evenodd" clip-rule="evenodd" fill="#F4E00B" d="M194.391,399.426l-5.135-2.616l2.505-2.722
		c1.391-0.198,2.694-0.377,3.965-0.497l1.05,0.129l-0.014,1.216C195.938,397.046,195.109,398.648,194.391,399.426L194.391,399.426z"
		/>
	<path fill-rule="evenodd" clip-rule="evenodd" fill="#010101" stroke="#010101" stroke-width="1.9967" stroke-miterlimit="10" d="
		M433.525,461.786c0.258-0.212,0.516-0.405,0.773-0.589c3.261-2.45,6.926-4.236,10.813-5.453l0.046-0.018
		c1.814-0.553,3.685-0.977,5.581-1.253l0.691-3.168l44.29-5.793l-3.987,27.73c-0.479,3.261-0.875,6.539-1.188,9.837v0.064
		c-0.258,2.643-0.405,5.286-0.424,7.957l-0.037,9.946c1.529,4.19,2.22,8.611,2.247,13.069v0.119v0.102
		c-0.027,5.526-1.133,10.941-3.49,15.951c-2.274,4.863-5.525,9.118-9.643,12.525l-0.083,0.056c-0.534,0.442-1.077,0.866-1.603,1.253
		l-4.872,3.058c-2.017,1.087-4.163,1.989-6.354,2.708c-2.33,0.755-4.716,1.308-7.129,1.676l-0.451,2.357l-46.491,12.139
		l2.413-14.441c-8.05-0.533-16.025-0.92-24.084-0.755l-0.765,9.634c-40.008-7.626-44.078-9.965-80.402-8.142l0.322,2.284
		c-23.568-3.15-47.131-3.666-70.138-2.321l-0.636,8.179c-52.722-10.058-76.557-11.862-139.193-7.533l8.455-44.383l5.033-0.461
		c0-0.534,0-1.05,0.014-1.584c0-1.445,0-2.92,0-4.375v-4.07l-5.899-0.497l-6.055-42.448l40.846-0.193
		c1.985,0,3.965,0.018,5.94,0.036h0.079h0.064c2.27,0.046,4.517,0.157,6.778,0.304h0.078l0.078,0.01
		c0.695,0.046,1.405,0.102,2.1,0.166l26.202-0.571c0.985,0.037,1.976,0.073,2.97,0.11c1.105,0.027,2.206,0.056,3.311,0.11
		c1.276,0,2.533,0,3.795,0.037c0.843,0.019,1.708,0.037,2.561,0.037c0.635,0,1.275,0,1.893,0c0.524,0,1.05,0,1.575,0l0.11-1.05
		l48.868-8.52l-2.141,9.403c0.396,0.009,0.778,0.019,1.169,0.037c0.773,0.027,1.533,0.055,2.298,0.055
		c0.612,0.037,1.211,0.056,1.837,0.074c0.291,0,0.566,0,0.847,0c0.695,0,1.391,0,2.086-0.019c0.903,0,1.81-0.019,2.717-0.056
		c1.008-0.027,2.021-0.027,3.044-0.055c0.037,0,0.069,0,0.115,0l-0.027-0.175h4.458l25.272-1.419l-0.193,1.391
		c0.93,0,1.86-0.027,2.786-0.027c1.124,0,2.238,0,3.357-0.009h0.115h0.115c0.949,0,1.874,0,2.828,0l0.143-0.019h0.143
		c0.764,0,1.528,0,2.303,0c2.063,0,4.125,0.027,6.217,0.119l-0.203-1.114l26.497,1.087c0.994,0.037,1.989,0.073,2.975,0.11
		c1.096,0.027,2.22,0.056,3.325,0.11c1.252,0,2.514,0,3.785,0.037c0.847,0.019,1.703,0.037,2.56,0.037c0.627,0,1.271,0,1.897,0
		c0.516,0,1.031,0,1.547,0l0.129-1.05l48.859-8.52l-2.128,9.33h0.829c1.989,0,3.969,0.018,5.959,0.036h0.064h0.064
		c2.266,0.046,4.531,0.157,6.778,0.304h0.083l0.073,0.01c2.496,0.166,4.992,0.461,7.441,0.884h0.028
		c2.947,0.497,5.83,1.262,8.602,2.34l0.056,0.019C429.455,459.41,431.563,460.488,433.525,461.786L433.525,461.786z"/>
	<path fill-rule="evenodd" clip-rule="evenodd" fill="#FFFFFF" stroke="#FFFFFF" stroke-width="1.9967" stroke-miterlimit="10" d="
		M433.903,471.208c1.354-1.611,2.919-3.066,4.623-4.347c2.616-1.943,5.572-3.381,8.676-4.348l0.027-0.009
		c3.012-0.931,6.161-1.382,9.312-1.446l0.746-3.38l30.098-3.951l-2.652,18.484c-0.497,3.39-0.902,6.797-1.216,10.195l-0.027,0.056
		c-0.276,2.846-0.424,5.719-0.433,8.593l-0.056,11.31c0.056,0.11,0.11,0.221,0.147,0.35l0.009,0.056
		c1.446,3.619,2.063,7.497,2.091,11.401v0.064v0.064c-0.027,4.495-0.884,8.916-2.809,12.986c-1.824,3.905-4.439,7.331-7.783,10.094
		l-0.036,0.037c-3.122,2.561-6.687,4.477-10.536,5.729c-3.527,1.143-7.193,1.731-10.896,1.787l-0.617,3.278l-31.581,8.252
		l1.897-11.401c-13.114-0.848-25.806-1.566-38.902-1.124l-0.645,8.123c-31.534-6.005-50.434-7.921-82.346-8.308l0.368,2.635
		c-24.862-3.315-44.902-2.266-67.784-2.635c-0.143,0-0.3,0-0.442,0l-0.649,8.308c-40.33-7.681-79.619-9.873-124.089-6.778
		l5.729-30.153l6.129-0.534c0.014-0.994,0.014-1.989,0.027-2.984c0.014-1.666,0.014-3.352,0.028-5.047c0-1.473,0-2.928,0-4.402
		v-4.623c0-0.728,0-1.455,0-2.146c-0.014-1.17-0.014-2.33-0.028-3.473c0-0.129,0-0.221,0-0.331l-6.737-0.571l-4.122-28.827
		c16.209-0.082,39.787-2.947,56.608,2.045l-0.539-3.002c31.788,1.326,42.278-1.336,73.771-6.797l-1.662,7.238
		c39.082,2.1,79.021,0.894,118.384,0.553c0.239-0.019,0.507-0.019,0.765-0.019l0.212-2.026l33.155-5.746l-1.731,7.644l9.698-0.056
		c1.962,0,3.914,0.028,5.848,0.056h0.111c2.146,0.037,4.291,0.129,6.438,0.276h0.11c2.274,0.166,4.522,0.433,6.77,0.811h0.019
		c2.468,0.424,4.908,1.05,7.238,1.952l0.019,0.028C428.156,466.502,431.306,468.528,433.903,471.208L433.903,471.208z"/>
	<path fill-rule="evenodd" clip-rule="evenodd" fill="#010101" stroke="#010101" stroke-width="1.9967" stroke-miterlimit="10" d="
		M432.954,515.803c0.01-0.405,0.01-0.829,0.01-1.253c0-0.285,0.019-0.617-0.01-0.911l-1.391-10.353l11.559,3.003
		c-0.967-0.866-1.897-1.769-2.772-2.745c-1.759-1.935-3.131-4.163-4.126-6.585c-1.087-2.662-1.565-5.498-1.565-8.354v-0.037
		c0-1.915,0.285-3.813,0.829-5.654v-0.019c0.589-1.971,1.482-3.831,2.634-5.526l0.027-0.036c1.253-1.86,2.818-3.454,4.614-4.79
		c1.962-1.482,4.209-2.532,6.558-3.269h0.01c2.578-0.802,5.286-1.133,8.003-1.151h0.037h0.055c1.585,0.019,3.178,0.102,4.743,0.276
		l0.967-4.356l15.915-2.072l-1.326,9.237c-0.507,3.509-0.939,7.019-1.253,10.527v0.036c-0.322,3.076-0.488,6.152-0.506,9.266
		l-0.037,10.748l-1.557-0.682c0.875,1.336,1.611,2.754,2.211,4.236l0.009,0.027c1.105,2.801,1.575,5.821,1.584,8.823v0.046v0.047
		c-0.009,3.453-0.663,6.852-2.137,10.002c-1.409,2.965-3.37,5.544-5.885,7.644h-0.028c-2.44,2.026-5.222,3.5-8.215,4.495
		c-3.085,0.994-6.271,1.437-9.477,1.437c-1.18,0-2.34-0.074-3.5-0.166c-0.516-0.037-1.059-0.092-1.594-0.166
		c-0.027,0.185-0.064,0.351-0.092,0.534l-0.819,4.439l-16.661,4.347l1.317-7.884l-1.197-0.57c-1.677-0.792-3.233-1.989-4.633-3.205
		c-1.63-1.382-3.177-2.837-4.688-4.311l-0.037-0.055c-1.731-1.714-3.436-3.463-5.111-5.231c-0.617-0.663-1.226-1.308-1.823-1.952
		l2.643,13.888l-9.117-0.571c-0.516-0.055-1.014-0.073-1.511-0.092c-0.884-0.019-1.75-0.073-2.606-0.092
		c-1.031-0.037-2.072-0.037-3.095-0.074c-0.967,0-1.943-0.018-2.91-0.036c-0.829,0-1.648-0.019-2.478-0.019
		c-0.755,0-1.547,0.019-2.303,0.019c-0.957,0.019-1.915,0.036-2.883,0.036c-1.031,0.037-2.044,0.037-3.076,0.074
		c-0.884,0.019-1.74,0.073-2.615,0.092c-0.488,0.019-0.967,0.037-1.445,0.074l-4.799,0.331l-0.497,6.337l-15.095-2.855v-3.795
		c-1.363-0.036-2.745-0.073-4.09-0.11h-0.073c-1.658-0.055-3.325-0.073-5.001-0.11c-1.483-0.019-2.984-0.037-4.449-0.055
		c-1.096-0.019-2.154-0.037-3.223-0.037c-0.802,0-1.594,0.019-2.395,0.037c-1.004,0.018-2.026,0.036-3.021,0.055
		c-1.05,0.037-2.118,0.056-3.168,0.11c-0.856,0.019-1.74,0.056-2.598,0.11l-9.431,0.461l3.758-15.785l5.14-0.406
		c0.424-0.036,0.875-0.082,1.308-0.129c0.101,0,0.193-0.009,0.304-0.018c0.027-1.068,0.055-2.128,0.064-3.188v-0.055
		c0.046-1.621,0.074-3.224,0.083-4.845c0.009-1.64,0.036-3.306,0.056-4.954c0.009-1.511,0.009-3.012,0.009-4.514v-3.481
		c0-1.51-0.009-3.03-0.028-4.54c-0.009-1.686-0.036-3.361-0.064-5.038v-0.056c-0.027-1.611-0.055-3.204-0.109-4.825v-0.056
		c-0.01-0.166-0.01-0.313-0.01-0.46c-0.055-0.019-0.11-0.019-0.175-0.037h-0.019c-0.092-0.009-0.221-0.037-0.313-0.037
		c0.166,0.884,0.249,1.787,0.23,2.698c-0.009,2.257-0.322,4.522-0.976,6.715c-0.627,2.044-1.529,3.969-2.689,5.766l-0.01,0.036
		c-1.068,1.621-2.274,3.113-3.666,4.495c-1.362,1.326-2.846,2.523-4.457,3.563c-1.445,0.939-2.975,1.777-4.541,2.496l-0.027,0.019
		c-1.409,0.635-2.846,1.216-4.301,1.694c-1.225,0.405-2.449,0.773-3.711,1.068c-0.286,0.064-0.608,0.129-0.912,0.202
		c0.018,0.627,0.018,1.253,0.027,1.879v0.037c0.019,1.677,0.027,3.371,0.074,5.047v0.056c0,0.037,0,0.073,0,0.12
		c0.423,0.046,0.828,0.082,1.233,0.138c0.765,0.073,1.548,0.129,2.294,0.221l4.973,0.497l3.748,15.657l-9.431-0.442
		c-0.653-0.036-1.326-0.073-1.989-0.092c-1.013-0.019-1.989-0.073-3.002-0.092c-1.124-0.037-2.275-0.037-3.417-0.074
		c-1.05,0-2.109-0.018-3.168-0.036c-0.87,0-1.723-0.019-2.565-0.019c-0.865,0-1.718,0.019-2.583,0.019
		c-0.871,0.019-1.764,0.036-2.648,0.036l0.203,1.438l-8.538-1.143l-8.22,0.479l0.157-0.774c-0.539-0.018-1.078-0.018-1.603-0.036
		c-0.907,0-1.829-0.019-2.731-0.019c-0.64,0-1.29,0.019-1.92,0.019c-0.93,0.019-1.86,0.036-2.781,0.036
		c-1.063,0.037-2.118,0.037-3.182,0.074c-0.935,0.019-1.888,0.073-2.818,0.092c-0.566,0.019-1.133,0.037-1.69,0.092l-7.731,0.442
		l0.014,0.019h-0.221l-1.588,0.074l0.051-0.166l-7.263-0.369c-0.58-0.036-1.16-0.073-1.735-0.092
		c-0.838-0.019-1.672-0.073-2.496-0.092c-0.921-0.037-1.824-0.037-2.731-0.074c-0.792,0-1.588-0.018-2.376-0.036
		c-0.589,0-1.161-0.019-1.746-0.019c-0.621,0-1.225,0.019-1.847,0.037c-0.782,0.018-1.561,0.018-2.344,0.055h-0.055h-0.042
		c-0.341,0.019-0.695,0.019-1.036,0.037l-0.534,6.834l-15.104-2.855v-3.795c-1.373-0.036-2.726-0.073-4.103-0.11h-0.046
		c-1.672-0.055-3.339-0.073-5.01-0.11c-1.483-0.019-2.97-0.037-4.453-0.055c-1.078-0.019-2.155-0.037-3.214-0.037
		c-0.47,0-0.935,0-1.404,0.019l-16.799,2.688l-1.999-0.957c-1.667-0.792-3.228-1.989-4.624-3.205
		c-1.63-1.382-3.168-2.837-4.688-4.311l-0.042-0.055c-1.731-1.714-3.426-3.463-5.098-5.231c-0.626-0.663-1.229-1.308-1.823-1.952
		l2.629,13.888l-9.113-0.571c-0.512-0.055-1.004-0.073-1.516-0.092c-0.879-0.019-1.745-0.073-2.602-0.092
		c-1.036-0.037-2.072-0.037-3.085-0.074c-0.981,0-1.958-0.018-2.915-0.036c-0.824,0-1.658-0.019-2.482-0.019
		c-0.765,0-1.538,0.019-2.307,0.019c-0.963,0.019-1.911,0.036-2.869,0.036c-1.036,0.037-2.059,0.037-3.085,0.074
		c-0.879,0.019-1.745,0.073-2.625,0.092c-0.479,0.019-0.963,0.037-1.446,0.074l-9.154,0.645l3.016-15.859l5.309-0.498
		c0.456-0.036,0.921-0.082,1.377-0.129c0.147-0.009,0.318-0.018,0.475-0.036c0.027-1.419,0.055-2.837,0.055-4.265v-0.046
		c0.028-1.694,0.046-3.398,0.06-5.084c0.014-1.676,0.014-3.39,0.027-5.074c0-1.465,0-2.956,0-4.431v-4.623c0-0.736,0-1.474,0-2.201
		c-0.014-1.17-0.014-2.349-0.027-3.5c-0.014-1.335-0.032-2.68-0.06-4.024v-0.073c0-0.875-0.014-1.76-0.028-2.635
		c-0.041-0.018-0.069-0.018-0.097-0.018h-0.06l-0.069-0.01c-0.562-0.055-1.114-0.102-1.681-0.156l-5.609-0.479l-2.178-15.215
		l24.544-0.111c1.925,0,3.836,0,5.756,0.037h0.042c2.058,0.056,4.094,0.129,6.134,0.285h0.055c2.04,0.139,4.094,0.351,6.102,0.709
		c1.999,0.332,3.992,0.848,5.871,1.566l0.014,0.027c3.035,1.17,5.692,2.975,7.732,5.517c1.331,1.694,2.252,3.573,2.777,5.572
		l-2.579-14.138l8.833,0.351c1.032,0.056,2.063,0.073,3.099,0.11c1.193,0.056,2.362,0.074,3.555,0.12
		c1.234,0,2.459,0.009,3.693,0.046c0.958,0.009,1.93,0.019,2.874,0.019c0.635,0,1.275,0,1.893,0c1.063,0,2.127-0.01,3.205-0.01
		c1.326-0.009,2.657-0.009,3.997-0.009c1.404-0.019,2.809-0.046,4.204-0.074c0.953-0.018,1.902-0.036,2.846-0.055l0.336-2.947
		l17.448-3.021l-2.353,10.297c-0.042,0.276-0.069,0.59-0.11,0.885v0.055l-0.019,0.056c-0.11,0.829-0.175,1.667-0.281,2.505
		c-0.102,1.068-0.203,2.146-0.299,3.224c-0.101,1.087-0.198,2.192-0.276,3.297c-0.092,0.958-0.17,1.906-0.24,2.855
		c-0.046,0.46-0.073,0.894-0.101,1.326h0.101l-0.193,1.123l-0.516,8.382l-0.75-0.222c-0.06,0.322-0.101,0.645-0.157,0.977
		c-0.101,0.792-0.216,1.565-0.313,2.339c-0.143,0.995-0.272,1.98-0.396,2.947v0.037l-0.014,0.055
		c-0.143,1.014-0.272,2.008-0.415,3.003c-0.12,0.856-0.24,1.731-0.355,2.579l-0.014,0.064v0.055
		c-0.055,0.341-0.092,0.673-0.156,0.995l6.88-1.787c0.631-1.621,1.248-3.214,1.855-4.816l0.014-0.019
		c0.953-2.469,1.888-4.937,2.818-7.404c0.875-2.321,1.759-4.67,2.63-7l0.014-0.037c0.589-1.547,1.151-3.066,1.718-4.596
		l-3.118-0.377l-0.732-15.381l7.829,0.405c0.553,0.056,1.105,0.073,1.648,0.073c0.769,0.037,1.547,0.074,2.33,0.111
		c0.778,0.018,1.565,0.036,2.362,0.055c0.663,0.019,1.331,0.037,1.989,0.046c0.392,0.01,0.773,0.01,1.146,0.01
		c0.751,0,1.52,0,2.271-0.01c0.958-0.009,1.925-0.009,2.874-0.046c1.022-0.019,2.044-0.037,3.058-0.073
		c0.893,0,1.778-0.056,2.671-0.093c0.571,0,1.151-0.018,1.717-0.055l8.616-0.479l-2.22,15.547l-2.689,0.313
		c0.512,1.491,1.027,2.992,1.557,4.494l0.014,0.037c0.631,1.823,1.276,3.628,1.911,5.434v0.018c0.612,1.695,1.216,3.39,1.833,5.103
		c0.511,1.382,1.013,2.772,1.538,4.163v0.019c0.635,1.731,1.299,3.463,1.948,5.185c0.723,1.87,1.459,3.721,2.206,5.572
		c0.719,1.769,1.446,3.5,2.225,5.25c0.17,0.377,0.341,0.755,0.529,1.16c0.755,0.11,1.533,0.212,2.289,0.313
		c0.34-0.046,0.681-0.093,1.022-0.11h0.014c0.184-0.037,0.355-0.056,0.516-0.074c0-0.239,0.022-0.488,0.022-0.746
		c0.028-1.648,0.056-3.324,0.069-4.982v-0.046c0.014-1.787,0.027-3.564,0.046-5.351c0.005-1.695,0.005-3.39,0.028-5.066
		c0-1.399,0-2.781,0-4.181v-3.021c0-0.664,0-1.345,0-2.018c-0.023-1.096-0.023-2.201-0.028-3.324
		c-0.019-1.29-0.032-2.588-0.046-3.896v-0.064c-0.014-1.123-0.042-2.266-0.064-3.38c-0.027-0.009-0.032-0.009-0.055-0.009
		c-0.603-0.046-1.197-0.102-1.81-0.147l-5.627-0.47l-2.178-15.261h8.146c0.571,0,1.138,0,1.69-0.019h0.055h0.06
		c0.897,0,1.818,0,2.726-0.01h0.046h0.042c1.105,0,2.206-0.009,3.325-0.009c1.137-0.019,2.275-0.019,3.421-0.036h0.032h0.046
		c1.004,0,2.013,0,3.012-0.01h0.056h0.046c0.764,0,1.528,0,2.303,0c3.887,0,7.81,0.139,11.65,0.58
		c3.122,0.359,6.373,0.958,9.293,2.137l0.055,0.037h0.037c0.985,0.424,1.934,0.884,2.883,1.428l-0.82-4.449l8.842,0.351
		c1.022,0.056,2.054,0.073,3.095,0.11c1.169,0.056,2.357,0.074,3.536,0.12c1.244,0,2.486,0.009,3.712,0.046
		c0.948,0.009,1.906,0.019,2.873,0.019c0.627,0,1.271,0,1.897,0c1.06,0,2.118-0.01,3.187-0.01c1.336-0.009,2.671-0.009,4.007-0.009
		c1.399-0.019,2.8-0.046,4.209-0.074c0.948-0.018,1.888-0.036,2.836-0.055l0.322-2.947l17.453-3.021l-1.363,5.987l18.586-0.093
		c1.925,0,3.84,0,5.766,0.037h0.036c2.063,0.056,4.09,0.129,6.134,0.285h0.056c2.044,0.139,4.07,0.351,6.106,0.709
		c1.989,0.332,3.987,0.848,5.866,1.566l0.019,0.027c3.039,1.17,5.691,2.975,7.727,5.517c2.201,2.782,3.252,6.097,3.307,9.634v0.083
		v0.083c-0.027,2.219-0.543,4.402-1.399,6.456c-0.82,1.943-1.925,3.767-3.187,5.461c-1.151,1.548-2.459,2.947-3.878,4.255
		c0.903,1.428,1.806,2.855,2.727,4.273c1.151,1.75,2.293,3.491,3.453,5.223C431.527,513.748,432.245,514.78,432.954,515.803
		L432.954,515.803z M377.428,484.59c-0.055,0.599-0.102,1.216-0.146,1.806c-0.028,0.46-0.065,0.894-0.093,1.326h0.093l-0.166,1.123
		l-0.525,8.382l-0.765-0.222c-0.046,0.322-0.101,0.645-0.138,0.977c-0.11,0.792-0.23,1.565-0.322,2.339
		c-0.129,0.995-0.268,1.98-0.415,2.947v0.037v0.055c-0.147,1.014-0.267,2.008-0.405,3.003c-0.129,0.856-0.248,1.731-0.368,2.579
		v0.064v0.055c-0.046,0.341-0.11,0.673-0.147,0.995l8.51-2.211l-2.68,11.421c-0.102,0.46-0.184,0.939-0.258,1.418
		c-0.055,0.23-0.102,0.47-0.129,0.719l1.897-0.176c0.451-0.036,0.911-0.082,1.362-0.129c0.166-0.009,0.322-0.018,0.488-0.036
		c0.027-1.419,0.056-2.837,0.056-4.265v-0.046c0.019-1.694,0.037-3.398,0.037-5.084c0.027-1.676,0.027-3.39,0.046-5.074
		c0-1.465,0-2.956,0-4.431v-4.623c0-0.736,0-1.474,0-2.201c-0.019-1.17-0.019-2.349-0.046-3.5c0-1.335-0.019-2.68-0.037-4.024
		v-0.073c0-0.875-0.009-1.76-0.028-2.635c-0.055-0.018-0.082-0.018-0.109-0.018h-0.064l-0.056-0.01
		c-0.571-0.055-1.133-0.102-1.704-0.156L377.428,484.59z M176.896,484.259c0.143,0.875,0.217,1.75,0.23,2.634v0.083v0.083
		c-0.014,2.219-0.534,4.402-1.4,6.456c-0.806,1.943-1.897,3.767-3.191,5.461c-1.142,1.548-2.445,2.947-3.854,4.255
		c0.893,1.428,1.8,2.855,2.712,4.273c1.142,1.75,2.293,3.491,3.454,5.223c1.22,1.777,2.449,3.546,3.711,5.277
		c0.82,1.104,1.645,2.247,2.482,3.334l1.354-0.111c0.438-0.036,0.871-0.082,1.317-0.129c0.092,0,0.193-0.009,0.29-0.018
		c0.037-1.068,0.06-2.128,0.074-3.188v-0.055c0.042-1.621,0.055-3.224,0.083-4.845c0.014-1.64,0.051-3.306,0.064-4.954
		c0-1.511,0-3.012,0-4.514v-3.481c0-1.51-0.014-3.03-0.014-4.54c-0.014-1.686-0.051-3.361-0.092-5.038v-0.056
		c-0.014-1.611-0.056-3.204-0.115-4.825v-0.056c0-0.166,0-0.313-0.014-0.46c-0.056-0.019-0.106-0.019-0.17-0.037h-0.014
		c-0.566-0.073-1.128-0.147-1.681-0.202L176.896,484.259z M155.695,521.559c-0.433-0.479-0.879-0.977-1.326-1.455l-0.027-0.019
		c-1.419-1.565-2.837-3.168-4.237-4.733c0.018,1.501,0.046,3.021,0.087,4.513v0.055c0,0.388,0.014,0.765,0.014,1.143
		c0.014,0,0.042,0,0.056,0c0.553,0.055,1.101,0.11,1.676,0.165L155.695,521.559z M150.077,494.564
		c0.401-0.166,0.811-0.414,1.165-0.636c0.475-0.313,0.931-0.7,1.313-1.123c0.382-0.424,0.663-0.939,0.88-1.474
		c0.281-0.7,0.354-1.538,0.354-2.275l0.014-0.027c0-0.175-0.115-0.424-0.184-0.571l-0.014-0.027
		c-0.156-0.313-0.653-0.737-0.921-0.948l-0.032-0.037c-0.649-0.498-1.621-0.885-2.473-1.16c-0.014,0.782-0.027,1.565-0.042,2.348
		c-0.014,1.475-0.032,2.947-0.042,4.412C150.077,493.561,150.077,494.058,150.077,494.564L150.077,494.564z M210.471,489.232v-2.026
		c0-0.222,0.018-0.442,0.018-0.646c-0.469-0.073-0.948-0.165-1.418-0.229h-0.042h-0.023c-0.604-0.083-1.179-0.157-1.759-0.249
		c-0.014,0.497-0.028,0.985-0.042,1.465c-0.046,1.445-0.055,2.883-0.083,4.338c-0.018,0.368-0.018,0.727-0.027,1.096
		c0.649-0.046,1.28-0.083,1.934-0.139h0.055c0.198-0.009,0.41-0.018,0.608-0.036l0.511-3.537L210.471,489.232z M213.487,516.438
		l-6.185-2.597l0.185-4.016c-0.138,0-0.267-0.037-0.392-0.037c0,0.581,0.009,1.151,0.027,1.714c0.028,1.639,0.037,3.278,0.083,4.927
		c0.028,1.216,0.056,2.422,0.088,3.656c0.009,0,0.027,0,0.041,0c1.778-0.129,3.606-0.331,5.374-0.7c0.028,0,0.056-0.009,0.092-0.009
		C213.022,518.391,213.234,517.424,213.487,516.438L213.487,516.438z M251.216,533.292l2.758-11.642l3.877-0.313
		c-0.41-1.197-0.824-2.386-1.234-3.574c-0.516-1.491-1.063-3.021-1.603-4.521l-0.014-0.01c-0.106-0.358-0.235-0.699-0.364-1.04
		c-0.014,0-0.042,0-0.055,0c-1.179,0.055-2.367,0.101-3.551,0.175c-1.179,0.055-2.357,0.129-3.527,0.203h-0.041h-0.051
		c-0.051,0-0.12,0-0.175,0.018c-0.369,1.336-0.742,2.671-1.092,3.997c-0.382,1.474-0.769,2.938-1.124,4.421l-0.004,0.037
		c-0.023,0.11-0.051,0.212-0.078,0.322l4.089,0.414L251.216,533.292z M309.238,496.176c0.221-0.202,0.396-0.387,0.589-0.607
		c0.47-0.534,0.829-1.271,1.087-1.906c0.378-1.022,0.488-2.293,0.488-3.361c0-0.646-0.083-1.271-0.295-1.879
		c-0.166-0.461-0.387-0.848-0.728-1.188l-0.027-0.046c-0.268-0.322-0.636-0.58-1.022-0.792c-0.01,0.811-0.027,1.62-0.027,2.431
		v0.056c-0.037,1.548-0.056,3.095-0.056,4.624v0.064C309.247,494.444,309.247,495.292,309.238,496.176L309.238,496.176z
		 M361.338,489.232v-2.026c0-0.222,0-0.442,0-0.646c-0.46-0.073-0.921-0.165-1.399-0.229h-0.027h-0.056
		c-0.571-0.083-1.17-0.157-1.74-0.249c-0.019,0.497-0.047,0.985-0.047,1.465c-0.027,1.445-0.064,2.883-0.092,4.338
		c0,0.368-0.019,0.727-0.019,1.096c0.646-0.046,1.28-0.083,1.925-0.139h0.056c0.212-0.009,0.424-0.018,0.608-0.036l0.524-3.537
		L361.338,489.232z M364.35,516.438l-6.188-2.597l0.185-4.016c-0.13,0-0.249-0.037-0.396-0.037c0.009,0.581,0.027,1.151,0.027,1.714
		c0.027,1.639,0.064,3.278,0.092,4.927c0.028,1.216,0.047,2.422,0.074,3.656c0.019,0,0.037,0,0.046,0
		c1.806-0.129,3.62-0.331,5.369-0.7c0.028,0,0.056-0.009,0.11-0.009C363.871,518.391,364.11,517.424,364.35,516.438L364.35,516.438z
		 M411.67,521.559c-0.451-0.479-0.902-0.977-1.335-1.455l-0.027-0.019c-1.419-1.565-2.837-3.168-4.237-4.733
		c0.019,1.501,0.037,3.021,0.083,4.513v0.055c0,0.388,0.028,0.765,0.028,1.143c0.009,0,0.027,0,0.036,0
		c0.563,0.055,1.105,0.11,1.677,0.165L411.67,521.559z M406.043,494.564c0.396-0.166,0.802-0.414,1.16-0.636
		c0.488-0.313,0.939-0.7,1.317-1.123c0.387-0.424,0.673-0.939,0.875-1.474c0.285-0.7,0.359-1.538,0.359-2.275v-0.027
		c0.019-0.175-0.102-0.424-0.166-0.571l-0.019-0.027c-0.147-0.313-0.654-0.737-0.921-0.948l-0.027-0.037
		c-0.654-0.498-1.621-0.885-2.469-1.16c-0.027,0.782-0.046,1.565-0.055,2.348c-0.028,1.475-0.028,2.947-0.037,4.412
		C406.043,493.561,406.043,494.058,406.043,494.564L406.043,494.564z M448.934,510.691l-0.147,2.892
		c0,0.165,0.027,0.368,0.027,0.543c0.028,0.562,0.056,1.133,0.12,1.677c0.055,0.653,0.11,1.299,0.175,1.934
		c0,0.056,0,0.11,0.019,0.156c0.285,0.525,0.636,1.014,1.059,1.475c0.553,0.552,1.133,1.013,1.861,1.326
		c0.635,0.294,1.289,0.423,1.998,0.441c0.617-0.019,1.216-0.092,1.796-0.304l0.056-0.009c0.414-0.147,0.782-0.351,1.123-0.627
		c0.212-0.202,0.405-0.424,0.544-0.719c0.119-0.238,0.147-0.552,0.156-0.838c-0.009-0.377-0.046-0.819-0.185-1.188
		c-0.221-0.461-0.497-0.829-0.856-1.216c-0.635-0.663-1.354-1.253-2.091-1.787c-1.077-0.755-2.154-1.491-3.27-2.191l-0.027-0.019
		l-0.037-0.019C450.472,511.723,449.698,511.197,448.934,510.691L448.934,510.691z M460.05,489.14
		c-0.009-0.599-0.027-1.216-0.046-1.814c-0.027-0.313-0.056-0.626-0.074-0.948c-0.239-0.295-0.516-0.553-0.819-0.773
		c-0.368-0.295-0.801-0.516-1.225-0.682c-0.351-0.147-0.746-0.185-1.133-0.203c-0.47,0-1.17,0.047-1.575,0.212h-0.046l-0.027,0.01
		c-0.12,0.046-0.341,0.147-0.415,0.221c-0.027,0.019-0.027,0.027-0.027,0.027c0.203,0.286,0.47,0.544,0.709,0.746
		c0.838,0.719,1.741,1.354,2.662,1.935h0.046l0.027,0.046C458.761,488.32,459.414,488.734,460.05,489.14L460.05,489.14z"/>
	<path fill="#F4E00B" stroke="#F4E00B" stroke-width="1.9967" stroke-miterlimit="10" d="M134.467,502.162c0,1.346,0,2.837,0,4.477
		c-0.014,1.63-0.014,3.315-0.023,5.084c-0.014,1.75-0.037,3.453-0.064,5.13c-0.014,1.686-0.027,3.232-0.055,4.66
		c-0.037,1.428-0.074,2.644-0.101,3.638c-0.042,0.994-0.097,1.694-0.143,2.063c-0.544,0.148-1.211,0.277-1.99,0.388
		c-0.81,0.11-1.602,0.221-2.427,0.331c-0.833,0.074-1.566,0.185-2.219,0.221c-0.659,0.074-1.128,0.111-1.405,0.129l-0.304,1.604
		c0.369-0.037,0.935-0.074,1.709-0.093c0.764-0.019,1.657-0.055,2.666-0.092s2.035-0.037,3.099-0.056
		c1.041-0.037,2.049-0.037,2.984-0.073c0.944,0,1.741,0,2.362,0c0.709,0,1.552,0,2.519,0c0.962,0.036,1.971,0.036,3.048,0.073
		c1.064,0.019,2.091,0.019,3.076,0.056c0.995,0.037,1.888,0.073,2.666,0.092c0.778,0.019,1.363,0.056,1.746,0.093l-0.299-1.604
		c-0.424-0.036-1.018-0.092-1.769-0.165c-0.741-0.093-1.533-0.166-2.353-0.276c-0.833-0.092-1.598-0.203-2.293-0.313
		c-0.69-0.092-1.215-0.202-1.552-0.313c-0.06-0.718-0.087-1.713-0.129-2.965c-0.041-1.253-0.073-2.652-0.101-4.2
		c-0.042-1.565-0.069-3.131-0.083-4.733c-0.014-1.621-0.046-3.15-0.06-4.568c-0.014-1.428-0.014-2.634-0.014-3.646v-1.972
		c0.442,0,1.05-0.036,1.824-0.073c0.764-0.037,1.63-0.092,2.574-0.166c0.949-0.074,1.916-0.129,2.892-0.221
		c0.188,0.248,0.723,0.865,1.584,1.879c0.865,1.013,1.971,2.293,3.311,3.822c1.35,1.51,2.837,3.177,4.444,4.973
		c1.63,1.777,3.297,3.583,5.015,5.388c1.708,1.806,3.356,3.481,4.937,5.084c1.616,1.565,3.048,2.892,4.333,3.979
		c1.275,1.105,2.325,1.843,3.085,2.211l3.339-0.534c-1.128-1.216-2.335-2.616-3.601-4.2c-1.262-1.584-2.538-3.297-3.859-5.103
		c-1.299-1.786-2.574-3.628-3.831-5.461c-1.244-1.852-2.437-3.638-3.537-5.342c-1.119-1.723-2.1-3.27-2.97-4.688
		c-0.88-1.4-1.589-2.588-2.128-3.519c-0.552-0.939-0.893-1.538-1.022-1.823c1.474-0.811,2.85-1.806,4.135-2.947
		c1.303-1.16,2.432-2.367,3.412-3.666c0.99-1.308,1.755-2.625,2.303-3.941c0.566-1.326,0.838-2.606,0.852-3.804
		c-0.027-2.091-0.603-3.859-1.754-5.296c-1.146-1.455-2.735-2.561-4.771-3.353c-1.298-0.516-2.8-0.921-4.503-1.206
		c-1.709-0.285-3.509-0.507-5.416-0.627c-1.929-0.119-3.868-0.229-5.802-0.258c-1.971-0.027-3.85-0.046-5.678-0.046l-16.389,0.074
		l0.226,1.603c0.447,0.046,1.05,0.092,1.796,0.166c0.765,0.055,1.562,0.138,2.404,0.239c0.852,0.073,1.63,0.156,2.339,0.267
		c0.709,0.083,1.248,0.166,1.58,0.23c0.046,0.258,0.101,0.829,0.143,1.704c0.027,0.884,0.064,1.934,0.101,3.195
		c0.028,1.262,0.042,2.579,0.055,4.016c0.028,1.399,0.051,2.745,0.064,4.089c0.01,1.326,0.01,2.506,0.023,3.51
		c0,1.021,0,1.777,0,2.256V502.162z M142.958,500.412c0-0.902,0-2.007,0.014-3.287c0.014-1.28,0.028-2.662,0.046-4.136
		c0.014-1.491,0.028-2.983,0.042-4.476c0.027-1.502,0.055-2.929,0.083-4.265c0.014-1.362,0.06-2.569,0.101-3.582
		c0.028-1.032,0.055-1.814,0.101-2.34c3.265,0.01,6.023,0.351,8.28,1.004c2.233,0.626,4.043,1.501,5.402,2.561
		c1.363,1.06,2.349,2.22,2.961,3.472c0.607,1.253,0.894,2.506,0.879,3.749c0,1.869-0.313,3.499-0.879,4.891
		c-0.585,1.399-1.322,2.597-2.215,3.573c-0.903,0.977-1.838,1.787-2.823,2.376c-0.976,0.617-1.897,1.068-2.735,1.382
		c-1.639,0.589-3.242,0.967-4.821,1.179c-1.575,0.185-3.044,0.267-4.435,0.267V500.412z M191.301,503.525c0,1.4,0,2.929-0.023,4.568
		c0,1.621-0.028,3.297-0.042,5.001c-0.027,1.667-0.055,3.325-0.078,4.909c-0.037,1.574-0.078,3.021-0.106,4.31
		c-0.042,1.308-0.092,2.395-0.129,3.261c-0.055,0.865-0.105,1.4-0.147,1.639c-0.539,0.148-1.165,0.277-1.916,0.388
		c-0.765,0.11-1.511,0.221-2.326,0.331c-0.774,0.074-1.497,0.185-2.132,0.221c-0.653,0.074-1.137,0.111-1.441,0.129l-0.382,1.604
		c0.75-0.056,1.653-0.093,2.685-0.111c1.036-0.036,2.1-0.073,3.214-0.11c1.119-0.019,2.169-0.056,3.164-0.056
		c0.985-0.036,1.805-0.036,2.473-0.036c0.824,0,1.911,0,3.27,0.036c1.368,0,2.874,0.037,4.541,0.056
		c1.658,0.037,3.362,0.074,5.07,0.11c1.709,0.037,3.325,0.093,4.85,0.129c1.533,0.056,2.822,0.093,3.891,0.185
		c1.092,0.037,1.819,0.11,2.201,0.166c0.042,0.589,0.069,1.271,0.069,2.008c0.014,0.736,0.014,1.603,0.014,2.615l1.589,0.313
		c0.051-0.645,0.143-1.474,0.249-2.469c0.115-0.994,0.258-2.1,0.424-3.278c0.143-1.179,0.313-2.395,0.488-3.61
		c0.18-1.234,0.351-2.395,0.521-3.5c0.185-1.105,0.327-2.072,0.465-2.892c0.161-0.811,0.276-1.419,0.359-1.796l-1.745,0.47
		c-0.212,0.838-0.433,1.833-0.695,2.975c-0.235,1.133-0.576,2.367-0.972,3.693c-1.179,0.663-2.708,1.179-4.601,1.547
		c-1.874,0.368-3.965,0.646-6.299,0.829c-2.339,0.129-4.757,0.221-7.317,0.221c-0.042-0.404-0.069-1.123-0.111-2.191
		c-0.046-1.05-0.087-2.321-0.129-3.822s-0.074-3.095-0.115-4.78c-0.042-1.667-0.055-3.343-0.083-4.974
		c-0.032-1.62-0.06-3.112-0.074-4.438c-0.014-1.345-0.014-2.403-0.014-3.196v-1.51c2.178,0,4.264,0.046,6.198,0.175
		c1.971,0.11,3.666,0.276,5.171,0.516c1.474,0.249,2.629,0.562,3.426,0.985c0,0.773-0.019,1.611-0.06,2.505
		c-0.023,0.894-0.055,1.778-0.101,2.569l1.45,0.608c0.069-0.405,0.147-1.013,0.263-1.786c0.097-0.793,0.226-1.677,0.368-2.653
		c0.143-0.994,0.268-2.026,0.41-3.058s0.267-2.017,0.396-2.947c0.129-0.921,0.24-1.713,0.327-2.395
		c0.102-0.653,0.171-1.105,0.212-1.344l-1.593,0.146c-0.078,0.534-0.17,1.068-0.299,1.603c-0.11,0.517-0.276,1.097-0.474,1.658
		c-0.46,0.165-1.23,0.331-2.289,0.488c-1.06,0.138-2.335,0.258-3.781,0.377c-1.469,0.11-3.03,0.194-4.674,0.259
		c-1.653,0.055-3.311,0.092-4.95,0.092v-1.529c0-0.755,0-1.75,0.014-2.975c0.014-1.207,0.042-2.561,0.074-4.024
		c0.027-1.437,0.041-2.893,0.083-4.366c0.042-1.473,0.074-2.854,0.115-4.107c0.042-1.271,0.083-2.32,0.129-3.158
		c0.042-0.857,0.069-1.363,0.111-1.566c0.681,0,1.547,0.027,2.574,0.102c1.022,0.055,2.141,0.11,3.325,0.258
		c1.207,0.11,2.418,0.239,3.638,0.433c1.22,0.147,2.344,0.378,3.398,0.599c1.05,0.24,1.957,0.498,2.694,0.811
		c0.714,0.276,1.202,0.627,1.441,0.995c0.023,0.405,0.023,0.865,0.041,1.437c0,0.543,0,1.087-0.018,1.658
		c0,0.589,0,1.068-0.009,1.51c-0.014,0.424-0.014,0.719-0.014,0.866l1.671,0.534c0.028-0.415,0.079-1.041,0.143-1.87
		c0.069-0.838,0.156-1.814,0.239-2.901c0.078-1.086,0.193-2.21,0.299-3.37c0.106-1.17,0.208-2.266,0.313-3.307
		c0.106-1.06,0.198-1.962,0.304-2.717c0.083-0.746,0.157-1.271,0.226-1.565l-1.759,0.313c-0.064,0.682-0.147,1.345-0.263,1.953
		c-0.115,0.607-0.226,1.16-0.34,1.621c-0.295,0.073-0.875,0.129-1.759,0.184c-0.856,0.074-1.893,0.11-3.122,0.156
		c-1.229,0.028-2.565,0.056-3.988,0.083c-1.418,0.028-2.851,0.074-4.283,0.074c-1.428,0-2.772,0-4.029,0
		c-1.248,0-2.325,0.036-3.232,0.036c-0.889,0-1.524,0-1.893,0c-0.853,0-1.852-0.036-3.017-0.036
		c-1.174-0.019-2.395-0.046-3.666-0.046c-1.262-0.047-2.496-0.083-3.666-0.111c-1.184-0.046-2.233-0.082-3.154-0.11l0.295,1.667
		c0.47,0.056,1.073,0.129,1.796,0.221c0.736,0.074,1.501,0.166,2.298,0.277c0.787,0.092,1.538,0.193,2.22,0.304
		c0.681,0.101,1.206,0.156,1.588,0.258c0.055,0.488,0.106,1.308,0.17,2.44c0.055,1.17,0.106,2.505,0.134,4.07
		c0.064,1.557,0.087,3.205,0.115,4.938c0.042,1.749,0.069,3.463,0.083,5.147c0,1.677,0.023,3.196,0.023,4.596V503.525z
		 M259.293,529.885c0.438-0.037,1.063-0.074,1.911-0.093c0.852-0.019,1.796-0.055,2.869-0.092c1.054-0.037,2.109-0.037,3.173-0.056
		c1.064-0.037,2.021-0.037,2.887-0.073c0.88,0,1.533,0,1.985,0c0.824,0,1.754,0,2.777,0c1.018,0.036,2.067,0.036,3.141,0.073
		c1.077,0.019,2.067,0.019,3.012,0.056c0.953,0.037,1.745,0.073,2.39,0.092c0.658,0.019,1.091,0.056,1.275,0.093l-0.226-1.604
		c-1.137-0.165-2.261-0.294-3.366-0.46c-1.101-0.185-2.206-0.387-3.315-0.608c-0.7-1.362-1.446-2.892-2.201-4.623
		c-0.783-1.75-1.547-3.555-2.321-5.471c-0.774-1.915-1.534-3.813-2.248-5.673c-0.723-1.879-1.386-3.638-1.984-5.286
		c-0.612-1.621-1.124-3.021-1.562-4.219c-0.58-1.621-1.206-3.334-1.837-5.176c-0.654-1.823-1.308-3.647-1.943-5.489
		c-0.645-1.842-1.248-3.592-1.823-5.259c-0.553-1.648-1.05-3.104-1.465-4.384c-0.405-1.28-0.695-2.257-0.902-2.929
		c0.894-0.23,1.814-0.414,2.8-0.58c0.98-0.166,1.971-0.295,2.979-0.415l0.216-1.584c-0.442,0.028-1.083,0.056-1.875,0.083
		c-0.824,0.027-1.713,0.056-2.717,0.083c-1.008,0.027-2.031,0.056-3.071,0.083c-1.032,0.019-2.026,0.019-2.952,0.019
		c-0.916,0.036-1.708,0.036-2.362,0.036c-0.267,0-0.7,0-1.294-0.036c-0.599,0-1.294,0-2.077-0.019
		c-0.788-0.027-1.584-0.056-2.399-0.083c-0.82-0.027-1.603-0.056-2.312-0.083c-0.718-0.027-1.308-0.055-1.782-0.083l0.073,1.584
		c0.622,0.083,1.29,0.175,2.008,0.259c0.709,0.092,1.418,0.202,2.096,0.322c0.7,0.11,1.335,0.248,1.897,0.414
		c-0.129,0.322-0.415,1.087-0.838,2.256c-0.433,1.18-0.985,2.672-1.653,4.458c-0.681,1.823-1.432,3.85-2.274,6.079
		c-0.833,2.246-1.718,4.586-2.644,7.045c-0.939,2.459-1.874,4.945-2.841,7.433c-0.949,2.486-1.865,4.862-2.768,7.184
		c-0.894,2.303-1.741,4.421-2.505,6.337c-0.778,1.915-1.459,3.555-2.04,4.899c-0.571,1.345-1.018,2.284-1.331,2.817
		c-1.022,0.222-2.096,0.424-3.196,0.627c-1.119,0.166-2.21,0.313-3.334,0.441l-0.226,1.604c0.461-0.056,1.064-0.093,1.828-0.111
		c0.783-0.036,1.603-0.073,2.492-0.11c0.879-0.019,1.727-0.056,2.523-0.056c0.801-0.036,1.451-0.036,1.961-0.036
		c0.456,0,1.064,0,1.81,0c0.75,0.036,1.588,0.036,2.496,0.073c0.907,0.019,1.824,0.019,2.731,0.056
		c0.921,0.037,1.773,0.073,2.533,0.092c0.783,0.019,1.4,0.056,1.883,0.093l-0.294-1.604c-1.092-0.129-2.206-0.258-3.357-0.404
		c-1.146-0.185-2.196-0.387-3.168-0.664c0.12-0.994,0.341-2.154,0.617-3.518c0.29-1.382,0.617-2.818,0.995-4.348
		c0.369-1.528,0.764-3.057,1.146-4.567c0.401-1.483,0.778-2.874,1.133-4.145c0.364-1.253,0.667-2.312,0.917-3.149
		c0.249-0.811,0.428-1.345,0.497-1.52c0.479-0.102,1.175-0.148,2.091-0.23c0.917-0.093,1.943-0.166,3.108-0.24
		c1.174-0.073,2.376-0.146,3.633-0.211c1.229-0.056,2.436-0.111,3.596-0.157c1.165-0.055,2.179-0.092,3.085-0.11
		c0.894-0.037,1.561-0.046,2.022-0.046c0.211,0.378,0.511,1.104,0.921,2.146c0.387,1.031,0.865,2.266,1.377,3.721
		c0.524,1.455,1.054,2.984,1.625,4.596c0.566,1.631,1.105,3.205,1.645,4.743c0.516,1.548,0.994,2.947,1.432,4.182
		c0.401,1.234,0.728,2.174,0.958,2.854c-1.179,0.277-2.404,0.479-3.712,0.664c-1.28,0.146-2.602,0.275-3.951,0.404L259.293,529.885z
		 M258.837,502.697l-15.933-0.295c0.129-0.442,0.369-1.124,0.686-2.082c0.341-0.921,0.746-2.063,1.207-3.352
		c0.465-1.309,0.995-2.689,1.529-4.182c0.553-1.492,1.11-3.003,1.662-4.531c0.563-1.547,1.087-3.021,1.612-4.43
		c0.511-1.419,0.953-2.681,1.345-3.822h0.156c0.212,0.69,0.516,1.621,0.907,2.771c0.378,1.151,0.815,2.423,1.308,3.841
		c0.475,1.419,0.981,2.892,1.524,4.402c0.511,1.548,1.027,3.039,1.538,4.485c0.507,1.465,0.976,2.827,1.4,4.062
		C258.206,500.8,258.552,501.84,258.837,502.697L258.837,502.697z M302.165,497.834c0-1.326,0-2.763,0.019-4.328
		c0-1.548,0.018-3.132,0.046-4.734c0.009-1.584,0.027-3.113,0.055-4.522c0.028-1.418,0.065-2.624,0.11-3.692
		c0.047-1.032,0.102-1.787,0.157-2.229c1.124,0,2.284,0.056,3.454,0.157c1.206,0.11,2.33,0.285,3.426,0.533
		c1.086,0.23,2.072,0.581,2.91,0.986c1.28,0.635,2.413,1.464,3.315,2.468c0.912,1.032,1.621,2.21,2.1,3.537
		c0.47,1.316,0.728,2.744,0.728,4.301c-0.009,2.293-0.331,4.255-0.976,5.903c-0.626,1.621-1.446,3.002-2.413,4.099
		c-1.004,1.104-2.045,1.989-3.15,2.661c-1.096,0.664-2.118,1.17-3.085,1.529c-0.958,0.332-1.704,0.571-2.293,0.7l-0.222,1.897
		c0.563-0.074,1.299-0.222,2.238-0.452c0.912-0.202,1.962-0.516,3.104-0.894c1.161-0.368,2.358-0.847,3.61-1.437
		c1.243-0.552,2.469-1.225,3.666-2.017c1.197-0.765,2.302-1.648,3.315-2.644c1.031-1.022,1.916-2.118,2.698-3.324
		c0.802-1.207,1.428-2.552,1.86-4.007c0.442-1.428,0.673-3.012,0.682-4.733c0.019-0.517-0.064-1.105-0.212-1.888
		c-0.156-0.746-0.497-1.566-0.985-2.441c-0.488-0.902-1.225-1.768-2.229-2.625c-1.014-0.893-2.349-1.676-4.007-2.385
		c-1.888-0.773-4.365-1.326-7.441-1.677c-3.095-0.35-6.695-0.534-10.849-0.534c-0.59,0-1.373,0-2.303,0
		c-0.939,0.019-1.967,0.019-3.113,0.019c-1.137,0-2.293,0-3.472,0.019c-1.175,0-2.289,0.019-3.353,0.019
		c-1.055,0.019-2.008,0.019-2.813,0.019c-0.811,0.009-1.409,0.009-1.806,0.009l0.23,1.584c0.465,0.037,1.091,0.102,1.842,0.157
		c0.746,0.073,1.543,0.146,2.362,0.239c0.829,0.073,1.603,0.185,2.303,0.295c0.709,0.138,1.234,0.248,1.616,0.368
		c0.06,0.461,0.102,1.16,0.143,2.137c0.046,0.958,0.056,2.091,0.102,3.353c0.027,1.289,0.06,2.606,0.069,3.997
		c0.014,1.363,0.027,2.689,0.041,3.96s0.014,2.376,0.032,3.334c0,0.939,0,1.64,0,2.063v3.021c0,1.197,0,2.606,0,4.2
		c-0.019,1.602-0.019,3.297-0.032,5.102c-0.014,1.787-0.027,3.592-0.041,5.397c-0.01,1.786-0.042,3.499-0.069,5.074
		c-0.046,1.594-0.055,2.993-0.102,4.19c-0.041,1.16-0.083,2.045-0.143,2.615c-0.506,0.111-1.146,0.222-1.92,0.313
		c-0.778,0.11-1.575,0.222-2.413,0.313c-0.82,0.11-1.566,0.184-2.247,0.276c-0.682,0.073-1.161,0.129-1.46,0.165l-0.313,1.604
		c0.456-0.037,1.055-0.074,1.833-0.093s1.64-0.055,2.629-0.092c0.976-0.037,1.98-0.037,3.025-0.056
		c1.055-0.037,2.059-0.037,3.04-0.073c0.972,0,1.833,0,2.615,0c0.7,0,1.58,0,2.593,0c1.031,0.036,2.128,0.036,3.288,0.073
		c1.16,0.019,2.303,0.019,3.426,0.056c1.114,0.037,2.137,0.073,3.049,0.092c0.902,0.019,1.611,0.056,2.137,0.093l-0.378-1.604
		c-0.617-0.055-1.363-0.129-2.247-0.221c-0.902-0.073-1.824-0.184-2.791-0.295c-0.957-0.092-1.832-0.184-2.652-0.275
		c-0.828-0.111-1.492-0.203-1.952-0.277c-0.046-0.387-0.102-1.123-0.147-2.246c-0.027-1.143-0.055-2.469-0.083-4.09
		c-0.037-1.584-0.064-3.315-0.064-5.157c-0.027-1.852-0.056-3.675-0.056-5.517c0-1.852-0.018-3.556-0.018-5.167
		c-0.019-1.565-0.019-2.91-0.019-4.016V497.834z M342.173,503.525c0,1.4,0,2.929-0.019,4.568c-0.01,1.621-0.037,3.297-0.056,5.001
		c-0.009,1.667-0.036,3.325-0.092,4.909c-0.027,1.574-0.056,3.021-0.092,4.31c-0.046,1.308-0.083,2.395-0.13,3.261
		c-0.055,0.865-0.109,1.4-0.165,1.639c-0.516,0.148-1.151,0.277-1.906,0.388c-0.746,0.11-1.511,0.221-2.303,0.331
		c-0.783,0.074-1.511,0.185-2.146,0.221c-0.654,0.074-1.133,0.111-1.446,0.129l-0.387,1.604c0.765-0.056,1.648-0.093,2.698-0.111
		c1.022-0.036,2.1-0.073,3.215-0.11c1.104-0.019,2.154-0.056,3.149-0.056c1.013-0.036,1.823-0.036,2.478-0.036
		c0.819,0,1.915,0,3.278,0.036c1.354,0,2.855,0.037,4.531,0.056c1.667,0.037,3.353,0.074,5.084,0.11
		c1.704,0.037,3.325,0.093,4.835,0.129c1.529,0.056,2.818,0.093,3.896,0.185c1.096,0.037,1.823,0.11,2.21,0.166
		c0.027,0.589,0.056,1.271,0.056,2.008c0.009,0.736,0.009,1.603,0.009,2.615l1.593,0.313c0.056-0.645,0.139-1.474,0.249-2.469
		c0.12-0.994,0.258-2.1,0.424-3.278s0.313-2.395,0.507-3.61c0.156-1.234,0.35-2.395,0.497-3.5c0.193-1.105,0.341-2.072,0.479-2.892
		c0.147-0.811,0.259-1.419,0.359-1.796l-1.759,0.47c-0.203,0.838-0.442,1.833-0.682,2.975c-0.249,1.133-0.571,2.367-0.985,3.693
		c-1.17,0.663-2.698,1.179-4.587,1.547c-1.869,0.368-3.979,0.646-6.299,0.829c-2.33,0.129-4.771,0.221-7.313,0.221
		c-0.046-0.404-0.083-1.123-0.138-2.191c-0.027-1.05-0.083-2.321-0.11-3.822c-0.037-1.501-0.083-3.095-0.11-4.78
		c-0.037-1.667-0.064-3.343-0.093-4.974c-0.027-1.62-0.036-3.112-0.055-4.438c-0.01-1.345-0.028-2.403-0.028-3.196v-1.51
		c2.184,0,4.256,0.046,6.198,0.175c1.962,0.11,3.685,0.276,5.167,0.516c1.482,0.249,2.625,0.562,3.417,0.985
		c0,0.773,0,1.611-0.037,2.505c-0.027,0.894-0.083,1.778-0.101,2.569l1.445,0.608c0.056-0.405,0.139-1.013,0.249-1.786
		c0.12-0.793,0.229-1.677,0.368-2.653c0.147-0.994,0.268-2.026,0.433-3.058c0.139-1.031,0.258-2.017,0.368-2.947
		c0.139-0.921,0.249-1.713,0.359-2.395c0.093-0.653,0.147-1.105,0.185-1.344l-1.593,0.146c-0.064,0.534-0.166,1.068-0.286,1.603
		c-0.138,0.517-0.285,1.097-0.46,1.658c-0.479,0.165-1.253,0.331-2.321,0.488c-1.05,0.138-2.312,0.258-3.767,0.377
		c-1.474,0.11-3.03,0.194-4.679,0.259c-1.649,0.055-3.307,0.092-4.946,0.092v-1.529c0-0.755,0.019-1.75,0.028-2.975
		c0.019-1.207,0.027-2.561,0.055-4.024c0.028-1.437,0.056-2.893,0.093-4.366c0.027-1.473,0.073-2.854,0.11-4.107
		c0.027-1.271,0.083-2.32,0.11-3.158c0.055-0.857,0.092-1.363,0.138-1.566c0.682,0,1.538,0.027,2.561,0.102
		c1.022,0.055,2.137,0.11,3.334,0.258c1.216,0.11,2.432,0.239,3.629,0.433c1.216,0.147,2.357,0.378,3.407,0.599
		c1.051,0.24,1.943,0.498,2.681,0.811c0.736,0.276,1.216,0.627,1.455,0.995c0.027,0.405,0.027,0.865,0.046,1.437
		c0,0.543,0,1.087-0.019,1.658c0,0.589,0,1.068-0.009,1.51c-0.019,0.424-0.019,0.719-0.019,0.866l1.667,0.534
		c0.037-0.415,0.083-1.041,0.147-1.87c0.055-0.838,0.138-1.814,0.229-2.901c0.102-1.086,0.193-2.21,0.286-3.37
		c0.129-1.17,0.221-2.266,0.313-3.307c0.129-1.06,0.221-1.962,0.322-2.717c0.073-0.746,0.175-1.271,0.211-1.565l-1.74,0.313
		c-0.074,0.682-0.166,1.345-0.276,1.953c-0.092,0.607-0.202,1.16-0.322,1.621c-0.313,0.073-0.902,0.129-1.75,0.184
		c-0.865,0.074-1.906,0.11-3.141,0.156c-1.243,0.028-2.551,0.056-3.979,0.083c-1.437,0.028-2.864,0.074-4.282,0.074
		c-1.428,0-2.764,0-4.043,0c-1.244,0-2.321,0.036-3.215,0.036c-0.902,0-1.547,0-1.897,0c-0.847,0-1.869-0.036-3.021-0.036
		c-1.179-0.019-2.404-0.046-3.656-0.046c-1.28-0.047-2.496-0.083-3.666-0.111c-1.197-0.046-2.247-0.082-3.177-0.11l0.313,1.667
		c0.469,0.056,1.068,0.129,1.786,0.221c0.728,0.074,1.501,0.166,2.293,0.277c0.802,0.092,1.538,0.193,2.229,0.304
		c0.682,0.101,1.188,0.156,1.565,0.258c0.083,0.488,0.129,1.308,0.185,2.44c0.055,1.17,0.11,2.505,0.146,4.07
		c0.056,1.557,0.083,3.205,0.111,4.938c0.036,1.749,0.064,3.463,0.082,5.147c0.01,1.677,0.028,3.196,0.028,4.596V503.525z"/>
	<path fill="#F4E00B" stroke="#F4E00B" stroke-width="1.9967" stroke-miterlimit="10" d="M390.441,502.162c0,1.346,0,2.837,0,4.477
		c-0.027,1.63-0.027,3.315-0.037,5.084c-0.018,1.75-0.027,3.453-0.055,5.13c-0.019,1.686-0.027,3.232-0.056,4.66
		c-0.046,1.428-0.064,2.644-0.092,3.638c-0.056,0.994-0.11,1.694-0.156,2.063c-0.544,0.148-1.207,0.277-1.989,0.388
		c-0.811,0.11-1.594,0.221-2.423,0.331c-0.829,0.074-1.565,0.185-2.22,0.221c-0.672,0.074-1.133,0.111-1.408,0.129l-0.313,1.604
		c0.368-0.037,0.948-0.074,1.722-0.093c0.765-0.019,1.658-0.055,2.652-0.092c1.014-0.037,2.045-0.037,3.095-0.056
		c1.068-0.037,2.072-0.037,3.003-0.073c0.948,0,1.722,0,2.357,0c0.719,0,1.565,0,2.533,0c0.948,0.036,1.961,0.036,3.021,0.073
		c1.05,0.019,2.1,0.019,3.095,0.056c0.994,0.037,1.879,0.073,2.652,0.092c0.783,0.019,1.363,0.056,1.75,0.093l-0.305-1.604
		c-0.433-0.036-1.021-0.092-1.768-0.165c-0.719-0.093-1.529-0.166-2.349-0.276c-0.829-0.092-1.594-0.203-2.284-0.313
		c-0.7-0.092-1.225-0.202-1.557-0.313c-0.064-0.718-0.092-1.713-0.138-2.965c-0.037-1.253-0.064-2.652-0.093-4.2
		c-0.036-1.565-0.064-3.131-0.082-4.733c-0.01-1.621-0.037-3.15-0.056-4.568c-0.009-1.428-0.009-2.634-0.009-3.646v-1.972
		c0.433,0,1.049-0.036,1.823-0.073c0.746-0.037,1.621-0.092,2.579-0.166c0.939-0.074,1.906-0.129,2.882-0.221
		c0.185,0.248,0.728,0.865,1.585,1.879c0.855,1.013,1.971,2.293,3.306,3.822c1.354,1.51,2.837,3.177,4.448,4.973
		c1.631,1.777,3.307,3.583,5.011,5.388c1.722,1.806,3.353,3.481,4.945,5.084c1.612,1.565,3.039,2.892,4.319,3.979
		c1.28,1.105,2.33,1.843,3.095,2.211l3.334-0.534c-1.124-1.216-2.33-2.616-3.61-4.2c-1.252-1.584-2.533-3.297-3.84-5.103
		c-1.309-1.786-2.589-3.628-3.841-5.461c-1.243-1.852-2.44-3.638-3.546-5.342c-1.114-1.723-2.109-3.27-2.966-4.688
		c-0.875-1.4-1.584-2.588-2.128-3.519c-0.543-0.939-0.884-1.538-1.004-1.823c1.465-0.811,2.847-1.806,4.127-2.947
		c1.308-1.16,2.44-2.367,3.407-3.666c0.977-1.308,1.759-2.625,2.303-3.941c0.571-1.326,0.838-2.606,0.856-3.804
		c-0.027-2.091-0.617-3.859-1.76-5.296c-1.142-1.455-2.726-2.561-4.771-3.353c-1.289-0.516-2.8-0.921-4.494-1.206
		c-1.713-0.285-3.519-0.507-5.425-0.627c-1.916-0.119-3.868-0.229-5.812-0.258c-1.952-0.027-3.85-0.046-5.673-0.046l-16.394,0.074
		l0.239,1.603c0.433,0.046,1.031,0.092,1.796,0.166c0.765,0.055,1.548,0.138,2.395,0.239c0.856,0.073,1.64,0.156,2.349,0.267
		c0.69,0.083,1.234,0.166,1.575,0.23c0.046,0.258,0.101,0.829,0.156,1.704c0.027,0.884,0.046,1.934,0.092,3.195
		c0.028,1.262,0.037,2.579,0.056,4.016c0.027,1.399,0.037,2.745,0.055,4.089c0.01,1.326,0.01,2.506,0.037,3.51
		c0,1.021,0,1.777,0,2.256V502.162z M398.934,500.412c0-0.902,0-2.007,0.009-3.287c0.019-1.28,0.027-2.662,0.046-4.136
		c0.01-1.491,0.01-2.983,0.037-4.476c0.027-1.502,0.055-2.929,0.083-4.265c0.019-1.362,0.055-2.569,0.092-3.582
		c0.027-1.032,0.056-1.814,0.11-2.34c3.27,0.01,6.023,0.351,8.271,1.004c2.238,0.626,4.062,1.501,5.415,2.561
		c1.363,1.06,2.358,2.22,2.957,3.472c0.607,1.253,0.894,2.506,0.884,3.749c0,1.869-0.313,3.499-0.884,4.891
		c-0.58,1.399-1.308,2.597-2.229,3.573c-0.885,0.977-1.824,1.787-2.801,2.376c-0.984,0.617-1.906,1.068-2.744,1.382
		c-1.63,0.589-3.242,0.967-4.816,1.179c-1.566,0.185-3.058,0.267-4.43,0.267V500.412z M440.285,536.773
		c0.193-0.939,0.378-1.934,0.58-2.966c0.213-1.031,0.424-1.989,0.608-2.854c0.175-0.866,0.35-1.566,0.488-2.063
		c0.524,0.276,1.206,0.534,2.017,0.773c0.792,0.222,1.686,0.442,2.644,0.59c0.967,0.185,1.934,0.313,2.938,0.387
		c0.995,0.092,1.953,0.147,2.874,0.147c2.597,0,5.02-0.369,7.267-1.105c2.266-0.736,4.228-1.805,5.94-3.205
		c1.686-1.418,3.021-3.149,3.987-5.213c0.968-2.054,1.465-4.384,1.474-7.027c-0.009-2.385-0.377-4.467-1.087-6.253
		c-0.728-1.806-1.694-3.38-2.892-4.743c-1.225-1.363-2.569-2.588-4.07-3.666c-1.502-1.096-3.04-2.137-4.633-3.104
		c-1.446-0.902-2.837-1.787-4.126-2.597c-1.326-0.839-2.487-1.677-3.491-2.542c-1.021-0.856-1.823-1.787-2.412-2.781
		c-0.571-0.977-0.885-2.082-0.903-3.316c0-0.884,0.185-1.75,0.553-2.634c0.341-0.884,0.884-1.694,1.63-2.44
		c0.765-0.765,1.704-1.363,2.893-1.814c1.17-0.461,2.561-0.69,4.19-0.7c1.326,0.01,2.569,0.239,3.692,0.682
		c1.134,0.424,2.146,1.014,3.04,1.714c0.875,0.69,1.593,1.427,2.183,2.21c0.59,0.782,0.958,1.52,1.188,2.21
		c0.064,0.682,0.148,1.492,0.203,2.45c0.055,0.921,0.092,2.044,0.092,3.334L468.9,491c0-3.131,0.176-6.41,0.516-9.928
		c0.322-3.481,0.765-7.092,1.309-10.859l-1.75,0.222c-0.23,1.031-0.442,2.081-0.663,3.159c-0.222,1.068-0.433,2.072-0.71,2.983
		c-0.626-0.184-1.445-0.341-2.468-0.552c-1.031-0.222-2.201-0.406-3.536-0.571c-1.309-0.147-2.727-0.239-4.237-0.258
		c-2.237,0.019-4.228,0.304-5.94,0.829c-1.703,0.533-3.195,1.262-4.42,2.191c-1.226,0.902-2.229,1.943-3.012,3.095
		c-0.774,1.151-1.363,2.357-1.732,3.592c-0.368,1.234-0.524,2.468-0.524,3.665c0.009,2.119,0.35,4.043,1.031,5.692
		c0.682,1.676,1.621,3.187,2.864,4.55c1.207,1.363,2.616,2.652,4.236,3.858c1.604,1.188,3.353,2.386,5.231,3.602
		c1.243,0.792,2.44,1.584,3.602,2.413c1.142,0.811,2.191,1.713,3.085,2.67c0.931,0.939,1.648,1.999,2.201,3.205
		c0.525,1.197,0.801,2.552,0.811,4.08c-0.01,1.409-0.285,2.699-0.829,3.878c-0.562,1.16-1.335,2.155-2.302,3.021
		c-0.995,0.848-2.128,1.492-3.436,1.953c-1.289,0.479-2.699,0.718-4.209,0.718c-1.76,0-3.39-0.368-4.918-1.05
		c-1.529-0.719-2.874-1.676-4.043-2.929c-1.18-1.253-2.101-2.661-2.81-4.311c-0.056-0.341-0.11-0.847-0.175-1.455
		c-0.056-0.645-0.129-1.308-0.193-2.008c-0.056-0.718-0.092-1.362-0.139-1.952c-0.027-0.571-0.027-1.004-0.009-1.262l-1.75-0.451
		c0.046,0.387,0.073,0.957,0.073,1.759c0,0.792-0.027,1.686-0.055,2.681c-0.027,1.013-0.055,2.008-0.102,3.021
		c-0.027,0.994-0.064,1.897-0.092,2.708c-0.056,0.811-0.056,1.437-0.056,1.823c0,0.607-0.027,1.399-0.11,2.339
		c-0.064,0.939-0.156,1.935-0.267,3.021c-0.11,1.068-0.222,2.118-0.341,3.112c-0.111,0.995-0.221,1.86-0.305,2.579
		c-0.082,0.7-0.165,1.179-0.193,1.4L440.285,536.773z"/>
	<path fill-rule="evenodd" clip-rule="evenodd" fill="#EAEAE8" d="M208.717,421.807c-1.142,11.186-9.822,20.04-21.464,19.985
		l-2.399,0.543c-0.028-3.205,3.172-1.75,5.48-4.55l-1.092-1.008l-1.989-3.486l-2.413,0.027l1.377,4.356l-2.334,0.073l-0.631-0.971
		l-1.764-2.791l-3.726-0.193l-0.042,1.036l2.22,3.325l-2.049,0.082l-1.128-1.947l-1.146-1.893l-2.349-0.125l-1.929,0.042
		l0.438,3.435l-2.012-2.961h-2.487h-1.994l0.488,2.998l-0.028,1.031l3.035,4.965l6.879,2.827l-4.886,2.671l-6.995,8.004
		c1.81,6.014,15.615,2.754,19.972,0.985c5.24-2.118,14.16-8.603,16.987-9.486c1.741-1.161,3.03-3.592,4.895-3.905l-0.898,2.893
		c5.245,7.92,16.5-14.262,17.563-17.531c1.625-5.029-1.248-7.972-5.254-11.296C206.382,410.073,210.066,419.692,208.717,421.807
		L208.717,421.807z"/>
	<path fill-rule="evenodd" clip-rule="evenodd" fill="#EAEAE8" d="M202.422,396.429c-1.686,3.679-4.066,8.142-5.236,8.942
		l-15.556-7.957l0.921-0.985h-9.376l-1.953,1.271c0.143,0.424,7.617,14.308,8.1,15.059l-0.069,2.546l0.014,1.501l-3.979,0.584
		l-2.519-0.097l-4.476-0.599c0.825,3.284,3.357,3.638,2.86,8.5c-2.049,1.948-6.097,4.932-6.369,8.096h2.491l1.907-0.027l1.142-5.503
		l0.475,2.026l-0.028,2.997h3.993v-1.496v-0.981l1.501-2.51l0.392-0.584l1.52,0.124l-1.11,4.808l3.698,0.152
		c0-2.128,0.212-3.556,1.487-5.002l2.404-0.543l0.115,2.04l-0.014,0.507l0.028,1.906l1.971,0.083v-1.501l0.985-2.492l2.652-2.33
		c-3.541-5.189-8.625-9.113-8.639-16.145l0.046-1.05l-1.124-1.391l2.256-5.314l1.326,1.746l7.686,11.719
		c10.163-1.188,16.748-9.458,26.258-11.719l-2.984-4.987h-2.998l-1.003-0.502c-0.175-0.286-0.304-0.589-0.387-0.893H202.422z"/>
	<path fill-rule="evenodd" clip-rule="evenodd" fill="#7D8282" d="M208.717,421.807c1.349-2.114-2.335-11.733,8.326-2.864
		c4.006,3.324,6.879,6.267,5.254,11.296c-1.064,3.27-12.318,25.451-17.563,17.531l-2.662,3.904
		c8.575,0.01,10.232-0.682,17.863-3.665c3.191-1.243,11.374-5.535,13.032-8.437c0.93-1.64-0.737-15.643-0.778-19.267
		c-0.11-11.075,5.83-5.42,1.008-14.989c-2.454,0.654-10.213,9.947-12.051,12.046l-5.347-3.145l-2.081,0.092h-1.009l-3.992,0.521
		v4.467V421.807z"/>
	<path fill-rule="evenodd" clip-rule="evenodd" fill="#7D8282" d="M184.26,402.811l-0.604,2.56l7.175,11.352
		c7.05,0.516,13.787-3.514,19.488-7.317c8.51-5.655,10.987-5.752,20.948-6.129l-2.008-3.947l-14.041-1.506l2.984,4.987
		c-9.51,2.261-16.095,10.532-26.258,11.719L184.26,402.811z"/>
	<path fill-rule="evenodd" clip-rule="evenodd" fill="#7D8282" d="M211.217,397.322v-0.893h-0.387
		C210.913,396.732,211.042,397.036,211.217,397.322L211.217,397.322z"/>
	<path fill-rule="evenodd" clip-rule="evenodd" fill="#7D8282" d="M187.741,427.295l1.192,3.463c4.219-0.34,12.189-2.51,14.791-6.46
		l-3.923-4.168l-3.551,1.635l-5.001,0.612l-2.008-0.082c-2.744-4.223-5.401-10.49-7.487-13.475
		c0.014,7.032,5.098,10.955,8.639,16.145L187.741,427.295z"/>
	<path fill-rule="evenodd" clip-rule="evenodd" fill="#7D8282" d="M163.777,457.283l-1.046,1.445
		c8.055,11.282,32.143-1.501,38.005-9.946c-2.827,0.884-11.747,7.368-16.987,9.486C179.393,460.037,165.587,463.297,163.777,457.283
		L163.777,457.283z"/>
	<path fill-rule="evenodd" clip-rule="evenodd" fill="#7D8282" d="M189.242,436.777l1.092,1.008c-2.308,2.8-5.508,1.345-5.48,4.55
		l2.399-0.543l-1.957-0.064l8.409-2.598l0.042-1.842c-0.465-1.938-1.009-3.017-2.551-4.038l-1.326,0.695l-0.129,1.851
		L189.242,436.777z"/>
	<polygon fill-rule="evenodd" clip-rule="evenodd" fill="#7D8282" points="170.772,449.279 175.658,446.608 168.778,443.781 	"/>
	<polygon fill-rule="evenodd" clip-rule="evenodd" fill="#7D8282" points="186.756,431.288 184.785,431.205 184.757,429.299 
		184.771,428.792 184.656,426.752 182.252,427.295 182.86,428.248 182.763,429.299 182.763,431.79 184.757,431.79 185.747,431.79 	
		"/>
	<path fill-rule="evenodd" clip-rule="evenodd" fill="#7D8282" d="M183.251,436.777l0.631,0.971l2.334-0.073l-1.377-4.356
		l2.413-0.027c-0.557-0.354,0.659-0.507-1.506-0.507c-1.63,0-1.63,0.249-2.496,1.009l0.552,2.551L183.251,436.777z"/>
	<polygon fill-rule="evenodd" clip-rule="evenodd" fill="#7D8282" points="180.765,432.297 177.067,432.145 178.177,427.337 
		176.657,427.213 176.266,427.797 176.869,428.755 176.763,429.787 176.763,432.784 178.752,432.784 179.756,432.784 	"/>
	<polygon fill-rule="evenodd" clip-rule="evenodd" fill="#7D8282" points="176.763,436.289 177.891,438.236 179.94,438.154 
		177.721,434.829 177.762,433.793 177.168,434.189 177.297,435.838 	"/>
	<polygon fill-rule="evenodd" clip-rule="evenodd" fill="#7D8282" points="165.771,437.785 165.283,434.787 167.277,434.787 
		169.764,434.787 168.819,434.189 167.774,434.285 164.786,434.285 164.786,435.796 	"/>
	<path fill-rule="evenodd" clip-rule="evenodd" fill="#010101" d="M238.216,453.719v-57.29h-26.999v0.893l1.003,0.502h2.998
		l14.041,1.506l2.008,3.947c-9.96,0.377-12.438,0.474-20.948,6.129c-5.701,3.804-12.438,7.833-19.488,7.317l-7.175-11.352
		l0.604-2.56l-1.326-1.746l-2.256,5.314l1.124,1.391l-0.046,1.05c2.086,2.984,4.743,9.251,7.487,13.475l2.008,0.082l5.001-0.612
		l3.551-1.635l3.923,4.168c-2.602,3.95-10.572,6.12-14.791,6.46l-1.192-3.463l-0.985,2.492v1.501l-1.009,0.502h-0.99h-1.994v-2.491
		l0.097-1.051l-0.608-0.953c-1.275,1.446-1.487,2.874-1.487,5.002l-1.009,0.487h-1.003h-1.99v-2.997l0.106-1.032l-0.604-0.958
		l-1.501,2.51v0.981v1.496h-3.993l0.028-2.997l-0.475-2.026l-1.142,5.503l-1.907,0.027h-2.491c0.271-3.164,4.319-6.147,6.369-8.096
		c0.497-4.862-2.035-5.217-2.86-8.5l4.476,0.599l2.519,0.097l3.979-0.584l-0.014-1.501l0.069-2.546
		c-0.483-0.751-7.957-14.635-8.1-15.059l1.953-1.271h-5.899c0.069,2.491,0.58,2.261,2.38,4.006
		c0.461,3.629,2.119,5.729,2.119,10.375v2.998v0.502l-5.01-0.069l-2.15,0.396c-1.031,3.242,2.717,6.364,3.071,9.605
		c-1.206,2.399-5.268,6.322-5.461,9.049c-0.106,1.156,2.39,10.499,2.957,11.586c3.711,7.146-10.26,9.956-9.219,17.223
		c3.61,3.408,12.986,4.67,17.817,4.67c4.849,0,9.182-0.673,13.777-2.184c3.781-1.271,8.722-4.062,11.679-4.826L238.216,453.719z
		 M204.733,447.77l0.898-2.893c-1.865,0.313-3.154,2.744-4.895,3.905c-5.862,8.445-29.95,21.229-38.005,9.946l1.046-1.445
		l6.995-8.004l-1.994-5.498l-3.035-4.965l0.028-1.031l-0.985-1.989v-1.511h2.989l1.045-0.096l0.944,0.598l2.012,2.961l-0.438-3.435
		l1.929-0.042l2.349,0.125l1.146,1.893l0.534-0.451l-0.129-1.648l0.594-0.396l3.726,0.193l1.764,2.791l0.552-0.434l-0.552-2.551
		c0.866-0.76,0.866-1.009,2.496-1.009c2.165,0,0.949,0.152,1.506,0.507l1.989,3.486l0.498-0.981l0.129-1.851l1.326-0.695
		c1.542,1.021,2.086,2.1,2.551,4.038l-0.042,1.842l-8.409,2.598l1.957,0.064c11.642,0.055,20.322-8.8,21.464-19.985v-2.51v-4.467
		l3.992-0.521h1.009l2.081-0.092l5.347,3.145c1.837-2.1,9.597-11.393,12.051-12.046c4.822,9.569-1.119,3.915-1.008,14.989
		c0.042,3.625,1.708,17.627,0.778,19.267c-1.658,2.901-9.841,7.193-13.032,8.437c-7.631,2.983-9.288,3.675-17.863,3.665
		L204.733,447.77z"/>
</g>
</svg>
