<?xml version="1.0" encoding="utf-8"?>
<!-- Generator: Adobe Illustrator 16.0.0, SVG Export Plug-In . SVG Version: 6.00 Build 0)  -->
<!DOCTYPE svg PUBLIC "-//W3C//DTD SVG 1.1//EN" "http://www.w3.org/Graphics/SVG/1.1/DTD/svg11.dtd">
<svg version="1.1" id="Layer_1"
	xmlns="http://www.w3.org/2000/svg"
	xmlns:xlink="http://www.w3.org/1999/xlink" x="0px" y="0px" viewBox="0 0 595.28 841.89" enable-background="new 0 0 595.28 841.89" xml:space="preserve">
	<g>
		<path fill-rule="evenodd" clip-rule="evenodd" fill="#24275A" d="M311.59,290.816l0.136,39.773
		c2.232,1.109,50.644,2.056,57.869,2.448c18.563,1.082,40.725-1.946,54.151,17.417c1.319-6.8-2.06-26.291-7.211-35.196l-2.112-3.658
		c-10.893-18.887-32.141-21.811-48.539-21.018c-8.139,0.366-18.857,0.313-27.124,0C335.365,290.446,313.407,290.262,311.59,290.816
		L311.59,290.816z"/>
		<path fill-rule="evenodd" clip-rule="evenodd" fill="#24275A" d="M237.193,326.008c4.315,1.977,6.661,4.582,10.153,9.244
		c5.661,7.562,6.826,21.048,10.93,28.157l0.634,1.109c2.757,4.744,3.235-15.542,3.292-16.384c0.366-5.85,1.286-12.826,3.843-18.072
		c2.896-5.978,7.894-10.692,16.319-13.985c5.639-2.21,16.489-4.767,21.063-7.426l2.188-1.267
		c-4.929-5.269-35.044,2.395-44.993-14.83l-2.734-4.744c-4.952-8.584-5.453-18.726-9.67-25.997
		c-0.185-0.343-0.818-0.498-1.132-0.313c-3.865,2.241,1.98,35.297-13.739,44.383l-5.823,3.372
		c-6.208,3.583-23.64,6.928-25.959,10.617C214.938,326.43,225.68,320.713,237.193,326.008L237.193,326.008z"/>
		<path fill-rule="evenodd" clip-rule="evenodd" fill="#24275A" d="M195.277,321.558c-1.244-2.108,2.55-5.639,4.707-6.796
		c3.319-1.788,5.774-2.711,8.927-3.874c4.741-1.765,13.216-3.371,17.587-5.898l4.009-2.319c4.492-2.606,7.185-7.482,7.045-11.378
		c-1.867,0.577-6.472,0.792-8.916,1.135c-3.009,0.415-6.189,1.184-9.168,2.025c-6.103,1.761-12.287,3.719-18.952,7.558l-3.662,2.108
		c-14.113,8.169-22.93,21.177-27.513,32.058c-3.029,7.245-8.844,30.134-6.559,37.692c2.27-5.137,1.162-8.271,5.687-14.803
		c2.919-4.186,7.901-9.085,13.611-12.378l2.557-1.475c8.448-4.902,20.483-7.689,28.226-8.825c5.978-0.867,23.119-1.263,26.14-2.188
		l-0.841-1.448C231.891,321.927,201.041,331.567,195.277,321.558L195.277,321.558z"/>
		<path fill-rule="evenodd" clip-rule="evenodd" fill="#24275A" d="M197.062,351.612c-16.165,9.35-25.408,18.646-30.749,30.896
		c-4.363,10.066-5.265,26.23,2.373,39.464l32.593,56.5l34.991-20.207c-10.692-18.518-19.536-38.25-29.938-56.085
		C192.932,379.216,190.823,369.734,197.062,351.612L197.062,351.612z"/>
		<path fill-rule="evenodd" clip-rule="evenodd" fill="#24275A" d="M276.149,557.704l0.215,0.37l3.153,1.704
		c2.059-4.578-15.417-26.815-11.424-41.538c1.633-6.027,5.11-11.3,9.715-16.482c2.58-2.873,12.25-12.755,12.536-15.447
		c-4.428-1.946-26.487,15.629-41.278,11.601c-6.087-1.659-11.224-4.948-16.538-9.595c-3.741-3.266-11.876-12.219-15.746-12.476
		c0.163,4.707,6.789,15.983,9.082,21.535c3.081,7.513,4.48,13.569,2.772,19.838c-1.795,6.615-5.114,10.688-9.746,16.519
		c-2.504,3.131-13.509,12.695-12.008,15.886c14.98-4.563,24.538-14.468,39.129-12.694c5.313,0.648,11.08,4.359,15.693,8.033
		C266.407,548.646,271.733,554.672,276.149,557.704L276.149,557.704z"/>
		<path fill-rule="evenodd" clip-rule="evenodd" fill="#24275A" d="M237.529,542.105c11.741,20.358,31.722,31.454,48,35.821
		c17.194,4.64,38.884,0.974,60.683-11.616c-1.102-0.045-8.606,2.037-11.345,2.188c-3.402,0.211-7.015-0.15-10.19-1.018
		c-7.535-2.06-12.038-4.405-18.823-9.09c-10.455-7.227-23.489-23.64-31.937-38.28c-8.346,5.801,17.138,40.166,9.632,44.488
		c-5.314,3.085-17.93-9.663-22.455-13.932c-3.583-3.425-6.736-6.186-10.79-7.98c-2.244-0.974-3.644-1.418-6.039-1.659
		C241.135,540.71,240,541.925,237.529,542.105L237.529,542.105z"/>
		<path fill-rule="evenodd" clip-rule="evenodd" fill="#201A51" d="M382.614,460.234c-8.651,13.804-17.077,28.029-26.106,41.652
		c-7.324,11.035-17.349,32.548-30.964,40.407l-1.81,1.049c-5.906,3.401-10.824,2.723-14.064,4.239
		c14.721,9.247,38.412,17.175,58.575,5.536c13.849-8.003,21.716-24.318,27.622-35.12c2.587-4.736,19.634-35.24,21.558-37.051
		l0.271-0.422L382.614,460.234z"/>
		<path fill-rule="evenodd" clip-rule="evenodd" fill="#201A51" d="M459.635,348.689l-7.98-13.856
		c-0.77-0.396-5.959-6.901-7.09-8.086c-2.285-2.319-4.934-4.767-7.423-6.822c-3.312-2.769-12.159-9.222-15.666-10.432
		c1.772,2.557,5.167,3.896,7.648,8.218l1.894,3.266c6.924,11.959,4.337,29.21,1.734,38.986c-1.734,6.423-10.477,30.53-15.011,34.795
		l0.604,1.075c1.185-0.34,2.301-0.31,3.342-0.947c6.427-3.681,11.752-12.484,15.455-17.119c1.772-2.188,11.858-18.888,15.78-12.092
		c5.657,9.772-8.667,32.925-1.818,44.809l1.26,2.184c1.057,1.844,1.683,1.606,2.814,3.217c5.506-8.754,8.305-21.55,9.504-31.639
		c0.686-5.639,0.43-11.088-0.158-17.017c-0.31-2.999-1.041-5.876-1.788-9.085C462.343,356.406,459.574,349.874,459.635,348.689
		L459.635,348.689z"/>
		<path fill-rule="evenodd" clip-rule="evenodd" fill="#DD2E27" d="M152.652,514.212l-3.292-16.625l-15.331-4.104l-4.364-21.444
		l277.683-43.982l33.777,7.799l7.505-1.463l4.081,22.553l-11.586,2.452l1.493,7.897l12.989,5.483l3.13,17.175l-251.271,76.343
		l-35.229-16.052c-8.867-4.027-17.714-8.063-26.593-12.091l-2.711-1.26l-0.547-2.64c-0.822-3.976-1.633-7.951-2.455-11.956l-1-4.986
		L152.652,514.212z"/>
		<path fill-rule="evenodd" clip-rule="evenodd" fill="#FFFFFF" d="M156.209,516.218l-4.115-20.735l-15.293-4.133l-3.503-17.093
		l273.921-43.417l33.854,7.829l5.008-0.973l3.101,17.198l-11.639,2.451l2.263,11.797l12.981,5.484l2.444,13.509l-247.526,75.173
		l-34.019-15.485c-8.871-4.028-17.714-8.056-26.596-12.092l-1.362-0.626l-0.268-1.327c-0.814-3.976-1.625-7.98-2.447-11.956
		l-0.498-2.474L156.209,516.218z"/>
		<path fill-rule="evenodd" clip-rule="evenodd" fill="#24275A" d="M207.965,560.352l-32.831-14.949
		c-8.875-4.028-17.741-8.057-26.593-12.1c-0.815-3.998-1.625-7.973-2.448-11.955l13.694-3.107l-4.926-24.893l-15.319-4.104
		l-2.633-12.808l270.166-42.799l33.912,7.83l2.505-0.483l2.157,11.828l-11.661,2.443l3.002,15.758l12.951,5.445l1.795,9.829
		L207.965,560.352z"/>
		<polygon fill-rule="evenodd" clip-rule="evenodd" fill="#EBEBEB" points="140.539,478.654 406.947,436.429 407.393,436.534 
		407.846,436.641 408.268,436.746 408.721,436.852 409.165,436.949 409.61,437.063 410.063,437.168 410.5,437.244 410.976,437.35 
		411.421,437.455 411.865,437.561 412.341,437.666 412.793,437.802 413.269,437.9 413.744,438.013 414.196,438.111 414.664,438.225 
		415.139,438.322 415.614,438.436 416.082,438.533 416.558,438.669 417.055,438.768 417.53,438.881 418.014,438.979 
		418.504,439.114 419.001,439.22 419.484,439.325 419.975,439.431 420.479,439.56 420.978,439.672 421.476,439.793 421.988,439.906 
		422.531,440.042 423.09,440.17 423.609,440.275 424.19,440.404 424.749,440.54 425.292,440.668 425.85,440.804 426.424,440.925 
		427.012,441.061 427.563,441.196 428.136,441.332 428.725,441.468 429.297,441.588 429.878,441.725 430.481,441.853 
		431.07,442.011 431.666,442.139 432.254,442.282 432.857,442.402 433.469,442.568 434.064,442.705 434.676,442.825 
		435.271,442.991 435.912,443.119 436.516,443.248 437.142,443.414 437.753,443.534 438.379,443.7 439.021,443.836 439.646,443.987 
		440.279,444.123 440.936,444.281 196.228,491.5 195.168,491.266 194.143,491.01 193.086,490.769 192.061,490.527 191.039,490.293 
		190.013,490.052 188.983,489.818 187.979,489.606 186.984,489.365 185.951,489.131 184.978,488.897 183.979,488.656 
		182.979,488.453 182.006,488.211 181.033,488 180.06,487.773 179.087,487.563 178.136,487.321 177.163,487.109 176.217,486.876 
		175.27,486.665 174.323,486.446 173.396,486.234 172.453,486.001 171.528,485.79 170.604,485.578 169.681,485.367 168.761,485.164 
		167.87,484.945 166.946,484.741 166.053,484.53 165.155,484.342 164.344,484.131 163.518,483.949 162.707,483.761 161.889,483.58 
		161.074,483.392 160.263,483.203 159.464,483.021 158.679,482.841 157.868,482.66 157.069,482.471 156.28,482.29 155.496,482.109 
		154.727,481.92 153.938,481.731 153.177,481.573 152.415,481.4 151.623,481.211 150.857,481.03 150.122,480.864 149.36,480.676 
		148.602,480.502 147.863,480.344 147.09,480.147 146.354,479.989 145.619,479.816 144.883,479.657 144.147,479.469 
		143.412,479.311 142.699,479.152 141.96,478.971 141.251,478.805 	"/>
		<path fill-rule="evenodd" clip-rule="evenodd" fill="#EBEBEB" d="M162.971,528.958l257.674-61.814l0.158,0.053l0.144,0.075
		l0.166,0.061l0.158,0.076l0.158,0.045l0.158,0.083l-257.093,62.093l-0.264-0.112l-0.234-0.106l-0.264-0.105l-0.265-0.128
		l-0.237-0.113L162.971,528.958z M161.447,528.332l258.271-61.58l0.158,0.045l0.159,0.083l0.128,0.053l0.166,0.075l0.15,0.061
		l0.166,0.075l-257.674,61.814l-0.264-0.105l-0.233-0.099l-0.264-0.112l-0.26-0.099l-0.241-0.105L161.447,528.332z M159.679,527.593
		l258.96-61.294l0.159,0.061l0.158,0.075l0.128,0.046l0.158,0.053l0.158,0.082l0.159,0.053l0.158,0.084l-258.271,61.58l-0.271-0.105
		l-0.237-0.105l-0.26-0.105l-0.242-0.113l-0.26-0.098l-0.234-0.106L159.679,527.593z M157.94,526.854l259.643-61.007l0.158,0.06
		l0.128,0.053l0.159,0.076l0.166,0.045l0.15,0.083l0.136,0.061l0.158,0.075l-258.96,61.294l-0.237-0.105l-0.265-0.105l-0.233-0.099
		l-0.264-0.113l-0.238-0.098l-0.237-0.113L157.94,526.854z M156.258,526.145l260.277-60.751l0.15,0.068l0.158,0.075l0.136,0.045
		l0.159,0.053l0.135,0.084l0.151,0.053l0.158,0.075L157.94,526.854l-0.234-0.105l-0.237-0.105l-0.26-0.098l-0.242-0.113
		l-0.233-0.099l-0.238-0.113L156.258,526.145z M154.572,525.436l260.959-60.449l0.136,0.045l0.159,0.061l0.128,0.076l0.158,0.053
		l0.136,0.053l0.15,0.075l0.137,0.045l-260.277,60.751l-0.233-0.113l-0.238-0.098l-0.264-0.105l-0.237-0.105l-0.234-0.099
		l-0.241-0.091L154.572,525.436z M152.943,524.727l261.555-60.162l0.166,0.045l0.121,0.053l0.166,0.061l0.135,0.075l0.151,0.053
		l0.136,0.046l0.158,0.09l-260.959,60.449l-0.234-0.105l-0.238-0.105l-0.237-0.113l-0.238-0.068l-0.234-0.105l-0.241-0.113
		L152.943,524.727z M151.283,524.04l262.242-59.906l0.143,0.061l0.129,0.046l0.158,0.06l0.128,0.075l0.159,0.046l0.135,0.061
		l0.121,0.083l-261.555,60.162l-0.238-0.075l-0.241-0.113l-0.234-0.099l-0.238-0.112l-0.237-0.075l-0.234-0.113L151.283,524.04z
		 M149.677,523.354l262.86-59.635l0.12,0.046l0.166,0.061l0.128,0.053l0.129,0.075l0.158,0.061l0.144,0.045l0.144,0.075
		L151.283,524.04l-0.215-0.105l-0.233-0.083l-0.238-0.098l-0.237-0.113l-0.237-0.076l-0.211-0.105L149.677,523.354z
		 M164.495,529.629l257.093-62.093l0.159,0.053l0.158,0.075l0.158,0.061l-256.776,62.207l-0.257-0.099l-0.275-0.105L164.495,529.629
		z"/>
		<path fill-rule="evenodd" clip-rule="evenodd" fill="#4E4E4E" d="M184.898,537.052l249.113-64.982l0.083,0.399l0.075,0.385
		l-249.034,65.488l-0.102-0.664L184.898,537.052z M184.665,535.762l249.218-64.492l0.054,0.4l0.075,0.399l-249.113,64.982
		l-0.132-0.664L184.665,535.762z M184.4,534.465l249.324-63.979l0.076,0.399l0.082,0.385l-249.218,64.492l-0.129-0.641
		L184.4,534.465z M184.163,533.175l249.403-63.481l0.083,0.393l0.075,0.399L184.4,534.465l-0.102-0.627L184.163,533.175z
		 M183.926,531.885l249.513-62.983l0.045,0.399l0.083,0.393l-249.403,63.481l-0.136-0.656L183.926,531.885z M183.661,530.603
		l249.611-62.485l0.083,0.399l0.083,0.385l-249.513,62.983l-0.132-0.656L183.661,530.603z M183.428,529.305l249.687-61.973
		l0.083,0.393l0.075,0.393l-249.611,62.485l-0.105-0.671L183.428,529.305z M183.19,527.985l249.773-61.452l0.076,0.399l0.075,0.399
		l-249.687,61.973l-0.136-0.663L183.19,527.985z M182.93,526.695l249.897-60.947l0.083,0.4l0.053,0.385L183.19,527.985l-0.136-0.626
		L182.93,526.695z M182.688,525.413l249.98-60.464l0.083,0.399l0.075,0.399L182.93,526.695l-0.14-0.626L182.688,525.413z
		 M182.432,524.115l250.079-59.951l0.075,0.4l0.083,0.385l-249.98,60.464l-0.132-0.664L182.432,524.115z M182.194,522.796
		l250.158-59.416l0.075,0.385l0.083,0.399l-250.079,59.951l-0.113-0.656L182.194,522.796z M181.953,521.514l250.271-58.934
		l0.075,0.4l0.054,0.399l-250.158,59.416l-0.14-0.626L181.953,521.514z M181.693,520.224l250.373-58.428l0.075,0.392l0.083,0.393
		l-250.271,58.934l-0.136-0.672L181.693,520.224z M181.459,518.896l250.44-57.892l0.091,0.393l0.075,0.399l-250.373,58.428
		l-0.132-0.656L181.459,518.896z M181.184,517.613l250.596-57.401l0.045,0.392l0.075,0.4l-250.44,57.892l-0.14-0.626
		L181.184,517.613z M180.957,516.293l250.656-56.896l0.083,0.392l0.083,0.423l-250.596,57.401l-0.102-0.664L180.957,516.293z
		 M180.686,514.966l250.77-56.353l0.082,0.392l0.076,0.393l-250.656,56.896l-0.136-0.656L180.686,514.966z M180.448,513.661
		l250.863-55.87l0.067,0.422l0.076,0.4l-250.77,56.353l-0.102-0.656L180.448,513.661z M180.188,512.363l250.958-55.365l0.075,0.393
		l0.091,0.4l-250.863,55.87l-0.125-0.634L180.188,512.363z M179.946,511.059l251.071-54.875l0.053,0.423l0.075,0.392
		l-250.958,55.365l-0.102-0.656L179.946,511.059z M179.687,509.731l251.165-54.332l0.075,0.399l0.091,0.385l-251.071,54.875
		l-0.124-0.664L179.687,509.731z M179.453,508.419l251.24-53.842l0.091,0.423l0.068,0.399l-251.165,54.332l-0.102-0.656
		L179.453,508.419z M179.188,507.076l251.354-53.291l0.083,0.4l0.067,0.392l-251.24,53.842l-0.132-0.687L179.188,507.076z
		 M178.951,505.756l251.433-52.793l0.075,0.423l0.083,0.399l-251.354,53.291l-0.102-0.656L178.951,505.756z M178.687,504.443
		l251.538-52.265l0.084,0.392l0.075,0.393l-251.433,52.793l-0.128-0.664L178.687,504.443z M178.449,503.123l251.647-51.759
		l0.075,0.392l0.053,0.423l-251.538,52.265l-0.136-0.656L178.449,503.123z M178.186,501.804l251.753-51.262l0.075,0.43l0.083,0.393
		l-251.647,51.759l-0.132-0.663L178.186,501.804z M177.951,500.469l251.821-50.711l0.083,0.392l0.083,0.393l-251.753,51.262
		l-0.132-0.649L177.951,500.469z M177.691,499.141l251.93-50.205l0.076,0.399l0.075,0.423l-251.821,50.711l-0.136-0.664
		L177.691,499.141z M177.427,497.828l252.029-49.708l0.083,0.423l0.082,0.393l-251.93,50.205l-0.14-0.656L177.427,497.828z
		 M177.189,496.486l252.138-49.15l0.054,0.393l0.075,0.392l-252.029,49.708l-0.113-0.656L177.189,496.486z"/>
		<path fill-rule="evenodd" clip-rule="evenodd" fill="#C3C4C4" d="M204.959,546.684l241.303-68.738l0.203,0.098l0.204,0.083
		l0.219,0.075l0.233,0.106l-240.767,68.987l-0.336-0.158l-0.373-0.15l-0.336-0.137L204.959,546.684z M203.201,545.952L445.176,477.5
		l0.219,0.068l0.233,0.113l0.211,0.075l0.212,0.105l0.211,0.083l-241.303,68.738l-0.366-0.143l-0.343-0.144l-0.34-0.158
		l-0.373-0.128L203.201,545.952z M201.463,545.213l242.664-68.165l0.203,0.067l0.211,0.113l0.212,0.083l0.211,0.105l0.212,0.083
		l-241.975,68.452l-0.347-0.158l-0.339-0.128l-0.339-0.166l-0.37-0.121L201.463,545.213z M199.747,544.504l243.323-67.909
		l0.212,0.113l0.211,0.075l0.211,0.076l0.212,0.113l0.211,0.075l-242.664,68.165l-0.343-0.12l-0.343-0.166l-0.343-0.128
		l-0.339-0.159L199.747,544.504z M198.038,543.765l244.007-67.592l0.219,0.083l0.181,0.083l0.204,0.098l0.203,0.091l0.219,0.067
		l-243.323,67.909l-0.34-0.158l-0.339-0.136l-0.343-0.158l-0.343-0.128L198.038,543.765z M196.353,543.056l244.636-67.328
		l0.204,0.083l0.219,0.105l0.212,0.083l0.211,0.075l0.211,0.099l-244.007,67.592l-0.339-0.136l-0.348-0.15l-0.339-0.136
		l-0.347-0.121L196.353,543.056z M194.667,542.369l245.326-67.064l0.181,0.084l0.212,0.067l0.219,0.099l0.203,0.098l0.181,0.075
		l-244.636,67.328l-0.34-0.136l-0.347-0.15l-0.336-0.136l-0.316-0.128L194.667,542.369z M193.06,541.684l245.93-66.801l0.211,0.083
		l0.188,0.075l0.212,0.083l0.173,0.105l0.219,0.075l-245.326,67.064l-0.31-0.158l-0.324-0.128l-0.34-0.136l-0.309-0.129
		L193.06,541.684z M191.461,540.996l246.556-66.528l0.188,0.075l0.212,0.105l0.173,0.076l0.212,0.083l0.188,0.075l-245.93,66.801
		l-0.313-0.159l-0.336-0.128l-0.324-0.128l-0.313-0.136L191.461,540.996z M189.854,540.311l247.189-66.242l0.188,0.083l0.203,0.075
		l0.182,0.075l0.211,0.083l0.188,0.083l-246.556,66.528l-0.32-0.12l-0.317-0.136l-0.335-0.144l-0.321-0.144L189.854,540.311z
		 M188.267,539.654l247.804-66.001l0.212,0.075l0.181,0.076l0.182,0.082l0.211,0.105l0.188,0.076l-247.189,66.242l-0.317-0.121
		l-0.32-0.136l-0.313-0.144l-0.313-0.12L188.267,539.654z M186.694,539.006l248.434-65.752l0.181,0.075l0.204,0.075l0.188,0.091
		l0.182,0.075l0.188,0.083l-247.804,66.001l-0.31-0.129l-0.313-0.135l-0.321-0.129l-0.316-0.136L186.694,539.006z M185.136,538.342
		l249.034-65.488l0.188,0.076l0.181,0.082l0.204,0.084l0.188,0.082l0.196,0.076l-248.434,65.752l-0.294-0.137l-0.313-0.135
		l-0.317-0.129l-0.316-0.136L185.136,538.342z"/>
		<path fill-rule="evenodd" clip-rule="evenodd" fill="#828282" d="M208.093,556.746l240.092-72.668l0.022,0.211l0.03,0.188
		l-240.035,72.91l-0.049-0.317L208.093,556.746z M207.807,555.2l240.189-72.065l0.03,0.182l0.046,0.181l0.021,0.211l0.031,0.181
		l0.06,0.189l-240.092,72.668l-0.053-0.309l-0.075-0.317l-0.049-0.316l-0.061-0.287L207.807,555.2z M207.516,553.616l240.292-71.454
		l0.053,0.211l0.022,0.174l0.03,0.188l0.053,0.211l0.03,0.188L207.807,555.2l-0.053-0.324l-0.049-0.302l-0.086-0.324l-0.049-0.317
		L207.516,553.616z M207.229,552.032l240.42-70.821l0.03,0.189l0.03,0.173l0.045,0.212l0.03,0.188l0.022,0.189l-240.292,71.454
		l-0.049-0.31l-0.053-0.316l-0.083-0.317l-0.049-0.324L207.229,552.032z M206.939,550.455l240.53-70.217l0.029,0.203l0.053,0.189
		l0.023,0.181l0.022,0.219l0.053,0.181l-240.42,70.821l-0.049-0.31l-0.061-0.316l-0.053-0.317l-0.076-0.316L206.939,550.455z
		 M206.645,548.879l240.635-69.599l0.061,0.188l0.016,0.188l0.029,0.204l0.061,0.196l0.023,0.181l-240.53,70.217l-0.057-0.316
		l-0.049-0.31l-0.053-0.324l-0.079-0.31L206.645,548.879z M206.354,547.295l240.767-68.987l0.03,0.181l0.022,0.211l0.061,0.189
		l0.022,0.188l0.022,0.204l-240.635,69.599l-0.049-0.324l-0.053-0.31l-0.049-0.316l-0.053-0.317L206.354,547.295z"/>
		<polygon fill-rule="evenodd" clip-rule="evenodd" fill="#767472" points="196.228,491.5 440.936,444.281 440.967,444.484 
		440.988,444.674 441.049,444.877 441.072,445.096 441.125,445.307 196.537,493.167 196.462,492.82 196.405,492.511 
		196.353,492.164 196.277,491.824 	"/>
		<polygon fill-rule="evenodd" clip-rule="evenodd" fill="#767473" points="196.537,493.167 441.125,445.307 441.147,445.496 
		441.178,445.707 441.223,445.902 441.261,446.092 441.306,446.303 196.824,494.826 196.775,494.479 196.699,494.17 
		196.639,493.823 196.59,493.506 	"/>
		<polygon fill-rule="evenodd" clip-rule="evenodd" fill="#767472" points="196.824,494.826 441.306,446.303 441.336,446.521 
		441.358,446.702 441.411,446.914 441.434,447.125 441.494,447.306 197.114,496.486 197.062,496.139 197.013,495.83 
		196.963,495.482 196.877,495.166 	"/>
		<polygon fill-rule="evenodd" clip-rule="evenodd" fill="#767473" points="197.114,496.486 441.494,447.306 441.517,447.518 
		441.547,447.729 441.592,447.909 441.623,448.12 441.676,448.339 197.435,498.146 197.378,497.799 197.303,497.481 197.25,497.149 
		197.201,496.825 	"/>
		<polygon fill-rule="evenodd" clip-rule="evenodd" fill="#767473" points="197.435,498.146 441.676,448.339 441.698,448.527 
		441.735,448.724 441.781,448.936 441.804,449.146 441.863,449.335 197.726,499.805 197.673,499.458 197.612,499.141 
		197.537,498.809 197.488,498.484 	"/>
		<polygon fill-rule="evenodd" clip-rule="evenodd" fill="#767473" points="197.726,499.805 441.863,449.335 441.879,449.546 
		441.909,449.734 441.97,449.945 441.992,450.149 442.045,450.338 198.038,501.464 197.959,501.117 197.91,500.801 197.85,500.469 
		197.797,500.114 	"/>
		<polygon fill-rule="evenodd" clip-rule="evenodd" fill="#767473" points="198.038,501.464 442.045,450.338 442.075,450.542 
		442.098,450.761 198.144,502.128 198.087,501.773 	"/>
		<polygon fill-rule="evenodd" clip-rule="evenodd" fill="#828282" points="196.228,491.5 440.936,444.281 440.967,444.484 
		440.988,444.674 441.049,444.877 441.072,445.096 441.125,445.307 441.147,445.496 441.178,445.707 441.223,445.902 
		441.261,446.092 441.306,446.303 441.336,446.521 441.358,446.702 441.411,446.914 441.434,447.125 441.494,447.306 
		441.517,447.518 441.547,447.729 441.592,447.909 441.623,448.12 441.676,448.339 441.698,448.527 441.735,448.724 
		441.781,448.936 441.804,449.146 441.863,449.335 441.879,449.546 441.909,449.734 441.97,449.945 441.992,450.149 
		442.045,450.338 442.075,450.542 442.098,450.761 198.144,502.128 198.087,501.773 198.038,501.464 197.959,501.117 
		197.91,500.801 197.85,500.469 197.797,500.114 197.726,499.805 197.673,499.458 197.612,499.141 197.537,498.809 197.488,498.484 
		197.435,498.146 197.378,497.799 197.303,497.481 197.25,497.149 197.201,496.825 197.114,496.486 197.062,496.139 197.013,495.83 
		196.963,495.482 196.877,495.166 196.824,494.826 196.775,494.479 196.699,494.17 196.639,493.823 196.59,493.506 196.537,493.167 
		196.462,492.82 196.405,492.511 196.353,492.164 196.277,491.824 	"/>
		<path fill-rule="evenodd" clip-rule="evenodd" fill="#BFBCBC" d="M140.539,478.654c7.611,1.766,15.795,3.636,24.616,5.688
		c9.531,2.18,19.857,4.556,31.073,7.158c0.649,3.567,1.282,7.098,1.916,10.628c-3.738-1.011-7.37-1.983-10.9-2.927
		c-3.451-0.928-6.796-1.825-10.055-2.715c1.339,7.082,2.682,14.143,3.994,21.127c1.35,6.925,2.67,13.856,3.953,20.729
		c3.319,1.396,6.713,2.82,10.194,4.292c3.579,1.493,7.261,3.055,11.024,4.661c0.637,3.372,1.237,6.751,1.848,10.093
		c-11.401-5.189-21.904-9.987-31.646-14.415c-9.006-4.104-17.402-7.928-25.224-11.48c-0.551-2.692-1.109-5.423-1.656-8.139
		c2.444,1.019,4.975,2.104,7.532,3.191c2.632,1.101,5.314,2.232,8.079,3.387c-1.268-6.344-2.527-12.74-3.817-19.167
		c-1.293-6.479-2.58-12.989-3.874-19.528c-2.708-0.732-5.34-1.441-7.92-2.127c-2.527-0.688-5.005-1.336-7.399-2
		C141.7,484.289,141.119,481.476,140.539,478.654L140.539,478.654z"/>
		<path fill-rule="evenodd" clip-rule="evenodd" fill="#DD2E27" d="M234.897,418.646c0.211,3.428-0.234,6.818-1.498,10.085
		c-1.795,4.665-5.141,8.361-9.115,11.272c-6.736,4.956-14.924,7.596-23.089,8.908c-8.29,1.32-16.746,1.396-24.979-0.233
		c-10.741-2.143-20.646-7.535-23.251-18.971c-0.974-4.156-0.845-8.422,0.973-12.374c4.665-10.119,17.851-12.751,27.807-13.543
		c5.389-0.426,10.79-0.837,16.165-1.263c-1.633-3.165-3.055-6.532-3.741-9.667c-1.022-4.771-0.785-9.723,1.712-14.015
		c5.05-8.61,16.534-10.165,25.593-10.165c3.055,0,6.128,0,9.18,0c4.193,0,7.924,1.66,11.065,4.372
		c2.87,2.425,4.892,5.476,5.913,9.033l1.984-0.079c2.108-0.079,4.179-0.155,6.287-0.234l6.897-0.237l-0.656,6.875
		c-0.264,2.681-0.479,5.352-0.683,8.033c-0.057,0.4-0.083,0.762-0.105,1.135c0.396-0.026,0.758-0.053,1.158-0.087l7.237-0.577
		l-0.264,2.508c2.821-1.897,6.087-2.957,9.67-3.244c1.309-0.109,2.628-0.211,3.975-0.309c3.157-0.245,6.291,0.147,9.21,1.418
		c2.319,1,4.239,2.474,5.639,4.368c0.418-0.687,0.894-1.343,1.392-1.969c2.998-3.644,7.026-5.639,11.718-6.012
		c1.102-0.102,2.203-0.188,3.319-0.261c2.874-0.237,5.71,0.208,8.319,1.471c1.418,0.686,2.678,1.58,3.741,2.667
		c0.227-5.589,0.49-11.148,0.784-16.704l0.295-5.638l5.604-0.106c2.315-0.053,4.631-0.105,6.946-0.158l6.449-0.128l-0.286,6.453
		c-0.181,3.737-0.37,7.452-0.558,11.193c1.817-1.135,3.877-1.821,6.14-1.999c0.845-0.06,1.682-0.132,2.526-0.185
		c1.637-0.132,3.236,0.022,4.79,0.475c0.316-1.558,0.928-3.055,1.946-4.428c1.825-2.481,4.556-3.926,7.61-4.084
		c0.853-0.022,1.667-0.079,2.497-0.105l6.51-0.343l-0.158,6.532c0,0.03,0,0.083,0,0.136c0.497-0.053,0.995-0.106,1.523-0.136
		l3.907-0.317c0.468-1.422,0.912-2.866,1.365-4.314l1.704-5.612l5.665,1.554c4.134,1.131,6.479,4.533,7.105,8.637
		c0.188,1.21,0.271,2.395,0.204,3.613c0.43,1.188,0.882,2.399,1.297,3.583c0.453,1.282,0.897,2.633,1.215,3.975l4.473-0.607
		l0.717,6.136c0.256,2.293-0.136,4.537-1.245,6.559c-1.313,2.346-3.424,4.055-6.132,4.48c-3.244,0.494-6.502,1.003-9.738,1.505
		c-1.139,0.155-2.225,0.155-3.213-0.026c-0.814,0.441-1.742,0.762-2.716,0.924c-1.817,0.291-3.658,0.547-5.476,0.838
		c-2.656,0.396-4.836-0.34-6.473-1.762c-1.479,1.973-3.613,3.285-6.057,3.681c-3.131,0.475-6.246,0.951-9.346,1.422
		c-2.663,0.399-5.22,0.297-7.535-0.415c-1.448,1.236-3.161,2.052-5.055,2.346c-2.496,0.366-4.971,0.762-7.475,1.124
		c-1.418,0.215-2.768,0.162-4.005-0.147c-1.154,0.675-2.444,1.146-3.84,1.369c-4.05,0.6-8.131,1.233-12.189,1.859
		c-3.53,0.535-7.06,0.426-10.19-0.66c-1.791,1.742-4.005,2.829-6.498,3.214c-4.926,0.738-9.828,1.508-14.743,2.247
		c-4.269,0.664-8.64,0.573-12.461-0.822c-1.946,2.06-4.68,3.433-8.048,3.953c-5.51,0.853-11.013,1.682-16.489,2.534
		c-6.238,0.943-11.5-1.9-12.823-8.271c-0.287-1.368-0.336-2.768-0.234-4.141c0.268-2.742,0.506-5.45,0.739-8.191L234.897,418.646z
		 M231.155,405.657c0.061-0.309,0.087-0.622,0.136-0.942l0.476-3.459l0.362-0.15c-1.282-0.185-2.55-0.524-3.783-1.03
		C229.319,401.841,230.292,403.742,231.155,405.657L231.155,405.657z M207.12,421.309l-2.896,0.287
		c-4.239,0.4-8.505,0.788-12.736,1.215c-2.006,0.185-3.956,0.656-5.616,1.742c-0.709,0.441-1.075,0.604-0.894,1.396
		c0.396,1.734,3.082,2.636,4.526,3.024c2.908,0.818,5.85,1.029,8.822,0.607c2.692-0.373,5.427-1.211,7.403-3.157
		C207.203,424.918,207.414,423.232,207.12,421.309L207.12,421.309z M261.331,415.433c-0.501,0.215-0.999,0.4-1.497,0.554
		c-0.083,0.898-0.162,1.792-0.238,2.659l1.999-0.264C261.433,417.409,261.357,416.41,261.331,415.433L261.331,415.433z"/>
		<path fill-rule="evenodd" clip-rule="evenodd" fill="#FFFFFF" d="M219.864,385.616c-0.449,0.053-0.996,0.162-1.158,0.316
		c-0.211,0.26,0,1.444,0.053,1.742c0.234,1.124,1.083,2.844,1.606,3.893c1.26,2.666,2.708,5.299,4.187,7.878
		c2.633,4.666,5.714,10.59,6.815,15.882c0.901,4.164,0.739,8.328-0.785,12.306c-1.584,4.134-4.578,7.37-8.086,9.957
		c-6.347,4.631-14.083,7.105-21.769,8.312c-7.928,1.268-16.036,1.373-23.934-0.195c-9.508-1.871-18.563-6.487-20.883-16.651
		c-0.811-3.53-0.758-7.143,0.77-10.462c4.103-8.904,16.632-11.115,25.299-11.771c5.604-0.449,11.216-0.902,16.794-1.316l1.796-0.136
		l0.973,1.475c1.546,2.372,3.104,4.714,4.628,7.083l2.741,4.194l-4.974,0.445c-4.239,0.426-8.505,0.822-12.74,1.237
		c-2.478,0.234-4.876,0.849-6.981,2.217c-1.784,1.158-2.655,2.448-2.184,4.579c0.687,3.081,3.892,4.511,6.66,5.303
		c3.319,0.92,6.661,1.153,10.055,0.679c3.368-0.468,6.665-1.58,9.108-4.027c2.429-2.426,2.769-5.349,2.082-8.618
		c-0.864-4.051-3.768-9.139-5.898-12.669c-2.599-4.341-5.842-10.062-6.898-15.063c-0.863-3.979-0.762-8.218,1.343-11.831
		c4.428-7.479,15.169-8.693,22.991-8.693c3.055,0,6.128,0,9.18,0c3.458,0,6.509,1.452,9.108,3.662
		c2.746,2.342,4.563,5.321,5.302,8.852c0.683,3.345,0.261,6.611-1.686,9.455c-2.006,2.87-4.952,4.375-8.429,4.563
		c-3.556,0.177-6.713-1.109-9.478-3.353c-2.874-2.316-4.819-5.314-5.555-8.958C219.917,385.801,219.894,385.718,219.864,385.616
		L219.864,385.616z M271.386,428.942c-1.448,2.562-4.005,4.19-7.558,4.741c-5.477,0.822-10.976,1.667-16.481,2.504
		c-4.605,0.709-8.396-1.102-9.395-5.895c-0.208-1.053-0.261-2.161-0.159-3.244c0.343-3.952,0.686-7.871,1.056-11.801
		c-0.713,0.053-1.422,0.136-2.131,0.185l-3.768,0.366l0.475-3.741c0.261-2.308,0.551-4.627,0.86-6.921l0.245-1.734l1.599-0.687
		c2.271-0.924,5.243-2.402,6.714-4.428c2.006-2.693,3.318-7.694,4.031-10.911l0.502-2.259l2.342-0.087
		c2.108-0.071,4.213-0.151,6.298-0.233l3.44-0.103l-0.31,3.429c-0.264,2.682-0.502,5.4-0.713,8.082
		c-0.136,1.558-0.237,3.104-0.37,4.662c1.554-0.132,3.104-0.234,4.666-0.37l3.628-0.287l-0.392,3.636
		c-0.554,5.371-3.613,8.984-8.976,9.67c-0.237,2.866-0.476,5.763-0.713,8.629l8.98-1.207c-0.211-0.626-0.374-1.29-0.509-1.946
		c-1.045-5.303-0.234-10.462,3.481-14.516c2.968-3.27,6.762-4.952,11.163-5.292c1.313-0.087,2.633-0.185,3.979-0.294
		c2.655-0.204,5.288,0.109,7.762,1.158c3.289,1.422,5.499,3.979,6.294,7.509c0.762,3.341,0.102,6.532-2.029,9.225l-0.076,0.102
		c1.309-0.185,2.629-0.377,3.919-0.524c-0.129-0.501-0.238-1.011-0.34-1.535c-0.871-4.715-0.324-9.425,2.817-13.219
		c2.474-3.006,5.736-4.613,9.629-4.925c1.086-0.076,2.188-0.162,3.296-0.264c2.346-0.185,4.631,0.162,6.759,1.184
		c2.956,1.422,4.827,3.87,5.476,7.061c0.642,2.896,0.219,5.713-1.44,8.143c1.108-0.159,2.24-0.298,3.342-0.449
		c0.233-4.85,0.476-9.7,0.687-14.516c0.233-5.612,0.498-11.22,0.784-16.833l0.158-2.817l2.821-0.057
		c2.293-0.049,4.602-0.106,6.932-0.155l3.206-0.053l-0.136,3.217c-0.257,5.477-0.543,10.923-0.754,16.41
		c-0.084,1.606-0.144,3.232-0.219,4.869c0.347-1.554,0.973-3.025,1.945-4.398c1.901-2.689,4.579-4.262,7.883-4.537
		c0.837-0.072,1.674-0.125,2.527-0.204c1.99-0.158,3.937,0.241,5.687,1.215c0.679,0.362,1.306,0.811,1.833,1.335
		c0-0.076-0.022-0.155-0.022-0.238c-0.445-2.606-0.188-5.292,1.426-7.449c1.29-1.765,3.183-2.765,5.348-2.877
		c0.83-0.023,1.659-0.076,2.489-0.125l3.244-0.162l-0.084,3.266c-0.029,1.162-0.045,2.32-0.075,3.481
		c1.63-0.136,3.243-0.26,4.873-0.4l3.312-0.238l-0.076,3.319c-0.053,2.372-0.075,4.748-0.128,7.12
		c-0.03,1.185-0.083,2.369-0.113,3.53c0.113-0.347,0.271-0.687,0.431-1.011l0.942-2.52c0.687-1.87,1.396-3.745,2.112-5.589
		c-0.061-0.132-0.113-0.264-0.136-0.396c-0.287-0.811-0.506-1.682-0.687-2.557l-0.129-0.762l0.212-0.709
		c0.709-2.32,1.471-4.643,2.188-6.925l0.829-2.821l2.844,0.792c2.957,0.785,4.488,3.267,4.934,6.186
		c0.181,1.185,0.241,2.372,0.098,3.553c0.535,1.399,1.033,2.769,1.531,4.164c0.634,1.799,1.215,3.715,1.531,5.616
		c0.016,0.238,0.083,0.498,0.105,0.735c0.393-0.053,0.792-0.102,1.185-0.162l3.069-0.389l0.348,3.055
		c0.196,1.66-0.075,3.292-0.891,4.737c-0.844,1.527-2.156,2.686-3.922,2.979c-3.266,0.479-6.51,0.973-9.745,1.475
		c-1.26,0.185-2.361,0.079-3.319-0.309c-0.731,0.623-1.6,1.075-2.603,1.207c-1.848,0.287-3.658,0.577-5.506,0.841
		c-3.153,0.498-5.077-1.475-5.921-4.107c-0.31,0.237-0.687,0.422-1.109,0.547c-0.233,0.977-0.626,1.923-1.215,2.772
		c-1.018,1.444-2.488,2.444-4.262,2.708c-3.13,0.476-6.237,0.955-9.368,1.418c-2.843,0.449-5.552,0.215-7.845-0.973
		c-0.188,0.237-0.361,0.479-0.61,0.687c-1.102,1.188-2.497,1.983-4.111,2.222c-2.489,0.388-4.971,0.758-7.468,1.157
		c-1.523,0.234-2.896,0-4.005-0.607c-1.071,0.974-2.368,1.581-3.869,1.792c-4.051,0.626-8.109,1.26-12.159,1.87
		c-3.742,0.577-7.51,0.362-10.613-1.319c-0.188,0.313-0.426,0.606-0.664,0.894c-1.422,1.659-3.281,2.659-5.441,2.976
		c-4.899,0.77-9.825,1.505-14.717,2.267C279.895,431.209,275.176,431.081,271.386,428.942L271.386,428.942z M342.003,408.056
		c-0.03,0.845-0.083,1.693-0.113,2.531l0.505-0.075c-0.06-0.313-0.135-0.638-0.181-0.947
		C342.123,409.063,342.048,408.565,342.003,408.056L342.003,408.056z M364.911,401.316c0.045,0.264,0.067,0.524,0.098,0.788
		c0-0.211,0.022-0.448,0.022-0.66C364.979,401.396,364.956,401.369,364.911,401.316L364.911,401.316z M364.911,405.035
		c-0.166,0.86-0.431,1.735-0.853,2.546l0.77-0.102C364.851,406.661,364.881,405.85,364.911,405.035L364.911,405.035z"/>
		<path fill="#24275A" d="M242.108,384.798c0.558,2.741,0.136,5.137-1.233,7.143c-1.399,2.025-3.447,3.104-6.08,3.244
		c-2.629,0.125-5.062-0.747-7.43-2.67c-2.372-1.919-3.896-4.341-4.469-7.207c-0.136-0.664-0.211-1.562-0.238-2.636
		c-1.184-0.083-1.923-0.136-2.217-0.136c-3.87,0.079-5.45,1.999-4.654,5.74c0.422,1.923,2.47,6.163,6.125,12.646
		c3.59,6.374,5.751,11.378,6.51,15.014c0.814,3.93,0.55,7.46-0.656,10.613c-1.237,3.194-3.583,6.034-7.06,8.591
		c-5.243,3.84-12.054,6.449-20.453,7.792c-8.056,1.268-15.689,1.237-22.848-0.181c-10.563-2.112-16.854-6.895-18.563-14.381
		c-2.482-10.934,5.68-17.145,23.375-18.544c5.691-0.449,11.375-0.898,16.795-1.32c1.558,2.372,3.104,4.714,4.639,7.061
		c-4.141,0.396-8.35,0.795-12.751,1.218c-3.341,0.313-6.049,1.207-8.342,2.708c-3.021,1.98-4.179,4.552-3.47,7.77
		c0.811,3.605,3.733,6.136,8.791,7.554c3.708,1.041,7.475,1.298,11.292,0.77c4.665-0.656,8.21-2.293,10.816-4.896
		c2.979-2.953,3.903-6.721,2.904-11.386c-0.683-3.206-2.72-7.717-6.246-13.615c-3.605-5.955-5.815-10.666-6.551-14.12
		c-2.421-11.22,5.054-16.854,21.38-16.854c3.157,0,6.189,0,9.18,0c2.485,0,4.88,0.973,7.139,2.923
		C240.139,379.638,241.535,382.033,242.108,384.798L242.108,384.798z M269.753,423.395c-0.102,4.239-2.161,6.66-6.366,7.294
		c-5.299,0.815-10.851,1.659-16.489,2.527c-3.417,0.528-5.389-0.656-6-3.534c-0.125-0.709-0.185-1.497-0.102-2.368
		c0.449-5.167,0.924-10.326,1.399-15.433c-1.923,0.177-3.843,0.366-5.77,0.551c0.268-2.293,0.554-4.613,0.872-6.898
		c3.839-1.584,6.472-3.402,8.003-5.424c1.712-2.323,3.235-6.347,4.529-12.068c2.074-0.053,4.183-0.132,6.291-0.215
		c-0.264,2.715-0.476,5.427-0.687,8.143c-0.237,2.719-0.449,5.45-0.626,8.195c2.734-0.238,5.45-0.453,8.157-0.664
		c-0.448,4.296-2.681,6.638-6.66,7.038c-0.709,0.075-1.422,0.132-2.108,0.207c-0.422,4.952-0.837,9.931-1.21,14.905
		C258.748,424.865,264.337,424.13,269.753,423.395L269.753,423.395z M303.771,418.778c-0.026,1.875-0.524,3.368-1.554,4.556
		c-0.921,1.105-2.104,1.743-3.579,1.977c-4.764,0.717-9.693,1.475-14.72,2.24c-9.191,1.392-14.716-1.603-16.191-9.135
		c-0.973-4.876-0.049-8.852,2.712-11.91c2.368-2.58,5.4-4.001,9.191-4.288c1.313-0.113,2.632-0.215,3.979-0.324
		c2.308-0.185,4.442,0.136,6.313,0.946c2.47,1.06,4.005,2.848,4.552,5.375c0.585,2.561,0.087,4.767-1.448,6.698
		c-2.893,0.335-5.872,0.675-8.844,1.048c0.452-2.768,0.924-5.502,1.396-8.244c-1.894,0.185-3.817,0.366-5.823,0.577
		c-0.178,3.089-0.389,6.166-0.573,9.277c-0.022,0.521,0,0.996,0.102,1.422c0.396,2.029,1.792,2.866,4.239,2.531
		C290.53,420.574,297.27,419.68,303.771,418.778L303.771,418.778z M331.76,415.015c0.022,1.655-0.423,3.055-1.29,4.137
		c-0.77,0.973-1.72,1.55-2.949,1.735c-3.952,0.607-8.063,1.237-12.189,1.871c-7.581,1.161-12.159-1.634-13.456-8.482
		c-0.812-4.401-0.103-7.98,2.156-10.723c1.92-2.346,4.424-3.605,7.559-3.843c1.086-0.109,2.165-0.185,3.266-0.264
		c1.946-0.158,3.689,0.128,5.242,0.898c2.053,0.973,3.365,2.632,3.84,4.925c0.498,2.338,0.083,4.345-1.177,6.08
		c-2.376,0.294-4.851,0.584-7.354,0.871c0.4-2.508,0.762-4.975,1.162-7.456c-1.614,0.158-3.214,0.298-4.82,0.449
		c-0.136,2.791-0.287,5.612-0.422,8.429c-0.023,0.472,0,0.92,0.082,1.297c0.34,1.844,1.502,2.603,3.5,2.342
		C320.717,416.485,326.336,415.724,331.76,415.015L331.76,415.015z M346.68,412.981c0.037,1.818-0.468,3.24-1.441,4.243
		c-0.686,0.743-1.479,1.191-2.398,1.32c-2.421,0.369-4.979,0.758-7.452,1.135c-2.029,0.31-3.206-0.614-3.605-2.746
		c-0.083-0.55-0.128-1.184-0.113-1.919c0.302-5.714,0.565-11.413,0.83-17.047c0.233-5.627,0.497-11.239,0.784-16.802
		c2.346-0.053,4.631-0.105,6.925-0.159c-0.234,5.45-0.528,10.907-0.763,16.41c-0.211,5.51-0.497,11.062-0.738,16.647
		C341.392,413.69,344.077,413.329,346.68,412.981L346.68,412.981z M367.988,410.089c0.022,1.471-0.294,2.682-0.95,3.632
		c-0.611,0.818-1.373,1.32-2.271,1.479c-3.018,0.449-6.147,0.92-9.346,1.422c-5.74,0.871-9.18-1.633-10.243-7.558
		c-0.656-3.851-0.159-6.959,1.501-9.301c1.418-1.999,3.318-3.081,5.635-3.266c0.852-0.053,1.689-0.132,2.534-0.188
		c1.471-0.128,2.783,0.158,3.997,0.822c1.607,0.894,2.603,2.342,3.033,4.341c0.392,2.055,0.105,3.828-0.846,5.299
		c-1.87,0.238-3.74,0.445-5.611,0.687c0.264-2.188,0.498-4.352,0.77-6.509c-1.185,0.136-2.451,0.237-3.688,0.369
		c-0.083,2.425-0.128,4.843-0.212,7.298c0,0.422,0.023,0.811,0.084,1.135c0.294,1.599,1.184,2.308,2.685,2.108
		C359.502,411.247,363.795,410.67,367.988,410.089L367.988,410.089z M385.156,407.766c0.203,1.237,0.015,2.323-0.559,3.266
		c-0.527,0.826-1.108,1.297-1.817,1.399c-1.825,0.291-3.628,0.55-5.477,0.848c-1.523,0.238-2.474-0.795-2.844-3.081
		c-0.098-0.611-0.158-1.244-0.136-1.931c0.083-3.029,0.166-6.05,0.249-9.082c-1.108,0.102-2.195,0.211-3.243,0.313
		c-0.136,2.719-0.242,5.423-0.37,8.143c-0.083,1.361-0.573,2.131-1.554,2.263c-0.551,0.083-1.078,0.154-1.659,0.233
		c0.128-3.447,0.241-6.897,0.369-10.326c-0.716-0.211-1.319-0.735-1.9-1.633c-0.551-0.864-0.913-1.897-1.124-3.081
		c-0.377-2.184-0.061-3.893,0.867-5.163c0.762-1.022,1.811-1.577,3.07-1.633c0.83-0.053,1.645-0.076,2.512-0.128
		c-0.083,2.263-0.136,4.556-0.181,6.823c2.813-0.211,5.521-0.422,8.214-0.637c-0.061,2.346-0.105,4.718-0.166,7.086
		c-0.045,2.369-0.105,4.741-0.181,7.143C381.256,408.294,383.202,408.03,385.156,407.766L385.156,407.766z M400.732,405.657
		c0.136,1.113-0.045,2.086-0.521,2.931c-0.483,0.864-1.056,1.339-1.758,1.448c-3.16,0.476-6.435,0.973-9.753,1.497
		c-1.969,0.287-3.131-0.735-3.53-3.081c-0.015-0.185-0.075-0.422-0.098-0.687c-0.083-1.045,0.083-1.893,0.476-2.527
		c0.369-0.554,0.837-0.864,1.387-0.913c0.981-0.091,2.452,0.784,4.383,2.568c0.287-1.207,0.332-2.368,0.158-3.53
		c-0.082-0.573-0.482-1.859-1.222-3.892c-0.339,0.924-0.679,1.875-1.025,2.817c-0.897,0.079-1.788,0.188-2.708,0.291
		c0.867-2.267,1.712-4.503,2.526-6.709c-0.241-0.536-0.422-0.984-0.527-1.297c-0.212-0.638-0.4-1.373-0.551-2.161
		c0.709-2.342,1.479-4.662,2.18-6.955c1.471,0.422,2.398,1.66,2.73,3.741c0.196,1.237,0.196,2.369,0,3.428
		c0.589,1.606,1.192,3.244,1.772,4.843c0.717,2.078,1.162,3.764,1.373,5.084c0.241,1.422,0.158,2.685-0.234,3.768
		C397.413,406.11,399.072,405.873,400.732,405.657L400.732,405.657z"/>
		<path fill="#ED2224" d="M281.075,364.043h-6.683v-22.308h6.683V364.043z M301.9,359.223l-2.236,4.82h-14.135
		c-0.607,0-1.131-0.211-1.58-0.634c-0.426-0.448-0.637-0.973-0.637-1.58v-17.857c0-0.63,0.211-1.158,0.637-1.581
		c0.449-0.449,0.973-0.656,1.58-0.656H301.9l-2.236,4.846h-9.666v12.642H301.9z M322.73,359.223l-2.24,4.82h-16.346v-22.308h18.586
		l-2.24,4.846h-9.662v4.45h9.662v3.715h-9.662v4.477H322.73z M343.549,346.581h-5.943v17.462h-6.69v-17.462h-5.952v-4.846h18.586
		V346.581z M364.383,361.829c0,0.607-0.219,1.132-0.664,1.58c-0.422,0.423-0.95,0.634-1.584,0.634H348
		c-0.604,0-1.132-0.211-1.577-0.634c-0.415-0.448-0.634-0.973-0.634-1.58v-17.857c0-0.63,0.219-1.158,0.634-1.581
		c0.445-0.449,0.974-0.656,1.577-0.656h14.135c0.634,0,1.162,0.208,1.584,0.656c0.445,0.422,0.664,0.951,0.664,1.581V361.829z
		 M357.692,359.223v-12.642h-5.212v12.642H357.692z M385.201,361.829c0,0.607-0.211,1.132-0.656,1.58
		c-0.422,0.423-0.958,0.634-1.576,0.634h-16.354v-22.308h16.354c0.618,0,1.154,0.208,1.576,0.656
		c0.445,0.422,0.656,0.951,0.656,1.581v6.69c0,0.611-0.211,1.135-0.656,1.584c-0.422,0.418-0.958,0.652-1.576,0.652
		c0.618,0,1.154,0.162,1.576,0.528c0.445,0.369,0.656,0.822,0.656,1.319V361.829z M378.511,351.031v-4.45h-5.204v4.45H378.511z
		 M378.511,359.223v-4.477h-5.204v4.477H378.511z M406.027,359.223l-2.24,4.82h-16.346v-22.308h18.586l-2.24,4.846h-9.655v4.45
		h9.655v3.715h-9.655v4.477H406.027z"/>
		<path fill-rule="evenodd" clip-rule="evenodd" fill="#24275A" d="M382.614,460.234c-8.651,13.804-17.077,28.029-26.106,41.652
		c-7.324,11.035-17.349,32.548-30.964,40.407l-1.81,1.049c-5.906,3.401-10.824,2.723-14.064,4.239
		c14.721,9.247,38.412,17.175,58.575,5.536c13.849-8.003,21.716-24.318,27.622-35.12c2.587-4.736,19.634-35.24,21.558-37.051
		l0.271-0.422L382.614,460.234z"/>
		<path fill-rule="evenodd" clip-rule="evenodd" fill="#24275A" d="M459.635,348.689l-7.98-13.856
		c-0.77-0.396-5.959-6.901-7.09-8.086c-2.285-2.319-4.934-4.767-7.423-6.822c-3.312-2.769-12.159-9.222-15.666-10.432
		c1.772,2.557,5.167,3.896,7.648,8.218l1.894,3.266c6.924,11.959,4.337,29.21,1.734,38.986c-1.734,6.423-10.477,30.53-15.011,34.795
		l0.604,1.075c1.185-0.34,2.301-0.31,3.342-0.947c6.427-3.681,11.752-12.484,15.455-17.119c1.772-2.188,11.858-18.888,15.78-12.092
		c5.657,9.772-8.667,32.925-1.818,44.809l1.26,2.184c1.057,1.844,1.683,1.606,2.814,3.217c5.506-8.754,8.305-21.55,9.504-31.639
		c0.686-5.639,0.43-11.088-0.158-17.017c-0.31-2.999-1.041-5.876-1.788-9.085C462.343,356.406,459.574,349.874,459.635,348.689
		L459.635,348.689z"/>
	</g>
</svg>
