<?xml version="1.0" encoding="utf-8"?>
<!-- Generator: Adobe Illustrator 16.0.0, SVG Export Plug-In . SVG Version: 6.00 Build 0)  -->
<!DOCTYPE svg PUBLIC "-//W3C//DTD SVG 1.1//EN" "http://www.w3.org/Graphics/SVG/1.1/DTD/svg11.dtd">
<svg version="1.1" id="Layer_1" xmlns="http://www.w3.org/2000/svg" xmlns:xlink="http://www.w3.org/1999/xlink" x="0px" y="0px"
	 viewBox="0 0 464.221 239.944" enable-background="new 0 0 464.221 239.944"
	 xml:space="preserve">
<path fill="#FFFFFF" d="M420.504,60.698l-0.729-0.432l14.72-34.998h-25.893l10.556-25.267L69.593,0L59.038,25.269h-24.7
	l-21.012,49.93l27.837,0.018L0,172.676l78.948,0.052c11.231,15.564,32.994,26.901,48.095,33.74
	c17.738,8.033,36.716,14.517,55.469,19.778c75.731,21.249,167.622,21.368,234.151-25.585c24.814-17.514,52.043-42.945,46.936-76.559
	C459.794,99.071,442.262,73.57,420.504,60.698z M63.851,32.495L74.406,7.227l333.9,0.001l-10.556,25.268h25.864l-38.567,91.697
	l30.53,0.001c7.415-23.437,4.585-55.041,1.246-57.277c19.923,11.788,36.157,35.424,39.629,58.271
	c4.786,31.504-23.74,55.3-43.958,69.569C347.979,240.291,258.277,240,184.463,219.289c-24.874-6.979-85.532-26.438-101.629-53.785
	l-71.941-0.047l41.163-97.46l-27.853-0.018l14.933-35.484 M411.526,109.707c-0.36,2.254-0.831,4.723-1.444,7.261l-14.155-0.001
	l16.479-39.181c0.293,2.727,0.451,5.499,0.514,6.979C413.269,93.003,412.825,101.563,411.526,109.707z"/>
<polygon fill="#FFFFFF" points="210.958,165.587 210.958,165.587 210.958,165.587 "/>
<path fill="#FFFFFF" d="M193.524,143.148c-4.534-5.433-11.483-10.688-19.455-15.227l0,0
	C182.041,132.46,188.99,137.715,193.524,143.148z"/>
<path fill="#FFFFFF" d="M254.037,148.923l20.525-49.041h19.851l-22.201,53.044c1.516,0.265,3.058,0.533,4.632,0.806h32.705
	l47.25-113.395h-37.564l-16.609,39.673h-19.85l16.499-39.673H261.71l-40.544,97.301
	C232.521,142.021,244.498,146.165,254.037,148.923z"/>
<path fill="#FFFFFF" d="M386.218,153.733c4.282-1.664,8.367-3.635,11.808-5.679l6.023-14.192h-37.564l38.853-93.524h-37.563
	l-47.25,113.395H386.218z"/>
<path fill="#FFFFFF" d="M139.994,67.275l-14.761,35.397c11.475,0.053,23.758,2.231,35.124,6.027l16.097-38.588
	c1.731-4.017,4.015-6.923,6.85-8.743c2.873-1.819,5.855-2.74,9.023-2.74c1.51,0.047,2.835,0.331,3.94,0.874
	c1.104,0.52,1.952,1.252,2.541,2.174c0.552,0.921,0.92,2.031,1.068,3.308c0,1.299-0.368,2.93-1.068,4.868l-19.698,47.124
	c2.457,1.4,4.795,2.88,6.973,4.44c3.986,2.855,12.547,6.979,22.803,11.288c1.571-1.919,2.78-3.886,3.622-5.907l24.711-59.521
	c0.995-2.387,1.51-4.82,1.51-7.278c0-4.418-1.842-8.247-5.487-11.436c-3.683-3.214-8.434-5.624-14.252-7.231
	c-5.819-1.63-11.969-2.434-18.451-2.434c-9.354,0-18.34,1.37-26.921,4.088c-8.618,2.717-15.873,6.285-21.802,10.728
	C145.887,58.13,141.946,62.667,139.994,67.275z"/>
<polygon fill="#FFFFFF" points="137.865,60.139 146.077,40.338 47.094,40.338 38.881,60.139 70.096,60.139 31.021,153.733 
	68.585,153.733 107.66,60.139 "/>
<path fill="#FFFFFF" d="M155.865,119.465c-10.16-3.768-20.35-6.038-28.365-5.952C135.515,113.427,145.705,115.698,155.865,119.465
	L155.865,119.465z"/>
<path fill="#FFFFFF" d="M194.243,144.039c-0.233-0.298-0.471-0.595-0.719-0.891C193.771,143.444,194.01,143.741,194.243,144.039
	L194.243,144.039z"/>
<path fill="#FFFFFF" d="M182.625,168.116c2.538-0.386,4.24-0.981,5.607-2.172c-25.211,3.831-73.064-16.335-76.239-37.229
	c-0.664-4.37,1.749-7.413,3.787-9.811c-5.749,1.005-10.989,5.825-10.137,11.435l0.098,0.646
	c3.006,19.784,49.212,41.336,69.792,38.209L182.625,168.116z"/>
<path fill="#FFFFFF" d="M427.714,87.998c3.504,23.057,0.753,35.931-9.151,49.38c-5.134,6.971-8.515,10.92-16.062,16.235
	c-2.676,1.884-21.032,11.982-21.043,11.995c8.969-1.363,23.777-7.8,30.178-11.569c11.956-7.041,12.629-8.559,19.264-19.031
	c0.871,12.842-17.923,31.387-26.697,38.755c-5.982,5.024-13.438,9.963-20.476,14.13c-3.065,1.814-21.257,11.434-22.067,12.387
	c19.495-2.962,48.846-15.913,59.895-25.195C445.696,154.804,455.334,111.474,427.714,87.998z"/>
<path fill="#FFFFFF" d="M327.373,213.406c-16.48,2.504-65.018,1.117-73.177-4.054c2.748-0.354,15.181-0.015,19.405,0.088
	c5.258,0.127,15.447-1.425,21.157-2.293l10.961-1.665c25.837-3.926,76.484-16.773,83.558-31.826l-27.73,8.079
	c-13.443,3.106-55.894,0.649-66.635-1.242c-11.261-1.982-51.11-8.294-56.405-13.612c4.861-0.628,20.857,1.129,27.729,1.227
	c8.953,0.127,18.542,0.839,27.999,0.859c17.583,0.039,39.321,0.622,58.363-2.271c-0.093-0.607-53.301-3.204-64.394-4.384
	c-0.463-0.047-0.863-0.095-1.193-0.144c-0.123-0.018-0.233-0.035-0.33-0.052c-20.903-3.646-38.704-7.97-57.667-14.232
	c-16.945-5.596-36.644-14.709-50.704-24.467c-10.299-7.148-39.854-17.853-56.909-15.261l-11.606,1.763
	c-15.064,2.29-27.112,29.95-25.07,43.388c4.285,28.198,67.607,50.618,91.941,56.35c17.533,4.13,38.855,10.562,57.74,11.799
	c30.209,1.979,101.815,8.234,125.654-14.335l-14.569,3.796L327.373,213.406z M281.741,186.715
	c14.165,1.693,25.429,1.932,41.025,2.611c14.861,0.646,29.524-2.795,45.021-5.149c-3.112,3.662-31.582,10.735-40.383,12.072
	l-14.185,2.155c-22.993,3.494-43.305,3.64-63.405,2.896c-9.692-0.357-46.839-6.952-53.796-10.155
	c17.841-1.211,35.205,2.567,53.402-0.197c-13.431-2.776-27.223-9.718-41.315-20.108c2.819,0.221,14.402,3.845,18.123,4.94
	c5.944,1.751,11.901,2.831,18.034,4.283C255.457,182.715,270.185,185.333,281.741,186.715z M285.812,165.629
	c-8.552,1.105-29.188-1.014-38.146-1.856c-5.932-0.558-12.13-1.308-17.813-2.249c-4.899-0.812-15.182-2.938-19.632-3.279
	c-0.032-6.488-0.326-6.66-2.614-12.396c13.132,6.171,22.028,8.734,37.292,12.35C251.474,159.757,283.174,164.333,285.812,165.629z
	 M210.958,165.587L210.958,165.587L210.958,165.587L210.958,165.587z M90.724,153.714l-0.686-4.514
	c-0.721-4.742,5.264-15.252,7.087-19.406c0.17-0.388,0.342-0.777,0.516-1.168c0.174-0.39,0.351-0.781,0.531-1.171
	c2.529-5.457,5.841-10.722,13.794-11.931l10.961-1.666c0.356-0.054,0.718-0.102,1.087-0.143c1.106-0.124,2.271-0.191,3.484-0.204
	c8.016-0.086,18.206,2.185,28.365,5.952c6.25,2.318,12.49,5.202,18.204,8.456c7.971,4.539,14.92,9.794,19.455,15.227
	c0.248,0.296,0.486,0.593,0.719,0.891c0.771,0.984,1.462,1.974,2.063,2.966c1.367,2.258,2.27,4.524,2.609,6.762l0.587,3.869
	c0.563,3.709-6.099,16.922-7.823,20.581c-3.167,6.719-6.899,12.659-16.586,14.131l-4.513,0.686
	C145.631,196.824,93.991,175.21,90.724,153.714z M173.788,201.122c4.81-0.731,14.41-3.291,17.114-3.983
	c35.896,11.185,68.18,22.325,132.135,20.005C259.332,226.348,196.2,213.034,173.788,201.122z"/>
<polygon fill="#FFFFFF" points="131.254,26.398 135.531,26.398 140.91,13.488 136.634,13.488 "/>
<path fill="#FFFFFF" d="M154.921,13.602c-0.662-0.186-1.362-0.277-2.1-0.277c-1.065,0-2.088,0.156-3.065,0.465
	c-0.981,0.309-1.807,0.715-2.482,1.221c-0.675,0.503-1.124,1.02-1.346,1.544c-0.155,0.409-0.235,0.758-0.235,1.049
	c0,0.347,0.105,0.665,0.31,0.952c0.193,0.242,0.386,0.452,0.574,0.627c0.188,0.175,0.395,0.347,0.608,0.517
	c0.218,0.167,0.545,0.419,0.985,0.756c0.436,0.336,0.747,0.586,0.927,0.748c0.591,0.495,0.885,1.042,0.885,1.641
	c0,0.215-0.038,0.404-0.109,0.568c-0.117,0.25-0.339,0.436-0.67,0.552c-0.332,0.115-0.629,0.172-0.893,0.172
	c-0.319,0-0.554-0.073-0.713-0.215c-0.155-0.146-0.23-0.326-0.23-0.541l0.897-2.144h-4.276l-0.885,2.095
	c-0.113,0.258-0.172,0.511-0.172,0.759c0,0.503,0.222,0.931,0.671,1.28c0.444,0.35,1.011,0.608,1.702,0.774
	c0.688,0.17,1.375,0.253,2.063,0.253c1.057,0,2.067-0.142,3.035-0.425c0.964-0.285,1.782-0.662,2.449-1.135
	c0.667-0.473,1.111-0.974,1.333-1.506c0.26-0.672,0.395-1.205,0.395-1.601c0-0.409-0.185-0.855-0.554-1.339
	c-0.453-0.568-0.918-1.055-1.4-1.466c-0.482-0.409-1.073-0.877-1.77-1.402c-0.419-0.31-0.628-0.648-0.628-1.017
	c0.159-0.363,0.411-0.608,0.759-0.734c0.348-0.126,0.662-0.188,0.952-0.188c0.621,0,0.931,0.215,0.931,0.646l-0.6,1.453h4.276
	l0.453-1.127c0.113-0.274,0.172-0.549,0.172-0.829c0-0.503-0.21-0.938-0.625-1.302C156.125,14.059,155.584,13.784,154.921,13.602z"
	/>
<path fill="#FFFFFF" d="M174.157,14.425c-0.419-0.366-0.96-0.641-1.623-0.823c-0.662-0.186-1.363-0.277-2.1-0.277
	c-1.065,0-2.088,0.156-3.065,0.465c-0.981,0.309-1.807,0.715-2.482,1.221c-0.675,0.503-1.124,1.02-1.346,1.544l-2.826,6.776
	c-0.113,0.258-0.172,0.511-0.172,0.759c0,0.503,0.222,0.931,0.671,1.28c0.444,0.35,1.01,0.608,1.702,0.774
	c0.688,0.17,1.375,0.253,2.063,0.253c1.057,0,2.067-0.142,3.036-0.425c0.964-0.285,1.782-0.662,2.449-1.135
	c0.667-0.473,1.111-0.974,1.333-1.506l2.813-6.776c0.113-0.271,0.172-0.549,0.172-0.829
	C174.782,15.224,174.573,14.788,174.157,14.425z M170.237,16.849l-2.641,6.319c-0.122,0.288-0.348,0.52-0.675,0.694
	c-0.327,0.172-0.662,0.258-0.998,0.258c-0.252,0-0.47-0.056-0.65-0.172c-0.181-0.116-0.269-0.275-0.269-0.474
	c0-0.056,0.029-0.185,0.097-0.384l2.591-6.211c0.197-0.458,0.457-0.788,0.78-0.996c0.327-0.207,0.667-0.312,1.027-0.312
	c0.171,0.005,0.323,0.038,0.449,0.1c0.125,0.059,0.222,0.143,0.289,0.247c0.063,0.105,0.104,0.232,0.122,0.377
	C170.359,16.442,170.317,16.628,170.237,16.849z"/>
<polygon fill="#FFFFFF" points="131.858,13.488 129.979,18.006 128.835,13.488 124.559,13.488 119.179,26.398 123.456,26.398 
	126.021,20.267 126.479,26.398 130.004,26.398 135.384,13.488 "/>
<path fill="#FFFFFF" d="M121.318,14.425c-0.419-0.366-0.96-0.641-1.623-0.823c-0.662-0.186-1.362-0.277-2.1-0.277
	c-1.065,0-2.088,0.156-3.065,0.465c-0.981,0.309-1.807,0.715-2.482,1.221c-0.675,0.503-1.124,1.02-1.346,1.544l-2.826,6.776
	c-0.113,0.258-0.172,0.511-0.172,0.759c0,0.503,0.222,0.931,0.671,1.28c0.444,0.35,1.011,0.608,1.702,0.774
	c0.688,0.17,1.375,0.253,2.063,0.253c1.056,0,2.067-0.142,3.035-0.425c0.964-0.285,1.782-0.662,2.449-1.135
	c0.667-0.473,1.111-0.974,1.333-1.506l2.813-6.776c0.113-0.271,0.172-0.549,0.172-0.829
	C121.942,15.224,121.733,14.788,121.318,14.425z M117.397,16.849l-2.642,6.319c-0.121,0.288-0.348,0.52-0.675,0.694
	c-0.327,0.172-0.662,0.258-0.998,0.258c-0.252,0-0.47-0.056-0.65-0.172c-0.181-0.116-0.269-0.275-0.269-0.474
	c0-0.056,0.029-0.185,0.097-0.384l2.591-6.211c0.197-0.458,0.457-0.788,0.78-0.996c0.327-0.207,0.667-0.312,1.027-0.312
	c0.172,0.005,0.323,0.038,0.449,0.1c0.125,0.059,0.222,0.143,0.289,0.247c0.063,0.105,0.105,0.232,0.122,0.377
	C117.52,16.442,117.477,16.628,117.397,16.849z"/>
<polygon fill="#FFFFFF" points="184.698,13.488 182.819,18.006 181.675,13.488 177.398,13.488 172.019,26.398 176.295,26.398 
	178.861,20.267 179.318,26.398 182.845,26.398 188.224,13.488 "/>
<polygon fill="#FFFFFF" points="189.473,13.488 184.094,26.398 192.643,26.398 193.603,24.136 189.326,24.136 193.75,13.488 "/>
<polygon fill="#FFFFFF" points="211.766,26.398 220.575,26.398 221.53,24.136 216.998,24.136 218.608,20.257 223.14,20.257 
	224.063,18.006 219.543,18.006 220.499,15.743 225.019,15.743 225.954,13.488 217.145,13.488 "/>
<polygon fill="#FFFFFF" points="110.471,13.488 101.16,13.488 100.225,15.743 102.744,15.743 98.296,26.398 102.572,26.398 
	107.021,15.743 109.537,15.743 "/>
<polygon fill="#FFFFFF" points="233.701,20.267 235.961,20.267 233.396,26.398 237.685,26.398 243.063,13.488 238.787,13.488 
	236.896,18.006 234.636,18.006 236.515,13.488 232.238,13.488 226.859,26.398 231.135,26.398 "/>
<polygon fill="#FFFFFF" points="212.369,13.488 210.491,18.006 209.346,13.488 205.07,13.488 199.69,26.398 203.967,26.398 
	206.533,20.267 206.99,26.398 210.516,26.398 215.896,13.488 "/>
<polygon fill="#FFFFFF" points="199.531,13.488 194.152,26.398 198.429,26.398 203.808,13.488 "/>
<polygon fill="#FFFFFF" points="145.698,13.488 142.172,13.488 141.04,16.232 142.797,16.232 141.015,17.201 141.899,17.761 
	144.566,16.232 "/>
<polygon fill="#FFFFFF" points="324.664,24.136 320.133,24.136 321.742,20.257 326.274,20.257 327.197,18.006 322.678,18.006 
	323.633,15.743 328.153,15.743 329.088,13.488 320.279,13.488 314.899,26.398 323.709,26.398 "/>
<path fill="#FFFFFF" d="M332.609,13.488l-7.651,12.91h4.532l1.032-1.939h1.659l-0.553,1.939h4.52l2.998-12.91H332.609z
	 M332.882,22.363h-1.354l2.838-5.248L332.882,22.363z"/>
<polygon fill="#FFFFFF" points="314.352,24.136 310.074,24.136 314.497,13.488 310.222,13.488 304.842,26.398 313.391,26.398 "/>
<polygon fill="#FFFFFF" points="290.373,26.398 294.649,26.398 296.406,22.204 303.677,13.488 299.157,13.488 296.49,16.878 
	296.637,13.488 292.105,13.488 292.13,22.204 "/>
<polygon fill="#FFFFFF" points="370.998,26.398 371.953,24.136 367.421,24.136 369.031,20.257 373.563,20.257 374.485,18.006 
	369.966,18.006 370.922,15.743 375.441,15.743 376.377,13.488 367.568,13.488 362.189,26.398 "/>
<path fill="#FFFFFF" d="M338.688,23.996c0,0.42,0.168,0.808,0.499,1.165c0.332,0.357,0.826,0.646,1.493,0.863
	c0.663,0.218,1.459,0.326,2.394,0.326c0.877,0,2.013-0.199,3.413-0.597l0.604,0.646h1.51l3.245-7.747h-5.53l-0.956,2.263h1.254
	l-0.923,2.254c-0.121,0.288-0.348,0.52-0.675,0.694c-0.327,0.172-0.658,0.258-0.993,0.258c-0.256,0-0.475-0.056-0.654-0.172
	c-0.181-0.116-0.269-0.275-0.269-0.474c0-0.056,0.033-0.185,0.097-0.384l2.591-6.211c0.188-0.447,0.453-0.778,0.788-0.996
	c0.336-0.217,0.658-0.328,0.969-0.328c0.265,0,0.478,0.081,0.642,0.239c0.163,0.161,0.243,0.363,0.243,0.61
	c0,0.073-0.029,0.221-0.097,0.442l-0.452,1.078h4.271l0.554-1.369c0.113-0.274,0.172-0.549,0.172-0.829
	c0-0.503-0.209-0.938-0.625-1.305c-0.419-0.363-0.96-0.638-1.622-0.823c-0.663-0.183-1.362-0.274-2.101-0.274
	c-1.065,0-2.088,0.156-3.064,0.465c-0.981,0.309-1.808,0.715-2.482,1.221c-0.675,0.503-1.124,1.02-1.346,1.544l-2.826,6.776
	C338.731,23.512,338.688,23.732,338.688,23.996z"/>
<path fill="#FFFFFF" d="M350.814,23.931c0,0.509,0.205,0.953,0.62,1.324c0.415,0.374,0.956,0.656,1.623,0.853
	c0.666,0.193,1.362,0.29,2.092,0.29c0.852,0,1.761-0.129,2.729-0.39c0.964-0.261,1.832-0.641,2.596-1.144
	c0.767-0.5,1.295-1.095,1.593-1.778l3.991-9.598h-4.276L357.74,23.2c-0.096,0.25-0.306,0.471-0.629,0.656
	c-0.326,0.188-0.662,0.28-1.015,0.28c-0.318,0-0.549-0.068-0.688-0.205c-0.138-0.137-0.209-0.298-0.209-0.489
	c0-0.067,0.017-0.159,0.05-0.274l4.017-9.679h-4.276l-3.991,9.598C350.877,23.366,350.814,23.646,350.814,23.931z"/>
<polygon fill="#FFFFFF" points="268.366,26.398 270.932,20.267 271.264,26.398 275.414,26.398 274.936,19.132 280.169,13.488 
	276.018,13.488 271.867,18.006 273.745,13.488 269.469,13.488 264.09,26.398 "/>
<path fill="#FFFFFF" d="M252.614,24.09c0,0.503,0.223,0.931,0.671,1.28c0.444,0.35,1.011,0.608,1.702,0.774
	c0.688,0.17,1.375,0.253,2.063,0.253c1.057,0,2.067-0.142,3.036-0.425c0.964-0.285,1.781-0.662,2.448-1.135s1.111-0.974,1.333-1.506
	l0.994-2.418h-4.272l-0.922,2.254c-0.155,0.293-0.395,0.53-0.713,0.705c-0.319,0.175-0.638,0.264-0.96,0.264
	c-0.579,0-0.873-0.242-0.873-0.724c0-0.092,0.018-0.199,0.051-0.326l2.591-6.208c0.289-0.495,0.57-0.834,0.851-1.017
	c0.277-0.186,0.596-0.277,0.956-0.277c0.558,0,0.835,0.242,0.835,0.727c0,0.21-0.029,0.388-0.097,0.536l-0.763,1.805h4.276
	l0.859-2.096c0.13-0.347,0.197-0.646,0.197-0.893c0-0.388-0.113-0.727-0.344-1.017c-0.23-0.288-0.546-0.53-0.952-0.724
	c-0.406-0.194-0.872-0.342-1.396-0.438c-0.524-0.097-1.086-0.145-1.682-0.145c-0.943,0-1.892,0.121-2.852,0.365
	c-0.96,0.245-1.798,0.608-2.519,1.092c-0.722,0.484-1.229,1.071-1.522,1.757l-2.826,6.779
	C252.674,23.59,252.614,23.842,252.614,24.09z"/>
<path fill="#FFFFFF" d="M253.649,14.425c-0.419-0.366-0.96-0.641-1.622-0.823c-0.662-0.186-1.362-0.277-2.101-0.277
	c-1.064,0-2.088,0.156-3.064,0.465c-0.981,0.309-1.807,0.715-2.482,1.221c-0.675,0.503-1.124,1.02-1.346,1.544l-2.825,6.776
	c-0.113,0.258-0.172,0.511-0.172,0.759c0,0.503,0.222,0.931,0.67,1.28c0.444,0.35,1.011,0.608,1.703,0.774
	c0.687,0.17,1.374,0.253,2.063,0.253c1.056,0,2.066-0.142,3.035-0.425c0.964-0.285,1.781-0.662,2.448-1.135s1.111-0.974,1.334-1.506
	l2.813-6.776c0.113-0.271,0.172-0.549,0.172-0.829C254.274,15.224,254.065,14.788,253.649,14.425z M249.73,16.849l-2.642,6.319
	c-0.122,0.288-0.349,0.52-0.675,0.694c-0.328,0.172-0.663,0.258-0.998,0.258c-0.252,0-0.47-0.056-0.65-0.172
	c-0.18-0.116-0.268-0.275-0.268-0.474c0-0.056,0.029-0.185,0.096-0.384l2.591-6.211c0.197-0.458,0.457-0.788,0.78-0.996
	c0.327-0.207,0.666-0.312,1.027-0.312c0.172,0.005,0.322,0.038,0.449,0.1c0.125,0.059,0.222,0.143,0.289,0.247
	c0.063,0.105,0.104,0.232,0.121,0.377C249.852,16.442,249.81,16.628,249.73,16.849z"/>
<polygon fill="#FFFFFF" points="285.477,26.398 286.433,24.136 281.9,24.136 283.51,20.257 288.042,20.257 288.965,18.006 
	284.445,18.006 285.4,15.743 289.921,15.743 290.855,13.488 282.047,13.488 276.668,26.398 "/>
<polygon fill="#FFFFFF" points="85.842,18.454 84.251,13.527 82.661,18.454 77.485,18.444 81.679,21.478 80.069,26.398 
	84.251,23.348 88.434,26.398 86.824,21.478 91.018,18.444 "/>
<polygon fill="#FFFFFF" points="383.731,26.398 387.914,23.348 392.096,26.398 390.486,21.478 394.681,18.444 389.504,18.454 
	387.914,13.527 386.323,18.454 381.146,18.444 385.341,21.478 "/>
</svg>
