<?xml version="1.0" encoding="utf-8"?>
<!-- Generator: Adobe Illustrator 16.0.0, SVG Export Plug-In . SVG Version: 6.00 Build 0)  -->
<!DOCTYPE svg PUBLIC "-//W3C//DTD SVG 1.1//EN" "http://www.w3.org/Graphics/SVG/1.1/DTD/svg11.dtd">
<svg version="1.1" id="Layer_1"
	xmlns="http://www.w3.org/2000/svg"
	xmlns:xlink="http://www.w3.org/1999/xlink" x="0px" y="0px" viewBox="-20.198 60.883 535.844 239.586" enable-background="new -20.198 60.883 535.844 239.586" xml:space="preserve">
	<g>
		<path d="M268.826,203.476l26.601-63.556h25.726l-28.772,68.745c1.965,0.343,3.963,0.69,6.004,1.044h42.385
		l61.234-146.958h-48.682l-21.525,51.416h-25.727l21.383-51.416h-48.682l-52.545,126.102
		C240.942,194.531,256.463,199.902,268.826,203.476z"/>
		<path d="M440.13,209.709c5.549-2.156,10.844-4.71,15.303-7.359l7.806-18.394h-48.683l50.353-121.205h-48.682
		l-61.235,146.958H440.13z"/>
		<path d="M121.029,97.66l-19.13,45.874c14.871,0.069,30.79,2.893,45.519,7.812l20.862-50.01
		c2.243-5.206,5.203-8.973,8.877-11.331c3.723-2.358,7.589-3.552,11.694-3.552c1.957,0.061,3.675,0.429,5.106,1.133
		c1.432,0.674,2.53,1.623,3.293,2.817c0.716,1.194,1.193,2.633,1.384,4.287c0,1.685-0.477,3.798-1.384,6.309l-25.528,61.071
		c3.185,1.814,6.214,3.732,9.037,5.754c5.166,3.701,16.261,9.045,29.551,14.629c2.036-2.486,3.603-5.035,4.694-7.654L247.03,97.66
		c1.289-3.093,1.957-6.246,1.957-9.432c0-5.726-2.386-10.687-7.111-14.82c-4.772-4.165-10.93-7.289-18.471-9.371
		c-7.541-2.113-15.512-3.154-23.912-3.154c-12.123,0-23.769,1.775-34.889,5.298c-11.168,3.522-20.571,8.146-28.255,13.903
		C128.666,85.81,123.559,91.69,121.029,97.66z"/>
		<polygon points="118.269,88.413 128.912,62.751 0.631,62.751 -10.012,88.413 30.441,88.413 -20.198,209.709 
		28.484,209.709 79.124,88.413 	"/>
		<path d="M176.277,228.348c3.289-0.499,5.495-1.271,7.266-2.813c-32.673,4.965-94.69-21.17-98.804-48.249
		c-0.861-5.663,2.266-9.607,4.907-12.714c-7.45,1.302-14.241,7.549-13.136,14.819l0.127,0.835
		c3.896,25.641,63.779,53.571,90.449,49.52L176.277,228.348z"/>
		<path d="M493.908,124.518c4.54,29.882,0.976,46.566-11.86,63.996c-6.652,9.034-11.035,14.152-20.816,21.04
		c-3.467,2.442-27.256,15.529-27.271,15.546c11.624-1.766,30.815-10.108,39.11-14.993c15.494-9.125,16.365-11.092,24.965-24.664
		c1.129,16.643-23.228,40.677-34.6,50.226c-7.752,6.511-17.414,12.912-26.536,18.313c-3.972,2.352-27.548,14.817-28.598,16.053
		c25.265-3.839,63.302-20.624,77.622-32.653C517.214,211.098,529.703,154.942,493.908,124.518z"/>
		<path d="M363.868,287.043c-21.359,3.246-84.262,1.448-94.836-5.252c3.561-0.461,19.674-0.02,25.148,0.112
		c6.814,0.165,20.02-1.846,27.42-2.971l14.205-2.158c33.484-5.088,99.123-21.738,108.289-41.246l-35.938,10.471
		c-17.424,4.025-72.438,0.841-86.357-1.61c-14.594-2.569-66.238-10.748-73.101-17.641c6.3-0.814,27.03,1.463,35.937,1.59
		c11.604,0.164,24.03,1.087,36.286,1.113c22.788,0.051,50.96,0.807,75.638-2.943c-0.119-0.788-69.076-4.152-83.453-5.682
		c-0.6-0.062-1.117-0.123-1.547-0.187c-0.158-0.022-0.303-0.046-0.428-0.067c-27.089-4.726-50.158-10.328-74.734-18.444
		c-21.96-7.252-47.49-19.062-65.711-31.709c-13.347-9.265-51.651-23.137-73.753-19.778l-15.041,2.285
		c-19.523,2.967-35.137,38.814-32.491,56.23c5.553,36.545,87.618,65.6,119.154,73.027c22.723,5.353,50.356,13.688,74.83,15.291
		c39.151,2.565,131.951,10.672,162.844-18.577l-18.881,4.919L363.868,287.043z M304.73,252.453
		c18.356,2.195,32.955,2.504,53.168,3.385c19.26,0.838,38.263-3.622,58.347-6.674c-4.034,4.746-40.93,13.913-52.336,15.646
		l-18.383,2.794c-29.799,4.527-56.121,4.716-82.172,3.754c-12.561-0.464-60.703-9.01-69.719-13.161
		c23.121-1.569,45.625,3.326,69.207-0.257c-17.405-3.599-35.279-12.594-53.543-26.061c3.653,0.287,18.665,4.983,23.487,6.404
		c7.704,2.269,15.424,3.668,23.372,5.551C270.666,247.27,289.753,250.662,304.73,252.453z M310.005,225.126
		c-11.083,1.433-37.826-1.313-49.436-2.405c-7.688-0.723-15.721-1.694-23.086-2.914c-6.348-1.052-19.676-3.809-25.442-4.251
		c-0.042-8.409-0.422-8.632-3.388-16.063c17.02,7.997,28.548,11.319,48.33,16.005C265.505,217.517,306.586,223.448,310.005,225.126z
		 M212.996,225.073L212.996,225.073L212.996,225.073L212.996,225.073z M57.176,209.685l-0.889-5.85
		c-0.934-6.146,6.822-19.766,9.185-25.149c0.221-0.503,0.443-1.008,0.668-1.514c0.226-0.506,0.455-1.013,0.689-1.518
		c3.278-7.072,7.569-13.896,17.877-15.462l14.205-2.159c0.461-0.07,0.931-0.131,1.409-0.185c1.434-0.161,2.942-0.247,4.516-0.264
		c10.388-0.111,23.594,2.831,36.761,7.714c8.101,3.004,16.187,6.741,23.593,10.959c10.33,5.882,19.336,12.693,25.213,19.732
		c0.321,0.384,0.629,0.77,0.931,1.154c0.999,1.276,1.896,2.559,2.673,3.844c1.772,2.927,2.941,5.864,3.382,8.764l0.762,5.014
		c0.73,4.807-7.904,21.932-10.139,26.674c-4.104,8.707-8.941,16.405-21.496,18.313l-5.849,0.888
		C128.334,265.554,61.409,237.544,57.176,209.685z M164.824,271.123c6.234-0.947,18.676-4.264,22.18-5.162
		c46.52,14.496,88.36,28.934,171.245,25.927C275.688,303.818,193.871,286.562,164.824,271.123z"/>
	</g>
</svg>
