<?xml version="1.0" encoding="utf-8"?>
<!-- Generator: Adobe Illustrator 16.0.0, SVG Export Plug-In . SVG Version: 6.00 Build 0)  -->
<!DOCTYPE svg PUBLIC "-//W3C//DTD SVG 1.1 Basic//EN" "http://www.w3.org/Graphics/SVG/1.1/DTD/svg11-basic.dtd">
<svg version="1.1" baseProfile="basic" id="Layer_1" xmlns="http://www.w3.org/2000/svg"
	xmlns:xlink="http://www.w3.org/1999/xlink" viewBox="0 0 383.721 88.219" xml:space="preserve">
	<g>
		<g>
			<path fill="#B6BABE" d="M18.425,88.219c-2.75,0-4.309-2.142-3.464-4.758L30.684,34.76c0.845-2.617-0.714-4.758-3.464-4.758H5
			c-2.75,0-4.298-2.138-3.44-4.75l4.813-14.665c0.858-2.613,3.81-4.75,6.56-4.75h84.586c2.75,0,4.298,2.138,3.441,4.75
			l-4.813,14.665c-0.857,2.613-3.809,4.75-6.559,4.75H67.364c-2.75,0-5.691,2.141-6.536,4.758L45.106,83.461
			c-0.845,2.616-3.786,4.758-6.536,4.758H18.425z" />
			<path fill="#B6BABE" d="M118.145,88.219c-20.87,0-30.512-6.713-30.512-21.604c0-13.425,6.346-31,14.889-42.229
			c9.521-12.693,23.067-18.551,42.352-18.551h24.653c20.87,0,30.391,6.713,30.391,21.603c0,11.594-4.394,24.044-10.375,35.149
			c-9.642,17.576-24.164,25.631-46.744,25.631H118.145z M140.357,64.786c12.205,0,19.039-4.882,23.434-13.182
			c2.44-4.639,5.004-10.74,5.004-16.11c0-4.882-3.905-6.104-14.524-6.104h-8.056c-10.129,0-16.354,3.662-20.626,10.009
			c-3.417,5.248-6.713,13.06-6.713,19.526c0,4.761,3.662,5.859,13.426,5.859H140.357z" />
			<path fill="#B6BABE" d="M258.256,88.219c-2.75,0-4.312-2.143-3.471-4.761l6.704-20.869c0.841-2.618-0.721-4.761-3.471-4.761
			h-22.465c-2.75,0-5.688,2.143-6.529,4.761l-6.705,20.869c-0.841,2.618-3.779,4.761-6.529,4.761h-20.146
			c-2.75,0-4.306-2.141-3.457-4.756l23.643-72.872c0.849-2.616,3.793-4.756,6.543-4.756h20.146c2.75,0,4.306,2.14,3.457,4.756
			l-5.944,18.316c-0.849,2.616,0.707,4.756,3.457,4.756h22.465c2.75,0,5.694-2.14,6.543-4.756l5.944-18.316
			c0.849-2.616,3.793-4.756,6.543-4.756h20.27c2.75,0,4.306,2.14,3.457,4.756l-23.644,72.872c-0.849,2.615-3.793,4.756-6.543,4.756
			H258.256z" />
			<path fill="#B6BABE" d="M297.923,88.219c-2.75,0-4.306-2.141-3.457-4.756l23.645-72.872c0.849-2.616,3.793-4.756,6.543-4.756
			h20.022c2.75,0,4.303,2.139,3.449,4.753l-15.449,47.367c-0.854,2.615,0.699,4.754,3.449,4.754h40.65
			c2.75,0,4.313,2.143,3.474,4.762l-5.125,15.985c-0.84,2.619-3.776,4.762-6.526,4.762H297.923z" />
		</g>
		<g>
			<path fill="#FFFFFF" d="M20.37,82.383c-2.75,0-4.309-2.142-3.464-4.758l15.722-48.701c0.845-2.617-0.714-4.758-3.464-4.758H6.944
			c-2.75,0-4.298-2.138-3.44-4.75L8.318,4.75C9.176,2.138,12.128,0,14.878,0h84.586c2.75,0,4.298,2.138,3.441,4.75l-4.813,14.665
			c-0.857,2.613-3.809,4.75-6.559,4.75H69.31c-2.75,0-5.691,2.141-6.536,4.758L47.052,77.625c-0.845,2.616-3.786,4.758-6.536,4.758
			H20.37z" />
			<path fill="#FFFFFF" d="M120.089,82.383c-20.87,0-30.512-6.713-30.512-21.604c0-13.425,6.347-31,14.89-42.229
			C113.988,5.858,127.533,0,146.817,0h24.654c20.87,0,30.391,6.714,30.391,21.603c0,11.594-4.395,24.044-10.375,35.149
			c-9.642,17.576-24.164,25.631-46.744,25.631H120.089z M142.303,58.95c12.204,0,19.039-4.882,23.433-13.182
			c2.44-4.638,5.004-10.74,5.004-16.11c0-4.882-3.905-6.103-14.523-6.103h-8.057c-10.128,0-16.354,3.662-20.626,10.009
			c-3.417,5.248-6.712,13.06-6.712,19.527c0,4.761,3.662,5.858,13.426,5.858H142.303z" />
			<path fill="#FFFFFF" d="M260.201,82.383c-2.75,0-4.312-2.143-3.471-4.761l6.704-20.869c0.841-2.618-0.721-4.761-3.471-4.761
			h-22.465c-2.75,0-5.688,2.143-6.529,4.761l-6.706,20.869c-0.841,2.618-3.779,4.761-6.529,4.761H197.59
			c-2.75,0-4.306-2.141-3.457-4.756l23.643-72.872C218.624,2.14,221.568,0,224.318,0h20.146c2.75,0,4.306,2.14,3.457,4.756
			l-5.944,18.316c-0.849,2.616,0.707,4.756,3.457,4.756h22.464c2.75,0,5.694-2.14,6.543-4.756l5.944-18.316
			C281.233,2.14,284.178,0,286.928,0h20.27c2.75,0,4.306,2.14,3.457,4.756l-23.643,72.872c-0.849,2.615-3.793,4.756-6.543,4.756
			H260.201z" />
			<path fill="#FFFFFF" d="M299.868,82.383c-2.75,0-4.306-2.141-3.457-4.756l23.644-72.872C320.903,2.14,323.848,0,326.598,0h20.022
			c2.75,0,4.303,2.139,3.449,4.753l-15.448,47.367c-0.854,2.615,0.699,4.754,3.449,4.754h40.65c2.75,0,4.313,2.143,3.474,4.762
			l-5.126,15.985c-0.84,2.619-3.776,4.762-6.526,4.762H299.868z" />
		</g>
	</g>
</svg>
