<svg version="1.1" baseProfile="basic" id="Layer_1" xmlns="http://www.w3.org/2000/svg"
	xmlns:xlink="http://www.w3.org/1999/xlink" x="0px" y="0px" viewBox="-170.792 579.857 800 800" xml:space="preserve">
	<g>
		<g>
			<path id="path58241_3_" d="M225.481,732.445c-19.258-0.015-38.021,1.994-56.229,5.672l-0.027,43.484
			c-24.391,5.879-47.24,15.323-68.05,28.069L70.411,778.9c-15.75,10.437-30.164,22.681-43.527,35.99
			C13.592,828.2,1.283,842.597-9.13,858.355l30.694,30.771C8.83,909.97-0.674,932.768-6.593,957.184l-43.432-0.026
			c-3.737,18.161-5.79,36.969-5.799,56.219c-0.018,19.247,2.011,38.058,5.723,56.229l43.435,0.025
			c5.888,24.429,15.36,47.246,28.069,68.109l-30.737,30.73c10.391,15.763,22.683,30.177,35.957,43.506
			c13.348,13.321,27.744,25.594,43.479,36.046l30.803-30.73c20.796,12.778,43.63,22.244,68.012,28.159l112.448,0.077
			c24.464-5.88,47.244-15.317,68.124-28.063l30.763,30.763c15.744-10.434,30.162-22.68,43.455-35.992
			c13.362-13.306,25.601-27.704,36.085-43.454l-30.769-30.771c12.81-20.852,22.239-43.652,28.16-68.071l43.505,0.035
			c3.737-18.167,5.714-36.972,5.727-56.222c0.011-19.25-1.939-38.064-5.652-56.231l-43.504-0.029
			c-5.886-24.421-15.286-47.233-28.069-68.093l30.803-30.729c-10.461-15.773-22.677-30.188-36.022-43.515
			c-13.274-13.33-27.677-25.59-43.406-36.046l-30.807,30.729c-20.862-12.772-43.627-22.247-68.082-28.159l0.031-43.485
			C263.573,734.488,244.74,732.455,225.481,732.445z" />
		</g>
		<path fill="#808285" d="M554.002,1273.939h-699.794v-148.611l614.539,0.003c7.991,0.135,15.313,1.572,21.787,4.269
		c7.076-2.831,15.022-4.227,24.267-4.271h84.596v57.621l0.226,0.458c2.891,5.973,4.426,12.339,4.578,18.93l0.008,25.645
		l-0.029,0.725c-0.216,5.351-1.516,10.657-3.976,16.214c-2.241,5.075-5.282,9.668-9.032,13.661l-1.102,1.124
		c-4.681,4.557-10.416,8.147-17.043,10.667c-5.963,2.277-12.242,3.472-18.653,3.567H554.002z M-142.758,1270.904H553.99l0.347-0.007
		c6.051-0.086,11.979-1.22,17.608-3.362c6.239-2.373,11.623-5.742,16.011-10.011l1.002-1.019c3.518-3.747,6.369-8.058,8.472-12.816
		c2.298-5.2,3.519-10.142,3.719-15.105l0.025-0.663l-0.01-25.549c-0.135-6.116-1.572-12.066-4.278-17.646l-0.522-1.069v-55.297
		h-81.551c-9.091,0.052-16.849,1.451-23.705,4.292l-0.596,0.243l-0.587-0.25c-6.255-2.706-13.387-4.144-21.204-4.275l-611.479-0.01
		V1270.904z" />
		<path id="path58241_1_" fill="#0F352E" stroke="#808285" stroke-width="3.036" stroke-miterlimit="10" d="M225.372,750.661h0.099
		c12.614,0.006,25.344,0.952,38.003,2.816l-0.019,28.185c-0.005,8.418,5.753,15.745,13.934,17.719
		c22.375,5.409,43.521,14.151,62.854,25.988c2.945,1.803,6.236,2.68,9.508,2.68c4.701,0,9.357-1.816,12.869-5.318l19.907-19.86
		c9.647,7.352,19.213,15.773,28.571,25.17c9.491,9.482,17.794,18.926,25.131,28.604l-19.903,19.855
		c-5.973,5.951-7.072,15.225-2.669,22.412c11.754,19.185,20.463,40.331,25.895,62.85c1.967,8.176,9.282,13.938,17.691,13.946
		l28.216,0.016c1.831,12.566,2.751,25.297,2.741,38.01c-0.008,12.717-0.945,25.453-2.795,38.01l-28.208-0.016
		c-0.005,0-0.008,0-0.015,0c-8.406,0-15.721,5.751-17.701,13.921c-5.464,22.513-14.199,43.652-25.979,62.825
		c-4.408,7.187-3.318,16.454,2.639,22.414l19.877,19.884c-7.351,9.661-15.673,19.1-25.199,28.588
		c-9.354,9.367-18.919,17.771-28.571,25.104l-19.877-19.885c-3.515-3.51-8.181-5.338-12.89-5.338c-3.259,0-6.546,0.877-9.484,2.674
		c-18.742,11.442-39.196,19.98-60.823,25.396l-108.03-0.074c-21.693-5.479-42.107-14.036-60.704-25.466
		c-2.948-1.813-6.251-2.692-9.529-2.692c-4.703,0-9.359,1.815-12.874,5.318l-19.914,19.868
		c-9.598-7.295-19.043-15.608-28.595-25.146c-9.593-9.633-17.895-19.09-25.122-28.623l19.875-19.874
		c5.944-5.938,7.05-15.177,2.677-22.356c-11.814-19.394-20.532-40.556-25.919-62.899c-1.971-8.179-9.287-13.943-17.695-13.946
		l-28.159-0.022c-1.865-12.682-2.805-25.411-2.797-38.01c0.006-12.595,0.961-25.328,2.847-38.01l28.157,0.022
		c0.003,0,0.008,0,0.011,0c8.406,0,15.721-5.755,17.703-13.924c5.417-22.337,14.164-43.484,26-62.857
		c4.382-7.17,3.287-16.409-2.648-22.361l-19.847-19.894c7.239-9.531,15.543-18.97,25.128-28.565
		c9.583-9.545,19.046-17.852,28.66-25.141l19.889,19.894c3.517,3.513,8.179,5.335,12.888,5.335c3.273,0,6.565-0.882,9.506-2.682
		c19.218-11.768,40.349-20.483,62.806-25.894c8.178-1.97,13.94-9.285,13.947-17.696l0.022-28.182
		c12.638-1.845,25.312-2.773,37.829-2.773h0.085 M225.288,732.445c-19.189,0-37.89,2.003-56.036,5.672l-0.027,43.484
		c-24.391,5.879-47.24,15.323-68.05,28.069L70.411,778.9c-15.75,10.437-30.164,22.681-43.527,35.99
		C13.592,828.2,1.283,842.597-9.13,858.355l30.694,30.771C8.83,909.97-0.674,932.768-6.593,957.184l-43.432-0.026
		c-3.737,18.161-5.79,36.969-5.799,56.219c-0.018,19.247,2.011,38.058,5.723,56.229l43.435,0.025
		c5.888,24.429,15.36,47.246,28.069,68.109l-30.737,30.73c10.391,15.763,22.683,30.177,35.957,43.506
		c13.348,13.321,27.744,25.594,43.479,36.046l30.803-30.73c20.796,12.778,43.63,22.244,68.012,28.159l112.448,0.077
		c24.464-5.88,47.244-15.317,68.124-28.063l30.763,30.763c15.744-10.434,30.162-22.68,43.455-35.992
		c13.362-13.306,25.601-27.704,36.085-43.454l-30.769-30.771c12.81-20.852,22.239-43.652,28.16-68.071l43.505,0.035
		c3.737-18.167,5.714-36.972,5.727-56.222c0.011-19.25-1.939-38.064-5.652-56.231l-43.504-0.029
		c-5.886-24.421-15.286-47.233-28.069-68.093l30.803-30.729c-10.461-15.773-22.677-30.188-36.022-43.515
		c-13.274-13.33-27.677-25.59-43.406-36.046l-30.807,30.729c-20.862-12.772-43.627-22.247-68.082-28.159l0.031-43.485
		c-18.13-3.704-36.962-5.735-56.222-5.747C225.415,732.445,225.349,732.445,225.288,732.445L225.288,732.445z" />
		<g>
			<path fill="#0F352E"
				d="M106.605,1176.002c-7.475,0-12.129-2.654-16.071-9.168c-19.202-31.698-29.062-66.166-29.306-102.443
			c0.355-28.261,6.122-55.706,17.138-81.601c3.235-7.593,7.888-11.903,15.559-14.411c12.968-4.237,26.076-8.813,38.753-13.24
			c11.94-4.17,24.286-8.481,36.506-12.506c6.716-2.214,8.715-5.077,7.923-11.351c-0.527-4.146-0.394-8.385-0.266-12.485
			c0.054-1.708,0.107-3.415,0.115-5.117c0.027-8.431-0.365-14.935-5.7-21.863c-9.182-11.931-7.387-28.644,4.361-40.644
			c1.361-1.393,1.339-2.706,1.307-4.523c-0.006-0.376-0.011-0.754-0.006-1.135c0.026-1.56,0.07-3.126,0.119-4.688
			c0.141-4.751,0.287-9.662-0.216-14.368c-0.874-8.174,2.173-13.934,9.878-18.668c10.698-6.571,21.309-9.905,31.541-9.905
			c7.723,0,15.455,1.89,22.985,5.615c2.859,1.416,5.817,1.704,8.947,2.01c2.213,0.218,4.501,0.441,6.776,1.092
			c10.904,3.129,14.597,7.891,14.634,18.87l0.013,3.266c0.015,3.508,0.032,7.013-0.025,10.52c-0.109,6.741,0.201,11.15,5.444,15.525
			c3.18,2.651,5.225,7.518,5.758,13.7c0.826,9.578-2.017,20.019-7.073,25.978c-3.599,4.257-4.273,8.285-4.181,13.023l0.053,2.371
			c0.167,7.399,0.34,15.05-0.341,22.54c-0.509,5.651,1.194,7.979,7.287,9.958c14.632,4.748,29.445,9.752,43.771,14.591
			c11.774,3.978,23.944,8.089,35.948,12.034c6.371,2.098,10.396,5.822,13.052,12.08c27.573,64.968,23.49,127.956-12.133,187.214
			c-3.23,5.384-7.318,7.683-13.671,7.683h-0.296c-40.055-0.448-78.483-11.881-114.223-33.978c-2.341-1.447-4.045-2.063-5.696-2.063
			c-1.609,0-3.305,0.602-5.494,1.957c-34.979,21.671-72.78,33.147-112.351,34.121C107.148,1176,106.874,1176.002,106.605,1176.002z" />
			<path fill="#939598" d="M218.237,799.403c7.322,0,14.759,1.72,22.31,5.459c5.256,2.599,10.734,1.697,15.98,3.2
			c10.139,2.908,13.498,6.943,13.533,17.415c0.012,4.586,0.062,9.172-0.014,13.756c-0.103,6.32-0.021,11.7,5.991,16.717
			c7.902,6.593,6.751,27.804-1.5,37.531c-3.774,4.461-4.647,8.731-4.541,14.036c0.174,8.246,0.463,16.554-0.282,24.742
			c-0.615,6.852,2.18,9.54,8.331,11.541c26.645,8.644,53.1,17.873,79.714,26.622c5.988,1.973,9.646,5.387,12.127,11.231
			c27.163,64.007,23.98,125.929-12.039,185.84c-2.999,5.002-6.661,6.946-12.368,6.946c-0.093,0-0.184,0-0.28-0.003
			c-41.052-0.458-78.717-12.278-113.439-33.748c-2.441-1.508-4.455-2.289-6.493-2.289c-1.944,0-3.91,0.711-6.292,2.184
			c-34.145,21.152-71.209,32.902-111.589,33.895c-0.266,0.007-0.525,0.01-0.783,0.01c-6.839,0-11.087-2.344-14.773-8.438
			c-18.965-31.304-28.84-65.066-29.086-101.667c0.354-28.124,5.994-55.086,17.016-80.993c2.951-6.932,7.208-11.137,14.634-13.563
			c25.202-8.233,50.078-17.456,75.264-25.749c6.957-2.291,9.896-5.533,8.952-12.98c-0.727-5.717-0.162-11.598-0.139-17.407
			c0.025-8.12-0.255-15.315-6.014-22.797c-9.118-11.847-6.405-27.777,4.243-38.656c2.143-2.19,1.697-4.388,1.732-6.696
			c0.104-6.418,0.573-12.896-0.105-19.24c-0.87-8.128,2.555-13.152,9.164-17.215C197.522,802.919,207.763,799.403,218.237,799.403
			 M218.237,796.369c-10.517,0-21.396,3.409-32.333,10.128c-8.16,5.015-11.526,11.408-10.594,20.124
			c0.493,4.602,0.354,9.244,0.208,14.159c-0.046,1.572-0.094,3.144-0.119,4.711c-0.006,0.398,0,0.793,0.006,1.187
			c0.034,1.857-0.001,2.543-0.875,3.437c-12.291,12.555-14.132,30.087-4.477,42.631c5.041,6.546,5.411,12.807,5.385,20.936
			c-0.006,1.67-0.061,3.401-0.114,5.073c-0.131,4.159-0.266,8.459,0.277,12.725c0.701,5.543-0.844,7.724-6.892,9.716
			c-12.233,4.028-24.586,8.343-36.531,12.514c-12.669,4.424-25.769,9-38.723,13.23c-8.022,2.623-13.105,7.329-16.484,15.26
			c-11.093,26.077-16.901,53.718-17.258,82.146c0.245,36.617,10.179,71.348,29.525,103.278c4.198,6.94,9.393,9.902,17.37,9.902
			c0.282,0,0.567-0.003,0.858-0.013c39.845-0.977,77.901-12.534,113.112-34.347c1.936-1.197,3.383-1.732,4.695-1.732
			c1.331,0,2.84,0.57,4.897,1.839c35.975,22.244,74.668,33.75,115.003,34.201h0.313c6.861,0,11.479-2.594,14.972-8.419
			c18.063-30.042,28.202-61.253,30.14-92.758c1.909-31.087-4.116-63.328-17.911-95.83c-2.841-6.693-7.149-10.68-13.973-12.925
			c-11.996-3.945-24.167-8.058-35.938-12.033c-14.328-4.841-29.147-9.846-43.789-14.596c-5.399-1.756-6.682-3.48-6.244-8.382
			c0.688-7.572,0.514-15.268,0.347-22.71l-0.053-2.368c-0.091-4.518,0.518-8.104,3.824-12.011c5.297-6.245,8.279-17.133,7.422-27.09
			c-0.567-6.587-2.803-11.82-6.295-14.732c-4.821-4.022-5.005-8.067-4.901-14.336c0.057-3.525,0.04-7.097,0.025-10.549l-0.013-3.263
			c-0.035-11.686-4.153-17.005-15.731-20.326c-2.407-0.69-4.767-0.921-7.049-1.144c-2.987-0.291-5.811-0.568-8.426-1.86
			C234.155,798.309,226.197,796.369,218.237,796.369L218.237,796.369z" />
		</g>
		<path fill="#808285" d="M202.633,1039.723c0.064,3.593-0.037,3.785-2.873,2.283c-9.452-5.002-18.829-10.151-28.232-15.247
		c-14.715-7.971-29.43-15.951-45.934-24.889c5.34,17.168,10.099,32.505,14.887,47.835c1.638,5.239,2.888,10.673,5.141,15.646
		c2.981,6.581,1.011,8.881-5.772,10.241c-14.888,2.985-27.925,10.331-40.256,18.969c-0.184-1.191-0.133-2.492-0.581-3.581
		c-13.068-31.922-10.621-63.895-0.565-95.974c1.387-4.422,3.382-7.27,8.096-8.794c13.072-4.227,26.05-8.787,38.889-13.671
		c4.951-1.881,7.808-0.776,10.695,3.417c7.969,11.58,16.015,23.122,24.511,34.314c6.546,8.617,11.36,18.593,19.874,25.68
		l-0.15-0.147C200.1,1037.703,201.078,1038.877,202.633,1039.723z" />
		<path fill="#808285"
			d="M218.605,897.018c-0.104,2.563,1.517,3.697,3.614,4.574c2.709,1.131,6.304,1.602,6.126,5.649
		c-0.205,4.906-4.909,3.505-7.558,5.01c-2.003,1.136-4.973,0.22-6.261,2.9c0.299,0.468,0.538,1.239,0.854,1.27
		c3.889,0.376,10.291-0.623,11.213,1.193c2.477,4.864,4.666,10.132,6.47,15.396c1.243,3.615-0.316,7.314-3.396,9.786
		c-3.754,3.021-8.389,2.84-12.043,0.636c-6.666-4.035-14.025-7.202-19.308-13.283c0.05-18.567,0.103-37.136,0.155-55.703
		c3.668,2.563,7.172,3.007,11.436,0.698c3.832-2.082,8.3-2.998,12.483-4.426C221.129,879.486,219.867,888.253,218.605,897.018z" />
		<path fill="#808285" d="M198.503,940.493c8.382,2.762,14.313,10.494,23.592,11.558c2.367,0.272,2.061,2.681,2.066,4.451
		c0.029,14.244,0.016,28.492,0.016,45.356c-9.364-11.683-19.134-19.795-25.874-30.632
		C198.369,960.985,198.434,950.737,198.503,940.493z" />
		<g>
			<path fill="#FFFFFF" d="M321.039,1017.239c-12.22,1.256-23.659,5.851-35.595,8.313c-4.389,0.903-5.699,4.566-6.661,7.997
			c-4.479,15.979-15.343,26.118-28.871,34.935c-18.939,12.336-36.959,26.071-55.418,39.15c-2.372,1.678-4.368,4.054-8.139,2.639
			c-34.093-12.807-66.988-11.507-98.142,8.8c-2.531-1.284-0.583-2.078,0.282-3.112c25.072-30.004,58.076-39.762,95.652-36.585
			c8.339,0.705,15.212-0.361,22.408-4.538c15.247-8.864,30.762-17.299,46.5-25.251c5.495-2.779,9.052-6.257,9.246-12.163
			c0.569-17.523,8.655-26.705,26.856-27.256c6.131-0.188,12.188-3.608,18.238-5.665
			C317.762,1000.99,322.073,1004.98,321.039,1017.239z" />
			<path fill="#FFFFFF" d="M200.51,1035.954c-8.512-7.087-13.327-17.063-19.874-25.68c-8.496-11.192-16.542-22.734-24.512-34.314
			c-2.887-4.193-5.744-5.3-10.694-3.417c-12.84,4.884-25.816,9.444-38.889,13.671c-4.714,1.528-6.709,4.372-8.096,8.794
			c-10.056,32.079-12.502,64.052,0.565,95.974c0.447,1.089,0.396,2.39,0.58,3.581c-8.062,6.097-14.462,13.824-21.376,22.769
			c-6.736-21.856-9.255-43.037-7.686-64.605c1.67-22.936,6.813-45.122,16.068-66.297c2.088-4.771,4.864-7.702,10.084-9.428
			c21.088-6.972,41.98-14.529,62.974-21.796c2.854-0.983,5.859-3.723,8.022,1.65C178.347,983.332,190.929,1009.021,200.51,1035.954z
			" />
			<path fill="#FFFFFF" d="M198.471,874.446c-0.055,18.564-0.106,37.132-0.155,55.701c-8.688-3.031-12.238-9.778-12.421-18.332
			c-0.288-13.43-0.303-26.875-0.013-40.306c0.293-13.698,9.957-23.999,21.671-23.721c11.394,0.272,20.276,10.432,20.598,23.701
			c0.126,5.191-0.524,10.456,0.147,15.559c1.047,7.905-1.574,11.39-9.697,9.972c1.265-8.766,2.525-17.534,3.789-26.304
			c0.562-1.354,1.609-3.39-0.757-3.45c-9.522-0.245-19.051-0.103-28.582-0.103c-0.322,0.797-0.646,1.595-0.969,2.391
			C194.212,871.182,196.342,872.814,198.471,874.446z" />
			<path fill="#FFFFFF" d="M198.503,940.493c-0.069,10.244-0.136,20.492-0.202,30.733c-15.388-9.14-12.971-23.795-12.033-39.385
			C190.848,935.078,194.673,937.784,198.503,940.493z" />
			<path fill="#FFFFFF" d="M202.633,1039.723c-1.553-0.846-2.533-2.021-2.274-3.917
			C202.49,1036.319,201.948,1038.378,202.633,1039.723z" />
		</g>
		<g>
			<g>
				<g>
					<path fill="#808285" d="M284.654,1006.415c-15.447-100.86-24.356-159.947-26.48-175.618
					c-3.296-24.672-1.784-40.658,15.608-59.556c13.37-14.557,73.126-79.683,77.087-84.038c0.403-0.442,0.983-0.668,1.719-0.668
					c6.599,0,30.41,20.639,34.428,29.844c0.781,1.785,0.774,3.124-0.021,3.98c-1.631,1.789-9.536,10.208-19.546,20.865
					c-18.324,19.513-43.419,46.237-56.194,60.123c-20.649,22.564-28.917,33.535-27.468,51.44
					c0.497,5.883,7.257,56.427,20.093,150.229l0.104,0.781l-0.783,0.077c-1.307,0.131-2.626,0.557-3.918,1.274l-0.107,0.058
					l-0.121,0.022c-1.294,0.24-2.558,0.618-3.864,1.156c-0.854,0.191-1.564,0.371-2.264,0.586l-0.102,0.031
					c0,0-0.909,0.014-1.31,0.014c-0.586,0-1.174-0.007-1.756-0.02c-0.267-0.022-0.378-0.029-0.485-0.045
					c-0.215-0.025-0.445-0.042-0.673-0.042c-0.273,0-0.543,0.022-0.812,0.058c0,0-0.933-0.006-0.936-0.006
					c-0.521,0-0.932,0.035-1.335,0.093l-0.745,0.108L284.654,1006.415z" />
					<path fill="#0F352E" d="M352.585,687.292c7.292,0,38.1,27.964,33.852,32.55c-4.51,4.944-55.723,59.229-75.744,80.99
					c-19.954,21.808-29.173,33.358-27.664,52.016c0.574,6.801,9.274,71.19,20.097,150.268c-1.439,0.145-2.864,0.622-4.21,1.364
					c-1.369,0.25-2.68,0.65-4.016,1.201c-0.743,0.157-1.475,0.34-2.197,0.563c-0.395,0.007-0.791,0.01-1.188,0.01
					c-0.581,0-1.159-0.006-1.74-0.022c-0.132-0.01-0.263-0.016-0.388-0.032c-0.266-0.035-0.527-0.051-0.786-0.051
					c-0.308,0-0.61,0.025-0.911,0.064c-0.274-0.007-0.55-0.014-0.828-0.014c-0.028,0-0.056,0-0.085,0
					c-0.48,0-0.929,0.036-1.37,0.103c-12.943-84.502-24.014-157.405-26.479-175.606c-3.482-26.089-1.102-40.991,15.413-58.939
					c12.853-13.994,73.046-79.597,77.091-84.041C351.689,687.425,352.08,687.292,352.585,687.292 M352.585,685.774
					c-1.194,0-1.897,0.5-2.278,0.916c-3.968,4.362-63.718,69.483-77.086,84.038c-17.596,19.119-19.127,35.263-15.803,60.166
					c2.127,15.681,11.036,74.772,26.484,175.636l0.229,1.489l1.488-0.218c0.408-0.058,0.786-0.087,1.154-0.087h0.008h0.077
					c0.188,0,0.374,0.004,0.563,0.007l0.237,0.007h0.113l0.113-0.014c0.245-0.035,0.48-0.051,0.711-0.051
					c0.197,0,0.395,0.016,0.596,0.038c0.092,0.013,0.222,0.026,0.354,0.032l0.096,0.01l0.048,0.003l0.047,0.004
					c0.589,0.013,1.184,0.019,1.774,0.019c0.406,0,0.812-0.003,1.217-0.01l0.213-0.006l0.203-0.061
					c0.653-0.202,1.347-0.378,2.063-0.529l0.14-0.028l0.129-0.055c1.258-0.519,2.471-0.881,3.71-1.111l0.245-0.045l0.217-0.118
					c1.199-0.666,2.421-1.06,3.623-1.182l1.569-0.153l-0.215-1.563c-12.833-93.788-19.591-144.32-20.085-150.19
					c-1.424-17.603,6.781-28.472,27.27-50.864c12.771-13.88,37.864-40.601,56.186-60.111c10.013-10.662,17.922-19.083,19.561-20.882
					c1.01-1.089,1.064-2.704,0.153-4.79C383.972,707.514,359.883,685.774,352.585,685.774L352.585,685.774z" />
				</g>
			</g>
		</g>
		<g>
			<path fill="#0F352E" d="M-144.275,1272.424v-145.579l613.022,0.003c8.049,0.142,15.331,1.614,21.773,4.397
			c7.024-2.904,15.056-4.355,24.288-4.4h83.071v56.453c0.128,0.256,0.25,0.512,0.373,0.765c2.791,5.771,4.286,11.938,4.431,18.309
			l0.005,25.609l-0.025,0.663c-0.208,5.153-1.469,10.28-3.845,15.666c-2.176,4.913-5.122,9.364-8.756,13.233l-0.507,0.544
			l-0.542,0.525c-4.532,4.409-10.094,7.891-16.524,10.341c-5.8,2.209-11.906,3.375-18.135,3.462l-0.367,0.009H-144.275
			L-144.275,1272.424z" />
		</g>
		<path fill="#808285" d="M281.757,1109.937c-0.197-7.949,2.681-14.703,8.328-20.153c3.155-3.049,4.747-6.046,5.818-10.725
		c1.464-6.386,9.898-3.68,14.924-6.053c3.697-1.752,4.273,1.69,4.496,3.955c0.483,4.977,4.564,5.271,7.826,6.834
		c19.002,9.117,23.348,33.439,8.559,47.741c-1.55,1.496-3.05,3.914-5.308,3.292c-2.283-0.634-2.22-3.445-2.603-5.546
		c-1.204-6.744-2.642-13.47-3.505-20.259c-0.872-6.886-5.298-4.986-8.917-3.677c-3.842,1.396-11.492-1.956-9.971,7.059
		c1.096,6.456,2.423,12.87,3.396,19.343c0.349,2.318,1.758,5.438-0.775,6.901c-2.233,1.29-4.743-0.73-6.922-1.845
		C287.065,1131.662,281.552,1121.952,281.757,1109.937z" />
		<path fill="#808285" d="M323.28,1013.562c-7.497,9.649-1.685,19.923-0.872,29.719c1.538,18.6,1.868,18.927-16.677,23.567
		c-0.906,0.224-1.853,0.771-2.715,0.656c-18.072-2.328-26.185,10.764-36.32,22.112c-42.246,47.304-94.755,74.099-158.694,77.278
		c-7.01,0.346-11.875-1.073-14.895-7.978c-3.616-8.269-7.657-16.396-12.108-24.249c-4.098-7.221-3.281-12.672,4.014-16.89
		c31.883-20.777,65.545-22.112,100.435-9.008c3.859,1.45,5.902-0.983,8.33-2.696c18.888-13.387,37.329-27.438,56.715-40.069
		c13.84-9.024,24.962-19.396,29.548-35.752c0.982-3.507,2.323-7.253,6.813-8.179C299.065,1019.551,310.771,1014.85,323.28,1013.562z
		" />
		<path
			d="M-28.256,1143.382h-23.98h-75.5v112.499h75.5h23.669H4.529h4.053h49.697h62.973h34.82h22.99h64.168h23.357h52.146H342.4
		h52.043h23.454h59.47h24.612h52.019h0.12c4.291-0.064,8.498-0.865,12.497-2.39c4.308-1.64,7.967-3.906,10.877-6.741l0.271-0.263
		l0.253-0.271c2.355-2.501,4.262-5.396,5.681-8.596c1.526-3.452,2.323-6.604,2.442-9.643l0.013-0.33v-24.908
		c-0.09-3.987-1.033-7.858-2.786-11.5c-0.615-1.262-1.292-2.466-2.02-3.596v-44.262h-66.448c-10.332,0.055-18.381,2.29-24.559,6.783
		c-5.628-4.33-12.953-6.626-21.867-6.783h-50.256l0,0h-75.501h-23.979H266.59h-23.356h-64.169h-22.99h-34.82l0,0H-28.256z" />
		<g>
			<g>
				<polygon fill="#FFFFFF"
					points="-111.196,1239.34 -45.111,1239.34 -45.111,1217.852 -86.571,1217.852 -86.571,1208.549 
				-44.898,1208.549 -44.898,1190.564 -86.465,1190.564 -86.465,1181.361 -44.795,1181.361 -44.795,1159.92 -111.196,1159.92 			" />
				<path fill="#FFFFFF" d="M18.051,1189.042c0.07,2.688,0.288,5.239,0.655,7.661c0.365,2.424,0.582,4.089,0.653,4.999
				c-0.874-2.13-2.302-4.958-4.29-8.5c-1.984-3.538-4.267-7.381-6.848-11.531c-2.58-4.145-5.079-8.147-7.502-11.993
				c-2.424-3.856-4.417-7.104-5.985-9.755h-30.433v79.417h23.687v-41.036c-0.07-1.777-0.287-3.862-0.656-6.254
				c-0.363-2.383-0.581-3.942-0.65-4.676c1.567,3.414,3.692,7.407,6.377,11.978c2.684,4.563,5.561,9.315,8.627,14.244
				c3.068,4.929,6.032,9.646,8.89,14.146c2.857,4.492,5.281,8.361,7.267,11.599h23.895v-79.417H18.051V1189.042z" />
				<path fill="#FFFFFF"
					d="M103.956,1217.75h-28.39v-36.389h51.919v-21.438h-58.14c-6.451,0.176-11.154,2.101-14.118,5.777
				c-2.964,3.676-4.428,8.115-4.391,13.303v40.366c-0.035,5.438,1.411,10.082,4.337,13.938c2.931,3.855,7.548,5.867,13.859,6.033
				h41.253c5.995-0.166,10.511-2.091,13.542-5.774c3.033-3.676,4.549-8.041,4.549-13.098v-28.803H103.96v26.084H103.956z" />
				<rect x="137.788" y="1159.92" fill="#FFFFFF" width="24.731" height="79.42" />
				<path fill="#FFFFFF" d="M226.358,1189.042c0.069,2.688,0.287,5.239,0.652,7.661c0.368,2.424,0.58,4.089,0.653,4.999
				c-0.873-2.13-2.303-4.958-4.287-8.5c-1.987-3.538-4.269-7.381-6.849-11.531c-2.581-4.145-5.082-8.147-7.505-11.993
				c-2.421-3.856-4.417-7.104-5.987-9.755h-30.431v79.417h23.687v-41.036c-0.071-1.777-0.289-3.862-0.653-6.254
				c-0.365-2.383-0.583-3.942-0.65-4.676c1.566,3.414,3.692,7.407,6.376,11.978c2.682,4.563,5.56,9.315,8.627,14.244
				c3.066,4.932,6.03,9.646,8.887,14.146c2.858,4.492,5.283,8.361,7.27,11.599h23.895v-79.417h-23.685V1189.042z" />
				<polygon fill="#FFFFFF"
					points="259.764,1239.34 325.856,1239.34 325.856,1217.852 284.398,1217.852 284.398,1208.549 
				326.064,1208.549 326.064,1190.564 284.498,1190.564 284.498,1181.361 326.166,1181.361 326.166,1159.92 259.764,1159.92 			" />
				<polygon fill="#FFFFFF"
					points="335.265,1239.34 401.357,1239.34 401.357,1217.852 359.898,1217.852 359.898,1208.549 
				401.562,1208.549 401.562,1190.564 359.999,1190.564 359.999,1181.361 401.669,1181.361 401.669,1159.92 335.265,1159.92 			" />
				<path fill="#FFFFFF" d="M468.177,1159.92H410.98v79.42h24.416v-29.484h25.725v29.484h24.312v-28.963
				c-0.037-3.103-0.924-5.492-2.665-7.164c-1.745-1.675-4.044-2.965-6.904-3.865c2.405-0.521,4.594-1.69,6.561-3.503
				c1.973-1.816,3.009-4.323,3.116-7.532v-13.591c0.031-4.147-1.337-7.625-4.109-10.431
				C478.661,1161.486,474.244,1160.029,468.177,1159.92z M461.011,1191.871h-25.619v-10.51h25.619V1191.871z" />
				<path fill="#FFFFFF" d="M568.458,1198.432c-0.729-1.511-1.566-2.747-2.506-3.686c-1.358-1.291-3.084-2.335-5.177-3.139
				c-2.092-0.801-4.181-1.22-6.275-1.255h-35.866v-8.992h46.165v-21.438h-49.825c-7.217,0.035-12.451,1.438-15.714,4.208
				c-3.257,2.771-4.869,6.613-4.834,11.528v19.087c-0.177,4.355,1.098,7.817,3.813,10.379c2.721,2.563,7.948,3.875,15.685,3.942
				h31.479v8.784h-51.505v21.485h59.974c2.367-0.032,4.655-0.468,6.852-1.301c2.192-0.839,3.935-1.88,5.229-3.142
				c1.079-1.146,1.948-2.476,2.614-3.971c0.661-1.499,1.012-2.699,1.049-3.605v-24.211
				C569.577,1201.51,569.192,1199.947,568.458,1198.432z" />
			</g>
		</g>
		<g>
			<g>
				<path fill="#808285" d="M103.956,1199.63v18.119h-28.39v-18.119h-24.73v19.739c-0.036,5.438,1.409,10.082,4.337,13.938
				c2.93,3.855,7.548,5.867,13.858,6.033h41.254c5.995-0.166,10.51-2.091,13.542-5.774c3.033-3.676,4.549-8.041,4.549-13.098
				v-20.835h-24.42V1199.63z" />
			</g>
			<g>
				<rect x="172.607" y="1199.63" fill="#808285" width="23.687" height="39.71" />
			</g>
			<g>
				<rect x="137.788" y="1199.63" fill="#808285" width="24.731" height="39.71" />
			</g>
			<g>
				<polygon fill="#808285" points="-44.898,1208.549 -44.898,1199.63 -111.196,1199.63 -111.196,1239.34 -45.111,1239.34 
				-45.111,1217.852 -86.571,1217.852 -86.571,1208.549 			" />
			</g>
			<g>
				<path fill="#808285" d="M19.125,1199.63c0.119,0.896,0.199,1.598,0.236,2.072c-0.256-0.625-0.572-1.326-0.922-2.072H-6.768
				c2.634,4.483,5.451,9.13,8.455,13.966c3.068,4.929,6.032,9.643,8.89,14.142c2.857,4.496,5.281,8.361,7.267,11.603h23.895v-39.71
				H19.125z" />
			</g>
			<g>
				<rect x="-35.697" y="1199.63" fill="#808285" width="23.687" height="39.71" />
			</g>
			<g>
				<path fill="#808285" d="M476.641,1199.63H410.98v39.71h24.416v-29.484h25.725v29.484h24.312v-28.963
				c-0.037-3.103-0.924-5.492-2.665-7.164C481.19,1201.703,479.129,1200.514,476.641,1199.63z" />
			</g>
			<g>
				<path fill="#808285" d="M494.948,1199.63c0.599,2.148,1.689,3.98,3.292,5.495c2.721,2.563,7.948,3.875,15.685,3.942h31.479v8.784
				h-51.505v21.485h59.974c2.367-0.032,4.655-0.468,6.852-1.301c2.192-0.839,3.935-1.88,5.229-3.142
				c1.079-1.146,1.948-2.476,2.614-3.971c0.661-1.499,1.012-2.699,1.049-3.605v-24.211c-0.028-1.185-0.245-2.338-0.65-3.478H494.948
				L494.948,1199.63z" />
			</g>
			<g>
				<path fill="#808285" d="M227.432,1199.63c0.112,0.896,0.195,1.598,0.232,2.072c-0.258-0.625-0.573-1.326-0.921-2.072h-25.209
				c2.636,4.483,5.452,9.13,8.456,13.966c3.066,4.929,6.03,9.643,8.887,14.142c2.858,4.496,5.282,8.361,7.27,11.603h23.895v-39.71
				H227.432z" />
			</g>
			<g>
				<polygon fill="#808285" points="326.064,1208.549 326.064,1199.63 259.764,1199.63 259.764,1239.34 325.856,1239.34 
				325.856,1217.852 284.398,1217.852 284.398,1208.549 			" />
			</g>
			<g>
				<polygon fill="#808285" points="401.562,1208.549 401.562,1199.63 335.265,1199.63 335.265,1239.34 401.357,1239.34 
				401.357,1217.852 359.898,1217.852 359.898,1208.549 			" />
			</g>
		</g>
	</g>
</svg>
