<svg version="1.1" baseProfile="basic" id="Layer_1" xmlns="http://www.w3.org/2000/svg"
	xmlns:xlink="http://www.w3.org/1999/xlink" x="0px" y="0px" viewBox="-237.966 486.672 800 800" xml:space="preserve">
	<path fill="#FFFFFF" d="M84.683,817.242l0.048,3.582l3.491-2.91l6.466-0.672c5.976-0.752,8.068,2.63,11.253,4.788l6.394-6.556
	H88.802C86.644,815.475,85.955,816.391,84.683,817.242L84.683,817.242z M220.568,839.596c-1.897-22.815-29.164-43.21-29.396-44.271
	l4.693,0.734c-4.673-6.973-20.722-14.708-32.945-14.708c6.447,4.479,11.381,3.98,18.386,10.438
	c6.226,5.722,7.631,9.93,11.558,17.274c1.208,2.268,11.689,11.154,14.609,14.211C210.644,826.592,218.427,838.027,220.568,839.596
	L220.568,839.596z M88.802,801.354c0.705-0.28,2.014-0.589,2.936-0.589h0.589c1.381,0,2.36,0.979,2.36,2.349
	c0,0.825-0.81,1.179-1.769,1.179h-4.117V801.354L88.802,801.354z M101.743,810.768l2.349-8.233c4.18,0.09,5.438,2.938,9.411,2.938
	h5.298c0.49,0,5.75-4.806,9.277-6.021c2.72-0.942,11.832-1.469,11.308-2.802c-4.97,0-8.814-4.115-15.29-4.115h-11.181
	c-4.056,0-4.697,0.518-4.715,4.781l4.135,0.518v-4.129h8.821c-0.261,3.11-3.072,7.064-6.472,7.064h-2.938
	c-3.358,0-8.806-8.823-16.478-8.823h-4.119c-6.817,0-17.055,11.192-17.055,17.646v7.066c0,3.571,6.774,12.667,10,13.528
	c-0.952-3.553-7.896-11.36-3.163-16.659C84.574,809.443,94.441,810.768,101.743,810.768L101.743,810.768z" />
	<path fill="#FFFFFF" d="M52.33,910.791l-19.996-11.771c6.158-9.204,11.172-8.005,11.172-26.471
	c-3.546,0.943-7.774,8.824-17.647,8.824h-2.938c-3.881,0-13.929-4.136-14.709-7.064c8.805-4.217,21.836-6.675,22.943-20.005
	c-3.374,0.789-6.402,2.947-10.592,2.947h-7.055c-5.641,0-19.007-6.293-19.996-10.002c5.357-2.839,16.849-2.957,17.057-12.36
	c-13.013,0-28.538-11.762-30.587-20.595c9.014,0,19.996,1.624,19.996-7.645c-6.556-3.146-12.433-4.026-19.671-7.979
	c-7.697-4.22-10.199-6.185-15.822-12.417c-6.912-7.674-17.375-25.96-28.039-28.447v-1.76c11.179,0,49.175,11.063,58.4,14.546
	c14.954,5.652,40.336,14.02,44.525,29.019c3.945,14.158,12.958,42.376,20.34,52.614c3.527,4.899,38.286,38.033,41.442,26.208
	c-69.817-33.515-37.264-64.129-69.218-93.746c-14.119-13.086-37.209-17.23-57.965-23.805c-7.862-2.484-60.141-15.425-66.344-15.425
	c4.09,5.586,33.671,15.207,43.446,33.036c6.708,12.232,5.985,12.486,18.083,20.149c4.443,2.82,7.969,4.308,12.732,6.684
	c2.14,1.069,15.731,5.44,8.086,5.44H-15.9c-6.638,0-8.841-2.273-13.53-3.527c0,13.349,17.391,30.007,32.347,30.007
	c-0.798,3.002-4.498,4.707-8.234,4.707l-6.483,0.127l-6.457-0.717c3.355,12.568,20.213,20.594,37.06,20.594
	c-1.802,6.766-13.639,8.234-22.94,8.234c3.845,5.749,17.855,15.888,27.649,15.888h2.936c4.453,0,5.888-1.532,9.416-2.357
	l1.296,1.369l-15.654,14.944l-1.521-1.596C22.45,901.805,44.223,915.934,52.33,910.791L52.33,910.791z M227.043,876.078l0.58,5.296
	c11.599-0.962,33.095-23.687,39.128-32.655c5.114-7.608,8.585-14.654,12.519-23.369c3.831-8.533,4.965-18.372,9.113-26.77
	c7.869-15.934,24.268-23.822,42.22-29.552c9.939-3.174,47.831-14.153,58.198-14.153c-0.97,1.333-11.607,9.238-15.078,13.158
	c-5.953,6.708-6.526,10.698-11.061,17.763c-4.981,7.747-25.387,20.268-37.392,20.268c0,5.903,4.203,8.234,10.007,8.234h9.998v1.769
	c0,10.909-20.354,17.648-32.352,17.648c0.559,6.747,13.689,11.48,20.001,12.95c-1.499,6.393-11.737,10.589-20.001,10.589h-4.121
	c-6.363,0-10.751-2.355-15.874-2.355c0.693,8.468,17.155,16.666,24.11,20.005c-2.174,3.253-8.146,6.475-13.53,6.475h-2.351
	c-9.789,0-15.931-6.094-21.764-10.004l-1.746,0.936l15.335,28.765l0.127-1.052l-20.78,11.952c20.242,0,21.052-8.859,33.539-11.771
	v-1.181c-7.223-1.676-17.584-8.641-18.238-16.467c4.518,0.372,7.982,3.525,14.708,3.525h2.943c9.127,0,19.964-6.816,21.764-13.529
	c-5.083-2.439-22.335-2.673-22.947-10.003c18.343,0,36.478-7.36,40.003-20.594c-8.226,0-23.082,0.78-24.702-5.296
	c18.619,0,36.463-13.856,36.463-31.773c-4.344,2.911-10.021,6.475-17.062,6.475c-2.802,0-5.847-0.129-7.056-1.771
	c18.239-1.512,32.861-20.084,40.526-33.009c4.362-7.336,11.116-13.539,18.171-18.3c7.722-5.214,19.492-8.521,24.834-12.235
	c-30.588,0.681-104.027,23.896-120.936,37.896c-18.436,15.263-15.752,33.19-25.237,54.184
	C262.975,851.647,240.853,872.387,227.043,876.078L227.043,876.078z" />
	<path fill="#FFFFFF" d="M201.737,920.207l3.539,0.589v-1.181c-1.352-0.898-1.19-1.123-3.539-1.17V920.207z M227.623,920.796
	l105.079,0.343L312.58,942.66l27.397,98.751c-0.467-0.007-44.818-18.391-51.631-20.721c-5.985-2.059-54.124-16.04-58.37-13.4
	c3.212,4.795,22.564,7.427,29.741,9.086c11.309,2.63,20.281,6.056,30.361,9.057c20.1,5.977,37.69,15.271,54.603,24.225
	c-0.204-9.257-15.471-59.888-18.733-71.876c-1.541-5.622-10.265-31.739-8.805-35.064c1.841-4.201,20.014-20.313,21.063-24.268
	l-109.87,0.027L227.623,920.796z M134.686,920.207h57.063l-1.179-1.762l-55.184,0.038L134.686,920.207z M96.448,1007.287
	c-17.003,0.381-44.879,8.47-59.606,12.75c-10.229,2.975-17.45,6.067-26.697,9.185c-7.844,2.641-19.271,10.848-24.514,12.126
	l27.008-99.688l-20.814-20.35l0.51-0.508l105.88-0.599l-0.587-1.759H-13.552c0.998,3.745,18.218,18.672,21.256,23.532
	c2.031,3.255-5.94,29.007-7.656,34.786c-3.126,10.508-18.307,63.17-18.307,71.12c17.511-9.266,32.955-17.327,54.365-23.294
	c10.419-2.902,18.717-6.026,30.624-8.198C73.513,1015.149,94.806,1013.444,96.448,1007.287L96.448,1007.287z M103.511,1005.521
	v4.114l-0.065-0.752l64.711-4.734l0.057,0.78h3.525l0.06-0.642l49.943,4.183v-3.539l-35.294-2.936l-34.738-0.438L103.511,1005.521z
	 M121.156,920.207l3.53,0.589l-0.59-2.351l-2.24,0.038L121.156,920.207z" />
	<path fill="#4A2162"
		d="M116.552,964.938l-18.338-0.019c0-2.738,1.36-16.47,3.53-16.47h7.055c4.171,0,8.823,1.117,8.823,5.298
	l0.233,3.563L116.552,964.938z M81.739,995.517c3.99-0.091,6.527-1.759,10.589-1.759h2.94v-1.769l3.21-24.678l16.794-0.033v5.293
	l-1.914,18.229l10.139-0.719l4.124,0.139l1.979-33.525l-0.209-3.537c0-12.867-28.148-7.653-39.096-7.391L81.739,995.517z" />
	<path fill="#4A2162" d="M248.806,955.507c0,12.823,21.333,16.462,31.544,20.225c5.572,2.059,13.578,4.263,17.802,8.078
	c1.7,1.542,11.385,17.593,4.763,17.593h-3.525c-3.591,0-19.352-4.392-21.225-5.831c-7.595-5.877-2.831-8.878-18.782-8.878
	c1.333,16.051,42.179,23.45,62.358,21.772c0.304-1.323,0.589-1.351,0.589-2.947v-1.759c0-32.158-68.35-35.085-59.996-48.255
	c0.648-2.455,4.013-3.525,7.056-3.525h2.934c8.624,0,14.548,2.367,17.649,8.234h14.119c-5.11-7.645-25.146-13.53-38.234-13.53
	h-5.883C253.265,946.684,248.806,948.824,248.806,955.507L248.806,955.507z" />
	<path fill="#FFFFFF" d="M248.806,955.507c0-6.683,4.462-8.823,11.17-8.823h5.883c13.088,0,33.125,5.886,38.234,13.53h-14.119
	c-3.102-5.865-9.025-8.234-17.649-8.234h-2.934c-3.045,0-6.406,1.07-7.055,3.527c-8.356,13.17,59.996,16.099,59.996,48.253v1.762
	c0,1.598-0.286,1.621-0.59,2.949c-20.18,1.678-61.025-5.725-62.356-21.775c15.949,0,11.184,3.002,18.781,8.878
	c1.872,1.439,17.633,5.831,21.224,5.831h3.525c6.625,0-3.061-16.049-4.763-17.59c-4.224-3.82-12.229-6.024-17.801-8.08
	C270.139,971.969,248.806,968.33,248.806,955.507L248.806,955.507z M247.038,953.748v4.117c0,18.979,55.292,16.221,55.292,38.83
	v2.36c-7.302,0-20.293-2.611-23.852-6.146c-7.588-7.526-6.684-8.563-22.027-8.563c0,8.087,14.731,18.9,20.916,21.426
	c4.521,1.851,30.819,5.042,37.905,5.042h6.471c1.832,0,2.936-2.91,2.936-4.704v-4.114c0-3.793-6.336-15.917-8.986-18.073
	c-6.804-5.514-8.665-6.203-17.289-9.767c-7.286-3.011-35.942-9.694-33.721-19.234c1.329-0.308,1.356-0.589,2.94-0.589h4.12
	c7.317,0,15.883,1.197,16.475,8.241h19.408c-0.87-10.463-29.066-18.244-41.172-18.244h-2.356
	C255.882,944.326,247.038,945.723,247.038,953.748L247.038,953.748z M199.975,944.326c15.371,0,14.7,7.454,14.7,21.772l1.8,0.717
	l8.202-21.311l10.298,0.108l-7.354,20.485c8.068,0,17.765,1.106,19.691,7.364c0.821,2.639,4.981,20.367,5.015,22.054
	c-17.032,0-12.68,0.408-15.239-12.995c-1.981-10.365-2.562-13.479-15.348-13.479l-6.138,0.031l2.614,22.326
	c-17.012,0-12.061-2.258-13.021-19.343c-0.277-4.879-0.966-9.968-1.438-15.035C202.878,947.545,204.979,949.967,199.975,944.326
	L199.975,944.326z M198.215,947.273h2.934c0,10.129,2.398,20.062,2.38,30.569c-0.021,18.111-2.931,15.915,17.244,15.89
	l-2.553-22.335c20.544,0,15.348,7.887,19.433,25.107l17.62,1.959c0-3.709-4.203-19.388-5.387-24.031
	c-2.349-9.122-9.472-8.524-18.928-10.755l6.665-20.521l-14.244-0.055l-6.341,17.112c-3.68-5.795,3.239-17.647-12.347-17.647h-6.475
	v4.707H198.215z M101.743,955.507v-1.179l0.725-3.5l6.919-0.027c3.235,0,5.885,0.78,5.885,4.117v5.885
	c0,1.36-0.41,1.767-1.771,1.767h-12.938L101.743,955.507z M117.855,957.312l-0.233-3.563c0-4.181-4.652-5.296-8.823-5.296h-7.055
	c-2.17,0-3.53,13.731-3.53,16.471l18.338,0.02L117.855,957.312z M159.98,945.505c0-1.805,1.723-2.349,3.525-2.349h4.708
	c1.805,0,3.525,0.539,3.525,2.349v38.84h10.595l-0.737-27.658l0.147-11.182c0-1.352,0.41-1.759,1.762-1.759h5.883
	c5.843,0,4.362,16.132,4.764,21.709c0.56,7.898,1.122,16.289,1.122,24.766h-57.058c0-7.516,0.091-17.493,0.744-25.138
	c0.279-3.291,0.345-8.406,0.789-12.224c1.396-12.007-1.886-5.613-3.301-9.113l13.557,0.897c0.281,1.599,0.563,1.632,0.563,3.219
	v35.896h9.413V945.505z M134.097,946.684l2.94,0.59c0,6.248-2.394,45.308,0.59,45.308l60.708-0.01l-3.061-48.243
	c-1.683-0.889-5.269-2.94-7.645-2.94h-2.947c-1.771,0-3.791,1.281-5.79,1.762l1.081,38.837h-5.874v-36.481
	c0-1.587-0.281-1.623-0.551-3.437l-13.568-0.681c-0.728,2.702-1.769,1.489-1.769,3.532v36.482h-5.296v-35.308
	c0-5.016-12.795-4.707-18.819-4.707V946.684z M90.297,945.768c10.948-0.263,39.096-5.477,39.096,7.391l0.209,3.537l-1.979,33.525
	l-4.124-0.139l-10.139,0.719l1.914-18.229v-5.293l-16.794,0.033l-3.21,24.678v1.769h-2.94c-4.063,0-6.599,1.668-10.589,1.759
	L90.297,945.768z M85.865,943.156c0.535,6.457,2.383,3.464,0.871,13.213c-0.762,4.896-1.696,9.168-2.684,13.802
	c-1.508,7.017-4.661,19.633-4.661,27.703l2.383,0.188l15.4-2.527l2.8-25.913h12.943l0.345,4.165l-2.104,17.612l0.009,1.918
	l18.227-1.328C129.392,937.627,145.133,943.156,85.865,943.156L85.865,943.156z M69.784,997.249l-15.169,2.965l5.949-28.229
	c-6.14,0-14.718,0.907-20.37,1.977c-5.774,1.1-5.837,9.785-7.506,14.854c-1.507,4.602-2.349,13.965-6.203,16.159
	c-1.27,0.726-15.371,5.804-17.402,5.75l18.5-59.16l-0.526-0.281l-4.725-0.48l0.009-2.169l22.054-0.689l-6.157,22.435l22.251-2.529
	l5.371-21.166h14.119L69.784,997.249z M41.747,967.278c0-5.566,5.287-17.502,5.287-20.005v-1.923l-26.507,1.324l-1.136,6.483
	l5.344,0.01l-18.282,60.597c3.491,0,13.439-4.063,17.076-5.275c10.163-3.412,6.048-2.261,9.501-12.851
	c6.351-19.469-0.489-20.712,24.904-20.642l-6.151,28.377l19.962-4.316c1.151-13.884,11.172-43.093,11.172-52.959v-1.771
	c-19.579,0-16.649-3.951-21.383,10.395C57.073,968.239,61.444,967.278,41.747,967.278L41.747,967.278z" />
	<path fill="#4A2162" d="M159.98,945.505v38.253h-9.413v-35.896c0-1.587-0.281-1.62-0.563-3.219l-13.557-0.897
	c1.415,3.5,4.698-2.894,3.301,9.113c-0.444,3.817-0.51,8.933-0.789,12.224c-0.653,7.645-0.744,17.622-0.744,25.138h57.058
	c0-8.477-0.563-16.867-1.122-24.766c-0.401-5.574,1.079-21.709-4.764-21.709h-5.883c-1.352,0-1.762,0.407-1.762,1.759l-0.147,11.182
	l0.737,27.658h-10.595v-38.84c0-1.805-1.718-2.349-3.525-2.349h-4.708C161.703,943.156,159.98,943.7,159.98,945.505L159.98,945.505z
	" />
	<path fill="#4A2162"
		d="M199.975,944.326c5.002,5.641,2.902,3.219,3.782,12.695c0.472,5.069,1.16,10.156,1.438,15.038
	c0.961,17.082-3.99,19.343,13.021,19.343l-2.614-22.326l6.138-0.03c12.788,0,13.369,3.113,15.348,13.479
	c2.563,13.4-1.791,12.997,15.239,12.997c-0.033-1.689-4.196-19.416-5.015-22.055c-1.927-6.259-11.628-7.363-19.691-7.363
	l7.354-20.485l-10.298-0.108l-8.202,21.311l-1.8-0.717C214.676,951.78,215.348,944.326,199.975,944.326L199.975,944.326z" />
	<path fill="#4A2162"
		d="M79.979,946.684H65.86l-5.371,21.166l-22.26,2.529l6.167-22.435l-22.054,0.689l-0.009,2.169l4.725,0.48
	l0.526,0.281l-18.5,59.16c2.031,0.054,16.132-5.024,17.402-5.75c3.854-2.194,4.695-11.558,6.203-16.159
	c1.669-5.074,1.732-13.757,7.506-14.854c5.652-1.069,14.23-1.977,20.37-1.977l-5.949,28.229l15.169-2.965L79.979,946.684z" />
	<path fill="#FFFFFF" d="M90.569,1030.23v2.947c0,4.373,2.041,10.004,5.879,10.004h1.179c6.085,0,10.002-2.772,10.002-8.823v-2.36
	h-2.358c-6.72,0-6.468-12.249-6.468-19.415C95.495,1014.796,90.569,1024.554,90.569,1030.23L90.569,1030.23z M221.153,1029.649
	h-3.523v2.938c0,4.987,3.169,8.234,8.234,8.234h2.349c4.196,0,6.475-3.925,6.475-8.234c0-8.567-3.292-18.454-8.234-21.773
	C226.453,1016.782,226.403,1029.649,221.153,1029.649L221.153,1029.649z M215.856,916.087l2.621-0.688l2.673,7.753h1.179
	c1.173-5.023,5.292-6.293,5.292-15.888v-1.771c0-3.934-3.392-7.646-7.645-7.646C214.897,897.851,215.856,910.35,215.856,916.087
	L215.856,916.087z M203.508,913.149l6.534,8.055l0.521-0.408c0.75-3.212,3.532-8.354,3.532-10.594v-2.349
	c0-1.125-2.231-4.117-3.532-4.117h-2.354C203.689,903.736,203.508,908.479,203.508,913.149L203.508,913.149z M189.978,902.558
	l-0.59,5.885c-0.451,3.283,6.033,12.786,8.656,13.512l0.757-7.635h2.344v-4.117c0-3.945-2.321-9.413-6.461-9.413h-0.592
	C191.939,900.789,191.259,901.705,189.978,902.558L189.978,902.558z M124.686,909.612v5.296c4.38,0.1,3.525,2.621,3.525,7.064
	c2.877-1.932,8.236-8.497,8.236-12.949v-2.938c0-2.149-1.623-4.706-3.527-4.706h-1.769
	C127.452,901.379,124.686,905.939,124.686,909.612L124.686,909.612z M111.746,909.023c0,6.284,2.847,7.571,2.938,11.771
	c2.612-0.698,7.053-6.702,7.053-10.003v-1.179c0-2.65-1.104-5.876-3.525-5.876h-2.938
	C113.097,903.736,111.746,906.738,111.746,909.023L111.746,909.023z M97.626,907.264v0.59c0,4.524,4.063,14.491,7.055,15.298
	c0-3.301,1.061-7.399,4.117-7.653c0.308-1.315,0.589-1.352,0.589-2.938l0.136-4.725l-0.725-7.636
	c-1.315-0.879-2.061-2.353-3.528-2.353C100.673,897.851,97.626,902.53,97.626,907.264L97.626,907.264z" />
	<path fill="#C0A062" d="M101.743,954.328v7.654h5.296c3.371,0,4.208-0.941,7.053-1.18l0.021-7.753l-8.254-1.07
	C104.01,951.689,103.43,953.721,101.743,954.328L101.743,954.328z M101.743,954.328c1.687-0.607,2.258-2.639,4.115-2.349l8.254,1.07
	l-0.021,7.753c-2.845,0.238-3.682,1.18-7.053,1.18h-5.296v-6.476l-1.179,7.064h12.938c1.36,0,1.771-0.408,1.771-1.769v-5.885
	c0-3.337-2.65-4.115-5.885-4.115l-6.919,0.029L101.743,954.328z" />
	<path fill="#C0A062" d="M-166.489,744.868l13.881-6.991l-0.381-1.034l-4.677,0.381h-5.885c-24.342,0-38.731-34.323-48.826-48.842
	c0,13.702,8.862,27.976,14.92,36.273c3.727,5.114,7.824,8.614,13.085,12.206C-178.631,740.778-169.69,742.837-166.489,744.868
	L-166.489,744.868z M-145.314,776.055c1.152-0.844,3.528-4.453,3.528-6.476l-0.019-2.539l-13.512,1.36
	c-17.375,1.94-36.908-12.069-42.351-22.354l-5.883-2.357c0.164,7.182,14.8,21.818,20.404,24.901
	C-170.406,775.601-164.595,776.055-145.314,776.055L-145.314,776.055z M-122.961,807.24l6.935-12.441l-1.05-0.508
	c-4.373,2.929-12.913,10.002-20.005,10.002h-7.645c-10.286,0-29.347-11.372-31.179-18.236l-4.115-0.59
	c0.907,10.909,22.118,24.712,37.643,24.712C-137.833,810.179-123.779,806.76-122.961,807.24L-122.961,807.24z M-146.495,821.949
	h-1.757c0.553,6.665,15.967,15.888,24.702,15.888h6.475c9.676,0,17.792-8.216,22.934-9.422l1.179-11.762
	c-3.7,0.308-14.691,13.529-31.177,13.529h-3.528C-133.355,830.183-145.106,825.767-146.495,821.949L-146.495,821.949z
	 M-114.137,848.42l-5.296,1.179c1.632,3.083,16.332,10.592,21.174,10.592h7.064c11.272,0,17.103-9.622,22.941-13.53l-0.587-10.592
	h-1.179c-2.022,7.581-17.411,17.646-28.239,17.646C-104.171,853.715-110.993,851.158-114.137,848.42L-114.137,848.42z
	 M-77.075,869.604l-3.537,2.946c0.879,1.297,5.477,2.938,6.473,2.938h8.826c9.322,0,14.754-7.445,19.404-12.351l-0.581-8.243
	c-2.646,0.707-10.988,17.066-22.351,17.066h-4.707C-75.932,871.961-76.594,871.417-77.075,869.604L-77.075,869.604z M-31.79,889.607
	l-0.025-6.692l-10.555,1.396h-4.12c-2.23,0-3.752-1.043-4.704-2.349l-5.885,4.117c1.614,2.414,8.749,6.04,13.582,5.641
	L-31.79,889.607z M-34.726,900.789l-2.358,2.357c1.115,1.66,8.234,5.296,10.002,5.296l1.195,0.127l6.332-0.671l1.296,3.482
	l2.657,0.055l-2.067-12.995c-2.812,1.877-4.018,4.706-8.824,4.706h-1.768c-2.784,0-4.244-0.662-6.466-1.181V900.789L-34.726,900.789
	z" />
	<path fill="#C0A062" d="M496.449,745.458c-0.683-1.732,10.687-5.759,14.028-8.315c3.5-2.676,9.823-7.799,12.306-11.236
	c5.423-7.518,13.661-21.582,13.661-33.988c-0.412-4.697-2.078,4.227-2.757,6.049c-1.129,2.983-2.879,5.939-4.4,8.561
	c-3.264,5.596-6.846,10.156-11.557,14.328c-7.28,6.438-22.741,15.779-35.995,15.779l-0.161,2.076L496.449,745.458z M524.094,745.458
	c-6.411,17.71-29.826,23.532-55.294,23.532l-0.479,0.362l5.778,7.291c0.195-0.136,18.555-1.959,20.547-2.394
	c6.107-1.315,11.218-3.882,16.191-6.756c5.838-3.374,19.724-18.373,20.104-25.963L524.094,745.458z M500.57,786.646
	c1.99,4.842-22.635,17.646-32.949,17.646h-2.934c-9.857,0-15.87-4.615-20.413-4.488l3.931,6.846c0.871-0.508,13,3.247,17.078,3.528
	c6.774,0.472,14.942-1.213,19.468-2.866c7.434-2.702,20.479-14.083,22.237-22.117L500.57,786.646z M422.329,828.415
	c7.463,3.953,14.84,10.002,26.466,10.002h1.772c10.157,0,24.045-8.425,25.875-15.289h-5.884c1.309,3.146-15.232,8.823-20.58,8.823
	h-1.773c-15.18,0-20.072-6.502-29.229-12.215L422.329,828.415z M395.264,847.25c4.938,1.314,10.052,12.94,24.714,12.94h2.942
	c7.389,0,22.906-4.28,24.058-8.624l-7.007-1.968c-0.902,2.267-9.187,2.947-12.345,2.947h-6.466
	c-18.055,0-20.213-9.231-25.137-10.574L395.264,847.25z M372.335,873.14l-0.589-6.475v-1.769c0-1.587,0.281-1.623,0.589-2.938
	c8.969,9.459,8.828,13.53,27.641,13.53c0.988-2.448,5.291-0.689,5.291-2.938c0-1.568-1.527-3.155-2.94-3.536v1.769h-2.934
	c-16.041,0-17.71-6.946-25.89-12.94c-1.036,1.958-2.349,4.116-2.349,7.055v4.117C371.156,871.19,371.456,871.87,372.335,873.14
	L372.335,873.14z M357.627,888.438c2.004,1.062,7.036,2.938,10,2.938h4.708c3.364,0,8.606-3.219,10.261-5.632l-4.384-3.191
	c-0.971,2.684-5.224,3.527-8.828,3.527h-2.352c-4.162,0-7.096-2.702-10.065-2.938L357.627,888.438z M342.328,905.495l4.412,1.771
	l-0.29,0.59h8.828c3.058,0,6.973-3.453,8.823-4.115l0.489-0.464l-3.441-3.077c-1.832,2.513-5.613,4.117-10,4.117h-2.938
	c-2.371,0-3.455-0.118-4.116-1.759l-1.057,0.027L342.328,905.495z" />
	<path fill="#C0A062" d="M247.038,953.748c0-8.025,8.847-9.422,17.058-9.422h2.355c12.106,0,40.302,7.78,41.173,18.243h-19.408
	c-0.592-7.044-9.155-8.241-16.476-8.241h-4.119c-1.585,0-1.609,0.281-2.94,0.59c-2.222,9.54,26.437,16.223,33.721,19.233
	c8.624,3.564,10.487,4.253,17.289,9.767c2.652,2.156,8.986,14.28,8.986,18.073v4.115c0,1.793-1.104,4.704-2.936,4.704h-6.471
	c-7.087,0-33.385-3.192-37.905-5.042c-6.185-2.53-20.916-13.34-20.916-21.427c15.344,0,14.441,1.032,22.026,8.563
	c3.56,3.534,16.55,6.146,23.854,6.146v-2.359c0-22.607-55.294-19.851-55.294-38.831v-4.112H247.038z M41.747,967.278
	c19.696,0,15.325,0.961,19.787-12.56c4.733-14.347,1.804-10.393,21.383-10.393v1.769c0,9.866-10.021,39.075-11.172,52.961
	l-19.962,4.314l6.151-28.375c-25.394-0.072-18.554,1.17-24.904,20.64c-3.453,10.594,0.662,9.439-9.501,12.85
	c-3.637,1.215-13.584,5.277-17.076,5.277l18.282-60.594l-5.344-0.01l1.136-6.483l26.507-1.326l0.007,1.925
	C47.041,949.776,41.747,961.712,41.747,967.278L41.747,967.278z M187.63,941.388c2.376,0,5.962,2.061,7.645,2.94l3.061,48.243
	l-60.708,0.01c-2.983,0-0.59-39.058-0.59-45.308l-2.94-0.59v-5.296c6.023,0,18.819-0.309,18.819,4.707v35.303h5.296v-36.482
	c0-2.04,1.041-0.825,1.769-3.529l13.568,0.68c0.27,1.816,0.551,1.853,0.551,3.439v36.481h5.874l-1.081-38.839
	c1.999-0.481,4.02-1.762,5.79-1.762h2.947V941.388z M198.215,942.566h6.475c15.588,0,8.667,11.853,12.347,17.647l6.341-17.112
	l14.241,0.055l-6.662,20.521c9.456,2.23,16.581,1.633,18.928,10.755c1.186,4.644,5.387,20.322,5.387,24.031l-17.62-1.959
	c-4.085-17.221,1.11-25.107-19.434-25.107l2.553,22.335c-20.172,0.027-17.264,2.222-17.243-15.89
	c0.018-10.508-2.381-20.44-2.381-30.569h-2.934v-4.707H198.215z M85.865,943.156c59.269,0,43.528-5.531,43.528,48.833l-18.227,1.328
	l-0.009-1.918l2.104-17.612l-0.338-4.163h-12.95l-2.8,25.911l-15.4,2.527l-2.383-0.188c0-8.07,3.153-20.685,4.661-27.703
	c0.988-4.634,1.922-8.905,2.684-13.802C88.247,946.623,86.4,949.615,85.865,943.156L85.865,943.156z M98.214,920.207l-105.88,0.598
	l-0.51,0.508l20.814,20.352l-27.008,99.687c5.244-1.279,16.67-9.485,24.514-12.127c9.247-3.119,16.468-6.212,26.697-9.184
	c14.727-4.283,42.603-12.369,59.606-12.75l7.064-7.064v5.296l48.196-3.965l34.739,0.435l35.294,2.938v-6.466l0.566-0.47l7.667,9.296
	c4.244-2.64,52.384,11.347,58.371,13.4c6.814,2.33,51.163,20.714,51.63,20.721l-27.397-98.751l20.123-21.521l-105.079-0.343
	l-9.513,13.487l-1.599-14.858l-1.455,0.419l-5.804,9.468l0.342-0.628l-4.314-7.888l-3.538-0.589l-0.233,8.841l-0.436,0.691
	l-9.322-9.53h-57.063l-9.103,9.184l-0.897-0.94v-7.654l-3.53-0.589l-4.895,8.434l0.508,0.56l-6.665-10.256l-0.934,0.011
	l-1.487,15.162L98.214,920.207z" />
	<path fill="#C0A062" d="M156.534,1067.311l-0.084,2.351h12.945v-8.834h-1.182l0.173-14.762l1.822,5.994l2.712,19.95v1.771
	l-20.524-0.091l5.244-31.197l0.932,0.129L156.534,1067.311z M129.982,1058.478c0,2.022,6.03,4.072,8.025,4.026l6.964-15.343
	l0.651,0.242l-6.237,20.487c-1.499-0.127-13.521-6.384-13.521-7.063c0-1.916,6.466-14.438,7.645-15.299
	C133.41,1049.936,129.982,1055.144,129.982,1058.478L129.982,1058.478z M190.93,1045.021c1.75,1.678,7.873,14.056,7.873,16.982
	c0,0.726-7.735,5.244-10.004,5.299c-3.111,5.874-4.573-4.217-5.623-7.318c-1.043-3.119-3.543-10.319-3.795-13.276
	c1.002,1.143,5.064,10.492,5.815,12.424c3.711,9.447,3.312,2.313,10.966,1.596L190.93,1045.021z M103.511,1044.939l15.443,12.967
	l0.152-0.762l14.575-26.252l-11.374,30.56l18.719,12.868l13.067-41.146c-0.118,5.235-2.793,17.232-3.822,23.245
	c-0.705,4.09-1.322,7.88-2.031,11.57c-1.56,8.153,1.326,6.21,1.732,11.08h25.294c0-2.53,1.251-5.453,1.584-5.951l-6.062-40.015
	l12.854,40.926l22.046-11.662l-15.975-29.635l0.563-0.354L208.4,1057l15.471-10.111l-13.448-16.776l1.408-2.357l-48.328-2.82h-7.055
	c-8.051,0-26.659,1.122-33.986,2.482c-9.404,1.75-10.456-2.079-10.819,7.427C111.437,1040.344,108.145,1043.86,103.511,1044.939
	L103.511,1044.939z M227.043,876.078c-0.547-0.218-12.019-25.029-13.784-27.985c-5.246-8.741-11.179-16.74-18.114-23.668
	c-15.969-15.979-30.202-21.827-55.758-27.776c0.523,1.333-8.588,1.859-11.308,2.802c-3.53,1.216-8.788,6.021-9.277,6.021h-5.298
	c-3.972,0-5.23-2.848-9.411-2.938l-2.349,8.233l15.86,2.676l0.632,0.217l-9.429,10.583l-0.589-0.535v1.179
	c8.715,2.331,8.824,16.886,8.824,28.248v1.76c0,5.196-12.65,21.165-15.888,23.541c-3.156,11.825-37.915-21.311-41.442-26.207
	c-7.382-10.238-16.396-38.459-20.34-52.615C35.182,784.615,9.8,776.245-5.154,770.595c-9.225-3.481-47.221-14.545-58.4-14.545v1.759
	c10.664,2.485,21.127,20.775,28.039,28.447c5.623,6.23,8.125,8.198,15.822,12.415c7.239,3.953,13.115,4.833,19.671,7.982
	c0,9.27-10.981,7.645-19.996,7.645c2.05,8.832,17.575,20.594,30.587,20.594c-0.208,9.404-11.7,9.521-17.057,12.362
	c0.988,3.707,14.355,10,19.996,10h7.055c4.189,0,7.218-2.155,10.592-2.944c-1.106,13.33-14.138,15.785-22.943,20.005
	c0.78,2.929,10.828,7.063,14.709,7.063h2.938c9.873,0,14.101-7.882,17.647-8.825c0,18.465-5.015,17.269-11.172,26.471l19.996,11.772
	c3.292,1.578,28.472,0.48,34.775,0.662c11.483,0.317,4.809-1.642,8.016-9.64c1.716-4.262,4.899-7.5,10.737-7.5h1.181
	c2.439,0,5.25,2.938,5.892,5.371l5.28-0.664c3.627-0.53,4.208,1.714,5.885,2.951c3.909-2.623,15.879-13.015,15.879,2.349
	l0.134,1.197l-0.723,6.457h47.654c-2.774-25.383,12.896-14.563,14.105-10.003c2.689-0.721,2.934-3.312,5.904-3.074l6.461,0.717
	c0.182-2.186,2.555-5.296,4.706-5.296h4.11c3.75,0,8.826,5.085,8.826,8.833v8.825h41.168l20.779-11.952l-0.127,1.052l-15.334-28.765
	l1.745-0.936c5.833,3.908,11.975,10.002,21.765,10.002h2.351c5.385,0,11.358-3.22,13.527-6.475
	c-6.953-3.337-23.414-11.535-24.107-20.003c5.123,0,9.51,2.355,15.874,2.355h4.121c8.266,0,18.504-4.198,20-10.592
	c-6.313-1.469-19.442-6.202-20-12.947c11.997,0,32.352-6.739,32.352-17.649v-1.768h-9.998c-5.804,0-10.007-2.331-10.007-8.234
	c12.007,0,32.41-12.523,37.391-20.268c4.534-7.064,5.105-11.055,11.06-17.765c3.473-3.918,14.109-11.825,15.08-13.158
	c-10.369,0-48.262,10.981-58.198,14.155c-17.95,5.731-34.351,13.621-42.22,29.554c-4.148,8.397-5.28,18.234-9.113,26.768
	c-3.932,8.717-7.404,15.761-12.52,23.369c-6.032,8.971-27.526,31.696-39.127,32.657L227.043,876.078z" />
	<path fill="#4A2162" d="M90.569,1030.23c0-5.677,4.926-15.435,8.234-17.649c0,7.166-0.252,19.417,6.468,19.417h2.358v2.358
	c0,6.049-3.917,8.823-10.002,8.823h-1.179c-3.838,0-5.879-5.632-5.879-10.005V1030.23z M221.153,1029.649
	c5.252,0,5.3-12.867,5.3-18.835c4.942,3.319,8.234,13.206,8.234,21.773c0,4.308-2.278,8.234-6.475,8.234h-2.349
	c-5.065,0-8.234-3.244-8.234-8.234v-2.938H221.153z M103.511,1044.939c4.634-1.079,7.926-4.596,8.134-10.094
	c0.363-9.506,1.415-5.677,10.819-7.427c7.327-1.36,25.935-2.484,33.985-2.484h7.056l48.327,2.82l-1.408,2.359l13.448,16.779
	l-15.471,10.108l-18.123-24.618l-0.562,0.352l15.974,29.638l-22.043,11.659l-12.856-40.925l6.063,40.016
	c-0.334,0.499-1.585,3.421-1.585,5.949h-25.294c-0.406-4.872-3.292-2.929-1.73-11.082c0.708-3.69,1.324-7.48,2.032-11.568
	c1.024-6.013,3.7-18.01,3.82-23.244l-13.067,41.145l-18.719-12.867l11.374-30.561l-14.575,26.255l-0.152,0.762L103.511,1044.939z
	 M98.214,920.207l9.469,13.908l1.487-15.16l0.934-0.012l6.665,10.268l-0.508-0.571l4.895-8.433l0.701-1.724l2.24-0.038l0.59,2.351
	v7.653l0.897,0.941l9.103-9.184l0.7-1.724l55.184-0.038l1.179,1.762l9.322,9.528l0.436-0.689l0.233-8.842v-1.759
	c2.351,0.047,2.188,0.271,3.538,1.17v1.181l4.314,7.888l-0.342,0.628l5.804-9.468l1.455-0.419l1.601,14.854l9.513-13.484
	l0.714-2.321l109.87-0.027c-1.05,3.953-19.223,20.068-21.063,24.267c-1.46,3.328,7.264,29.444,8.805,35.064
	c3.263,11.988,18.529,62.619,18.733,71.876c-16.912-8.948-34.503-18.243-54.603-24.224c-10.08-3.002-19.053-6.43-30.361-9.048
	c-7.177-1.669-26.529-4.301-29.741-9.096l-7.668-9.295l-0.566,0.469v10.005l-49.943-4.181l-0.06,0.651h-3.525l-0.057-0.789
	l-64.711,4.733l0.065,0.762v-9.422l-7.064,7.064c-1.642,6.152-22.934,7.862-29.717,9.104c-11.906,2.176-20.204,5.296-30.624,8.197
	c-21.41,5.967-36.854,14.029-54.365,23.295c0-7.951,15.181-60.611,18.307-71.121c1.716-5.778,9.688-31.53,7.656-34.786
	c-3.038-4.855-20.259-19.787-21.256-23.532H97.626L98.214,920.207z M203.508,913.149c0-4.671,0.182-9.413,4.702-9.413h2.354
	c1.304,0,3.532,2.992,3.532,4.117v2.349c0,2.239-2.782,7.382-3.532,10.594l-0.521,0.408L203.508,913.149z M111.746,909.023
	c0-2.285,1.351-5.287,3.527-5.287h2.938c2.421,0,3.525,3.23,3.525,5.876v1.179c0,3.301-4.441,9.305-7.053,10.005
	C114.593,916.595,111.746,915.308,111.746,909.023L111.746,909.023z M215.856,916.087c0-5.74-0.959-18.236,4.12-18.236
	c4.253,0,7.645,3.712,7.645,7.645v1.771c0,9.595-4.119,10.866-5.292,15.891h-1.176l-2.674-7.756L215.856,916.087z M124.686,909.612
	c0-3.673,2.766-8.233,6.465-8.233h1.769c1.904,0,3.527,2.557,3.527,4.706v2.938c0,4.452-5.359,11.018-8.236,12.949
	c0-4.443,0.855-6.965-3.525-7.064V909.612z M97.626,907.264c0-4.733,3.047-9.417,7.645-9.417c1.467,0,2.213,1.474,3.528,2.353
	l0.725,7.636l-0.136,4.725c0,1.587-0.281,1.623-0.589,2.938c-3.056,0.251-4.117,4.353-4.117,7.653
	c-2.993-0.807-7.055-10.773-7.055-15.298V907.264z M189.978,902.558c1.28-0.853,1.961-1.769,4.114-1.769h0.592
	c4.14,0,6.461,5.468,6.461,9.413v4.117h-2.344l-0.757,7.635c-2.626-0.726-9.109-10.229-8.656-13.512L189.978,902.558z
	 M84.683,817.242c1.272-0.852,1.961-1.768,4.119-1.768h23.533l-6.394,6.556c-3.185-2.158-5.278-5.54-11.253-4.788l-6.466,0.672
	l-3.491,2.91L84.683,817.242z M220.568,839.596c-2.141-1.568-9.921-13.004-13.098-16.322c-2.92-3.057-13.4-11.943-14.608-14.211
	c-3.925-7.345-5.332-11.553-11.558-17.274c-7.008-6.457-11.941-5.958-18.387-10.438c12.225,0,28.273,7.735,32.945,14.708
	l-4.692-0.734C191.402,796.386,218.668,816.78,220.568,839.596L220.568,839.596z M101.154,878.436
	c3.238-2.376,15.888-18.345,15.888-23.541v-1.76c0-11.362-0.109-25.917-8.824-28.248v-1.179l0.589,0.535l9.429-10.583l-0.632-0.217
	l-15.86-2.676c-7.302,0-17.169-1.324-20.812,2.759c-4.733,5.299,2.21,13.106,3.163,16.659c-3.226-0.861-10-9.957-10-13.528v-7.066
	c0-6.454,10.238-17.646,17.055-17.646h4.119c7.672,0,13.12,8.823,16.478,8.823h2.938c3.4,0,6.211-3.954,6.472-7.064h-8.821v4.129
	l-4.135-0.518c0.018-4.264,0.66-4.781,4.715-4.781h11.181c6.475,0,10.32,4.115,15.29,4.115c25.554,5.951,39.79,11.798,55.758,27.776
	c6.933,6.928,12.868,14.927,18.114,23.668c1.769,2.956,13.235,27.768,13.784,27.985c13.811-3.691,35.936-24.431,42.059-37.951
	c9.485-20.993,6.801-38.921,25.237-54.184c16.908-14.001,90.348-37.216,120.935-37.896c-5.341,3.709-17.111,7.02-24.833,12.235
	c-7.056,4.761-13.809,10.964-18.171,18.3c-7.665,12.925-22.287,31.497-40.526,33.009c1.208,1.642,4.253,1.771,7.056,1.771
	c7.039,0,12.718-3.563,17.062-6.475c0,17.917-17.844,31.773-36.464,31.773c1.619,6.076,16.478,5.296,24.702,5.296
	c-3.527,13.233-21.659,20.594-40.002,20.594c0.611,7.33,17.862,7.563,22.947,10.003c-1.801,6.713-12.637,13.529-21.765,13.529
	h-2.942c-6.724,0-10.19-3.153-14.709-3.525c0.655,7.826,11.016,14.791,18.239,16.467v1.176
	c-12.487,2.911-13.299,11.771-33.539,11.771H231.16v-8.824c0-3.745-5.076-8.832-8.824-8.832h-4.112c-2.153,0-4.525,3.11-4.706,5.296
	l-6.459-0.717c-2.973-0.238-3.217,2.355-5.903,3.072c-1.213-4.562-16.883-15.38-14.108,10.005h-47.654l0.725-6.457l-0.136-1.197
	c0-15.364-11.97-4.972-15.879-2.351c-1.678-1.231-2.258-3.482-5.885-2.95l-5.278,0.662c-0.644-2.43-3.455-5.368-5.895-5.368h-1.181
	c-5.838,0-9.021,3.237-10.737,7.5c-3.208,7.998,3.467,9.957-8.014,9.637c-6.305-0.179-31.485,0.918-34.777-0.659
	c-8.107,5.142-29.88-8.987-32.347-12.352l1.515,1.601l15.654-14.944l-1.296-1.369c-3.528,0.825-4.963,2.357-9.416,2.357h-2.936
	c-9.794,0-23.805-10.139-27.649-15.888c9.302,0,21.138-1.469,22.94-8.234c-16.847,0-33.705-8.025-37.06-20.594l6.457,0.717
	l6.483-0.127c3.736,0,7.437-1.705,8.234-4.707c-14.956,0-32.347-16.658-32.347-30.007c4.688,1.251,6.892,3.527,13.53,3.527h5.874
	c7.645,0-5.947-4.371-8.086-5.44c-4.763-2.376-8.289-3.863-12.732-6.684c-12.097-7.663-11.374-7.917-18.083-20.149
	c-9.775-17.829-39.356-27.45-43.446-33.036c6.203,0,58.481,12.94,66.344,15.425c20.755,6.574,43.846,10.719,57.965,23.805
	C63.89,814.305,31.337,844.919,101.154,878.436L101.154,878.436z M-212.966,687.792l0.589,0.59
	c10.095,14.519,24.484,48.842,48.826,48.842h5.885l4.677-0.381l0.381,1.034l-13.881,6.991c-2.693,1.288-10.104,2.938-14.12,2.938
	l-4.171,0.362l-12.888-2.122c5.443,10.284,24.977,24.294,42.351,22.354l13.512-1.36l0.019,2.539c0,2.022-2.376,5.632-3.528,6.476
	c-4.733,7.073-18.454,10.002-30.589,10.002c1.832,6.864,20.893,18.236,31.179,18.236h7.645c7.092,0,15.632-7.073,20.005-10.002
	l1.05,0.508l-6.935,12.441l-23.535,14.709c1.39,3.817,13.14,8.233,18.828,8.233h3.528c16.486,0,27.477-13.222,31.177-13.529
	l-1.179,11.762l-19.995,20.005c3.144,2.738,9.966,5.295,15.878,5.295c10.828,0,26.216-10.065,28.239-17.646h1.179l0.587,10.592
	l-8.821,22.943c0.48,1.813,1.143,2.357,3.527,2.357h4.707c11.363,0,19.706-16.359,22.351-17.066l0.581,8.243l-5.285,18.825
	c0.952,1.309,2.474,2.349,4.704,2.349h4.12l10.555-1.396l0.025,6.692l-2.936,11.182v1.179c2.222,0.517,3.682,1.179,6.466,1.179
	h1.768c4.806,0,6.012-2.829,8.824-4.704l2.067,12.995l-2.657-0.052h-9.413c0.598,2.237,17.402,24.2,20.25,27.993
	c3.97,5.287,8.422,8.008,6.511,15.761c-1.514,6.112-3.273,13.748-5.169,19.613c-2.802,8.714-19.234,72.158-19.243,77.854
	l20.594,14.11c0.952-0.254,17.13-9.425,20.186-10.993c6.956-3.57,14.582-6.083,22.009-9.175c9.821-4.083,37.751-12.39,49.567-13.369
	l-1.19,0.68l7.185,12.617l2.013-0.799l-2.122,5.74c3.428,0.799,10.655,5.314,14.029,7.146c7.225,3.933,8.37,2.321,10.637,10.546
	c1.36,4.915,8.579,6.432,12.433,8.758c8.198,4.972,7.98,0.22,16.386,0.029l0.635,8.824h32.934l0.592-10.003
	c7.773,4.117,3.591,5.822,13.856,0.925c3.754-1.788,11.698-5.322,15.552-6.223l0.13-8.567l24.228-11.525l0.089-0.681l-4.11-7.318
	l1.51,0.708l6.896-10.111l-1.093-0.744c9.816,0,40.636,11.021,48.992,14.548c8.268,3.482,14.346,6.255,21.695,10.068
	c3.668,1.893,19.248,11.535,20.499,11.868l-0.381-0.633l24.771-14.608l0.311,0.523c0-9.157-17.289-63.894-20.686-77.57
	c-1.58-6.364-3.2-12.521-5.019-19.096c-3.045-10.957-1.984-9.187,3.668-17.159c6.978-9.819,13.67-19.279,20.266-29.146l-12.569-0.11
	l3.16-6.366l0.712-2.908l1.057-0.03c0.662,1.642,1.746,1.76,4.117,1.76h2.938c4.387,0,8.168-1.603,10-4.115l-3.525-11.759
	l-0.657-5.296c2.97,0.233,5.903,2.936,10.065,2.936h2.351c3.605,0,7.858-0.841,8.828-3.525l-5.876-9.413
	c-0.88-1.271-1.179-1.951-1.179-4.126v-4.119c0-2.936,1.311-5.094,2.349-7.055c8.18,5.994,9.848,12.94,25.89,12.94h2.934v-1.767
	l-7.068-21.772l0.757-5.278c4.925,1.343,7.083,10.574,25.138,10.574h6.466c3.158,0,11.444-0.681,12.344-2.947
	c-8.338-3.999-15.368-11.399-17.642-21.184l-3.352-8.679c9.155,5.713,14.05,12.215,29.229,12.215h1.773
	c5.351,0,21.891-5.677,20.58-8.823l-22.354-16.478l-3.931-6.846c4.543-0.127,10.556,4.488,20.413,4.488h2.934
	c10.314,0,34.942-12.805,32.949-17.646l-26.471-10.003l-5.778-7.291l0.479-0.362c25.471,0,48.885-5.822,55.294-23.532l-11.764,1.179
	l-5.323,0.235l-10.556-1.414l-14.872-6.747l0.163-2.076c13.254,0,28.713-9.341,35.992-15.779c4.709-4.172,8.291-8.732,11.558-14.328
	c1.52-2.621,3.27-5.577,4.4-8.561c0.676-1.822,2.345-10.746,2.757-6.049l0.585-5.296c-0.934,0.336-18.148,13.64-25.355,16.994
	c-8.637,4.018-22.117,8.025-32.052,10.9c-22.297,6.438-43.961,13.177-66.615,18.672c-39.035,9.477-103.727,20.485-131.865,39.338
	c-13.795,11.998-10.266,32.084-15.389,52.851c-3.224,13.095-16.512,37.008-28.14,40.109l-6.264,3.373l-1.381-5.722l-1.94-7.028
	l3.716-0.036l1.997-0.671l-10.088-29.98l-1.918,0.645h4.711c-3.63-15.553-27.217-40.463-42.948-44.127v-1.179l3.882-2.484
	l-8.583-3.401c-5.246-0.435-12.165-2.938-17.063-2.938h-14.11l-12.852,0.726l-0.091-1.904c-21.855,0-68.237,19.479-68.237,38.83
	v0.59c0,12.486,18.309,30.85,29.408,31.775c-2.72-5.16-7.645-8.951-7.645-17.067v-1.179c0-2.059,2.612-2.349,4.707-2.349h5.883
	c8.109,0,12.943,10.094,12.943,19.415v4.117c0,6.394-1.315,14.002-4.562,17.212c-0.746,0.734-11.009,9.64-11.327,9.857
	c-2.621-1.923-20.485-16.404-22.245-18.346c-6.493-7.154-9.775-16.658-13.076-26.933c-6.375-19.814-5.305-49.586-21.737-58.282
	l-5.878-2.349l-47.063-16.477l-3.527-1.18l-4.707-1.169l-3.528-1.18c-6.892-0.571-42.732-8.95-50.42-11.344
	c-14.99-4.661-34.199-8.107-49.812-11.962c-17.783-4.389-31.968-8.261-47.5-14.264c-19.581-7.572-23.934-11.544-39.332-21.855
	V687.792z M88.802,801.354v2.938h4.117c0.959,0,1.769-0.354,1.769-1.179c0-1.369-0.979-2.349-2.36-2.349h-0.589
	C90.816,800.766,89.508,801.074,88.802,801.354L88.802,801.354z" />
	<path fill="#FFFFFF" d="M198.803,1062.006c0-2.93-6.123-15.308-7.873-16.983l5.232,15.709c-7.654,0.717-7.255,7.851-10.966-1.599
	c-0.751-1.932-4.813-11.278-5.815-12.426c0.249,2.957,2.752,10.157,3.795,13.278c1.05,3.102,2.512,13.197,5.623,7.316
	C191.068,1067.249,198.803,1062.731,198.803,1062.006L198.803,1062.006z M158.572,1042.617l-0.932-0.127l-5.244,31.195l20.524,0.091
	v-1.769l-2.712-19.95l-1.822-5.994l-0.173,14.764h1.182v8.832H156.45l0.084-2.349L158.572,1042.617z M129.982,1058.478
	c0-3.337,3.428-8.542,3.527-12.949c-1.179,0.861-7.645,13.385-7.645,15.299c0,0.68,12.022,6.937,13.521,7.063l6.237-20.485
	l-0.651-0.24l-6.964,15.342C136.012,1062.55,129.982,1060.5,129.982,1058.478L129.982,1058.478z" />
</svg>
