<svg version="1.1" baseProfile="basic" id="Layer_1" xmlns="http://www.w3.org/2000/svg"
	xmlns:xlink="http://www.w3.org/1999/xlink" x="0px" y="0px" viewBox="-101.86 821.445 800 800" xml:space="preserve">
	<g>
		<path fill="#FFFFFF" d="M280.122,900.949c176.923,0,320.333,143.495,320.333,320.48c0,177.009-143.41,320.512-320.333,320.512
		c-176.904,0-320.332-143.503-320.332-320.512C-40.21,1044.44,103.216,900.949,280.122,900.949L280.122,900.949z" />
		<path fill="#010101" d="M280.122,912.284c170.649,0,308.997,138.434,308.997,309.146c0,170.731-138.348,309.155-308.997,309.155
		c-170.627,0-308.997-138.424-308.997-309.155C-28.877,1050.717,109.492,912.284,280.122,912.284L280.122,912.284z" />
		<path fill="#FFFFFF" d="M280.122,943.697c153.26,0,277.604,124.36,277.604,277.732c0,153.346-124.344,277.688-277.604,277.688
		c-153.241,0-277.604-124.343-277.604-277.688C2.518,1068.057,126.881,943.697,280.122,943.697L280.122,943.697z" />
		<path fill="#ED2224" d="M280.122,954.174c147.508,0,267.089,119.7,267.089,267.255c0,147.574-119.581,267.213-267.089,267.213
		c-147.491,0-267.07-119.639-267.07-267.213C13.052,1073.875,132.631,954.174,280.122,954.174L280.122,954.174z" />
		<path fill="#FFFFFF" d="M280.122,1002.851c120.635,0,218.495,97.898,218.495,218.578c0,120.701-97.857,218.58-218.495,218.58
		s-218.466-97.879-218.466-218.58C61.656,1100.75,159.487,1002.851,280.122,1002.851L280.122,1002.851z" />
		<path fill="#FFFFFF"
			d="M86.53,1121.808c-1.458-6.465-5.696-15.309-11.982-23.038c-2.547-3.026-7.897-4.303-11.045-6.806
		l-22.43-3.438l-58.724,40.432l-24.83,48.921c3.316,18.723,8.311,18.321,19.768,15.696c4.127-0.231,9.076-0.122,12.214-2.615
		l1.103,15.53l24.351,1.578l12.859-15.482l19.816,14.316l17.732-4.481c2.391-2.681,4.305-12.392,4.193-14.072L86.53,1121.808z" />
		<path fill="#FFFFFF" d="M493.893,1192.585c4.873-7.965,16.451-18.44,29.601-23.092l24.239,6.397l42.263,57.428l7.546,54.396
		c-8.235,14.284-12.962,14.47-24.876,12.773c-4.705-3.773-6.909-8.366-8.665-11.526l-9.751,13.261l-20.82-4.763l-7.135-18.861
		l-23.326,7.061l-16.809-10.348c-0.745-1.511-1.381-5.358-1.924-10.233L493.893,1192.585z" />
		<path fill="#ED1C24"
			d="M299.021,1108.72c-25.108-22.921-16.267-47.871-74.757-58.931l-35.063-2.612
		c-59.294-4.715-110.569,62.581-115.517,124.93c-3.894,49.164,36.567,99.767,66.28,134.539
		c16.11,18.901,30.526,32.645,49.239,48.931c21.29,18.433,36.754,24.185,60.817,39.501c1.513-3.682,32.737-7.563,40.873-10.07
		c14.939-4.725,24.93-8.383,38.301-13.744c27.511-10.981,44.411-24.482,67.44-38.898c42.151-26.352,79.782-70.167,85.161-138.381
		c5.474-55.597-10.159-103.824-91.212-110.221l-19.588-1.924C358.772,1080.851,311.878,1090.57,299.021,1108.72L299.021,1108.72z" />
		<path fill="#010101" d="M298.675,1111.861c21.514-18.387,42.131-29.089,71.563-26.763l18.378,1.458
		c50.631,4.014,93.172,51.468,89.232,101.267l-0.336,4.604c-5.418,68.221-42.098,109.626-84.248,135.975
		c-23.028,14.439-38.545,29.025-66.036,39.969c-13.428,5.338-22.281,10.344-37.21,15.053c-8.087,2.576-38.379,6.629-39.891,10.252
		c-24.063-15.238-37.257-21.644-58.539-40.135c-18.789-16.285-32.038-31.636-48.148-50.498
		c-21.103-24.783-69.349-83.863-66.102-125.34l0.467-6.115c4.94-62.407,58.371-126.676,117.721-121.972l24.539,1.989
		C257.281,1054.508,279.133,1084.231,298.675,1111.861L298.675,1111.861z M249.783,1398.326c2.493-1.869,37.603-8.313,44.177-10.236
		c15.175-4.314,27.613-7.262,42.049-12.809c28.236-10.816,50.274-21.049,74.926-36.175c45.812-28.087,87.906-65.085,93.716-138.369
		l0.466-6.117c4.65-58.753-41.106-119.115-99.82-123.773l-10.702-0.823c-21.495-1.68-40.096,2.401-55.561,8.676
		c-21.979,8.954-26.24,19.368-39.899,26.988c-4.762-4.074-10.056-17.679-16.154-24.84c-8.544-9.878-9.945-12.391-21.46-20.29
		c-17.097-11.868-35.932-22.456-63.354-24.604c-65.822-5.238-124.183,47.576-129.247,111.735l-0.578,7.675
		c-5.52,69.979,25.923,109.711,58.129,147.849c12.902,15.293,38.721,38.859,55.118,51.73c10.414,8.124,20.347,15.799,31.675,22.969
		C220.312,1382.338,242.519,1397.727,249.783,1398.326L249.783,1398.326z M584.411,1304.333
		c9.711,0.804,16.342-11.692,17.146-21.832l0.765-9.171c3.307-42.058-23.196-100.688-64.354-103.947l-6.106-0.458
		c-6.465-0.533-10.515,0.804-14.196,3.482c29.245,2.337,43.197,25.772,53.617,44.439c7.899,14.183,22.13,51.18,20.472,72.657
		c-0.3,3.886-4.018,8.946-8.387,8.595l-7.675-0.638c-5.977-0.467,0-2.313-8.946-3.77
		C570.05,1299.55,575.112,1303.622,584.411,1304.333L584.411,1304.333z M485.227,1270.248c-0.748,9.302,13.145,19.534,23.102,20.356
		c8.291,0.653,13.577-5.357,17.705-9.433c-0.691,12.16,7.639,26.877,19.439,27.813l6.089,0.463
		c14.884,1.232,15.688-20.484,10.123-30.087c-0.601,7.583-3.848,21.35-10.87,20.789c-15.109-1.231-19.068-15.764-24.297-25.065
		l0.636-7.694c-3.139,3.793-6.688,11.805-13.26,11.279l-7.675-0.561c-10.479-0.896-12.438-10.306-17.671-10.719
		C487.206,1267.281,485.337,1268.849,485.227,1270.248L485.227,1270.248z M562.728,1226.968l-0.128,1.515
		c-0.394,5.593-2.186,5.227-3.53,10.24l-20.226-21.355c-0.711,8.666-2.801,18.266-10.702,17.686l-3.082-0.289
		c-13.598-1.055-10.345-13.839-20.357-15.471c0.076,11.847,6.107,23.609,18.153,24.605l1.515,0.112
		c9.879,0.757,12.85-6.041,17.834-10.943c1.291,7.173,7.044,14.436,15.745,15.127c19.665,1.568,15.353-34.665,1.4-36.933
		C561.349,1215.855,563.253,1220.17,562.728,1226.968L562.728,1226.968z M-45.61,1171.074l-0.587,7.676
		c-0.801,9.877,4.241,18.833,13.904,19.588c7.546,0.646,13.707,0.942,15.743-5.172l-12.326,0.822
		c-5.404,0.523-10.289-6.983-9.757-13.083c0.869-11.287,29.873-47.81,37.846-54.569c11.617-9.766,38.016-33.614,56.962-32.158
		c10.54,0.869,12.857,3.836,19.608,6.219c-4.95-7.963-19.356-13.893-32.805-14.95l-3.071-0.28
		c-19.543-1.515-45,16.575-54.944,27.854C-22.992,1122.03-44.384,1156.121-45.61,1171.074L-45.61,1171.074z M-0.487,1205.509
		l-7.629-0.598l3.326-22.906c-6.005,1.688-10.178,11.403-10.768,19.245c-1.561,19.833,32.851,20.592,40.349-2.959l3.09,0.231
		c1.103,5.995,7.2,11.335,14.474,11.925l6.151,0.514c9.066,0.709,18.321-6.741,19.724-15.463c-8.497,0.065-8.274,4.004-15.699,3.434
		l-12.278-0.988c-6.209-0.476-9.943-9.254-9.533-16.174C23.107,1189.217,21.305,1207.246-0.487,1205.509L-0.487,1205.509z
		 M0.251,1137.633l-0.58,7.676c-0.411,4.937,4.948,8.131,10.132,8.545l4.583,0.344c4.118,0.355,9.935-4.063,11.449-8.365
		l3.083,0.222c1.505,9.947,5.174,15.885,17.199,16.819c9.31,0.755,19.021-8.842,20.001-18.509c-7.609,1.4-9.535,8.545-19.181,7.789
		l-3.022-0.224c-11.505-0.924-13.419-12.261-7.49-19.432l-1.578-1.215l-24.353,13.314c-0.531-3.484-1.223-3.604-0.942-7.787
		l0.531-6.107c0.523-6.976,3.894-7.733,7.096-11.814C9.158,1118.948,0.894,1129.305,0.251,1137.633L0.251,1137.633z" />
		<path fill="#010101" d="M-67.597,1039.614l1.512,0.121c6.049,0.456,20.823-27.108,48.322-25.541l0.234-3.022l-12.261-0.988
		C-54.151,1008.257-82.465,1038.457-67.597,1039.614L-67.597,1039.614z" />
		<path fill="#010101" d="M-76.835,1097.545c-0.178,2.503,0.58,4.717,2.729,4.887c4.191,0.288,35.173-39.323,41.747-44.963
		c7.975-6.864,16.52-11.457,25.989-16.463c8.842-4.651,29.124-6.042,33.541-9.356c-29.647-2.327-48.258,4.593-66.382,16.106
		C-51.837,1055.777-75.321,1078.759-76.835,1097.545L-76.835,1097.545z" />
		<path fill="#010101" d="M672.784,1163.105l0.355-4.604c-5.995-8.085-4.427-13.381-14.902-23.092
		c-7.267-6.806-15.052-11.745-28.593-12.794c7.21,7.332,13.13,9.536,21.292,19.022c3.66,4.306,13.95,23.896,15.461,24.025
		C669.816,1165.944,669.816,1164.731,672.784,1163.105L672.784,1163.105z" />
		<path fill="#010101" d="M652.203,1227.845l4.819-2.677c3.55-44.449-32.776-95.275-75.525-98.655
		c4.016,4.137,18.732,11.989,25.753,18.087c7.264,6.295,13.968,15.828,19.028,23.793
		C633.548,1179.802,648.711,1225.111,652.203,1227.845L652.203,1227.845z" />
		<path fill="#010101" d="M574.776,1338.19c5.864-2.634,12.324-3.677,18.768-3.677c4.705,0,9.411,0.467,13.95,1.684
		c4.425,1.101,8.668,2.854,12.514,5.357h0.039c3.845,2.558,7.151,5.717,9.674,9.545c2.876,4.481,4.576,9.522,4.576,14.88
		c0,2.975-0.523,5.941-1.515,8.688c2.69,4.65,4.073,9.823,4.073,15.277c0,7.208-1.926,14.192-6.031,20.187v0.059
		c-4.203,6.049-10.013,10.363-16.829,12.979c-6.199,2.372-12.828,3.249-19.479,3.249c-6.722,0-13.464-1.043-19.702-3.716
		c-4.409-1.866-8.478-4.427-11.915-7.749c-0.746,1.174-1.622,2.275-2.613,3.322c-4.948,5.304-11.672,8.143-18.9,8.143
		c-6.163,0-11.913-2.036-16.49-5.938c-2.503,1.398-5.175,2.558-7.919,3.512c-5.174,1.734-10.57,2.426-15.986,2.426
		c-7.731,0-15.165-1.456-21.813-4.651c-4.35,3.083-9.448,4.651-14.941,4.651c-5.919,0-11.615-1.904-16.096-5.752
		c-4.539,3.716-10.179,5.752-16.156,5.752c-4.352,0-8.552-0.989-12.27-3.024c-3.717,1.981-7.844,3.024-12.083,3.024
		c-4.014,0-7.788-0.989-11.224-2.801c-5.116,1.924-10.532,2.801-16.006,2.801c-6.201,0-12.251-1.271-17.778-4.199
		c-1.568-0.804-3.08-1.738-4.463-2.766c-3.025,1.904-6.275,3.36-9.712,4.539c-5.135,1.734-10.533,2.43-15.93,2.43
		c-12.628,0-24.54-3.832-33.496-13.018c-0.456-0.483-0.933-1.009-1.325-1.476c-1.118,2.278-2.567,4.427-4.378,6.351
		c-4.931,5.303-11.683,8.143-18.879,8.143c-6.341,0-12.28-2.202-16.977-6.273c-1.344,0.857-2.725,1.618-4.193,2.368
		c-5.453,2.634-11.392,3.905-17.499,3.905c-3.604,0-7.152-0.391-10.634-1.345l-0.066-0.058c-0.755-0.166-1.493-0.391-2.204-0.634
		c-3.137,1.345-6.573,2.036-10.169,2.036c-3.438,0-6.742-0.653-9.767-1.904c-4.537,1.437-9.301,1.904-14.07,1.904
		c-6.986,0-13.953-1.345-19.882-5.23c-4.423-2.854-7.861-6.687-10.177-11.299c-1.167,3.099-2.839,5.883-5.24,8.383
		c-4.931,5.304-11.669,8.143-18.889,8.143c-4.184,0-8.133-0.931-11.745-2.801c-3.531,1.866-7.5,2.801-11.618,2.801
		c-4.015,0-7.797-0.989-11.16-2.801c-5.135,1.924-10.543,2.801-15.994,2.801c-6.229,0-12.326-1.271-17.844-4.199
		c-1.58-0.804-3.092-1.738-4.473-2.766c-3.024,1.904-6.275,3.36-9.665,4.539c-5.174,1.734-10.571,2.43-15.979,2.43
		c-9.302,0-18.209-2.094-25.819-6.853c-4.763,4.461-10.992,6.853-17.668,6.853c-6.75,0-12.438-2.202-16.807-5.938
		c-4.583,3.901-10.457,5.938-16.62,5.938c-15.875,0-25.931-12.103-25.931-27.341v-56.605c0-6.722,1.858-13.296,6.341-18.546
		c4.931-5.751,11.961-8.776,19.592-8.776c7.498,0,14.53,2.967,19.524,8.719c2.727,3.141,4.539,6.818,5.528,10.7
		c5.583,0.297,10.924,1.738,15.872,4.427c2.447,1.325,4.585,2.912,6.574,4.705c3.251-2.558,6.854-4.593,10.702-6.03
		c5.686-2.279,11.681-3.287,17.778-3.287c8.087,0,15.986,1.812,22.96,5.938c1.625,0.935,3.137,2.001,4.603,3.102
		c2.905-2.279,6.163-4.091,9.646-5.474c6.387-2.615,13.307-3.565,20.16-3.565c7.04,0,14.369,0.819,20.944,3.508
		c1.625,0.691,3.137,1.44,4.649,2.391c4.176-3.623,9.694-5.771,16.334-5.771c2.96,0,5.751,0.413,8.43,1.271
		c2.961-0.857,6.051-1.271,9.188-1.271c1.446,0,2.839,0.054,4.241,0.243c0.643-1.866,1.4-3.662,2.381-5.362
		c2.204-3.716,5.229-6.74,8.966-8.961l0.158-0.116l0.112-0.112c3.969-2.26,8.386-3.434,12.969-3.434
		c5.408,0,10.466,1.699,14.83,4.728c4.595-4.129,10.515-6.35,16.865-6.35c7.62,0,14.642,3.021,19.534,8.834
		c2.662,3.155,4.408,6.74,5.34,10.642c7.105,0.243,13.904,2.167,19.938,5.941c4.303-3.774,9.943-6.053,16.816-6.053
		c2.886,0,5.752,0.413,8.365,1.271c2.951-0.857,6.097-1.271,9.234-1.271c5.995,0,11.812,1.514,17.1,4.295
		c0.28,0.189,0.632,0.371,0.934,0.525c1.215-0.638,2.503-1.217,3.847-1.665c5.677-2.275,11.67-3.283,17.777-3.283
		c8.088,0,15.985,1.812,22.952,5.938c1.588,0.935,3.137,1.997,4.539,3.102c2.969-2.279,6.236-4.091,9.655-5.478
		c6.387-2.611,13.314-3.565,20.228-3.565c5.938,0,12.046,0.599,17.741,2.406c0.748-4.145,2.335-8.026,4.873-11.465
		c4.839-6.628,12.272-10.174,20.413-10.174c7.565,0,14.53,3.021,19.479,8.718l0.058,0.116c2.781,3.21,4.52,6.872,5.527,10.773
		c1.213-0.189,2.503-0.243,3.772-0.243c5.92,0,11.501,1.923,16.04,5.639c1.758-0.931,3.548-1.792,5.416-2.483
		c5.678-2.275,11.69-3.283,17.778-3.283c8.087,0,15.988,1.812,22.951,5.938c0.374,0.243,0.71,0.409,1.065,0.652
		c4.35-4.014,10.179-6.462,17.199-6.462c2.915,0,5.752,0.413,8.442,1.271c2.895-0.857,6.033-1.271,9.189-1.271
		C564.411,1334.513,569.75,1335.78,574.776,1338.19L574.776,1338.19z" />
		<path fill="#FFFFFF" d="M574.477,1349.416c1.271-0.877,2.614-1.588,4.015-2.226c4.707-2.147,9.86-2.947,15.052-2.947
		c3.848,0,7.731,0.391,11.522,1.329c3.361,0.873,6.687,2.221,9.636,4.126c2.69,1.812,5.118,4.013,6.854,6.76
		c1.926,2.839,3.024,6.033,3.024,9.521c0,3.492-1.156,6.76-3.304,9.418c0.767,0.765,1.379,1.642,2.016,2.519
		c2.58,3.526,3.792,7.675,3.792,12.024c0,5.249-1.287,10.31-4.296,14.736l0,0c-3.024,4.407-7.32,7.486-12.271,9.41
		c-5.06,1.928-10.588,2.615-16.005,2.615c-5.398,0-10.849-0.804-15.855-2.967c-4.409-1.87-8.498-4.597-11.412-8.498
		c-2.652-3.589-4.276-7.733-4.276-12.272c0-4.014,1.551-7.729,4.409-10.515c0.128-0.186,0.28-0.293,0.464-0.482
		c-1.269-1.622-2.26-3.419-2.969-5.339c-1.979-0.115-3.938-0.711-5.749-1.274c-0.114-0.073-0.282-0.128-0.468-0.186
		c-0.336,1.271-0.525,2.669-0.636,3.901c-0.222,3.01-0.354,6.057-0.354,9.078v10.924c0,4.612-1.234,9.15-4.484,12.569
		c-3.063,3.307-7.264,5.061-11.803,5.061c-4.574,0-8.701-1.793-11.803-5.192l-0.039-0.038c-1.232-1.345-2.147-2.854-2.856-4.48
		c-0.933,0.935-1.904,1.792-2.969,2.614c-2.951,2.314-6.331,3.96-9.881,5.192c-4.125,1.383-8.496,1.904-12.848,1.904
		c-8.532,0-16.678-2.09-23.325-7.267c-0.504,0.861-1.14,1.681-1.849,2.43c-3.084,3.21-7.153,4.837-11.58,4.837
		c-3.94,0-7.711-1.271-10.515-4.203c-1.809-1.792-3.359-4.052-4.76-6.199l-0.056-0.132l-1.232-1.978
		c-0.691,2.801-2.035,5.415-4.183,7.563c-3.083,3.155-7.079,4.948-11.504,4.948c-4.65,0-9.002-1.793-12.1-5.343v-0.073
		c-0.041-0.038-0.112-0.038-0.112-0.112c-0.468,0.521-0.993,1.047-1.517,1.515c-3.024,2.558-6.687,4.014-10.626,4.014
		c-3.901,0-7.374-1.568-10.232-4.126c-1.047,0.521-2.206,1.043-3.307,1.568c-4.317,1.754-8.964,2.558-13.69,2.558
		c-4.575,0-9.112-0.935-13.297-3.083c-3.307-1.758-6.22-4.148-8.442-7.169c-1.029,1.174-2.204,2.221-3.475,3.155
		c-2.915,2.314-6.295,3.96-9.843,5.192c-4.127,1.383-8.479,1.904-12.828,1.904c-9.936,0-19.422-2.801-26.521-10.121
		c-6.91-7.1-9.701-16.397-9.701-26.239c0-1.275,0.046-2.542,0.168-3.905c-1.513-0.225-2.961-0.673-4.296-1.086
		c-0.112-0.073-0.297-0.127-0.477-0.186c-0.344,1.271-0.521,2.669-0.641,3.901c-0.272,3.01-0.348,6.057-0.348,9.082v10.92
		c0,4.612-1.213,9.15-4.463,12.569c-3.137,3.307-7.264,5.061-11.803,5.061c-4.604,0-8.732-1.793-11.869-5.191v-0.035
		c-1.561-1.738-2.679-3.739-3.372-5.887c-2.793,3.495-6.163,6.223-10.169,8.143c-4.127,2.036-8.61,2.971-13.261,2.971
		c-2.735,0-5.462-0.355-8.143-1.047c-1.924-0.521-3.707-1.155-5.406-2.032c-2.727,2.032-5.974,3.079-9.523,3.079
		c-3.373,0-6.584-0.989-9.19-2.913c-0.186,0.055-0.346,0.186-0.531,0.225c-4.286,2.167-9.348,2.688-14.118,2.688
		c-5.063,0-10.281-0.804-14.54-3.604c-4.127-2.727-6.965-6.574-8.255-11.337c-1.047-3.901-1.281-8.197-1.281-12.214v-14.192
		c-1.856,0.861-3.828,1.325-5.929,1.325c-2.138,0-4.407-0.691-6.443-1.325c-0.12-0.073-0.297-0.131-0.475-0.186
		c-0.282,1.268-0.516,2.669-0.625,3.901c-0.251,3.01-0.299,6.054-0.299,9.078v10.924c0,4.612-1.277,9.15-4.537,12.569
		c-3.09,3.307-7.266,5.061-11.803,5.061c-4.529,0-8.608-1.754-11.683-5.007c-0.344,0.302-0.707,0.638-1.054,0.993
		c-2.949,2.558-6.687,4.014-10.625,4.014c-3.896,0-7.385-1.568-10.246-4.126c-1.033,0.521-2.146,1.043-3.304,1.568
		c-4.305,1.754-8.956,2.558-13.605,2.558c-4.651,0-9.189-0.935-13.317-3.083c-3.359-1.758-6.273-4.148-8.496-7.169
		c-1.028,1.174-2.194,2.221-3.419,3.155c-2.968,2.314-6.341,3.96-9.889,5.192c-4.127,1.383-8.479,1.904-12.84,1.904
		c-9.945,0-19.424-2.801-26.51-10.121c-0.523-0.525-0.999-1.047-1.457-1.646c-0.691,2.392-1.812,4.612-3.484,6.463
		c-3.146,3.511-7.384,5.304-12.037,5.304c-10.42,0-16.171-7.729-16.171-17.63v-22.037c0-0.599-0.048-1.754-0.161-2.781
		c-0.12,0.15-0.299,0.336-0.363,0.56c-0.458,1.754-0.458,5.304-0.458,6.984v17.274c0,4.427-1.167,8.741-4.062,12.176
		c-3.156,3.661-7.507,5.454-12.214,5.454c-10.468,0-16.22-7.733-16.22-17.63v-56.605c0-4.389,1.101-8.761,4.004-12.195
		c3.083-3.604,7.453-5.415,12.216-5.415c4.705,0,9.058,1.738,12.148,5.361c2.961,3.434,4.127,7.787,4.127,12.249v2.391
		c2.148-0.39,4.303-0.617,6.509-0.617c4.715,0,9.302,1.027,13.495,3.306c4.184,2.26,7.488,5.64,9.823,9.823
		c0.234,0.41,0.458,0.877,0.691,1.271c0.935-1.438,2.036-2.781,3.202-4.053l0.056-0.058c3.249-3.492,7.254-6.126,11.681-7.86
		c4.539-1.738,9.365-2.562,14.25-2.562c6.34,0,12.56,1.349,18.029,4.597c3.896,2.26,7.2,5.246,9.759,8.796
		c0.412-0.711,0.867-1.349,1.4-2.036c2.961-3.959,7.144-6.647,11.683-8.498c5.182-2.167,10.932-2.858,16.498-2.858
		c5.705,0,11.868,0.579,17.21,2.785c4.079,1.699,7.507,4.314,10.011,7.749c2.157-6.107,7.03-10.402,14.708-10.402
		c2.961,0,5.798,0.691,8.199,2.074c2.893-1.457,6.097-2.074,9.421-2.074c4.409,0,8.591,1.104,12.438,3.14
		c0.056,0,0.124-0.077,0.168-0.077v-0.034c0-1.928,0-3.909,0.18-5.829c0.232-2.507,0.923-4.948,2.268-7.096
		c1.334-2.338,3.26-4.203,5.528-5.586l0.114-0.055l0.044-0.077c2.447-1.379,5.25-2.147,8.087-2.147
		c4.193,0,8.023,1.626,11.113,4.484c2.315,2.202,3.94,5.003,4.585,8.217c0.112,0.56,0.176,1.213,0.295,1.792
		c0.226-3.716,1.215-7.394,3.596-10.364l0.066-0.054c2.961-3.773,7.264-5.697,12.037-5.697c4.714,0,9.066,1.738,12.092,5.415
		c2.791,3.307,3.894,7.433,3.894,11.747v3.021c2.381-0.463,4.817-0.688,7.264-0.688c5.864,0,11.505,1.398,16.519,4.535
		c2.727,1.665,4.995,3.773,6.965,6.165c2.092-6.351,7.032-10.812,14.895-10.812c2.958,0,5.751,0.688,8.179,2.07
		c2.913-1.457,6.117-2.07,9.421-2.07c4.417,0,8.676,1.101,12.58,3.171c1.848,0.989,3.528,2.279,4.873,3.735
		c2.428-1.866,5.118-3.322,7.953-4.48c4.539-1.738,9.375-2.562,14.25-2.562c6.331,0,12.494,1.349,18.006,4.597
		c3.901,2.26,7.172,5.246,9.783,8.796c0.413-0.711,0.879-1.349,1.328-2.036c3.024-3.959,7.15-6.647,11.765-8.498
		c5.172-2.167,10.926-2.858,16.492-2.858c5.695,0,11.856,0.579,17.197,2.785c3.905,1.642,7.227,4.071,9.676,7.339v-10.758
		c0-4.427,0.916-8.795,3.604-12.38c2.949-4.129,7.487-6.238,12.55-6.238c4.727,0,9.002,1.812,12.139,5.415l0,0
		c3.027,3.492,4.13,7.919,4.13,12.458v7.301c1.062-1.027,2.147-2.017,3.321-2.839l0.059-0.055c2.671-1.981,5.885-2.896,9.189-2.896
		c4.071,0,7.844,1.44,10.754,4.241c1.57,1.437,2.728,3.194,3.55,5.06c3.024-3.024,6.667-5.303,10.7-6.871
		c4.52-1.738,9.357-2.562,14.23-2.562c6.351,0,12.55,1.349,18.021,4.597c3.158,1.847,5.886,4.071,8.217,6.76
		c1.96-6.535,6.967-11.225,14.978-11.225c2.969,0,5.827,0.691,8.199,2.074c2.914-1.457,6.106-2.074,9.433-2.074
		c4.407,0,8.646,1.104,12.551,3.171C572.496,1348.013,573.543,1348.651,574.477,1349.416L574.477,1349.416z M229.324,1380.75
		c0,1.514,0.161,4.427,1.213,5.644c0.578,0.707,1.055,0.745,1.926,0.745c0.456,0,0.803-0.448,1.033-0.745
		c1.114-1.329,1.281-4.354,1.281-6.053c0-1.681-0.114-3.662-0.757-5.23l-0.046-0.055c-0.188-0.467-0.533-1.213-0.942-1.514l0,0
		c-0.114-0.112-0.412-0.112-0.57-0.112c-0.346,0-0.711,0.055-1.057,0.278c-0.521,0.359-0.979,1.178-1.213,1.758v0.054
		C229.485,1377.092,229.324,1379.07,229.324,1380.75L229.324,1380.75z" />
		<path fill="#ED2224" d="M-34.169,1342.466v19.388c1.634-1.924,3.258-3.435,4.836-4.539c1.561-1.101,3.314-1.981,5.23-2.503
		c1.924-0.58,3.958-0.857,6.163-0.857c3.314,0,6.275,0.688,8.842,2.089c2.561,1.457,4.529,3.473,5.976,6.165
		c0.935,1.491,1.578,3.249,1.923,5.227c0.299,1.928,0.458,4.13,0.458,6.633v25.008c0,2.576-0.636,4.539-1.783,5.863
		c-1.234,1.363-2.803,2.056-4.772,2.056c-4.305,0-6.46-2.67-6.46-7.919v-22.037c0-4.184-0.57-7.394-1.851-9.604
		c-1.23-2.26-3.621-3.36-7.04-3.36c-2.335,0-4.417,0.618-6.275,1.962c-1.858,1.287-3.26,3.156-4.193,5.416
		c-0.689,1.924-1.055,5.396-1.055,10.345v17.274c0,2.576-0.57,4.48-1.736,5.863c-1.167,1.364-2.793,2.056-4.817,2.056
		c-4.307,0-6.464-2.67-6.464-7.919v-56.605c0-2.596,0.535-4.573,1.7-5.922c1.103-1.286,2.661-1.978,4.763-1.978
		c2.024,0,3.65,0.691,4.817,1.978C-34.74,1337.893-34.169,1339.871-34.169,1342.466L-34.169,1342.466z M48.507,1383.667H23.043
		c0,2.951,0.645,5.582,1.748,7.842c1.168,2.279,2.746,3.982,4.65,5.118c1.924,1.104,4.074,1.699,6.397,1.699
		c1.568,0,2.969-0.186,4.247-0.521c1.271-0.358,2.549-0.954,3.784-1.757c1.213-0.75,2.316-1.568,3.305-2.484
		c1.056-0.877,2.337-2.108,3.959-3.623c0.693-0.579,1.624-0.877,2.849-0.877c1.325,0,2.445,0.371,3.249,1.12
		c0.823,0.691,1.281,1.734,1.281,3.083c0,1.154-0.458,2.557-1.393,4.125c-0.943,1.568-2.333,3.083-4.193,4.539
		c-1.856,1.456-4.174,2.669-7.03,3.604c-2.783,0.989-6.053,1.457-9.703,1.457c-8.376,0-14.885-2.392-19.534-7.154
		c-4.659-4.759-6.974-11.299-6.974-19.495c0-3.828,0.577-7.378,1.748-10.7c1.149-3.326,2.837-6.088,4.995-8.498
		c2.204-2.318,4.883-4.13,8.133-5.396c3.204-1.213,6.806-1.866,10.702-1.866c5.109,0,9.478,1.066,13.082,3.214
		c3.662,2.148,6.397,4.948,8.201,8.306c1.794,3.438,2.725,6.934,2.725,10.406c0,3.326-0.933,5.412-2.839,6.404
		C54.548,1383.2,51.935,1383.667,48.507,1383.667L48.507,1383.667z M23.041,1376.289h23.607c-0.28-4.5-1.512-7.807-3.606-10.012
		c-2.082-2.202-4.825-3.322-8.199-3.322c-3.305,0-5.929,1.116-8.023,3.322C24.733,1368.537,23.452,1371.862,23.041,1376.289
		L23.041,1376.289z M103.161,1399.597c-3.137,2.445-6.163,4.314-9.132,5.527c-2.96,1.213-6.275,1.866-9.879,1.866
		c-3.372,0-6.341-0.691-8.844-1.979c-2.496-1.328-4.475-3.136-5.864-5.415c-1.336-2.26-2.036-4.709-2.036-7.32
		c0-3.546,1.101-6.647,3.362-9.132c2.268-2.507,5.406-4.202,9.373-5.063c0.804-0.166,2.839-0.653,6.163-1.287
		c3.25-0.691,6.042-1.271,8.431-1.85c2.318-0.58,4.811-1.232,7.556-2.056c-0.129-3.418-0.823-5.921-2.036-7.54
		c-1.232-1.646-3.78-2.391-7.627-2.391c-3.305,0-5.798,0.482-7.49,1.398c-1.7,0.935-3.071,2.26-4.305,4.129
		c-1.157,1.862-2.045,3.079-2.503,3.658c-0.523,0.599-1.561,0.881-3.183,0.881c-1.466,0-2.746-0.468-3.782-1.402
		c-1.103-0.935-1.624-2.147-1.624-3.604c0-2.334,0.803-4.539,2.43-6.687c1.623-2.202,4.191-3.96,7.627-5.362
		c3.418-1.379,7.675-2.09,12.831-2.09c5.705,0,10.242,0.653,13.495,2.032c3.256,1.348,5.591,3.496,6.918,6.408
		c1.4,2.894,2.092,6.799,2.092,11.635c0,3.083-0.046,5.694-0.046,7.787c0,2.148-0.073,4.539-0.073,7.174
		c0,2.426,0.409,4.982,1.232,7.602c0.812,2.669,1.223,4.427,1.223,5.173c0,1.344-0.645,2.576-1.923,3.623
		c-1.215,1.101-2.681,1.681-4.242,1.681c-1.354,0-2.679-0.653-3.959-1.905C106.008,1403.854,104.674,1402.042,103.161,1399.597
		L103.161,1399.597z M102.292,1380.75c-1.868,0.691-4.649,1.456-8.311,2.225c-3.669,0.8-6.161,1.325-7.563,1.734
		c-1.4,0.355-2.727,1.047-4.006,2.147c-1.29,1.047-1.924,2.581-1.924,4.428c0,2.035,0.755,3.661,2.26,5.06
		c1.512,1.383,3.438,2.094,5.874,2.094c2.557,0,4.948-0.579,7.144-1.695c2.158-1.14,3.782-2.615,4.772-4.354
		c1.167-1.959,1.756-5.246,1.756-9.784v-1.854H102.292z M141.25,1388.148v10.924c0,2.615-0.597,4.612-1.877,5.94
		c-1.213,1.287-2.783,1.979-4.705,1.979c-1.848,0-3.428-0.691-4.649-2.056c-1.168-1.324-1.802-3.287-1.802-5.863v-36.342
		c0-5.828,2.147-8.775,6.341-8.775c2.202,0,3.716,0.691,4.705,2.093c0.935,1.325,1.457,3.361,1.578,6.03
		c1.561-2.669,3.139-4.705,4.763-6.03c1.671-1.401,3.828-2.093,6.575-2.093c2.771,0,5.404,0.691,8.021,2.093
		c2.549,1.325,3.828,3.137,3.828,5.396c0,1.588-0.523,2.917-1.623,3.96c-1.105,1.047-2.316,1.514-3.548,1.514
		c-0.516,0-1.634-0.297-3.494-0.877c-1.848-0.579-3.424-0.861-4.807-0.861c-1.926,0-3.503,0.506-4.714,1.515
		c-1.225,0.988-2.16,2.503-2.803,4.461c-0.691,2.001-1.149,4.319-1.393,7.046C141.409,1380.94,141.25,1384.247,141.25,1388.148
		L141.25,1388.148z M173.045,1355.093h1.447v-7.825c0-2.109,0.046-3.735,0.175-4.948c0.124-1.179,0.402-2.226,0.925-3.099
		c0.523-0.861,1.232-1.553,2.223-2.147c0.916-0.579,1.97-0.804,3.183-0.804c1.626,0,3.136,0.58,4.492,1.847
		c0.867,0.822,1.437,1.812,1.671,3.028c0.233,1.175,0.344,2.913,0.344,5.061v8.888h4.772c1.868,0,3.25,0.487,4.249,1.364
		c0.989,0.861,1.445,1.962,1.445,3.36c0,1.738-0.691,2.971-2.082,3.662c-1.4,0.711-3.373,1.047-5.939,1.047h-2.447v23.98
		c0,2.035,0.065,3.584,0.243,4.686c0.124,1.116,0.514,1.996,1.101,2.688c0.645,0.706,1.682,1.043,3.083,1.043
		c0.755,0,1.802-0.186,3.081-0.41c1.271-0.297,2.323-0.409,3.026-0.409c1.101,0,2.026,0.409,2.913,1.232
		c0.803,0.877,1.215,1.924,1.215,3.137c0,2.09-1.167,3.716-3.436,4.836c-2.268,1.101-5.583,1.681-9.881,1.681
		c-4.071,0-7.143-0.691-9.253-2.09c-2.082-1.349-3.482-3.253-4.118-5.644c-0.645-2.445-0.989-5.655-0.989-9.711v-25.023h-1.736
		c-1.858,0-3.324-0.448-4.313-1.345c-0.981-0.861-1.441-2.035-1.441-3.36c0-1.402,0.525-2.503,1.561-3.364
		C169.609,1355.577,171.058,1355.093,173.045,1355.093L173.045,1355.093z M218.968,1342.018v19.947
		c2.447-2.561,4.948-4.538,7.49-5.887c2.567-1.325,5.706-2.017,9.487-2.017c4.305,0,8.086,1.027,11.391,3.063
		c3.25,2.055,5.752,5.079,7.556,8.966c1.812,3.901,2.735,8.498,2.735,13.855c0,3.94-0.514,7.563-1.512,10.87
		c-1.037,3.264-2.438,6.165-4.361,8.552c-1.923,2.43-4.241,4.315-6.966,5.64c-2.745,1.291-5.706,1.982-9.02,1.982
		c-1.98,0-3.905-0.244-5.642-0.766c-1.746-0.467-3.256-1.104-4.539-1.854c-1.211-0.765-2.267-1.588-3.136-2.441
		c-0.867-0.823-2.024-2.036-3.482-3.682v1.29c0,2.445-0.578,4.315-1.746,5.547c-1.215,1.252-2.681,1.905-4.529,1.905
		c-1.812,0-3.324-0.653-4.361-1.905c-1.103-1.231-1.69-3.102-1.69-5.547v-56.922c0-2.635,0.523-4.67,1.624-6.015
		c1.055-1.344,2.567-2.035,4.427-2.035c2.036,0,3.597,0.634,4.649,1.924C218.447,1337.815,218.968,1339.627,218.968,1342.018
		L218.968,1342.018z M219.603,1380.75c0,5.172,1.167,9.189,3.558,11.99c2.381,2.785,5.455,4.184,9.302,4.184
		c3.305,0,6.163-1.438,8.479-4.315c2.381-2.839,3.615-6.906,3.615-12.268c0-3.438-0.525-6.386-1.524-8.835
		c-0.989-2.503-2.389-4.427-4.173-5.751c-1.812-1.398-3.967-2.056-6.395-2.056c-2.447,0-4.653,0.657-6.623,2.056
		c-1.923,1.324-3.434,3.307-4.539,5.863C220.136,1374.18,219.603,1377.205,219.603,1380.75L219.603,1380.75z M280.991,1388.148
		v10.924c0,2.615-0.626,4.612-1.858,5.94c-1.215,1.287-2.839,1.979-4.697,1.979c-1.924,0-3.438-0.691-4.651-2.056
		c-1.232-1.324-1.812-3.287-1.812-5.863v-36.342c0-5.828,2.092-8.775,6.35-8.775c2.148,0,3.707,0.691,4.649,2.093
		c0.981,1.325,1.515,3.361,1.626,6.03c1.512-2.669,3.137-4.705,4.763-6.03c1.634-1.401,3.836-2.093,6.563-2.093
		c2.749,0,5.408,0.691,7.965,2.093c2.568,1.325,3.845,3.137,3.845,5.396c0,1.588-0.523,2.917-1.642,3.96
		c-1.103,1.047-2.27,1.514-3.528,1.514c-0.477,0-1.626-0.297-3.438-0.877c-1.856-0.579-3.482-0.861-4.882-0.861
		c-1.924,0-3.482,0.506-4.651,1.515c-1.213,0.988-2.15,2.503-2.839,4.461c-0.645,2.001-1.12,4.319-1.4,7.046
		C281.111,1380.94,280.991,1384.247,280.991,1388.148L280.991,1388.148z M344.822,1383.667h-25.51
		c0.054,2.951,0.634,5.582,1.792,7.842c1.177,2.279,2.747,3.982,4.653,5.118c1.924,1.104,4.087,1.699,6.349,1.699
		c1.568,0,3.024-0.186,4.314-0.521c1.25-0.358,2.54-0.954,3.696-1.757c1.234-0.75,2.335-1.568,3.382-2.484
		c0.989-0.877,2.334-2.108,3.958-3.623c0.691-0.579,1.624-0.877,2.839-0.877c1.347,0,2.447,0.371,3.253,1.12
		c0.82,0.691,1.288,1.734,1.288,3.083c0,1.154-0.525,2.557-1.4,4.125c-0.937,1.568-2.319,3.083-4.184,4.539
		c-1.867,1.456-4.184,2.669-7.044,3.604c-2.762,0.989-6.051,1.457-9.689,1.457c-8.387,0-14.886-2.392-19.534-7.154
		c-4.653-4.759-6.986-11.299-6.986-19.495c0-3.828,0.58-7.378,1.756-10.7c1.103-3.326,2.783-6.088,4.987-8.498
		c2.201-2.318,4.892-4.13,8.141-5.396c3.212-1.213,6.74-1.866,10.7-1.866c5.063,0,9.415,1.066,13.073,3.214
		c3.68,2.148,6.406,4.948,8.218,8.306c1.771,3.438,2.726,6.934,2.726,10.406c0,3.326-0.952,5.412-2.856,6.404
		C350.872,1383.2,348.201,1383.667,344.822,1383.667L344.822,1383.667z M319.312,1376.289h23.663
		c-0.281-4.5-1.514-7.807-3.605-10.012c-2.092-2.202-4.836-3.322-8.255-3.322c-3.268,0-5.883,1.116-7.973,3.322
		C321.068,1368.537,319.778,1371.862,319.312,1376.289L319.312,1376.289z M399.484,1399.597c-3.136,2.445-6.219,4.314-9.129,5.527
		c-2.971,1.213-6.277,1.866-9.88,1.866c-3.362,0-6.35-0.691-8.836-1.979c-2.559-1.328-4.48-3.136-5.881-5.415
		c-1.327-2.26-2.036-4.709-2.036-7.32c0-3.546,1.104-6.647,3.38-9.132c2.262-2.507,5.36-4.202,9.356-5.063
		c0.803-0.166,2.839-0.653,6.163-1.287c3.25-0.691,6.051-1.271,8.364-1.85c2.337-0.58,4.895-1.232,7.639-2.056
		c-0.15-3.418-0.822-5.921-2.055-7.54c-1.271-1.646-3.772-2.391-7.619-2.391c-3.307,0-5.81,0.482-7.488,1.398
		c-1.699,0.935-3.102,2.26-4.316,4.129c-1.159,1.862-2.034,3.079-2.503,3.658c-0.523,0.599-1.55,0.881-3.195,0.881
		c-1.454,0-2.725-0.468-3.771-1.402c-1.118-0.935-1.622-2.147-1.622-3.604c0-2.334,0.801-4.539,2.428-6.687
		c1.644-2.202,4.202-3.96,7.639-5.362c3.418-1.379,7.655-2.09,12.828-2.09c5.697,0,10.236,0.653,13.502,2.032
		c3.251,1.348,5.584,3.496,6.911,6.408c1.399,2.894,2.035,6.799,2.035,11.635c0,3.083,0,5.694,0,7.787
		c-0.058,2.148-0.058,4.539-0.058,7.174c0,2.426,0.411,4.982,1.215,7.602c0.82,2.669,1.157,4.427,1.157,5.173
		c0,1.344-0.578,2.576-1.849,3.623c-1.213,1.101-2.688,1.681-4.241,1.681c-1.345,0-2.688-0.653-3.96-1.905
		C402.325,1403.854,400.943,1402.042,399.484,1399.597L399.484,1399.597z M398.628,1380.75c-1.887,0.691-4.67,1.456-8.33,2.225
		c-3.662,0.8-6.163,1.325-7.563,1.734c-1.381,0.355-2.727,1.047-3.996,2.147c-1.29,1.047-1.925,2.581-1.925,4.428
		c0,2.035,0.745,3.661,2.262,5.06c1.454,1.383,3.434,2.094,5.863,2.094c2.576,0,4.948-0.579,7.115-1.695
		c2.185-1.14,3.772-2.615,4.8-4.354c1.178-1.959,1.774-5.246,1.774-9.784V1380.75z M457.102,1400.996l-11.506-18.916l-7.042,6.705
		v10.364c0,2.503-0.707,4.466-1.979,5.79c-1.344,1.363-2.856,2.056-4.593,2.056c-1.979,0-3.548-0.692-4.727-2.056
		c-1.137-1.324-1.736-3.287-1.736-5.863v-55.598c0-2.912,0.6-5.118,1.7-6.628c1.101-1.515,2.726-2.279,4.761-2.279
		c2.034,0,3.604,0.691,4.763,2.035c1.213,1.398,1.81,3.435,1.81,6.127v31.559l14.643-15.351c1.812-1.924,3.212-3.248,4.127-3.959
		c0.989-0.691,2.148-1.027,3.494-1.027c1.622,0,2.969,0.506,4.071,1.549c1.103,1.062,1.624,2.337,1.624,3.905
		c0,1.924-1.792,4.423-5.284,7.621l-6.932,6.347l13.375,21.048c0.989,1.572,1.681,2.728,2.092,3.55
		c0.484,0.804,0.636,1.568,0.636,2.318c0,2.051-0.563,3.677-1.663,4.909c-1.12,1.14-2.633,1.793-4.502,1.793
		c-1.55,0-2.781-0.41-3.66-1.291C459.713,1404.824,458.614,1403.274,457.102,1400.996L457.102,1400.996z M513.315,1383.667h-25.473
		c0,2.951,0.65,5.582,1.755,7.842c1.157,2.279,2.726,3.982,4.649,5.118c1.906,1.104,4.073,1.699,6.406,1.699
		c1.549,0,2.951-0.186,4.241-0.521c1.27-0.358,2.538-0.954,3.771-1.757c1.213-0.75,2.315-1.568,3.307-2.484
		c1.045-0.877,2.335-2.108,3.959-3.623c0.691-0.579,1.624-0.877,2.839-0.877c1.364,0,2.467,0.371,3.324,1.12
		c0.804,0.691,1.215,1.734,1.215,3.083c0,1.154-0.448,2.557-1.4,4.125c-0.915,1.568-2.315,3.083-4.162,4.539
		c-1.869,1.456-4.184,2.669-7.044,3.604c-2.783,0.989-6.051,1.457-9.711,1.457c-8.386,0-14.881-2.392-19.534-7.154
		c-4.65-4.759-6.965-11.299-6.965-19.495c0-3.828,0.58-7.378,1.736-10.7c1.159-3.326,2.84-6.088,5.005-8.498
		c2.203-2.318,4.877-4.13,8.123-5.396c3.212-1.213,6.799-1.866,10.7-1.866c5.138,0,9.487,1.066,13.093,3.214
		c3.66,2.148,6.386,4.948,8.199,8.306c1.792,3.438,2.727,6.934,2.727,10.406c0,3.326-0.935,5.412-2.802,6.404
		C519.365,1383.2,516.73,1383.667,513.315,1383.667L513.315,1383.667z M487.842,1376.289h23.62c-0.295-4.5-1.512-7.807-3.621-10.012
		c-2.092-2.202-4.818-3.322-8.198-3.322c-3.253,0-5.922,1.116-8.012,3.322C489.537,1368.537,488.253,1371.862,487.842,1376.289
		L487.842,1376.289z M547.956,1388.148v10.924c0,2.615-0.563,4.612-1.851,5.94c-1.213,1.287-2.8,1.979-4.726,1.979
		c-1.904,0-3.417-0.691-4.651-2.056c-1.213-1.324-1.792-3.287-1.792-5.863v-36.342c0-5.828,2.092-8.775,6.331-8.775
		c2.224,0,3.735,0.691,4.725,2.093c0.915,1.325,1.44,3.361,1.551,6.03c1.587-2.669,3.137-4.705,4.78-6.03
		c1.682-1.401,3.83-2.093,6.574-2.093c2.728,0,5.396,0.691,7.953,2.093c2.615,1.325,3.906,3.137,3.906,5.396
		c0,1.588-0.525,2.917-1.7,3.96c-1.045,1.047-2.26,1.514-3.548,1.514c-0.448,0-1.624-0.297-3.419-0.877
		c-1.865-0.579-3.493-0.861-4.894-0.861c-1.866,0-3.417,0.506-4.632,1.515c-1.232,0.988-2.167,2.503-2.856,4.461
		c-0.654,2.001-1.103,4.319-1.347,7.046C548.069,1380.94,547.956,1384.247,547.956,1388.148L547.956,1388.148z M617.394,1389.94
		c0,3.623-0.879,6.687-2.635,9.243c-1.757,2.581-4.295,4.501-7.73,5.829c-3.437,1.287-7.601,1.979-12.514,1.979
		c-4.649,0-8.699-0.766-12.025-2.167c-3.362-1.438-5.81-3.249-7.376-5.396c-1.624-2.094-2.371-4.315-2.371-6.463
		c0-1.402,0.447-2.673,1.512-3.662c0.972-1.043,2.315-1.514,3.832-1.514c1.379,0,2.443,0.297,3.19,0.988
		c0.693,0.657,1.402,1.568,2.094,2.785c1.345,2.333,2.913,4.071,4.763,5.246c1.864,1.159,4.423,1.68,7.62,1.68
		c2.612,0,4.779-0.575,6.442-1.753c1.7-1.14,2.503-2.484,2.503-3.94c0-2.337-0.859-3.959-2.613-5.006
		c-1.736-1.047-4.573-2.09-8.534-3.024c-4.483-1.102-8.141-2.275-10.982-3.55c-2.8-1.21-5.06-2.777-6.76-4.817
		c-1.68-1.997-2.54-4.484-2.54-7.397c0-2.611,0.802-5.061,2.372-7.374c1.513-2.337,3.828-4.198,6.854-5.582
		c3.098-1.401,6.76-2.093,11.056-2.093c3.36,0,6.387,0.336,9.058,1.027c2.689,0.711,4.949,1.699,6.761,2.858
		c1.792,1.178,3.117,2.503,4.054,3.901c0.988,1.44,1.474,2.839,1.474,4.241c0,1.456-0.523,2.673-1.513,3.662
		c-1.01,0.931-2.446,1.398-4.314,1.398c-1.346,0-2.447-0.352-3.362-1.102c-1.009-0.749-2.034-1.923-3.251-3.434
		c-1.008-1.29-2.167-2.317-3.509-3.063c-1.325-0.784-3.137-1.178-5.398-1.178c-2.392,0-4.371,0.521-5.883,1.514
		c-1.552,0.989-2.372,2.26-2.372,3.717c0,1.397,0.579,2.503,1.736,3.434c1.176,0.823,2.69,1.568,4.652,2.147
		c1.924,0.58,4.612,1.29,8.031,2.094c3.998,0.989,7.32,2.147,9.879,3.546c2.558,1.349,4.48,2.971,5.808,4.841
		C616.74,1385.401,617.394,1387.514,617.394,1389.94L617.394,1389.94z" />
		<path fill="#FFFFFF" d="M285.939,1192.652c2.092-5.93,4.239-11.859,6.395-17.754c2.103-5.928,4.241-11.856,6.341-17.842
		c-0.178,0-0.346,0-0.523,0c-1.746,4.816-3.436,9.646-5.182,14.418c-15.351,0-30.694,0-46.101,0
		c1.746-4.772,3.434-9.602,5.18-14.418c-0.867,0-1.688,0-2.567,0c-3.249,9.189-6.573,18.321-9.881,27.509
		c-3.249,9.188-6.572,18.331-9.889,27.519c0.889,0,1.69,0,2.559,0c2.337-6.465,4.661-12.923,6.994-19.432
		C254.844,1192.652,270.365,1192.652,285.939,1192.652L285.939,1192.652z M264.311,1254.421c-12.102,0-24.175,0-36.343,0
		c-12.071,0-24.241,0-36.333,0c-0.044,0-0.112,0-0.168,0c-8.43-0.344-14.25-4.129-16.929-10.936
		c-2.43-6.227-2.43-13.257,0.363-21.056c0.458-1.159,0.578-1.391,0.869-1.912c0.346-0.993,0.346-0.993,0.877-1.86
		c4.529-12.691,9.124-25.361,13.653-38.053c4.604-12.672,9.124-25.295,13.727-37.977c0.178-0.346,0.346-0.646,0.523-0.989
		c3.894-6.396,8.842-12.504,15.351-17.101c4.174-3.022,8.603-5.18,13.083-6.694c0.28-0.757,0.578-1.512,0.869-2.325
		c23.306,0,46.746,0,70.05,0c23.363,0,46.747,0,70.107,0c-2.501,7.042-4.985,14.019-7.488,20.992
		c-2.503,6.986-5.004,13.97-7.49,20.935c-2.912,0-5.771,0-8.684,0c-4.015,11.245-8.067,22.524-12.082,33.745
		c16.1,0,32.196,0,48.369,0c-3.77,10.534-7.561,21.049-11.277,31.583c-3.773,10.541-7.563,21.121-11.337,31.647
		c-16.639,0-33.261,0-49.826,0C297.574,1254.421,280.943,1254.421,264.311,1254.421L264.311,1254.421z" />
		<path fill="#010101" d="M239.147,1123.898c10.402,0,20.861,0,31.281,0c10.449,0,20.917,0,31.317,0
		c-2.315,6.517-4.648,13.091-7.03,19.6c-2.316,6.574-4.697,13.079-7.032,19.654c-9.833,0-19.712,0-29.469,0
		c1.672-4.821,3.418-9.6,5.172-14.418c-6.385,0-12.801,0-19.188,0c-4.315,11.98-8.601,23.904-12.904,35.829
		c-4.241,11.913-8.544,23.896-12.848,35.829c6.385,0,12.782,0,19.188,0c2.315-6.453,4.651-12.915,6.974-19.378
		c10.171,0,20.411,0,30.58,0c-2.679,7.51-5.406,15.007-8.087,22.515c-2.679,7.5-5.406,15.074-8.085,22.572
		c-10.702,0-21.45,0-32.084,0c-10.692,0-21.459,0-32.14,0c-5.937-0.235-9.896-2.793-11.822-7.676
		c-1.904-4.886-1.856-10.17,0.251-15.999c0.046-0.112,0.114-0.355,0.346-0.634c0.159-0.3,0.282-0.599,0.348-0.823
		c0,0,0-0.046,0.044-0.111c0-0.077,0-0.077,0-0.077c0.131-0.271,0.244-0.568,0.412-0.851c0.178-0.297,0.299-0.523,0.299-0.645
		c4.583-12.614,9.112-25.239,13.651-37.863c4.539-12.624,9.077-25.239,13.616-37.863c3.424-5.649,7.254-10.012,11.569-13.095
		c4.305-3.022,9.478-5.229,15.575-6.395C239.081,1124.009,239.081,1123.956,239.147,1123.898L239.147,1123.898z M310.255,1123.898
		c8.701,0,17.479,0,26.202,0c8.775,0,17.498,0,26.274,0c-3.024,8.374-6.032,16.807-9.059,25.239c-2.854,0-5.75,0-8.608,0
		c-4.295,11.858-8.534,23.728-12.793,35.596c-4.241,11.868-8.479,23.793-12.721,35.661c5.1,0,10.291,0,15.465,0
		c2.501-6.92,4.987-13.904,7.488-20.89c10.926,0,21.869,0,32.793,0c-2.801,7.789-5.527,15.528-8.328,23.271
		c-2.783,7.797-5.509,15.538-8.311,23.325c-15.351,0-30.628,0-45.979,0c-15.285,0-30.637,0-45.922,0
		c3.071-8.61,6.163-17.162,9.234-25.707c2.727,0,5.528,0,8.255,0c4.305-11.934,8.612-23.914,12.915-35.829
		c4.237-11.923,8.555-23.851,12.792-35.829c-2.841,0-5.752,0-8.601,0C304.315,1140.471,307.266,1132.153,310.255,1123.898
		L310.255,1123.898z" />
	</g>
</svg>
