<?xml version="1.0" encoding="utf-8"?>
<!-- Generator: Adobe Illustrator 16.0.0, SVG Export Plug-In . SVG Version: 6.00 Build 0)  -->
<!DOCTYPE svg PUBLIC "-//W3C//DTD SVG 1.1//EN" "http://www.w3.org/Graphics/SVG/1.1/DTD/svg11.dtd">
<svg version="1.1" id="Layer_1" xmlns="http://www.w3.org/2000/svg" xmlns:xlink="http://www.w3.org/1999/xlink" x="0px" y="0px"
	 width="458.4px" height="458.4px" viewBox="0 0 458.4 458.4" enable-background="new 0 0 458.4 458.4" xml:space="preserve">
<g>
	<g>
		<circle fill-rule="evenodd" clip-rule="evenodd" fill="#FFFFFF" cx="229.2" cy="229.2" r="229.2"/>
		<circle fill-rule="evenodd" clip-rule="evenodd" fill="#0095DA" cx="229.2" cy="229.2" r="221.287"/>
		<circle fill-rule="evenodd" clip-rule="evenodd" cx="229.2" cy="229.2" r="213.568"/>
		<circle fill-rule="evenodd" clip-rule="evenodd" fill="#0095DA" cx="229.2" cy="229.2" r="205.688"/>
		<circle fill-rule="evenodd" clip-rule="evenodd" fill="#FFFFFF" cx="229.2" cy="229.2" r="199.168"/>
		<circle fill-rule="evenodd" clip-rule="evenodd" cx="229.2" cy="229.2" r="190.087"/>
		<path fill="#0095DA" d="M293.004,277.849c0.011,2.508,0.438,4.697,1.304,6.56c0.854,1.873,2.102,3.318,3.745,4.348
			c1.643,1.04,3.635,1.565,5.989,1.577c1.522,0.011,2.99-0.164,4.403-0.525c1.401-0.352,2.661-0.942,3.777-1.774
			c1.117-0.833,1.993-1.95,2.65-3.351c0.646-1.413,0.986-3.166,0.997-5.258v-4.205c0-0.196-0.066-0.361-0.176-0.481
			c-0.12-0.132-0.284-0.208-0.481-0.241l-8.477-0.459c-0.197,0-0.339,0.055-0.438,0.164c-0.099,0.098-0.153,0.219-0.153,0.361v4.008
			c-0.012,0.492-0.132,0.844-0.351,1.063c-0.22,0.219-0.46,0.317-0.701,0.317c-0.307,0.011-0.547-0.099-0.744-0.329
			c-0.197-0.219-0.296-0.591-0.308-1.117v-10.315c0-0.164,0.033-0.296,0.099-0.383c0.066-0.099,0.165-0.143,0.296-0.143h10.974
			c0.164-0.011,0.307-0.065,0.416-0.175s0.175-0.252,0.175-0.416v-4.009c0-1.62-0.263-3.165-0.788-4.621
			c-0.515-1.446-1.271-2.737-2.277-3.877c-0.997-1.128-2.224-2.015-3.669-2.661c-1.446-0.657-3.1-0.986-4.961-0.996
			c-1.348-0.012-2.684,0.186-4.009,0.569c-1.324,0.394-2.54,1.007-3.636,1.839c-1.095,0.844-1.981,1.95-2.639,3.297
			c-0.657,1.357-0.997,3-1.019,4.939V277.849L293.004,277.849z M304.042,260.502c0.012-0.493,0.11-0.843,0.296-1.063
			c0.187-0.219,0.417-0.328,0.69-0.317c0.263-0.011,0.471,0.033,0.624,0.131c0.143,0.109,0.263,0.307,0.328,0.625
			c0.077,0.307,0.121,0.777,0.143,1.401c0.022,0.636,0.022,1.468,0.022,2.508c0.011,0.11-0.033,0.187-0.109,0.229
			c-0.077,0.045-0.241,0.077-0.482,0.088c-0.252,0.012-0.624,0.012-1.117,0.012c-0.099,0-0.196-0.033-0.273-0.088
			c-0.077-0.066-0.121-0.143-0.121-0.241V260.502L304.042,260.502z M318.236,289.808c0,0.164,0.044,0.295,0.132,0.383
			c0.087,0.099,0.196,0.143,0.328,0.143h9.593c0.165,0,0.307-0.066,0.416-0.176c0.11-0.109,0.176-0.252,0.176-0.416v-21.354
			c0-1.763,0.153-3.165,0.46-4.205c0.317-1.04,0.821-1.785,1.511-2.234c0.68-0.448,1.577-0.668,2.694-0.657
			c0.164,0,0.285-0.043,0.351-0.131c0.076-0.088,0.109-0.197,0.109-0.328v-9.463c0-0.131-0.044-0.24-0.12-0.328
			c-0.077-0.088-0.176-0.131-0.274-0.131c-0.679-0.012-1.292,0.01-1.828,0.076c-0.548,0.055-1.008,0.208-1.402,0.438
			c-0.383,0.23-0.689,0.613-0.909,1.129c-0.065,0.164-0.131,0.284-0.197,0.35c-0.065,0.077-0.131,0.109-0.196,0.109
			c-0.088-0.01-0.176-0.12-0.263-0.328c-0.099-0.208-0.197-0.449-0.307-0.723c-0.099-0.273-0.208-0.515-0.307-0.723
			c-0.11-0.208-0.209-0.318-0.308-0.328h-9.264c-0.132,0-0.23,0.043-0.296,0.143c-0.065,0.087-0.099,0.219-0.099,0.383V289.808
			L318.236,289.808z M356.542,264.116c0.176-0.012,0.317-0.066,0.449-0.176s0.197-0.252,0.208-0.416c0-1.643-0.208-3.209-0.646-4.72
			c-0.438-1.501-1.106-2.848-2.016-4.03s-2.069-2.125-3.493-2.814s-3.11-1.041-5.081-1.051c-1.468,0.01-2.837,0.262-4.107,0.777
			c-1.27,0.514-2.387,1.227-3.34,2.157c-0.964,0.919-1.708,2.004-2.245,3.241c-0.536,1.248-0.811,2.606-0.821,4.074
			c0.011,1.643,0.252,3.132,0.712,4.468s1.073,2.519,1.84,3.548s1.599,1.906,2.508,2.629c1.237,1.029,2.311,1.992,3.241,2.88
			c0.921,0.888,1.643,1.687,2.158,2.409c0.503,0.723,0.766,1.348,0.777,1.873c0,0.339-0.077,0.602-0.241,0.811
			c-0.153,0.197-0.383,0.307-0.679,0.307c-0.504-0.012-0.931-0.352-1.271-1.02c-0.351-0.668-0.559-1.598-0.635-2.792
			c-0.033-0.132-0.099-0.241-0.187-0.329c-0.099-0.087-0.208-0.131-0.34-0.131l-7.162,0.46c-0.131,0-0.24,0.065-0.328,0.175
			s-0.132,0.252-0.132,0.416c0.012,2.201,0.23,4.086,0.646,5.641c0.427,1.555,0.997,2.848,1.719,3.865
			c0.713,1.029,1.522,1.818,2.421,2.398c0.887,0.58,1.817,0.986,2.771,1.227c0.953,0.23,1.873,0.351,2.76,0.34
			c1.993-0.012,3.69-0.328,5.081-0.953c1.38-0.613,2.497-1.456,3.352-2.519c0.843-1.052,1.456-2.245,1.84-3.569
			c0.383-1.326,0.58-2.705,0.569-4.129c0-1.391-0.187-2.662-0.569-3.822c-0.384-1.15-0.986-2.268-1.797-3.329
			c-0.81-1.073-1.861-2.169-3.153-3.296c-1.818-1.633-3.198-2.969-4.15-4.031c-0.953-1.062-1.424-1.938-1.435-2.605
			c0.011-0.373,0.109-0.657,0.296-0.865c0.186-0.208,0.416-0.318,0.689-0.318c0.493,0,0.854,0.264,1.095,0.778
			c0.23,0.515,0.351,1.292,0.351,2.311c0,0.197,0.044,0.351,0.143,0.471c0.088,0.11,0.219,0.143,0.384,0.12L356.542,264.116z"/>
		<path fill="#FFFFFF" d="M45.704,269.18c0,13.356,1.465,25.811,4.396,37.42c2.93,11.553,7.495,21.753,13.582,30.488
			c6.086,8.791,13.807,15.61,23.274,20.569c9.411,4.959,20.569,7.439,33.475,7.552c9.524-0.057,18.541-1.804,26.994-5.241
			c8.51-3.438,16.005-8.341,22.542-14.766c6.538-6.367,11.666-14.031,15.441-22.936c3.72-8.904,5.635-18.822,5.692-29.756
			c-0.113-13.582-2.085-25.021-6.03-34.433c-3.889-9.411-9.186-16.513-15.892-21.415c-6.707-4.902-14.258-7.382-22.711-7.382
			c-4.396,0-8.115,0.563-11.271,1.578c-3.156,1.015-5.861,2.311-8.059,3.945c-2.254,1.578-4.114,3.212-5.692,4.959
			c-1.014,1.014-1.803,1.69-2.423,2.085c-0.62,0.451-1.127,0.62-1.634,0.62c-0.507-0.057-1.014-0.338-1.409-0.902
			c-0.395-0.563-0.62-1.295-0.62-2.141v-58.159c0-1.353,0.338-2.479,0.958-3.381c0.62-0.901,1.296-1.578,2.142-2.028
			c0.845-0.451,1.634-0.677,2.311-0.677c1.747-0.056,3.043,0.563,3.832,1.804c0.733,1.296,1.24,3.438,1.409,6.48
			c0.169,3.1,0.225,7.327,0.169,12.68c0,0.846,0.226,1.578,0.676,2.142c0.451,0.564,1.015,0.845,1.69,0.902l58.497-2.367
			c0.845-0.169,1.522-0.563,1.973-1.184c0.507-0.62,0.732-1.353,0.732-2.198c-0.056-12.285-1.86-23.275-5.41-32.968
			c-3.607-9.637-8.622-17.864-15.159-24.627c-6.538-6.763-14.258-11.947-23.218-15.498c-8.96-3.551-18.823-5.354-29.586-5.354
			c-9.862,0.057-19.048,2.085-27.614,6.199c-8.509,4.114-16.004,9.918-22.429,17.526c-6.425,7.608-11.497,16.737-15.104,27.332
			s-5.466,22.429-5.523,35.504V269.18L45.704,269.18z M125.841,293.188c-0.057,1.972-0.62,3.212-1.691,3.72
			c-1.071,0.506-2.311,0.732-3.719,0.676c-1.522,0-2.762-0.281-3.663-0.902c-0.902-0.619-1.409-1.634-1.409-3.155v-12.511
			c0-2.367,0.507-4.058,1.409-5.185c0.958-1.071,2.311-1.578,4.001-1.578c1.521,0,2.761,0.507,3.663,1.578
			c0.902,1.127,1.409,2.817,1.409,5.185V293.188L125.841,293.188z M199.215,179.914c0,0.845,0.226,1.409,0.62,1.804
			c0.395,0.394,0.902,0.563,1.409,0.563h46.324c0.732-0.057,1.408,0,2.028,0.112c0.62,0.113,0.958,0.395,1.015,0.902
			c0,0.338-0.169,0.845-0.451,1.465c-0.338,0.62-0.732,1.409-1.24,2.254c-4.396,6.368-8.453,13.863-12.229,22.598
			c-3.775,8.735-7.214,18.146-10.313,28.234c-3.155,10.088-5.973,20.4-8.453,30.939c-2.536,10.537-4.678,20.738-6.594,30.713
			c-1.86,9.975-3.438,19.16-4.678,27.558c-1.24,8.453-2.141,15.61-2.761,21.527c-0.62,5.917-0.958,10.087-0.958,12.567
			c0,1.353,0.338,2.367,0.958,3.043c0.564,0.676,1.409,1.015,2.423,1.015h70.669c0.676-0.057,1.296-0.339,1.859-0.845
			c0.507-0.564,0.789-1.184,0.846-1.86c0.056-28.29,1.465-53.594,4.282-75.91c2.762-22.261,6.537-41.59,11.271-57.989
			c4.79-16.343,10.2-29.755,16.23-40.238c0.507-1.014,0.901-1.972,1.239-2.987c0.282-0.958,0.451-2.141,0.451-3.438v-64.583
			c0-0.676-0.507-1.24-1.409-1.69c-0.901-0.451-2.142-0.676-3.663-0.676H201.582c-0.676,0-1.24,0.169-1.69,0.507
			s-0.676,0.845-0.676,1.521V179.914z"/>
		
			<polygon fill-rule="evenodd" clip-rule="evenodd" fill="#FFFFFF" stroke="#FFFFFF" stroke-width="0.5669" stroke-miterlimit="22.9256" points="
			49.244,163.483 76.985,232.927 50.1,297.415 38.591,257.151 35.547,202.017 		"/>
		<path fill="#FFFFFF" d="M230.501,67.087c-0.045,0-0.09-0.021-0.125-0.06c-0.035-0.04-0.055-0.09-0.055-0.15V51.13
			c0-0.095-0.03-0.17-0.085-0.235c-0.05-0.06-0.125-0.095-0.215-0.095h-5.069c-0.11,0.005-0.2,0.055-0.275,0.14
			c-0.075,0.09-0.109,0.185-0.114,0.28v21.686c0.005,0.11,0.035,0.2,0.1,0.275c0.061,0.075,0.14,0.11,0.229,0.115h10.738
			c0.09-0.005,0.17-0.035,0.23-0.1c0.064-0.06,0.095-0.14,0.1-0.23v-5.579c0-0.08-0.03-0.145-0.085-0.205
			c-0.06-0.06-0.14-0.09-0.245-0.095H230.501L230.501,67.087z M243.083,73.282c-0.009,0.11,0.01,0.203,0.065,0.285
			c0.051,0.082,0.126,0.126,0.214,0.142l10.658,1.309c0.09,0.006,0.173-0.014,0.24-0.071c0.072-0.051,0.111-0.127,0.128-0.216
			l0.68-5.537c0.01-0.08-0.012-0.148-0.06-0.214c-0.052-0.067-0.128-0.106-0.231-0.124l-5.15-0.632
			c-0.045-0.006-0.087-0.031-0.117-0.075c-0.029-0.044-0.043-0.097-0.036-0.156l0.216-1.757c0.009-0.074,0.036-0.131,0.081-0.166
			c0.045-0.04,0.097-0.054,0.157-0.046l2.411,0.296c0.06,0.007,0.117-0.016,0.174-0.06c0.05-0.044,0.083-0.105,0.097-0.179
			l0.666-5.418c0.007-0.06-0.007-0.111-0.042-0.156c-0.034-0.044-0.081-0.071-0.142-0.078l-2.352-0.289
			c-0.05-0.006-0.092-0.031-0.132-0.077c-0.039-0.045-0.054-0.097-0.051-0.157l0.204-1.667c0.008-0.06,0.034-0.107,0.078-0.142
			c0.045-0.035,0.097-0.049,0.156-0.042l4.972,0.611c0.09,0.011,0.173-0.01,0.238-0.057c0.071-0.042,0.11-0.112,0.126-0.201
			l0.658-5.359c0.012-0.094-0.01-0.172-0.056-0.243c-0.043-0.066-0.113-0.109-0.202-0.121l-10.568-1.298
			c-0.11-0.008-0.204,0.021-0.288,0.091c-0.085,0.07-0.13,0.155-0.146,0.249L243.083,73.282L243.083,73.282z M261.691,76.397
			c-0.019,0.088-0.011,0.172,0.021,0.239c0.036,0.074,0.103,0.119,0.204,0.146l5.458,1.16c1.008,0.209,1.89,0.269,2.64,0.178
			c0.75-0.091,1.39-0.287,1.924-0.587c0.528-0.296,0.968-0.658,1.323-1.079c0.35-0.421,0.633-0.862,0.841-1.313
			c0.215-0.456,0.376-0.881,0.487-1.282c0.11-0.4,0.191-0.731,0.24-0.986c0.158-0.769,0.183-1.51,0.07-2.229
			c-0.114-0.714-0.354-1.363-0.712-1.94c-0.357-0.582-0.819-1.053-1.392-1.415l0.013-0.059c0.783-0.079,1.425-0.285,1.924-0.608
			c0.504-0.327,0.896-0.729,1.186-1.204c0.289-0.47,0.512-0.964,0.667-1.479c0.15-0.515,0.272-0.995,0.357-1.442
			c0.105-0.494,0.122-1.006,0.062-1.54c-0.064-0.536-0.214-1.063-0.45-1.583c-0.235-0.525-0.556-1.018-0.965-1.473
			c-0.408-0.459-0.906-0.857-1.487-1.2c-0.587-0.34-1.26-0.59-2.021-0.757l-5.457-1.16c-0.103-0.022-0.188-0.004-0.261,0.047
			c-0.067,0.052-0.115,0.134-0.137,0.236L261.691,76.397L261.691,76.397z M270.591,60.351c0.012-0.059,0.041-0.099,0.087-0.12
			c0.045-0.021,0.097-0.025,0.155-0.013c0.123,0.026,0.244,0.078,0.36,0.158c0.12,0.082,0.21,0.188,0.279,0.32
			s0.082,0.288,0.049,0.465l-0.536,2.523c-0.041,0.196-0.119,0.348-0.229,0.452c-0.11,0.11-0.237,0.18-0.382,0.21
			c-0.142,0.037-0.279,0.038-0.421,0.008c-0.059-0.013-0.104-0.042-0.135-0.09c-0.03-0.048-0.04-0.101-0.027-0.16L270.591,60.351
			L270.591,60.351z M268.764,68.947c0.016-0.073,0.042-0.129,0.08-0.162c0.039-0.038,0.087-0.048,0.146-0.035
			c0.161,0.034,0.301,0.1,0.425,0.188c0.124,0.092,0.217,0.209,0.274,0.345c0.063,0.136,0.077,0.287,0.042,0.453l-0.655,3.081
			c-0.059,0.253-0.19,0.44-0.394,0.555c-0.199,0.121-0.422,0.155-0.667,0.109c-0.073-0.016-0.123-0.047-0.145-0.092
			c-0.025-0.046-0.029-0.099-0.018-0.157L268.764,68.947L268.764,68.947z M279.969,81.233c-0.033,0.104-0.035,0.2,0,0.292
			c0.031,0.091,0.094,0.151,0.177,0.187l10.091,3.673c0.086,0.026,0.171,0.025,0.25-0.016c0.081-0.034,0.137-0.099,0.173-0.182
			l1.908-5.243c0.027-0.075,0.021-0.146-0.011-0.222c-0.035-0.077-0.101-0.132-0.197-0.173l-4.876-1.775
			c-0.043-0.015-0.078-0.049-0.097-0.099c-0.02-0.049-0.021-0.104-0.001-0.16l0.605-1.663c0.025-0.07,0.064-0.12,0.116-0.144
			c0.053-0.029,0.107-0.031,0.163-0.01l2.283,0.831c0.056,0.021,0.118,0.011,0.183-0.019c0.059-0.031,0.104-0.084,0.135-0.153
			l1.867-5.13c0.021-0.056,0.02-0.11-0.005-0.161c-0.023-0.051-0.063-0.087-0.12-0.108l-2.227-0.811
			c-0.047-0.017-0.083-0.051-0.111-0.104c-0.028-0.053-0.03-0.106-0.015-0.165l0.574-1.578c0.021-0.057,0.057-0.097,0.108-0.121
			c0.051-0.024,0.104-0.025,0.161-0.005l4.707,1.713c0.084,0.031,0.17,0.03,0.245-0.001c0.078-0.025,0.132-0.085,0.168-0.168
			l1.846-5.073c0.033-0.089,0.03-0.17,0.001-0.25c-0.026-0.073-0.085-0.132-0.17-0.163l-10.006-3.642
			c-0.104-0.033-0.203-0.026-0.301,0.023c-0.098,0.049-0.161,0.122-0.199,0.21L279.969,81.233L279.969,81.233z M297.394,88.491
			l9.845-19.322c0.055-0.096,0.122-0.162,0.215-0.2c0.087-0.039,0.174-0.035,0.257,0.002l4.517,2.302
			c0.094,0.047,0.16,0.115,0.194,0.2c0.04,0.087,0.044,0.19,0.017,0.311l-1.461,6.83c-0.027,0.121-0.037,0.217-0.029,0.289
			c0.009,0.071,0.026,0.114,0.054,0.128c0.039,0.02,0.093,0.014,0.154-0.028c0.058-0.038,0.121-0.118,0.183-0.238l3.036-5.96
			c0.051-0.098,0.122-0.162,0.214-0.2c0.093-0.037,0.188-0.028,0.284,0.016l4.009,2.042c0.104,0.059,0.169,0.142,0.195,0.246
			c0.023,0.107,0.012,0.208-0.038,0.306l-9.846,19.322c-0.05,0.098-0.117,0.165-0.2,0.207c-0.088,0.04-0.175,0.034-0.271-0.009
			l-4.998-2.546c-0.058-0.029-0.103-0.086-0.14-0.167c-0.035-0.074-0.041-0.162-0.018-0.25l1.274-5.41
			c0.042-0.147,0.05-0.261,0.036-0.346c-0.015-0.081-0.045-0.13-0.086-0.15c-0.04-0.021-0.084-0.01-0.141,0.035
			c-0.054,0.051-0.115,0.138-0.183,0.271l-2.411,4.73c-0.054,0.096-0.126,0.16-0.227,0.193c-0.102,0.033-0.197,0.023-0.298-0.022
			l-4.063-2.07c-0.077-0.045-0.126-0.115-0.137-0.204C297.321,88.701,297.339,88.598,297.394,88.491L297.394,88.491z
			 M333.998,93.339c0.102,0.064,0.198,0.083,0.287,0.061c0.093-0.027,0.172-0.087,0.231-0.174c0.512-0.74,0.877-1.522,1.097-2.351
			c0.216-0.831,0.271-1.666,0.165-2.502c-0.104-0.836-0.38-1.627-0.831-2.377c-0.453-0.756-1.088-1.427-1.908-2.007
			c-0.662-0.457-1.336-0.777-2.015-0.958c-0.681-0.178-1.349-0.243-2.011-0.188c-0.658,0.051-1.284,0.205-1.884,0.451
			s-1.142,0.567-1.639,0.964s-0.921,0.844-1.276,1.352c-0.393,0.561-0.699,1.189-0.923,1.893c-0.222,0.699-0.334,1.444-0.345,2.236
			c-0.012,0.792,0.099,1.601,0.335,2.432c0.247,0.833,0.461,1.599,0.649,2.298c0.188,0.699,0.317,1.29,0.378,1.778
			c0.062,0.488,0.025,0.835-0.104,1.038c-0.195,0.278-0.393,0.446-0.576,0.5c-0.188,0.051-0.367,0.018-0.54-0.109
			c-0.145-0.107-0.239-0.259-0.279-0.464c-0.044-0.208-0.045-0.441-0.002-0.703c0.044-0.263,0.113-0.537,0.222-0.822
			c0.107-0.285,0.231-0.558,0.382-0.825c0.065-0.12,0.094-0.221,0.079-0.305c-0.012-0.087-0.064-0.161-0.15-0.221l-3.511-2.202
			c-0.102-0.065-0.192-0.092-0.275-0.077c-0.084,0.015-0.146,0.051-0.191,0.116c-0.691,0.987-1.208,1.961-1.56,2.924
			c-0.351,0.962-0.505,1.897-0.469,2.796c0.037,0.898,0.287,1.751,0.748,2.549c0.464,0.802,1.158,1.526,2.09,2.184
			c0.81,0.561,1.643,0.913,2.489,1.054c0.852,0.145,1.691,0.104,2.521-0.121c0.822-0.224,1.604-0.609,2.344-1.16
			c0.732-0.549,1.397-1.237,1.977-2.064c0.423-0.613,0.716-1.293,0.872-2.038c0.162-0.747,0.203-1.511,0.133-2.299
			c-0.077-0.787-0.256-1.552-0.537-2.292c-0.26-0.683-0.48-1.319-0.658-1.901c-0.18-0.589-0.284-1.102-0.316-1.552
			c-0.032-0.443,0.042-0.8,0.221-1.065c0.089-0.127,0.189-0.209,0.312-0.252c0.118-0.039,0.241-0.014,0.367,0.068
			c0.344,0.241,0.383,0.708,0.117,1.401c-0.044,0.115-0.056,0.21-0.035,0.286s0.067,0.139,0.142,0.19L333.998,93.339L333.998,93.339
			z M337.511,116.837l-3.729-3.478c-0.077-0.079-0.119-0.173-0.13-0.286c-0.004-0.113,0.031-0.217,0.109-0.308l10.679-11.451
			c0.07-0.084,0.104-0.17,0.093-0.269s-0.053-0.186-0.133-0.261l-2.194-2.045c-0.065-0.068-0.094-0.163-0.091-0.283
			c0-0.117,0.031-0.217,0.093-0.29l3.641-3.905c0.062-0.066,0.131-0.104,0.201-0.113c0.067-0.006,0.135,0.017,0.201,0.078
			l9.389,8.755c0.08,0.075,0.126,0.158,0.14,0.253c0.014,0.095-0.021,0.185-0.1,0.276l-3.601,3.861
			c-0.085,0.084-0.183,0.13-0.292,0.137c-0.109,0-0.21-0.039-0.302-0.117l-2.193-2.045c-0.077-0.072-0.166-0.107-0.265-0.097
			c-0.096,0.007-0.192,0.06-0.285,0.159l-10.657,11.429c-0.079,0.077-0.17,0.116-0.275,0.12
			C337.703,116.961,337.606,116.919,337.511,116.837L337.511,116.837z M345.467,124.783c-0.08,0.076-0.128,0.158-0.142,0.256
			c-0.018,0.095,0.009,0.178,0.063,0.249l7.045,8.104c0.063,0.064,0.138,0.105,0.227,0.108c0.088,0.009,0.168-0.02,0.239-0.076
			l4.21-3.66c0.061-0.053,0.09-0.118,0.099-0.199c0.007-0.085-0.023-0.165-0.089-0.247l-3.404-3.917
			c-0.029-0.034-0.044-0.081-0.036-0.134c0.007-0.053,0.032-0.101,0.077-0.14l1.335-1.161c0.058-0.049,0.115-0.074,0.172-0.069
			c0.061,0,0.108,0.025,0.147,0.07l1.594,1.833c0.039,0.045,0.099,0.067,0.169,0.072c0.066,0.001,0.133-0.023,0.192-0.068
			l4.12-3.582c0.045-0.04,0.069-0.087,0.073-0.144c0.004-0.056-0.014-0.107-0.053-0.152l-1.555-1.788
			c-0.033-0.038-0.047-0.085-0.047-0.146c0.001-0.06,0.025-0.108,0.067-0.151l1.268-1.102c0.046-0.04,0.097-0.057,0.153-0.053
			c0.056,0.004,0.104,0.028,0.144,0.074l3.286,3.781c0.059,0.068,0.134,0.108,0.215,0.118c0.08,0.017,0.156-0.011,0.228-0.065
			l4.075-3.542c0.071-0.062,0.108-0.134,0.121-0.218c0.013-0.077-0.01-0.156-0.069-0.224l-6.985-8.036
			c-0.076-0.08-0.165-0.122-0.274-0.126c-0.11-0.004-0.201,0.029-0.276,0.087L345.467,124.783L345.467,124.783z M360.15,144.43
			l-3.137-4.65c-0.066-0.1-0.088-0.194-0.067-0.28c0.02-0.086,0.078-0.161,0.165-0.22l17.979-12.126
			c0.104-0.07,0.21-0.1,0.319-0.089c0.109,0.01,0.2,0.064,0.271,0.161l3.002,4.451c0.888,1.325,1.378,2.641,1.471,3.941
			c0.089,1.303-0.224,2.557-0.936,3.754c-0.713,1.205-1.818,2.318-3.328,3.343l-4.625,3.12c-1.012,0.682-2.039,1.17-3.069,1.467
			c-1.034,0.299-2.04,0.399-3.021,0.295c-0.984-0.101-1.902-0.417-2.756-0.939C361.561,146.138,360.805,145.393,360.15,144.43
			L360.15,144.43z M366.723,141.624l7.236-4.881c0.124-0.084,0.226-0.176,0.295-0.277c0.075-0.104,0.114-0.216,0.126-0.332
			c0.006-0.082-0.006-0.171-0.033-0.273c-0.024-0.098-0.058-0.184-0.103-0.25c-0.066-0.1-0.175-0.099-0.324,0.001l-8.256,5.569
			c-0.074,0.05-0.116,0.096-0.132,0.144c-0.013,0.044,0,0.09,0.033,0.14c0.032,0.057,0.095,0.13,0.182,0.215
			c0.095,0.087,0.219,0.137,0.381,0.154C366.284,141.848,366.485,141.779,366.723,141.624L366.723,141.624z M371.665,165.216
			c0.058,0.111,0.131,0.187,0.231,0.223c0.099,0.036,0.198,0.034,0.3-0.007l14.163-6.604c0.122-0.057,0.231-0.07,0.322-0.041
			c0.096,0.027,0.165,0.094,0.21,0.189l1.268,2.718c0.055,0.106,0.134,0.18,0.235,0.221c0.104,0.034,0.212,0.028,0.322-0.018
			l4.785-2.231c0.106-0.055,0.173-0.125,0.195-0.218c0.023-0.094,0.013-0.188-0.034-0.287l-5.426-11.635
			c-0.038-0.082-0.092-0.128-0.157-0.148c-0.068-0.018-0.146-0.008-0.229,0.03l-4.839,2.256c-0.084,0.044-0.15,0.125-0.194,0.234
			c-0.048,0.111-0.057,0.208-0.021,0.297l1.268,2.718c0.047,0.1,0.053,0.196,0.025,0.292c-0.026,0.096-0.089,0.163-0.187,0.214
			l-14.19,6.617c-0.106,0.055-0.178,0.139-0.217,0.245c-0.032,0.109-0.028,0.211,0.014,0.313L371.665,165.216z"/>
		<g>
			<path fill="#13151D" d="M218.747,343.173c0,0,1.389-2.547,2.392-3.396s2.623-1.466,2.623-1.466s1.467-1.313,1.93-2.007
				s1.08-1.003,1.852-1.003s1.234,0.077,1.234,0.077s-0.231-0.231,0.231-0.694c0.464-0.463,1.158-0.231,1.775-0.617
				c0.617-0.387,0.849-0.617,1.543-0.541c0.694,0.078,0.617,0.232,1.157-0.154c0.541-0.385,0.85-1.002,1.467-0.693
				s0.926,0.076,1.697,0c0.771-0.078,0.231-0.541,1.93-0.309c1.697,0.23,2.469,0.693,2.469,0.693s-0.463,0.078,0.771-0.23
				s2.007-0.232,2.778-0.154c0.771,0.076,1.543,0.693,1.543,0.693l0.463,0.387c0,0-0.309-0.154,0.926-0.232
				c1.234-0.076,1.467-1.002,2.547-0.539s1.62,0.848,1.929,1.08c0.309,0.231,0.463,0.771,0.849,1.003s0.927,0,1.698,0.309
				s0.926,0.617,2.315,1.081c1.389,0.463,1.466,0.153,1.929,0.926c0.463,0.771,1.157,2.006,1.697,2.314s0.771,0.309,1.312,1.003
				c0.541,0.694,0.772,1.235,1.158,1.929c0.386,0.695,0.309,0.617,0.54,1.313c0.231,0.694,1.08,1.003,1.08,1.697s0,1.697,0,1.697
				s0.54,0.617,0.694,1.621c0.154,1.003-0.154,2.237-0.154,2.237s0.463,0.618,0.694,1.853s0.154,2.16,0.154,2.16
				s-0.154,0.926,0.231,1.775c0.386,0.848,0.54,2.546,0.231,2.777s-0.309,0.85-0.309,0.85s0.231,0.539,0.231,1.234
				c0,0.694,0,1.002-0.386,1.389c-0.386,0.386-0.463,1.08-0.463,1.08s0.54,1.543,0.231,2.238c-0.309,0.694-0.926,2.006-1.157,2.237
				s-0.694,0.54-0.694,0.849s0,1.697-0.309,2.084c-0.309,0.386-0.54,1.389-1.003,1.697c-0.464,0.309-0.695,0.771-0.695,0.771
				s0.464,0.463,0.31,1.313c-0.155,0.849-0.31,2.392-0.541,2.854s-0.771,0.694-0.771,0.694s-0.309,1.003-0.386,1.39
				c-0.077,0.386-0.231,0.694-0.231,0.694s-0.077,0-0.077,0.309s-0.231,1.08-0.386,1.312s-0.309,0.463-0.309,0.463l-0.463-0.154
				c0,0-0.849,0.463-0.849,0.771s-0.154,0.54-0.386,0.849c-0.232,0.309-1.235,1.698-1.93,1.698s-1.003,0.154-1.003,0.154
				s0.54-0.309-0.771,0.617c-1.313,0.926-2.778,1.157-2.778,1.157s-0.617,0.463-1.312,0.926c-0.694,0.464-1.466,0.464-1.466,0.464
				s-0.386,0.463-1.004,0.617c-0.617,0.154-1.697,0-1.697,0s-0.694,0.309-1.157,0.617s-1.234,0.617-1.929,0.694
				c-0.695,0.077-1.621,0.077-1.621,0.077s0.154,0.231-1.08,0.231s-1.466-0.54-1.466-0.54s-1.467,0.54-2.007,0.231
				s-1.234-1.003-1.234-1.003s-0.694-0.077-2.161-0.309c-1.466-0.231-1.234-1.157-1.234-1.157s-1.157-0.232-2.006-0.617
				c-0.849-0.387-1.003-1.158-1.003-1.158s-0.541-0.617-1.698-1.003s-1.543-1.853-1.543-1.853s0,0.155-0.617-0.463
				c-0.617-0.617-1.389-1.697-1.389-1.697s-0.387-0.231-1.004-1.08s-0.849-1.93-0.849-1.93s-0.077-0.463-1.003-1.389
				c-0.926-0.926-1.389-2.083-1.389-2.314s-0.231-1.312-1.003-2.084c-0.772-0.771-1.235-2.623-1.235-3.164
				c0-0.539-0.077-1.156-0.077-1.156s-1.235-1.39-1.235-2.161c0-0.772-0.232-2.393-0.232-2.393s0.078-0.54-0.154-1.543
				c-0.232-1.003-0.463-2.546-0.386-3.087c0.077-0.539,0.077-1.157,0.077-1.157s-0.386-0.926-0.386-1.544
				c0-0.616,0.154-1.389,0.154-1.389s0.771-1.234,0.771-1.852s0-1.467,0-2.16c0-0.695,0.155-1.234,0.309-1.852
				c0.154-0.618,0.771-1.39,0.771-1.39l0.849-0.694c0,0-0.386-0.695-0.386-1.389c0-0.695,0.386-1.467,0.463-2.007
				s0.463-0.694,0.463-0.694L218.747,343.173L218.747,343.173z"/>
			<path fill="none" stroke="#13151D" stroke-width="0.4765" stroke-miterlimit="22.9256" d="M218.747,343.173
				c0,0,1.389-2.547,2.392-3.396s2.623-1.466,2.623-1.466s1.467-1.313,1.93-2.007s1.08-1.003,1.852-1.003s1.234,0.077,1.234,0.077
				s-0.231-0.231,0.231-0.694c0.464-0.463,1.158-0.231,1.775-0.617c0.617-0.387,0.849-0.617,1.543-0.541
				c0.694,0.078,0.617,0.232,1.157-0.154c0.541-0.385,0.85-1.002,1.467-0.693s0.926,0.076,1.697,0
				c0.771-0.078,0.231-0.541,1.93-0.309c1.697,0.23,2.469,0.693,2.469,0.693s-0.463,0.078,0.771-0.23s2.007-0.232,2.778-0.154
				c0.771,0.076,1.543,0.693,1.543,0.693l0.463,0.387c0,0-0.309-0.154,0.926-0.232c1.234-0.076,1.467-1.002,2.547-0.539
				s1.62,0.848,1.929,1.08c0.309,0.231,0.463,0.771,0.849,1.003s0.927,0,1.698,0.309s0.926,0.617,2.315,1.081
				c1.389,0.463,1.466,0.153,1.929,0.926c0.463,0.771,1.157,2.006,1.697,2.314s0.771,0.309,1.312,1.003
				c0.541,0.694,0.772,1.235,1.158,1.929c0.386,0.695,0.309,0.617,0.54,1.313c0.231,0.694,1.08,1.003,1.08,1.697s0,1.697,0,1.697
				s0.54,0.617,0.694,1.621c0.154,1.003-0.154,2.237-0.154,2.237s0.463,0.618,0.694,1.853s0.154,2.16,0.154,2.16
				s-0.154,0.926,0.231,1.775c0.386,0.848,0.54,2.546,0.231,2.777s-0.309,0.85-0.309,0.85s0.231,0.539,0.231,1.234
				c0,0.694,0,1.002-0.386,1.389c-0.386,0.386-0.463,1.08-0.463,1.08s0.54,1.543,0.231,2.238c-0.309,0.694-0.926,2.006-1.157,2.237
				s-0.694,0.54-0.694,0.849s0,1.697-0.309,2.084c-0.309,0.386-0.54,1.389-1.003,1.697c-0.464,0.309-0.695,0.771-0.695,0.771
				s0.464,0.463,0.31,1.313c-0.155,0.849-0.31,2.392-0.541,2.854s-0.771,0.694-0.771,0.694s-0.309,1.003-0.386,1.39
				c-0.077,0.386-0.231,0.694-0.231,0.694s-0.077,0-0.077,0.309s-0.231,1.08-0.386,1.312s-0.309,0.463-0.309,0.463l-0.463-0.154
				c0,0-0.849,0.463-0.849,0.771s-0.154,0.54-0.386,0.849c-0.232,0.309-1.235,1.698-1.93,1.698s-1.003,0.154-1.003,0.154
				s0.54-0.309-0.771,0.617c-1.313,0.926-2.778,1.157-2.778,1.157s-0.617,0.463-1.312,0.926c-0.694,0.464-1.466,0.464-1.466,0.464
				s-0.386,0.463-1.004,0.617c-0.617,0.154-1.697,0-1.697,0s-0.694,0.309-1.157,0.617s-1.234,0.617-1.929,0.694
				c-0.695,0.077-1.621,0.077-1.621,0.077s0.154,0.231-1.08,0.231s-1.466-0.54-1.466-0.54s-1.467,0.54-2.007,0.231
				s-1.234-1.003-1.234-1.003s-0.694-0.077-2.161-0.309c-1.466-0.231-1.234-1.157-1.234-1.157s-1.157-0.232-2.006-0.617
				c-0.849-0.387-1.003-1.158-1.003-1.158s-0.541-0.617-1.698-1.003s-1.543-1.853-1.543-1.853s0,0.155-0.617-0.463
				c-0.617-0.617-1.389-1.697-1.389-1.697s-0.387-0.231-1.004-1.08s-0.849-1.93-0.849-1.93s-0.077-0.463-1.003-1.389
				c-0.926-0.926-1.389-2.083-1.389-2.314s-0.231-1.312-1.003-2.084c-0.772-0.771-1.235-2.623-1.235-3.164
				c0-0.539-0.077-1.156-0.077-1.156s-1.235-1.39-1.235-2.161c0-0.772-0.232-2.393-0.232-2.393s0.078-0.54-0.154-1.543
				c-0.232-1.003-0.463-2.546-0.386-3.087c0.077-0.539,0.077-1.157,0.077-1.157s-0.386-0.926-0.386-1.544
				c0-0.616,0.154-1.389,0.154-1.389s0.771-1.234,0.771-1.852s0-1.467,0-2.16c0-0.695,0.155-1.234,0.309-1.852
				c0.154-0.618,0.771-1.39,0.771-1.39l0.849-0.694c0,0-0.386-0.695-0.386-1.389c0-0.695,0.386-1.467,0.463-2.007
				s0.463-0.694,0.463-0.694L218.747,343.173L218.747,343.173z"/>
			<path fill="#0095DA" d="M217.667,342.556c0,0,1.389-2.547,2.392-3.396c1.003-0.849,2.624-1.466,2.624-1.466
				s1.467-1.313,1.93-2.007s1.08-1.003,1.852-1.003s1.234,0.077,1.234,0.077s-0.231-0.231,0.231-0.694s1.158-0.232,1.774-0.617
				c0.618-0.387,0.85-0.617,1.544-0.541c0.694,0.078,0.617,0.232,1.157-0.154c0.54-0.385,0.849-1.003,1.466-0.694
				c0.618,0.31,0.927,0.077,1.698,0s0.231-0.54,1.929-0.309c1.698,0.231,2.47,0.694,2.47,0.694s-0.463,0.078,0.771-0.231
				c1.234-0.308,2.006-0.231,2.778-0.154c0.771,0.077,1.543,0.694,1.543,0.694l0.463,0.387c0,0-0.309-0.154,0.926-0.232
				c1.234-0.076,1.466-1.002,2.547-0.539c1.08,0.463,1.62,0.848,1.929,1.08c0.309,0.231,0.463,0.771,0.849,1.003
				s0.927,0,1.698,0.309c0.771,0.308,0.926,0.617,2.314,1.08s1.466,0.154,1.93,0.926c0.463,0.772,1.157,2.007,1.697,2.315
				s0.771,0.309,1.312,1.003s0.771,1.234,1.157,1.929c0.387,0.695,0.309,0.617,0.54,1.313c0.232,0.694,1.081,1.003,1.081,1.697
				s0,1.697,0,1.697s0.54,0.617,0.694,1.621c0.154,1.003-0.154,2.237-0.154,2.237s0.463,0.617,0.694,1.853
				c0.231,1.234,0.154,2.16,0.154,2.16s-0.154,0.926,0.231,1.775c0.386,0.848,0.54,2.546,0.231,2.777s-0.309,0.849-0.309,0.849
				s0.231,0.54,0.231,1.235c0,0.693,0,1.002-0.386,1.389c-0.386,0.386-0.463,1.08-0.463,1.08s0.54,1.543,0.231,2.238
				c-0.309,0.693-0.926,2.006-1.157,2.237s-0.694,0.54-0.694,0.849s0,1.697-0.31,2.084c-0.308,0.385-0.54,1.389-1.003,1.697
				s-0.694,0.771-0.694,0.771s0.463,0.463,0.309,1.313c-0.154,0.849-0.309,2.392-0.54,2.854s-0.771,0.694-0.771,0.694
				s-0.309,1.003-0.386,1.389c-0.077,0.387-0.231,0.695-0.231,0.695s-0.077,0-0.077,0.308c0,0.31-0.231,1.081-0.386,1.313
				s-0.309,0.463-0.309,0.463l-0.463-0.154c0,0-0.85,0.463-0.85,0.771s-0.153,0.54-0.386,0.849
				c-0.231,0.309-1.234,1.697-1.929,1.697s-1.003,0.155-1.003,0.155s0.54-0.309-0.771,0.617c-1.313,0.926-2.778,1.157-2.778,1.157
				s-0.617,0.463-1.312,0.926c-0.695,0.463-1.467,0.463-1.467,0.463s-0.386,0.463-1.003,0.618c-0.617,0.153-1.697,0-1.697,0
				s-0.694,0.309-1.157,0.617s-1.235,0.617-1.93,0.694s-1.62,0.077-1.62,0.077s0.154,0.231-1.08,0.231s-1.467-0.54-1.467-0.54
				s-1.466,0.54-2.006,0.231s-1.234-1.003-1.234-1.003s-0.694-0.077-2.161-0.309c-1.466-0.232-1.234-1.157-1.234-1.157
				s-1.157-0.232-2.007-0.618c-0.849-0.386-1.003-1.157-1.003-1.157s-0.54-0.617-1.697-1.003s-1.543-1.853-1.543-1.853
				s0,0.154-0.617-0.463c-0.618-0.617-1.39-1.697-1.39-1.697s-0.386-0.231-1.003-1.08c-0.617-0.85-0.849-1.93-0.849-1.93
				s-0.077-0.463-1.002-1.389c-0.926-0.926-1.389-2.083-1.389-2.315c0-0.23-0.232-1.312-1.003-2.083s-1.235-2.623-1.235-3.164
				c0-0.539-0.077-1.157-0.077-1.157s-1.235-1.389-1.235-2.161c0-0.771-0.231-2.392-0.231-2.392s0.077-0.54-0.154-1.543
				s-0.463-2.546-0.386-3.087c0.077-0.54,0.077-1.157,0.077-1.157s-0.386-0.927-0.386-1.543c0-0.618,0.154-1.39,0.154-1.39
				s0.771-1.234,0.771-1.852s0-1.467,0-2.16c0-0.695,0.154-1.234,0.309-1.853c0.154-0.617,0.771-1.389,0.771-1.389l0.849-0.694
				c0,0-0.386-0.695-0.386-1.389c0-0.695,0.386-1.467,0.463-2.007s0.463-0.694,0.463-0.694L217.667,342.556L217.667,342.556z"/>
			<path fill="none" stroke="#13151D" stroke-width="0.4765" stroke-miterlimit="22.9256" d="M217.667,342.556
				c0,0,1.389-2.547,2.392-3.396c1.003-0.849,2.624-1.466,2.624-1.466s1.467-1.313,1.93-2.007s1.08-1.003,1.852-1.003
				s1.234,0.077,1.234,0.077s-0.231-0.231,0.231-0.694s1.158-0.232,1.774-0.617c0.618-0.387,0.85-0.617,1.544-0.541
				c0.694,0.078,0.617,0.232,1.157-0.154c0.54-0.385,0.849-1.003,1.466-0.694c0.618,0.31,0.927,0.077,1.698,0
				s0.231-0.54,1.929-0.309c1.698,0.231,2.47,0.694,2.47,0.694s-0.463,0.078,0.771-0.231c1.234-0.308,2.006-0.231,2.778-0.154
				c0.771,0.077,1.543,0.694,1.543,0.694l0.463,0.387c0,0-0.309-0.154,0.926-0.232c1.234-0.076,1.466-1.002,2.547-0.539
				c1.08,0.463,1.62,0.848,1.929,1.08c0.309,0.231,0.463,0.771,0.849,1.003s0.927,0,1.698,0.309c0.771,0.308,0.926,0.617,2.314,1.08
				s1.466,0.154,1.93,0.926c0.463,0.772,1.157,2.007,1.697,2.315s0.771,0.309,1.312,1.003s0.771,1.234,1.157,1.929
				c0.387,0.695,0.309,0.617,0.54,1.313c0.232,0.694,1.081,1.003,1.081,1.697s0,1.697,0,1.697s0.54,0.617,0.694,1.621
				c0.154,1.003-0.154,2.237-0.154,2.237s0.463,0.617,0.694,1.853c0.231,1.234,0.154,2.16,0.154,2.16s-0.154,0.926,0.231,1.775
				c0.386,0.848,0.54,2.546,0.231,2.777s-0.309,0.849-0.309,0.849s0.231,0.54,0.231,1.235c0,0.693,0,1.002-0.386,1.389
				c-0.386,0.386-0.463,1.08-0.463,1.08s0.54,1.543,0.231,2.238c-0.309,0.693-0.926,2.006-1.157,2.237s-0.694,0.54-0.694,0.849
				s0,1.697-0.31,2.084c-0.308,0.385-0.54,1.389-1.003,1.697s-0.694,0.771-0.694,0.771s0.463,0.463,0.309,1.313
				c-0.154,0.849-0.309,2.392-0.54,2.854s-0.771,0.694-0.771,0.694s-0.309,1.003-0.386,1.389c-0.077,0.387-0.231,0.695-0.231,0.695
				s-0.077,0-0.077,0.308c0,0.31-0.231,1.081-0.386,1.313s-0.309,0.463-0.309,0.463l-0.463-0.154c0,0-0.85,0.463-0.85,0.771
				s-0.153,0.54-0.386,0.849c-0.231,0.309-1.234,1.697-1.929,1.697s-1.003,0.155-1.003,0.155s0.54-0.309-0.771,0.617
				c-1.313,0.926-2.778,1.157-2.778,1.157s-0.617,0.463-1.312,0.926c-0.695,0.463-1.467,0.463-1.467,0.463s-0.386,0.463-1.003,0.618
				c-0.617,0.153-1.697,0-1.697,0s-0.694,0.309-1.157,0.617s-1.235,0.617-1.93,0.694s-1.62,0.077-1.62,0.077s0.154,0.231-1.08,0.231
				s-1.467-0.54-1.467-0.54s-1.466,0.54-2.006,0.231s-1.234-1.003-1.234-1.003s-0.694-0.077-2.161-0.309
				c-1.466-0.232-1.234-1.157-1.234-1.157s-1.157-0.232-2.007-0.618c-0.849-0.386-1.003-1.157-1.003-1.157s-0.54-0.617-1.697-1.003
				s-1.543-1.853-1.543-1.853s0,0.154-0.617-0.463c-0.618-0.617-1.39-1.697-1.39-1.697s-0.386-0.231-1.003-1.08
				c-0.617-0.85-0.849-1.93-0.849-1.93s-0.077-0.463-1.002-1.389c-0.926-0.926-1.389-2.083-1.389-2.315
				c0-0.23-0.232-1.312-1.003-2.083s-1.235-2.623-1.235-3.164c0-0.539-0.077-1.157-0.077-1.157s-1.235-1.389-1.235-2.161
				c0-0.771-0.231-2.392-0.231-2.392s0.077-0.54-0.154-1.543s-0.463-2.546-0.386-3.087c0.077-0.54,0.077-1.157,0.077-1.157
				s-0.386-0.927-0.386-1.543c0-0.618,0.154-1.39,0.154-1.39s0.771-1.234,0.771-1.852s0-1.467,0-2.16
				c0-0.695,0.154-1.234,0.309-1.853c0.154-0.617,0.771-1.389,0.771-1.389l0.849-0.694c0,0-0.386-0.695-0.386-1.389
				c0-0.695,0.386-1.467,0.463-2.007s0.463-0.694,0.463-0.694L217.667,342.556L217.667,342.556z"/>
			<path fill="none" stroke="#0D1218" stroke-width="0.3934" stroke-miterlimit="22.9256" d="M231.556,374.424
				c0,0,0.463,1.081,0,2.007s-2.778,2.469-2.778,3.24c0,0.772,0,3.55,0,3.55l0.927,3.241l0.771,1.389"/>
			<path fill="none" stroke="#0D1218" stroke-width="0.3934" stroke-miterlimit="22.9256" d="M247.143,374.424l-0.463,1.235
				c0,0-0.154,1.234,0.309,1.697s0.771,1.234,0.771,1.234l0.772,3.704l-0.154,5.864"/>
			<path fill="none" stroke="#0D1218" stroke-width="0.3934" stroke-miterlimit="22.9256" d="M244.057,380.598
				c0,0-1.389,0.617-0.617,2.314s-0.463,1.08,0,2.624c0.463,1.543-0.154,4.32-0.154,4.32"/>
			<path fill="none" stroke="#0D1218" stroke-width="0.3934" stroke-miterlimit="22.9256" d="M240.199,381.986
				c0,0-0.154,0.154-0.463,1.543s0,2.161,0,2.778s-0.463,3.396-0.463,3.396l-0.154,0.771"/>
			<polyline fill="none" stroke="#0D1218" stroke-width="0.3934" stroke-miterlimit="22.9256" points="236.649,381.369 
				236.186,383.066 236.186,385.69 236.34,388.468 236.032,390.475 			"/>
			<path fill="none" stroke="#0D1218" stroke-width="0.3934" stroke-miterlimit="22.9256" d="M246.989,379.671l-0.926,2.778
				c0,0,1.234,2.778,1.234,3.241s-0.771,3.086-0.771,3.086"/>
			<path fill="none" stroke="#0D1218" stroke-width="0.3934" stroke-miterlimit="22.9256" d="M236.34,341.089
				c0,0-0.771-0.926-0.771-2.16s0-4.167,0-4.167l-0.926-0.927l-1.235-1.543"/>
			<path fill="none" stroke="#0D1218" stroke-width="0.3934" stroke-miterlimit="22.9256" d="M239.89,340.472
				c-0.154-0.771-0.309-0.926-0.309-2.16c0-1.235-0.309-2.007-0.309-2.933s-0.309-2.624-0.309-2.624"/>
			<path fill="none" stroke="#0D1218" stroke-width="0.3934" stroke-miterlimit="22.9256" d="M242.513,340.626
				c0,0,1.081-1.234,1.081-2.932c0-1.698-0.154-2.778,0.617-3.241s1.697-1.544,1.697-1.544"/>
			<path fill="none" stroke="#0D1218" stroke-width="0.3934" stroke-miterlimit="22.9256" d="M245.6,340.317
				c0,0,2.47-1.08,2.778-2.777c0.309-1.698,1.389-1.853,1.389-1.853l2.007-1.234"/>
			<path fill="none" stroke="#0D1218" stroke-width="0.3934" stroke-miterlimit="22.9256" d="M247.143,341.86
				c0,0,1.853-0.309,2.624-1.08s2.314-2.623,2.933-3.086c0.617-0.463,3.086-1.853,3.086-1.853"/>
			<polyline fill="none" stroke="#0D1218" stroke-width="0.3934" stroke-miterlimit="22.9256" points="255.631,340.317 
				256.404,339.083 257.947,338.003 			"/>
			<polyline fill="none" stroke="#0D1218" stroke-width="0.3934" stroke-miterlimit="22.9256" points="258.564,342.015 
				259.335,341.397 260.57,340.78 			"/>
			<path fill="none" stroke="#0D1218" stroke-width="0.3934" stroke-miterlimit="22.9256" d="M259.027,346.028
				c0,0,0.463-0.772,1.08-1.39s2.315-1.312,2.315-1.312"/>
			<path fill="none" stroke="#0D1218" stroke-width="0.3934" stroke-miterlimit="22.9256" d="M254.088,351.892
				c0,0,1.543,0.617,3.704-0.771c2.16-1.389,2.777-2.469,3.086-3.24s1.853-1.234,1.853-1.234"/>
			<path fill="none" stroke="#0D1218" stroke-width="0.3934" stroke-miterlimit="22.9256" d="M256.404,354.361
				c0,0,1.697-0.309,2.623-1.081c0.926-0.771,1.697-1.08,2.16-1.543s2.315-1.08,2.315-1.08"/>
			<path fill="none" stroke="#0D1218" stroke-width="0.3934" stroke-miterlimit="22.9256" d="M256.557,356.06
				c0,0,2.778,0.309,3.241,0.154s2.315-0.309,2.778-0.617c0.463-0.31,1.234-0.772,1.234-0.772"/>
			<path fill="none" stroke="#0D1218" stroke-width="0.3934" stroke-miterlimit="22.9256" d="M256.557,358.065c0,0,2.624,0,3.396,0
				s2.47,0.617,2.47,0.617l2.623,1.313"/>
			<path fill="none" stroke="#0D1218" stroke-width="0.3934" stroke-miterlimit="22.9256" d="M256.094,360.38
				c0,0,2.47,0.617,3.241,0.771s2.778,0.926,2.778,0.926l1.852,2.161"/>
			<path fill="none" stroke="#0D1218" stroke-width="0.3934" stroke-miterlimit="22.9256" d="M256.404,363.158
				c0,0,2.623,1.081,3.24,1.697c0.617,0.618,1.234,1.081,1.698,1.544c0.463,0.463,1.466,2.623,1.466,2.623"/>
			<path fill="none" stroke="#0D1218" stroke-width="0.3934" stroke-miterlimit="22.9256" d="M255.477,364.548
				c0,0,2.007,2.469,3.087,4.475s1.852,5.093,1.852,5.093"/>
			<path fill="none" stroke="#0D1218" stroke-width="0.3934" stroke-miterlimit="22.9256" d="M254.551,367.942
				c0,0,2.16,3.24,2.315,4.938c0.153,1.697,0.617,5.093,0.463,6.636c-0.154,1.544-1.235,2.315-1.081,2.778"/>
			<path fill="none" stroke="#0D1218" stroke-width="0.3934" stroke-miterlimit="22.9256" d="M253.163,374.732
				c0,0-0.772,1.544,0,2.933c0.771,1.389,0.771,3.087,0.771,3.087l-0.463,4.784"/>
			<path fill="none" stroke="#0D1218" stroke-width="0.3934" stroke-miterlimit="22.9256" d="M250.076,375.813
				c0,0,0,1.543,0.154,2.314s0.309,2.007,0.309,2.933s0,2.777,0,2.777l-0.926,3.858"/>
			<path fill="none" stroke="#0D1218" stroke-width="0.3934" stroke-miterlimit="22.9256" d="M227.235,375.351l-0.926,2.314
				c0,0,0.309,1.389,0.309,2.47c0,1.08-1.234,4.938-1.234,4.938"/>
			<path fill="none" stroke="#0D1218" stroke-width="0.3934" stroke-miterlimit="22.9256" d="M224.149,371.183l-0.154,3.087
				c0,0,0.617,0.927,0,2.47c-0.618,1.543-1.235,3.704-1.235,3.704l0.617,1.543"/>
			<path fill="none" stroke="#0D1218" stroke-width="0.3934" stroke-miterlimit="22.9256" d="M222.296,367.479
				c0,0-1.08,1.234-1.389,2.469s-0.771,2.007-0.926,3.087c-0.154,1.08-0.617,2.933-0.617,2.933"/>
			<path fill="none" stroke="#0D1218" stroke-width="0.3934" stroke-miterlimit="22.9256" d="M221.371,365.011
				c0,0-2.469,2.006-2.469,2.623s-0.926,3.24-0.926,3.24l-0.618,1.081"/>
			<path fill="none" stroke="#0D1218" stroke-width="0.3934" stroke-miterlimit="22.9256" d="M220.753,361.923
				c0,0-0.617-0.154-1.234,0.463c-0.617,0.618-2.624,2.934-2.624,2.934s-0.154-0.155-0.154,0.463c0,0.617-0.771,2.16-0.771,2.16"/>
			<path fill="none" stroke="#0D1218" stroke-width="0.3934" stroke-miterlimit="22.9256" d="M220.136,358.22
				c0,0-1.543,0.463-2.161,1.08c-0.618,0.617-1.543,1.389-1.543,1.389l-2.006,1.853"/>
			<path fill="none" stroke="#0D1218" stroke-width="0.3934" stroke-miterlimit="22.9256" d="M220.753,354.824
				c0,0-1.852,0.772-2.469,0.926c-0.617,0.155-1.697,0.31-1.697,0.31h-2.315"/>
			<path fill="none" stroke="#0D1218" stroke-width="0.3934" stroke-miterlimit="22.9256" d="M220.753,351.737
				c0,0-1.852-0.154-2.469,0c-0.617,0.154-1.697,0-1.697,0l-1.543-0.771"/>
			<path fill="none" stroke="#0D1218" stroke-width="0.3934" stroke-miterlimit="22.9256" d="M220.29,348.651
				c0,0-0.463-0.463-1.234-0.463s-1.852,0-1.852,0l-0.617-0.771"/>
			<polyline fill="none" stroke="#0D1218" stroke-width="0.3934" stroke-miterlimit="22.9256" points="223.068,336.923 
				223.839,339.083 225.538,340.78 			"/>
			<path fill="none" stroke="#0D1218" stroke-width="0.3934" stroke-miterlimit="22.9256" d="M229.705,342.323
				c0,0-1.39-1.389-1.544-2.314s0-2.623,0-2.623l-0.463-2.624"/>
			<polyline fill="none" stroke="#0D1218" stroke-width="0.3934" stroke-miterlimit="22.9256" points="233.253,340.317 
				231.865,338.774 231.248,336.46 230.322,334.916 229.705,333.45 			"/>
			<path fill="none" stroke="#0D1218" stroke-width="0.3934" stroke-miterlimit="22.9256" d="M236.803,344.021
				c0,0,1.234,0.617,2.47,0.309c1.234-0.309,1.389-0.771,2.777-0.618c1.39,0.155,2.47,0.927,2.47,0.927"/>
			<path fill="none" stroke="#0D1218" stroke-width="0.3934" stroke-miterlimit="22.9256" d="M233.872,345.997
				c0,0,1.234-0.617,2.469-0.309s1.39,0.771,2.778,0.617s2.469-0.926,2.469-0.926"/>
			<path fill="none" stroke="#0D1218" stroke-width="0.3934" stroke-miterlimit="22.9256" d="M238.964,347.108c0,0,0,1.389,0,2.16
				s0.154,1.389,0.154,1.389"/>
			<g>
				<path fill="#FFFFFF" d="M229.889,352.231c-0.016,0.101-0.024,0.203-0.024,0.309c0,1.123,0.968,2.034,2.161,2.034
					c1.05,0,1.924-0.704,2.12-1.637l-0.486-0.563l-0.754-0.379l-0.854-0.118l-2.111,0.284L229.889,352.231z M229.889,352.231
					L229.889,352.231L229.889,352.231z"/>
			</g>
			<path fill="none" stroke="#0D1218" stroke-width="0.4765" stroke-miterlimit="22.9256" d="M233.927,359.459
				c-0.109-8.153,1.309-8.199-5-7.239"/>
			<g>
				<path fill="#13151D" d="M230.092,352.104c-0.015,0.098-0.022,0.197-0.022,0.299c0,1.085,0.88,1.965,1.966,1.965
					c0.954,0,1.749-0.68,1.929-1.581l-0.443-0.544l-0.686-0.366l-0.777-0.114l-1.92,0.273L230.092,352.104z M230.092,352.104
					L230.092,352.104L230.092,352.104z"/>
			</g>
			<polygon fill="#FFFFFF" points="231.784,352.196 231.784,353.134 231.807,353.478 232.515,351.991 			"/>
			<g>
				<path fill="#FFFFFF" d="M248.672,352.644c0.017,0.1,0.024,0.203,0.024,0.308c0,1.124-0.967,2.034-2.161,2.034
					c-1.05,0-1.924-0.703-2.121-1.637l0.487-0.563l0.754-0.378l0.854-0.119l2.111,0.284L248.672,352.644z M248.672,352.644
					L248.672,352.644L248.672,352.644z"/>
			</g>
			<path fill="none" stroke="#0D1218" stroke-width="0.4765" stroke-miterlimit="22.9256" d="M244.634,359.87
				c0.109-8.154-1.308-8.199,5-7.239"/>
			<g>
				<path fill="#13151D" d="M248.469,352.517c0.015,0.098,0.022,0.197,0.022,0.297c0,1.086-0.88,1.967-1.966,1.967
					c-0.954,0-1.749-0.68-1.929-1.582l0.442-0.544l0.687-0.366l0.777-0.114l1.92,0.274L248.469,352.517z M248.469,352.517
					L248.469,352.517L248.469,352.517z"/>
			</g>
			<polygon fill="#FFFFFF" points="246.778,352.608 246.778,353.546 246.754,353.888 246.046,352.403 			"/>
			<path fill="#13151D" d="M239.59,369.173c-0.56-1.063-1.459-3.546-2.834-3.611c-1.371-0.065-2.435-1.939-2.149-3.108
				c0.206,0.97,0.834,1.343,1.326,2.079c-1.713-2.567,2.688-1.226,3.521-1.195h0.294c0.832-0.03,5.234-1.372,3.521,1.195
				c0.492-0.736,1.12-1.109,1.325-2.079c0.286,1.169-0.777,3.043-2.148,3.108c-1.376,0.065-2.275,2.549-2.834,3.611H239.59
				L239.59,369.173z"/>
			<path fill="none" stroke="#0D1218" stroke-width="0.1193" stroke-miterlimit="22.9256" d="M239.59,369.173
				c-0.56-1.063-1.459-3.546-2.834-3.611c-1.371-0.065-2.435-1.939-2.149-3.108c0.206,0.97,0.834,1.343,1.326,2.079
				c-1.713-2.567,2.688-1.226,3.521-1.195h0.294c0.832-0.03,5.234-1.372,3.521,1.195c0.492-0.736,1.12-1.109,1.325-2.079
				c0.286,1.169-0.777,3.043-2.148,3.108c-1.376,0.065-2.275,2.549-2.834,3.611H239.59L239.59,369.173z"/>
			<g>
				<path fill="#13151D" d="M239.635,368.053l0.017,4.76L239.635,368.053z M239.635,368.053L239.635,368.053L239.635,368.053z"/>
			</g>
			
				<line fill="none" stroke="#13151D" stroke-width="0.7149" stroke-miterlimit="22.9256" x1="239.635" y1="368.053" x2="239.652" y2="372.813"/>
			<g>
				<path fill="#13151D" d="M234.745,374.857l0.036-0.023l4.786-3.062l0.063,1.01L234.745,374.857z M234.745,374.857
					L234.745,374.857L234.745,374.857z"/>
			</g>
			<polyline fill="none" stroke="#13151D" stroke-width="0.4765" stroke-miterlimit="22.9256" points="234.745,374.857 
				234.781,374.834 239.567,371.772 239.629,372.782 			"/>
			<g>
				<path fill="#13151D" d="M244.527,374.841l-0.036-0.022l-4.786-3.063l-0.029,1.011L244.527,374.841z M244.527,374.841
					L244.527,374.841L244.527,374.841z"/>
			</g>
			<polyline fill="none" stroke="#13151D" stroke-width="0.4765" stroke-miterlimit="22.9256" points="244.527,374.841 
				244.491,374.818 239.705,371.756 239.675,372.767 			"/>
			<path fill="none" stroke="#0D1218" stroke-width="0.3934" stroke-miterlimit="22.9256" d="M229.391,343.192
				c0,0-2.403-1.827-3.646-1.914s-3.813-0.262-4.228,0.348c-0.414,0.609-1.077,2.611-1.077,3.829c0,1.219,0.332,2.785,0.58,3.655
				c0.249,0.871,0.829,1.393,0.829,1.393"/>
			<path fill="none" stroke="#0D1218" stroke-width="0.3934" stroke-miterlimit="22.9256" d="M222.595,343.628
				c0,0,0.497-0.262,0.331,0.87s-0.331,1.915-0.331,1.915s-0.166,0.957,0.082,0.957c0.249,0,1.492-0.436,1.492-0.436l1.575-1.74"/>
			<path fill="none" stroke="#0D1218" stroke-width="0.3934" stroke-miterlimit="22.9256" d="M249.454,343.192
				c0,0,2.403-1.827,3.646-1.914s3.813-0.262,4.227,0.348c0.415,0.609,1.078,2.611,1.078,3.829c0,1.219-0.332,2.785-0.581,3.655
				c-0.248,0.871-0.828,1.393-0.828,1.393"/>
			<path fill="none" stroke="#0D1218" stroke-width="0.3934" stroke-miterlimit="22.9256" d="M256.25,343.628
				c0,0-0.497-0.262-0.331,0.87c0.165,1.132,0.331,1.915,0.331,1.915s0.166,0.957-0.083,0.957c-0.248,0-1.492-0.436-1.492-0.436
				l-1.574-1.74"/>
			<path fill="none" stroke="#13151D" stroke-width="0.2384" stroke-miterlimit="22.9256" d="M236.495,367.634
				c0,0-3.704-0.309-5.864,0.309c-2.161,0.617-2.315,0.154-2.315,0.154"/>
			<path fill="none" stroke="#13151D" stroke-width="0.2384" stroke-miterlimit="22.9256" d="M236.958,368.097
				c0,0-7.099,0.771-10.648,1.543"/>
			<path fill="none" stroke="#13151D" stroke-width="0.2384" stroke-miterlimit="22.9256" d="M236.958,368.868
				c0,0-5.556,0.309-7.407,1.08c-1.853,0.771-4.167,1.543-4.167,1.543"/>
			<path fill="none" stroke="#13151D" stroke-width="0.2384" stroke-miterlimit="22.9256" d="M236.495,369.485
				c0,0-1.543-0.154-2.469,0.309c-0.927,0.463-5.093,1.853-5.093,1.853"/>
			<path fill="none" stroke="#13151D" stroke-width="0.2384" stroke-miterlimit="22.9256" d="M242.205,367.634
				c0,0,3.704-0.309,5.865,0.309c2.16,0.617,2.314,0.154,2.314,0.154"/>
			<path fill="none" stroke="#13151D" stroke-width="0.2384" stroke-miterlimit="22.9256" d="M241.742,368.097
				c0,0,7.1,0.771,10.648,1.543"/>
			<path fill="none" stroke="#13151D" stroke-width="0.2384" stroke-miterlimit="22.9256" d="M241.742,368.868
				c0,0,5.556,0.309,7.408,1.08c1.852,0.771,4.167,1.543,4.167,1.543"/>
			<path fill="none" stroke="#13151D" stroke-width="0.2384" stroke-miterlimit="22.9256" d="M242.205,369.485
				c0,0,1.544-0.154,2.47,0.309s5.093,1.853,5.093,1.853"/>
			<path fill="none" stroke="#0D1218" stroke-width="0.3934" stroke-miterlimit="22.9256" d="M233.716,376.276
				c0,0-0.463,2.623-0.771,3.549c-0.309,0.927-0.463,2.624-0.463,3.858s0.154,2.007,0.309,3.241s0.617,2.314,0.617,2.314"/>
		</g>
	</g>
	<circle fill-rule="evenodd" clip-rule="evenodd" fill="#FFFFFF" cx="229.2" cy="229.2" r="229.2"/>
	<circle fill-rule="evenodd" clip-rule="evenodd" fill="#0095DA" cx="229.2" cy="229.2" r="221.287"/>
	<circle fill-rule="evenodd" clip-rule="evenodd" fill="#FFF200" cx="229.2" cy="229.2" r="213.568"/>
	<circle fill-rule="evenodd" clip-rule="evenodd" fill="#0095DA" cx="229.2" cy="229.2" r="205.688"/>
	
		<circle fill-rule="evenodd" clip-rule="evenodd" fill="#0095DA" stroke="#0095DA" stroke-width="0.5669" stroke-miterlimit="22.9256" cx="229.2" cy="229.2" r="199.168"/>
	<circle fill-rule="evenodd" clip-rule="evenodd" fill="#FFF200" cx="229.2" cy="229.2" r="190.087"/>
	<path fill="#0095DA" d="M293.004,277.849c0.011,2.508,0.438,4.697,1.304,6.56c0.854,1.873,2.102,3.318,3.745,4.348
		c1.643,1.04,3.635,1.565,5.989,1.577c1.522,0.011,2.99-0.164,4.403-0.525c1.401-0.352,2.661-0.942,3.777-1.774
		c1.117-0.833,1.993-1.95,2.65-3.351c0.646-1.413,0.986-3.166,0.997-5.258v-4.205c0-0.196-0.066-0.361-0.176-0.481
		c-0.12-0.132-0.284-0.208-0.481-0.241l-8.477-0.459c-0.197,0-0.339,0.055-0.438,0.164c-0.099,0.098-0.153,0.219-0.153,0.361v4.008
		c-0.012,0.492-0.132,0.844-0.351,1.063c-0.22,0.219-0.46,0.317-0.701,0.317c-0.307,0.011-0.547-0.099-0.744-0.329
		c-0.197-0.219-0.296-0.591-0.308-1.117v-10.315c0-0.164,0.033-0.296,0.099-0.383c0.066-0.099,0.165-0.143,0.296-0.143h10.974
		c0.164-0.011,0.307-0.065,0.416-0.175s0.175-0.252,0.175-0.416v-4.009c0-1.62-0.263-3.165-0.788-4.621
		c-0.515-1.446-1.271-2.737-2.277-3.877c-0.997-1.128-2.224-2.015-3.669-2.661c-1.446-0.657-3.1-0.986-4.961-0.996
		c-1.348-0.012-2.684,0.186-4.009,0.569c-1.324,0.394-2.54,1.007-3.636,1.839c-1.095,0.844-1.981,1.95-2.639,3.297
		c-0.657,1.357-0.997,3-1.019,4.939V277.849L293.004,277.849z M304.042,260.502c0.012-0.493,0.11-0.843,0.296-1.063
		c0.187-0.219,0.417-0.328,0.69-0.317c0.263-0.011,0.471,0.033,0.624,0.131c0.143,0.109,0.263,0.307,0.328,0.625
		c0.077,0.307,0.121,0.777,0.143,1.401c0.022,0.636,0.022,1.468,0.022,2.508c0.011,0.11-0.033,0.187-0.109,0.229
		c-0.077,0.045-0.241,0.077-0.482,0.088c-0.252,0.012-0.624,0.012-1.117,0.012c-0.099,0-0.196-0.033-0.273-0.088
		c-0.077-0.066-0.121-0.143-0.121-0.241V260.502L304.042,260.502z M318.236,289.808c0,0.164,0.044,0.295,0.132,0.383
		c0.087,0.099,0.196,0.143,0.328,0.143h9.593c0.165,0,0.307-0.066,0.416-0.176c0.11-0.109,0.176-0.252,0.176-0.416v-21.354
		c0-1.763,0.153-3.165,0.46-4.205c0.317-1.04,0.821-1.785,1.511-2.234c0.68-0.448,1.577-0.668,2.694-0.657
		c0.164,0,0.285-0.043,0.351-0.131c0.076-0.088,0.109-0.197,0.109-0.328v-9.463c0-0.131-0.044-0.24-0.12-0.328
		c-0.077-0.088-0.176-0.131-0.274-0.131c-0.679-0.012-1.292,0.01-1.828,0.076c-0.548,0.055-1.008,0.208-1.402,0.438
		c-0.383,0.23-0.689,0.613-0.909,1.129c-0.065,0.164-0.131,0.284-0.197,0.35c-0.065,0.077-0.131,0.109-0.196,0.109
		c-0.088-0.01-0.176-0.12-0.263-0.328c-0.099-0.208-0.197-0.449-0.307-0.723c-0.099-0.273-0.208-0.515-0.307-0.723
		c-0.11-0.208-0.209-0.318-0.308-0.328h-9.264c-0.132,0-0.23,0.043-0.296,0.143c-0.065,0.087-0.099,0.219-0.099,0.383V289.808
		L318.236,289.808z M356.542,264.116c0.176-0.012,0.317-0.066,0.449-0.176s0.197-0.252,0.208-0.416c0-1.643-0.208-3.209-0.646-4.72
		c-0.438-1.501-1.106-2.848-2.016-4.03s-2.069-2.125-3.493-2.814s-3.11-1.041-5.081-1.051c-1.468,0.01-2.837,0.262-4.107,0.777
		c-1.27,0.514-2.387,1.227-3.34,2.157c-0.964,0.919-1.708,2.004-2.245,3.241c-0.536,1.248-0.811,2.606-0.821,4.074
		c0.011,1.643,0.252,3.132,0.712,4.468s1.073,2.519,1.84,3.548s1.599,1.906,2.508,2.629c1.237,1.029,2.311,1.992,3.241,2.88
		c0.921,0.888,1.643,1.687,2.158,2.409c0.503,0.723,0.766,1.348,0.777,1.873c0,0.339-0.077,0.602-0.241,0.811
		c-0.153,0.197-0.383,0.307-0.679,0.307c-0.504-0.012-0.931-0.352-1.271-1.02c-0.351-0.668-0.559-1.598-0.635-2.792
		c-0.033-0.132-0.099-0.241-0.187-0.329c-0.099-0.087-0.208-0.131-0.34-0.131l-7.162,0.46c-0.131,0-0.24,0.065-0.328,0.175
		s-0.132,0.252-0.132,0.416c0.012,2.201,0.23,4.086,0.646,5.641c0.427,1.555,0.997,2.848,1.719,3.865
		c0.713,1.029,1.522,1.818,2.421,2.398c0.887,0.58,1.817,0.986,2.771,1.227c0.953,0.23,1.873,0.351,2.76,0.34
		c1.993-0.012,3.69-0.328,5.081-0.953c1.38-0.613,2.497-1.456,3.352-2.519c0.843-1.052,1.456-2.245,1.84-3.569
		c0.383-1.326,0.58-2.705,0.569-4.129c0-1.391-0.187-2.662-0.569-3.822c-0.384-1.15-0.986-2.268-1.797-3.329
		c-0.81-1.073-1.861-2.169-3.153-3.296c-1.818-1.633-3.198-2.969-4.15-4.031c-0.953-1.062-1.424-1.938-1.435-2.605
		c0.011-0.373,0.109-0.657,0.296-0.865c0.186-0.208,0.416-0.318,0.689-0.318c0.493,0,0.854,0.264,1.095,0.778
		c0.23,0.515,0.351,1.292,0.351,2.311c0,0.197,0.044,0.351,0.143,0.471c0.088,0.11,0.219,0.143,0.384,0.12L356.542,264.116z"/>
	<path fill="#0095DA" d="M45.704,269.18c0,13.356,1.465,25.811,4.396,37.42c2.93,11.553,7.495,21.753,13.582,30.488
		c6.086,8.791,13.807,15.61,23.274,20.569c9.411,4.959,20.569,7.439,33.475,7.552c9.524-0.057,18.541-1.804,26.994-5.241
		c8.51-3.438,16.005-8.341,22.542-14.766c6.538-6.367,11.666-14.031,15.441-22.936c3.72-8.904,5.635-18.822,5.692-29.756
		c-0.113-13.582-2.085-25.021-6.03-34.433c-3.889-9.411-9.186-16.513-15.892-21.415c-6.707-4.902-14.258-7.382-22.711-7.382
		c-4.396,0-8.115,0.563-11.271,1.578c-3.156,1.015-5.861,2.311-8.059,3.945c-2.254,1.578-4.114,3.212-5.692,4.959
		c-1.014,1.014-1.803,1.69-2.423,2.085c-0.62,0.451-1.127,0.62-1.634,0.62c-0.507-0.057-1.014-0.338-1.409-0.902
		c-0.395-0.563-0.62-1.295-0.62-2.141v-58.159c0-1.353,0.338-2.479,0.958-3.381c0.62-0.901,1.296-1.578,2.142-2.028
		c0.845-0.451,1.634-0.677,2.311-0.677c1.747-0.056,3.043,0.563,3.832,1.804c0.733,1.296,1.24,3.438,1.409,6.48
		c0.169,3.1,0.225,7.327,0.169,12.68c0,0.846,0.226,1.578,0.676,2.142c0.451,0.564,1.015,0.845,1.69,0.902l58.497-2.367
		c0.845-0.169,1.522-0.563,1.973-1.184c0.507-0.62,0.732-1.353,0.732-2.198c-0.056-12.285-1.86-23.275-5.41-32.968
		c-3.607-9.637-8.622-17.864-15.159-24.627c-6.538-6.763-14.258-11.947-23.218-15.498c-8.96-3.551-18.823-5.354-29.586-5.354
		c-9.862,0.057-19.048,2.085-27.614,6.199c-8.509,4.114-16.004,9.918-22.429,17.526c-6.425,7.608-11.497,16.737-15.104,27.332
		s-5.466,22.429-5.523,35.504V269.18L45.704,269.18z M125.841,293.188c-0.057,1.972-0.62,3.212-1.691,3.72
		c-1.071,0.506-2.311,0.732-3.719,0.676c-1.522,0-2.762-0.281-3.663-0.902c-0.902-0.619-1.409-1.634-1.409-3.155v-12.511
		c0-2.367,0.507-4.058,1.409-5.185c0.958-1.071,2.311-1.578,4.001-1.578c1.521,0,2.761,0.507,3.663,1.578
		c0.902,1.127,1.409,2.817,1.409,5.185V293.188L125.841,293.188z M199.215,179.914c0,0.845,0.226,1.409,0.62,1.804
		c0.395,0.394,0.902,0.563,1.409,0.563h46.324c0.732-0.057,1.408,0,2.028,0.112c0.62,0.113,0.958,0.395,1.015,0.902
		c0,0.338-0.169,0.845-0.451,1.465c-0.338,0.62-0.732,1.409-1.24,2.254c-4.396,6.368-8.453,13.863-12.229,22.598
		c-3.775,8.735-7.214,18.146-10.313,28.234c-3.155,10.088-5.973,20.4-8.453,30.939c-2.536,10.537-4.678,20.738-6.594,30.713
		c-1.86,9.975-3.438,19.16-4.678,27.558c-1.24,8.453-2.141,15.61-2.761,21.527c-0.62,5.917-0.958,10.087-0.958,12.567
		c0,1.353,0.338,2.367,0.958,3.043c0.564,0.676,1.409,1.015,2.423,1.015h70.669c0.676-0.057,1.296-0.339,1.859-0.845
		c0.507-0.564,0.789-1.184,0.846-1.86c0.056-28.29,1.465-53.594,4.282-75.91c2.762-22.261,6.537-41.59,11.271-57.989
		c4.79-16.343,10.2-29.755,16.23-40.238c0.507-1.014,0.901-1.972,1.239-2.987c0.282-0.958,0.451-2.141,0.451-3.438v-64.583
		c0-0.676-0.507-1.24-1.409-1.69c-0.901-0.451-2.142-0.676-3.663-0.676H201.582c-0.676,0-1.24,0.169-1.69,0.507
		s-0.676,0.845-0.676,1.521V179.914z"/>
	
		<polygon fill-rule="evenodd" clip-rule="evenodd" fill="#0095DA" stroke="#0095DA" stroke-width="0.5669" stroke-miterlimit="22.9256" points="
		49.244,163.483 76.985,232.927 50.1,297.415 38.591,257.151 35.547,202.017 	"/>
	<path d="M230.501,67.087c-0.045,0-0.09-0.021-0.125-0.06c-0.035-0.04-0.055-0.09-0.055-0.15V51.13c0-0.095-0.03-0.17-0.085-0.235
		c-0.05-0.06-0.125-0.095-0.215-0.095h-5.069c-0.11,0.005-0.2,0.055-0.275,0.14c-0.075,0.09-0.109,0.185-0.114,0.28v21.686
		c0.005,0.11,0.035,0.2,0.1,0.275c0.061,0.075,0.14,0.11,0.229,0.115h10.738c0.09-0.005,0.17-0.035,0.23-0.1
		c0.064-0.06,0.095-0.14,0.1-0.23v-5.579c0-0.08-0.03-0.145-0.085-0.205c-0.06-0.06-0.14-0.09-0.245-0.095H230.501L230.501,67.087z
		 M243.083,73.282c-0.009,0.11,0.01,0.203,0.065,0.285c0.051,0.082,0.126,0.126,0.214,0.142l10.658,1.309
		c0.09,0.006,0.173-0.014,0.24-0.071c0.072-0.051,0.111-0.127,0.128-0.216l0.68-5.537c0.01-0.08-0.012-0.148-0.06-0.214
		c-0.052-0.067-0.128-0.106-0.231-0.124l-5.15-0.632c-0.045-0.006-0.087-0.031-0.117-0.075c-0.029-0.044-0.043-0.097-0.036-0.156
		l0.216-1.757c0.009-0.074,0.036-0.131,0.081-0.166c0.045-0.04,0.097-0.054,0.157-0.046l2.411,0.296
		c0.06,0.007,0.117-0.016,0.174-0.06c0.05-0.044,0.083-0.105,0.097-0.179l0.666-5.418c0.007-0.06-0.007-0.111-0.042-0.156
		c-0.034-0.044-0.081-0.071-0.142-0.078l-2.352-0.289c-0.05-0.006-0.092-0.031-0.132-0.077c-0.039-0.045-0.054-0.097-0.051-0.157
		l0.204-1.667c0.008-0.06,0.034-0.107,0.078-0.142c0.045-0.035,0.097-0.049,0.156-0.042l4.972,0.611
		c0.09,0.011,0.173-0.01,0.238-0.057c0.071-0.042,0.11-0.112,0.126-0.201l0.658-5.359c0.012-0.094-0.01-0.172-0.056-0.243
		c-0.043-0.066-0.113-0.109-0.202-0.121l-10.568-1.298c-0.11-0.008-0.204,0.021-0.288,0.091c-0.085,0.07-0.13,0.155-0.146,0.249
		L243.083,73.282L243.083,73.282z M261.691,76.397c-0.019,0.088-0.011,0.172,0.021,0.239c0.036,0.074,0.103,0.119,0.204,0.146
		l5.458,1.16c1.008,0.209,1.89,0.269,2.64,0.178c0.75-0.091,1.39-0.287,1.924-0.587c0.528-0.296,0.968-0.658,1.323-1.079
		c0.35-0.421,0.633-0.862,0.841-1.313c0.215-0.456,0.376-0.881,0.487-1.282c0.11-0.4,0.191-0.731,0.24-0.986
		c0.158-0.769,0.183-1.51,0.07-2.229c-0.114-0.714-0.354-1.363-0.712-1.94c-0.357-0.582-0.819-1.053-1.392-1.415l0.013-0.059
		c0.783-0.079,1.425-0.285,1.924-0.608c0.504-0.327,0.896-0.729,1.186-1.204c0.289-0.47,0.512-0.964,0.667-1.479
		c0.15-0.515,0.272-0.995,0.357-1.442c0.105-0.494,0.122-1.006,0.062-1.54c-0.064-0.536-0.214-1.063-0.45-1.583
		c-0.235-0.525-0.556-1.018-0.965-1.473c-0.408-0.459-0.906-0.857-1.487-1.2c-0.587-0.34-1.26-0.59-2.021-0.757l-5.457-1.16
		c-0.103-0.022-0.188-0.004-0.261,0.047c-0.067,0.052-0.115,0.134-0.137,0.236L261.691,76.397L261.691,76.397z M270.591,60.351
		c0.012-0.059,0.041-0.099,0.087-0.12c0.045-0.021,0.097-0.025,0.155-0.013c0.123,0.026,0.244,0.078,0.36,0.158
		c0.12,0.082,0.21,0.188,0.279,0.32s0.082,0.288,0.049,0.465l-0.536,2.523c-0.041,0.196-0.119,0.348-0.229,0.452
		c-0.11,0.11-0.237,0.18-0.382,0.21c-0.142,0.037-0.279,0.038-0.421,0.008c-0.059-0.013-0.104-0.042-0.135-0.09
		c-0.03-0.048-0.04-0.101-0.027-0.16L270.591,60.351L270.591,60.351z M268.764,68.947c0.016-0.073,0.042-0.129,0.08-0.162
		c0.039-0.038,0.087-0.048,0.146-0.035c0.161,0.034,0.301,0.1,0.425,0.188c0.124,0.092,0.217,0.209,0.274,0.345
		c0.063,0.136,0.077,0.287,0.042,0.453l-0.655,3.081c-0.059,0.253-0.19,0.44-0.394,0.555c-0.199,0.121-0.422,0.155-0.667,0.109
		c-0.073-0.016-0.123-0.047-0.145-0.092c-0.025-0.046-0.029-0.099-0.018-0.157L268.764,68.947L268.764,68.947z M279.969,81.233
		c-0.033,0.104-0.035,0.2,0,0.292c0.031,0.091,0.094,0.151,0.177,0.187l10.091,3.673c0.086,0.026,0.171,0.025,0.25-0.016
		c0.081-0.034,0.137-0.099,0.173-0.182l1.908-5.243c0.027-0.075,0.021-0.146-0.011-0.222c-0.035-0.077-0.101-0.132-0.197-0.173
		l-4.876-1.775c-0.043-0.015-0.078-0.049-0.097-0.099c-0.02-0.049-0.021-0.104-0.001-0.16l0.605-1.663
		c0.025-0.07,0.064-0.12,0.116-0.144c0.053-0.029,0.107-0.031,0.163-0.01l2.283,0.831c0.056,0.021,0.118,0.011,0.183-0.019
		c0.059-0.031,0.104-0.084,0.135-0.153l1.867-5.13c0.021-0.056,0.02-0.11-0.005-0.161c-0.023-0.051-0.063-0.087-0.12-0.108
		l-2.227-0.811c-0.047-0.017-0.083-0.051-0.111-0.104c-0.028-0.053-0.03-0.106-0.015-0.165l0.574-1.578
		c0.021-0.057,0.057-0.097,0.108-0.121c0.051-0.024,0.104-0.025,0.161-0.005l4.707,1.713c0.084,0.031,0.17,0.03,0.245-0.001
		c0.078-0.025,0.132-0.085,0.168-0.168l1.846-5.073c0.033-0.089,0.03-0.17,0.001-0.25c-0.026-0.073-0.085-0.132-0.17-0.163
		l-10.006-3.642c-0.104-0.033-0.203-0.026-0.301,0.023c-0.098,0.049-0.161,0.122-0.199,0.21L279.969,81.233L279.969,81.233z
		 M297.394,88.491l9.845-19.322c0.055-0.096,0.122-0.162,0.215-0.2c0.087-0.039,0.174-0.035,0.257,0.002l4.517,2.302
		c0.094,0.047,0.16,0.115,0.194,0.2c0.04,0.087,0.044,0.19,0.017,0.311l-1.461,6.83c-0.027,0.121-0.037,0.217-0.029,0.289
		c0.009,0.071,0.026,0.114,0.054,0.128c0.039,0.02,0.093,0.014,0.154-0.028c0.058-0.038,0.121-0.118,0.183-0.238l3.036-5.96
		c0.051-0.098,0.122-0.162,0.214-0.2c0.093-0.037,0.188-0.028,0.284,0.016l4.009,2.042c0.104,0.059,0.169,0.142,0.195,0.246
		c0.023,0.107,0.012,0.208-0.038,0.306l-9.846,19.322c-0.05,0.098-0.117,0.165-0.2,0.207c-0.088,0.04-0.175,0.034-0.271-0.009
		l-4.998-2.546c-0.058-0.029-0.103-0.086-0.14-0.167c-0.035-0.074-0.041-0.162-0.018-0.25l1.274-5.41
		c0.042-0.147,0.05-0.261,0.036-0.346c-0.015-0.081-0.045-0.13-0.086-0.15c-0.04-0.021-0.084-0.01-0.141,0.035
		c-0.054,0.051-0.115,0.138-0.183,0.271l-2.411,4.73c-0.054,0.096-0.126,0.16-0.227,0.193c-0.102,0.033-0.197,0.023-0.298-0.022
		l-4.063-2.07c-0.077-0.045-0.126-0.115-0.137-0.204C297.321,88.701,297.339,88.598,297.394,88.491L297.394,88.491z M333.998,93.339
		c0.102,0.064,0.198,0.083,0.287,0.061c0.093-0.027,0.172-0.087,0.231-0.174c0.512-0.74,0.877-1.522,1.097-2.351
		c0.216-0.831,0.271-1.666,0.165-2.502c-0.104-0.836-0.38-1.627-0.831-2.377c-0.453-0.756-1.088-1.427-1.908-2.007
		c-0.662-0.457-1.336-0.777-2.015-0.958c-0.681-0.178-1.349-0.243-2.011-0.188c-0.658,0.051-1.284,0.205-1.884,0.451
		s-1.142,0.567-1.639,0.964s-0.921,0.844-1.276,1.352c-0.393,0.561-0.699,1.189-0.923,1.893c-0.222,0.699-0.334,1.444-0.345,2.236
		c-0.012,0.792,0.099,1.601,0.335,2.432c0.247,0.833,0.461,1.599,0.649,2.298c0.188,0.699,0.317,1.29,0.378,1.778
		c0.062,0.488,0.025,0.835-0.104,1.038c-0.195,0.278-0.393,0.446-0.576,0.5c-0.188,0.051-0.367,0.018-0.54-0.109
		c-0.145-0.107-0.239-0.259-0.279-0.464c-0.044-0.208-0.045-0.441-0.002-0.703c0.044-0.263,0.113-0.537,0.222-0.822
		c0.107-0.285,0.231-0.558,0.382-0.825c0.065-0.12,0.094-0.221,0.079-0.305c-0.012-0.087-0.064-0.161-0.15-0.221l-3.511-2.202
		c-0.102-0.065-0.192-0.092-0.275-0.077c-0.084,0.015-0.146,0.051-0.191,0.116c-0.691,0.987-1.208,1.961-1.56,2.924
		c-0.351,0.962-0.505,1.897-0.469,2.796c0.037,0.898,0.287,1.751,0.748,2.549c0.464,0.802,1.158,1.526,2.09,2.184
		c0.81,0.561,1.643,0.913,2.489,1.054c0.852,0.145,1.691,0.104,2.521-0.121c0.822-0.224,1.604-0.609,2.344-1.16
		c0.732-0.549,1.397-1.237,1.977-2.064c0.423-0.613,0.716-1.293,0.872-2.038c0.162-0.747,0.203-1.511,0.133-2.299
		c-0.077-0.787-0.256-1.552-0.537-2.292c-0.26-0.683-0.48-1.319-0.658-1.901c-0.18-0.589-0.284-1.102-0.316-1.552
		c-0.032-0.443,0.042-0.8,0.221-1.065c0.089-0.127,0.189-0.209,0.312-0.252c0.118-0.039,0.241-0.014,0.367,0.068
		c0.344,0.241,0.383,0.708,0.117,1.401c-0.044,0.115-0.056,0.21-0.035,0.286s0.067,0.139,0.142,0.19L333.998,93.339L333.998,93.339z
		 M337.511,116.837l-3.729-3.478c-0.077-0.079-0.119-0.173-0.13-0.286c-0.004-0.113,0.031-0.217,0.109-0.308l10.679-11.451
		c0.07-0.084,0.104-0.17,0.093-0.269s-0.053-0.186-0.133-0.261l-2.194-2.045c-0.065-0.068-0.094-0.163-0.091-0.283
		c0-0.117,0.031-0.217,0.093-0.29l3.641-3.905c0.062-0.066,0.131-0.104,0.201-0.113c0.067-0.006,0.135,0.017,0.201,0.078
		l9.389,8.755c0.08,0.075,0.126,0.158,0.14,0.253c0.014,0.095-0.021,0.185-0.1,0.276l-3.601,3.861
		c-0.085,0.084-0.183,0.13-0.292,0.137c-0.109,0-0.21-0.039-0.302-0.117l-2.193-2.045c-0.077-0.072-0.166-0.107-0.265-0.097
		c-0.096,0.007-0.192,0.06-0.285,0.159l-10.657,11.429c-0.079,0.077-0.17,0.116-0.275,0.12
		C337.703,116.961,337.606,116.919,337.511,116.837L337.511,116.837z M345.467,124.783c-0.08,0.076-0.128,0.158-0.142,0.256
		c-0.018,0.095,0.009,0.178,0.063,0.249l7.045,8.104c0.063,0.064,0.138,0.105,0.227,0.108c0.088,0.009,0.168-0.02,0.239-0.076
		l4.21-3.66c0.061-0.053,0.09-0.118,0.099-0.199c0.007-0.085-0.023-0.165-0.089-0.247l-3.404-3.917
		c-0.029-0.034-0.044-0.081-0.036-0.134c0.007-0.053,0.032-0.101,0.077-0.14l1.335-1.161c0.058-0.049,0.115-0.074,0.172-0.069
		c0.061,0,0.108,0.025,0.147,0.07l1.594,1.833c0.039,0.045,0.099,0.067,0.169,0.072c0.066,0.001,0.133-0.023,0.192-0.068l4.12-3.582
		c0.045-0.04,0.069-0.087,0.073-0.144c0.004-0.056-0.014-0.107-0.053-0.152l-1.555-1.788c-0.033-0.038-0.047-0.085-0.047-0.146
		c0.001-0.06,0.025-0.108,0.067-0.151l1.268-1.102c0.046-0.04,0.097-0.057,0.153-0.053c0.056,0.004,0.104,0.028,0.144,0.074
		l3.286,3.781c0.059,0.068,0.134,0.108,0.215,0.118c0.08,0.017,0.156-0.011,0.228-0.065l4.075-3.542
		c0.071-0.062,0.108-0.134,0.121-0.218c0.013-0.077-0.01-0.156-0.069-0.224l-6.985-8.036c-0.076-0.08-0.165-0.122-0.274-0.126
		c-0.11-0.004-0.201,0.029-0.276,0.087L345.467,124.783L345.467,124.783z M360.15,144.43l-3.137-4.65
		c-0.066-0.1-0.088-0.194-0.067-0.28c0.02-0.086,0.078-0.161,0.165-0.22l17.979-12.126c0.104-0.07,0.21-0.1,0.319-0.089
		c0.109,0.01,0.2,0.064,0.271,0.161l3.002,4.451c0.888,1.325,1.378,2.641,1.471,3.941c0.089,1.303-0.224,2.557-0.936,3.754
		c-0.713,1.205-1.818,2.318-3.328,3.343l-4.625,3.12c-1.012,0.682-2.039,1.17-3.069,1.467c-1.034,0.299-2.04,0.399-3.021,0.295
		c-0.984-0.101-1.902-0.417-2.756-0.939C361.561,146.138,360.805,145.393,360.15,144.43L360.15,144.43z M366.723,141.624
		l7.236-4.881c0.124-0.084,0.226-0.176,0.295-0.277c0.075-0.104,0.114-0.216,0.126-0.332c0.006-0.082-0.006-0.171-0.033-0.273
		c-0.024-0.098-0.058-0.184-0.103-0.25c-0.066-0.1-0.175-0.099-0.324,0.001l-8.256,5.569c-0.074,0.05-0.116,0.096-0.132,0.144
		c-0.013,0.044,0,0.09,0.033,0.14c0.032,0.057,0.095,0.13,0.182,0.215c0.095,0.087,0.219,0.137,0.381,0.154
		C366.284,141.848,366.485,141.779,366.723,141.624L366.723,141.624z M371.665,165.216c0.058,0.111,0.131,0.187,0.231,0.223
		c0.099,0.036,0.198,0.034,0.3-0.007l14.163-6.604c0.122-0.057,0.231-0.07,0.322-0.041c0.096,0.027,0.165,0.094,0.21,0.189
		l1.268,2.718c0.055,0.106,0.134,0.18,0.235,0.221c0.104,0.034,0.212,0.028,0.322-0.018l4.785-2.231
		c0.106-0.055,0.173-0.125,0.195-0.218c0.023-0.094,0.013-0.188-0.034-0.287l-5.426-11.635c-0.038-0.082-0.092-0.128-0.157-0.148
		c-0.068-0.018-0.146-0.008-0.229,0.03l-4.839,2.256c-0.084,0.044-0.15,0.125-0.194,0.234c-0.048,0.111-0.057,0.208-0.021,0.297
		l1.268,2.718c0.047,0.1,0.053,0.196,0.025,0.292c-0.026,0.096-0.089,0.163-0.187,0.214l-14.19,6.617
		c-0.106,0.055-0.178,0.139-0.217,0.245c-0.032,0.109-0.028,0.211,0.014,0.313L371.665,165.216z"/>
	<g>
		<path fill="#13151D" d="M218.747,343.173c0,0,1.389-2.547,2.392-3.396s2.623-1.466,2.623-1.466s1.467-1.313,1.93-2.007
			s1.08-1.003,1.852-1.003s1.234,0.077,1.234,0.077s-0.231-0.231,0.231-0.694c0.464-0.463,1.158-0.231,1.775-0.617
			c0.617-0.387,0.849-0.617,1.543-0.541c0.694,0.078,0.617,0.232,1.157-0.154c0.541-0.385,0.85-1.002,1.467-0.693
			s0.926,0.076,1.697,0c0.771-0.078,0.231-0.541,1.93-0.309c1.697,0.23,2.469,0.693,2.469,0.693s-0.463,0.078,0.771-0.23
			s2.007-0.232,2.778-0.154c0.771,0.076,1.543,0.693,1.543,0.693l0.463,0.387c0,0-0.309-0.154,0.926-0.232
			c1.234-0.076,1.467-1.002,2.547-0.539s1.62,0.848,1.929,1.08c0.309,0.231,0.463,0.771,0.849,1.003s0.927,0,1.698,0.309
			s0.926,0.617,2.315,1.081c1.389,0.463,1.466,0.153,1.929,0.926c0.463,0.771,1.157,2.006,1.697,2.314s0.771,0.309,1.312,1.003
			c0.541,0.694,0.772,1.235,1.158,1.929c0.386,0.695,0.309,0.617,0.54,1.313c0.231,0.694,1.08,1.003,1.08,1.697s0,1.697,0,1.697
			s0.54,0.617,0.694,1.621c0.154,1.003-0.154,2.237-0.154,2.237s0.463,0.618,0.694,1.853s0.154,2.16,0.154,2.16
			s-0.154,0.926,0.231,1.775c0.386,0.848,0.54,2.546,0.231,2.777s-0.309,0.85-0.309,0.85s0.231,0.539,0.231,1.234
			c0,0.694,0,1.002-0.386,1.389c-0.386,0.386-0.463,1.08-0.463,1.08s0.54,1.543,0.231,2.238c-0.309,0.694-0.926,2.006-1.157,2.237
			s-0.694,0.54-0.694,0.849s0,1.697-0.309,2.084c-0.309,0.386-0.54,1.389-1.003,1.697c-0.464,0.309-0.695,0.771-0.695,0.771
			s0.464,0.463,0.31,1.313c-0.155,0.849-0.31,2.392-0.541,2.854s-0.771,0.694-0.771,0.694s-0.309,1.003-0.386,1.39
			c-0.077,0.386-0.231,0.694-0.231,0.694s-0.077,0-0.077,0.309s-0.231,1.08-0.386,1.312s-0.309,0.463-0.309,0.463l-0.463-0.154
			c0,0-0.849,0.463-0.849,0.771s-0.154,0.54-0.386,0.849c-0.232,0.309-1.235,1.698-1.93,1.698s-1.003,0.154-1.003,0.154
			s0.54-0.309-0.771,0.617c-1.313,0.926-2.778,1.157-2.778,1.157s-0.617,0.463-1.312,0.926c-0.694,0.464-1.466,0.464-1.466,0.464
			s-0.386,0.463-1.004,0.617c-0.617,0.154-1.697,0-1.697,0s-0.694,0.309-1.157,0.617s-1.234,0.617-1.929,0.694
			c-0.695,0.077-1.621,0.077-1.621,0.077s0.154,0.231-1.08,0.231s-1.466-0.54-1.466-0.54s-1.467,0.54-2.007,0.231
			s-1.234-1.003-1.234-1.003s-0.694-0.077-2.161-0.309c-1.466-0.231-1.234-1.157-1.234-1.157s-1.157-0.232-2.006-0.617
			c-0.849-0.387-1.003-1.158-1.003-1.158s-0.541-0.617-1.698-1.003s-1.543-1.853-1.543-1.853s0,0.155-0.617-0.463
			c-0.617-0.617-1.389-1.697-1.389-1.697s-0.387-0.231-1.004-1.08s-0.849-1.93-0.849-1.93s-0.077-0.463-1.003-1.389
			c-0.926-0.926-1.389-2.083-1.389-2.314s-0.231-1.312-1.003-2.084c-0.772-0.771-1.235-2.623-1.235-3.164
			c0-0.539-0.077-1.156-0.077-1.156s-1.235-1.39-1.235-2.161c0-0.772-0.232-2.393-0.232-2.393s0.078-0.54-0.154-1.543
			c-0.232-1.003-0.463-2.546-0.386-3.087c0.077-0.539,0.077-1.157,0.077-1.157s-0.386-0.926-0.386-1.544
			c0-0.616,0.154-1.389,0.154-1.389s0.771-1.234,0.771-1.852s0-1.467,0-2.16c0-0.695,0.155-1.234,0.309-1.852
			c0.154-0.618,0.771-1.39,0.771-1.39l0.849-0.694c0,0-0.386-0.695-0.386-1.389c0-0.695,0.386-1.467,0.463-2.007
			s0.463-0.694,0.463-0.694L218.747,343.173L218.747,343.173z"/>
		<path fill="none" stroke="#13151D" stroke-width="0.4765" stroke-miterlimit="22.9256" d="M218.747,343.173
			c0,0,1.389-2.547,2.392-3.396s2.623-1.466,2.623-1.466s1.467-1.313,1.93-2.007s1.08-1.003,1.852-1.003s1.234,0.077,1.234,0.077
			s-0.231-0.231,0.231-0.694c0.464-0.463,1.158-0.231,1.775-0.617c0.617-0.387,0.849-0.617,1.543-0.541
			c0.694,0.078,0.617,0.232,1.157-0.154c0.541-0.385,0.85-1.002,1.467-0.693s0.926,0.076,1.697,0
			c0.771-0.078,0.231-0.541,1.93-0.309c1.697,0.23,2.469,0.693,2.469,0.693s-0.463,0.078,0.771-0.23s2.007-0.232,2.778-0.154
			c0.771,0.076,1.543,0.693,1.543,0.693l0.463,0.387c0,0-0.309-0.154,0.926-0.232c1.234-0.076,1.467-1.002,2.547-0.539
			s1.62,0.848,1.929,1.08c0.309,0.231,0.463,0.771,0.849,1.003s0.927,0,1.698,0.309s0.926,0.617,2.315,1.081
			c1.389,0.463,1.466,0.153,1.929,0.926c0.463,0.771,1.157,2.006,1.697,2.314s0.771,0.309,1.312,1.003
			c0.541,0.694,0.772,1.235,1.158,1.929c0.386,0.695,0.309,0.617,0.54,1.313c0.231,0.694,1.08,1.003,1.08,1.697s0,1.697,0,1.697
			s0.54,0.617,0.694,1.621c0.154,1.003-0.154,2.237-0.154,2.237s0.463,0.618,0.694,1.853s0.154,2.16,0.154,2.16
			s-0.154,0.926,0.231,1.775c0.386,0.848,0.54,2.546,0.231,2.777s-0.309,0.85-0.309,0.85s0.231,0.539,0.231,1.234
			c0,0.694,0,1.002-0.386,1.389c-0.386,0.386-0.463,1.08-0.463,1.08s0.54,1.543,0.231,2.238c-0.309,0.694-0.926,2.006-1.157,2.237
			s-0.694,0.54-0.694,0.849s0,1.697-0.309,2.084c-0.309,0.386-0.54,1.389-1.003,1.697c-0.464,0.309-0.695,0.771-0.695,0.771
			s0.464,0.463,0.31,1.313c-0.155,0.849-0.31,2.392-0.541,2.854s-0.771,0.694-0.771,0.694s-0.309,1.003-0.386,1.39
			c-0.077,0.386-0.231,0.694-0.231,0.694s-0.077,0-0.077,0.309s-0.231,1.08-0.386,1.312s-0.309,0.463-0.309,0.463l-0.463-0.154
			c0,0-0.849,0.463-0.849,0.771s-0.154,0.54-0.386,0.849c-0.232,0.309-1.235,1.698-1.93,1.698s-1.003,0.154-1.003,0.154
			s0.54-0.309-0.771,0.617c-1.313,0.926-2.778,1.157-2.778,1.157s-0.617,0.463-1.312,0.926c-0.694,0.464-1.466,0.464-1.466,0.464
			s-0.386,0.463-1.004,0.617c-0.617,0.154-1.697,0-1.697,0s-0.694,0.309-1.157,0.617s-1.234,0.617-1.929,0.694
			c-0.695,0.077-1.621,0.077-1.621,0.077s0.154,0.231-1.08,0.231s-1.466-0.54-1.466-0.54s-1.467,0.54-2.007,0.231
			s-1.234-1.003-1.234-1.003s-0.694-0.077-2.161-0.309c-1.466-0.231-1.234-1.157-1.234-1.157s-1.157-0.232-2.006-0.617
			c-0.849-0.387-1.003-1.158-1.003-1.158s-0.541-0.617-1.698-1.003s-1.543-1.853-1.543-1.853s0,0.155-0.617-0.463
			c-0.617-0.617-1.389-1.697-1.389-1.697s-0.387-0.231-1.004-1.08s-0.849-1.93-0.849-1.93s-0.077-0.463-1.003-1.389
			c-0.926-0.926-1.389-2.083-1.389-2.314s-0.231-1.312-1.003-2.084c-0.772-0.771-1.235-2.623-1.235-3.164
			c0-0.539-0.077-1.156-0.077-1.156s-1.235-1.39-1.235-2.161c0-0.772-0.232-2.393-0.232-2.393s0.078-0.54-0.154-1.543
			c-0.232-1.003-0.463-2.546-0.386-3.087c0.077-0.539,0.077-1.157,0.077-1.157s-0.386-0.926-0.386-1.544
			c0-0.616,0.154-1.389,0.154-1.389s0.771-1.234,0.771-1.852s0-1.467,0-2.16c0-0.695,0.155-1.234,0.309-1.852
			c0.154-0.618,0.771-1.39,0.771-1.39l0.849-0.694c0,0-0.386-0.695-0.386-1.389c0-0.695,0.386-1.467,0.463-2.007
			s0.463-0.694,0.463-0.694L218.747,343.173L218.747,343.173z"/>
		<path fill="#ED1C24" d="M217.667,342.556c0,0,1.389-2.547,2.392-3.396c1.003-0.849,2.624-1.466,2.624-1.466
			s1.467-1.313,1.93-2.007s1.08-1.003,1.852-1.003s1.234,0.077,1.234,0.077s-0.231-0.231,0.231-0.694s1.158-0.232,1.774-0.617
			c0.618-0.387,0.85-0.617,1.544-0.541c0.694,0.078,0.617,0.232,1.157-0.154c0.54-0.385,0.849-1.003,1.466-0.694
			c0.618,0.31,0.927,0.077,1.698,0s0.231-0.54,1.929-0.309c1.698,0.231,2.47,0.694,2.47,0.694s-0.463,0.078,0.771-0.231
			c1.234-0.308,2.006-0.231,2.778-0.154c0.771,0.077,1.543,0.694,1.543,0.694l0.463,0.387c0,0-0.309-0.154,0.926-0.232
			c1.234-0.076,1.466-1.002,2.547-0.539c1.08,0.463,1.62,0.848,1.929,1.08c0.309,0.231,0.463,0.771,0.849,1.003s0.927,0,1.698,0.309
			c0.771,0.308,0.926,0.617,2.314,1.08s1.466,0.154,1.93,0.926c0.463,0.772,1.157,2.007,1.697,2.315s0.771,0.309,1.312,1.003
			s0.771,1.234,1.157,1.929c0.387,0.695,0.309,0.617,0.54,1.313c0.232,0.694,1.081,1.003,1.081,1.697s0,1.697,0,1.697
			s0.54,0.617,0.694,1.621c0.154,1.003-0.154,2.237-0.154,2.237s0.463,0.617,0.694,1.853c0.231,1.234,0.154,2.16,0.154,2.16
			s-0.154,0.926,0.231,1.775c0.386,0.848,0.54,2.546,0.231,2.777s-0.309,0.849-0.309,0.849s0.231,0.54,0.231,1.235
			c0,0.693,0,1.002-0.386,1.389c-0.386,0.386-0.463,1.08-0.463,1.08s0.54,1.543,0.231,2.238c-0.309,0.693-0.926,2.006-1.157,2.237
			s-0.694,0.54-0.694,0.849s0,1.697-0.31,2.084c-0.308,0.385-0.54,1.389-1.003,1.697s-0.694,0.771-0.694,0.771
			s0.463,0.463,0.309,1.313c-0.154,0.849-0.309,2.392-0.54,2.854s-0.771,0.694-0.771,0.694s-0.309,1.003-0.386,1.389
			c-0.077,0.387-0.231,0.695-0.231,0.695s-0.077,0-0.077,0.308c0,0.31-0.231,1.081-0.386,1.313s-0.309,0.463-0.309,0.463
			l-0.463-0.154c0,0-0.85,0.463-0.85,0.771s-0.153,0.54-0.386,0.849c-0.231,0.309-1.234,1.697-1.929,1.697s-1.003,0.155-1.003,0.155
			s0.54-0.309-0.771,0.617c-1.313,0.926-2.778,1.157-2.778,1.157s-0.617,0.463-1.312,0.926c-0.695,0.463-1.467,0.463-1.467,0.463
			s-0.386,0.463-1.003,0.618c-0.617,0.153-1.697,0-1.697,0s-0.694,0.309-1.157,0.617s-1.235,0.617-1.93,0.694
			s-1.62,0.077-1.62,0.077s0.154,0.231-1.08,0.231s-1.467-0.54-1.467-0.54s-1.466,0.54-2.006,0.231s-1.234-1.003-1.234-1.003
			s-0.694-0.077-2.161-0.309c-1.466-0.232-1.234-1.157-1.234-1.157s-1.157-0.232-2.007-0.618c-0.849-0.386-1.003-1.157-1.003-1.157
			s-0.54-0.617-1.697-1.003s-1.543-1.853-1.543-1.853s0,0.154-0.617-0.463c-0.618-0.617-1.39-1.697-1.39-1.697
			s-0.386-0.231-1.003-1.08c-0.617-0.85-0.849-1.93-0.849-1.93s-0.077-0.463-1.002-1.389c-0.926-0.926-1.389-2.083-1.389-2.315
			c0-0.23-0.232-1.312-1.003-2.083s-1.235-2.623-1.235-3.164c0-0.539-0.077-1.157-0.077-1.157s-1.235-1.389-1.235-2.161
			c0-0.771-0.231-2.392-0.231-2.392s0.077-0.54-0.154-1.543s-0.463-2.546-0.386-3.087c0.077-0.54,0.077-1.157,0.077-1.157
			s-0.386-0.927-0.386-1.543c0-0.618,0.154-1.39,0.154-1.39s0.771-1.234,0.771-1.852s0-1.467,0-2.16
			c0-0.695,0.154-1.234,0.309-1.853c0.154-0.617,0.771-1.389,0.771-1.389l0.849-0.694c0,0-0.386-0.695-0.386-1.389
			c0-0.695,0.386-1.467,0.463-2.007s0.463-0.694,0.463-0.694L217.667,342.556L217.667,342.556z"/>
		<path fill="none" stroke="#13151D" stroke-width="0.4765" stroke-miterlimit="22.9256" d="M217.667,342.556
			c0,0,1.389-2.547,2.392-3.396c1.003-0.849,2.624-1.466,2.624-1.466s1.467-1.313,1.93-2.007s1.08-1.003,1.852-1.003
			s1.234,0.077,1.234,0.077s-0.231-0.231,0.231-0.694s1.158-0.232,1.774-0.617c0.618-0.387,0.85-0.617,1.544-0.541
			c0.694,0.078,0.617,0.232,1.157-0.154c0.54-0.385,0.849-1.003,1.466-0.694c0.618,0.31,0.927,0.077,1.698,0s0.231-0.54,1.929-0.309
			c1.698,0.231,2.47,0.694,2.47,0.694s-0.463,0.078,0.771-0.231c1.234-0.308,2.006-0.231,2.778-0.154
			c0.771,0.077,1.543,0.694,1.543,0.694l0.463,0.387c0,0-0.309-0.154,0.926-0.232c1.234-0.076,1.466-1.002,2.547-0.539
			c1.08,0.463,1.62,0.848,1.929,1.08c0.309,0.231,0.463,0.771,0.849,1.003s0.927,0,1.698,0.309c0.771,0.308,0.926,0.617,2.314,1.08
			s1.466,0.154,1.93,0.926c0.463,0.772,1.157,2.007,1.697,2.315s0.771,0.309,1.312,1.003s0.771,1.234,1.157,1.929
			c0.387,0.695,0.309,0.617,0.54,1.313c0.232,0.694,1.081,1.003,1.081,1.697s0,1.697,0,1.697s0.54,0.617,0.694,1.621
			c0.154,1.003-0.154,2.237-0.154,2.237s0.463,0.617,0.694,1.853c0.231,1.234,0.154,2.16,0.154,2.16s-0.154,0.926,0.231,1.775
			c0.386,0.848,0.54,2.546,0.231,2.777s-0.309,0.849-0.309,0.849s0.231,0.54,0.231,1.235c0,0.693,0,1.002-0.386,1.389
			c-0.386,0.386-0.463,1.08-0.463,1.08s0.54,1.543,0.231,2.238c-0.309,0.693-0.926,2.006-1.157,2.237s-0.694,0.54-0.694,0.849
			s0,1.697-0.31,2.084c-0.308,0.385-0.54,1.389-1.003,1.697s-0.694,0.771-0.694,0.771s0.463,0.463,0.309,1.313
			c-0.154,0.849-0.309,2.392-0.54,2.854s-0.771,0.694-0.771,0.694s-0.309,1.003-0.386,1.389c-0.077,0.387-0.231,0.695-0.231,0.695
			s-0.077,0-0.077,0.308c0,0.31-0.231,1.081-0.386,1.313s-0.309,0.463-0.309,0.463l-0.463-0.154c0,0-0.85,0.463-0.85,0.771
			s-0.153,0.54-0.386,0.849c-0.231,0.309-1.234,1.697-1.929,1.697s-1.003,0.155-1.003,0.155s0.54-0.309-0.771,0.617
			c-1.313,0.926-2.778,1.157-2.778,1.157s-0.617,0.463-1.312,0.926c-0.695,0.463-1.467,0.463-1.467,0.463s-0.386,0.463-1.003,0.618
			c-0.617,0.153-1.697,0-1.697,0s-0.694,0.309-1.157,0.617s-1.235,0.617-1.93,0.694s-1.62,0.077-1.62,0.077s0.154,0.231-1.08,0.231
			s-1.467-0.54-1.467-0.54s-1.466,0.54-2.006,0.231s-1.234-1.003-1.234-1.003s-0.694-0.077-2.161-0.309
			c-1.466-0.232-1.234-1.157-1.234-1.157s-1.157-0.232-2.007-0.618c-0.849-0.386-1.003-1.157-1.003-1.157s-0.54-0.617-1.697-1.003
			s-1.543-1.853-1.543-1.853s0,0.154-0.617-0.463c-0.618-0.617-1.39-1.697-1.39-1.697s-0.386-0.231-1.003-1.08
			c-0.617-0.85-0.849-1.93-0.849-1.93s-0.077-0.463-1.002-1.389c-0.926-0.926-1.389-2.083-1.389-2.315
			c0-0.23-0.232-1.312-1.003-2.083s-1.235-2.623-1.235-3.164c0-0.539-0.077-1.157-0.077-1.157s-1.235-1.389-1.235-2.161
			c0-0.771-0.231-2.392-0.231-2.392s0.077-0.54-0.154-1.543s-0.463-2.546-0.386-3.087c0.077-0.54,0.077-1.157,0.077-1.157
			s-0.386-0.927-0.386-1.543c0-0.618,0.154-1.39,0.154-1.39s0.771-1.234,0.771-1.852s0-1.467,0-2.16
			c0-0.695,0.154-1.234,0.309-1.853c0.154-0.617,0.771-1.389,0.771-1.389l0.849-0.694c0,0-0.386-0.695-0.386-1.389
			c0-0.695,0.386-1.467,0.463-2.007s0.463-0.694,0.463-0.694L217.667,342.556L217.667,342.556z"/>
		<path fill="none" stroke="#0D1218" stroke-width="0.3934" stroke-miterlimit="22.9256" d="M231.556,374.424
			c0,0,0.463,1.081,0,2.007s-2.778,2.469-2.778,3.24c0,0.772,0,3.55,0,3.55l0.927,3.241l0.771,1.389"/>
		<path fill="none" stroke="#0D1218" stroke-width="0.3934" stroke-miterlimit="22.9256" d="M247.143,374.424l-0.463,1.235
			c0,0-0.154,1.234,0.309,1.697s0.771,1.234,0.771,1.234l0.772,3.704l-0.154,5.864"/>
		<path fill="none" stroke="#0D1218" stroke-width="0.3934" stroke-miterlimit="22.9256" d="M244.057,380.598
			c0,0-1.389,0.617-0.617,2.314s-0.463,1.08,0,2.624c0.463,1.543-0.154,4.32-0.154,4.32"/>
		<path fill="none" stroke="#0D1218" stroke-width="0.3934" stroke-miterlimit="22.9256" d="M240.199,381.986
			c0,0-0.154,0.154-0.463,1.543s0,2.161,0,2.778s-0.463,3.396-0.463,3.396l-0.154,0.771"/>
		<polyline fill="none" stroke="#0D1218" stroke-width="0.3934" stroke-miterlimit="22.9256" points="236.649,381.369 
			236.186,383.066 236.186,385.69 236.34,388.468 236.032,390.475 		"/>
		<path fill="none" stroke="#0D1218" stroke-width="0.3934" stroke-miterlimit="22.9256" d="M246.989,379.671l-0.926,2.778
			c0,0,1.234,2.778,1.234,3.241s-0.771,3.086-0.771,3.086"/>
		<path fill="none" stroke="#0D1218" stroke-width="0.3934" stroke-miterlimit="22.9256" d="M236.34,341.089
			c0,0-0.771-0.926-0.771-2.16s0-4.167,0-4.167l-0.926-0.927l-1.235-1.543"/>
		<path fill="none" stroke="#0D1218" stroke-width="0.3934" stroke-miterlimit="22.9256" d="M239.89,340.472
			c-0.154-0.771-0.309-0.926-0.309-2.16c0-1.235-0.309-2.007-0.309-2.933s-0.309-2.624-0.309-2.624"/>
		<path fill="none" stroke="#0D1218" stroke-width="0.3934" stroke-miterlimit="22.9256" d="M242.513,340.626
			c0,0,1.081-1.234,1.081-2.932c0-1.698-0.154-2.778,0.617-3.241s1.697-1.544,1.697-1.544"/>
		<path fill="none" stroke="#0D1218" stroke-width="0.3934" stroke-miterlimit="22.9256" d="M245.6,340.317
			c0,0,2.47-1.08,2.778-2.777c0.309-1.698,1.389-1.853,1.389-1.853l2.007-1.234"/>
		<path fill="none" stroke="#0D1218" stroke-width="0.3934" stroke-miterlimit="22.9256" d="M247.143,341.86
			c0,0,1.853-0.309,2.624-1.08s2.314-2.623,2.933-3.086c0.617-0.463,3.086-1.853,3.086-1.853"/>
		<polyline fill="none" stroke="#0D1218" stroke-width="0.3934" stroke-miterlimit="22.9256" points="255.631,340.317 
			256.404,339.083 257.947,338.003 		"/>
		<polyline fill="none" stroke="#0D1218" stroke-width="0.3934" stroke-miterlimit="22.9256" points="258.564,342.015 
			259.335,341.397 260.57,340.78 		"/>
		<path fill="none" stroke="#0D1218" stroke-width="0.3934" stroke-miterlimit="22.9256" d="M259.027,346.028
			c0,0,0.463-0.772,1.08-1.39s2.315-1.312,2.315-1.312"/>
		<path fill="none" stroke="#0D1218" stroke-width="0.3934" stroke-miterlimit="22.9256" d="M254.088,351.892
			c0,0,1.543,0.617,3.704-0.771c2.16-1.389,2.777-2.469,3.086-3.24s1.853-1.234,1.853-1.234"/>
		<path fill="none" stroke="#0D1218" stroke-width="0.3934" stroke-miterlimit="22.9256" d="M256.404,354.361
			c0,0,1.697-0.309,2.623-1.081c0.926-0.771,1.697-1.08,2.16-1.543s2.315-1.08,2.315-1.08"/>
		<path fill="none" stroke="#0D1218" stroke-width="0.3934" stroke-miterlimit="22.9256" d="M256.557,356.06
			c0,0,2.778,0.309,3.241,0.154s2.315-0.309,2.778-0.617c0.463-0.31,1.234-0.772,1.234-0.772"/>
		<path fill="none" stroke="#0D1218" stroke-width="0.3934" stroke-miterlimit="22.9256" d="M256.557,358.065c0,0,2.624,0,3.396,0
			s2.47,0.617,2.47,0.617l2.623,1.313"/>
		<path fill="none" stroke="#0D1218" stroke-width="0.3934" stroke-miterlimit="22.9256" d="M256.094,360.38
			c0,0,2.47,0.617,3.241,0.771s2.778,0.926,2.778,0.926l1.852,2.161"/>
		<path fill="none" stroke="#0D1218" stroke-width="0.3934" stroke-miterlimit="22.9256" d="M256.404,363.158
			c0,0,2.623,1.081,3.24,1.697c0.617,0.618,1.234,1.081,1.698,1.544c0.463,0.463,1.466,2.623,1.466,2.623"/>
		<path fill="none" stroke="#0D1218" stroke-width="0.3934" stroke-miterlimit="22.9256" d="M255.477,364.548
			c0,0,2.007,2.469,3.087,4.475s1.852,5.093,1.852,5.093"/>
		<path fill="none" stroke="#0D1218" stroke-width="0.3934" stroke-miterlimit="22.9256" d="M254.551,367.942
			c0,0,2.16,3.24,2.315,4.938c0.153,1.697,0.617,5.093,0.463,6.636c-0.154,1.544-1.235,2.315-1.081,2.778"/>
		<path fill="none" stroke="#0D1218" stroke-width="0.3934" stroke-miterlimit="22.9256" d="M253.163,374.732
			c0,0-0.772,1.544,0,2.933c0.771,1.389,0.771,3.087,0.771,3.087l-0.463,4.784"/>
		<path fill="none" stroke="#0D1218" stroke-width="0.3934" stroke-miterlimit="22.9256" d="M250.076,375.813
			c0,0,0,1.543,0.154,2.314s0.309,2.007,0.309,2.933s0,2.777,0,2.777l-0.926,3.858"/>
		<path fill="none" stroke="#0D1218" stroke-width="0.3934" stroke-miterlimit="22.9256" d="M227.235,375.351l-0.926,2.314
			c0,0,0.309,1.389,0.309,2.47c0,1.08-1.234,4.938-1.234,4.938"/>
		<path fill="none" stroke="#0D1218" stroke-width="0.3934" stroke-miterlimit="22.9256" d="M224.149,371.183l-0.154,3.087
			c0,0,0.617,0.927,0,2.47c-0.618,1.543-1.235,3.704-1.235,3.704l0.617,1.543"/>
		<path fill="none" stroke="#0D1218" stroke-width="0.3934" stroke-miterlimit="22.9256" d="M222.296,367.479
			c0,0-1.08,1.234-1.389,2.469s-0.771,2.007-0.926,3.087c-0.154,1.08-0.617,2.933-0.617,2.933"/>
		<path fill="none" stroke="#0D1218" stroke-width="0.3934" stroke-miterlimit="22.9256" d="M221.371,365.011
			c0,0-2.469,2.006-2.469,2.623s-0.926,3.24-0.926,3.24l-0.618,1.081"/>
		<path fill="none" stroke="#0D1218" stroke-width="0.3934" stroke-miterlimit="22.9256" d="M220.753,361.923
			c0,0-0.617-0.154-1.234,0.463c-0.617,0.618-2.624,2.934-2.624,2.934s-0.154-0.155-0.154,0.463c0,0.617-0.771,2.16-0.771,2.16"/>
		<path fill="none" stroke="#0D1218" stroke-width="0.3934" stroke-miterlimit="22.9256" d="M220.136,358.22
			c0,0-1.543,0.463-2.161,1.08c-0.618,0.617-1.543,1.389-1.543,1.389l-2.006,1.853"/>
		<path fill="none" stroke="#0D1218" stroke-width="0.3934" stroke-miterlimit="22.9256" d="M220.753,354.824
			c0,0-1.852,0.772-2.469,0.926c-0.617,0.155-1.697,0.31-1.697,0.31h-2.315"/>
		<path fill="none" stroke="#0D1218" stroke-width="0.3934" stroke-miterlimit="22.9256" d="M220.753,351.737
			c0,0-1.852-0.154-2.469,0c-0.617,0.154-1.697,0-1.697,0l-1.543-0.771"/>
		<path fill="none" stroke="#0D1218" stroke-width="0.3934" stroke-miterlimit="22.9256" d="M220.29,348.651
			c0,0-0.463-0.463-1.234-0.463s-1.852,0-1.852,0l-0.617-0.771"/>
		<polyline fill="none" stroke="#0D1218" stroke-width="0.3934" stroke-miterlimit="22.9256" points="223.068,336.923 
			223.839,339.083 225.538,340.78 		"/>
		<path fill="none" stroke="#0D1218" stroke-width="0.3934" stroke-miterlimit="22.9256" d="M229.705,342.323
			c0,0-1.39-1.389-1.544-2.314s0-2.623,0-2.623l-0.463-2.624"/>
		<polyline fill="none" stroke="#0D1218" stroke-width="0.3934" stroke-miterlimit="22.9256" points="233.253,340.317 
			231.865,338.774 231.248,336.46 230.322,334.916 229.705,333.45 		"/>
		<path fill="none" stroke="#0D1218" stroke-width="0.3934" stroke-miterlimit="22.9256" d="M236.803,344.021
			c0,0,1.234,0.617,2.47,0.309c1.234-0.309,1.389-0.771,2.777-0.618c1.39,0.155,2.47,0.927,2.47,0.927"/>
		<path fill="none" stroke="#0D1218" stroke-width="0.3934" stroke-miterlimit="22.9256" d="M233.872,345.997
			c0,0,1.234-0.617,2.469-0.309s1.39,0.771,2.778,0.617s2.469-0.926,2.469-0.926"/>
		<path fill="none" stroke="#0D1218" stroke-width="0.3934" stroke-miterlimit="22.9256" d="M238.964,347.108c0,0,0,1.389,0,2.16
			s0.154,1.389,0.154,1.389"/>
		<g>
			<path fill="#FFFFFF" d="M229.889,352.231c-0.016,0.101-0.024,0.203-0.024,0.309c0,1.123,0.968,2.034,2.161,2.034
				c1.05,0,1.924-0.704,2.12-1.637l-0.486-0.563l-0.754-0.379l-0.854-0.118l-2.111,0.284L229.889,352.231z M229.889,352.231
				L229.889,352.231L229.889,352.231z"/>
		</g>
		<path fill="none" stroke="#0D1218" stroke-width="0.4765" stroke-miterlimit="22.9256" d="M233.927,359.459
			c-0.109-8.153,1.309-8.199-5-7.239"/>
		<g>
			<path fill="#13151D" d="M230.092,352.104c-0.015,0.098-0.022,0.197-0.022,0.299c0,1.085,0.88,1.965,1.966,1.965
				c0.954,0,1.749-0.68,1.929-1.581l-0.443-0.544l-0.686-0.366l-0.777-0.114l-1.92,0.273L230.092,352.104z M230.092,352.104
				L230.092,352.104L230.092,352.104z"/>
		</g>
		<polygon fill="#FFFFFF" points="231.784,352.196 231.784,353.134 231.807,353.478 232.515,351.991 		"/>
		<g>
			<path fill="#FFFFFF" d="M248.672,352.644c0.017,0.1,0.024,0.203,0.024,0.308c0,1.124-0.967,2.034-2.161,2.034
				c-1.05,0-1.924-0.703-2.121-1.637l0.487-0.563l0.754-0.378l0.854-0.119l2.111,0.284L248.672,352.644z M248.672,352.644
				L248.672,352.644L248.672,352.644z"/>
		</g>
		<path fill="none" stroke="#0D1218" stroke-width="0.4765" stroke-miterlimit="22.9256" d="M244.634,359.87
			c0.109-8.154-1.308-8.199,5-7.239"/>
		<g>
			<path fill="#13151D" d="M248.469,352.517c0.015,0.098,0.022,0.197,0.022,0.297c0,1.086-0.88,1.967-1.966,1.967
				c-0.954,0-1.749-0.68-1.929-1.582l0.442-0.544l0.687-0.366l0.777-0.114l1.92,0.274L248.469,352.517z M248.469,352.517
				L248.469,352.517L248.469,352.517z"/>
		</g>
		<polygon fill="#FFFFFF" points="246.778,352.608 246.778,353.546 246.754,353.888 246.046,352.403 		"/>
		<path fill="#13151D" d="M239.59,369.173c-0.56-1.063-1.459-3.546-2.834-3.611c-1.371-0.065-2.435-1.939-2.149-3.108
			c0.206,0.97,0.834,1.343,1.326,2.079c-1.713-2.567,2.688-1.226,3.521-1.195h0.294c0.832-0.03,5.234-1.372,3.521,1.195
			c0.492-0.736,1.12-1.109,1.325-2.079c0.286,1.169-0.777,3.043-2.148,3.108c-1.376,0.065-2.275,2.549-2.834,3.611H239.59
			L239.59,369.173z"/>
		<path fill="none" stroke="#0D1218" stroke-width="0.1193" stroke-miterlimit="22.9256" d="M239.59,369.173
			c-0.56-1.063-1.459-3.546-2.834-3.611c-1.371-0.065-2.435-1.939-2.149-3.108c0.206,0.97,0.834,1.343,1.326,2.079
			c-1.713-2.567,2.688-1.226,3.521-1.195h0.294c0.832-0.03,5.234-1.372,3.521,1.195c0.492-0.736,1.12-1.109,1.325-2.079
			c0.286,1.169-0.777,3.043-2.148,3.108c-1.376,0.065-2.275,2.549-2.834,3.611H239.59L239.59,369.173z"/>
		<g>
			<path fill="#13151D" d="M239.635,368.053l0.017,4.76L239.635,368.053z M239.635,368.053L239.635,368.053L239.635,368.053z"/>
		</g>
		
			<line fill="none" stroke="#13151D" stroke-width="0.7149" stroke-miterlimit="22.9256" x1="239.635" y1="368.053" x2="239.652" y2="372.813"/>
		<g>
			<path fill="#13151D" d="M234.745,374.857l0.036-0.023l4.786-3.062l0.063,1.01L234.745,374.857z M234.745,374.857L234.745,374.857
				L234.745,374.857z"/>
		</g>
		<polyline fill="none" stroke="#13151D" stroke-width="0.4765" stroke-miterlimit="22.9256" points="234.745,374.857 
			234.781,374.834 239.567,371.772 239.629,372.782 		"/>
		<g>
			<path fill="#13151D" d="M244.527,374.841l-0.036-0.022l-4.786-3.063l-0.029,1.011L244.527,374.841z M244.527,374.841
				L244.527,374.841L244.527,374.841z"/>
		</g>
		<polyline fill="none" stroke="#13151D" stroke-width="0.4765" stroke-miterlimit="22.9256" points="244.527,374.841 
			244.491,374.818 239.705,371.756 239.675,372.767 		"/>
		<path fill="none" stroke="#0D1218" stroke-width="0.3934" stroke-miterlimit="22.9256" d="M229.391,343.192
			c0,0-2.403-1.827-3.646-1.914s-3.813-0.262-4.228,0.348c-0.414,0.609-1.077,2.611-1.077,3.829c0,1.219,0.332,2.785,0.58,3.655
			c0.249,0.871,0.829,1.393,0.829,1.393"/>
		<path fill="none" stroke="#0D1218" stroke-width="0.3934" stroke-miterlimit="22.9256" d="M222.595,343.628
			c0,0,0.497-0.262,0.331,0.87s-0.331,1.915-0.331,1.915s-0.166,0.957,0.082,0.957c0.249,0,1.492-0.436,1.492-0.436l1.575-1.74"/>
		<path fill="none" stroke="#0D1218" stroke-width="0.3934" stroke-miterlimit="22.9256" d="M249.454,343.192
			c0,0,2.403-1.827,3.646-1.914s3.813-0.262,4.227,0.348c0.415,0.609,1.078,2.611,1.078,3.829c0,1.219-0.332,2.785-0.581,3.655
			c-0.248,0.871-0.828,1.393-0.828,1.393"/>
		<path fill="none" stroke="#0D1218" stroke-width="0.3934" stroke-miterlimit="22.9256" d="M256.25,343.628
			c0,0-0.497-0.262-0.331,0.87c0.165,1.132,0.331,1.915,0.331,1.915s0.166,0.957-0.083,0.957c-0.248,0-1.492-0.436-1.492-0.436
			l-1.574-1.74"/>
		<path fill="none" stroke="#13151D" stroke-width="0.2384" stroke-miterlimit="22.9256" d="M236.495,367.634
			c0,0-3.704-0.309-5.864,0.309c-2.161,0.617-2.315,0.154-2.315,0.154"/>
		<path fill="none" stroke="#13151D" stroke-width="0.2384" stroke-miterlimit="22.9256" d="M236.958,368.097
			c0,0-7.099,0.771-10.648,1.543"/>
		<path fill="none" stroke="#13151D" stroke-width="0.2384" stroke-miterlimit="22.9256" d="M236.958,368.868
			c0,0-5.556,0.309-7.407,1.08c-1.853,0.771-4.167,1.543-4.167,1.543"/>
		<path fill="none" stroke="#13151D" stroke-width="0.2384" stroke-miterlimit="22.9256" d="M236.495,369.485
			c0,0-1.543-0.154-2.469,0.309c-0.927,0.463-5.093,1.853-5.093,1.853"/>
		<path fill="none" stroke="#13151D" stroke-width="0.2384" stroke-miterlimit="22.9256" d="M242.205,367.634
			c0,0,3.704-0.309,5.865,0.309c2.16,0.617,2.314,0.154,2.314,0.154"/>
		<path fill="none" stroke="#13151D" stroke-width="0.2384" stroke-miterlimit="22.9256" d="M241.742,368.097
			c0,0,7.1,0.771,10.648,1.543"/>
		<path fill="none" stroke="#13151D" stroke-width="0.2384" stroke-miterlimit="22.9256" d="M241.742,368.868
			c0,0,5.556,0.309,7.408,1.08c1.852,0.771,4.167,1.543,4.167,1.543"/>
		<path fill="none" stroke="#13151D" stroke-width="0.2384" stroke-miterlimit="22.9256" d="M242.205,369.485
			c0,0,1.544-0.154,2.47,0.309s5.093,1.853,5.093,1.853"/>
		<path fill="none" stroke="#0D1218" stroke-width="0.3934" stroke-miterlimit="22.9256" d="M233.716,376.276
			c0,0-0.463,2.623-0.771,3.549c-0.309,0.927-0.463,2.624-0.463,3.858s0.154,2.007,0.309,3.241s0.617,2.314,0.617,2.314"/>
	</g>
</g>
</svg>
