<svg version="1.1" baseProfile="basic" id="Layer_1" xmlns="http://www.w3.org/2000/svg"
	xmlns:xlink="http://www.w3.org/1999/xlink" x="0px" y="0px" viewBox="-267.98 505.637 800 800" xml:space="preserve">
	<path fill="#243E90" d="M-119.15,962.194c-6.248-7.239-9.635-15.727-13.099-24.503c-0.756-1.915-1.771-4.733-2.828-6.928
	c-34.239-19.75-34.872-79.414-36.443-115.798c-0.579-0.783-1.134-1.571-1.659-2.384c-8.454-13.042-8.331-27.98-6.193-42.816
	c0.556-3.873,1.782-8.933,2.139-13.14c-0.68-1.08-1.491-2.208-2.116-3.133l-4.399-6.573l-0.21-7.889
	c-0.291-11.371,1.437-22.278,2.414-33.391l-5.457-3.664l0.859-15.515c0.958-17.197,1.448-34.371,3.732-51.459
	c1.345-10.055,6.68-18.968,15.413-24.297c17.518-10.729,37.991-2.175,50.855,11.571c9.244,9.868,20.592,18.566,31.184,26.942
	c15.192,12.018,30.597,23.768,45.589,36.03c32.398,26.517,80.513,68.004,81.893,113.012c0.013,0.602,0.013,1.191,0,1.793
	c49.376-43.769,129.619-43.769,178.998,0c-0.011-0.602-0.011-1.191,0.012-1.793c1.369-45.008,49.484-86.495,81.878-113.012
	c14.991-12.263,30.396-24.013,45.593-36.03c10.598-8.378,21.941-17.074,31.18-26.942c12.87-13.743,33.335-22.298,50.871-11.571
	c8.721,5.332,14.062,14.242,15.398,24.297c2.289,17.088,2.79,34.262,3.736,51.459l0.875,15.515l-5.469,3.664
	c0.985,11.109,2.7,22.02,2.411,33.38l-0.195,7.902l-4.399,6.573c-0.629,0.925-1.453,2.053-2.127,3.133
	c0.356,4.219,1.576,9.267,2.139,13.14c2.271,15.74,1.915,32.48-7.853,45.35c-1.576,36.379-2.25,95.921-36.432,115.646
	c-1.069,2.194-2.071,5.013-2.846,6.928c-3.519,8.943-6.983,17.575-13.448,24.904c-6.449,7.306-14.808,11.603-24.063,13.108
	l-3.747,7.039l-7.73,15.46l-0.423,0.638c-3.742,5.666-8.704,10.065-14.379,13.518H507.02l-34.015,193.05H360.793l2.65-15.289
	H-242.98l40.508-227.925H-119.15z" />
	<path fill="#F6EB16" d="M405.282,1024.941h86.729l-29.582,167.867H375.74l2.65-15.277h-606.345l36.043-202.74h227.82l-9.167,50.153
	h378.54V1024.941z" />
	<path fill="#243E90" d="M-190.531,1037.537h96.82l-22.42,127.396h-25.484l17.844-101.909h-10.202l-17.832,101.909h-25.473
	l17.832-101.909h-10.19l-17.832,101.909h-25.481L-190.531,1037.537z M-44.796,1164.933h-61.145l22.418-127.396h61.149
	l-16.141,91.719h-35.66l-1.874,10.191h35.664L-44.796,1164.933z M-52.434,1063.024h-10.194l-7.139,40.764h10.193L-52.434,1063.024z
	 M37.247,1103.787H1.572l-1.859,10.191h35.66l-8.831,50.954H1.237l4.412-25.485H-4.71l-4.411,25.485h-25.484l22.421-127.396h61.146
	L37.247,1103.787z M16.353,1078.302l2.549-15.278H8.711l-2.552,15.278H16.353z M66.625,1139.45h10.194l6.28-35.827h25.481
	l-10.703,61.313H36.733l22.419-127.396h61.148l-9.849,56.056H84.971l5.27-30.572H80.046L66.625,1139.45z M169.213,1164.933h-61.141
	l22.418-127.396h61.144l-16.128,91.719h-35.674l-1.871,10.191h35.68L169.213,1164.933z M161.573,1063.024h-10.191l-7.128,40.764
	h10.191L161.573,1063.024z M201.836,1037.537h61.151l-22.426,127.396h-25.483l17.832-101.909h-10.191l-17.826,101.909h-25.488
	L201.836,1037.537z M273.178,1037.537h61.141l-22.414,127.396h-61.146l16.128-91.719h35.668l1.704-10.19h-35.674L273.178,1037.537z
	 M280.651,1139.45h10.186l7.128-40.764h-10.186L280.651,1139.45z M393.938,1103.787h-35.668l-1.877,10.191h35.68l-8.838,50.954
	h-25.305l4.41-25.485h-10.357l-4.417,25.485h-25.482l22.42-127.396h61.151L393.938,1103.787z M373.045,1078.302l2.556-15.278
	h-10.196l-2.551,15.278H373.045z M441.33,1037.537l-14.44,81.531h10.186l14.451-81.531h25.466l-25.132,142.674h-61.151l4.41-25.472
	h35.674l1.871-10.191h-35.668l18.856-107.011H441.33z" />
	<path fill="#F6EB16" d="M43.383,960.545l48.058,13.076v42.145c3.453,0.356,7.051,0.558,9.3,0.713
	c10.382,0.68,20.875,0.902,31.287,0.902c10.4,0,20.892-0.223,31.277-0.902c2.25-0.155,5.842-0.356,9.295-0.713v-42.145
	l48.064-13.076c-0.947-2.703-1.749-5.644-2.557-8.852l-0.59-2.361l0.05-0.445c-15.804,15.671-38.798,23.225-61.212,25.395
	l-7.268,12.218l3.046,5.123l-9.4,5.58l-5.585,9.411l-5.121-3.052l-5.123,3.052l-5.591-9.411l-9.4-5.58l3.042-5.123l-7.25-12.218
	c-22.423-2.172-45.421-9.724-61.214-25.395l0.035,0.445l-0.59,2.361C45.13,954.899,44.34,957.836,43.383,960.545L43.383,960.545z
	 M44.662,893.699l0.092,0.034l-0.092,10.313v4.756l3.533,0.42c23.577,2.787,46.79,7.853,70.267,11.207l6.269,0.892l7.296,10.336
	l7.293-10.336l6.265-0.892c23.473-3.354,46.689-8.42,70.262-11.207l3.536-0.42v-4.756l-0.083-10.313l0.083-0.034v-2.717
	c0-25.862-10.085-48.583-31.186-63.956c-14.724-10.726-32.95-16.369-51.1-17.049l-5.067-0.069l-5.077,0.069
	c-18.157,0.68-36.377,6.323-51.102,17.049C54.755,842.4,44.665,865.12,44.665,890.983v2.717H44.662z M246.214,866.521
	c2.161-2.617,3.676-5.725,4.183-9.458c0.685-4.99-0.273-10.426-1.599-15.234c-1.993-7.272-5.129-14.256-8.164-21.145
	c-2.924-6.604-6.744-14.732-6.516-22.036c1.22-40.028,48.61-80.205,77.268-103.658c14.947-12.232,30.284-23.924,45.426-35.896
	c10.859-8.588,23.11-18.121,32.572-28.215c8.564-9.155,22.971-16.862,35.101-9.445c5.479,3.35,8.653,8.955,9.488,15.234
	c2.25,16.831,2.713,33.571,3.648,50.489l0.468,8.354l-5.569,3.723c0.641,13.165,3.247,26.04,2.901,39.461l-0.111,4.255l-2.372,3.527
	c-1.041,1.573-3.748,5.422-4.338,7.398c-0.106,5.065,1.637,12.63,2.361,17.687c2.004,13.875,1.932,28.803-7.78,38.659
	c-1.671,33.9-1.191,96.229-32.945,110.995c-1.894,2.095-4.7,9.468-5.646,11.851c-2.901,7.329-5.914,15.226-11.188,21.195
	c-5.785,6.563-13.654,9.447-22.258,9.447c-0.084,0-0.156,0-0.24,0l-7.072,13.251l-7.457,14.925
	c-17.174,25.962-77.752,21.952-134.42,17.664v34.338c0.033,9.879-7.719,14.824-16.161,16.729c-4.661,1.059-9.662,1.593-14.435,2.002
	c-8.142,0.728-16.417,1.105-24.664,1.292v0.17l-14.663-0.011l-14.67,0.011v-0.17c-8.251-0.187-16.517-0.564-24.668-1.292
	c-4.767-0.412-9.756-0.943-14.433-2.002c-8.442-1.904-16.195-6.85-16.161-16.729c0-7.396,2.269-35.729-3.2-35.922
	c-33.023-1.145-103.178,6.574-131.223-16.083l-7.462-14.924l-7.074-13.252c-0.077,0-0.153,0-0.234,0
	c-8.608,0-16.471-2.884-22.261-9.447c-5.27-5.97-8.29-13.863-11.184-21.195c-0.935-2.383-3.755-9.756-5.637-11.85
	c-31.797-14.78-31.283-77.229-32.954-111.107c-1.292-1.325-2.453-2.784-3.477-4.369c-6.603-10.202-5.958-22.688-4.299-34.179
	c0.724-5.056,2.46-12.621,2.36-17.687c-0.589-1.974-3.295-5.825-4.342-7.398l-2.36-3.527l-0.111-4.255
	c-0.356-13.421,2.25-26.296,2.893-39.461l-5.567-3.723l0.468-8.354c0.934-16.915,1.391-33.655,3.644-50.489
	c0.844-6.279,4.008-11.884,9.5-15.234c12.118-7.42,26.527,0.29,35.093,9.445c9.458,10.091,21.706,19.627,32.567,28.215
	c15.137,11.973,30.482,23.664,45.421,35.896c28.666,23.456,76.048,63.63,77.271,103.658c0.223,7.307-3.595,15.435-6.514,22.036
	c-3.04,6.886-6.159,13.869-8.164,21.146c-3.031,11.015-2.261,18.772,2.573,24.723C42.167,751.658,221.834,751.636,246.214,866.521
	L246.214,866.521z" />
	<path fill="#243E90" d="M132.027,1049.391c27.741-0.022,55.279-1.838,55.24-5.457v-59.097l42.641-11.595l15.481,8.108l18.767-20.36
	c11.578,13.109,47.425,19.213,62.605,17.309l4.043-8.075l12.669-23.768c2.4,1.314,4.939,2.57,7.669,2.57
	c4.349,0,8.292-1.125,11.254-4.475c8.104-9.181,10.859-31.91,21.296-36.487c24.915-10.926,23.345-79,25.227-105.374
	c15.882-8.479,4.449-35.495,5.028-49.799c0.184-4.879,4.188-10.682,6.794-14.577c0.407-15.495-3.046-28.256-3.046-44.673
	c0-3.355,2.946-4.112,5.273-5.669c-0.896-16.295-1.241-32.146-3.541-49.352c-1.164-8.776-11.428-6.159-19.336,2.283
	c-35.206,37.587-149.646,103.756-151.305,158.187c-0.44,14.623,45.893,69.568-14.735,91.889c0-62.706-50.966-96.353-102.019-95.74
	 M132.027,957.113l15.623-22.161c23.25-3.319,46.879-8.432,69.923-11.16c-12.185,26.162-43.615,35.307-69.923,36.376l-15.623,26.329
	V957.113z M400.66,762.403l-3.135,35.466c-17.659,14.134-37.707,33.645-59.47,38.604l0.122-26.987
	C359.317,793.747,381.381,780.749,400.66,762.403L400.66,762.403z M365.275,742.461c8.215-6.819,37.134-35.986,38.938-34.928
	c1.57,12.129,1.955,15.145,3.319,25.717c-3.247,9.723-12.096,17.097-19.296,22.841c-5.591,4.488-14.574,14.267-21.056,15.915
	L365.275,742.461z M354.032,784.038l-14.635,9.756c-13.081,8.331-44.306,24.646-48.939,37.435c14.401,0,21.546-5.669,34.237-13.747
	c0.713,10.896,1.304,19.95,1.76,27.009c-8.13,3.441-22.604,6.92-29.063,12.622c-2.768,2.437-2.434,8.063-2.718,11.55
	c18.483-6.159,37.312-16.495,55.672-21.418c0.123,4.521,1.264,16.949-0.59,20.967c-6.466,14.125-53.3,16.518-65.346,18.706
	c11.974,5.688,28.624,4.065,37.98,2.47c0.367,7.139-2.194,10.416-4.244,16.932c-18.633-0.256-30.322-2.038-51.545-2.038
	c13.287,11.539,23.745,12.561,39.416,10.971c-2.974,5.947-7.312,11.26-11.065,16.751c-9.45,0-24.135-6.059-32.237-11.148
	c-3.136-1.969-6.622-2.629-10.28-2.718l-8.442-0.187c11.906,7.941,21.072,16.395,34.8,20.97l-9.328,11.605
	c-12.368-7.206-21.128-13.923-33.687-20.315c0.262,3.441-0.105,8.974,2.056,11.694c2.851,3.564,12.585,8.899,16.077,10.739
	l-10.865,13.533c-7.623-4.512-8.692-10.058-10.691-18.044c2.316-27.743,1.814-29.05,1.692-44.139
	c63.937-23.177,41.198-73.483,29.548-105.048c9.089-54.477,115.242-119.143,143.465-147.352c0.657,0.32,2.2,26.407,3.609,34.227
	c-7.624,0.543-26.363,23.199-33.425,30.214c-17.709,13.29-29.727,25.875-44.93,38.023c-21.328,15.651-33.096,26.052-50.354,43.604
	c27.349-0.376,52.259-30.072,73.214-45.339L354.032,784.038z M278.318,954.944c-0.445-0.791,6.895-12.475,8.476-14.424
	c19.603-0.779,29.549,4.942,46.79,4.586l-13.806,21.543h-6.365L278.318,954.944z M305.082,933.559l7.93-11.204l7.207-5.762
	c23.801,1.251,12.886-5.644,39.728-2.213l0.012-0.012h0.194l-2.355,12.449l-7.98,9.567
	C334.691,935.943,320.051,935.698,305.082,933.559L305.082,933.559z M333.339,902.543l4.26-17.89
	c18.616-3.82,29.448-6.636,45.225-15.435l-4.455,26.508C362.33,899.219,350.541,902.543,333.339,902.543L333.339,902.543z
	 M361.344,864.661c2.351-8.432-1.67-14.644,0.418-25.369c11.974-4.792,21.24-14.304,33.687-21.777
	c-0.017,10.336,2.267,19.55,2.193,19.736l-13.048,15.361C376.903,856.89,369.508,861.401,361.344,864.661L361.344,864.661z
	 M132.027,957.113l-15.639-22.161c-23.243-3.319-46.877-8.432-69.91-11.16c12.172,26.162,43.604,35.307,69.91,36.376l15.639,26.329
	V957.113z M132.027,1049.391c-27.756-0.022-55.289-1.838-55.254-5.457v-59.097l-42.624-11.595l-15.493,8.108l-18.756-20.36
	c-11.593,13.109-47.437,19.213-62.616,17.309l-4.032-8.075l-12.686-23.768c-2.395,1.314-4.936,2.57-7.665,2.57
	c-4.353,0-8.296-1.125-11.259-4.475c-8.098-9.181-10.858-31.91-21.296-36.487c-24.903-10.926-23.343-79-25.224-105.374
	c-15.885-8.479-4.445-35.495-5.024-49.799c-0.188-4.879-4.189-10.682-6.794-14.577c-0.399-15.495,3.051-28.256,3.051-44.673
	c0-3.355-2.952-4.112-5.278-5.669c0.901-16.295,1.238-32.146,3.542-49.352c1.168-8.776,11.427-6.159,19.345,2.283
	C-100.828,678.491,13.6,744.66,15.26,799.091c0.457,14.623-45.887,69.568,14.735,91.889c0-62.706,50.966-96.353,102.032-95.74
	V1049.391z M-136.614,762.403l3.129,35.466c17.665,14.134,37.711,33.645,59.476,38.604l-0.123-26.987
	C-95.271,793.747-117.334,780.749-136.614,762.403L-136.614,762.403z M-101.23,742.461c-8.209-6.819-37.132-35.986-38.937-34.928
	c-1.559,12.129-1.958,15.145-3.319,25.717c3.243,9.723,12.096,17.097,19.292,22.841c5.6,4.488,14.578,14.267,21.059,15.915
	L-101.23,742.461z M-89.99,784.038l14.632,9.756c13.087,8.331,44.309,24.646,48.942,37.435c-14.402,0-21.531-5.669-34.239-13.747
	c-0.713,10.896-1.303,19.95-1.758,27.009c8.129,3.441,22.607,6.92,29.068,12.622c2.764,2.437,2.427,8.063,2.718,11.55
	c-18.487-6.159-37.312-16.495-55.676-21.418c-0.122,4.521-1.249,16.949,0.591,20.967c6.468,14.125,53.303,16.518,65.356,18.706
	c-11.987,5.688-28.635,4.065-37.994,2.47c-0.356,7.139,2.195,10.416,4.246,16.932c18.632-0.256,30.325-2.038,51.544-2.038
	c-13.286,11.539-23.744,12.561-39.415,10.971c2.971,5.947,7.316,11.26,11.068,16.751c9.446,0,24.137-6.059,32.234-11.148
	c3.131-1.969,6.625-2.629,10.279-2.718l8.442-0.187c-11.904,7.941-21.071,16.395-34.794,20.97l9.335,11.605
	c12.352-7.206,21.128-13.923,33.679-20.315c-0.267,3.441,0.101,8.974-2.058,11.694c-2.851,3.564-12.585,8.899-16.073,10.739
	l10.857,13.533c7.629-4.512,8.711-10.058,10.704-18.044c-2.327-27.743-1.813-29.05-1.703-44.139
	c-63.919-23.177-41.2-73.483-29.55-105.048c-9.076-54.485-115.242-119.15-143.463-147.357c-0.656,0.32-2.204,26.408-3.61,34.227
	c7.642,0.543,26.363,23.2,33.426,30.214c17.709,13.29,29.727,25.876,44.929,38.024c21.327,15.65,33.1,26.051,50.354,43.604
	c-27.343-0.376-52.258-30.071-73.209-45.339L-89.99,784.038z M-14.279,954.944c0.448-0.791-6.894-12.475-8.474-14.424
	c-19.603-0.779-29.539,4.942-46.788,4.586l13.819,21.543h6.35L-14.279,954.944z M-41.04,933.559l-7.933-11.204l-7.205-5.762
	c-23.803,1.251-12.885-5.644-39.729-2.213v-0.012h-0.188l2.337,12.449l7.987,9.567C-70.645,935.943-56.009,935.698-41.04,933.559
	L-41.04,933.559z M-69.296,902.543l-4.257-17.89c-18.621-3.82-29.446-6.636-45.218-15.435l4.446,26.508
	C-98.288,899.219-86.496,902.543-69.296,902.543L-69.296,902.543z M-97.298,864.661c-2.35-8.432,1.682-14.644-0.423-25.369
	c-11.963-4.792-21.238-14.304-33.682-21.777c0.013,10.336-2.272,19.55-2.204,19.736l13.053,15.361
	C-112.857,856.89-105.462,861.401-97.298,864.661L-97.298,864.661z" />
	<path fill="#243E90" d="M-158.979,985.737l-2.239,12.797h-7.994l0.8-4.801h-3.208l-1.382,7.997h11.195l-4.209,23.99h-19.191
	l2.237-12.797h7.998l-0.859,4.804h3.196l1.396-8h-11.195l4.266-23.99H-158.979z M-155.783,985.737h19.191l-7.039,39.983h-19.19
	l5.068-28.79h11.193l0.533-3.197h-11.191L-155.783,985.737z M-153.43,1017.727h3.195l2.239-12.798h-3.196L-153.43,1017.727z
	 M-140.436,1025.723l7.898-44.773h7.996l-7.895,44.773H-140.436z M-122.202,985.737l-2.237,12.797h7.994l0.805-4.801h3.197
	l-1.384,7.997h-11.19l-4.211,23.99h19.189l2.241-12.797h-7.998l-0.858,4.804h-3.196l1.391-8h11.195l4.266-23.99H-122.202z
	 M-107.7,1030.521h19.201l7.886-44.784h-19.192l-5.924,33.591h11.205l-0.59,3.196h-11.193L-107.7,1030.521z M-93.244,993.736h3.197
	l-3.098,17.598h-3.195L-93.244,993.736z M-78.532,992.143h7.999l-5.925,33.58h-7.997L-78.532,992.143z M-76.558,980.949h7.994
	l-1.445,7.986h-7.999L-76.558,980.949z M-63.874,1017.727h3.197l3.675-20.842h7.998l-5.059,28.835h-19.2l7.896-44.773h7.998
	l-0.859,4.79h11.195l-1.437,7.999h-11.195L-63.874,1017.727z M-41.488,1017.727h3.197l3.687-20.842h7.998l-5.067,28.835h-19.192
	l7.887-44.773h7.998l-0.848,4.79h11.195l-1.437,7.999h-11.206L-41.488,1017.727z M-9.289,1025.723h-19.189l7.041-39.984h19.189
	l-5.068,28.794H-18.51l-0.579,3.196h11.195L-9.289,1025.723z M-11.681,993.736h-3.2l-2.238,12.795h3.196L-11.681,993.736z
	 M16.464,1006.531H5.27l-0.59,3.196h11.195l-2.764,15.993H5.158l1.392-7.996H3.296l-1.391,7.996h-7.999l7.039-39.983H20.14
	L16.464,1006.531z M9.902,998.536l0.802-4.801H7.508l-0.802,4.801H9.902z" />
</svg>
