<svg version="1.1" baseProfile="basic" id="Layer_1" xmlns="http://www.w3.org/2000/svg"
	xmlns:xlink="http://www.w3.org/1999/xlink" x="0px" y="0px" viewBox="-101.86 821.445 800 800" xml:space="preserve">
	<g>
		<path d="M655.505,1355.748c0.516-0.82,1.111-1.765,1.8-2.85c2.96-4.667,5.188-8.879,6.806-12.876l7.318-18.027l-16.749-9.902
		c-7.265-4.296-14.375-7.671-21.207-10.062c-8.765-2.999-17.463-4.517-25.853-4.517c-9.457,0-18.02,1.932-25.597,5.765
		c-1.416-2.147-3.013-4.194-4.755-6.157c5.35-4.632,9.545-10.992,12.151-18.809l0.393-1.178l5.284-24.661
		c0.393-1.504,0.768-2.523,1.041-3.167l15.333-6.616l-4.288-18.398c-0.52-2.228-1.266-4.537-2.249-7.014
		c-0.521-1.318-1.155-2.841-1.91-4.559l-4.557-10.354l-19.06-4.42l-6.938,3.114c-4.34,1.945-8.297,4.492-11.834,7.611l-18.826-0.157
		c-1.125,0-2.224,0.08-3.313,0.236l-16.735-0.088l-13.488,0.176l-0.159,0.179c-2.051-0.37-4.15-0.556-6.299-0.556
		c-1.478,0-2.929,0.082-4.354,0.238l-2.117-6.502l-6.991-0.985c-1.381-0.194-2.797-0.329-4.199-0.391
		c-1.059-0.049-2.1-0.075-3.128-0.075c-0.405,0-1.407,0.024-2.995,0.091l-6.559-9.766l-5.267,3.235l-21.662-4.984l-8.805,11.81
		c-0.216,0.292-0.432,0.585-0.644,0.881c-1.358-0.199-2.687-0.296-4.019-0.296c-0.971,0-1.879,0.053-2.708,0.144l-0.494,0.051
		c-4.944-2.29-9.581-2.837-12.876-2.837c-3.488,0-9.263,0.565-15.213,3.587c-5.866-2.57-12.924-3.829-21.34-3.829
		c-4.116,0-8.02,0.256-11.605,0.761l-22.474,3.169l3.281,22.461c0.543,3.71,0.909,7.626,1.085,11.636
		c0.199,4.455,0.301,9.404,0.301,14.72v14.896c-0.322,2.585-0.636,5.165-0.949,7.75c-5.43,0.962-9.201,2.307-12.584,4.455
		l-6.171,3.922c-9.934-7.816-20.396-9.352-27.057-9.352c-12.242,0-41.764,4.552-51.455,46.646c-0.415,1.765-0.88,4.129-1.378,7.847
		c-2.79-3.008-5.852-5.857-9.17-8.539c-17.778-14.393-39.955-21.688-65.909-21.688h-39.63c-5.897,0-12.333,0.097-19.128,0.291
		c-4.241,0.123-8.079,0.269-11.466,0.437c-4.561-5.426-10.306-10.109-17.161-13.974c-13.03-7.309-28.585-11.019-46.238-11.019
		c-5.146,0-10.855,0.181-16.973,0.547c-7.102,0.428-13.028,1.222-18.131,3.498c-9.537-3.146-21.058-4.68-35.012-4.68
		c-8.965,0-17.375,0.547-24.997,1.618l-22.485,3.167l3.277,22.461c1.575,10.802,2.638,22.134,3.152,33.678
		c0.534,11.993,0.805,25.322,0.805,39.637v40.748c-1.599,12.703-3.156,25.407-4.669,38.11l-0.902,7.561l31.686,17.432l5.904-4.808
		c3.555-2.898,7.11-5.748,10.904-8.747c4.64-3.767,8.723-7.41,12.137-10.82l6.621-6.616v-22.474l18.129,5.721
		c3.101,0.976,6.332,1.632,9.596,1.95c2.446,0.242,5.048,0.366,7.739,0.366l24.657-0.825l0.567-0.569
		c3.773,11.218,6.632,19.095,8.707,24.031l3.917,9.298l60.889,20.97l6.356-31.692h8.462c5.368,0,10.889-0.088,16.418-0.265
		c5.165-0.168,8.467-0.428,11.144-0.892l3.632,0.01c0.333,0.004,2.424,0.048,15.414,0.498c2.728,0.093,6.193,0.141,10.295,0.141
		c12.216,0,23.056-1.658,32.43-4.957l2.907,3.996c1.969,2.708,3.939,5.465,6.135,8.57c3.161,4.318,5.944,7.724,8.516,10.41
		l16.214,16.951l16.321-16.846c7.265-7.494,13.034-16.457,17.139-26.603c2.39-5.849,4.41-12.686,6.028-20.388l3.102,3.102
		l38.198-0.596c-1.314,7.997-3.118,14.583-5.298,19.32l-3.93,8.53l33.487,23.643l6.723-6.559c4.525-4.411,8.733-8.112,12.638-11.089
		c4.203-3.295,8.491-6.097,12.734-8.333l12.06-6.352v-1.8c8.641,5.902,18.927,8.998,30.382,8.998
		c18.111,0,33.995-7.666,45.446-21.768c1.566,0.313,3.149,0.547,4.737,0.701c2.443,0.243,5.046,0.366,7.737,0.366l24.652-0.825
		l0.573-0.573c3.776,11.222,6.634,19.1,8.707,24.031l3.917,9.303l60.911,20.974l6.453-32.318c1.367,0.074,2.757,0.109,4.155,0.109
		c15.239,0,28.892-4.494,40.576-13.364c13.872-10.521,21.512-25.584,21.512-42.411C673.14,1380.307,666.93,1366.1,655.505,1355.748z
		" />
		<path fill="#6A211D" d="M642.396,1359.814c-0.485-0.326-1.059-0.688-1.769-1.098l1.928-3.48c0.114-0.208,0.904-1.584,5.214-8.386
		c2.594-4.089,4.517-7.706,5.884-11.071l3.661-9.016l-8.381-4.949c-6.625-3.917-13.03-6.97-19.112-9.096
		c-7.583-2.594-15.06-3.908-22.2-3.908c-11.526,0-21.318,3.512-29.095,10.419c-0.327,0.291-0.648,0.587-0.966,0.891
		c-3.193-10.665-10.512-19.43-21.601-25.777c10.621-0.833,18.848-7.869,22.747-19.589l0.194-0.591l5.204-24.27
		c1.386-5.487,3.41-9.161,5.563-10.087l8.668-3.741l-2.148-9.192c-0.388-1.667-0.971-3.462-1.76-5.452
		c-0.472-1.201-1.05-2.587-1.738-4.15l-2.275-5.174l-9.854-2.285l-3.467,1.558c-5.92,2.655-10.899,6.783-14.852,12.302l-5.117-3.729
		l-15.314-0.128c-1.623,0-3.176,0.329-4.799,1.039l-0.627-0.814l-14.472-0.079l-8.589,0.112l-1.671,1.835
		c-2.991-1.411-6.295-2.144-9.837-2.144c-4.278,0-8.235,0.96-11.733,2.801l-3.295-10.158c-1.036-0.146-2.082-0.242-3.149-0.293
		c-0.878-0.042-1.746-0.062-2.603-0.062c-0.449,0-1.733,0.041-3.833,0.134c-1.627,0.075-2.92,0.11-3.882,0.11h-1.195l-3.974-5.917
		l-4.05,2.485l-2.602-4.04l-12.298-2.834l-4.407,5.906c-1.711,2.296-3.197,4.766-4.446,7.399c-0.225-0.093-0.454-0.186-0.684-0.282
		c-3.462-1.381-6.113-1.994-8.583-1.994c-0.534,0-1.037,0.026-1.5,0.077l-3.996,0.43c-4.155-2.697-8.288-3.149-10.582-3.149
		c-3.317,0-9.523,0.755-14.755,5.62c-4.953-3.945-12.095-5.862-21.799-5.862c-3.595,0-6.969,0.219-10.03,0.648l-11.234,1.588
		l1.641,11.23c0.596,4.089,0.997,8.39,1.195,12.765c0.203,4.627,0.309,9.744,0.309,15.218v15.602
		c-0.613,4.87-1.209,9.735-1.791,14.601l4.438,2.439c-4.238,0.105-7.732,0.353-10.586,0.754c-5.236,0.736-8.372,1.676-10.829,3.237
		l-3.647,2.316c0,0-3.207,11.446-4.217,15.081c-9.131-17.194-21.844-21.063-31.424-21.063c-11.849,0-32.86,4.936-40.463,37.943
		c-1.027,4.362-2.501,13.748-4.078,44.439c-3.522-15.535-11.744-28.583-24.569-38.944c-15.716-12.726-35.5-19.174-58.805-19.174
		h-4.995l-2.226,2.448l-2.45-2.448h-29.957c-5.812,0-12.139,0.097-18.804,0.286c-6.716,0.194-12.364,0.446-16.788,0.759
		l-0.428,0.026c-3.994-6.232-9.781-11.543-17.265-15.76c-11.318-6.352-25.019-9.572-40.713-9.572
		c-4.918,0-10.401,0.177-16.298,0.525c-8.074,0.485-12.479,1.416-15.716,3.317l-2.212,1.301c-9.022-3.877-20.888-5.782-35.888-5.782
		c-8.44,0-16.323,0.507-23.424,1.508l-11.237,1.584l1.639,11.23c1.632,11.168,2.729,22.879,3.26,34.811
		c0.541,12.144,0.816,25.646,0.816,40.131v41.459c-1.627,12.91-3.209,25.825-4.749,38.736l18.345,10.092
		c3.597-2.929,7.199-5.813,10.915-8.751c4.343-3.533,8.138-6.912,11.276-10.048l3.311-3.309v-19.92
		c0-5.514,0.104-10.833,0.309-15.795c0.128-3.105,0.313-6.069,0.553-8.866c5.917-4.799,11.834-9.629,17.75-14.49l0.273-0.233
		c3.983-3.489,7.51-6.886,10.606-10.221c-0.038,7.72-0.32,14.539-0.84,20.282c-0.618,6.774-1.851,9.351-2.212,9.978l-7.051,12.188
		l13.427,4.234c2.353,0.741,4.816,1.244,7.309,1.486c2.082,0.203,4.312,0.309,6.632,0.309l19.825-0.666l9.668-9.669l-2.516-6.788
		c-1.03-2.774-1.829-5.88-2.389-9.263c0.073,0.185,0.146,0.37,0.218,0.556c2.113,5.363,5.459,14.992,9.954,28.648
		c4.274,12.818,7.406,21.561,9.578,26.727l1.961,4.648l43.911,15.121l3.476-17.326l-4.581-10.913c0.026,0,0.053,0,0.082,0.005
		c2.706,0.084,6.162,0.132,10.275,0.132h14.1c5.249,0,10.648-0.088,16.051-0.26c5.055-0.163,8.169-0.406,10.454-0.896l4.737,0.014
		c0.628,0.004,3.869,0.092,15.75,0.502c2.591,0.089,5.926,0.133,9.914,0.133c18.53,0,33.19-4.15,43.58-12.351
		c4.75-3.749,8.575-8.288,11.466-13.595c-1.379,5.016-2.81,7.618-3.807,8.941c-0.902,0.776-1.809,1.557-2.7,2.351
		c-2.36,2.082-4.148,4.521-5.317,7.256l-2.527,5.897l3.776,5.192c1.998,2.752,4,5.544,6.113,8.539
		c2.867,3.917,5.337,6.947,7.563,9.271l8.107,8.474l8.158-8.42c6.248-6.444,11.23-14.199,14.796-23.017
		c2.757-6.749,4.995-15.112,6.645-24.847c0.712-4.178,1.736-11.875,3.132-23.537l0.077-0.67v-0.676c0-0.207,0.024-0.882,0.249-2.298
		c2.442-1.067,5.243-2.161,8.34-3.26c0.473-0.158,0.944-0.317,1.421-0.476c0.035,0.979,0.048,1.976,0.048,2.994
		c0,2.232-0.189,4.244-0.568,5.99c-0.309,1.421-0.843,2.779-1.628,4.16l-4.278,7.485l10.749,10.749l32.619-0.507l11.362-7.574
		l-2.58-8.103c-0.825-2.607-2.704-10.996-5.968-37.859c-1.332-10.987-2.779-20.369-4.363-28.256l2.532,2.112
		c3.512-1.676,7.401-5.116,13.025-11.513c0.089-0.102,0.221-0.251,0.446-0.414c0.07,0.728,0.127,1.46,0.176,2.21
		c0.278,4.31,0.419,9.28,0.419,14.763v40.515c0,15.086-0.573,27.961-1.707,38.247c-1.469,13.207-3.965,23.696-7.415,31.194
		l18.139,12.81c4.856-4.742,9.377-8.707,13.555-11.9c4.737-3.71,9.594-6.886,14.437-9.436l6.03-3.176v-8.337
		c0-2.063-0.322-5.491-2.669-16.492c-0.507-2.324-0.763-4.38-0.763-6.162l-0.035-8.513c1.397,6.268,3.383,11.993,5.945,17.132
		c8.191,16.417,21.742,25.094,39.195,25.094c16.925,0,30.935-7.922,40.515-22.919c0.119-0.186,0.234-0.371,0.354-0.557l3.114,0.979
		c2.355,0.746,4.82,1.244,7.304,1.486c2.078,0.203,4.31,0.31,6.635,0.31l19.818-0.666l9.673-9.66l-2.519-6.798
		c-1.023-2.77-1.826-5.875-2.387-9.258c0.071,0.185,0.146,0.366,0.217,0.556c2.112,5.359,5.456,14.983,9.955,28.645
		c4.278,12.822,7.406,21.561,9.576,26.722l1.958,4.657l43.92,15.121l3.463-17.335l-6.604-15.733
		c6.714,2.959,14.173,4.455,22.293,4.455c12.717,0,24.075-3.724,33.753-11.072c11.15-8.455,17.044-20.012,17.044-33.412
		C661.848,1381.008,655.104,1368.305,642.396,1359.814z M-14.608,1338.302c-0.959,1.553-2.201,3.176-3.712,4.843
		c-0.159-7.242-0.271-13.595-0.337-19.011c4.29,0.648,5.611,1.266,5.697,1.301c0.522,0.256,1.244,0.604,1.244,3.679
		C-11.717,1332.167-12.658,1335.162-14.608,1338.302z M61.968,1334.173c-0.902,0.794-1.822,1.222-3.015,1.372
		c-2.754-0.662-5.487-1.323-8.2-1.98v-8.169c2.618,0.472,5.05,1.164,7.271,2.077c4.947,2.06,4.947,3.656,4.947,4.182
		C62.971,1333.172,62.554,1333.658,61.968,1334.173z M85.732,1367.807c2.856-1.765,5.435-3.771,7.728-6.004l0.243,24.993
		L85.732,1367.807z M134.223,1347.865c1.028-0.07,2.157-0.154,3.405-0.242c1.46-0.11,3.09-0.177,4.863-0.208l-1.639,1.531
		c-1.096,1.027-3.059,2.624-6.451,4.804C134.312,1351.433,134.252,1349.47,134.223,1347.865z M167.638,1390.232
		c-0.026,0.953-0.053,1.884-0.077,2.788h-0.726l-3.39,4.31c-1.632,2.072-5.159,3.688-10.147,4.653
		c-2.607,0.489-7.763,1.071-17.524,1.071h-0.746c-0.031-0.815-0.06-2.108-0.062-4.154l0.046-0.848
		c1.268-0.754,2.669-1.562,4.195-2.421c1.698-0.948,2.971-1.619,3.915-2.096c2.113,0.904,4.281,1.363,6.464,1.363h0.801
		l11.129-1.584l0.633-24.437c0-2.981-0.148-5.981-0.437-8.923c-0.393-3.987-1.577-6.846-3.083-8.897l8.743-3.709
		c0.425,5.522,0.642,13.157,0.642,22.725C168.016,1374.529,167.89,1381.308,167.638,1390.232z M214.304,1396.946
		c-1.01,1.178-2.571,2.611-5.408,3.462c-0.07-2.311-0.161-4.887-0.269-7.732c-0.584-15.544-0.882-26.06-0.882-31.26
		c0-0.11,0.002-0.401,0.024-1.111c1.163,1.155,2.27,2.43,3.333,3.824c4.685,6.135,6.96,12.491,6.96,19.43
		C218.062,1389.504,216.783,1394.025,214.304,1396.946z M406.486,1332.162c-3.639,6.132-6.325,12.999-8.05,20.542l-0.11-28.305
		c0.313,0.132,0.622,0.273,0.926,0.423c2.89,1.381,5.267,2.995,7.063,4.786l1.08,1.085
		C407.085,1331.174,406.785,1331.664,406.486,1332.162z M450.493,1393.748c-1.949,5.699-4.098,8.293-5.267,8.293
		c-1.729,0-3.754-3.887-4.949-7.182c-2.077-5.791-3.132-12.351-3.132-19.505c0-7.08,1.139-13.864,3.393-20.171
		c1.821-5.113,3.926-7.79,5.063-7.79c1.244,0,3.233,2.796,4.83,6.771c2.324,5.857,3.507,11.998,3.507,18.257
		C453.939,1379.955,452.782,1387.123,450.493,1393.748z M447.066,1308.806c-7.887,0-15.08,1.658-21.441,4.892
		c-0.851-2.832-1.976-6.153-3.392-10.039c-0.441-1.218-0.869-2.329-1.288-3.388h12.563l17.149-10.097v-11.772
		c0.04,0,1.813,0,1.813,0c1.195,0,2.43-0.146,3.802-0.468c0.759-0.177,1.469-0.366,2.131-0.569l7.754-2.377
		c0.066,0.37,0.106,0.617,0.133,0.785l-0.261,7.503l12.629,7.6l-6.03,3.547l6.555,9.924c0.746,1.13,3.269,6.052,4.499,22.188
		c0.089,1.199,0.173,2.496,0.247,3.899C472.927,1312.674,457.992,1308.806,447.066,1308.806z M536.132,1334.177
		c-0.9,0.795-1.822,1.218-3.018,1.368c-2.752-0.662-5.487-1.323-8.199-1.98v-8.169c2.619,0.472,5.05,1.164,7.273,2.077
		c4.949,2.06,4.949,3.656,4.949,4.182C537.138,1333.172,536.723,1333.658,536.132,1334.177z M570.127,1372.765
		c-1.813,3.555-3.211,6.643-4.226,9.347l-6.008-14.305c3.308-2.047,6.246-4.407,8.791-7.08c0.966,2.325,2.275,4.681,4.014,6.987
		L570.127,1372.765z M613.826,1347.415c-0.247-0.088-0.494-0.181-0.746-0.273c-1.151-0.428-2.139-0.833-2.981-1.213
		C611.365,1346.215,612.596,1346.709,613.826,1347.415z M618.823,1400.765c-2.403,2.254-4.194,2.545-5.487,2.545
		c-3.436,0-6.479-0.754-9.236-2.267c-0.458-0.256-0.833-0.499-1.134-0.715c2.439-1.849,4.821-4.341,5.571-8.143l0.745-3.771
		l4.614,1.866c3.568,1.583,7.327,3.938,7.327,5.884C621.224,1397.325,620.941,1398.785,618.823,1400.765z" />
		<path fill="#FBC0A2" d="M-29.131,1390.956c-0.507,4.318-0.869,9.064-1.081,14.229c-0.212,5.161-0.318,10.582-0.318,16.25v15.24
		c-2.878,2.88-6.352,5.972-10.417,9.271c-3.639,2.876-7.282,5.796-10.924,8.76c1.564-13.122,3.174-26.245,4.828-39.367v-42.164
		c0-14.729-0.276-28.279-0.827-40.639s-1.674-24.339-3.366-35.94c6.605-0.931,13.888-1.394,21.848-1.394
		c18.545,0,31.458,3.088,38.743,9.268c6.098,5.165,9.144,12.787,9.144,22.861c0,8.889-2.627,17.48-7.875,25.778
		c-4.065,6.436-10.205,13.25-18.416,20.448C-14.906,1379.399-22.019,1385.199-29.131,1390.956z M-24.687,1312.096
		c-0.253,0-0.761,0-1.524,0c-0.933,0-1.61,0-2.034,0c-1.184,0-1.78,0.636-1.78,1.91c0,7.296,0.148,17.596,0.446,30.877
		c0.295,13.285,0.701,20.352,1.208,21.198c5.672-4.062,9.865-7.282,12.576-9.65c4.742-4.15,8.339-8.213,10.796-12.196
		c3.05-4.909,4.574-9.947,4.574-15.116c0-6.771-2.541-11.385-7.622-13.842C-11.013,1313.83-16.555,1312.776-24.687,1312.096z
		 M82.265,1445.466c-2.034-4.826-5.125-13.463-9.272-25.91c-4.572-13.886-7.959-23.63-10.163-29.219
		c-4.065-10.498-7.874-18.208-11.431-23.117c-2.119-1.521-3.666-2.73-4.638-3.617c-0.973-0.896-1.458-1.884-1.458-2.986
		c0-2.121,0.083-4.19,0.253-6.224c0.507-6.096,0.761-9.527,0.761-10.291c3.812,0.931,7.662,1.861,11.559,2.792
		c4.486,0,8.339-1.416,11.557-4.256c3.22-2.837,4.828-6.498,4.828-10.988c0-6.431-3.965-11.305-11.9-14.604
		c-5.973-2.457-12.752-3.683-20.346-3.683c-1.451,0-2.305,0.463-2.558,1.394c0,5.421,0,13.551,0,24.388c0,10.843,0,18.928,0,24.265
		c0,13.211,0.317,22.65,0.953,28.323c0.635,5.677,1.797,10.798,3.494,15.372l-1.398,1.398l-14.988,0.507
		c-1.95,0-3.789-0.084-5.525-0.251c-1.735-0.168-3.41-0.512-5.018-1.015c1.862-3.221,3.09-8.09,3.684-14.609
		c0.591-6.523,0.891-14.181,0.891-22.994v-2.285v-1.905v-1.526c0-1.693,0-3.321,0-4.892c0-1.565,0-3.065,0-4.508
		c0-12.704-0.26-22.482-0.778-29.342c-1.037-13.546-3.147-22.738-6.336-27.563c1.438-0.848,4.996-1.438,10.67-1.778
		c5.675-0.339,10.88-0.507,15.624-0.507c13.802,0,25.533,2.708,35.187,8.129c12.024,6.775,18.038,16.511,18.038,29.214
		c0,6.775-1.844,12.558-5.527,17.344c-3.683,4.782-8.87,8.487-15.56,11.111c-0.086,1.271-0.125,2.289-0.125,3.048
		c0,0.936,0.042,1.482,0.125,1.654l36.584,87.134l-0.256,1.271L82.265,1445.466z M165.971,1429.08
		c-0.847,0.428-3.917,0.719-9.21,0.891c-5.293,0.172-10.522,0.256-15.685,0.256h-6.354h-7.748c-4.064,0-7.366-0.044-9.907-0.128
		c-10.163-0.34-15.709-0.507-16.64-0.507c0-0.764,1.056-3.776,3.176-9.034c1.098-2.713,1.649-5.002,1.649-6.868l-0.761-78.096
		c0-2.121-0.593-4.574-1.78-7.366c-1.61-3.727-2.541-6.1-2.794-7.114c4.318-0.3,9.759-0.547,16.325-0.732
		c6.561-0.189,12.721-0.282,18.479-0.282h25.279c1.27,1.271,2.604,4.741,3.999,10.414c1.398,5.673,2.097,9.867,2.097,12.575
		c-2.633-2.54-5.798-4.34-9.492-5.403c-3.696-1.059-7.708-1.588-12.04-1.588c-2.889,0-5.478,0.089-7.772,0.256
		c-8.153,0.596-12.529,0.896-13.123,0.896l-0.763,0.768v7.904c0,2.722,0.125,6.842,0.381,12.368
		c0.251,5.527,0.379,9.268,0.379,11.222l1.143,0.887c2.455,0,6.561-1.689,12.322-5.077c4.996-2.964,8.804-5.673,11.431-8.134
		c1.017,0,1.652,1.293,1.907,3.877c0.252,2.585,0.379,5.188,0.379,7.813l-0.379,14.608l-0.891,0.124
		c-0.761,0-1.568-0.207-2.413-0.636c-2.031-1.01-3.346-1.521-3.937-1.521c-1.187,0-4.365,1.442-9.528,4.318
		c-4.064,2.285-7.282,4.234-9.651,5.845l-0.382,6.982c0,2.713,0.042,4.702,0.126,5.977c0.084,1.271,0.381,4.187,0.893,8.765
		c0.763,0.34,1.826,0.591,3.183,0.759c1.358,0.172,2.591,0.256,3.696,0.256h4.202c8.572,0,15.109-0.428,19.613-1.274
		c7.896-1.522,13.539-4.446,16.938-8.765h1.145c-0.593,3.304-1.738,7.454-3.432,12.452
		C167.665,1423.619,166.311,1427.729,165.971,1429.08z M197.979,1429.718c-3.895,0-7.071-0.044-9.528-0.127
		c-9.737-0.34-15.112-0.512-16.131-0.512c0.421-1.271,1.352-3.432,2.792-6.484c2.289-4.83,3.432-8.689,3.432-11.57
		c0-4.578,0.125-11.406,0.381-20.476c0.254-9.068,0.379-15.896,0.379-20.476c0-10.507-0.253-18.733-0.761-24.67
		c-0.933-10.507-2.752-18.482-5.461-23.907l1.271-1.398c20.747,0,37.98,5.554,51.698,16.66
		c14.905,12.037,22.355,28.229,22.355,48.582c0,15.681-4.616,27.167-13.846,34.463
		C226.178,1426.411,213.987,1429.718,197.979,1429.718z M196.455,1361.416c0,5.346,0.295,15.905,0.891,31.684
		c0.335,8.994,0.507,15.359,0.507,19.091l5.337,0.251c8.465,0,15.028-2.713,19.686-8.143c4.318-5.09,6.48-11.998,6.48-20.74
		c0-9.417-3.092-18.178-9.272-26.28c-6.182-8.103-13.846-13.339-22.992-15.716c0,2.801-0.108,6.576-0.317,11.327
		C196.559,1357.644,196.455,1360.485,196.455,1361.416z M340.498,1403.425l-24.517,0.379l-1.271-1.271
		c1.354-2.368,2.308-4.825,2.858-7.366c0.556-2.54,0.825-5.337,0.825-8.385c0-2.964-0.128-5.756-0.38-8.385
		c-0.507-3.724-0.847-6.52-1.019-8.381l-0.759-0.764c-4.746,1.271-9.488,2.704-14.229,4.318c-5.504,1.945-10.076,3.847-13.717,5.708
		c-0.68,0.34-1.271,1.8-1.778,4.384c-0.509,2.581-0.763,4.637-0.763,6.158c-1.356,11.345-2.371,19.002-3.048,22.985
		c-1.524,8.972-3.518,16.466-5.973,22.47c-3.048,7.533-7.198,14.009-12.447,19.43c-1.866-1.949-4.067-4.662-6.608-8.134
		c-2.031-2.88-4.063-5.721-6.096-8.518c0.507-1.187,1.312-2.267,2.413-3.242c1.099-0.975,2.201-1.927,3.304-2.862
		c6.262-7.115,9.907-22.959,10.924-47.532c1.354-32.367,2.876-52.15,4.57-59.354c4.488-19.487,14.313-29.236,29.47-29.236
		c10.67,0,18.756,7.089,24.261,21.252c3.472,8.99,6.497,24.128,9.082,45.402c2.58,21.278,4.72,34.586,6.413,39.919L340.498,1403.425
		z M300.615,1311.584c-0.512,0-1.588,0.68-3.241,2.034c-1.65,1.358-2.646,2.289-2.984,2.796c-1.863,2.536-3.195,7.856-3.998,15.941
		c-0.805,8.085-1.207,15.134-1.207,21.146v5.465c3.637-1.019,6.815-2.033,9.529-3.053c3.807-1.438,8.932-3.683,15.367-6.73
		c0-8.721-0.635-16.087-1.905-22.099C309.97,1316.754,306.115,1311.584,300.615,1311.584z M414.293,1321.62
		c-2.709-2.708-6.097-5.037-10.163-6.986c-4.486-2.201-9.823-3.3-16.003-3.3l-1.143,1.271l0.38,94.733
		c0,2.541,0.339,5.377,1.019,8.509c1.605,7.538,2.413,12.236,2.413,14.098v1.526c-5.466,2.876-10.847,6.391-16.14,10.537
		c-4.442,3.388-9.268,7.622-14.473,12.699c3.979-8.637,6.771-20.188,8.381-34.67c1.187-10.749,1.777-23.912,1.777-39.491
		c0-3.555,0-8.593,0-15.111c0-6.52,0-11.134,0-13.847v-11.552c0-5.757-0.146-10.922-0.44-15.491
		c-0.301-4.574-0.909-8.849-1.84-12.832c-1.015-0.083-2.184-0.229-3.498-0.44c-1.31-0.212-2.095-0.317-2.347-0.317
		c-5.509,0-9.739,1.693-12.699,5.076c-4.318,4.914-7.458,7.834-9.399,8.765c2.452-8.972,4.949-17.992,7.49-27.052
		c0.931-0.592,3.052-1.121,6.355-1.588c3.3-0.464,7.914-0.701,13.842-0.701h5.717l32.394,0.383
		c1.522,1.526,3.428,5.417,5.712,11.689c2.029,5.589,3.433,9.946,4.191,13.083L414.293,1321.62z M443.762,1429.718
		c-13.127,0-22.821-6.276-29.09-18.843c-4.825-9.678-7.238-21.856-7.238-36.54c0-14.434,2.92-26.567,8.765-36.413
		c7.115-11.883,17.401-17.824,30.867-17.824c12.532,0,22.228,6.493,29.086,19.479c5.505,10.44,8.258,22.619,8.258,36.54
		c0,13.838-3.221,25.805-9.656,35.9C467.215,1423.817,456.885,1429.718,443.762,1429.718z M445.602,1336.101
		c-6.837,0-12.068,5.104-15.698,15.293c-2.704,7.564-4.05,15.548-4.05,23.96c0,8.495,1.267,16.268,3.798,23.32
		c3.542,9.771,8.734,14.657,15.575,14.657c7,0,12.319-5.311,15.95-15.932c2.699-7.816,4.054-16.145,4.054-24.983
		c0-7.729-1.438-15.2-4.301-22.426C457.207,1340.732,452.104,1336.101,445.602,1336.101z M556.431,1445.466
		c-2.033-4.826-5.125-13.463-9.271-25.91c-4.574-13.886-7.962-23.63-10.163-29.219c-4.066-10.498-7.878-18.208-11.433-23.117
		c-2.117-1.521-3.661-2.73-4.637-3.617c-0.975-0.896-1.46-1.884-1.46-2.986c0-2.121,0.084-4.19,0.256-6.224
		c0.508-6.096,0.759-9.527,0.759-10.291c3.812,0.931,7.666,1.861,11.562,2.792c4.485,0,8.341-1.416,11.557-4.256
		c3.22-2.837,4.83-6.498,4.83-10.988c0-6.431-3.97-11.305-11.901-14.604c-5.977-2.457-12.756-3.683-20.348-3.683
		c-1.455,0-2.307,0.463-2.559,1.394c0,5.421,0,13.551,0,24.388c0,10.843,0,18.928,0,24.265c0,13.211,0.318,22.65,0.953,28.323
		c0.631,5.677,1.8,10.798,3.494,15.372l-1.398,1.398l-14.988,0.507c-1.95,0-3.794-0.084-5.523-0.251
		c-1.742-0.168-3.409-0.512-5.02-1.015c1.857-3.221,3.088-8.09,3.684-14.609c0.591-6.523,0.891-14.181,0.891-22.994v-2.285v-1.905
		v-1.526c0-1.693,0-3.321,0-4.892c0-1.565,0-3.065,0-4.508c0-12.704-0.26-22.482-0.776-29.342
		c-1.036-13.546-3.149-22.738-6.338-27.563c1.438-0.848,4.997-1.438,10.67-1.778c5.673-0.339,10.882-0.507,15.623-0.507
		c13.802,0,25.531,2.708,35.187,8.129c12.024,6.775,18.036,16.511,18.036,29.214c0,6.775-1.839,12.558-5.526,17.344
		c-3.684,4.782-8.871,8.487-15.558,11.111c-0.084,1.271-0.133,2.289-0.133,3.048c0,0.936,0.049,1.482,0.133,1.654l36.575,87.134
		l-0.247,1.271L556.431,1445.466z M574.088,1398.392c0-3.392,0.591-6.916,1.777-10.568c0.847-2.634,2.285-5.941,4.318-9.93
		c1.526,0.256,4.402,1.999,8.637,5.223c2.876,2.294,5.761,4.592,8.632,6.886c-0.079,0.424-1.248,1.363-3.493,2.801
		c-2.241,1.447-3.361,3.573-3.361,6.374c0,4.848,2.669,8.756,8.006,11.729c4.481,2.466,9.396,3.696,14.729,3.696
		c4.825,0,9.228-1.865,13.215-5.597c3.979-3.732,5.968-8.016,5.968-12.845c0-6.705-4.741-12.131-14.225-16.285
		c-8.809-3.56-17.613-7.12-26.422-10.684c-9.567-5.17-14.354-12.21-14.354-21.11c0-8.566,2.837-15.377,8.514-20.419
		c5.672-5.042,12.871-7.569,21.592-7.569c5.928,0,12.107,1.104,18.552,3.304c5.329,1.862,11.006,4.57,17.014,8.13
		c-1.095,2.713-2.753,5.801-4.949,9.271c-3.22,5.082-5.082,8.086-5.593,9.017l-1.773,0.255c-2.033-4.573-5.231-8.341-9.59-11.305
		c-4.367-2.964-9.042-4.446-14.04-4.446c-3.136,0-5.99,1.081-8.575,3.242c-2.584,2.166-3.872,4.816-3.872,7.953
		c0,4.578,4.781,8.649,14.353,12.209c14.561,5.342,23.542,9.157,26.93,11.446c9.65,6.444,14.48,15.563,14.48,27.344
		c0,9.925-4.194,18.059-12.575,24.424c-7.711,5.849-16.687,8.772-26.929,8.772c-9.907,0-18.376-2.673-25.407-8.019
		C577.939,1415.837,574.088,1408.07,574.088,1398.392z" />
		<path fill="#FBC0A2" d="M378.537,1258.456c-0.193,1.671-0.335,3.506-0.419,5.505c-0.079,1.998-0.123,4.093-0.123,6.289v5.889
		c-1.116,1.116-2.457,2.312-4.031,3.587c-1.407,1.115-2.819,2.245-4.227,3.392c0.609-5.077,1.235-10.149,1.871-15.227v-16.312
		c0-5.694-0.11-10.939-0.322-15.721s-0.648-9.413-1.302-13.899c2.555-0.361,5.373-0.538,8.452-0.538
		c7.172,0,12.165,1.191,14.983,3.582c2.36,1.998,3.538,4.944,3.538,8.844c0,3.437-1.015,6.763-3.044,9.974
		c-1.574,2.487-3.948,5.121-7.128,7.908C384.042,1253.987,381.29,1256.228,378.537,1258.456z M380.258,1227.954
		c-0.097,0-0.296,0-0.591,0c-0.362,0-0.622,0-0.785,0c-0.459,0-0.692,0.247-0.692,0.736c0,2.823,0.057,6.807,0.172,11.945
		c0.114,5.134,0.269,7.869,0.468,8.199c2.191-1.574,3.815-2.818,4.865-3.735c1.83-1.605,3.224-3.172,4.172-4.716
		c1.183-1.901,1.77-3.851,1.77-5.849c0-2.62-0.979-4.402-2.947-5.355C385.547,1228.624,383.404,1228.213,380.258,1227.954z
		 M429.784,1263.281l-9.484,0.146l-0.489-0.494c0.521-0.913,0.892-1.866,1.103-2.85c0.217-0.983,0.322-2.064,0.322-3.246
		c0-1.143-0.049-2.228-0.15-3.242c-0.193-1.442-0.326-2.523-0.393-3.242l-0.295-0.295c-1.835,0.489-3.666,1.05-5.501,1.667
		c-2.13,0.754-3.898,1.491-5.306,2.21c-0.265,0.132-0.494,0.696-0.688,1.693c-0.198,1.002-0.3,1.791-0.3,2.387
		c-0.521,4.385-0.913,7.349-1.174,8.888c-0.591,3.472-1.358,6.369-2.311,8.694c-1.178,2.915-2.783,5.417-4.813,7.517
		c-0.724-0.755-1.575-1.805-2.559-3.15c-0.785-1.111-1.57-2.209-2.355-3.29c0.194-0.463,0.508-0.882,0.931-1.257
		c0.424-0.38,0.852-0.746,1.279-1.104c2.417-2.757,3.829-8.888,4.222-18.394c0.524-12.518,1.111-20.171,1.769-22.959
		c1.737-7.533,5.536-11.305,11.397-11.305c4.129,0,7.256,2.739,9.387,8.218c1.341,3.479,2.51,9.338,3.512,17.564
		c0.996,8.234,1.83,13.378,2.487,15.438L429.784,1263.281z M414.355,1227.755c-0.194,0-0.613,0.265-1.253,0.785
		c-0.64,0.524-1.023,0.891-1.151,1.085c-0.723,0.983-1.239,3.039-1.548,6.162c-0.317,3.132-0.468,5.862-0.468,8.182v2.117
		c1.407-0.393,2.638-0.789,3.684-1.182c1.469-0.556,3.458-1.425,5.945-2.603c0-3.37-0.247-6.224-0.736-8.549
		C417.976,1229.753,416.486,1227.755,414.355,1227.755z M453.811,1241.121c0,2.65,0.097,5.438,0.291,8.354
		c0.198,2.916,0.41,5.951,0.64,9.113c0.229,3.158,0.344,5.822,0.344,7.983c-0.428,0.133-0.891,0.252-1.381,0.366
		c-0.498,0.115-0.908,0.172-1.239,0.172c-0.56,0-1.125,0-1.702,0c-0.578,0-1.143-0.018-1.703-0.048
		c-1.019-2.457-2.033-4.914-3.053-7.371c-0.361-0.851-1.411-3.308-3.148-7.37c-1.351-3.11-2.431-5.567-3.251-7.366
		c-0.199,0.356-0.327,0.824-0.397,1.397c-0.066,0.574-0.097,1.235-0.097,1.99c0,0.556,0.021,1.234,0.062,2.037
		s0.102,1.663,0.186,2.581v30.757l-8.937,5.258h-0.794c1.08-2.466,1.786-5.875,2.112-10.233c0.163-2.135,0.247-5.681,0.247-10.63
		v-25.195v-4.574c0-2.986-0.084-5.58-0.242-7.776c-0.164-2.197-0.49-4.283-0.975-6.251c0.912-0.097,2.479,0.296,4.697,1.183
		c1.601,0.653,3.216,1.31,4.848,1.963c0.979,2.259,1.954,4.504,2.938,6.727c1.174,2.589,2.25,4.799,3.229,6.639l0.194-0.296v-0.935
		c0-4.813,0.512-9.171,1.53-13.07c1.183-4.485,3.062-8.451,5.624-11.892l0.645,0.147l4.045,6.293
		c-1.085,2.487-2.14,5.015-3.172,7.591C454.318,1231.235,453.811,1235.39,453.811,1241.121z M477.537,1277.025l0.053-1.473
		c0-1.147-0.543-4.015-1.628-8.598c-1.08-4.587-2.196-8.826-3.339-12.726c-1.346-4.485-2.294-7.07-2.85-7.759
		c-1.835,2.127-2.981,3.587-3.44,4.372c-0.887,1.539-1.328,3.356-1.328,5.451c0,1.407,0.115,2.66,0.345,3.759
		c0.229,1.098,0.705,2.055,1.425,2.871l-0.83,0.538l-8.998-0.141c0.525-1.346,0.873-3.146,1.032-5.403
		c0.066-0.988,0.097-2.872,0.097-5.655v-13.996c0-2.196-0.079-4.098-0.238-5.699c-0.264-2.589-0.736-4.389-1.424-5.403
		c0.983-0.815,2.338-1.769,4.075-2.854c1.442-0.882,2.885-1.765,4.323-2.651l0.198,0.296c0,0.688-0.058,2.007-0.172,3.952
		c-0.115,1.95-0.173,3.419-0.173,4.397c0,2.325,0.027,4.054,0.075,5.184c0.049,1.129,0.186,2.496,0.415,4.102l0.344-0.102
		c2.263-2.813,3.899-5.271,4.914-7.366c1.015-2.095,1.984-4.944,2.898-8.548c1.085,0,2.54-0.04,4.375-0.124
		c1.835-0.079,2.946-0.123,3.339-0.123c0.688,0,1.386,0.018,2.091,0.048c0.706,0.036,1.398,0.102,2.091,0.199
		c-1.932,1.861-3.802,4.159-5.602,6.876c-1.376,2.096-2.867,4.663-4.468,7.715l12.526,44.943
		C484.285,1281.083,480.911,1279.054,477.537,1277.025z M500.531,1273.448c-5.077,0-8.827-2.426-11.248-7.287
		c-1.87-3.744-2.801-8.455-2.801-14.137c0-5.58,1.129-10.273,3.388-14.084c2.752-4.597,6.73-6.895,11.939-6.895
		c4.848,0,8.598,2.515,11.253,7.534c2.126,4.04,3.193,8.751,3.193,14.137c0,5.351-1.248,9.982-3.736,13.886
		C509.605,1271.167,505.609,1273.448,500.531,1273.448z M501.245,1237.239c-2.646,0-4.671,1.972-6.073,5.915
		c-1.046,2.924-1.566,6.012-1.566,9.268c0,3.286,0.49,6.294,1.469,9.02c1.372,3.78,3.379,5.668,6.025,5.668
		c2.709,0,4.765-2.051,6.171-6.161c1.041-3.022,1.566-6.242,1.566-9.66c0-2.991-0.556-5.88-1.668-8.677
		C505.732,1239.03,503.76,1237.239,501.245,1237.239z M553.793,1283.13c-0.983,0-1.985-0.203-2.999-0.601
		c-1.275-0.498-2.753-1.398-4.42-2.694c-1.605,1.054-3.181,1.861-4.72,2.435c-1.54,0.573-3.128,0.86-4.764,0.86
		c-4.425,0-7.993-3.652-10.71-10.957c-1.805-4.848-3.472-12.324-5.011-22.43c-1.544-10.105-2.638-16.073-3.295-17.913l0.494-0.538
		l3.683-0.049l8.747,0.049l0.489,0.64c-0.688,1.111-1.204,2.351-1.548,3.71c-0.344,1.358-0.517,2.774-0.517,4.247
		c0,1.998,0.446,5.801,1.328,11.402c1.015,6.418,2.082,11.693,3.193,15.817c1.442,5.312,2.753,7.962,3.931,7.962
		c1.574,0,2.783-1.918,3.634-5.747c0.618-2.783,1.051-6.604,1.275-11.451c0.097-2.126,0.146-4.86,0.146-8.204v-11.054
		c0-1.311-0.154-2.55-0.463-3.71c-0.313-1.164-0.812-2.271-1.5-3.316c0.296-0.163,0.524-0.287,0.688-0.371
		c0.163-0.079,0.277-0.123,0.344-0.123l11.597,0.102l0.538,0.393c-0.755,0.983-1.319,2.713-1.694,5.187
		c-0.379,2.479-0.622,5.258-0.736,8.342c-0.115,3.078-0.172,5.98-0.172,8.702v2.263c0,0.561,0,1.553,0,2.978s0,2.29,0,2.581
		c0,4.887,0.41,8.363,1.222,10.427c0.692,1.773,1.685,2.66,2.99,2.66s2.466-1.363,3.48-4.085c0.521-1.376,1.041-3.33,1.566-5.853
		c1.076-5.412,2.17-10.815,3.281-16.232c1.57-6.488,3.542-11.769,5.929-15.835c3.034-5.179,7.004-8.866,11.904-11.063l0.636,0.146
		c0.617,1.412,1.143,2.656,1.565,3.741c0.591,1.473,1.011,2.77,1.275,3.881c-5.699,2.462-9.727,8.426-12.086,17.9
		c-1.707,7.966-3.41,15.914-5.112,23.854C565.337,1279.147,560.604,1283.13,553.793,1283.13z" />
		<g>
			<path fill="#ED1C24" d="M228.174,1157.341c1.434-6.074,2.865-12.142,4.29-18.216c1.493-6.345,5.381-9.142,11.872-7.838
			c6.014,1.204,6.709,6.244,6.98,10.931c0.201,3.52-0.662,7.097-2.25,10.463c-7.734,16.357-7.382,31.987,3.482,47.205
			c17.214,24.115-3.061,49.646-22.686,54.758c-3.593,0.936-6.683-0.498-9.752-1.791c-22.91-9.629-30.367-34.185-16.406-54.625
			c9.946-14.556,9.382-29.633,2.697-44.956c-1.895-4.345-2.702-8.562-2.294-13.105c0.384-4.27,1.701-8.085,6.689-8.872
			c5.196-0.825,9.19,0.459,11.272,6.001C224.531,1143.85,224.966,1150.87,228.174,1157.341z M227.755,1188.291
			c-0.181,0.093-0.357,0.181-0.54,0.269c0,15.328,0,30.656,0,45.984c0.183-0.005,0.359-0.009,0.54-0.014
			C227.755,1219.116,227.755,1203.702,227.755,1188.291z" />
			<g>
				<path fill="#A3B1B9" d="M287.841,1086.428c1.46,12.28,2.995,24.552,4.354,36.845c2.83,25.641,2.276,51.235-1.087,76.801
				c-2.545,19.318-7.333,38.029-14.565,56.118c-0.382,0.949-0.357,1.703,0.549,2.299c-2.796,3.405-2.293,8.649-7.214,12.086
				c1.641-8.782,3.18-16.718,4.596-24.68c8.24-46.299,9.761-92.616-0.388-138.821c-1.63-7.408,0.723-12.176,6.303-16.142
				C282.746,1089.251,285.349,1087.919,287.841,1086.428z" />
				<path fill="#A3B1B9" d="M179.167,1261.441c0.366-2.055,0.048-3.991-0.746-5.937c-14.236-34.88-17.719-71.406-16.938-108.661
				c0.397-18.961,2.594-37.686,5.662-56.348c0.172-1.057,0.838-2.029,1.274-3.042c12.095,5.424,14.49,10.028,11.903,22.384
				c-7.984,38.093-7.847,76.404-3.066,114.852c1.881,15.144,5.033,30.078,8.035,45.892
				C181.154,1268.097,181.048,1264.198,179.167,1261.441z" />
				<path fill="#8D9BA6" d="M227.451,1078.74c-2.739-0.807-5.322-1.57-7.907-2.333c-4.184-1.23-7.024-2.515-3.326-7.708
				c3.624-5.088,0.368-8.93-4.104-11.612c-4.865-2.92-10.399-4.221-15.782-5.791c-4.345-1.266-6.621-3.004-4.676-8.167
				c2.091-5.551,5.47-4.404,9.109-2.543c7.209,3.686,14.455,7.34,21.413,11.471c3.758,2.229,6.736,2.327,10.534,0.097
				c7.174-4.21,14.648-7.911,22.023-11.774c3.668-1.928,6.698-2.197,8.65,2.573c2.012,4.916,0.066,6.989-4.49,8.271
				c-5.399,1.522-10.904,2.89-15.8,5.764c-4.539,2.659-7.722,6.574-4.298,11.604c3.813,5.604,0.763,6.795-3.708,7.958
				C232.486,1077.223,229.917,1078.028,227.451,1078.74z" />
				<path fill="#A3B1B9" d="M267.059,1106.688c-3.242-3.009-6.715-3.939-10.882-1.733c-2.832,1.497-6.027,1.695-9.201,1.392
				c-12.955-1.251-25.93-1.272-38.849,0.117c-6.669,0.719-12.373-4.453-19.071-2.473c0.664-5.309,3.229-7.1,8.244-4.523
				c3.085,1.583,6.387,1.756,9.828,1.729c13.703-0.113,27.412-0.04,41.117-0.019c2.692,0.003,5.299-0.035,7.939-1.017
				C264.238,1097.147,264.94,1097.65,267.059,1106.688z" />
				<path fill="#A3B1B9" d="M211.701,1278.49c2.541-4.883,6.893-0.754,10.408-1.658c6.542-1.686,13.888-0.322,20.893-0.045
				c0.933,0.045,1.824,1.16,2.732,1.782C234.381,1282.654,223.031,1285.362,211.701,1278.49z" />
				<path fill="#A3B1B9" d="M246.877,1278.732c7.547-3.039,10.943-9.545,13.809-16.501c1.422,6.303-0.044,12.324-1.734,18.332
				c-1.385,4.927-3.769,5.456-7.368,1.839C250.192,1281.003,248.458,1279.945,246.877,1278.732z" />
				<path fill="#A3B1B9" d="M194.318,1263.612c3.586,5.924,6.53,12.43,13.652,15.178c-0.315,0.313-0.598,0.666-0.951,0.917
				c-9.298,6.586-10.904,5.889-12.604-6.021C193.946,1270.386,194.327,1266.972,194.318,1263.612z" />
				<path fill="#A3B1B9" d="M188.739,1104.985c0.479,1.293-0.051,2.217-1.077,2.967
				C187.358,1106.721,187.225,1105.554,188.739,1104.985z" />
				<path fill="#A3B1B9" d="M268.614,1113.309c-1.145-1.665-1.771-3.452-1.292-5.501
				C268.985,1109.354,268.885,1111.31,268.614,1113.309z" />
			</g>
			<g>
				<path fill="#952E1F" d="M126.158,1147.319c-3.91,24.312-3.599,48.645-0.229,73.07c-6.29-8.955-8.469-19.252-10.293-29.589
				c-1.054-5.968-1.985-12.024-1.526-18.146c0.406-5.41-2.051-5.638-6.087-3.577c-2.669,1.364-4.83,3.286-6.895,5.381
				c-0.902,0.918-1.747,2.393-3.291,1.795c-1.568-0.61-1.138-2.284-1.165-3.563c-0.203-11.023,2.071-21.625,7.181-31.287
				c2.316-4.389,1.083-5.703-2.532-7.596c-11.985-6.264-23.866-5.244-35.824-0.114l-0.298-0.291
				c3.361-19.087,14.437-33.448,28.57-45.733c5.726-4.979,11.852-9.589,18.782-12.926c1.709-0.825,3.059-1.908,2.874-4.078
				c11.98-2.485,24.08-2.706,36.278-2.448c11.998,0.256,23.563,2.727,34.919,5.988c1.207-2.86-1.637-3.368-1.848-6.211
				c12.064,5.855,22.498,13.317,34.82,20.341c-13.831,3.035-25.753,3.596-37.402-2.703c-11.521-6.229-23.52-11.427-36.569-13.637
				c-2.428-0.412-4.929-0.589-7.395-0.558c-5.386,0.07-8.412,2.561-8.132,8.341c0.154,3.29,0.024,6.594,0.024,11.429
				c-3.736-6.427-7.349-3.871-11.027-1.623c-9.799,6.003-19.058,12.575-25.636,23.073c10.339,1.686,18.936,5.611,26.428,12.128
				c3.045,2.646,3.879,4.632,1.542,8.365c-3.683,5.889-6.583,12.256-8.798,19.615
				C118.198,1152.615,121.41,1147.904,126.158,1147.319z" />
				<path fill="#952E1F" d="M339.276,1070.474c0.375,3.608,3.564,4.369,6.004,5.794c20.369,11.898,35.366,28.399,43.487,50.763
				c0.661,1.824,2.368,4.05,1.023,5.666c-1.658,2.001-3.696-0.28-5.447-0.913c-10.34-3.738-20.291-2.781-30.18,1.74
				c-4.054,1.849-5.258,3.573-2.938,8.059c6.286,12.175,7.764,21.597,6.6,35.844c-3.622-1.403-5.324-4.781-8.063-6.824
				c-2.201-1.641-4.839-3.429-7.375-2.507c-2.894,1.047-1.535,4.364-1.602,6.664c-0.414,15.24-2.871,30.002-9.615,43.834
				c-0.362,0.755-0.997,1.374-2.7,3.67c1.081-10.302,1.575-18.826,2.956-27.211c2.107-12.894,0.137-25.583-1.086-38.317
				c-0.277-2.923-0.913-5.781-0.251-8.71c3.67,1.61,7.349,3.225,12.024,5.28c-1.297-7.729-4.632-13.745-8.178-19.521
				c-2.52-4.098-1.937-6.59,1.755-9.528c7.543-5.999,15.831-10.105,26.28-11.543c-8.063-11.839-18.751-19.382-30.616-25.56
				c-0.405-0.205-0.979-0.642-1.217-0.509c-10.278,5.761-5.382-3.825-5.585-6.198c-0.648-7.88-1.557-9.448-9.823-8.976
				c-14.728,0.84-27.988,6.718-40.65,13.614c-12.079,6.583-24.293,6.464-38.382,3.244c11.876-7.203,22.73-13.784,33.878-20.546
				c1.143,3.528-2.512,3.679-3.116,6.788C290.656,1067.241,314.862,1066.196,339.276,1070.474z" />
				<path fill="#952E1F" d="M177.526,1035.306c-4.775,3.984-6.76,8.751-6.861,15.283c-8.081-8.416-17.767-9.033-27.489-8.937
				c-8.72,0.082-17.47-1.065-26.179,0.92c-3.229,0.736-4.446-1.041-2.779-4.316c3.683-7.238,9.779-10.358,17.6-10.35
				C147.174,1027.935,162.085,1030.75,177.526,1035.306z" />
				<path fill="#952E1F" d="M284.732,1049.324c-0.812-5.382-2.364-10.203-7.095-14.066c16.036-4.521,31.359-7.845,47.234-7.188
				c9.144,0.379,14.123,4.688,16.836,13.597C322.876,1043.204,302.97,1036.757,284.732,1049.324z" />
				<path fill="#952E1F" d="M343.131,1063.811c0,0,0.07-0.17,0.07-0.167c-4.389,1.795-8.271-0.889-12.381-1.467
				c-5.492-0.768-10.948-1.842-16.339-3.344c8.307,0,16.612,0.177,24.904-0.072C343.581,1058.635,343.634,1060.833,343.131,1063.811
				z" />
				<path fill="#952E1F" d="M111.49,1062.395c0,0,0.064,0.17,0.062,0.17c-0.28-2.964,1.158-3.826,3.99-3.775
				c8.121,0.141,16.237,0.049,26.181,0.049c-10.079,2.063-18.53,3.793-26.979,5.533
				C113.027,1064.722,112.61,1062.989,111.49,1062.395z" />
				<path fill="#952E1F" d="M314.354,1050.258c9.439-1.559,17.596-2.174,25.809-2.275c2.378-0.033,3.842,0.516,3.899,3.246
				c0.058,3.247-2.188,2.192-3.723,2.024C332.121,1052.376,323.93,1051.375,314.354,1050.258z" />
				<path fill="#952E1F" d="M137.836,1050.497c-7.938,0.971-15.871,1.959-23.813,2.905c-1.646,0.196-3.282,0.282-2.969-2.259
				c0.243-2.022,0.9-3.216,3.328-3.178C122.252,1048.09,130.075,1048.539,137.836,1050.497z" />
			</g>
			<g>
				<path fill="#F8F8F8" d="M179.167,1261.441c-17.174-25.693-27.688-54.047-33.821-84.191c-5.951-29.262-7.508-58.822-6.824-88.594
				c0.135-5.928,2.682-8.394,8.275-7.635c7.516,1.023,15.18,1.729,21.622,6.436c-0.437,1.012-1.103,1.982-1.274,3.039
				c-3.066,18.665-5.265,37.392-5.662,56.35c-0.781,37.255,2.702,73.779,16.938,108.663
				C179.215,1257.45,179.532,1259.386,179.167,1261.441z" />
				<path fill="#F8F8F8" d="M287.841,1086.428c6.473-3.444,13.559-4.627,20.704-5.458c4.397-0.51,7.653,0.913,7.803,6.008
				c1.495,51.478-3.396,101.863-26.039,149.104c-3.742,7.813-7.154,15.915-13.222,22.403c-0.909-0.591-0.931-1.345-0.549-2.294
				c7.231-18.089,12.02-36.8,14.564-56.12c3.364-25.568,3.917-51.162,1.087-76.801
				C290.836,1110.98,289.299,1098.708,287.841,1086.428z" />
				<path fill="#F8F8F8" d="M188.739,1104.985c-0.004-0.366,0.104-0.696,0.315-0.994c6.698-1.98,12.401,3.191,19.07,2.473
				c12.92-1.39,25.895-1.368,38.85-0.117c3.174,0.307,6.369,0.105,9.201-1.392c4.168-2.206,7.642-1.271,10.882,1.733
				c0.198,0.346,0.284,0.721,0.262,1.125c-0.479,2.046,0.148,3.831,1.292,5.498c0.505,7.438,0.935,14.871-1.786,22.597
				c-3.542-4.17-4.876-9.768-9.292-12.855c-3.522-2.466-6.94-7.761-11.621-1.365c-1.003,1.37-2.12,0.523-2.712-0.333
				c-3.05-4.411-5.66-2.77-8.229,0.448c-0.143,0.176-0.295,0.346-0.434,0.518c-4.795-4.534-10.726,1.52-15.65-1.68
				c-1.101-0.715-2.128-1.544-3.187-2.32c-3.917,8.125-10.322-2.72-15.472,2.245c-4.601,4.438-8.313,9.192-11.634,16.056
				c-3.317-10.37-3.52-19.457-0.935-28.664C188.688,1107.202,189.217,1106.276,188.739,1104.985z" />
				<path fill="#F8F8F8"
					d="M194.318,1263.612c-0.507-4.332,0.06-8.531,1.742-13.242c1.017,2.352,1.493,4.548,2.742,6.136
				c3.937,4.998,5.143,14.958,15.489,9.096c7.042,3.528,15.033-3.176,21.916,2.042c4.115-4.688,10.403,3.41,14.757-2.827
				c3.063-4.389,5.655-8.906,7.788-14.054c2.331,3.803,1.985,7.662,1.932,11.469c-2.867,6.956-6.261,13.462-13.809,16.501
				c-0.395,0.044-0.774-0.009-1.142-0.163c-0.909-0.622-1.8-1.737-2.733-1.782c-7.004-0.277-14.351-1.641-20.892,0.045
				c-3.52,0.904-7.867-3.225-10.408,1.658c-1.246,0.102-2.49,0.198-3.731,0.3C200.846,1276.042,197.904,1269.536,194.318,1263.612z" />
				<path fill="#F8F8F8" d="M296.698,1024.87c-3.348,1.279-3.939-0.163-3.405-1.888c0.82-2.629-0.527-6.891,3.967-7.111
				c2.697-0.137,6.097-0.121,6.159,4.266C303.494,1025.923,298.373,1023.713,296.698,1024.87z" />
				<path fill="#F8F8F8" d="M161.931,1021.577c-0.642,1.846,0.851,4.517-2.104,3.668c-2.982-0.858-7.591,0.719-7.94-4.879
				c-0.251-4.061,2.477-4.155,5.154-4.548C162.709,1014.987,159.966,1020.207,161.931,1021.577z" />
			</g>
			<g>
				<g>
					<path fill="#FBC0A2" d="M339.276,1070.474c12.99,1.756,25.61,5.035,38.075,9.029c4.469,1.432,8.015,3.886,11.099,7.335
					c20.202,22.598,26.179,67.761,12.368,95.55c-2.554-6.709-4.649-13.365-8.84-19.033c-3.145-4.256-6.811-7.816-11.98-9.514
					c-7.251-2.378-9.228-0.904-7.987,6.424c3.727,22.176-1.354,42.511-12.545,61.623c-0.666,1.139-1.486,2.184-2.303,3.366
					c-2.541-1.562-1.297-3.798-1.411-5.55c-0.305-4.567-1.147-8.984-3.26-13.025c-1.346-2.569-3.044-6.232-5.818-6.049
					c-3.233,0.211-2.007,4.433-2.58,6.781c-3.573,14.741-9.872,28.031-19.96,39.421c-1.574,1.777-2.836,4.075-5.479,4.604
					c-0.212-0.277-0.472-0.477-0.449-0.631c0.467-3.286,4.371-7.37,0.794-9.536c-2.656-1.614-5.492,2.942-8.116,4.94
					c-2.643,2.002-4.248,5.253-8.553,6.841c13.034-36.317,16.268-73.331,15.204-111.486c4.46,1.456,7.948,3.273,11.151,5.69
					c0.414,0.399,0.824,0.799,1.239,1.195c0,0,0.154-0.433,0.154-0.428c-0.662,2.931-0.026,5.789,0.251,8.709
					c1.222,12.737,3.194,25.423,1.09,38.32c-1.381,8.385-1.875,16.909-2.955,27.211c1.702-2.296,2.338-2.915,2.699-3.67
					c6.74-13.832,9.196-28.596,9.616-43.834c0.062-2.3-1.293-5.617,1.601-6.664c2.536-0.92,5.174,0.866,7.375,2.507
					c2.739,2.043,4.442,5.419,8.063,6.824c1.164-14.252-0.313-23.669-6.599-35.844c-2.32-4.485-1.116-6.21,2.938-8.059
					c9.89-4.521,19.841-5.479,30.18-1.74c1.747,0.633,3.789,2.914,5.447,0.913c1.346-1.621-0.361-3.844-1.023-5.666
					c-8.125-22.363-23.117-38.864-43.487-50.763C342.84,1074.843,339.651,1074.084,339.276,1070.474z" />
					<path fill="#FBC0A2" d="M126.158,1147.319c3.454-1.934,6.912-3.866,11.246-6.292c-0.458,19.892,0.258,38.536,2.499,57.117
					c2.221,18.381,6.345,36.307,11.5,54.467c-3.569-3.128-7.091-6.316-10.736-9.355c-1.487-1.24-3.231-3.361-5.229-1.954
					c-1.575,1.111-0.468,3.316,0.028,5.06c0.415,1.441,1.076,2.955-0.231,4.878c-14.547-14.058-22.207-31.406-25.795-51.824
					c-9.536,6.586-9.816,16.064-10.553,27.057c-8.742-12.514-13.471-24.851-15.855-38.177c-1.729-9.655-1.385-19.311,0.046-28.984
					c0.942-6.338-0.408-7.396-6.744-5.773c-7.088,1.813-11.442,6.841-15.127,12.708c-3.013,4.799-4.583,10.231-7.141,16.53
					c-4.996-11.854-6.992-23.367-7.298-35.048c-0.518-19.646,4.579-37.93,15.187-54.572c4.475-7.02,9.998-12.351,18.581-14.64
					c11.548-3.079,22.985-6.478,34.902-7.855c0.185,2.165-1.167,3.253-2.874,4.077c-6.93,3.337-13.056,7.946-18.782,12.925
					c-14.135,12.286-25.208,26.648-28.565,45.739c-0.156,0.149-0.317,0.3-0.47,0.445c0.11,0.11,0.216,0.221,0.327,0.331
					c0.146-0.164,0.291-0.327,0.437-0.49c11.958-5.13,23.841-6.15,35.824,0.115c3.615,1.892,4.848,3.206,2.532,7.593
					c-5.11,9.665-7.384,20.267-7.181,31.289c0.026,1.279-0.406,2.956,1.165,3.564c1.544,0.598,2.389-0.878,3.291-1.795
					c2.064-2.1,4.226-4.019,6.896-5.382c4.036-2.056,6.493-1.833,6.085,3.577c-0.458,6.122,0.472,12.179,1.528,18.145
					c1.822,10.339,3.999,20.637,10.291,29.591C122.559,1195.963,122.248,1171.63,126.158,1147.319z" />
					<path fill="#FBC0A2" d="M147.048,984.809c0.962,2.155,2.426,2.525,4.116,2.343c25.226-2.733,48.339,5.386,71.419,13.795
					c3.999,1.455,3.58,3.521,1.198,5.756c-4.005,3.754-8.751,5.547-14.254,3.712c-8.334-2.776-16.74-5.407-24.926-8.581
					c-15.904-6.16-32.089-8.849-49.041-5.466c-2.161,0.431-4.561,0.443-6.713-0.009c-3.621-0.761-7.684-2.62-8.656-5.842
					c-1.057-3.491,3.672-4.478,6.094-6.013c21.567-13.674,45.45-16.629,70.275-14.37c9.429,0.855,18.819,2.347,27.731,5.789
					c3.059,1.18,5.644,0.024,8.48-0.754c29.083-8.018,57.909-8.738,86.034,3.857c4.909,2.194,9.378,5.356,14.04,8.087
					c2.942,1.727,2.845,3.421,0.277,5.635c-4.093,3.522-8.702,4.667-13.872,3.631c-16.704-3.349-32.68-0.776-48.369,5.341
					c-8.182,3.191-16.609,5.737-24.913,8.619c-2.646,0.922-5.209,1.02-7.942,0.223c-3.888-1.129-7.949-2.975-8.211-6.979
					c-0.199-2.993,4.365-3.079,6.89-4.067c18.57-7.275,37.671-12.194,57.719-13.31c4.045-0.228,7.883,2.45,12.135,0.3
					c-0.803-3.593-3.926-2.993-6.303-3.39c-23.223-3.913-45.309,1.202-66.995,8.839c-4.058,1.43-7.472,1.395-11.542-0.044
					c-21.684-7.635-43.781-12.684-66.998-8.804C152.165,983.53,149.646,984.225,147.048,984.809z" />
					<path fill="#FBC0A2" d="M350.497,996.017c-6.122,2.902-9.885,7.881-16.471,7.362c0.764-2.056,1.915-3.679,1.871-5.267
					c-0.266-9.369,5.244-6.917,10.334-5.183c18.605,6.345,33.942,17.317,46.183,32.702c8.889,11.169,15.854,23.396,21.627,38.027
					c-6.453-2.854-11.804-5.217-17.405-7.693c3.017-2.448,5.602,0.152,8.235-0.079c-4.605-15.868-32.751-41.146-46.368-41.313
					c4.155,3.626,8.954,6.185,12.147,10.768c-2.805,1.923-4.944-1.42-7.728,0.233c4.014,4.226,9.161,7.411,12.161,13.246
					c-2.925,0.944-6.907,0.741-6.313,5.344c0.154,1.176-1.023,1.353-1.896,1.227c-5.575-0.787-11.146-1.669-16.722-2.461
					c-2.14-0.307-2.232-2.031-2.453-3.518c-1.618-11.2-5.716-20.021-18.984-20.44c-0.732-0.022-1.442-0.973-3.516-2.473
					C337.181,1013.921,345.059,1007.416,350.497,996.017z" />
					<path fill="#FBC0A2" d="M105.883,998.197c4.508,9.911,12.399,15.623,22.816,18.014c-0.463,2.157-1.98,3.074-3.474,3.086
					c-11.934,0.09-15.778,8.453-17.448,17.963c-0.798,4.544-2.379,6.165-6.565,6.344c-2.691,0.112-5.381,0.524-8.052,0.926
					c-3.185,0.477-6.905,3.039-7.556-3.246c-0.223-2.152-3.297-1.76-5.8-1.787c2.726-6.052,7.739-9.783,12.706-13.647
					c-3.008-1.925-5.107,0.702-8.513,0.301c3.59-5.717,9.424-8.328,13.23-12.946c-21.397,7.729-36.62,22.478-48,42.369
					c3.121,1.087,5.754-1.921,9.38,0.15c-5.767,2.661-10.983,5.061-17.787,8.199c13.079-31.024,30.731-55.518,61.38-68.396
					c0.397-0.166,0.966,0.009,1.319-0.201c3.911-2.347,8.595-4.667,12.591-3.854c5.068,1.025,1.33,7.992,5.569,11.307
					c-7.018,1.65-10.377-3.535-14.914-5.696c-0.521-0.086-1.047-0.175-1.577-0.261C105.422,997.284,105.652,997.738,105.883,998.197
					z" />
					<path fill="#FBC0A2" d="M271.351,1296.38c-2.108,5.514-3.782,10.882-6.162,15.915c-5.015,10.586-13.815,14.936-25.061,11.724
					c-8.575-2.443-16.641-2.408-25.207,0.005c-11.221,3.167-19.995-1.16-25.069-11.725c-2.323-4.834-3.873-10.03-5.99-15.659
					c5.522-0.793,10.22-1.451,14.966,1.796c3.955,2.699,8.498,2.85,13.524,2.448c10.169-0.803,20.491-0.711,30.676,0.035
					c4.513,0.326,8.778,0.432,12.271-2.021C260.248,1295.423,265.378,1295.829,271.351,1296.38z" />
					<path fill="#FBC0A2" d="M176.974,1029.509c12.88-5.235,0.166-8.874-0.686-13.932c13.083,0.792,24.317,6.045,34.8,12.529
					c18.711,11.565,14.596,11.722,32.934-0.181c5.329-3.463,12.823-3.996,16.947-7.34c5.858-4.748,11.934-2.396,18.14-5.941
					c-1.725,5.128-5.496,6.841-7.514,9.96c1.182,2.69,4.436,2.959,6.255,5.246c-2.651,1.717-4.936,2.504-8.019,0.978
					c-7.009-3.491-14.002-2.592-20.674,1.2c-3.522,2.002-7.337,3.735-10.341,6.36c-7.79,6.814-14.971,6.308-22.751-0.102
					c-3.774-3.11-8.35-5.347-12.788-7.521c-5.502-2.693-11.367-3.051-16.978-0.338
					C183.119,1031.971,180.329,1032.24,176.974,1029.509z" />
					<path fill="#FBC0A2" d="M111.49,1062.395c0.269,1.815-0.317,2.942-2.256,3.443c-11.023,2.85-21.706,6.771-32.515,10.912
					c0.485-12.167,1.689-13.612,12.351-15.134c5.335-0.763,10.714-1.288,16.012-2.254c3.176-0.578,5.064,0.62,6.473,3.202
					C111.553,1062.561,111.49,1062.395,111.49,1062.395z" />
					<path fill="#FBC0A2" d="M343.131,1063.811c1.535-3.866,3.957-5.317,8.346-4.226c4.557,1.132,9.364,1.272,14.044,1.963
					c11.416,1.679,11.416,1.703,13.229,15.428c-11.848-5.479-24.366-7.468-35.548-13.33
					C343.201,1063.639,343.131,1063.811,343.131,1063.811z" />
					<path fill="#FBC0A2" d="M375.123,1059.999c-9.17-1.906-16.783-3.524-24.423-5.047c-1.919-0.379-3.432-0.78-3.291-3.277
					c0.133-2.419,0.988-3.76,3.626-3.67c5.603,0.19,11.262-0.151,16.797,0.534C373.937,1049.289,371.904,1055.591,375.123,1059.999z
					" />
					<path fill="#FBC0A2" d="M80.686,1059.936c3.311-11.718,3.313-11.918,17.293-11.777c3.143,0.033,8.496-2.894,9.274,2.867
					c0.875,6.444-5.443,3.728-8.374,4.755C93.27,1057.749,87.238,1058.52,80.686,1059.936z" />
				</g>
				<path fill="#FBC0A2" d="M329.929,1148.451c-0.414-0.396-0.829-0.796-1.239-1.195
				C329.396,1147.357,330.242,1147.301,329.929,1148.451z" />
				<path fill="#FBC0A2" d="M65.501,1133.696c-0.146,0.161-0.293,0.324-0.437,0.485c-0.11-0.11-0.216-0.221-0.329-0.328
				c0.154-0.148,0.315-0.294,0.47-0.443C65.203,1133.405,65.501,1133.696,65.501,1133.696z" />
			</g>
			<g>
				<path d="M227.755,1188.291c-0.181,0.093-0.357,0.181-0.54,0.269c0,15.328,0,30.656,0,45.984c0.183-0.005,0.359-0.009,0.54-0.014
				C227.755,1219.116,227.755,1203.702,227.755,1188.291z" />
				<path d="M405.886,1087.385c-0.089-0.181-0.014-0.445-0.014-0.723c3.044-1.388,5.973,1.98,9.32,0.167
				c-0.816-1.832-1.628-3.647-2.443-5.465c-0.018-0.543-0.031-1.083-0.049-1.625c0.498,0.187,0.997,0.372,1.5,0.558
				c8.063,3.84,16.122,7.675,24.878,11.841c-0.04-4.797-2.338-8.109-3.696-11.643c-4.839-12.589-9.599-25.204-15.611-37.308
				c-15.853-31.904-40.978-53.522-73.799-66.548c-4.816-1.914-9.18-4.483-13.476-7.28c-33.519-14.702-67.917-17.849-103.318-7.862
				c-2.298,0.648-4.413-0.245-6.608-0.783c-36.818-9.022-72.379-6.663-106.125,11.863c-4.942,4.988-11.68,6.532-17.871,8.844
				c-28.052,10.48-45.88,31.772-60.477,56.5c-9.92,16.799-15.835,35.415-24.088,54.087c9.863-2.452,17.425-8.409,26.181-11.528
				c1.555,3.063-1.643,4.392-1.352,6.632c3.337,1.412,6.458-1.544,10.568-0.454c-5.209,9.096-9.523,18.367-12.353,28.243
				c-6.204,21.66-5.438,43.254,0.933,64.7c4.947,16.645,12.426,32.32,19.122,50.355c3.624-14.355,6.786-26.898,9.947-39.435
				c0.653-0.189,1.306-0.379,1.956-0.573c5.141,32.521,27.183,55.816,43.293,83.578c2.68-6.175-0.56-11.433,0.545-16.487
				c0.487-2.236-1.597-5.567,1.358-6.56c2.914-0.979,2.746,2.894,4.226,4.376c9.748,9.726,19.088,19.894,29.225,29.191
				c12.428,11.411,24.726,22.721,30.413,39.267c3.284,1.799,3.701,5.77,6.63,8.143c11.358,9.214,23.898,8.637,36.831,5.279
				c3.377-0.873,6.471-1.518,9.836-0.286c16.021,5.853,30.111,2.642,42.336-9.145c8.026-20.727,23.629-35.429,39.399-50.112
				c9.691-9.029,19.254-18.248,28.04-29.482c1.598,8.641-0.529,16.391,0.186,24.127c11.076-7.621,39.372-60.272,45.777-83.485
				c3.379,13.272,6.753,26.545,10.127,39.817c10.485-26.805,24.437-52.133,24.697-81.538c0.167-19.601-4.597-37.895-13.873-55.086
				C407.32,1090.168,406.591,1088.78,405.886,1087.385z M346.232,992.93c18.61,6.345,33.947,17.317,46.188,32.702
				c8.884,11.169,15.849,23.396,21.627,38.027c-6.458-2.854-11.804-5.217-17.406-7.693c3.018-2.448,5.603,0.152,8.231-0.079
				c-4.605-15.868-32.751-41.146-46.368-41.313c4.155,3.626,8.954,6.185,12.147,10.768c-2.805,1.923-4.939-1.42-7.728,0.233
				c4.014,4.226,9.161,7.411,12.161,13.246c-2.925,0.944-6.907,0.741-6.313,5.344c0.154,1.176-1.023,1.353-1.896,1.227
				c-5.575-0.787-11.146-1.669-16.722-2.461c-2.135-0.307-2.228-2.031-2.453-3.518c-1.618-11.2-5.712-20.021-18.979-20.44
				c-0.732-0.022-1.447-0.973-3.521-2.473c11.98-2.574,19.858-9.08,25.297-20.482c-6.122,2.905-9.885,7.883-16.471,7.362
				c0.764-2.054,1.915-3.675,1.871-5.267C335.632,988.744,341.142,991.196,346.232,992.93z M330.821,1062.177
				c-5.492-0.768-10.948-1.842-16.339-3.344c8.307,0,16.612,0.177,24.904-0.072c4.12-0.122,4.244,2.004,3.768,4.896
				c0.018-0.007,0.03-0.007,0.048-0.013l0.005,0.002c1.539-3.731,3.947-5.135,8.271-4.061c4.557,1.132,9.364,1.272,14.044,1.963
				c11.416,1.679,11.416,1.703,13.229,15.428c-11.848-5.479-24.361-7.468-35.543-13.328c-0.022,0.056-0.053,0.104-0.075,0.166
				c0.009-0.054,0.014-0.1,0.022-0.154C338.782,1065.415,334.918,1062.75,330.821,1062.177z M238.794,1068.59
				c3.813,5.603,0.763,6.793-3.708,7.955c-2.6,0.678-5.169,1.48-7.638,2.194c-2.739-0.807-5.321-1.57-7.906-2.333
				c-4.184-1.23-7.024-2.515-3.326-7.708c3.624-5.088,0.369-8.93-4.104-11.612c-4.865-2.92-10.399-4.221-15.783-5.791
				c-4.345-1.266-6.621-3.004-4.675-8.167c2.091-5.551,5.469-4.404,9.108-2.543c7.21,3.686,14.455,7.34,21.413,11.471
				c3.758,2.229,6.735,2.327,10.533,0.097c7.174-4.21,14.649-7.911,22.024-11.774c3.667-1.928,6.698-2.197,8.65,2.573
				c2.011,4.916,0.066,6.989-4.49,8.271c-5.399,1.522-10.904,2.89-15.8,5.764C238.555,1059.645,235.371,1063.56,238.794,1068.59z
				 M266.827,1135.906c-3.542-4.173-4.876-9.768-9.292-12.857c-3.522-2.464-6.941-7.759-11.621-1.363
				c-1.003,1.372-2.12,0.525-2.713-0.335c-3.05-4.411-5.659-2.769-8.229,0.449c-0.144,0.177-0.295,0.347-0.435,0.517
				c-4.795-4.534-10.725,1.521-15.65-1.681c-1.101-0.712-2.128-1.544-3.187-2.318c-3.917,8.128-10.322-2.719-15.471,2.245
				c-4.601,4.438-8.313,9.19-11.634,16.059c-3.314-10.37-3.52-19.459-0.935-28.667c-0.306-1.23-0.437-2.399,1.077-2.969
				c-0.004-0.366,0.104-0.694,0.315-0.99c0.664-5.309,3.229-7.104,8.244-4.525c3.085,1.581,6.387,1.758,9.828,1.729
				c13.703-0.112,27.412-0.038,41.117-0.018c2.693,0.002,5.3-0.033,7.94-1.017c8.056-3.011,8.76-2.506,10.877,6.527
				c0.199,0.349,0.285,0.724,0.263,1.125c1.663,1.546,1.563,3.503,1.292,5.501C269.119,1120.748,269.549,1128.18,266.827,1135.906z
				 M196.06,1250.37c1.017,2.352,1.493,4.548,2.742,6.136c3.937,4.998,5.143,14.958,15.489,9.096
				c7.042,3.528,15.033-3.176,21.916,2.042c4.115-4.688,10.403,3.41,14.757-2.827c3.063-4.389,5.655-8.906,7.788-14.054
				c2.331,3.803,1.985,7.662,1.932,11.469c1.423,6.303-0.044,12.324-1.733,18.332c-1.385,4.927-3.769,5.456-7.369,1.839
				c-1.394-1.398-3.127-2.457-4.708-3.67c-0.395,0.044-0.774-0.013-1.143-0.163c-11.354,4.08-22.705,6.788-34.032-0.079
				c-1.246,0.097-2.49,0.198-3.732,0.295c-0.315,0.313-0.598,0.671-0.953,0.922c-9.296,6.582-10.902,5.889-12.602-6.024
				c-0.47-3.296-0.088-6.71-0.097-10.07C193.811,1259.28,194.378,1255.081,196.06,1250.37z M206.402,1153.272
				c-1.895-4.345-2.702-8.562-2.294-13.105c0.384-4.27,1.701-8.085,6.689-8.872c5.196-0.825,9.19,0.459,11.272,6.003
				c2.459,6.553,2.894,13.572,6.103,20.044c1.434-6.074,2.865-12.142,4.29-18.216c1.493-6.345,5.381-9.142,11.872-7.838
				c6.014,1.204,6.709,6.244,6.98,10.931c0.201,3.52-0.662,7.097-2.25,10.463c-7.735,16.357-7.382,31.987,3.482,47.205
				c17.213,24.115-3.062,49.646-22.686,54.758c-3.593,0.936-6.683-0.498-9.752-1.791c-22.911-9.629-30.367-34.185-16.407-54.625
				C213.651,1183.672,213.087,1168.6,206.402,1153.272z M249.157,1032.029c-3.522,2.002-7.337,3.735-10.341,6.36
				c-7.79,6.814-14.971,6.308-22.751-0.102c-3.774-3.11-8.35-5.347-12.788-7.521c-5.502-2.693-11.367-3.051-16.978-0.338
				c-3.18,1.542-5.97,1.807-9.325-0.924c12.88-5.231,0.166-8.873-0.686-13.93c13.083,0.794,24.317,6.047,34.8,12.527
				c18.711,11.569,14.596,11.724,32.934-0.177c5.329-3.463,12.823-3.999,16.947-7.34c5.858-4.751,11.934-2.397,18.14-5.941
				c-1.725,5.125-5.496,6.839-7.514,9.957c1.182,2.688,4.436,2.958,6.255,5.247c-2.651,1.716-4.936,2.506-8.019,0.975
				C262.823,1027.339,255.829,1028.24,249.157,1032.029z M111.551,1062.565c-0.018-0.037-0.04-0.063-0.059-0.097
				c0.24,1.769-0.347,2.878-2.259,3.37c-11.023,2.85-21.706,6.771-32.515,10.917c0.485-12.17,1.689-13.612,12.351-15.139
				c5.335-0.763,10.714-1.285,16.012-2.249c3.132-0.569,5.009,0.593,6.414,3.101c-0.004-0.026,0.002-0.047-0.002-0.073
				c0.022,0.012,0.04,0.029,0.059,0.04c-0.22-2.85,1.207-3.694,3.992-3.646c8.121,0.141,16.237,0.049,26.181,0.049
				c-10.077,2.063-18.53,3.791-26.979,5.533c-1.685,0.347-2.12-1.313-3.194-1.937
				C111.551,1062.482,111.547,1062.517,111.551,1062.565z M80.686,1059.936c3.311-11.718,3.313-11.918,17.293-11.777
				c3.143,0.033,8.496-2.894,9.274,2.867c0.875,6.444-5.443,3.728-8.374,4.755C93.27,1057.749,87.238,1058.52,80.686,1059.936z
				 M111.055,1051.141c0.243-2.024,0.9-3.216,3.328-3.176c7.869,0.125,15.694,0.573,23.455,2.531
				c-7.938,0.971-15.871,1.959-23.813,2.905C112.376,1053.598,110.742,1053.684,111.055,1051.141z M116.996,1042.573
				c-3.229,0.736-4.446-1.041-2.779-4.316c3.683-7.238,9.779-10.358,17.6-10.35c15.357,0.023,30.268,2.838,45.708,7.395
				c-4.775,3.985-6.76,8.751-6.861,15.281c-8.081-8.413-17.767-9.031-27.489-8.937
				C134.455,1041.735,125.706,1040.587,116.996,1042.573z M159.827,1025.245c-2.982-0.858-7.591,0.719-7.94-4.879
				c-0.251-4.061,2.477-4.155,5.154-4.548c5.666-0.829,2.922,4.389,4.887,5.759C161.289,1023.422,162.782,1026.093,159.827,1025.245
				z M324.87,1028.07c9.144,0.379,14.123,4.688,16.836,13.597c-18.83,1.539-38.736-4.905-56.975,7.657
				c-0.812-5.382-2.364-10.203-7.095-14.066C293.673,1030.732,308.995,1027.413,324.87,1028.07z M293.293,1022.982
				c0.82-2.629-0.527-6.891,3.967-7.111c2.697-0.137,6.097-0.121,6.159,4.266c0.075,5.789-5.046,3.58-6.721,4.733
				C293.348,1026.149,292.76,1024.707,293.293,1022.982z M340.162,1047.983c2.378-0.033,3.842,0.516,3.896,3.246
				c0.062,3.247-2.184,2.192-3.724,2.024c-8.213-0.882-16.404-1.879-25.98-2.997C323.793,1048.7,331.949,1048.084,340.162,1047.983z
				 M347.409,1051.674c0.128-2.419,0.984-3.76,3.622-3.67c5.606,0.19,11.266-0.151,16.801,0.534
				c6.104,0.754,4.071,7.058,7.291,11.46c-9.17-1.903-16.783-3.522-24.423-5.042
				C348.781,1054.568,347.269,1054.171,347.409,1051.674z M126.288,984.502c21.567-13.676,45.45-16.627,70.275-14.373
				c9.428,0.855,18.819,2.349,27.732,5.792c3.059,1.182,5.644,0.024,8.48-0.755c29.083-8.015,57.909-8.737,86.034,3.857
				c4.91,2.194,9.378,5.357,14.04,8.088c2.942,1.727,2.846,3.421,0.278,5.633c-4.094,3.524-8.703,4.669-13.872,3.632
				c-16.7-3.346-32.68-0.776-48.37,5.342c-8.182,3.191-16.609,5.736-24.913,8.621c-2.646,0.918-5.209,1.015-7.942,0.221
				c-3.888-1.129-7.948-2.978-8.211-6.982c-0.198-2.99,4.365-3.076,6.89-4.066c18.57-7.274,37.671-12.192,57.719-13.309
				c4.046-0.229,7.884,2.451,12.136,0.301c-0.803-3.593-3.926-2.991-6.304-3.391c-23.222-3.914-45.308,1.202-66.994,8.84
				c-4.058,1.432-7.472,1.394-11.542-0.042c-21.684-7.64-43.778-12.686-66.998-8.807c-2.565,0.431-5.082,1.123-7.68,1.707
				c0.962,2.155,2.426,2.525,4.116,2.343c25.226-2.732,48.339,5.388,71.419,13.795c3.999,1.456,3.58,3.522,1.198,5.756
				c-4.005,3.754-8.751,5.547-14.254,3.715c-8.334-2.779-16.74-5.41-24.926-8.584c-15.904-6.162-32.089-8.849-49.041-5.465
				c-2.161,0.432-4.561,0.443-6.713-0.009c-3.621-0.762-7.684-2.62-8.656-5.843C119.138,987.024,123.865,986.036,126.288,984.502z
				 M40.82,1063.923c13.079-31.021,30.731-55.518,61.38-68.396c0.397-0.168,0.966,0.009,1.319-0.201
				c3.911-2.347,8.595-4.664,12.591-3.854c5.068,1.025,1.33,7.992,5.569,11.308c-7.018,1.649-10.377-3.533-14.914-5.699
				c0,0,0,0-0.002,0c-0.52-0.084-1.045-0.172-1.574-0.258c0.236,0.458,0.463,0.915,0.694,1.369
				c4.508,9.914,12.397,15.624,22.816,18.017c-0.463,2.157-1.98,3.072-3.474,3.086c-11.934,0.092-15.778,8.455-17.448,17.965
				c-0.798,4.541-2.379,6.162-6.565,6.341c-2.693,0.112-5.381,0.527-8.052,0.927c-3.185,0.477-6.905,3.039-7.556-3.249
				c-0.223-2.147-3.297-1.755-5.8-1.782c2.726-6.054,7.739-9.783,12.706-13.647c-3.008-1.927-5.107,0.699-8.513,0.301
				c3.59-5.719,9.424-8.33,13.23-12.948c-21.397,7.729-36.62,22.478-48,42.369c3.121,1.087,5.754-1.921,9.38,0.149
				C52.84,1058.383,47.623,1060.788,40.82,1063.923z M140.666,1243.259c-1.487-1.244-3.231-3.365-5.229-1.954
				c-1.575,1.107-0.468,3.313,0.028,5.056c0.415,1.441,1.076,2.955-0.231,4.878c-14.547-14.054-22.207-31.403-25.795-51.822
				c-9.536,6.586-9.816,16.063-10.553,27.06c-8.742-12.519-13.471-24.855-15.855-38.179c-1.729-9.656-1.385-19.31,0.046-28.982
				c0.942-6.343-0.408-7.399-6.744-5.778c-7.088,1.813-11.442,6.844-15.127,12.708c-3.013,4.799-4.583,10.233-7.141,16.532
				c-4.996-11.854-6.992-23.365-7.298-35.05c-0.518-19.644,4.579-37.93,15.187-54.567c4.475-7.022,9.998-12.355,18.581-14.643
				c11.548-3.081,22.985-6.478,34.902-7.857c11.982-2.483,24.079-2.704,36.278-2.448c11.998,0.256,23.563,2.73,34.919,5.99
				c1.207-2.86-1.634-3.366-1.848-6.211c12.064,5.854,22.498,13.316,34.82,20.343c-13.831,3.035-25.751,3.591-37.402-2.703
				c-11.521-6.229-23.519-11.429-36.569-13.639c-2.428-0.41-4.929-0.592-7.393-0.559c-5.388,0.073-8.414,2.561-8.134,8.344
				c0.154,3.29,0.024,6.594,0.024,11.427c-3.736-6.43-7.349-3.871-11.027-1.621c-9.799,5.999-19.058,12.575-25.636,23.071
				c10.339,1.685,18.936,5.613,26.428,12.128c3.045,2.646,3.879,4.631,1.542,8.363c-3.683,5.891-6.583,12.258-8.795,19.617
				c5.562-0.152,8.773-4.863,13.521-5.447c3.454-1.935,6.912-3.866,11.246-6.292c-0.459,19.891,0.26,38.536,2.499,57.117
				c2.221,18.38,6.345,36.307,11.501,54.466C147.833,1249.483,144.311,1246.294,140.666,1243.259z M179.167,1261.441
				c-17.174-25.693-27.688-54.047-33.821-84.191c-5.951-29.262-7.508-58.822-6.824-88.594c0.135-5.928,2.682-8.394,8.275-7.635
				c7.516,1.023,15.18,1.729,21.622,6.436c12.095,5.425,14.49,10.025,11.903,22.383c-7.984,38.093-7.847,76.404-3.066,114.85
				c1.881,15.147,5.033,30.078,8.035,45.892C181.154,1268.097,181.048,1264.198,179.167,1261.441z M265.189,1312.295
				c-5.015,10.586-13.815,14.936-25.061,11.724c-8.575-2.443-16.641-2.408-25.207,0.005c-11.221,3.167-19.995-1.16-25.069-11.725
				c-2.323-4.834-3.873-10.03-5.99-15.659c5.522-0.793,10.22-1.451,14.966,1.796c3.955,2.699,8.498,2.85,13.524,2.448
				c10.169-0.803,20.491-0.711,30.676,0.035c4.513,0.326,8.778,0.432,12.271-2.021c4.949-3.476,10.079-3.065,16.051-2.519
				C269.242,1301.894,267.569,1307.262,265.189,1312.295z M290.311,1236.083c-3.743,7.813-7.155,15.915-13.222,22.399
				c-2.797,3.409-2.294,8.654-7.216,12.09c1.643-8.782,3.183-16.717,4.598-24.679c8.24-46.3,9.762-92.617-0.388-138.821
				c-1.63-7.408,0.724-12.177,6.303-16.142c2.36-1.681,4.962-3.013,7.455-4.504c6.473-3.442,13.559-4.627,20.704-5.459
				c4.397-0.509,7.653,0.913,7.803,6.008C317.843,1138.458,312.951,1188.846,290.311,1236.083z M400.818,1182.391
				c-2.554-6.707-4.649-13.365-8.84-19.036c-3.145-4.256-6.811-7.816-11.98-9.51c-7.251-2.382-9.228-0.906-7.987,6.422
				c3.727,22.179-1.354,42.509-12.545,61.621c-0.666,1.139-1.486,2.188-2.303,3.37c-2.541-1.565-1.297-3.798-1.411-5.549
				c-0.305-4.569-1.147-8.987-3.26-13.027c-1.346-2.569-3.044-6.233-5.818-6.05c-3.233,0.212-2.007,4.433-2.58,6.781
				c-3.573,14.744-9.872,28.029-19.96,39.423c-1.574,1.778-2.836,4.076-5.479,4.605c-0.212-0.278-0.472-0.477-0.449-0.631
				c0.467-3.286,4.371-7.371,0.794-9.541c-2.656-1.61-5.492,2.946-8.116,4.94c-2.643,2.007-4.248,5.258-8.553,6.841
				c13.034-36.314,16.268-73.331,15.204-111.483c4.46,1.453,7.948,3.272,11.151,5.691c0.71,0.098,1.557,0.045,1.239,1.195
				l0.154-0.432c3.67,1.614,7.349,3.229,12.024,5.284c-1.297-7.728-4.632-13.744-8.179-19.519c-2.519-4.1-1.936-6.59,1.756-9.529
				c7.543-6.002,15.831-10.105,26.28-11.542c-8.063-11.843-18.751-19.386-30.616-25.562c-0.401-0.207-0.975-0.642-1.217-0.507
				c-10.273,5.761-5.377-3.826-5.58-6.202c-0.648-7.878-1.562-9.445-9.823-8.974c-14.732,0.84-27.991,6.716-40.652,13.614
				c-12.08,6.583-24.293,6.462-38.382,3.242c11.876-7.201,22.729-13.782,33.878-20.544c1.143,3.531-2.512,3.679-3.116,6.788
				c24.196-7.333,48.4-8.378,72.819-4.1c12.99,1.76,25.609,5.037,38.07,9.029c4.473,1.434,8.02,3.888,11.099,7.34
				C408.652,1109.44,414.628,1154.604,400.818,1182.391z" />
			</g>
		</g>
	</g>
</svg>
