<?xml version="1.0" encoding="iso-8859-1"?>
<!-- Generator: Adobe Illustrator 18.0.0, SVG Export Plug-In . SVG Version: 6.00 Build 0)  -->
<!DOCTYPE svg PUBLIC "-//W3C//DTD SVG 1.1//EN" "http://www.w3.org/Graphics/SVG/1.1/DTD/svg11.dtd">
<svg version="1.1" id="Capa_1" xmlns="http://www.w3.org/2000/svg" xmlns:xlink="http://www.w3.org/1999/xlink" x="0px" y="0px"
	 viewBox="0 0 297 297" style="enable-background:new 0 0 297 297;" xml:space="preserve">
<g>
	<path d="M117.089,93.852c-30.133,0-54.648,24.515-54.648,54.648s24.515,54.648,54.648,54.648s54.648-24.515,54.648-54.648
		S147.221,93.852,117.089,93.852z M117.089,183.08c-19.068,0-34.58-15.512-34.58-34.58s15.512-34.58,34.58-34.58
		s34.58,15.512,34.58,34.58S136.157,183.08,117.089,183.08z"/>
	<path d="M117.089,130.376c-9.994,0-18.124,8.13-18.124,18.124s8.13,18.124,18.124,18.124s18.124-8.13,18.124-18.124
		S127.082,130.376,117.089,130.376z M117.089,150.444c-1.072,0-1.944-0.872-1.944-1.944s0.872-1.944,1.944-1.944
		c1.072,0,1.944,0.872,1.944,1.944S118.161,150.444,117.089,150.444z"/>
	<path d="M117.089,49.483c-46.654,0-85.87,32.436-96.295,75.94C9.127,126.632,0,136.519,0,148.5s9.127,21.868,20.793,23.077
		c10.426,43.504,49.641,75.94,96.295,75.94c53.948,0,97.952-43.369,98.992-97.073h70.885c5.541,0,10.034-4.493,10.034-10.034V59.517
		c0-5.541-4.493-10.034-10.034-10.034H117.089z M14.047,148.5c0-3.275,1.734-6.146,4.328-7.764c-0.2,2.563-0.303,5.152-0.303,7.764
		s0.104,5.202,0.303,7.764C15.782,154.646,14.047,151.775,14.047,148.5z M117.089,227.449c-43.533,0-78.949-35.416-78.949-78.949
		s35.416-78.949,78.949-78.949s78.949,35.416,78.949,78.949S160.622,227.449,117.089,227.449z M276.932,130.376h-62.495
		c-4.588-24.701-18.374-46.209-37.66-60.826h35.831c3.749,7.784,11.717,13.168,20.919,13.168c9.202,0,17.17-5.385,20.918-13.168
		h22.487V130.376z"/>
</g>
<g>
</g>
<g>
</g>
<g>
</g>
<g>
</g>
<g>
</g>
<g>
</g>
<g>
</g>
<g>
</g>
<g>
</g>
<g>
</g>
<g>
</g>
<g>
</g>
<g>
</g>
<g>
</g>
<g>
</g>
</svg>
