<?xml version="1.0" encoding="iso-8859-1"?>
<!-- Generator: Adobe Illustrator 18.0.0, SVG Export Plug-In . SVG Version: 6.00 Build 0)  -->
<!DOCTYPE svg PUBLIC "-//W3C//DTD SVG 1.1//EN" "http://www.w3.org/Graphics/SVG/1.1/DTD/svg11.dtd">
<svg version="1.1" id="Capa_1" xmlns="http://www.w3.org/2000/svg" xmlns:xlink="http://www.w3.org/1999/xlink" x="0px" y="0px"
	 viewBox="0 0 384.109 384.109" style="enable-background:new 0 0 384.109 384.109;" xml:space="preserve">
<g>
	<path d="M371.848,143.017c-22.417-41.964-69.673-62.321-114.02-52.648l-81.182,11.278c-1.106,0.154-2.174,0.512-3.148,1.056
		L4.615,196.986c-4.291,2.395-5.867,7.789-3.542,12.117l13,24.203c1.136,2.114,3.069,3.688,5.37,4.37l45.195,13.402
		c1.875,0.557,3.88,0.487,5.711-0.198l74.064-27.693c1.764,6.51,4.266,12.827,7.507,18.894
		c16.165,30.26,47.286,47.508,79.411,47.508c3.605,0,7.224-0.219,10.835-0.66c12.077,4.713,24.994,7.185,38.058,7.185
		c16.53,0,33.292-3.944,48.862-12.262C379.704,256.812,398.887,193.634,371.848,143.017z M204.13,232.61
		c-5.824-10.903-9.185-22.631-9.988-34.856c-0.187-2.84-1.705-5.425-4.096-6.969c-1.475-0.953-3.174-1.441-4.886-1.441
		c-1.063,0-2.13,0.188-3.151,0.57L71.424,231.26L60.89,211.542l178.604-95.408c41.861-22.362,94.112-6.499,116.477,35.365
		c22.362,41.862,6.498,94.113-35.364,116.476C278.741,290.336,226.491,274.473,204.13,232.61z M177.639,210.764
		c1.922,10.544,5.475,20.705,10.614,30.327c5.519,10.331,12.552,19.341,20.668,26.928c-17.033-5.55-32.036-17.409-41.123-34.42
		c-2.865-5.364-4.997-10.971-6.417-16.756L177.639,210.764z M68.612,181.874l52.787-29.469c0.038,0.003,0.074,0.01,0.111,0.012
		l10.645,0.649l-12.633,6.749L46.78,198.673l-7.275-0.55L68.612,181.874z M200.628,116.489l-38.219,20.416
		c-0.172-0.021-0.342-0.047-0.518-0.058l-11.382-0.694l30.288-16.909L200.628,116.489z M43.102,216.446l6.012,11.254l-20.958-6.215
		l-3.453-6.429L43.102,216.446z"/>
</g>
<g>
</g>
<g>
</g>
<g>
</g>
<g>
</g>
<g>
</g>
<g>
</g>
<g>
</g>
<g>
</g>
<g>
</g>
<g>
</g>
<g>
</g>
<g>
</g>
<g>
</g>
<g>
</g>
<g>
</g>
</svg>
