<svg version="1.1" id="Layer_1" xmlns="http://www.w3.org/2000/svg" xmlns:xlink="http://www.w3.org/1999/xlink" x="0px"
	y="0px" viewBox="0.14 841.445 800 800">
	<path fill="#8773B4" d="M621.5,1083.976c0-30.135-1.493-59.684-4.385-88.37c-7.345,0.514-14.735,0.746-22.246,0.746
	c-80.19,0-151.528-29.151-196.733-74.387c-45.259,45.236-116.543,74.387-196.786,74.387c-7.451,0-14.909-0.232-22.253-0.746
	c-2.895,28.687-4.395,58.235-4.395,88.37c0,240.715,95.729,441.95,223.434,490.459C525.779,1525.926,621.5,1324.69,621.5,1083.976
	L621.5,1083.976z" />
	<path fill="#FAE00B" d="M398.136,921.965c45.205,45.236,116.543,74.387,196.733,74.387c7.511,0,14.901-0.232,22.246-0.746
	c2.895,28.687,4.385,58.235,4.385,88.37c0,240.715-95.722,441.95-223.364,490.459c-127.703-48.509-223.434-249.744-223.434-490.459
	c0-30.135,1.5-59.684,4.395-88.37c7.342,0.514,14.802,0.746,22.253,0.746C281.593,996.352,352.877,967.2,398.136,921.965
	L398.136,921.965z M166.089,994.271L166.089,994.271c-3.01,29.788-4.45,59.746-4.45,89.703c0,108.509,19.357,223.782,65.034,322.814
	c33.699,73.046,88.848,150.265,166.785,179.868l4.679,1.787l4.626-1.787c77.972-29.603,133.069-106.822,166.83-179.868
	c45.675-99.032,64.993-214.306,64.993-322.814c0-29.957-1.46-59.915-4.401-89.703l-1.278-12.615l-12.651,0.871
	c-7.116,0.523-14.226,0.754-21.383,0.754c-67.229,0-139.09-22.206-187.489-70.568l-9.244-9.251l-9.252,9.251
	c-48.385,48.362-120.245,70.568-187.535,70.568c-7.105,0-14.224-0.23-21.329-0.754l-12.663-0.871L166.089,994.271z" />
	<path fill="#E00885" stroke="#333333" stroke-width="0.7519" stroke-miterlimit="10" d="M166.542,1274.966
	c-15.025,0.063-34.106,5.787-36.584,17.92c10.176,10.823,25.662,21.646,36.584,24.646V1274.966z" />
	<path fill="#E00885" stroke="#333333" stroke-width="0.7519" stroke-miterlimit="10" d="M593.191,1405.864
	c49.294-3.663,76.187-11.466,76.648-23.319c-24.613-6.189-50.461-11.979-74.338-16.765L593.191,1405.864z" />
	<path fill="#E00885" d="M416.632,903.461c45.861,45.868,114.521,66.751,178.237,66.751c6.818,0,13.687-0.231,20.521-0.692
	l25.26-1.74l2.527,25.217c3.029,30.196,4.524,60.615,4.524,90.979c0,110.408-19.766,227.538-66.257,328.293
	c-35.268,76.341-92.596,155.7-174.008,186.642l-9.3,3.525l-9.305-3.525c-81.397-30.941-138.805-110.301-174.004-186.642
	c-46.484-100.755-66.257-217.885-66.257-328.293c0-30.365,1.509-60.785,4.511-90.979l2.539-25.217l25.263,1.74
	c6.827,0.461,13.647,0.692,20.467,0.692c63.763,0,132.383-20.883,178.283-66.751l18.506-18.506L416.632,903.461z M140.065,991.662
	L140.065,991.662c-3.056,30.658-4.557,61.485-4.557,92.313c0,112.326,20.112,231.294,67.405,333.729
	c36.823,79.758,96.424,161.194,181.292,193.414l13.931,5.327l13.94-5.327c84.808-32.22,144.445-113.655,181.239-193.414
	c47.274-102.436,67.455-221.402,67.455-333.729c0-30.826-1.506-61.653-4.571-92.313l-3.816-37.822l-37.918,2.609
	c-6.542,0.461-13.086,0.631-19.596,0.631c-60.193,0-125.634-19.551-168.986-62.871l-27.748-27.764l-27.748,27.764
	c-43.351,43.319-108.854,62.871-169.039,62.871c-6.543,0-13.07-0.17-19.597-0.631l-37.87-2.609L140.065,991.662z" />
	<path fill="#7C95CC" d="M407.38,912.712c48.338,48.362,120.261,70.567,187.489,70.567c7.112,0,14.269-0.23,21.382-0.754l12.654-0.87
	l1.278,12.614c2.248,22.785,3.631,45.63,4.17,68.476c0.171,7.066,0.231,14.17,0.231,21.229c0,2.956,0,5.842,0,8.736
	c-0.124,10.006-0.368,20.012-0.831,30.012c-0.4,10.013-0.953,20.02-1.786,30.018c-1.554,20.893-3.863,41.828-6.989,62.642
	c-6.822,45.236-17.287,89.987-31.958,132.815c-3.604,10.452-7.468,20.813-11.578,30.988c-3.756,9.329-7.683,18.521-11.853,27.603
	c-0.509,1.078-1.048,2.186-1.554,3.28c-4.79,10.235-10.068,20.597-15.719,30.833c-34.1,61.762-83.718,120.707-149.557,145.754
	l-4.626,1.787l-4.626-1.787c-65.727-24.986-115.211-83.761-149.379-145.37c-5.665-10.237-10.87-20.521-15.672-30.757
	c-0.631-1.264-1.208-2.481-1.787-3.741c-4.109-8.929-7.982-17.936-11.685-27.141c-4.095-10.177-7.966-20.475-11.561-30.958
	c-14.217-41.241-24.509-84.376-31.334-127.865c-3.519-22.677-6.128-45.405-7.86-68.083c-0.748-9.998-1.323-20.004-1.787-30.018
	c-0.408-10-0.639-20.006-0.754-30.012c-0.055-2.895-0.055-5.78-0.055-8.736c0-7.059,0.109-14.164,0.231-21.229
	c0.578-22.846,1.962-45.692,4.219-68.476l1.27-12.614l12.663,0.87c7.105,0.523,14.224,0.754,21.329,0.754
	c67.29,0,139.15-22.205,187.535-70.567l9.252-9.251L407.38,912.712z M594.87,970.212L594.87,970.212
	c-63.719,0-132.376-20.883-178.237-66.751l-18.496-18.506l-18.504,18.506c-45.898,45.868-114.574,66.751-178.284,66.751
	c-6.82,0-13.64-0.231-20.467-0.692l-25.262-1.74l-2.539,25.217c-2.309,23.199-3.763,46.452-4.28,69.751
	c-0.176,7.067-0.23,14.17-0.23,21.229c0,2.957,0,5.842,0.055,8.737c0.061,10.007,0.362,20.013,0.754,30.012
	c0.4,10.013,0.978,20.02,1.741,30.019c3.402,45.29,10.291,90.819,20.974,135.249c5.096,20.979,11.054,41.671,17.988,61.975
	c3.524,10.424,7.289,20.768,11.33,30.959c4.103,10.391,8.498,20.705,13.169,30.819c0.07,0.17,0.131,0.339,0.246,0.523
	c4.611,10.021,9.645,20.139,15.017,30.143c35.676,66.196,88.278,129.606,158.986,156.499l9.306,3.525l9.3-3.525
	c70.822-26.953,123.485-90.533,159.216-156.961c5.325-9.852,10.222-19.797,14.792-29.681c0.187-0.354,0.312-0.693,0.479-1.046
	c4.666-10.114,9.021-20.396,13.115-30.833c4.034-10.178,7.806-20.521,11.33-30.93c7.237-21.291,13.347-42.966,18.612-64.949
	c10.239-43.258,16.843-87.694,20.123-131.77c0.754-9.999,1.336-20.004,1.799-30.018c0.401-10,0.632-20.006,0.739-30.014
	c0-2.894,0.061-5.779,0.061-8.735c0-7.059-0.107-14.163-0.291-21.229c-0.509-23.299-1.895-46.552-4.234-69.751l-2.524-25.217
	l-25.263,1.74C608.556,969.98,601.688,970.212,594.87,970.212L594.87,970.212z" />
	<path fill="#5B2F21" d="M129.727,1366.854c0,0,322.329-337.129,358.367-373.398c19.197-19.257,32.881-26.601,57.974-24.4
	c19.535,1.731,111.119,9.829,117.291,10.346c6.143,0.577,2.554,49.517-4.325,48.939c-6.882-0.646-83.547-8.506-113.95-11.224
	c-30.404-2.67-45.658-2.895-59.929,10.061c-14.303,12.956-345.26,348.283-345.26,348.283L129.727,1366.854z" />
	<path fill="#FFFFFF" d="M613.142,1023.713l9.467-30.665l-2.769,31.529l18.271,1.562l4.264-48.593
	c-10.976-1.731-21.845-1.901-33.005-2.886l-14.563,47.253L613.142,1023.713z M585.787,1020.989l14.565-47.137l-18.367-1.624
	l-14.531,47.03L585.787,1020.989z M558.261,1018.325l14.518-46.905l-18.443-1.617l-14.44,46.906L558.261,1018.325z" />
	<path fill="#5B2F21" d="M671.225,1366.854c0,0-328.009-337.129-364.655-373.398c-19.543-19.257-33.475-26.601-58.968-24.4
	c-19.952,1.731-113.133,9.829-119.384,10.346c-6.305,0.577-2.595,49.517,4.396,48.939c6.989-0.646,84.977-8.506,115.912-11.224
	c30.99-2.67,46.538-2.895,61.099,10.061c14.51,12.954,351.254,348.283,351.254,348.283L671.225,1366.854z" />
	<path fill="#FFFFFF" d="M179.328,1023.713l-9.66-30.665l2.841,31.529l-18.619,1.562l-4.342-48.593
	c11.161-1.731,22.261-1.901,33.599-2.886l14.794,47.253L179.328,1023.713z M207.131,1020.989l-14.794-47.137l18.728-1.624
	l14.747,47.03L207.131,1020.989z M235.163,1018.325l-14.74-46.905l18.736-1.617l14.685,46.906L235.163,1018.325z" />
	<g>
		<path fill="#73BF44" stroke="#00A3D3" stroke-width="0.4049" stroke-miterlimit="10" d="M486.307,1182.769
		c-28.219,0.162-57.88,29.673-64.347,55.59C436.398,1259.973,485.721,1189.181,486.307,1182.769z" />
		<path fill="#73BF44" stroke="#00A3D3" stroke-width="0.4049" stroke-miterlimit="10" d="M374.259,1238.358
		c-6.474-25.917-36.131-55.428-64.332-55.59C310.49,1189.181,359.813,1259.973,374.259,1238.358z" />
	</g>
	<path fill="#FFFFFF" d="M414.146,1036.43c-9.307-1.732-19.313-1.847-30.467,0c-70.005,8.798-118.912,50.271-118.912,131.468
	c3.471,38.117,66.203,167.322,127.473,176.067h9.43c56.188-7.007,124.525-113.427,129.835-176.813
	C531.504,1092.304,482.147,1044.003,414.146,1036.43z M309.927,1182.769c28.201,0.162,57.858,29.673,64.332,55.59
	C359.813,1259.973,310.49,1189.181,309.927,1182.769z M421.96,1238.358c6.467-25.917,36.128-55.428,64.347-55.59
	C485.721,1189.181,436.398,1259.973,421.96,1238.358z" />
	<path fill="#E00885" d="M671.858,1386.36c4.526-40.211,4.526-68.83,0-86.071c-233.549-82.822-356.514,129.913-542.417-10.453
	c-3.356,25.847-3.356,54.526,0,85.978C315.344,1516.197,438.309,1303.478,671.858,1386.36L671.858,1386.36z" />
	<path fill="#333333" d="M192.674,1328.339c139.79,53.327,251.885-72.754,427.042-39.655c2.969,0.569,5.848,1.154,8.789,1.772
	c2.94,0.646,5.909,1.337,8.852,2.029c2.878,0.754,5.821,1.509,8.79,2.311c8.422,2.31,16.981,4.956,25.711,8.098
	c2.2,8.329,3.354,19.365,3.432,33.082c0,0,0,0,0-0.062c0.061-14.856-1.125-26.771-3.432-35.624
	c-8.729-3.077-17.289-5.787-25.711-8.099c-2.969-0.815-5.912-1.553-8.79-2.246c-2.942-0.771-5.911-1.386-8.852-2.031
	c-2.941-0.616-5.82-1.278-8.789-1.788c-175.157-33.081-287.252,93-427.042,39.611c-2.886-1.094-5.826-2.325-8.79-3.587
	c-2.886-1.279-5.827-2.602-8.784-3.987c-2.885-1.447-5.834-2.94-8.781-4.512c-12.03-6.464-24.339-14.362-36.877-23.813
	c-1.748,13.288-2.556,27.34-2.493,42.164c0-13.839,0.861-27.094,2.493-39.625c12.538,9.483,24.847,17.396,36.877,23.8
	c2.948,1.648,5.896,3.08,8.781,4.527c2.957,1.446,5.896,2.787,8.784,4.065C186.848,1326.029,189.789,1327.185,192.674,1328.339
	L192.674,1328.339z" />
	<path fill="#333333" d="M619.716,1368.317c-175.157-33.143-287.252,92.999-427.042,39.625c-2.886-1.153-5.826-2.31-8.79-3.587
	c-2.886-1.294-5.827-2.617-8.784-4.05c-2.885-1.415-5.834-2.907-8.781-4.464c-12.03-6.48-24.339-14.332-36.877-23.878
	c-1.57-14.547-2.378-28.525-2.493-41.887c0,0,0,0,0,0.077c0,0.568,0,1.186,0,1.848l0,0c0,13.995,0.861,28.558,2.493,43.813
	c12.538,9.498,24.847,17.364,36.877,23.845c2.948,1.542,5.896,3.064,8.781,4.509c2.957,1.386,5.896,2.773,8.784,4.006
	c2.963,1.26,5.904,2.479,8.79,3.569c139.79,53.405,251.885-72.707,427.042-39.624c2.969,0.586,5.848,1.154,8.789,1.801
	c2.94,0.647,5.909,1.309,8.852,2.03c2.878,0.74,5.821,1.495,8.79,2.311c8.422,2.25,16.981,4.973,25.711,8.099
	c2.2-19.506,3.354-36.284,3.432-50.386c0,0,0,0,0-0.062c0-0.57,0-1.202-0.078-1.834c-0.093,13.688-1.278,29.82-3.356,48.386
	c-8.727-3.109-17.286-5.773-25.711-8.084c-2.969-0.798-5.911-1.567-8.79-2.261c-2.939-0.724-5.908-1.446-8.851-2.08
	C625.564,1369.411,622.685,1368.826,619.716,1368.317L619.716,1368.317z" />
	<path fill="#111111" d="M433.519,1489.61c-0.582,6.636-7.002,15.549-15.271,20.044c-17.45,9.559-42.781,5.157-51.964-11.731
	l-1.215-2.201c-1.092-1.956-2.256-5.957-1.901-7.512c0.63,2.355,0.808,4.401,2.239,7.004l1.224,2.201
	c8.729,15.949,34.399,20.735,50.694,11.777l0.755-0.385c7.342-4.002,11.438-9.421,13.945-14.932
	c2.064-4.617,3.05-13.022-0.291-19.075l-1.864-3.432c-4.448-8.206-15.955-13.655-22.666-14.733
	c-8.43-1.401-17.559-1.923-27.919,3.817l-0.978,0.507c-9.598,5.22-15.725,15.457-15.371,23.494
	c0.277,8.56-2.725,19.135,2.364,28.571l0.293,0.462c8.613,15.734,34.159,21.521,49.77,12.932l4.181-2.216
	c6.051-3.311,11.329-10.946,12.652-15.749c1.154-3.943,1.031-5.204,1.201-9.269c0-1.615,0.124-3.233,0.188-4.847
	c0-0.862,0-1.496,0.044-2.42c0-0.354,0.063-0.891,0.123-1.23c0-0.152,0.061-0.462,0.061-0.585c0-0.108,0.231-0.338,0.11-0.383
	L433.519,1489.61z" />
	<path fill="#989798" stroke="#989798" stroke-width="0.4049" stroke-miterlimit="10" d="M397.738,977.199
	c29.133-5.141,53.302-5.549,53.934-0.861c0.693,4.635-22.443,12.607-51.57,17.766c-29.134,5.142-53.303,5.55-53.996,0.924
	C345.473,990.338,368.534,982.357,397.738,977.199L397.738,977.199z" />
	<path fill="#989798" stroke="#989798" stroke-width="0.4049" stroke-miterlimit="10" d="M398.598,965.123
	c10.244,0,18.56,6.125,18.56,13.646c0,7.574-8.313,13.7-18.56,13.7c-10.292,0-18.611-6.126-18.611-13.7
	C379.987,971.248,388.308,965.123,398.598,965.123L398.598,965.123z" />
	<path fill="none" stroke="#989798" stroke-width="2.0243" stroke-miterlimit="10" d="M424.561,988.769l7.636,8.675 M378.131,997.212
	l-4.626,10.591 M379.463,959.966l8.959,7.351 M404.38,965.755l5.133-11.454 M400.099,994.102l3.242,12.247" />
	<path fill="#73BF44" d="M309.466,1386.36l7.049-1.387c-0.062-6.311-0.408-11.854-1.056-16.656c-0.577-4.817-1.37-8.79-2.424-11.977
	c-1.094,3.588-1.955,7.929-2.548,12.947C309.927,1374.306,309.564,1380.003,309.466,1386.36L309.466,1386.36z M295.109,1412.608
	v-13.023c0-12.532,0.939-23.23,2.793-32.145c1.833-8.897,4.734-16.764,8.668-23.6l12.938-2.542c3.933,5.39,6.89,12.149,8.736,20.353
	c1.849,8.157,2.772,18.505,2.772,31.003v13.008l-14.502,2.771v-10.929l-7.049,1.354v10.979L295.109,1412.608z M338.191,1336.729
	l14.163-3.802v53.895l14.741-3.923v12.653l-28.903,7.742L338.191,1336.729L338.191,1336.729z M371.604,1327.707l13.979-4.525v66.596
	l-13.979,4.558V1327.707z M394.834,1387.561v-66.565l28.679-8.789v12.67l-14.632,4.448v11.331l14.107-4.28v12.546l-14.107,4.298
	v17.408l15.265-4.695v12.669L394.834,1387.561z M430.611,1309.435l13.191-3.525c1.386,1.895,2.725,4.094,4.05,6.696
	c1.386,2.617,2.709,5.496,3.971,8.698v-17.55l14.133-3.804v66.628l-14.133,3.758v-13.07c0-5.604-0.553-10.883-1.724-15.81
	c-1.215-4.85-2.939-9.345-5.249-13.409v44.151L430.611,1376V1309.435L430.611,1309.435z M496.945,1315.484v-3.802
	c0-2.078-0.354-3.541-1.048-4.341c-0.77-0.848-1.86-1.153-3.371-0.848c-1.091,0.231-2.018,0.723-2.711,1.493
	c-0.692,0.816-0.967,1.739-0.967,2.834c0,2.14,3.4,5.264,10.346,9.543c1.323,0.738,2.308,1.4,3,1.787
	c3.02,1.849,5.158,4.049,6.483,6.729c1.26,2.661,1.955,6.11,1.955,10.467c0,6.466-1.496,11.563-4.559,15.304
	c-3.017,3.817-7.573,6.311-13.652,7.526c-6.237,1.217-10.871,0.524-13.81-1.956c-2.942-2.57-4.389-7.128-4.389-13.777v-8.097
	l14.627-2.832v7.404c0,2.617,0.275,4.465,0.86,5.511c0.631,0.954,1.615,1.385,2.956,1.154c1.092-0.231,1.908-0.816,2.524-1.848
	c0.602-0.956,0.939-2.279,0.939-3.835c0-2.14-0.461-3.986-1.401-5.557c-0.921-1.509-2.893-3.232-5.834-5.31
	c-0.463-0.339-1.202-0.802-2.187-1.462c-8.268-5.544-12.425-11.394-12.425-17.506c0-5.387,1.557-9.853,4.666-13.314
	c3.2-3.54,7.635-5.835,13.406-6.99c6.373-1.217,10.933-0.754,13.718,1.493c2.711,2.263,4.094,6.715,4.094,13.363v4.294
	L496.945,1315.484z" />
</svg>
