<svg version="1.1" baseProfile="basic" id="Layer_1" xmlns="http://www.w3.org/2000/svg"
	xmlns:xlink="http://www.w3.org/1999/xlink" x="0px" y="0px" viewBox="0.5 800.5 800 800" xml:space="preserve">
	<path fill="#BDBEBF" d="M488.814,1069.601c5.05,9.534,11.882,17.164,21.364,22.188c10.951-5.797,23.752-13.474,40.396-13.474h4.763
	c8.312,0,15.066,1.592,21.846,3.484c3.884,1.09,17.911,7.612,18.533,7.612c3.587,0,85.637-39.56,92.979-44.069
	c22.008-13.508,70.969-34.899,70.969-66.91v-4.746c0-17.279-11.912-60.005-19.014-68.171c-0.266,12.272-6.166,32.989-8.543,43.768
	c-2.764,12.654-9.509,26.566-16.131,35.367c-15.533,20.614-42.871,25.441-67.192,36.589c-9.955,4.563-27.45,10.26-38.658,13.629
	c-5.879,1.76-13.187,4.309-19.661,6.488c-6.013,2.009-13.805,3.905-19.327,6.017c-12.281,4.711-27.003,8.65-39.718,12.556
	c-8.539,2.625-32.86,10.624-40.246,11.246L488.814,1069.601z" />
	<path fill="#FEFEFE"
		d="M47.674,1161.539c1.914,1.412,14.079,19.281,18.807,23.987c5.381,5.347,16.727,17.233,26.334,17.233h2.378
	c16.812,0,107.396-42.206,125.131-50.721c3.668-6.942,13.272-22.884,13.456-31.715c-7.14,1.66-23.029,8.247-30.638,11.346
	c-9.924,4.059-20.532,7.261-30.44,10.744c-11.229,3.94-51.994,19.125-63.258,19.125h-3.171c-9.535,0-27.153-24.136-33.439-30.723
	c-5.06-5.313-11.029-10.307-15.204-16.508c-2.446-3.64-10.272-17.972-12.333-19.344c-4.209,2.814-3.956,12.169-3.956,19.021v3.171
	L47.674,1161.539z M319.318,1194.044c5.698,0,21.386-14.129,21.386-18.236c0-1.043-7.359-6.338-1.575-6.338h0.79
	c5.883,0,8.715,5.213,8.715,11.097v1.592c0,18.722-16.546,45.957-34.847,45.957h-2.382c-9.002,0-15.838-8.616-15.838-17.434v-0.782
	c0-10.058,7.123-25.359,15.838-25.359c0.42,0,1.742,1.137,2.382,1.575c0,3.57,0.571,7.929,3.956,7.929H319.318L319.318,1194.044z
	 M303.475,1100.509c0-8.063,10.745-24.608,15.254-29.132c6.171-6.205,20.083-12.088,32.269-12.088
	c-6.84,4.762-6.574,3.806-12.856,10.109c-4.445,4.424-6.419,7.908-10.243,12.735c-4.175,5.248-15.22,23.923-22.043,23.923
	c-1.827,0-2.381-0.554-2.381-2.381V1100.509L303.475,1100.509z M398.517,1277.26c1.76-6.564,4.759-6.732,4.759-18.22v-1.587
	c0-14.041-3.42-29.08-7.205-39.546c-1.777-4.905-4.308-11.023-6.454-16.538c-1.694-4.342-5.853-11.401-6.942-16.044
	c-9.834-14.179-9.482-31.711-34.041-31.711c-7.977,0-17.851,2.111-24.304,4.223c-4.292,1.407-18.405,6.673-20.854,6.874
	c2.716-10.175,25.901-18.189,26.668-19.293c3.385-4.827,4.579-9.238,8.5-14.469c1.926-2.563,8.479-9.102,10.977-11.213
	c9.102-7.759,22.833-8.634,30.106-15.838c6.956-6.926,14.044-17.786,14.044-31.127v-1.593c0-15.923-11.277-19.812-27.72-19.812
	c-18.491,4.309-27.326,2.377-48.309,2.377c-16.863,0-40.111,12.942-52.281,19.027c-12.873,6.419-12.371,5.917-10.208,22.106
	c1.107,8.214,4.51,23.268,4.677,30.205l-27.673,51.544l49.849-7.157c-2.9,3.938-28.745,14.413-35.753,16.542
	c-6.822,2.081-12.723,4.308-20.013,6.137c-4.995,1.257-19.478,1.759-19.478,6.654v4.742c0,10.389,22.24,57.071,29.299,57.071
	c0.184,0,19.76-5.845,21.922-6.587c4.459-1.52,18.272-3.901,23.25-4.477c16.512-1.904,34.782-3.2,53.037-3.2
	c8.179,0,20.919,0.519,28.325,1.775c9.354,1.593,16.01,4.498,23.15,6.163v-8.724c0-1.824,0.553-2.378,2.378-2.378h0.789
	c5.295,0,10.294,5.63,10.294,11.102c0,5.917-3.823,12.684-9.488,12.684c-0.99,0-12.923-6.02-19.193-6.952
	c-7.642-1.161-15.941-1.775-24.373-1.775h-13.456c-18.894,0-35.706,2.274-51.665,4.587c-7.106,1.017-44.97,7.711-44.97,11.264
	c0,7.437,3,21.399,11.097,21.399h5.531c11.581,0,24.939-4.922,34.916-6.27c10.994-1.484,25.442-4.235,36.372-4.827
	C331.856,1283.989,396.268,1278.351,398.517,1277.26L398.517,1277.26z M488.814,1069.601l2.369,1.574
	c7.384-0.622,31.705-8.616,40.245-11.246c12.714-3.905,27.437-7.845,39.718-12.556c5.522-2.111,13.315-4.008,19.326-6.017
	c6.476-2.18,13.783-4.732,19.662-6.488c11.204-3.369,28.698-9.066,38.657-13.629c24.34-11.147,51.66-15.975,67.194-36.589
	c6.62-8.801,13.366-22.713,16.13-35.367c2.364-10.778,8.281-31.495,8.543-43.768c-2.558-11.028-30.071-54.055-39.585-56.286v2.382
	c0,10.29,3.956,15.152,3.956,24.57c0,8.351-0.721,16.83-0.823,23.755c-0.133,9.42-1.356,16.075-1.558,23.013
	c-0.536,19.19-5.291,24.489-18.734,31.192c-21.765,10.847-45.76,21.789-68.696,31.11c-23.673,9.624-45.995,19.661-69.84,29.183
	c-12.144,4.844-23.306,9.586-35.418,14.482c-5.819,2.364-11.952,4.406-17.491,7.089c-5.205,2.515-6.814,11.35-6.814,18.524v1.593
	C485.647,1061.876,487.801,1065.262,488.814,1069.601L488.814,1069.601z M571.97,1120.324c10.766,0,20.034-4.106,27.729-4.759
	v-1.579c-5.013-0.416-10.342-2.377-15.058-2.377h-18.22c-6.23,0-21.399,2.329-23.746,5.548l24.467,3.666L571.97,1120.324z" />
	<path fill="#7D241E" d="M453.156,1117.157v4.755l-4.687,3.236c-19.413-0.07-27.725,4.071-43.94,6.753
	c-7.544,1.24-13.341,2.85-20.734,4.592c-2.699,0.64-20.065,4.446-20.918,4.446h-3.167c-3.84,0-6.338-2.515-6.338-6.356v-0.784
	c0-2.197,2.583-3.823,3.956-4.764c18.739,0,35.62-25.493,43.717-37.881c5.128-7.845,11.229-16.929,20.7-20.517
	c5.75-2.179,23.12-12.203,29.836-8.968l2.382,2.381l0.888,5.531c2.905,4.493,11.783,11.802,11.783,19.04v2.365
	c0,7.96-9.912,19.828-15.834,21.403l2.193,2.549L453.156,1117.157z M366.052,1051.363c16.443,0,27.72,3.888,27.72,19.812v1.592
	c0,13.341-7.088,24.202-14.044,31.127c-7.273,7.204-21.004,8.081-30.106,15.839c-2.497,2.111-9.05,8.65-10.977,11.213
	c-3.922,5.23-5.115,9.642-8.5,14.469c-0.768,1.103-23.952,9.119-26.668,19.292c2.45-0.201,16.563-5.467,20.854-6.874
	c6.454-2.11,16.327-4.222,24.304-4.222c24.558,0,24.206,17.533,34.041,31.711c2.935-1.305,30.235,25.424,34.263,29.899
	c5.717,6.342,7.732,13.594,15.638,17.648c7.467,3.823,14.77,7.141,26.132,7.141c18.495,0,34.032-5.832,44.837-13.771
	c11.183-8.222,16.147-23.488,16.147-42.515v-4.76c0-11.949-5.429-37.478-9.509-45.171l-0.948-7.11
	c-0.52-4.609,8.994-11.933,12.354-13.979c5.9-3.601,11.817-5.129,18.589-7.557c16.645-6.004,22.609-6.235,45.249-6.235
	c-4.219-3.673-19.589-7.128-27.716-7.128h-3.956c-27.479,0-46.665,19.816-49.103,19.816c-13.805,0-40.392-38.083-40.392-52.316
	v-7.141c0-6.118,1.923-9.771,2.382-15.053c-6.18-3.282-21.558-8.715-30.887-8.715h-3.961c-14.667,0-24.257,7.493-34.8,9.573
	C395.582,1038.221,367.489,1050.458,366.052,1051.363L366.052,1051.363z M382.675,1185.325c1.09,4.643,5.248,11.702,6.942,16.044
	c2.146,5.515,4.677,11.638,6.454,16.538c3.785,10.461,7.205,25.502,7.205,39.546v1.587c0,11.488-2.999,11.655-4.759,18.22
	c17.443,0,36.938-6.251,53.861-7.123c6.415-0.33,19.662-3.402,26.192-4.693c8.433-1.675,17.637-2.348,26.017-4.09
	c14.298-2.961,12.933,0.67,19.846-11.063c3.446-5.861,7.677-13.259,10.839-19.232c3.498-6.625,18.478-35.86,18.478-42.563v-1.592
	c0-6.304-37.619-49.132-43.571-53.102c4.082,7.693,9.51,33.221,9.51,45.172v4.758c0,19.027-4.961,34.295-16.148,42.517
	c-10.809,7.938-26.347,13.77-44.836,13.77c-11.358,0-18.666-3.316-26.133-7.141c-7.903-4.055-9.921-11.311-15.636-17.648
	C412.909,1210.749,385.61,1184.017,382.675,1185.325L382.675,1185.325z M452.378,1062.464l1.588,1.593v5.543
	c-3.566,5.33-24.523,7.908-29.312,15.049c3.11,4.66,5.44,4.596,8.414,11.401c1.626,3.737,3.965,12.771,1.905,17.246l8.677-0.905
	h3.974c2.27,0,4.329,3.355,5.531,4.763l-0.163-2.219l-2.193-2.548c5.927-1.575,15.834-13.444,15.834-21.405v-2.364
	c0-7.238-8.878-14.546-11.783-19.038l-0.888-5.531l-2.382-2.382L452.378,1062.464z" />
	<path fill="#BDBEBF" d="M47.674,1161.539c0.253,11.702,15.289,43.311,21.051,51.06c9.96,13.393,21.039,27.42,43.885,27.42h3.167
	c16.426,0,26.248-3.57,39.61-5.548c9.702-1.434,27.754-8.548,35.632-8.716c-0.502-5.934-4.758-8.81-4.758-19.829v-5.552
	c0-12.586,8.397-19.863,16.88-24.322c7.678-4.02,6.235-2.814,10.055-10.543c2.163-4.373,4.762-9.015,7.127-13.474
	c-17.735,8.514-108.319,50.72-125.131,50.72h-2.378c-9.607,0-20.953-11.886-26.334-17.232
	C61.753,1180.82,49.588,1162.951,47.674,1161.539L47.674,1161.539z" />
	<path fill="#050605" d="M381.889,1541.459c-32.114,0-89.004-31.461-101.375-49.93h28.509c22.06,14.778,44.606,29.333,81.581,29.333
	h4.746c38.032,0,60.509-14.147,83.156-29.333h29.316c-6.252,9.342-32.453,25.913-43.833,32.229
	c-11.767,6.54-41.034,17.7-58.354,17.7H381.889z M272.803,1518.262c7.896,7.844,21.755,17.289,31.479,23.197
	c19.713,12.003,53.135,25.364,84.73,25.364h6.337c33.372,0,65.705-12.241,86.658-25.042c12.855-7.856,21.086-13.731,31.926-23.52
	c3.586-3.234,26.836-26.729,28.736-26.729h121.96v-15.074H122.9v15.074h121.191C245.649,1491.529,269.718,1515.193,272.803,1518.262
	L272.803,1518.262z M285.273,1024.411c12.907-2.999,20.318-6.333,37.211-6.333h14.263c11.938,0,16.028,1.188,25.614-3.708
	c7.261-3.686,13.56-6.351,21.356-9.534c12.521-5.114,33.625-12.118,50.437-12.118c19.889,0,30.037,6.956,44.352,10.29
	c-13.68-11.898-50.707-30.119-76.037-30.119H390.6c-23.232,0-46.682,8.227-61.517,16.911
	C315.477,997.76,293.421,1012.225,285.273,1024.411L285.273,1024.411z M188.643,1102.89l30.102-11.096
	c0-12.672,0.755-25.459,5.531-33.304c5.484-9.02,18.94-13.023,21.893-16.914c12.958-17.113,20.601-27.558,35.735-42.727
	c21.927-21.957,65.189-48.154,108.701-48.154h8.702c20.262,0,46.746,9.136,60.727,16.121c9.269,4.644,15.971,9.424,24.026,14.805
	c8.324,5.549,14.657,12.921,21.295,17.211l23.842-9.303c-1.017-3.888-20.641-20.095-25.008-23.313
	c-10.376-7.63-18.341-12.672-30.166-18.941c-20.117-10.663-46.815-20.348-77.072-20.348h-13.46
	c-25.377,0-54.024,12.486-71.558,21.134c-20.851,10.276-37.045,24.522-52.6,40.095c-15.821,15.825-28.595,32.483-40.748,51.947
	C213.149,1048.819,188.862,1093.051,188.643,1102.89L188.643,1102.89z M220.324,1152.039c-2.365,4.458-4.965,9.102-7.127,13.474
	c-3.819,7.729-2.377,6.522-10.055,10.544c-8.483,4.458-16.88,11.735-16.88,24.321v5.544c0,11.021,4.274,13.894,4.758,19.829
	c-7.878,0.167-25.931,7.281-35.632,8.715c-13.363,1.979-23.185,5.549-39.61,5.549h-3.167c-22.846,0-33.925-14.028-43.885-27.42
	c-5.762-7.75-20.798-39.357-21.051-51.059l-6.334-44.379v-3.171c0-6.853-0.253-16.207,3.956-19.021
	c2.06,1.372,9.887,15.704,12.333,19.344c4.175,6.201,10.145,11.195,15.204,16.508c6.286,6.587,23.904,30.723,33.439,30.723h3.171
	c11.264,0,52.029-15.185,63.258-19.125c9.908-3.483,20.516-6.686,30.44-10.744c7.609-3.099,23.498-9.686,30.638-11.346
	C233.596,1129.155,223.992,1145.097,220.324,1152.039L220.324,1152.039z M571.97,1120.324l-4.828,0.502l-24.467-3.664
	c2.347-3.219,17.516-5.549,23.746-5.549h18.22c4.716,0,10.045,1.961,15.058,2.377v1.58
	C592.004,1116.218,582.732,1120.324,571.97,1120.324L571.97,1120.324z M510.178,1133.803c5.957,3.97,43.571,46.798,43.571,53.102
	v1.592c0,6.702-14.976,35.938-18.478,42.563c-3.162,5.978-7.397,13.371-10.839,19.232c-6.913,11.732-5.548,8.102-19.846,11.063
	c-8.38,1.742-17.589,2.415-26.017,4.09c-6.53,1.291-19.777,4.363-26.192,4.693c-16.92,0.872-36.413,7.123-53.861,7.123
	c-2.249,1.091-66.661,6.729-74.44,7.141c-10.93,0.593-25.377,3.343-36.372,4.827c-9.977,1.344-23.334,6.271-34.916,6.271h-5.531
	c-8.097,0-11.097-13.964-11.097-21.4c0-3.553,37.864-10.247,44.97-11.264c15.958-2.313,32.771-4.587,51.665-4.587h13.456
	c8.432,0,16.731,0.614,24.373,1.776c6.27,0.932,18.203,6.951,19.193,6.951c5.665,0,9.488-6.767,9.488-12.684
	c0-5.472-5-11.102-10.294-11.102h-0.789c-1.825,0-2.378,0.554-2.378,2.378v8.724c-7.14-1.665-13.795-4.566-23.15-6.163
	c-7.406-1.257-20.146-1.775-28.325-1.775c-18.254,0-36.525,1.296-53.037,3.2c-4.978,0.576-18.791,2.953-23.25,4.477
	c-2.163,0.742-21.738,6.587-21.922,6.587c-7.059,0-29.299-46.683-29.299-57.071v-4.742c0-4.895,14.482-5.397,19.477-6.654
	c7.291-1.829,13.191-4.056,20.014-6.136c7.008-2.13,32.853-12.608,35.753-16.543l-49.849,7.157l27.673-51.544
	c-0.167-6.938-3.57-21.991-4.677-30.205c-2.163-16.189-2.665-15.688,10.208-22.106c12.169-6.085,35.418-19.027,52.281-19.027
	c20.983,0,29.818,1.932,48.309-2.377c1.437-0.905,29.53-13.144,30.938-13.409c10.543-2.081,20.134-9.573,34.801-9.573h3.96
	c9.329,0,24.708,5.433,30.887,8.716c-0.454,5.282-2.382,8.933-2.382,15.053v7.14c0,14.233,26.588,52.316,40.393,52.316
	c2.437,0,21.622-19.815,49.102-19.815h3.957c8.127,0,23.498,3.453,27.716,7.127c-22.641,0-28.604,0.231-45.249,6.234
	c-6.771,2.43-12.689,3.956-18.589,7.557c-3.36,2.047-12.873,9.372-12.354,13.98L510.178,1133.803z M740.655,905.52
	c7.097,8.166,19.014,50.892,19.014,68.172v4.746c0,32.011-48.961,53.401-70.97,66.91c-7.358,4.509-89.392,44.069-92.979,44.069
	c-0.626,0-14.648-6.523-18.532-7.613c-6.78-1.892-13.534-3.484-21.846-3.484h-4.764c-16.645,0-29.445,7.678-40.396,13.475
	c-9.487-5.025-16.319-12.655-21.365-22.189c-1.009-4.343-3.163-7.729-3.163-13.479v-1.592c0-7.174,1.609-16.01,6.814-18.524
	c5.54-2.682,11.672-4.725,17.491-7.089c12.113-4.896,23.274-9.638,35.418-14.482c23.85-9.521,46.171-19.558,69.841-29.184
	c22.936-9.319,46.931-20.262,68.695-31.109c13.443-6.702,18.198-12.002,18.734-31.191c0.201-6.938,1.425-13.594,1.558-23.013
	c0.103-6.926,0.823-15.405,0.823-23.756c0-9.418-3.956-14.28-3.956-24.569v-2.387C710.582,851.461,738.097,894.487,740.655,905.52
	L740.655,905.52z M684.424,847.659v6.337c0,4.057,4.759,14.195,4.759,23.782v15.053c0,14.418-1.647,25.532-3.239,37.983
	c-1.201,9.385-16.773,13.226-24.489,16.71c-19.035,8.583-38.696,16.696-57.805,25.364c-9.427,4.274-116.779,49.146-117.218,49.146
	c-0.206,0-18.854-8.553-23.438-9.822c-8.934-2.497-16.688-6.037-28.037-6.037h-6.334c-10.148,0-36.615,10.444-45.481,13.945
	c-7.123,2.819-14.465,7.428-20.583,9.521c-10.023,3.42-14.95,2.699-25.814,2.699h-18.216c-19.91,0-36.036,7.729-49.63,14.534
	c-13.443,6.736-35.903,11.396-35.903,29.063v20.601c0,2.146,0.387,2.197,0.785,3.973c-16.876,8.111-41.116,15.152-59.4,22.177
	c-18.069,6.938-41.671,16.907-60.98,21.421c-14.701-7.796-23.416-19.228-34.65-30.324c-2.849-2.815-5.077-5.111-7.909-7.926
	c-4.827-4.775-3.137-4.763-6.269-10.376c-3.287-5.917-8.582-16.379-16.898-16.379h-2.378c-13.529,0-19.798,16.881-19.798,30.912
	v11.895c0,11.149,5.565,37.998,8.398,47.872c4.578,15.958,8.685,27.522,15.353,40.898c4.66,9.319,16.714,25.98,24.558,31.714
	c12.722,9.32,20.699,13.482,42.76,13.482h3.167c14.448,0,67.301-12.07,76.484-16.46l17.769,31.518
	c0,25.42,10.226,46.755,35.637,46.755h4.758c2.296,0,20.718-3.656,23.215-4.51c7.291-2.48,15.89-3.163,24.223-4.291
	c14.95-2.021,36.354-4.879,51.54-5.476c17.116-0.67,36.392-4.313,51.492-4.745c7.629-0.215,41.906-5.348,49.729-7.309
	c13.8-3.449,35.693-3.703,48.601-7.642c21.536-6.566,26.763,1.609,38.177-18.843c6.287-11.264,35.346-66.09,35.346-77.968v-0.79
	c0-12.94-33.887-47.771-41.263-57.997l34.809,4.965l0.125-0.875h6.329c16.534,0,30.741-5.716,43.571-8.716
	c0-9.534-6.372-17.096-10.295-22.978c43.408-23.001,165.52-63.829,165.52-120.484v-1.592c0-27.493-13.14-67.674-23.435-85.134
	c-9.161-15.555-28.822-59.122-49.429-59.122h-4.745C691.986,834.181,684.424,841.644,684.424,847.659L684.424,847.659z
	 M162.579,1301.046h-40.465v15.854h93.463l-9.269-14.73l-19.241-0.334l-0.973-7.11l0.167-38.066l-25.528,6.354L162.579,1301.046z
	 M569.219,1242.027c-4.239,8.5-8.715,17.288-13.577,25.243c-15.649,25.695-13.658,23.885-48.017,29.617
	c-21.713,3.622-45.515,6.252-66.936,10.702c-9.252,1.922-24.12,3.48-34.178,4.625c-11.162,1.275-21.507,3.884-34.127,3.884v0.802
	H664.63v-15.064h-40.405l3.713-40.375l-0.537-4.802c0-20.566-1.197-43.306-4.273-61.513c-1.583-9.303-2.313-19.339-4.732-27.753
	c-1.091-3.756-5.85-24.228-6.034-26.451l-24.558,3.952c1.034,8.097,4.025,16.027,5.343,23.971c1.425,8.633,2.904,15.842,4.476,24.84
	c2.721,15.375,4.432,36.17,4.432,53.445v21.399c0,5.879,0.361,33.289-3.955,33.289H581.47l2.811-44.352l-0.442-6.373l-2.162-35.684
	C578.153,1219.249,572.322,1235.83,569.219,1242.027L569.219,1242.027z M396.135,1118.745c0.721-2.665,8.767-14.753,12.671-15.069
	v6.341C408.803,1116.836,402.757,1118.6,396.135,1118.745L396.135,1118.745z M453.156,1117.157
	c-1.202-1.407-3.262-4.763-5.531-4.763h-3.974l-8.677,0.905c2.055-4.476-0.279-13.508-1.905-17.245
	c-2.974-6.806-5.304-6.741-8.414-11.401c4.788-7.141,25.745-9.72,29.312-15.049v-5.544l-2.382-2.382
	c-6.716-3.235-24.086,6.788-29.835,8.969c-9.471,3.587-15.572,12.672-20.7,20.515c-8.097,12.389-24.978,37.882-43.717,37.882
	c-1.374,0.938-3.957,2.566-3.957,4.763v0.786c0,3.845,2.498,6.354,6.338,6.354h3.167c0.854,0,18.22-3.806,20.919-4.444
	c7.394-1.743,13.19-3.352,20.734-4.592c16.216-2.683,24.522-6.822,43.94-6.754l4.686-3.235v-4.764H453.156z M303.475,1100.509v3.167
	c0,1.827,0.554,2.381,2.381,2.381c6.823,0,17.869-18.675,22.043-23.923c3.823-4.827,5.797-8.315,10.243-12.735
	c6.282-6.304,6.016-5.347,12.856-10.109c-12.186,0-26.098,5.883-32.269,12.088C314.22,1075.903,303.475,1092.45,303.475,1100.509
	L303.475,1100.509z M340.704,1175.804c0,4.111-15.688,18.236-21.386,18.236h-1.576c-3.385,0-3.956-4.364-3.956-7.93
	c-0.64-0.438-1.961-1.575-2.382-1.575c-8.715,0-15.838,15.302-15.838,25.359v0.787c0,8.817,6.835,17.434,15.838,17.434h2.382
	c18.301,0,34.847-27.235,34.847-45.957v-1.592c0-5.884-2.832-11.097-8.715-11.097h-0.79
	C333.345,1169.465,340.704,1174.765,340.704,1175.804L340.704,1175.804z" />
	<path fill="none" stroke="#050605" stroke-width="0.152" d="M381.889,1541.459c-32.114,0-89.004-31.461-101.375-49.935h28.509
	c22.06,14.791,44.606,29.333,81.581,29.333h4.746c38.032,0,60.509-14.146,83.156-29.333h29.316
	c-6.252,9.337-32.453,25.913-43.833,32.234c-11.767,6.535-41.034,17.7-58.354,17.7H381.889z M272.803,1518.267
	c7.896,7.844,21.755,17.275,31.479,23.192c19.713,12.007,53.135,25.361,84.73,25.361h6.337c33.372,0,65.705-12.23,86.658-25.043
	c12.855-7.862,21.086-13.728,31.926-23.511c3.586-3.236,26.836-26.737,28.736-26.737h121.96v-15.062H122.9v15.062h121.191
	C245.649,1491.524,269.718,1515.198,272.803,1518.267L272.803,1518.267z M285.273,1024.411c12.907-2.999,20.318-6.338,37.211-6.338
	h14.263c11.938,0,16.028,1.192,25.614-3.703c7.261-3.686,13.56-6.347,21.356-9.539c12.521-5.109,33.625-12.118,50.437-12.118
	c19.889,0,30.037,6.956,44.352,10.295c-13.68-11.904-50.707-30.127-76.037-30.127H390.6c-23.232,0-46.682,8.229-61.517,16.914
	C315.477,997.76,293.421,1012.225,285.273,1024.411L285.273,1024.411z M188.643,1102.89l30.102-11.096
	c0-12.672,0.755-25.464,5.531-33.307c5.484-9.017,18.94-13.024,21.893-16.911c12.958-17.113,20.601-27.558,35.735-42.727
	c21.927-21.957,65.189-48.158,108.701-48.158h8.702c20.262,0,46.746,9.136,60.727,16.125c9.269,4.644,15.971,9.42,24.026,14.801
	c8.324,5.548,14.657,12.925,21.295,17.215l23.842-9.303c-1.017-3.888-20.641-20.099-25.008-23.317
	c-10.376-7.625-18.341-12.671-30.166-18.94c-20.117-10.659-46.815-20.349-77.072-20.349h-13.46
	c-25.377,0-54.024,12.487-71.558,21.139c-20.851,10.272-37.045,24.522-52.6,40.095c-15.821,15.82-28.595,32.483-40.748,51.942
	C213.149,1048.814,188.862,1093.051,188.643,1102.89L188.643,1102.89z M220.324,1152.035c-2.365,4.459-4.965,9.101-7.127,13.478
	c-3.819,7.729-2.377,6.52-10.055,10.544c-8.483,4.458-16.88,11.731-16.88,24.321v5.548c0,11.007,4.274,13.896,4.758,19.829
	c-7.878,0.168-25.931,7.27-35.632,8.711c-13.363,1.979-23.185,5.549-39.61,5.549h-3.167c-22.846,0-33.925-14.031-43.885-27.425
	c-5.762-7.74-20.798-39.349-21.051-51.051l-6.334-44.386v-3.167c0-6.857-0.253-16.207,3.956-19.025
	c2.06,1.376,9.887,15.705,12.333,19.343c4.175,6.201,10.145,11.196,15.204,16.513c6.286,6.587,23.904,30.723,33.439,30.723h3.171
	c11.264,0,52.029-15.185,63.258-19.125c9.908-3.488,20.516-6.689,30.44-10.744c7.609-3.102,23.498-9.688,30.638-11.35
	C233.596,1129.155,223.992,1145.097,220.324,1152.035L220.324,1152.035z M571.97,1120.32l-4.828,0.506l-24.467-3.673
	c2.347-3.218,17.516-5.549,23.746-5.549h18.22c4.716,0,10.045,1.962,15.058,2.382v1.574
	C592.004,1116.213,582.732,1120.32,571.97,1120.32L571.97,1120.32z M510.178,1133.799c5.957,3.974,43.571,46.798,43.571,53.101
	v1.593c0,6.706-14.976,35.937-18.478,42.554c-3.162,5.99-7.397,13.376-10.839,19.25c-6.913,11.728-5.548,8.089-19.846,11.063
	c-8.38,1.737-17.589,2.407-26.017,4.085c-6.53,1.296-19.777,4.354-26.192,4.698c-16.92,0.871-36.413,7.118-53.861,7.118
	c-2.249,1.096-66.661,6.717-74.44,7.141c-10.93,0.584-25.377,3.33-36.372,4.827c-9.977,1.339-23.334,6.274-34.916,6.274h-5.531
	c-8.097,0-11.097-13.968-11.097-21.413c0-3.553,37.864-10.238,44.97-11.264c15.958-2.313,32.771-4.591,51.665-4.591h13.456
	c8.432,0,16.731,0.627,24.373,1.775c6.27,0.945,18.203,6.956,19.193,6.956c5.665,0,9.488-6.771,9.488-12.688
	c0-5.459-5-11.098-10.294-11.098h-0.789c-1.825,0-2.378,0.554-2.378,2.387v8.711c-7.14-1.652-13.795-4.558-23.15-6.146
	c-7.406-1.257-20.146-1.777-28.325-1.777c-18.254,0-36.525,1.284-53.037,3.202c-4.978,0.562-18.791,2.943-23.25,4.476
	c-2.163,0.738-21.738,6.583-21.922,6.583c-7.059,0-29.299-46.683-29.299-57.075v-4.738c0-4.896,14.482-5.397,19.477-6.654
	c7.291-1.829,13.191-4.06,20.014-6.137c7.008-2.129,32.853-12.604,35.753-16.538l-49.849,7.157l27.673-51.543
	c-0.167-6.939-3.57-21.991-4.677-30.205c-2.163-16.194-2.665-15.688,10.208-22.111c12.169-6.085,35.418-19.022,52.281-19.022
	c20.983,0,29.818,1.927,48.309-2.382c1.437-0.905,29.53-13.139,30.938-13.409c10.543-2.076,20.134-9.568,34.801-9.568h3.96
	c9.329,0,24.708,5.428,30.887,8.715c-0.454,5.278-2.382,8.934-2.382,15.052v7.141c0,14.229,26.588,52.313,40.393,52.313
	c2.437,0,21.622-19.813,49.102-19.813h3.957c8.127,0,23.498,3.455,27.716,7.124c-22.641,0-28.604,0.236-45.249,6.234
	c-6.771,2.434-12.689,3.956-18.589,7.562c-3.36,2.051-12.873,9.376-12.354,13.98L510.178,1133.799z M740.655,905.52
	c7.097,8.162,19.014,50.888,19.014,68.172v4.736c0,32.016-48.961,53.402-70.97,66.915c-7.358,4.51-89.392,44.064-92.979,44.064
	c-0.626,0-14.648-6.518-18.532-7.607c-6.78-1.893-13.534-3.489-21.846-3.489h-4.764c-16.645,0-29.445,7.677-40.396,13.479
	c-9.487-5.029-16.319-12.654-21.365-22.193c-1.009-4.342-3.163-7.729-3.163-13.473v-1.597c0-7.171,1.609-16.006,6.814-18.521
	c5.54-2.683,11.672-4.729,17.491-7.089c12.113-4.896,23.274-9.639,35.418-14.482c23.85-9.522,46.171-19.563,69.841-29.183
	c22.936-9.321,46.931-20.267,68.695-31.11c13.443-6.707,18.198-12.002,18.734-31.196c0.201-6.938,1.425-13.594,1.558-23.013
	c0.103-6.921,0.823-15.405,0.823-23.751c0-9.418-3.956-14.28-3.956-24.575v-2.372C710.582,851.461,738.097,894.491,740.655,905.52
	L740.655,905.52z M684.424,847.655v6.338c0,4.055,4.759,14.203,4.759,23.785v15.053c0,14.414-1.647,25.527-3.239,37.98
	c-1.201,9.388-16.773,13.225-24.489,16.713c-19.035,8.583-38.696,16.696-57.805,25.359c-9.427,4.274-116.779,49.146-117.218,49.146
	c-0.206,0-18.854-8.548-23.438-9.821c-8.934-2.498-16.688-6.033-28.037-6.033h-6.334c-10.148,0-36.615,10.444-45.481,13.945
	c-7.123,2.814-14.465,7.423-20.583,9.521c-10.023,3.42-14.95,2.699-25.814,2.699h-18.216c-19.91,0-36.036,7.724-49.63,14.53
	c-13.443,6.74-35.903,11.4-35.903,29.067v20.597c0,2.146,0.387,2.197,0.785,3.974c-16.876,8.114-41.116,15.155-59.4,22.176
	c-18.069,6.939-41.671,16.915-60.98,21.421c-14.701-7.792-23.416-19.224-34.65-30.32c-2.849-2.815-5.077-5.106-7.909-7.931
	c-4.827-4.775-3.137-4.758-6.269-10.375c-3.287-5.913-8.582-16.375-16.898-16.375h-2.378c-13.529,0-19.798,16.886-19.798,30.908
	v11.904c0,11.144,5.565,37.992,8.398,47.87c4.578,15.959,8.685,27.522,15.353,40.895c4.66,9.323,16.714,25.985,24.558,31.723
	c12.722,9.32,20.699,13.469,42.76,13.469h3.167c14.448,0,67.301-12.065,76.484-16.46l17.769,31.514
	c0,25.434,10.226,46.772,35.637,46.772h4.758c2.296,0,20.718-3.665,23.215-4.515c7.291-2.476,15.89-3.17,24.223-4.291
	c14.95-2.033,36.354-4.883,51.54-5.483c17.116-0.669,36.392-4.3,51.492-4.737c7.629-0.224,41.906-5.347,49.729-7.308
	c13.8-3.459,35.693-3.699,48.601-7.639c21.536-6.577,26.763,1.609,38.177-18.846c6.287-11.265,35.346-66.091,35.346-77.977v-0.786
	c0-12.94-33.887-47.771-41.263-57.997l34.809,4.961l0.125-0.871h6.329c16.534,0,30.741-5.716,43.571-8.716
	c0-9.539-6.372-17.1-10.295-22.983c43.408-22.995,165.52-63.828,165.52-120.482v-1.592c0-27.489-13.14-67.666-23.435-85.135
	c-9.161-15.555-28.822-59.117-49.429-59.117h-4.745C691.986,834.181,684.424,841.639,684.424,847.655L684.424,847.655z
	 M162.579,1301.054h-40.465v15.847h93.463l-9.269-14.735l-19.241-0.334l-0.973-7.105l0.167-38.063l-25.528,6.347L162.579,1301.054z
	 M569.219,1242.03c-4.239,8.492-8.715,17.276-13.577,25.249c-15.649,25.69-13.658,23.876-48.017,29.612
	c-21.713,3.621-45.515,6.253-66.936,10.689c-9.252,1.927-24.12,3.492-34.178,4.625c-11.162,1.274-21.507,3.889-34.127,3.889v0.806
	H664.63v-15.069h-40.405l3.713-40.379l-0.537-4.789c0-20.567-1.197-43.317-4.273-61.517c-1.583-9.303-2.313-19.343-4.732-27.758
	c-1.091-3.755-5.85-24.219-6.034-26.449l-24.558,3.955c1.034,8.098,4.025,16.023,5.343,23.971c1.425,8.633,2.904,15.838,4.476,24.84
	c2.721,15.371,4.432,36.174,4.432,53.437v21.403c0,5.892,0.361,33.291-3.955,33.291H581.47l2.811-44.354l-0.442-6.363l-2.162-35.68
	C578.153,1219.246,572.322,1235.826,569.219,1242.03L569.219,1242.03z M396.135,1118.745c0.721-2.665,8.767-14.748,12.671-15.066
	v6.334C408.803,1116.836,402.757,1118.595,396.135,1118.745L396.135,1118.745z M453.156,1117.153
	c-1.202-1.407-3.262-4.759-5.531-4.759h-3.974l-8.677,0.905c2.055-4.476-0.279-13.512-1.905-17.25
	c-2.974-6.806-5.304-6.736-8.414-11.396c4.788-7.141,25.745-9.724,29.312-15.053v-5.549l-2.382-2.378
	c-6.716-3.234-24.086,6.789-29.835,8.964c-9.471,3.588-15.572,12.672-20.7,20.52c-8.097,12.385-24.978,37.882-43.717,37.882
	c-1.374,0.937-3.957,2.563-3.957,4.76v0.789c0,3.837,2.498,6.352,6.338,6.352h3.167c0.854,0,18.22-3.807,20.919-4.442
	c7.394-1.741,13.19-3.351,20.734-4.592c16.216-2.681,24.522-6.822,43.94-6.757l4.686-3.231v-4.764H453.156z M303.475,1100.509v3.17
	c0,1.824,0.554,2.378,2.381,2.378c6.823,0,17.869-18.671,22.043-23.918c3.823-4.827,5.797-8.312,10.243-12.74
	c6.282-6.3,6.016-5.348,12.856-10.105c-12.186,0-26.098,5.884-32.269,12.084C314.22,1075.903,303.475,1092.446,303.475,1100.509
	L303.475,1100.509z M340.704,1175.804c0,4.105-15.688,18.236-21.386,18.236h-1.576c-3.385,0-3.956-4.354-3.956-7.925
	c-0.64-0.438-1.961-1.58-2.382-1.58c-8.715,0-15.838,15.307-15.838,25.359v0.79c0,8.823,6.835,17.439,15.838,17.439h2.382
	c18.301,0,34.847-27.244,34.847-45.962v-1.592c0-5.888-2.832-11.097-8.715-11.097h-0.79
	C333.345,1169.47,340.704,1174.765,340.704,1175.804L340.704,1175.804z" />
	<path fill="#7D241E" d="M145.595,1412.836h25.982v-9.342h-25.982V1412.836z M145.595,1437.754h25.982v-9.702h-25.982V1437.754z
	 M122.265,1458.313v-75.166h56.822c5.514,0,9.504,1.167,11.984,3.531c2.498,2.369,3.738,6.141,3.738,11.371v10.56
	c0,2.258-0.399,4.115-1.206,5.557c-0.806,1.459-2.515,3.154-5.128,5.099c2.36,0.866,4.003,2.124,4.926,3.755
	c0.939,1.609,1.408,4.218,1.408,7.822v10.561c0,5.922-1.275,10.229-3.802,12.895c-2.532,2.66-6.574,4.012-12.104,4.012h-56.638
	V1458.313z M226.807,1413.218h24.072v-9.729h-24.072V1413.218z M203.559,1458.313v-75.166h52.715c6.136,0,10.612,1.235,13.461,3.698
	c2.849,2.48,4.273,6.342,4.273,11.582V1408c0,3.497-0.652,6.165-1.961,7.955c-1.304,1.793-3.604,3.27-6.869,4.429
	c3.334,1.167,5.647,2.63,6.921,4.354c1.274,1.743,1.909,4.442,1.909,8.102v25.468h-23.03v-27.964h-24.171v27.964h-23.249V1458.313z
	 M353.208,1438.063c0,6.716-1.524,11.762-4.557,15.169c-3.05,3.382-7.595,5.085-13.663,5.085h-34.577
	c-6.102,0-10.697-1.699-13.744-5.085c-3.068-3.407-4.596-8.453-4.596-15.169v-34.568c0-6.883,1.51-12.002,4.51-15.332
	c3.017-3.33,7.625-5.012,13.83-5.012h34.577c6.219,0,10.818,1.66,13.779,4.956c2.97,3.308,4.441,8.432,4.441,15.388V1438.063
	L353.208,1438.063z M305.608,1437.754h24.167v-34.26h-24.167V1437.754L305.608,1437.754z M361.957,1458.313v-75.166h23.048v28.779
	h5.45l21.214-28.779h27.664l-28.553,36.92l30.18,38.241h-29.184l-21.327-28.703H385v28.703h-23.043V1458.313z M443.573,1458.313
	v-75.166h62.685v20.343h-39.156v8.638h38.953v16.997h-38.953v8.63h38.86v20.559H443.573z M538.22,1413.218h24.072v-9.729H538.22
	V1413.218z M514.99,1458.313v-75.166h52.706c6.128,0,10.603,1.235,13.452,3.698c2.85,2.48,4.291,6.342,4.291,11.582V1408
	c0,3.497-0.665,6.165-1.978,7.955c-1.305,1.793-3.596,3.27-6.87,4.429c3.33,1.167,5.642,2.63,6.921,4.354
	c1.292,1.743,1.923,4.442,1.923,8.102v25.468h-23.047v-27.964h-24.172v27.964H514.99V1458.313z M615.108,1412.729h17.069v-9.234
	h-17.069V1412.729z M625.518,1437.754h14.37v-9.218h-14.37V1437.754z M592.386,1458.313v-20.559h28.325v-9.218h-5.497
	c-8.38,0-14.182-1.072-17.383-3.235c-3.201-2.162-4.811-5.81-4.811-10.945v-16.427c0-4.978,1.811-8.677,5.437-11.131
	c3.605-2.429,9.162-3.651,16.653-3.651h5.604v-12.471h4.806v12.471h6.66v-12.471h4.811v12.471h22.395v20.343h-22.395v9.234h10.265
	c5.935,0,10.208,1.073,12.834,3.236c2.631,2.162,3.957,5.651,3.957,10.461v18.421c0,4.09-1.494,7.364-4.455,9.801
	c-2.991,2.43-7.028,3.665-12.135,3.665h-10.461v16.002h-4.812v-16.002h-6.659v16.1h-4.807v-16.1h-28.333V1458.313z" />
	<path fill="#050605"
		d="M382.675,1185.325c1.09,4.643,5.248,11.702,6.942,16.044c2.146,5.515,4.677,11.638,6.454,16.538
	c3.785,10.461,7.205,25.502,7.205,39.546v1.587c0,11.488-2.999,11.655-4.759,18.22c17.443,0,36.938-6.251,53.861-7.123
	c6.415-0.33,19.662-3.402,26.192-4.693c8.433-1.675,17.637-2.348,26.017-4.09c14.298-2.961,12.933,0.67,19.846-11.063
	c3.446-5.861,7.677-13.259,10.839-19.232c3.498-6.625,18.478-35.86,18.478-42.563v-1.592c0-6.304-37.619-49.132-43.571-53.102
	c4.082,7.693,9.51,33.221,9.51,45.172v4.758c0,19.027-4.961,34.295-16.148,42.517c-10.809,7.938-26.347,13.77-44.836,13.77
	c-11.358,0-18.666-3.316-26.133-7.141c-7.903-4.055-9.921-11.311-15.636-17.648C412.909,1210.749,385.61,1184.017,382.675,1185.325
	L382.675,1185.325z M452.378,1062.464l1.588,1.593v5.543c-3.566,5.33-24.523,7.908-29.312,15.049c3.11,4.66,5.44,4.596,8.414,11.401
	c1.626,3.737,3.965,12.771,1.905,17.246l8.677-0.905h3.974c2.27,0,4.329,3.355,5.531,4.763l-0.163-2.219l-2.193-2.548
	c5.927-1.575,15.834-13.444,15.834-21.405v-2.364c0-7.238-8.878-14.546-11.783-19.038l-0.888-5.531l-2.382-2.382L452.378,1062.464z" />
	<path fill="#7D241E" d="M124.427,1363.282v-36.842h12.169v26.768h17.701v10.074H124.427z M207.296,1340.99h12.556v-4.578h-12.556
	V1340.99z M195.847,1334.048c0-2.343,0.738-4.205,2.198-5.562c1.458-1.359,3.471-2.051,6.032-2.051h19.044
	c2.579,0,4.591,0.687,6.05,2.051c1.459,1.352,2.18,3.219,2.18,5.562v29.234h-11.5v-14.833h-12.556v14.833h-11.448V1334.048z
	 M273.725,1363.282v-36.842h11.299v14.113h2.665l10.409-14.113h13.542l-13.979,18.107l14.782,18.734h-14.297l-10.457-14.053h-2.665
	v14.053H273.725z M351.668,1363.282v-36.842h30.706v9.972h-19.176v4.249h19.095v8.319h-19.095v4.223h19.043v10.076h-30.573V1363.282
	z M424.078,1363.282v-10.074h23.803v-3.982h-12.705c-4.403,0-7.325-0.511-8.729-1.48c-1.407-0.979-2.128-2.721-2.128-5.235v-8.818
	c0-2.578,0.832-4.424,2.515-5.539c1.673-1.146,4.475-1.717,8.342-1.717h21.64v9.973h-21.249v4.09h15.279
	c2.815,0,4.918,0.57,6.235,1.729c1.33,1.154,1.999,2.961,1.999,5.411v9.037c0,2.042-0.72,3.664-2.145,4.845
	c-1.426,1.166-3.403,1.755-5.939,1.755h-26.918V1363.282z M501.318,1363.282v-36.842h11.487v36.842H501.318z M566.824,1353.208
	h13.122v-16.796h-13.122V1353.208z M555.342,1363.282v-36.842h27.394c2.832,0,5.055,0.87,6.647,2.612
	c1.608,1.747,2.415,4.176,2.415,7.316v16.74c0,3.346-0.793,5.86-2.364,7.59c-1.558,1.713-3.888,2.583-6.956,2.583H555.342z
	 M633.915,1363.282v-36.842h30.724v9.972h-19.19v4.249h19.091v8.319h-19.091v4.223h19.04v10.076h-30.573V1363.282z" />
	<path fill="#77C5EE" d="M396.135,1118.745c6.622-0.15,12.671-1.914,12.671-8.732v-6.342
	C404.903,1103.992,396.857,1116.08,396.135,1118.745L396.135,1118.745z" />
</svg>
