<svg version="1.1" baseProfile="basic" id="Layer_1" xmlns="http://www.w3.org/2000/svg"
	xmlns:xlink="http://www.w3.org/1999/xlink" x="0px" y="0px" viewBox="-101.86 821.445 800 800" xml:space="preserve">
	<g>
		<g>
			<g>
				<path fill="#051732"
					d="M295.836,1594.464c-2.356,0-4.703-0.708-7.384-2.234c-60.11-34.148-110.237-76.844-148.992-126.899
				c-39.043-50.43-67.63-109.735-84.969-176.272c-11.231-43.099-15.776-89.634-13.507-138.305
				c1.736-37.279,8.229-75.321,19.3-113.067c0.509-1.739,0.779-3.502,1.041-5.208c0.263-1.717,0.512-3.347,0.989-4.813
				c0.587-27.044,0.44-75.998,0.321-115.365c-0.039-13.534-0.078-25.753-0.078-35.241v-1.413l1.336-0.458
				c3.021-1.035,5.575-1.537,7.808-1.537c8.017,0,10.349,6.399,11.573,12.657c6.301,32.229,31.356,53.15,63.834,53.3h0.313
				c30.789,0,56.468-21.56,63.899-53.651c0.748-3.229,3.584-5.615,6.327-7.923c1.166-0.981,2.268-1.908,3.177-2.863l1.524-1.604
				l1.423,1.696c0.766,0.914,1.699,1.811,2.687,2.761c2.34,2.25,4.761,4.577,5.376,7.596c6.903,33.762,30.976,54.237,64.391,54.773
				c0.371,0.005,0.737,0.008,1.104,0.008c31.125-0.001,57.098-21.5,64.634-53.498c0.719-3.05,3.031-5.454,5.269-7.781
				c0.964-0.999,1.871-1.946,2.632-2.912l1.588-2.018l1.545,2.051c0.722,0.959,1.58,1.896,2.489,2.889
				c2.114,2.307,4.302,4.692,5.016,7.68c7.223,30.166,28.864,50.726,56.48,53.653c2.83,0.3,5.675,0.453,8.453,0.453
				c27.265-0.002,50.271-14.646,61.545-39.175c1.139-2.48,1.751-5.231,2.399-8.146c0.679-3.049,1.382-6.2,2.749-9.11
				c1.204-2.566,3.722-4.206,6.16-5.793c0.997-0.649,1.942-1.263,2.76-1.918l1.647-1.312l1.207,1.725
				c0.545,0.781,1.242,1.577,1.98,2.419c1.831,2.092,3.728,4.254,3.909,6.897c0.545,7.92,0.478,15.979,0.412,23.77
				c-0.02,2.508-0.041,5.016-0.044,7.522l-0.035,37.018c-0.03,27.997-0.065,61.265-0.074,77.031l-0.005,1.902
				c0.21,0.462,0.365,0.869,0.477,1.258c12.622,42.798,19.177,82.405,20.034,121.073c0.147,6.437,0.106,12.969,0.071,19.288
				c-0.02,2.932-0.035,5.862-0.035,8.793c-3.428,121.074-46.357,226.986-127.598,314.85
				c-33.784,36.533-74.175,67.952-120.049,93.378C300.388,1593.805,298.128,1594.464,295.836,1594.464L295.836,1594.464z" />
				<path fill="#FFFFFF" d="M71.701,875.627c6.08,0,8.324,4.375,9.633,11.061c6.489,33.188,32.573,54.746,65.765,54.897
				c0.107,0,0.214,0,0.321,0c32.074,0,58.195-22.237,65.826-55.184c0.877-3.784,5.905-6.604,9.011-9.87
				c2.636,3.143,6.919,5.95,7.64,9.482c7.014,34.292,31.99,55.803,66.297,56.353c0.38,0.006,0.757,0.009,1.136,0.009
				c32.294,0,58.81-22.119,66.558-55.021c0.869-3.695,4.947-6.635,7.53-9.923c2.46,3.261,6.29,6.196,7.162,9.839
				c7.38,30.826,29.548,52.119,58.196,55.158c2.926,0.31,5.813,0.463,8.66,0.463c27.899,0,51.571-14.712,63.343-40.326
				c2.474-5.396,2.618-11.872,5.141-17.242c1.4-2.985,5.486-4.71,8.363-7.004c1.935,2.766,5.34,5.436,5.539,8.32
				c0.711,10.344,0.37,20.762,0.364,31.152c-0.021,24.232-0.101,89.817-0.111,114.05c0,0.822-0.003,1.596-0.005,2.347
				c0.229,0.465,0.427,0.922,0.556,1.365c11.613,39.384,19.042,79.435,19.958,120.567c0.21,9.342,0.032,18.691,0.032,28.035
				c-3.402,120.221-45.253,225.019-127.074,313.509c-34.727,37.555-74.848,68.211-119.559,92.994c-2.226,1.233-4.2,1.83-6.148,1.83
				c-2.076,0-4.122-0.678-6.407-1.978c-119.88-68.102-198.192-168.287-233.025-301.949c-11.767-45.152-15.614-91.219-13.446-137.717
				c1.782-38.268,8.426-75.786,19.221-112.603c1.104-3.762,1.143-7.511,2.103-10.232c0.802-36.394,0.252-114.186,0.252-150.952
				C67.386,876.083,69.743,875.627,71.701,875.627 M222.442,870.6l-3.051,3.209c-0.831,0.874-1.891,1.767-3.014,2.712
				c-2.854,2.398-6.085,5.119-6.982,8.987c-7.22,31.179-32.124,52.124-61.974,52.124h-0.304
				c-31.493-0.145-55.791-20.44-61.901-51.703c-0.763-3.899-2.79-14.252-13.514-14.255l0,0c-2.454,0-5.218,0.538-8.448,1.646
				l-2.672,0.915v2.824c0,9.493,0.034,21.428,0.076,35.248c0.117,39.219,0.264,87.959-0.316,115.035
				c-0.466,1.53-0.714,3.144-0.973,4.839c-0.25,1.641-0.512,3.338-0.985,4.95c-11.114,37.897-17.633,76.095-19.378,113.532
				c-2.279,48.871,2.287,95.604,13.57,138.898c17.408,66.797,46.114,126.342,85.319,176.983
				c38.915,50.263,89.241,93.13,149.579,127.406c2.991,1.7,5.647,2.493,8.362,2.493c2.604,0,5.244-0.76,8.066-2.326
				c46.06-25.532,86.619-57.08,120.542-93.765c40.908-44.243,72.437-93.384,93.707-146.061
				c21.124-52.31,32.703-109.514,34.419-170.022v-0.057v-0.056c0-2.926,0.017-5.852,0.035-8.779
				c0.036-6.332,0.076-12.879-0.07-19.344c-0.863-38.847-7.445-78.623-20.119-121.599c-0.101-0.349-0.229-0.709-0.39-1.098
				c0-0.483,0.003-0.979,0.003-1.496c0.008-15.729,0.041-48.89,0.073-76.848l0.038-37.197c0-2.501,0.022-5.003,0.041-7.506
				c0.065-7.828,0.134-15.926-0.417-23.921c-0.229-3.313-2.44-5.838-4.394-8.066c-0.7-0.801-1.365-1.557-1.848-2.249l-2.413-3.453
				l-3.291,2.628c-0.744,0.594-1.651,1.184-2.607,1.807c-2.545,1.657-5.427,3.531-6.871,6.61c-1.46,3.105-2.185,6.365-2.888,9.521
				c-0.624,2.809-1.215,5.462-2.267,7.752c-10.943,23.806-33.277,38.021-59.749,38.021c-2.708,0-5.483-0.147-8.243-0.441
				c-26.761-2.836-47.743-22.817-54.767-52.147c-0.834-3.484-3.299-6.177-5.479-8.556c-0.877-0.956-1.706-1.86-2.37-2.743
				l-3.093-4.102l-3.174,4.039c-0.697,0.888-1.574,1.798-2.5,2.761c-2.311,2.401-4.929,5.123-5.771,8.702
				c-7.323,31.085-32.522,51.971-62.71,51.971c-0.356,0-0.713-0.003-1.073-0.008c-32.422-0.52-55.781-20.403-62.485-53.192
				c-0.738-3.619-3.502-6.277-5.942-8.623c-0.949-0.913-1.846-1.775-2.543-2.607L222.442,870.6L222.442,870.6z" />
			</g>
			<path fill="#FFFFFF" d="M216.741,1183.658c-4.934,14.962-9.698,29.408-14.463,43.855c30.459-37.951,61.019-75.333,98.243-106.477
			c4.585,5.335,8.849,10.293,13.112,15.254c0.61-0.375,1.224-0.747,1.836-1.12c-6.468-16.308-9.437-33.133-7.48-50.517
			c0.591-5.252,2.46-10.358,4.11-17.021c37.923,36.585,79.882,67.378,105.111,114.203c-0.937-4.819-1.67-9.688-2.868-14.441
			c-1.248-4.945-2.939-9.778-4.44-14.657c0.52-0.391,1.037-0.783,1.558-1.174c5.763,6.379,11.933,12.447,17.163,19.236
			c4.411,5.721,8.189,12.059,11.35,18.561c1.574,3.244,1.12,7.47,1.604,11.25c0.513,3.971,0.199,8.309,1.73,11.841
			c6.767,15.572,14.07,30.91,21.187,46.332c0.518,1.125,0.779,2.556,1.632,3.308c7.89,6.952,6.314,13.722,1.003,21.683
			c-2.979,4.465-3.354,10.605-5.271,15.853c-3.891,10.665-9.688,12.123-17.499,3.893c-5.41-5.702-9.657-12.488-14.822-18.446
			c-6.026-6.952-12.488-13.525-18.763-20.266c-0.457,0.431-0.912,0.858-1.364,1.288c0.25,2.782,1.536,6.081,0.474,8.209
			c-1.142,2.288-4.517,3.433-6.852,5.162c-1.504,1.111-3.005,2.267-4.307,3.596c-5.577,5.691-4.169,11.862,3.433,14.289
			c6.118,1.956,12.537,3.052,18.53,5.302c4.571,1.717,8.892,4.354,12.94,7.138c3.108,2.133,3.323,4.746-0.959,6.23
			c-6.824,2.364-12.526,3.095-20.323-0.387c-12.063-5.384-18.4-14.289-23.516-25.031c-1.169-2.457-0.951-6.091-0.172-8.849
			c1.675-5.928,4.13-11.638,6.377-17.74c-0.912-0.106-1.55-0.39-1.972-0.199c-9.075,4.098-8.999,4.032-16.458-3.048
			c-4.481-4.256-9.229-8.228-14.755-13.118c15.619-7.729,27.562-16.361,35.218-30.116c-24.247,16.185-49.961,27.044-77.471,10.444
			c-28.069-16.937-29.842-44.673-24.869-73.76c-0.566-0.161-1.133-0.321-1.7-0.482c-2.318,8.229-5.281,16.341-6.816,24.714
			c-2.945,16.062-0.295,31.357,8.036,45.633c0.989,1.694,0.895,4.885-0.03,6.704c-11.205,22.043-16.794,45.479-17.847,70.063
			c-0.165,3.833,0.486,7.704,1.429,11.603c2.964-23.442,9.421-45.618,21.158-66.229c-10.292,30.411-14.212,61.168-5.654,92.754
			c-0.922-27.815,2.915-54.704,14.813-80.179c-11.39,40.605-10.119,80.246,8.483,118.711c-9.554-37.116-9.301-73.728,5.127-109.716
			c-10.202,42.908-7.13,84.698,10.791,126.263c-20.304-1.016-39.141,3.019-57.284,10.322c-18.072,7.279-33.895,17.728-46.023,33.449
			c34.43-20.438,71.177-23.104,109.475-15.679c22.146,4.297,38.188,19.157,57.193,31.354c-8.257,8.467-15.691,16.512-23.57,24.088
			c-21.497,20.68-45.128,38.614-70.521,54.273c-4.188,2.583-7.353,2.857-11.794,0.125c-32.077-19.724-60.922-43.335-86.895-70.567
			c-3.722-3.903-5.229-7.59-4.545-13.134c4.07-32.955,7.521-65.99,11.657-98.938c1.182-9.399,3.956-18.599,5.998-27.892
			c-0.519-0.283-1.038-0.569-1.559-0.858c-9.815,18.076-19.632,36.151-29.448,54.228c-0.321,0.019-0.643,0.035-0.963,0.055
			c3.717-22.144,6.849-44.409,11.321-66.399c4.498-22.107,10.329-43.943,15.161-66.04c-25.159,48.067-43.699,98.639-57.367,153.163
			c-3.805-6.358-6.556-11.502-9.827-16.292c-5.092-7.453-5.788-14.88-3.887-23.927c12.914-61.471,39.066-117.033,73.827-168.89
			c0.462-0.687,0.928-1.379,1.48-1.993C215.189,1184.232,215.646,1184.156,216.741,1183.658z" />
			<path fill="#6ABD45" d="M171.42,1143.639c-12.014,0.87-22.197,1.704-32.397,2.238c-1.425,0.073-3.106-1.12-4.365-2.11
			c-10.769-8.471-21.364-17.166-32.251-25.479c-3.326-2.541-4.242-5.297-3.412-9.089c1.816-8.309,3.313-16.702,5.551-24.895
			c0.688-2.519,3.153-6.08,5.169-6.344c2.927-0.377,7.222,0.888,9.135,3.045c12.253,13.819,24.002,28.082,35.944,42.178
			c3.622,4.274,7.37,8.445,10.97,12.737C167.304,1137.76,168.615,1139.79,171.42,1143.639z" />
			<path fill="#6ABD45" d="M438.61,1137.628c6.048-1.455,11.216-2.696,17.842-4.287c-6.713-4.312-12.347-7.927-18.898-12.133
			c5.745-7.341,11.161-14.318,16.637-21.249c5.024-6.354,10.325-12.502,15.093-19.038c3.43-4.7,8.162-4.331,12.325-3.051
			c2.416,0.741,4.893,4.13,5.672,6.816c2.084,7.158,3.512,14.541,4.658,21.917c0.368,2.361-0.084,5.958-1.638,7.342
			c-13.757,12.289-27.842,24.205-42.365,36.69C444.691,1146.103,441.879,1142.186,438.61,1137.628z" />
			<path fill="#FFFFFF" d="M203.819,1181.143c-7.232,8.991-15.941,15.604-25.794,19.682c-10.22,4.229-21.198,7.12-32.117,9.043
			c-16.663,2.939-33.559,4.546-51.192,6.824c-2.325-3.574-0.247-6.27,3.892-8.771c22.576-13.642,47.145-22.249,72.47-28.979
			c3.999-1.063,8.264-1.41,12.045-2.961C191.032,1172.728,197.113,1175.793,203.819,1181.143z" />
			<path fill="#6ABD45" d="M189.331,1115.537c-9.422,2.354-17.768,4.55-26.184,6.42c-1.294,0.287-3.387-0.5-4.325-1.518
			c-12.634-13.721-25.133-27.568-37.642-41.405c-0.242-0.264-0.212-0.774-0.531-2.076c6.054-0.945,12.05-1.884,18.046-2.817
			c5.936-0.926,11.849-2.203,17.821-2.596c2.456-0.163,6.23,0.813,7.371,2.582C172.416,1087.351,180.435,1100.902,189.331,1115.537z
			" />
			<path fill="#6ABD45" d="M407.869,1105.155c6.328-11.167,12.262-21.809,18.443-32.307c0.635-1.088,2.789-2.042,4.083-1.873
			c12.453,1.645,24.873,3.542,38.645,5.566c-3.896,4.827-6.879,8.671-10.021,12.379c-7.235,8.541-14.719,16.883-21.764,25.578
			c-2.942,3.633-5.321,3.994-9.284,1.53C421.845,1112.224,415.284,1109.113,407.869,1105.155z" />
			<path fill="#6ABD45" d="M494.174,1117.421c1.079,10.23,1.837,20.509,3.346,30.673c1.008,6.777-1.359,10.636-7.29,13.839
			c-9.791,5.28-19.139,11.38-29.068,17.374c-3.498-7.8-6.731-14.699-9.603-21.745c-0.469-1.146,0.193-3.471,1.154-4.373
			c13.003-12.168,26.15-24.178,39.258-36.23C492.711,1117.114,493.442,1117.268,494.174,1117.421z" />
			<path fill="#6ABD45" d="M99.266,1119.536c9.688,8.337,19.377,16.67,30.538,26.271c-6.071,0.763-10.386,1.303-15.903,1.997
			c12.747,10.765,26.459,17.861,43.355,23.5c-9.595,3.119-17.401,5.838-25.341,8.077c-1.434,0.404-3.538-0.948-5.137-1.836
			c-9.26-5.145-18.398-10.508-27.713-15.548c-3.695-1.999-5.737-4.433-5.27-8.838c1.174-11.052,2.177-22.124,3.248-33.187
			C97.784,1119.826,98.525,1119.682,99.266,1119.536z" />
			<path fill="#6ABD45" d="M165.611,1070.109c11.803-2.449,22.083-4.752,32.452-6.532c1.422-0.243,4.125,1.757,4.817,3.341
			c4.906,11.212,9.343,22.627,14.154,33.882c1.377,3.216,0.766,4.758-2.437,6.168c-19.327,8.515-19.275,8.552-30.767-9.178
			C178.099,1088.948,172.248,1080.185,165.611,1070.109z" />
			<path fill="#6ABD45" d="M352.827,1341.671c12.791,10.168,25.564,20.356,38.377,30.493c12.044,9.532,23.99,19.19,36.255,28.426
			c4.177,3.146,4.46,5.69,1.354,9.581c-3.09,3.866-5.74,8.069-9.391,13.275c-23.893-26.458-46.289-53.143-68.508-79.977
			C351.552,1342.871,352.19,1342.271,352.827,1341.671z" />
			<path fill="#6ABD45" d="M310.062,1052.542c-1.632,1.913-4.035,3.57-4.763,5.78c-3.016,9.191-5.524,18.552-8.232,27.848
			c-0.279,0.957-0.643,1.892-1.079,3.158c-3.235-0.719-6.418-0.952-9.14-2.194c-1.847-0.844-4.108-2.949-4.371-4.754
			c-1.828-12.52-3.25-25.103-4.596-37.687c-0.174-1.626,0.407-4.522,1.373-4.887c7.495-2.839,14.507-9.032,23.4-4.188
			c1.084,0.589,2.296,1.012,3.497,1.3c5.571,1.332,7.364,4.699,5.86,10.161c-0.545,1.976-0.597,4.089-0.874,6.14
			C310.781,1052.998,310.421,1052.772,310.062,1052.542z" />
			<path fill="#6ABD45" d="M204.881,1061.857c10.496-2.822,19.806-5.503,29.237-7.642c1.228-0.277,4.081,1.97,4.495,3.504
			c2.806,10.388,5.341,20.862,7.464,31.411c0.331,1.65-1.399,4.707-3.006,5.576c-4.889,2.643-10.099,4.792-15.377,6.55
			c-1.468,0.487-4.686-0.526-5.28-1.741C216.531,1087.465,211.033,1075.225,204.881,1061.857z" />
			<path fill="#6ABD45" d="M274.059,1041.463c0.846,9.808,1.611,18.631,2.365,27.452c0.3,3.516,0.317,7.077,0.914,10.538
			c0.797,4.62-0.6,6.903-5.499,7.528c-6.137,0.786-12.188,2.246-18.949,3.544c-0.489-0.971-1.428-2.306-1.861-3.789
			c-2.862-9.77-5.529-19.597-8.441-29.351c-1.177-3.943-0.312-6.111,3.904-7.313
			C255.251,1047.578,263.889,1044.669,274.059,1041.463z" />
			<path fill="#6ABD45" d="M355.397,1328.884c7.851,4.392,15.711,8.774,23.557,13.18c20.982,11.78,41.921,23.639,62.978,35.285
			c4.103,2.27,4.68,4.438,2.019,8.284c-2.904,4.198-5.247,8.781-8.336,14.053c-27.511-23.59-54.296-46.556-81.083-69.521
			C354.819,1329.737,355.108,1329.309,355.397,1328.884z" />
			<path fill="#6ABD45" d="M449.935,1375.061c-29.954-18.425-58.834-36.189-87.714-53.958c0.264-0.55,0.534-1.095,0.804-1.645
			c7.68,2.852,15.359,5.71,23.042,8.554c22.584,8.366,45.136,16.822,67.785,25.009c4.621,1.668,6.062,3.667,3.417,8.148
			C454.771,1365.409,452.656,1369.866,449.935,1375.061z" />
			<path fill="#6ABD45" d="M424.116,1069.726c-7.059,11.318-13.42,21.671-20.029,31.865c-0.531,0.817-2.86,1.002-4.17,0.694
			c-6.634-1.556-13.273-3.167-19.746-5.271c-1.256-0.408-2.855-3.449-2.452-4.667c2.855-8.666,6.064-17.224,9.491-25.685
			c0.635-1.569,2.976-3.796,4.152-3.589C401.886,1064.927,412.328,1067.259,424.116,1069.726z" />
			<path fill="#FFFFFF" d="M145.361,1154.9c10.388-1.263,22.331-2.163,34.054-4.281c13.952-2.521,26.062-9.545,36.811-18.557
			c5.413-4.538,10.817-3.595,17.487-1.229c-4.548,3.547-9.097,7.096-14.074,10.979c6.472,0.79,12.67,1.548,19.24,2.351
			C223.808,1158.205,169.572,1163.991,145.361,1154.9z" />
			<path fill="#6ABD45" d="M471.904,1207.914c-2.812-7.157-5.375-13.255-7.527-19.499c-0.487-1.417-0.147-4.19,0.834-4.874
			c10.311-7.203,20.829-14.104,31.294-21.089c0.705,0.27,1.413,0.541,2.119,0.81c0,6.284,0.096,12.57-0.021,18.855
			c-0.324,17.79,2.816,13.634-13.992,20.66C480.629,1204.436,476.619,1206.009,471.904,1207.914z" />
			<path fill="#6ABD45"
				d="M460.295,1219.482c12.143-5.549,24.383-11.144,38.187-17.454c-1.017,10.712-1.708,19.506-2.836,28.245
			c-0.175,1.359-2.166,2.828-3.65,3.588c-1.799,0.918-3.95,1.163-5.958,1.659C466.156,1240.402,466.156,1240.399,460.295,1219.482z" />
			<path fill="#FFFFFF" d="M156.213,1251.275c-19.973-1.237-36.761,6.859-53.617,18.686c-1.351-7.002-2.731-12.771-3.401-18.623
			c-0.157-1.382,1.776-3.91,3.258-4.419c8.778-3.008,17.651-5.798,26.63-8.124c2.101-0.545,4.859,0.679,7.101,1.607
			c6.801,2.819,13.499,5.89,20.237,8.862C156.352,1249.937,156.284,1250.604,156.213,1251.275z" />
			<path fill="#6ABD45" d="M315.05,1040.553c11.828,3.85,21.269,6.824,30.609,10.092c1.131,0.395,2.613,2.563,2.397,3.587
			c-1.854,8.839-4.059,17.604-6.418,27.458c-9.103-7.721-18.272-13.758-24.887-21.876
			C313.668,1056.027,315.534,1048.208,315.05,1040.553z" />
			<path fill="#FFFFFF" d="M443.835,1169.032c-14.231-14.277-28.464-28.557-42.559-42.7c0.188-0.055,1.618-0.462,3.048-0.87
			c0.175-0.553,0.349-1.106,0.523-1.659c-12.605-4.585-25.208-9.172-37.813-13.757c0.311-0.758,0.624-1.517,0.935-2.275
			c22.293-1.352,40.371,9.976,60.136,20.432c-4.168,1.256-7.062,2.129-11.219,3.384
			C429.443,1142.11,438.506,1154.254,443.835,1169.032z" />
			<path fill="#6ABD45" d="M372.064,1092.964c-7.609-9.374-14.766-16.992-20.302-25.645c-2.064-3.224-0.335-8.873-0.335-14.939
			c11.977,3.222,22.225,5.979,33.716,9.072C380.765,1072.008,376.698,1081.806,372.064,1092.964z" />
			<path fill="#FFFFFF" d="M194.555,1124.753c24.05-8.731,47.926-17.992,72.221-25.979c12.52-4.116,25.556-0.827,32.541,5.498
			c-10.236,1.35-20.78,1.918-30.917,4.259c-17.154,3.959-33.978,9.317-51.082,13.512c-7.377,1.809-15.106,2.182-22.677,3.206
			C194.612,1125.085,194.586,1124.919,194.555,1124.753z" />
			<path fill="#6ABD45" d="M419.341,1331.984c8.241-2.83,15.313-6.465,22.734-7.432c6.094-0.798,12.635,1.406,18.923,2.561
			c10.263,1.883,10.312,2.006,6.285,11.514c-5.474,12.932-3.493,11.769-16.126,6.669
			C440.8,1341.111,430.535,1336.678,419.341,1331.984z" />
			<path fill="#6ABD45" d="M93.388,1198.324c0-11.852,0-22.638,0-35.169c10.847,6.638,20.435,12.507,30.92,18.926
			C113.823,1187.588,104.249,1192.621,93.388,1198.324z" />
			<path fill="#6ABD45" d="M469.435,1245.706c9.072-2.541,16.265-4.558,25.358-7.104c-1.735,9.461-2.872,17.157-4.656,24.698
			c-0.782,3.283-6.721,4.411-8.683,1.638C477.376,1259.159,473.906,1252.953,469.435,1245.706z" />
			<path fill="#FFFFFF" d="M143.073,1276.547c-10.437,7.675-20.946,15.398-32.343,23.775c-1.092-3.839-2.365-7.816-3.262-11.875
			c-0.195-0.872,0.69-2.51,1.539-3.003c10.144-5.936,20.841-10.096,32.884-9.415
			C142.585,1276.068,143.248,1276.632,143.073,1276.547z" />
			<path fill="#FFFFFF" d="M418.082,1289.232c-3.174-1.885-6.351-3.771-9.977-5.923c4.901-4.144,9.244-3.928,12.639-0.003
			c5.606,6.487,10.651,13.456,15.035,20.898c-10.241-4.103-20.527-8.091-30.654-12.455c-1.209-0.521-1.542-3.067-2.282-4.678
			c1.896-0.436,4.004-1.594,5.639-1.123c1.992,0.572,3.466,2.752,5.408,3.784c1.305,0.695,3.026,0.605,4.561,0.866
			C418.324,1290.142,418.205,1289.687,418.082,1289.232z" />
			<path fill="#6ABD45"
				d="M461.862,1320.319c3.261-5.503,6.348-11.191,9.979-16.509c0.97-1.425,3.599-1.714,5.468-2.525
			c0.536,1.833,1.632,3.716,1.474,5.489c-0.21,2.416-1.354,4.757-2.146,7.115C472.969,1324.811,471.829,1325.239,461.862,1320.319z" />
			<path fill="#FFFFFF" d="M453.144,1194.16c5.405,4.994,10.208,9.432,15.896,14.687c-4.136,1.859-7.317,3.637-10.726,4.712
			c-2.678,0.843-6.745-5.822-6.369-10.288C452.163,1200.617,452.629,1197.983,453.144,1194.16z" />
			<path fill="#6ABD45" d="M488.47,1272.183c-2.024,7.724-3.673,14.799-5.903,21.686c-0.327,1.011-3.458,1.591-5.218,1.452
			c-0.839-0.065-2.451-2.697-2.113-3.454c2.906-6.522,6.148-12.895,9.418-19.247C484.849,1272.238,486.138,1272.42,488.47,1272.183z
			" />
			<path fill="#6ABD45" d="M165.548,1125.175c7.884,3.395,15.766,6.789,23.618,10.17
			C176.819,1142.684,177.226,1141.958,165.548,1125.175z" />
			<path fill="#6ABD45" d="M408.005,1327.405c-13.744-5.816-27.482-11.63-42.855-18.136c18.669-1.395,29.556,11.265,43.722,16.052
			C408.58,1326.015,408.291,1326.71,408.005,1327.405z" />
			<path fill="#051732" d="M325.552,1214.358c-9.107-9.786-13.61-21.413-14.564-34.479c-1.06-14.546,2.855-28.037,9.715-40.642
			c2.414-4.428,2.125-8.142,1.073-12.869c-2.515-11.29-4.034-22.803-5.789-34.253c-0.288-1.889,0.265-3.908,0.537-7.138
			c9.646,14.257,18.522,27.368,27.496,40.628C323.168,1151.88,310.156,1180.061,325.552,1214.358z" />
			<path fill="#051732" d="M427.658,1222.931c-9.663-9.415-19.326-18.828-29.289-28.538c-0.888,0.771-2.052,1.785-3.591,3.128
			c-10.265-9.201-20.547-18.423-30.833-27.641c9.444,1.304,10.053-5.389,11.423-11.461c0.673-2.985,1.664-5.897,2.809-9.87
			c17.101,25.084,33.694,49.436,50.293,73.788C428.2,1222.536,427.928,1222.732,427.658,1222.931z" />
			<path fill="#051732" d="M404.207,1219.146c8.816,12.301,17.231,24.037,25.639,35.773c-0.087,0.065-0.177,0.131-0.265,0.196
			c-7.502-7.69-15.002-15.384-22.464-23.034c-4.678,3.297-7.958,5.606-12.774,9.004
			C398.039,1232.864,400.947,1226.399,404.207,1219.146z" />
			<path fill="#051732" d="M453.904,1287.445c-2.683-8.68-4.783-15.469-7.202-23.304c2.384-0.395,6.194-2.198,7.821-1.014
			c2.166,1.583,3.811,5.596,3.568,8.38C457.666,1276.433,455.645,1281.22,453.904,1287.445z" />
		</g>
		<g>
			<path fill="#6ABD45" d="M223.747,902.75c-14.638-0.035-27.204-12.194-27.442-26.551c-0.124-7.314,2.644-14.229,7.792-19.465
			c5.218-5.309,12.209-8.23,19.686-8.23c7.192,0.027,14.244,3.073,19.461,8.355c5.259,5.324,8.24,12.493,8.178,19.671
			c-0.125,14.214-12.766,26.22-27.605,26.22H223.747z" />
			<path fill="#FFFFFF" d="M223.784,850.482c0.035,0,0.069,0,0.105,0c13.82,0.055,25.678,12.135,25.558,26.032
			c-0.116,13.226-11.778,24.26-25.627,24.26c-0.023,0-0.043,0-0.066,0c-13.562-0.034-25.25-11.327-25.471-24.605
			C198.042,862.042,209.534,850.482,223.784,850.482 M223.784,846.528L223.784,846.528c-8.012,0-15.504,3.132-21.096,8.82
			c-5.523,5.62-8.493,13.038-8.359,20.888c0.257,15.405,13.726,28.454,29.414,28.492h0.005h0.071c15.9,0,29.447-12.904,29.582-28.18
			c0.066-7.699-3.122-15.38-8.749-21.078c-5.583-5.652-13.145-8.911-20.749-8.941L223.784,846.528L223.784,846.528z" />
		</g>
		<g>
			<path fill="#6ABD45" d="M71.319,902.827c-7.323-0.189-14.525-3.472-19.759-9.009c-5.25-5.55-8.132-12.949-7.912-20.303
			c0.417-13.837,12.51-25.095,26.956-25.095h0.204c7.173,0.053,14.348,3.245,19.685,8.76c5.375,5.553,8.352,12.902,8.165,20.157
			c-0.332,12.868-13.61,25.495-26.808,25.495L71.319,902.827z" />
			<path fill="#FFFFFF" d="M70.604,850.398c0.063,0,0.125,0,0.191,0c13.997,0.102,26.247,12.828,25.887,26.889
			c-0.305,11.85-12.733,23.57-24.832,23.57c-0.161,0-0.32-0.003-0.479-0.005c-14.288-0.371-26.176-12.965-25.746-27.277
			C46.009,860.804,57.244,850.398,70.604,850.398 M70.604,846.445L70.604,846.445c-15.502,0-28.482,12.116-28.932,27.01
			c-0.237,7.875,2.843,15.793,8.451,21.723c5.593,5.914,13.302,9.423,21.145,9.625c0.193,0.005,0.387,0.008,0.582,0.008
			c14.17,0,28.428-13.583,28.785-27.423c0.199-7.782-2.979-15.648-8.72-21.582c-5.702-5.894-13.39-9.306-21.09-9.36H70.604
			L70.604,846.445z" />
		</g>
		<g>
			<path fill="#6ABD45" d="M371.988,902.122c-6.827-0.124-13.688-3.196-18.825-8.432c-5.146-5.243-8.028-12.107-7.905-18.832
			c0.274-14.907,11.804-25.727,27.42-25.727h0.315c7.326,0.072,14.583,3.356,19.909,9.015c4.857,5.159,7.462,11.747,7.141,18.07
			c-0.714,14.043-13.344,25.91-27.584,25.91L371.988,902.122z" />
			<path fill="#FFFFFF" d="M372.677,851.106c0.095,0,0.195,0,0.297,0c13.577,0.132,25.741,12.251,25.096,25.008
			c-0.667,13.107-12.357,24.035-25.611,24.035c-0.145,0-0.288-0.003-0.436-0.006c-13.24-0.241-25.025-12.248-24.788-25.251
			C347.485,861.171,358.276,851.106,372.677,851.106 M372.677,847.153L372.677,847.153c-16.472,0-29.106,11.895-29.396,27.668
			c-0.134,7.252,2.956,14.633,8.47,20.253c5.498,5.601,12.861,8.891,20.198,9.022c0.171,0.003,0.338,0.006,0.509,0.006
			c15.257,0,28.793-12.726,29.557-27.788c0.349-6.859-2.452-13.976-7.678-19.527c-5.693-6.047-13.466-9.559-21.328-9.636
			L372.677,847.153L372.677,847.153z" />
		</g>
		<g>
			<path fill="#6ABD45" d="M524.923,901.813c-7.592,0-15.073-3.144-20.517-8.625c-4.803-4.833-7.429-10.881-7.388-17.026
			c0.09-14.357,12.545-26.594,27.193-26.719h0.245c14.974,0,26.818,11.633,26.957,26.481c0.137,14.755-10.818,25.643-26.047,25.887
			L524.923,901.813z" />
			<path fill="#FFFFFF" d="M524.455,851.419c13.776,0,24.854,10.851,24.981,24.524c0.125,13.552-10.077,23.664-24.102,23.889
			c-0.137,0.002-0.272,0.003-0.412,0.003c-13.776,0-26.009-11.116-25.93-23.662c0.088-13.246,11.698-24.638,25.235-24.754
			C524.305,851.419,524.381,851.419,524.455,851.419 M524.457,847.465l-0.261,0.001c-15.706,0.135-29.058,13.271-29.155,28.682
			c-0.044,6.677,2.784,13.224,7.963,18.436c5.813,5.852,13.804,9.206,21.919,9.206c0.158,0,0.319-0.001,0.478-0.003
			c16.103-0.26,28.136-12.244,27.992-27.879C553.24,859.958,540.531,847.465,524.457,847.465L524.457,847.465z" />
		</g>
		<g>
			<g>
				<path fill="#FFFFFF" d="M62.168,961.25l-19.076,83.981H21.858l6.836-31.434H18.498l-7.439,31.434h-21.234L9.021,961.25h21.115
				l-6.839,31.432h10.2l7.557-31.432H62.168 M71.12,954.103h-8.952H41.053h-2.049h-8.869H9.021H3.324l-1.27,5.555l-19.196,83.982
				l-1.999,8.74h8.964H11.06h5.653h5.145h21.234h5.705l1.264-5.563l19.076-83.98L71.12,954.103L71.12,954.103z" />
				<path fill="#FFFFFF" d="M113.034,961.25l8.16,10.198l-14.278,63.585l-12.957,10.2H62.406l-8.158-10.2l14.398-63.585
				l12.957-10.198H113.034 M98.039,982.365H87.122l-9.599,41.753h10.917L98.039,982.365 M116.471,954.103h-3.436H81.604H79.13
				l-1.945,1.531l-12.957,10.197l-1.992,1.569l-0.559,2.47l-14.398,63.586l-0.758,3.354l2.149,2.688l8.158,10.197l2.147,2.685h3.435
				h31.553h2.475l1.945-1.532l12.957-10.198l1.997-1.57l0.556-2.479l14.276-63.586l0.752-3.35l-2.145-2.681l-8.16-10.197
				L116.471,954.103L116.471,954.103z" />
				<path fill="#FFFFFF"
					d="M173.5,961.25l8.159,10.317l-4.678,21.114l-13.076,10.919l8.277,10.315l-4.92,21.116l-12.835,10.199
				h-10.318l6.839-31.314H140.75l-7.557,31.314h-21.118l19.076-83.981H173.5 M158.504,982.365h-10.919l-2.039,10.317h10.197
				L158.504,982.365 M176.96,954.103h-3.458h-42.351h-5.705l-1.264,5.563l-19.076,83.981l-1.983,8.731h8.952h21.115h5.627h5.29
				h10.318h2.493l1.952-1.552l12.837-10.198l1.949-1.549l0.565-2.426l4.918-21.114l0.788-3.385l-2.174-2.708l-3.892-4.853
				l7.696-6.427l1.873-1.561l0.526-2.379l4.677-21.115l0.736-3.314l-2.107-2.664l-8.159-10.315L176.96,954.103L176.96,954.103z" />
				<path fill="#FFFFFF" d="M233.608,961.25l8.875,10.198l-4.799,18.475H216.57l2.039-7.437h-10.317l-3.359,12.835h21.236
				l8.159,10.319l-6.119,29.392l-12.958,10.199h-32.152l-8.159-10.199l4.08-18.475h21.236l-1.441,7.437h10.2l3.479-12.956h-21.833
				l-7.559-10.198l6.238-29.393l12.956-10.198L233.608,961.25 M236.861,954.103h-3.253h-31.316h-2.474l-1.946,1.531l-12.956,10.197
				l-2.034,1.602l-0.537,2.531l-6.24,29.393l-0.669,3.151l1.919,2.588l3.197,4.315h-1.535h-5.742l-1.236,5.605l-4.079,18.477
				l-0.737,3.336l2.136,2.669l8.157,10.197l2.146,2.685h3.436h32.152h2.475l1.945-1.532l12.957-10.198l2.046-1.61l0.534-2.548
				l6.117-29.396l0.68-3.27l-2.07-2.617l-3.272-4.139h1.023h5.528l1.389-5.351l4.799-18.476l0.947-3.646l-2.472-2.842L239,956.558
				L236.861,954.103L236.861,954.103z" />
				<path fill="#FFFFFF" d="M306.55,961.25l-4.681,21.114h-31.431l-2.761,10.317h32.152l-4.798,21.116h-32.152l-2.039,10.319h31.432
				l-4.797,21.114h-42.352l-8.158-10.199l14.396-63.585l12.837-10.198L306.55,961.25 M315.45,954.103h-8.903h-42.35h-2.493
				l-1.952,1.551l-12.837,10.199l-1.97,1.563l-0.553,2.454l-14.398,63.586l-0.759,3.354l2.149,2.688l8.158,10.197l2.146,2.685h3.434
				h42.352h5.705l1.264-5.563l4.797-21.116l1.082-4.755h0.414l1.264-5.562l4.798-21.116l1.985-8.732h-0.3l0.363-1.624l4.68-21.116
				L315.45,954.103L315.45,954.103z" />
				<path fill="#FFFFFF" d="M333.781,961.25l-14.395,62.744h32.154l-4.8,21.237H304.39l-8.156-10.318l16.315-73.663H333.781
				 M342.756,954.103h-8.975h-21.235h-5.737l-1.239,5.602l-16.317,73.665l-0.733,3.313l2.106,2.664l8.157,10.317l2.147,2.716h3.46
				h42.349h5.716l1.256-5.571l4.8-21.235l1.97-8.724h-8.941h-23.184l12.394-54.002L342.756,954.103L342.756,954.103z" />
				<path fill="#FFFFFF" d="M416.323,961.25l8.159,10.198l-14.275,63.585l-12.959,10.2h-31.553l-8.157-10.2l14.396-63.585
				l12.957-10.198H416.323 M401.328,982.365h-10.919l-9.598,41.753h10.916L401.328,982.365 M419.758,954.103h-3.436H384.89h-2.474
				l-1.945,1.531l-12.957,10.197l-1.991,1.569l-0.559,2.47l-14.4,63.586l-0.761,3.354l2.149,2.688l8.16,10.197l2.146,2.685h3.433
				h31.553h2.477l1.942-1.532l12.959-10.198l2-1.57l0.553-2.479l14.275-63.588l0.755-3.348l-2.147-2.681l-8.156-10.197
				L419.758,954.103L419.758,954.103z" />
				<path fill="#FFFFFF" d="M476.788,961.25l8.156,10.317l-4.678,21.114l-13.079,10.919l8.279,10.315l-4.915,21.116l-12.84,10.199
				h-10.316l6.838-31.314h-10.199l-7.558,31.314h-21.116l19.075-83.981H476.788 M461.791,982.365h-10.917l-2.04,10.317h10.199
				L461.791,982.365 M480.25,954.103h-3.46h-42.352h-5.707l-1.262,5.563l-19.075,83.981l-1.983,8.731h8.952h21.116h5.625h5.291
				h10.316h2.493l1.95-1.552l12.837-10.198l1.951-1.549l0.563-2.426l4.92-21.114l0.788-3.385l-2.177-2.708l-3.894-4.853l7.702-6.427
				l1.868-1.561l0.528-2.379l4.678-21.115l0.736-3.314l-2.106-2.664l-8.162-10.315L480.25,954.103L480.25,954.103z" />
				<path fill="#FFFFFF" d="M539.654,961.25l8.279,10.198l-14.397,63.585l-12.957,10.2h-42.352l19.195-83.982L539.654,961.25
				 M524.656,982.365H513.74l-9.598,41.753h10.916L524.656,982.365 M543.054,954.103h-3.4h-42.231h-5.696l-1.27,5.555
				l-19.195,83.982l-1.997,8.74h8.963h42.352h2.471l1.948-1.532l12.954-10.198l1.997-1.567l0.556-2.472l14.395-63.585l0.769-3.388
				l-2.188-2.698l-8.279-10.196L543.054,954.103L543.054,954.103z" />
				<path fill="#FFFFFF" d="M598.678,961.25l8.879,10.198l-4.798,18.475h-21.115l2.037-7.437h-10.314l-3.358,12.835h21.235
				l8.157,10.319l-6.119,29.392l-12.957,10.199H548.17l-8.159-10.199l4.078-18.475h21.235l-1.436,7.437h10.197l3.479-12.956H555.73
				l-7.557-10.198l6.238-29.393l12.957-10.198L598.678,961.25 M601.934,954.103h-3.256h-31.31h-2.477l-1.942,1.531l-12.957,10.197
				l-2.035,1.602l-0.539,2.531l-6.239,29.393l-0.67,3.151l1.918,2.588l3.198,4.315h-1.536h-5.74l-1.237,5.605l-4.078,18.477
				l-0.735,3.336l2.133,2.669l8.16,10.197l2.144,2.685h3.436h32.151h2.477l1.948-1.532l12.954-10.198l2.049-1.611l0.531-2.547
				l6.118-29.396l0.679-3.27l-2.07-2.617l-3.272-4.139h1.021h5.53l1.387-5.351l4.801-18.476l0.945-3.646l-2.469-2.842l-8.878-10.199
				L601.934,954.103L601.934,954.103z" />
			</g>
			<g>
				<path fill="#051732" d="M33.495,992.682l7.557-31.432h21.115l-19.076,83.981H21.858l6.836-31.434H18.498l-7.439,31.434h-21.234
				L9.021,961.25h21.115l-6.839,31.432H33.495L33.495,992.682z" />
				<path fill="#051732" d="M54.248,1035.034l14.398-63.585l12.957-10.198h31.431l8.16,10.198l-14.278,63.585l-12.957,10.2H62.406
				L54.248,1035.034z M88.441,1024.118l9.598-41.753H87.122l-9.599,41.753H88.441z" />
				<path fill="#051732" d="M133.19,1045.232h-21.115l19.076-83.981h42.351l8.159,10.318l-4.678,21.113l-13.077,10.919l8.278,10.315
				l-4.92,21.116l-12.835,10.199h-10.318l6.839-31.314h-10.198L133.19,1045.232z M145.548,992.682h10.197l2.761-10.317h-10.919
				L145.548,992.682z" />
				<path fill="#051732" d="M218.609,982.487h-10.317l-3.359,12.835h21.236l8.159,10.319l-6.119,29.392l-12.958,10.199h-32.152
				l-8.159-10.199l4.08-18.475h21.236l-1.441,7.437h10.2l3.479-12.956h-21.833l-7.559-10.198l6.238-29.393l12.956-10.198h31.316
				l8.875,10.198l-4.799,18.475h-21.115L218.609,982.487z" />
				<path fill="#051732" d="M292.273,1024.118l-4.798,21.116h-42.352l-8.158-10.2l14.397-63.585l12.836-10.198h42.352l-4.681,21.114
				h-31.431l-2.761,10.317h32.152l-4.798,21.116h-32.152l-2.039,10.319H292.273L292.273,1024.118z" />
				<path fill="#051732"
					d="M333.781,961.25l-14.395,62.744h32.154l-4.8,21.237H304.39l-8.156-10.318l16.315-73.663H333.781z" />
				<path fill="#051732" d="M357.535,1035.034l14.395-63.585l12.957-10.198h31.433l8.159,10.198l-14.275,63.585l-12.959,10.2h-31.553
				L357.535,1035.034z M391.728,1024.118l9.601-41.753h-10.919l-9.598,41.753H391.728z" />
				<path fill="#051732" d="M436.477,1045.232h-21.116l19.075-83.981h42.353l8.156,10.318l-4.678,21.113l-13.079,10.919l8.279,10.315
				l-4.915,21.116l-12.84,10.199h-10.316l6.838-31.314h-10.199L436.477,1045.232z M448.831,992.682h10.202l2.758-10.317h-10.917
				L448.831,992.682z" />
				<path fill="#051732" d="M478.227,1045.232l19.195-83.981h42.231l8.279,10.198l-14.397,63.585l-12.957,10.2h-42.352V1045.232z
				 M504.143,1024.118h10.916l9.598-41.753H513.74L504.143,1024.118z" />
				<path fill="#051732" d="M583.681,982.487h-10.314l-3.358,12.835h21.235l8.157,10.319l-6.119,29.392l-12.957,10.199H548.17
				l-8.159-10.199l4.078-18.475h21.235l-1.436,7.437h10.197l3.479-12.956H555.73l-7.557-10.198l6.238-29.393l12.957-10.198h31.313
				l8.879,10.198l-4.801,18.475h-21.113L583.681,982.487z" />
			</g>
		</g>
	</g>
</svg>
