<svg version="1.1" baseProfile="basic" id="Layer_1" xmlns="http://www.w3.org/2000/svg"
	xmlns:xlink="http://www.w3.org/1999/xlink" x="0px" y="0px" viewBox="-101.86 821.445 800 800" xml:space="preserve">
	<g>
		<path fill="#EAEAE8" d="M129.559,1224.463c-2.162,21.189-18.603,37.958-40.652,37.854l-4.544,1.028
		c-0.052-6.07,6.008-3.314,10.38-8.619l-2.068-1.909l-3.768-6.603l-4.57,0.052l2.608,8.249l-4.42,0.141l-1.195-1.839l-3.342-5.286
		l-7.056-0.366l-0.08,1.961l4.204,6.3l-3.88,0.155l-2.137-3.688l-2.169-3.584l-4.45-0.237l-3.653,0.078l0.829,6.507l-3.81-5.608
		h-4.711h-3.775l0.923,5.679l-0.052,1.953l5.747,9.403l13.03,5.353l-9.255,5.061l-13.249,15.159
		c3.429,11.391,29.575,5.216,37.828,1.865c9.923-4.011,26.819-16.296,32.172-17.968c3.298-2.197,5.739-6.803,9.272-7.395
		l-1.702,5.479c9.935,15,31.251-27.012,33.265-33.204c3.078-9.525-2.364-15.101-9.951-21.396
		C125.137,1202.243,132.114,1220.458,129.559,1224.463L129.559,1224.463z" />
		<path fill="#EAEAE8"
			d="M78.494,1159.172l0.087,2.686c7.343,0.393,18.246-4.587,28.275-4.587h11.364l8.66,1.014l0.27,1.158
		l-6.097,8.234c-1.089,4.55-9.906,23.338-13.335,25.657l-29.462-15.07l5.948-6.463c-3.646-1.42-4.718-2.112-8.554-2.216
		l-2.922-0.096l-14.183,9.314c0.271,0.803,14.427,27.101,15.34,28.521l-0.129,4.823l0.026,2.841l-7.535,1.106l-4.772-0.182
		l-8.477-1.136c1.563,6.219,6.357,6.892,5.416,16.1c-3.88,3.688-11.547,9.34-12.061,15.333h4.716l3.612-0.052l2.164-10.421
		l0.899,3.836l-0.053,5.679h7.563v-2.834v-1.86l2.843-4.754l0.744-1.105l2.878,0.236l-2.103,9.104l7.004,0.289
		c0-4.028,0.401-6.732,2.817-9.474l4.554-1.028l0.216,3.865l-0.026,0.958l0.054,3.61l3.732,0.159v-2.845l1.866-4.72l5.022-4.413
		c-6.707-9.829-16.336-17.261-16.362-30.578l0.087-1.99l-2.129-2.634l4.272-10.065l2.512,3.308l14.557,22.198
		c19.249-2.253,31.721-17.915,49.734-22.198l-5.652-9.444h-5.678l-1.899-0.951c-2.504-3.898,1.186-8.852-4.414-18.296
		c-1.761-3.037-7.31-9.178-9.995-12.707l-6.401-0.229C101.309,1146.858,88.313,1152.736,78.494,1159.172L78.494,1159.172z" />
		<path fill="#EAEAE8" d="M286.549,955.731c107.13,18.644,128.568,34.259,208.058,102.19
		C506.627,1014.208,327.97,945.562,286.549,955.731L286.549,955.731z" />
		<path fill="#EAEAE8"
			d="M61.477,1154.419l13.432,5.859l1.709-2.075c9.901-6.463,17.591-16.554,29.732-21.315l0.505-1.368
		c-0.479-5.686-20.078-18.57-25.528-19.887l-6.838,10.246l0.298,4.028c-4.483,7.973-8.836,13.573-13.362,21.622L61.477,1154.419z" />
		<path fill="#EAEAE8" d="M518.259,1176.208c3.106-2.416,14.811-28.706,17.653-34.392c5.319-10.639,16.467-29.442,6.089-39.371
		c-2.688,3.814,0,14.228-3.039,20.62c-2.721,5.645-5.477,11.009-7.85,16.79C527.769,1148.035,518.54,1168.373,518.259,1176.208
		L518.259,1176.208z" />
		<path fill="#7D8282"
			d="M244.956,1079.673c15.803,0,36.554,1.316,51.974,4.779c15.427,3.455,6.742,5.067,20.416-0.496
		c9.422-3.829,11.27-0.654,20.271-8.061c-3.628-20.634-46.486-31.702-64.522-33.855c-30.369-3.64-56.85,1.291-85.594,10.439
		c-12.76,4.047-24.308,11.102-38.105,11.075c-16.127-0.019-29.366-2.845-46.843-1.483c-33.667,2.634-52.122,14.549-37.293,49.784
		c4.359-6.271,3.409-27.281,16.597-29.068c8.331-1.124,24.553,8.23,32.246,12.385c19.92,10.761,35.933,22.048,52.975,36.874
		c26.27,22.824,64.657,74.398,71.249,108.517l9.367-2.091l0.669-1.912c6.141,0.185,18.649-7.195,26.866-7.38
		c0.829-32.079-16.042-59.324-39.981-79.237c-11.049-9.148-24.481-15.559-36.972-22.609c-6.246-3.521-12.734-7.646-18.847-11.435
		c-3.044-1.864-6.342-3.88-9.437-5.711c-0.646-0.399-9.054-5.112-8.704-5.468l0.566-0.403l56.396,26.132l4.918-1.779
		c-7.822-10.236-44.941-26.173-54.817-34.773c53.178,8.627,106.207,18.796,157.951,34.059
		c108.411,31.991,79.035,103.675,79.666,104.292l0.052,0.107c34.764-50.306-17.863-88.152-57.65-109.467
		c-22.15-11.89-45.37-18.544-69.424-25.162c-12.385-3.411-26.873-5.571-39.623-7.676c-6.697-1.099-13.641-2.627-20.373-3.271
		c-3.509-0.348-7.021-0.396-10.528-0.81c-0.967-0.107-9.15-1.864-9.096-2.242l0.054-0.244l42.683-4.483L244.956,1079.673z" />
		<path fill="#7D8282" d="M518.259,1176.208c0.279-7.835,9.51-28.173,12.855-36.353c2.373-5.781,5.129-11.146,7.852-16.79
		c3.037-6.393,0.35-16.806,3.037-20.62c10.376,9.929-0.77,28.732-6.089,39.371C533.072,1147.501,521.365,1173.792,518.259,1176.208
		L518.259,1176.208z M286.549,955.731c41.419-10.169,220.077,58.478,208.058,102.19C415.116,989.99,393.679,974.375,286.549,955.731
		L286.549,955.731z M31.205,1038.978c19.249-8.505,36.639-19.092,56.566-27.597c19.73-8.415,41.568-15.739,62.387-20.859
		c49.967-12.237,99.908-14.778,150.729-6.569c43.601,7.058,83.858,22.85,121.274,46.147c17.826,11.135,30.998,22.85,46.399,36.814
		c9.492,8.593,14.688,12.271,14.793,26.323c0.07,12.566-1.883,26.775-1.986,40.373c8.824-3.751,27.663-26.36,36.229-22.879
		c2.058,8.312-12.786,19.842-7.798,32.35c4.149,10.413,4.676,28.494,4.676,39.755v7.558c4.865-6.951,33.125-61.503,34.346-67.829
		c2.863-14.94-4.256-28.221-20.162-29.582c-15.839-1.369-25.313,4.554-38.761,11.312c2.021-13.109,3.819-25.513,7.378-38.305
		c3.579-12.77,6.002-22.365-4.639-32.316c-15.296-14.242-34.083-28.458-52.224-38.838c-40.958-23.498-91.614-38.62-138.493-43.129
		c-53.561-5.128-109.11-2.546-160.07,16.31C104.255,981.94,56.802,1007.613,31.205,1038.978L31.205,1038.978z" />
		<path fill="#7D8282" d="M161.742,1329.492c13.92,0,35.879,4.432,43.242-7.85c4.683-7.868,16.293-20.567,23.157-26.968
		c17.608-16.483,41.793-33.178,66.589-35.131c22.842-1.816,55.324,13.676,73.829,26.723c10.587,7.48,18.507,14.339,28.051,22.954
		c10.745,9.718,15.646,20.009,29.916,20.268c-2.268-11.16-21.683-30.732-30.039-39.038c-6.191-6.174-12.034-10.779-19.013-15.977
		c-4.935-3.662-16.848-10.554-19.99-14.061c22.535,2.808,52.575,17.375,72.216,28.99c8.721,5.165,20.636,15.071,27.84,22.296
		c17.531,17.689,3.278,17.948,32.357,17.793c-23.321-60.46-105.622-95.329-166.622-94.789
		c-35.112,0.289-70.732,11.768-100.657,29.864c-21.829,13.188-54.711,41.29-64.679,64.925H161.742L161.742,1329.492z" />
		<path fill="#7D8282" d="M129.559,1224.463c2.555-4.002-4.422-22.221,15.77-5.423c7.587,6.296,13.028,11.871,9.951,21.396
		c-2.016,6.192-23.331,48.204-33.265,33.2l-5.042,7.395c16.241,0.019,19.38-1.291,33.833-6.939
		c6.044-2.356,21.542-10.483,24.683-15.98c1.761-3.107-1.396-29.627-1.474-36.493c-0.207-20.975,11.042-10.265,1.909-28.388
		c-4.646,1.239-19.343,18.841-22.824,22.813l-10.126-5.956l-3.941,0.174h-1.911l-7.562,0.988v8.46V1224.463z" />
		<path fill="#7D8282" d="M83.238,1188.485l-1.145,4.85l13.591,21.5c13.353,0.977,26.113-6.654,36.909-13.857
		c16.119-10.709,20.81-10.894,39.676-11.607l-3.803-7.477l-26.594-2.852l5.652,9.443c-18.013,4.284-30.485,19.95-49.734,22.195
		L83.238,1188.485z" />
		<path fill="#7D8282" d="M134.295,1178.09v-12.296c4.038,2.127,18.157,7.272,22.108,6.007c2.46-7.805-5.477-13.997-10.509-18.551
		c-7.31-6.637-13.676-7.162-22.956-7.317l-7.657-0.114l-1.798,1.039l6.401,0.226c2.686,3.533,8.234,9.674,9.996,12.707
		C135.482,1169.235,131.792,1174.191,134.295,1178.09L134.295,1178.09z" />
		<path fill="#7D8282"
			d="M89.832,1234.859l2.256,6.559c7.991-0.644,23.087-4.754,28.014-12.233l-7.43-7.895l-6.725,3.097
		l-9.472,1.157l-3.803-0.155c-5.198-7.997-10.23-19.868-14.181-25.521c0.026,13.317,9.655,20.749,16.362,30.577L89.832,1234.859z" />
		<path fill="#7D8282" d="M81.327,1115.633c5.451,1.316,25.047,14.201,25.528,19.887l1.751-0.141l2.19-2.597
		c-0.392-11.183-12.464-23.819-22.833-24.711L81.327,1115.633z" />
		<path fill="#7D8282" d="M44.443,1291.656l-1.981,2.737c15.257,21.367,60.88-2.845,71.981-18.836
		c-5.353,1.672-22.249,13.953-32.172,17.964C74.02,1296.872,47.872,1303.046,44.443,1291.656L44.443,1291.656z" />
		<path fill="#7D8282" d="M121.055,1167.677l6.096-8.234l-0.27-1.158l-8.66-1.014h-11.364c-10.029,0-20.932,4.979-28.275,4.587
		l-0.087-2.686l-1.875-0.969l-1.709,2.075l-13.432-5.859l0.096,1.794c5.774,3.551,14.854,8.645,21.665,7.68l32.096-4.129
		l2.885,0.352l3.202,0.426L121.055,1167.677z" />
		<path fill="#7D8282" d="M92.675,1252.818l2.068,1.909c-4.372,5.305-10.432,2.549-10.38,8.619l4.544-1.028l-3.707-0.122l15.927-4.92
		l0.08-3.488c-0.88-3.674-1.913-5.716-4.833-7.65l-2.51,1.317l-0.244,3.507L92.675,1252.818z" />
		<polygon fill="#7D8282" points="57.691,1276.497 66.947,1271.44 53.914,1266.083 	" />
		<polygon fill="#7D8282" points="87.966,1242.423 84.233,1242.264 84.179,1238.654 84.205,1237.696 83.987,1233.83 79.435,1234.859 
		80.586,1236.664 80.403,1238.654 80.403,1243.375 84.179,1243.375 86.055,1243.375 	" />
		<path fill="#7D8282" d="M81.327,1252.818l1.195,1.839l4.42-0.137l-2.608-8.249l4.57-0.053c-1.056-0.669,1.249-0.961-2.852-0.961
		c-3.087,0-3.087,0.473-4.728,1.912L82.37,1252L81.327,1252.818z" />
		<polygon fill="#7D8282" points="76.618,1244.333 69.614,1244.043 71.717,1234.94 68.837,1234.703 68.097,1235.809 69.24,1237.625 
		69.038,1239.579 69.038,1245.257 72.806,1245.257 74.708,1245.257 	" />
		<polygon fill="#7D8282" points="69.038,1251.893 71.175,1255.582 75.055,1255.426 70.853,1249.13 70.931,1247.166 69.806,1247.917 
		70.051,1251.039 	" />
		<polygon fill="#7D8282" points="48.219,1254.727 47.297,1249.048 51.072,1249.048 55.782,1249.048 53.992,1247.917 
		52.013,1248.098 46.355,1248.098 46.355,1250.961 	" />
		<path fill="#010101" d="M161.742,1329.492h-3.803c9.97-23.635,42.85-51.737,64.679-64.925
		c29.924-18.097,65.544-29.575,100.657-29.864c61-0.54,143.299,34.329,166.622,94.789c-29.079,0.155-14.826-0.104-32.357-17.793
		c-7.206-7.221-19.121-17.131-27.84-22.296c-19.641-11.615-49.679-26.183-72.216-28.99c3.141,3.507,15.054,10.398,19.99,14.061
		c6.979,5.197,12.823,9.803,19.013,15.98c8.356,8.302,27.771,27.874,30.039,39.034c-14.27-0.259-19.171-10.55-29.916-20.268
		c-9.542-8.615-17.464-15.474-28.051-22.954c-18.505-13.051-50.988-28.539-73.829-26.723c-24.796,1.953-48.981,18.647-66.589,35.131
		c-6.864,6.4-18.472,19.1-23.157,26.968C197.621,1333.923,175.663,1329.492,161.742,1329.492L161.742,1329.492z M122.013,1273.637
		l1.702-5.479c-3.533,0.596-5.974,5.197-9.272,7.398c-11.101,15.991-56.724,40.207-71.981,18.836l1.981-2.737l13.249-15.159
		l-3.777-10.413l-5.747-9.403l0.052-1.953l-1.864-3.766v-2.863h5.66l1.979-0.182l1.789,1.132l3.81,5.608l-0.829-6.507l3.653-0.078
		l4.448,0.237l2.171,3.584l1.012-0.854l-0.244-3.118l1.125-0.751l7.056,0.366l3.342,5.286l1.045-0.825l-1.045-4.831
		c1.639-1.438,1.639-1.908,4.728-1.908c4.101,0,1.796,0.284,2.852,0.958l3.766,6.603l0.943-1.856l0.246-3.507l2.51-1.317
		c2.92,1.935,3.951,3.977,4.833,7.65l-0.08,3.488l-15.927,4.92l3.707,0.122c22.049,0.104,38.489-16.669,40.653-37.854v-4.753v-8.46
		l7.561-0.988h1.911l3.941-0.174l10.126,5.956c3.479-3.977,18.176-21.578,22.824-22.813c9.133,18.123-2.118,7.413-1.909,28.388
		c0.08,6.866,3.235,33.386,1.474,36.493c-3.141,5.493-18.639,13.624-24.683,15.98c-14.453,5.648-17.591,6.958-33.833,6.939
		L122.013,1273.637z M106.856,1135.52l-0.505,1.368c-12.141,4.762-19.833,14.853-29.732,21.315l1.875,0.969
		c9.819-6.437,22.815-12.314,34.991-12.314l1.798-1.036l7.657,0.115c9.279,0.155,15.646,0.681,22.956,7.316
		c5.033,4.551,12.969,10.743,10.509,18.552c-3.951,1.262-18.07-3.884-22.108-6.011v12.3l1.9,0.95h5.678l26.594,2.853l3.803,7.473
		c-18.864,0.718-23.557,0.898-39.676,11.611c-10.796,7.202-23.557,14.834-36.909,13.857l-13.591-21.5l1.145-4.85l-2.512-3.307
		l-4.273,10.065l2.129,2.634l-0.087,1.986c3.951,5.652,8.984,17.523,14.181,25.524l3.803,0.155l9.472-1.161l6.725-3.097l7.43,7.895
		c-4.927,7.483-20.024,11.593-28.014,12.236l-2.257-6.559l-1.866,4.721v2.841l-1.911,0.951h-1.875h-3.777v-4.717l0.183-1.99
		l-1.15-1.806c-2.416,2.737-2.817,5.441-2.817,9.474l-1.911,0.922h-1.899h-3.77v-5.675l0.202-1.957l-1.145-1.813l-2.843,4.753v1.857
		v2.834h-7.563l0.054-5.675l-0.899-3.84l-2.164,10.424l-3.612,0.052h-4.717c0.513-5.992,8.179-11.645,12.062-15.333
		c0.941-9.211-3.853-9.884-5.416-16.103l8.477,1.136l4.772,0.185l7.535-1.105l-0.026-2.845l0.129-4.82
		c-0.914-1.424-15.068-27.718-15.34-28.521l14.183-9.314l2.922,0.096c3.836,0.104,4.909,0.792,8.555,2.216l-5.948,6.463
		l29.462,15.07c3.429-2.323,12.245-21.107,13.336-25.661l0.368-7.136l-3.202-0.426l-2.886-0.352l-32.096,4.128
		c-6.812,0.966-15.89-4.128-21.664-7.679l-0.096-1.795l-0.05-2.885c4.526-8.05,8.878-13.65,13.362-21.622l-0.298-4.028l6.838-10.251
		l6.636-7.561c10.369,0.892,22.441,13.527,22.833,24.711l-2.19,2.597L106.856,1135.52z M244.956,1079.673l-2.904-0.67l-42.683,4.483
		l-0.054,0.244c-0.052,0.374,8.129,2.135,9.096,2.241c3.507,0.419,7.021,0.463,10.528,0.811c6.732,0.644,13.676,2.172,20.374,3.271
		c12.75,2.101,27.239,4.265,39.622,7.676c24.054,6.617,47.272,13.272,69.425,25.162c39.788,21.314,92.415,59.161,57.65,109.467
		l-0.052-0.107c-0.629-0.618,28.746-72.301-79.667-104.292c-51.744-15.263-104.772-25.432-157.95-34.059
		c9.873,8.601,46.995,24.537,54.817,34.772l-4.918,1.779l-56.396-26.131l-0.566,0.403c-0.35,0.354,8.059,5.067,8.704,5.467
		c3.096,1.832,6.392,3.848,9.437,5.716c6.115,3.784,12.602,7.909,18.848,11.431c12.49,7.051,25.922,13.457,36.972,22.609
		c23.941,19.913,40.81,47.157,39.981,79.237c-8.216,0.185-20.723,7.561-26.865,7.38l-0.67,1.912l-9.366,2.09
		c-6.592-34.117-44.979-85.691-71.249-108.516c-17.042-14.827-33.056-26.113-52.975-36.874c-7.694-4.154-23.916-13.51-32.246-12.385
		c-13.186,1.786-12.235,22.798-16.597,29.068c-14.828-35.235,3.629-47.15,37.294-49.784c17.479-1.361,30.718,1.465,46.843,1.483
		c13.798,0.026,25.345-7.028,38.106-11.075c28.747-9.152,55.225-14.079,85.594-10.439c18.035,2.153,60.895,13.221,64.521,33.855
		c-9,7.405-10.85,4.228-20.27,8.061c-13.675,5.563-4.988,3.95-20.417,0.495C281.508,1080.99,260.76,1079.673,244.956,1079.673
		L244.956,1079.673z M31.205,1038.978c25.597-31.365,73.05-57.038,110.644-70.958c50.96-18.859,106.507-21.441,160.07-16.311
		c46.879,4.51,97.536,19.632,138.493,43.126c18.141,10.38,36.928,24.596,52.226,38.842c10.639,9.95,8.216,19.543,4.637,32.313
		c-3.559,12.795-5.354,25.199-7.378,38.305c13.448-6.758,22.922-12.677,38.761-11.312c15.906,1.361,23.025,14.645,20.162,29.586
		c-1.221,6.322-29.479,60.878-34.345,67.829v-7.562c0-11.261-0.523-29.339-4.676-39.752c-4.989-12.511,9.854-24.037,7.798-32.35
		c-8.565-3.48-27.404,19.125-36.23,22.876c0.104-13.598,2.057-27.803,1.986-40.373c-0.104-14.05-5.301-17.73-14.793-26.319
		c-15.401-13.965-28.573-25.681-46.399-36.818c-37.415-23.294-77.676-39.09-121.274-46.145
		c-50.822-8.208-100.761-5.671-150.729,6.566c-20.819,5.12-42.659,12.444-62.387,20.863
		C67.844,1019.886,50.454,1030.473,31.205,1038.978L31.205,1038.978z M478.543,1136.463h3.803
		c7.202-4.798,22.361-18.97,29.286-20.83c-13.99,31.477-27.122,51.022-45.264,79.614c-7.223,11.434-17.464,26.042-26.112,36.337
		c-4.31,5.083-8.81,14.656-14.896,16.769c-10.5,3.644-0.854-12.951,0.594-15.167c19.047-29.323-2.166-66.286-24.337-86.946
		c-21.473-19.949-54.491-36.285-82.891-42.914c-0.019-18.378,17.407-12.308,29.148-22.876c1.953-20.679-11.357-25.81-27.508-33.641
		c-17.836-8.679-29.758-12.008-49.678-13.676c-18.395-1.543-41.714-2.094-59.559,2.286c-8.479,2.094-17.331,3.207-25.643,5.57
		c-8.059,2.339-15.596,5.768-24.047,8.131c-29.296,8.18-86.502,0-106.903,19.791c-12.688,12.26-8.982,33.56-0.15,46.939
		c3.953,6.019,11.776,10.92,8.61,18.866c-3.455,8.571-8.706,12.192-8.835,23.249c5.458,5.549,8.084,4.835,13.081,8.689
		c-3.522,3.13-10.395,9.041-16.171,9.548c0.105,4.935,1.047,4.425,4.509,7.779c0.873,6.873,4.012,10.851,4.012,19.65v5.679v0.95
		l-9.489-0.133l-4.071,0.751c-1.953,6.141,5.146,12.056,5.815,18.192c-2.284,4.543-9.977,11.975-10.343,17.139
		c-0.2,2.189,4.528,19.887,5.601,21.943c7.028,13.536-19.432,18.858-17.46,32.62c6.838,6.455,24.596,8.845,33.746,8.845
		c9.183,0,17.39-1.272,26.092-4.136c7.162-2.408,16.521-7.694,22.122-9.141c1.716,7.572,11.658,32.027,17.11,36.84
		c6.97,6.178,40.505,3.873,51.922,3.873h287.511h-5.669c9.524,0,37.19,1.587,43.923-2.563c1.885-7.535-16.798-27.366-21.612-33.962
		c-7.188-9.906-22.729-21.142-27.998-28.784c8.88-15.277,25.836-34.439,36.702-50.368c4.465-6.573,12.054-20.686,18.579-23.741
		c7.519-3.533,13.502-18.785,17.268-26.486c7.747-15.918,27.193-45.675,24.458-62.613c-1.798-11.382-12.161-19.398-23.271-20.39
		c-14.758-1.317-22.295,4.332-34.938,9.521c5.981-21.186,16.326-50.42,0.052-69.305c-8.48-9.829-43.052-32.435-55.42-38.949
		c-42.772-22.554-97.055-37.547-145.059-42.223c-105.052-10.184-201.594,18.43-274.08,97.045c-9.42,10.225-33.23,39.108-0.82,18.651
		c24.43-15.44,35.794-22.783,62.36-34.88c47.858-21.807,105.342-31.113,157.638-27.98c52.348,3.167,98.634,18.244,144.754,42.678
		C432.998,1068.172,448.642,1094.125,478.543,1136.463L478.543,1136.463z" />
		<path fill="#F4E00B" d="M102.426,1182.075l-9.726-4.953l4.744-5.157c2.634-0.373,5.104-0.714,7.51-0.939l1.988,0.244l-0.026,2.301
		C105.356,1177.569,103.785,1180.602,102.426,1182.075L102.426,1182.075z" />
		<path fill="#010101" stroke="#010101" stroke-width="3.7817" stroke-miterlimit="10"
			d="M555.344,1300.186
		c0.488-0.402,0.979-0.769,1.465-1.116c6.176-4.64,13.117-8.024,20.479-10.329l0.086-0.033c3.438-1.047,6.98-1.85,10.571-2.375
		l1.31-6l83.885-10.972l-7.552,52.521c-0.906,6.178-1.657,12.385-2.249,18.633v0.118c-0.49,5.009-0.768,10.014-0.805,15.071
		l-0.07,18.84c2.896,7.935,4.206,16.31,4.256,24.751v0.226v0.192c-0.05,10.469-2.146,20.724-6.608,30.212
		c-4.308,9.211-10.466,17.271-18.265,23.723l-0.158,0.107c-1.012,0.836-2.04,1.639-3.035,2.371l-9.228,5.793
		c-3.821,2.057-7.885,3.766-12.035,5.127c-4.413,1.432-8.932,2.479-13.502,3.178l-0.854,4.462l-88.053,22.99l4.57-27.349
		c-15.248-1.01-30.352-1.742-45.614-1.432l-1.45,18.248c-75.774-14.445-83.484-18.873-152.28-15.422l0.608,4.324
		c-44.636-5.963-89.265-6.943-132.84-4.395l-1.204,15.492c-99.855-19.051-144.998-22.469-263.632-14.268l16.014-84.061l9.533-0.873
		c0-1.014,0-1.99,0.026-3c0-2.737,0-5.53,0-8.286v-7.709l-11.172-0.943l-11.469-80.396l77.363-0.366c3.759,0,7.51,0.033,11.25,0.07
		h0.15h0.122c4.298,0.085,8.554,0.296,12.836,0.573h0.148l0.148,0.019c1.317,0.089,2.662,0.196,3.979,0.314l49.625-1.08
		c1.866,0.07,3.744,0.137,5.626,0.207c2.092,0.052,4.178,0.107,6.27,0.211c2.418,0,4.798,0,7.188,0.07
		c1.596,0.033,3.235,0.07,4.852,0.07c1.202,0,2.414,0,3.584,0c0.993,0,1.988,0,2.983,0l0.209-1.99l92.554-16.136l-4.054,17.808
		c0.749,0.019,1.474,0.037,2.214,0.07c1.465,0.052,2.904,0.104,4.352,0.104c1.16,0.07,2.293,0.107,3.479,0.141
		c0.551,0,1.073,0,1.605,0c1.315,0,2.634,0,3.951-0.036c1.709,0,3.427-0.034,5.146-0.104c1.909-0.052,3.827-0.052,5.765-0.106
		c0.07,0,0.131,0,0.218,0l-0.052-0.33h8.443l47.866-2.688l-0.366,2.637c1.761,0,3.523-0.052,5.277-0.052
		c2.129,0,4.239,0,6.357-0.018h0.218h0.218c1.798,0,3.549,0,5.356,0l0.27-0.037h0.271c1.448,0,2.895,0,4.363,0
		c3.906,0,7.813,0.052,11.774,0.226l-0.385-2.108l50.186,2.057c1.883,0.07,3.768,0.141,5.634,0.211
		c2.077,0.052,4.206,0.104,6.298,0.207c2.371,0,4.763,0,7.169,0.07c1.604,0.037,3.226,0.07,4.85,0.07c1.188,0,2.406,0,3.592,0
		c0.977,0,1.953,0,2.93,0l0.244-1.99l92.54-16.137l-4.03,17.672h1.57c3.766,0,7.517,0.033,11.286,0.066h0.12h0.122
		c4.291,0.089,8.582,0.3,12.838,0.577h0.155l0.139,0.019c4.728,0.314,9.455,0.873,14.095,1.676h0.054
		c5.58,0.939,11.04,2.39,16.291,4.432l0.105,0.037C547.635,1295.684,551.628,1297.726,555.344,1300.186L555.344,1300.186z" />
		<path fill="#FFFFFF" stroke="#FFFFFF" stroke-width="3.7817" stroke-miterlimit="10"
			d="M556.06,1318.032
		c2.565-3.052,5.528-5.808,8.756-8.234c4.955-3.681,10.554-6.403,16.432-8.234l0.053-0.019c5.704-1.761,11.669-2.615,17.638-2.738
		l1.411-6.402l57.007-7.484l-5.024,35.01c-0.941,6.422-1.709,12.873-2.303,19.31l-0.051,0.107c-0.522,5.39-0.803,10.831-0.82,16.272
		l-0.106,21.423c0.106,0.207,0.209,0.418,0.279,0.662l0.017,0.107c2.739,6.854,3.908,14.197,3.96,21.592v0.122v0.122
		c-0.05,8.512-1.674,16.887-5.319,24.597c-3.455,7.395-8.407,13.883-14.742,19.117l-0.068,0.07
		c-5.913,4.85-12.664,8.479-19.953,10.85c-6.681,2.164-13.624,3.277-20.638,3.385l-1.169,6.207l-59.814,15.629l3.594-21.592
		c-24.839-1.605-48.878-2.967-73.681-2.127l-1.221,15.381c-59.726-11.371-95.523-15-155.965-15.732l0.697,4.99
		c-47.087-6.277-85.043-4.291-128.381-4.99c-0.272,0-0.57,0-0.838,0l-1.23,15.732c-76.385-14.545-150.796-18.695-235.024-12.836
		l10.852-57.108l11.608-1.014c0.026-1.883,0.026-3.766,0.052-5.648c0.026-3.155,0.026-6.352,0.052-9.559c0-2.793,0-5.549,0-8.338
		v-8.757c0-1.379,0-2.756,0-4.065c-0.026-2.216-0.026-4.413-0.052-6.577c0-0.244,0-0.418,0-0.629l-12.76-1.08l-7.807-54.597
		c30.7-0.155,75.356-5.582,107.214,3.873l-1.019-5.686c60.205,2.509,80.073-2.53,139.721-12.873l-3.148,13.706
		c74.021,3.979,149.665,1.693,224.218,1.05c0.453-0.037,0.96-0.037,1.45-0.037l0.401-3.839l62.794-10.88l-3.277,14.475l18.368-0.104
		c3.716,0,7.413,0.052,11.075,0.104h0.211c4.063,0.07,8.127,0.244,12.192,0.525h0.209c4.307,0.314,8.564,0.817,12.822,1.535h0.037
		c4.674,0.803,9.294,1.987,13.707,3.696l0.037,0.055C545.175,1309.117,551.142,1312.957,556.06,1318.032L556.06,1318.032z" />
		<path fill="#010101" stroke="#010101" stroke-width="3.7817" stroke-miterlimit="10"
			d="M554.262,1402.492
		c0.021-0.766,0.021-1.568,0.021-2.371c0-0.54,0.035-1.169-0.021-1.728l-2.634-19.605l21.892,5.686
		c-1.831-1.639-3.592-3.352-5.249-5.197c-3.331-3.666-5.93-7.887-7.814-12.474c-2.059-5.042-2.965-10.414-2.965-15.822v-0.07
		c0-3.625,0.54-7.221,1.57-10.709v-0.037c1.115-3.732,2.808-7.254,4.988-10.465l0.052-0.066c2.373-3.525,5.338-6.544,8.739-9.074
		c3.716-2.808,7.973-4.794,12.42-6.188h0.02c4.883-1.521,10.012-2.149,15.159-2.183h0.068h0.105
		c3.002,0.037,6.019,0.192,8.983,0.525l1.831-8.253l30.143-3.925l-2.512,17.497c-0.96,6.644-1.779,13.291-2.373,19.938v0.066
		c-0.61,5.826-0.925,11.652-0.958,17.549l-0.07,20.357l-2.95-1.291c1.657,2.53,3.052,5.216,4.189,8.023l0.017,0.052
		c2.092,5.305,2.983,11.023,3,16.709v0.089v0.089c-0.017,6.54-1.256,12.977-4.047,18.943c-2.669,5.616-6.383,10.499-11.147,14.476
		h-0.052c-4.622,3.84-9.892,6.629-15.561,8.516c-5.843,1.883-11.877,2.723-17.949,2.723c-2.233,0-4.432-0.141-6.629-0.314
		c-0.977-0.07-2.005-0.178-3.018-0.314c-0.053,0.348-0.123,0.662-0.174,1.01l-1.553,8.408l-31.556,8.23l2.495-14.93l-2.268-1.08
		c-3.176-1.502-6.124-3.766-8.774-6.07c-3.087-2.619-6.019-5.375-8.88-8.164l-0.07-0.104c-3.277-3.248-6.507-6.56-9.68-9.91
		c-1.169-1.255-2.322-2.476-3.453-3.696l5.006,26.306l-17.267-1.084c-0.979-0.104-1.922-0.137-2.863-0.174
		c-1.674-0.037-3.314-0.137-4.935-0.174c-1.953-0.07-3.925-0.07-5.863-0.141c-1.831,0-3.679-0.033-5.51-0.066
		c-1.57,0-3.122-0.037-4.694-0.037c-1.43,0-2.93,0.037-4.361,0.037c-1.813,0.033-3.627,0.066-5.46,0.066
		c-1.953,0.07-3.871,0.07-5.826,0.141c-1.674,0.037-3.296,0.137-4.953,0.174c-0.926,0.037-1.832,0.07-2.738,0.141l-9.089,0.625
		l-0.941,12.004l-28.589-5.408v-7.188c-2.582-0.066-5.199-0.137-7.746-0.207h-0.139c-3.141-0.104-6.298-0.137-9.473-0.207
		c-2.808-0.037-5.652-0.07-8.426-0.107c-2.076-0.033-4.079-0.07-6.104-0.07c-1.519,0-3.019,0.037-4.535,0.07
		c-1.903,0.037-3.838,0.07-5.723,0.107c-1.988,0.07-4.012,0.104-6,0.207c-1.622,0.037-3.296,0.107-4.92,0.207l-17.863,0.873
		l7.117-29.897l9.736-0.77c0.803-0.066,1.657-0.155,2.477-0.244c0.192,0,0.366-0.015,0.577-0.033c0.05-2.023,0.104-4.028,0.12-6.037
		v-0.104c0.087-3.07,0.141-6.107,0.157-9.178c0.017-3.107,0.068-6.263,0.105-9.381c0.019-2.863,0.019-5.704,0.019-8.549v-6.596
		c0-2.859-0.019-5.737-0.054-8.597c-0.017-3.193-0.068-6.367-0.122-9.545v-0.104c-0.05-3.052-0.104-6.07-0.205-9.141v-0.104
		c-0.019-0.314-0.019-0.596-0.019-0.873c-0.105-0.037-0.209-0.037-0.333-0.07h-0.035c-0.174-0.015-0.418-0.07-0.594-0.07
		c0.314,1.676,0.472,3.385,0.437,5.112c-0.017,4.272-0.61,8.564-1.85,12.718c-1.188,3.87-2.895,7.518-5.092,10.921l-0.019,0.066
		c-2.023,3.07-4.308,5.896-6.943,8.516c-2.58,2.512-5.392,4.775-8.441,6.747c-2.738,1.779-5.636,3.366-8.601,4.728l-0.053,0.037
		c-2.669,1.202-5.39,2.301-8.146,3.207c-2.321,0.766-4.639,1.465-7.028,2.023c-0.542,0.122-1.152,0.244-1.728,0.381
		c0.033,1.188,0.033,2.375,0.052,3.559v0.07c0.035,3.178,0.05,6.385,0.139,9.56v0.106c0,0.07,0,0.138,0,0.226
		c0.803,0.089,1.568,0.156,2.336,0.263c1.448,0.138,2.932,0.244,4.345,0.418l9.419,0.943l7.099,29.653l-17.862-0.836
		c-1.237-0.07-2.512-0.141-3.768-0.174c-1.918-0.037-3.766-0.141-5.686-0.174c-2.129-0.07-4.308-0.07-6.472-0.141
		c-1.988,0-3.993-0.037-6-0.07c-1.648,0-3.263-0.033-4.857-0.033c-1.639,0-3.253,0.033-4.892,0.033
		c-1.65,0.037-3.342,0.07-5.016,0.07l0.385,2.723l-16.171-2.164l-15.568,0.906l0.298-1.465c-1.021-0.037-2.042-0.037-3.037-0.07
		c-1.718,0-3.464-0.033-5.171-0.033c-1.213,0-2.443,0.033-3.636,0.033c-1.763,0.037-3.523,0.07-5.268,0.07
		c-2.014,0.07-4.012,0.07-6.026,0.141c-1.771,0.033-3.577,0.137-5.338,0.174c-1.073,0.033-2.146,0.07-3.202,0.174l-14.641,0.836
		l0.026,0.037h-0.418l-3.007,0.141l0.096-0.314l-13.755-0.699c-1.099-0.07-2.197-0.141-3.287-0.174
		c-1.587-0.037-3.167-0.141-4.728-0.174c-1.744-0.07-3.455-0.07-5.172-0.141c-1.5,0-3.009-0.037-4.502-0.07
		c-1.115,0-2.197-0.037-3.305-0.037c-1.176,0-2.321,0.037-3.5,0.07c-1.481,0.037-2.956,0.037-4.439,0.107h-0.104h-0.08
		c-0.647,0.033-1.317,0.033-1.962,0.07l-1.012,12.943l-28.606-5.408v-7.188c-2.601-0.07-5.164-0.141-7.772-0.211h-0.087
		c-3.167-0.104-6.324-0.137-9.489-0.207c-2.81-0.037-5.626-0.07-8.434-0.104c-2.042-0.037-4.082-0.07-6.087-0.07
		c-0.892,0-1.772,0-2.66,0.037l-31.817,5.09l-3.786-1.813c-3.157-1.498-6.115-3.766-8.758-6.07c-3.087-2.619-6-5.371-8.88-8.164
		l-0.079-0.104c-3.278-3.248-6.489-6.56-9.655-9.91c-1.186-1.255-2.329-2.476-3.453-3.696l4.979,26.306l-17.258-1.084
		c-0.971-0.104-1.901-0.137-2.873-0.174c-1.665-0.037-3.305-0.137-4.927-0.174c-1.962-0.07-3.925-0.07-5.843-0.141
		c-1.859,0-3.708-0.033-5.521-0.066c-1.561,0-3.141-0.037-4.702-0.037c-1.448,0-2.913,0.037-4.369,0.037
		c-1.824,0.033-3.62,0.066-5.434,0.066c-1.962,0.07-3.899,0.07-5.843,0.141c-1.665,0.037-3.306,0.137-4.972,0.174
		c-0.908,0.037-1.823,0.07-2.739,0.141l-17.336,1.221l5.711-30.038l10.054-0.939c0.864-0.07,1.744-0.155,2.608-0.248
		c0.279-0.015,0.603-0.033,0.9-0.066c0.05-2.689,0.104-5.375,0.104-8.079v-0.085c0.054-3.211,0.087-6.437,0.115-9.629
		c0.026-3.174,0.026-6.422,0.05-9.61c0-2.774,0-5.601,0-8.394v-8.756c0-1.395,0-2.79,0-4.169c-0.026-2.216-0.026-4.447-0.05-6.629
		c-0.028-2.527-0.061-5.076-0.115-7.621v-0.137c0-1.657-0.026-3.333-0.053-4.99c-0.078-0.037-0.13-0.037-0.183-0.037h-0.113
		l-0.131-0.019c-1.064-0.104-2.111-0.192-3.184-0.296l-10.624-0.906l-4.125-28.816l46.486-0.211c3.646,0,7.266,0,10.902,0.07h0.08
		c3.897,0.107,7.753,0.244,11.617,0.54h0.104c3.864,0.263,7.755,0.666,11.559,1.343c3.786,0.629,7.561,1.605,11.12,2.967
		l0.026,0.052c5.749,2.216,10.781,5.634,14.645,10.446c2.521,3.211,4.265,6.77,5.258,10.554l-4.883-26.774l16.729,0.662
		c1.954,0.107,3.907,0.141,5.869,0.211c2.26,0.104,4.474,0.137,6.732,0.226c2.338,0,4.657,0.019,6.995,0.089
		c1.814,0.015,3.655,0.033,5.443,0.033c1.203,0,2.414,0,3.585,0c2.014,0,4.028-0.019,6.07-0.019c2.512-0.015,5.033-0.015,7.57-0.015
		c2.66-0.037,5.319-0.089,7.962-0.141c1.805-0.037,3.603-0.07,5.39-0.104l0.636-5.582l33.047-5.723l-4.456,19.502
		c-0.08,0.521-0.131,1.117-0.209,1.676v0.104l-0.035,0.107c-0.209,1.568-0.333,3.155-0.533,4.746
		c-0.194,2.02-0.385,4.062-0.566,6.104c-0.192,2.061-0.375,4.15-0.523,6.244c-0.174,1.816-0.322,3.61-0.455,5.408
		c-0.087,0.873-0.139,1.694-0.19,2.512h0.19l-0.364,2.127l-0.979,15.874l-1.42-0.419c-0.113,0.611-0.19,1.222-0.298,1.85
		c-0.19,1.502-0.409,2.964-0.592,4.432c-0.272,1.884-0.516,3.748-0.751,5.579v0.07l-0.026,0.107c-0.27,1.92-0.514,3.803-0.786,5.686
		c-0.228,1.62-0.455,3.277-0.671,4.887l-0.028,0.118v0.104c-0.104,0.647-0.174,1.276-0.296,1.887l13.033-3.385
		c1.194-3.07,2.363-6.089,3.512-9.122l0.026-0.037c1.805-4.676,3.577-9.349,5.338-14.021c1.657-4.398,3.331-8.845,4.981-13.258
		l0.028-0.07c1.115-2.93,2.179-5.808,3.253-8.708l-5.906-0.714l-1.387-29.131l14.828,0.77c1.049,0.104,2.094,0.137,3.122,0.137
		c1.456,0.07,2.93,0.141,4.414,0.211c1.472,0.033,2.963,0.066,4.472,0.104c1.256,0.037,2.521,0.07,3.768,0.089
		c0.744,0.019,1.465,0.019,2.171,0.019c1.422,0,2.878,0,4.3-0.019c1.814-0.019,3.646-0.019,5.443-0.089
		c1.937-0.037,3.872-0.07,5.793-0.137c1.691,0,3.366-0.107,5.059-0.178c1.081,0,2.179-0.033,3.252-0.104l16.319-0.906l-4.206,29.445
		l-5.092,0.592c0.969,2.822,1.946,5.667,2.948,8.512l0.028,0.07c1.195,3.451,2.416,6.87,3.618,10.291v0.034
		c1.16,3.211,2.305,6.421,3.472,9.666c0.969,2.618,1.92,5.249,2.913,7.883v0.037c1.204,3.277,2.462,6.559,3.69,9.821
		c1.369,3.54,2.763,7.047,4.178,10.554c1.361,3.352,2.739,6.629,4.213,9.943c0.324,0.714,0.647,1.428,1.002,2.197
		c1.43,0.207,2.904,0.399,4.336,0.592c0.644-0.089,1.289-0.178,1.937-0.207h0.026c0.348-0.07,0.671-0.107,0.977-0.141
		c0-0.455,0.042-0.925,0.042-1.413c0.054-3.122,0.105-6.296,0.131-9.437v-0.089c0.026-3.381,0.05-6.747,0.087-10.132
		c0.009-3.211,0.009-6.422,0.052-9.596c0-2.649,0-5.268,0-7.92v-5.72c0-1.258,0-2.549,0-3.824c-0.042-2.076-0.042-4.17-0.052-6.297
		c-0.037-2.441-0.061-4.901-0.087-7.376v-0.122c-0.028-2.127-0.08-4.291-0.122-6.403c-0.052-0.015-0.061-0.015-0.104-0.015
		c-1.143-0.089-2.268-0.192-3.429-0.281l-10.658-0.888l-4.125-28.905h15.428c1.082,0,2.156,0,3.202-0.037h0.104h0.115
		c1.698,0,3.442,0,5.162-0.019h0.087h0.08c2.094,0,4.178-0.015,6.298-0.015c2.153-0.037,4.31-0.037,6.479-0.07h0.061h0.087
		c1.901,0,3.812,0,5.705-0.019h0.105h0.087c1.448,0,2.895,0,4.363,0c7.361,0,14.791,0.263,22.063,1.099
		c5.913,0.681,12.07,1.816,17.601,4.047l0.105,0.07h0.07c1.865,0.803,3.662,1.676,5.46,2.704l-1.554-8.427l16.747,0.666
		c1.937,0.107,3.892,0.141,5.863,0.211c2.214,0.104,4.463,0.137,6.695,0.226c2.356,0,4.709,0.019,7.032,0.085
		c1.794,0.019,3.608,0.037,5.439,0.037c1.189,0,2.408,0,3.594,0c2.007,0,4.012-0.019,6.037-0.019
		c2.53-0.019,5.059-0.019,7.589-0.019c2.648-0.033,5.303-0.085,7.972-0.137c1.795-0.037,3.575-0.07,5.371-0.107l0.611-5.579
		l33.054-5.723l-2.58,11.339l35.202-0.174c3.646,0,7.272,0,10.92,0.07h0.068c3.906,0.104,7.746,0.244,11.617,0.536h0.107
		c3.871,0.267,7.707,0.666,11.563,1.343c3.768,0.629,7.552,1.609,11.11,2.967l0.035,0.052c5.756,2.216,10.779,5.634,14.636,10.45
		c4.169,5.268,6.159,11.545,6.263,18.244v0.159v0.155c-0.05,4.206-1.028,8.338-2.648,12.229c-1.554,3.681-3.647,7.136-6.037,10.344
		c-2.181,2.93-4.657,5.582-7.345,8.057c1.711,2.708,3.42,5.408,5.164,8.094c2.181,3.314,4.343,6.614,6.54,9.892
		C551.56,1398.6,552.919,1400.557,554.262,1402.492L554.262,1402.492z M449.097,1343.375c-0.105,1.136-0.193,2.305-0.277,3.422
		c-0.052,0.873-0.122,1.694-0.176,2.512h0.176l-0.314,2.127l-0.993,15.874l-1.45-0.419c-0.087,0.611-0.19,1.222-0.261,1.85
		c-0.209,1.502-0.437,2.964-0.61,4.432c-0.244,1.884-0.507,3.748-0.786,5.579v0.07v0.107c-0.277,1.92-0.505,3.803-0.766,5.686
		c-0.244,1.62-0.47,3.277-0.697,4.887v0.118v0.104c-0.087,0.647-0.209,1.276-0.279,1.887l16.119-4.188l-5.077,21.629
		c-0.192,0.873-0.348,1.779-0.488,2.686c-0.104,0.437-0.192,0.892-0.244,1.365l3.592-0.337c0.854-0.066,1.727-0.155,2.58-0.244
		c0.314-0.015,0.611-0.033,0.926-0.066c0.052-2.689,0.105-5.375,0.105-8.079v-0.085c0.036-3.211,0.069-6.437,0.069-9.629
		c0.052-3.174,0.052-6.422,0.087-9.61c0-2.774,0-5.601,0-8.394v-8.756c0-1.395,0-2.793,0-4.169
		c-0.035-2.216-0.035-4.447-0.087-6.629c0-2.527-0.034-5.076-0.069-7.621v-0.137c0-1.657-0.018-3.337-0.054-4.994
		c-0.104-0.033-0.154-0.033-0.206-0.033h-0.122l-0.105-0.019c-1.082-0.104-2.146-0.192-3.228-0.296L449.097,1343.375z
		 M69.29,1342.75c0.271,1.657,0.411,3.314,0.437,4.986v0.159v0.155c-0.028,4.206-1.012,8.338-2.652,12.229
		c-1.526,3.681-3.592,7.136-6.043,10.344c-2.164,2.933-4.631,5.582-7.3,8.061c1.692,2.704,3.409,5.404,5.136,8.09
		c2.164,3.314,4.343,6.614,6.542,9.892c2.311,3.366,4.639,6.718,7.029,9.995c1.554,2.094,3.117,4.258,4.702,6.314l2.563-0.211
		c0.831-0.066,1.65-0.155,2.495-0.244c0.174,0,0.364-0.015,0.549-0.033c0.07-2.023,0.113-4.028,0.141-6.037v-0.104
		c0.08-3.07,0.104-6.107,0.157-9.178c0.026-3.107,0.096-6.263,0.12-9.381c0-2.863,0-5.704,0-8.549v-6.596
		c0-2.859-0.026-5.737-0.026-8.597c-0.028-3.193-0.098-6.367-0.176-9.545v-0.104c-0.026-3.052-0.105-6.07-0.216-9.141v-0.104
		c0-0.314,0-0.596-0.028-0.873c-0.105-0.037-0.2-0.037-0.322-0.07h-0.026c-1.073-0.137-2.136-0.277-3.183-0.381L69.29,1342.75z
		 M29.135,1413.393c-0.819-0.906-1.665-1.85-2.51-2.756l-0.052-0.033c-2.688-2.967-5.373-6-8.025-8.967
		c0.035,2.845,0.087,5.723,0.165,8.549v0.104c0,0.736,0.028,1.45,0.028,2.168c0.026,0,0.08,0,0.105,0
		c1.047,0.104,2.084,0.207,3.174,0.311L29.135,1413.393z M18.496,1362.267c0.758-0.314,1.535-0.785,2.207-1.206
		c0.899-0.592,1.763-1.325,2.486-2.128c0.723-0.802,1.256-1.775,1.667-2.789c0.533-1.328,0.671-2.915,0.671-4.31l0.026-0.052
		c0-0.329-0.218-0.803-0.348-1.08l-0.028-0.052c-0.294-0.592-1.235-1.395-1.744-1.794l-0.061-0.07
		c-1.228-0.943-3.07-1.68-4.683-2.197c-0.026,1.479-0.052,2.963-0.08,4.446c-0.026,2.793-0.061,5.582-0.08,8.356
		C18.496,1360.365,18.496,1361.308,18.496,1362.267L18.496,1362.267z M132.882,1352.167v-3.836c0-0.422,0.033-0.84,0.033-1.225
		c-0.888-0.137-1.794-0.314-2.686-0.433h-0.08h-0.042c-1.145-0.159-2.233-0.3-3.332-0.474c-0.027,0.943-0.053,1.868-0.079,2.774
		c-0.087,2.737-0.105,5.46-0.157,8.216c-0.035,0.699-0.035,1.38-0.052,2.079c1.229-0.089,2.425-0.159,3.662-0.267h0.105
		c0.374-0.015,0.777-0.033,1.15-0.066l0.969-6.699L132.882,1352.167z M138.593,1403.694l-11.713-4.916l0.349-7.605
		c-0.261,0-0.505-0.07-0.741-0.07c0,1.099,0.017,2.179,0.052,3.244c0.052,3.104,0.07,6.211,0.157,9.333
		c0.052,2.301,0.105,4.587,0.166,6.925c0.017,0,0.05,0,0.078,0c3.366-0.244,6.829-0.629,10.178-1.328
		c0.052,0,0.105-0.015,0.174-0.015C137.713,1407.393,138.114,1405.562,138.593,1403.694L138.593,1403.694z M210.052,1435.619
		l5.223-22.052l7.343-0.592c-0.777-2.268-1.561-4.521-2.336-6.77c-0.979-2.826-2.014-5.723-3.037-8.563l-0.026-0.019
		c-0.202-0.677-0.446-1.324-0.69-1.968c-0.025,0-0.079,0-0.104,0c-2.234,0.104-4.483,0.188-6.727,0.329
		c-2.233,0.104-4.463,0.244-6.679,0.385h-0.078h-0.096c-0.098,0-0.228,0-0.333,0.033c-0.697,2.53-1.404,5.061-2.068,7.572
		c-0.723,2.789-1.456,5.563-2.129,8.371l-0.007,0.07c-0.042,0.211-0.096,0.403-0.148,0.61l7.744,0.784L210.052,1435.619z
		 M319.945,1365.319c0.42-0.382,0.751-0.732,1.115-1.147c0.892-1.014,1.57-2.408,2.059-3.61c0.716-1.938,0.925-4.343,0.925-6.366
		c0-1.225-0.157-2.408-0.559-3.559c-0.314-0.873-0.732-1.605-1.378-2.249l-0.052-0.089c-0.507-0.61-1.204-1.099-1.937-1.498
		c-0.019,1.535-0.05,3.066-0.05,4.602v0.107c-0.07,2.93-0.107,5.863-0.107,8.756v0.122
		C319.961,1362.041,319.961,1363.646,319.945,1365.319L319.945,1365.319z M418.623,1352.167v-3.836c0-0.422,0-0.84,0-1.225
		c-0.871-0.137-1.744-0.314-2.65-0.433h-0.052h-0.105c-1.082-0.159-2.216-0.3-3.296-0.474c-0.035,0.943-0.089,1.868-0.089,2.774
		c-0.05,2.737-0.12,5.46-0.174,8.216c0,0.699-0.037,1.38-0.037,2.079c1.225-0.089,2.425-0.159,3.647-0.267h0.105
		c0.401-0.015,0.803-0.033,1.152-0.066l0.991-6.699L418.623,1352.167z M424.327,1403.694l-11.721-4.916l0.352-7.605
		c-0.246,0-0.472-0.07-0.751-0.07c0.019,1.099,0.052,2.179,0.052,3.244c0.052,3.104,0.122,6.211,0.174,9.333
		c0.054,2.301,0.089,4.587,0.141,6.925c0.035,0,0.07,0,0.087,0c3.42-0.244,6.856-0.629,10.169-1.328
		c0.054,0,0.105-0.015,0.209-0.015C423.419,1407.393,423.872,1405.562,424.327,1403.694L424.327,1403.694z M513.951,1413.393
		c-0.854-0.906-1.709-1.85-2.528-2.756l-0.052-0.033c-2.688-2.967-5.373-6-8.025-8.967c0.037,2.845,0.07,5.723,0.157,8.549v0.104
		c0,0.736,0.054,1.45,0.054,2.168c0.017,0,0.052,0,0.068,0c1.065,0.104,2.092,0.207,3.176,0.311L513.951,1413.393z
		 M503.294,1362.267c0.749-0.314,1.519-0.785,2.195-1.206c0.925-0.592,1.779-1.325,2.495-2.128c0.732-0.802,1.274-1.775,1.657-2.789
		c0.54-1.328,0.681-2.915,0.681-4.31v-0.052c0.035-0.329-0.194-0.803-0.314-1.08l-0.036-0.052c-0.278-0.592-1.239-1.395-1.744-1.794
		l-0.053-0.07c-1.237-0.943-3.068-1.68-4.676-2.197c-0.05,1.479-0.087,2.963-0.104,4.446c-0.054,2.793-0.054,5.582-0.07,8.356
		C503.294,1360.365,503.294,1361.308,503.294,1362.267L503.294,1362.267z M584.529,1392.811l-0.279,5.479
		c0,0.311,0.053,0.695,0.053,1.028c0.053,1.065,0.105,2.146,0.227,3.174c0.104,1.239,0.208,2.46,0.332,3.666
		c0,0.104,0,0.207,0.036,0.292c0.538,0.995,1.204,1.924,2.005,2.797c1.047,1.043,2.146,1.916,3.525,2.512
		c1.203,0.555,2.441,0.799,3.785,0.832c1.167-0.033,2.303-0.174,3.401-0.573l0.104-0.019c0.785-0.277,1.482-0.666,2.128-1.188
		c0.401-0.381,0.768-0.803,1.03-1.361c0.226-0.451,0.277-1.047,0.296-1.587c-0.019-0.714-0.087-1.55-0.352-2.249
		c-0.418-0.873-0.941-1.572-1.62-2.305c-1.203-1.254-2.565-2.371-3.96-3.385c-2.04-1.428-4.081-2.822-6.194-4.15l-0.052-0.033
		l-0.069-0.037C587.443,1394.764,585.976,1393.769,584.529,1392.811L584.529,1392.811z M605.583,1351.994
		c-0.017-1.136-0.052-2.305-0.087-3.437c-0.052-0.592-0.107-1.184-0.141-1.794c-0.453-0.559-0.979-1.047-1.552-1.465
		c-0.697-0.559-1.517-0.977-2.319-1.291c-0.666-0.277-1.413-0.352-2.146-0.385c-0.892,0-2.218,0.089-2.983,0.399h-0.087
		l-0.052,0.022c-0.228,0.085-0.646,0.277-0.786,0.418c-0.052,0.033-0.052,0.052-0.052,0.052c0.385,0.54,0.892,1.028,1.343,1.409
		c1.587,1.365,3.298,2.567,5.042,3.666h0.087l0.052,0.089C603.142,1350.44,604.377,1351.224,605.583,1351.994L605.583,1351.994z" />
		<path fill="#F4E00B" stroke="#F4E00B" stroke-width="3.7817" stroke-miterlimit="10"
			d="M-11.07,1376.657c0,2.549,0,5.375,0,8.479
		c-0.026,3.089-0.026,6.281-0.044,9.629c-0.026,3.314-0.068,6.54-0.12,9.718c-0.026,3.192-0.052,6.122-0.104,8.826
		c-0.07,2.704-0.141,5.009-0.192,6.892c-0.08,1.88-0.183,3.207-0.27,3.906c-1.03,0.281-2.293,0.525-3.77,0.732
		c-1.535,0.211-3.035,0.422-4.596,0.629c-1.578,0.141-2.967,0.352-4.205,0.418c-1.247,0.141-2.136,0.211-2.66,0.244l-0.577,3.037
		c0.699-0.07,1.772-0.141,3.237-0.174c1.448-0.037,3.139-0.104,5.05-0.174c1.912-0.07,3.854-0.07,5.871-0.107
		c1.972-0.07,3.88-0.07,5.65-0.137c1.789,0,3.298,0,4.474,0c1.343,0,2.939,0,4.772,0c1.822,0.066,3.732,0.066,5.773,0.137
		c2.014,0.037,3.96,0.037,5.826,0.107c1.883,0.07,3.575,0.137,5.047,0.174c1.474,0.033,2.582,0.104,3.307,0.174l-0.566-3.037
		c-0.803-0.066-1.927-0.174-3.35-0.311c-1.404-0.178-2.904-0.314-4.458-0.525c-1.578-0.174-3.026-0.385-4.343-0.592
		c-1.306-0.174-2.301-0.381-2.939-0.592c-0.113-1.361-0.165-3.244-0.244-5.615c-0.078-2.375-0.139-5.023-0.191-7.957
		c-0.081-2.963-0.131-5.93-0.157-8.963c-0.027-3.07-0.088-5.967-0.115-8.652c-0.026-2.704-0.026-4.987-0.026-6.907v-3.732
		c0.836,0,1.989-0.07,3.455-0.141c1.447-0.066,3.087-0.174,4.874-0.314c1.798-0.137,3.629-0.244,5.479-0.418
		c0.355,0.47,1.369,1.639,3,3.559c1.637,1.92,3.732,4.344,6.27,7.24c2.558,2.859,5.373,6.019,8.417,9.418
		c3.087,3.366,6.245,6.788,9.498,10.206c3.235,3.422,6.357,6.592,9.352,9.629c3.059,2.963,5.772,5.479,8.207,7.535
		c2.414,2.094,4.402,3.492,5.843,4.188l6.324-1.01c-2.137-2.305-4.423-4.953-6.822-7.953c-2.39-3-4.805-6.248-7.308-9.666
		c-2.46-3.385-4.875-6.873-7.256-10.343c-2.356-3.508-4.617-6.893-6.699-10.118c-2.12-3.266-3.977-6.196-5.625-8.882
		c-1.667-2.648-3.009-4.901-4.03-6.662c-1.047-1.779-1.692-2.915-1.937-3.455c2.791-1.535,5.399-3.418,7.832-5.582
		c2.469-2.197,4.607-4.479,6.462-6.943c1.875-2.475,3.324-4.972,4.361-7.461c1.073-2.512,1.589-4.938,1.615-7.206
		c-0.052-3.962-1.143-7.31-3.322-10.032c-2.171-2.756-5.181-4.85-9.037-6.348c-2.458-0.977-5.303-1.746-8.529-2.286
		c-3.237-0.54-6.646-0.959-10.258-1.188c-3.653-0.226-7.326-0.434-10.988-0.488c-3.733-0.052-7.292-0.086-10.754-0.086
		l-31.042,0.138l0.429,3.037c0.847,0.088,1.988,0.174,3.401,0.314c1.448,0.104,2.958,0.262,4.554,0.454
		c1.613,0.138,3.087,0.293,4.43,0.504c1.343,0.159,2.364,0.314,2.993,0.437c0.087,0.488,0.191,1.568,0.27,3.226
		c0.052,1.676,0.123,3.666,0.192,6.052c0.052,2.39,0.08,4.887,0.104,7.609c0.053,2.648,0.096,5.197,0.12,7.742
		c0.02,2.512,0.02,4.746,0.044,6.647c0,1.935,0,3.366,0,4.272v8.749H-11.07z M5.012,1373.342c0-1.709,0-3.8,0.026-6.226
		c0.026-2.424,0.054-5.043,0.087-7.832c0.027-2.826,0.053-5.652,0.079-8.479c0.052-2.845,0.105-5.549,0.157-8.079
		c0.028-2.578,0.115-4.864,0.192-6.784c0.052-1.953,0.104-3.437,0.191-4.432c6.183,0.019,11.408,0.666,15.683,1.901
		c4.228,1.188,7.657,2.845,10.23,4.85c2.582,2.009,4.45,4.206,5.608,6.577c1.151,2.375,1.694,4.746,1.667,7.103
		c0,3.537-0.593,6.626-1.667,9.263c-1.108,2.649-2.502,4.917-4.195,6.767c-1.709,1.85-3.481,3.385-5.345,4.502
		c-1.85,1.169-3.594,2.02-5.181,2.615c-3.104,1.117-6.141,1.831-9.132,2.234c-2.983,0.351-5.765,0.507-8.399,0.507v-4.487H5.012z
		 M96.573,1379.239c0,2.652,0,5.549-0.044,8.652c0,3.07-0.052,6.244-0.08,9.47c-0.05,3.159-0.104,6.3-0.146,9.3
		c-0.07,2.981-0.148,5.723-0.202,8.161c-0.079,2.478-0.174,4.538-0.244,6.177c-0.104,1.64-0.2,2.652-0.279,3.104
		c-1.021,0.28-2.207,0.524-3.629,0.735c-1.448,0.208-2.861,0.418-4.404,0.626c-1.467,0.141-2.835,0.351-4.04,0.421
		c-1.235,0.138-2.153,0.208-2.728,0.244l-0.723,3.037c1.42-0.107,3.129-0.177,5.084-0.211c1.962-0.066,3.977-0.137,6.087-0.207
		c2.12-0.037,4.108-0.107,5.993-0.107c1.866-0.066,3.418-0.066,4.684-0.066c1.561,0,3.62,0,6.194,0.066
		c2.591,0,5.443,0.07,8.601,0.107c3.141,0.07,6.368,0.141,9.603,0.207c3.237,0.07,6.296,0.178,9.185,0.244
		c2.904,0.107,5.345,0.178,7.369,0.352c2.069,0.07,3.445,0.207,4.169,0.314c0.079,1.113,0.131,2.408,0.131,3.803
		c0.026,1.395,0.026,3.037,0.026,4.953l3.009,0.593c0.098-1.222,0.272-2.793,0.472-4.676c0.218-1.884,0.49-3.978,0.804-6.208
		c0.27-2.234,0.592-4.539,0.923-6.84c0.342-2.338,0.666-4.535,0.987-6.629c0.35-2.094,0.62-3.925,0.88-5.475
		c0.306-1.539,0.523-2.689,0.681-3.403l-3.305,0.892c-0.401,1.587-0.821,3.47-1.317,5.634c-0.446,2.146-1.091,4.483-1.84,6.995
		c-2.234,1.254-5.129,2.23-8.715,2.93c-3.549,0.695-7.509,1.221-11.93,1.568c-4.43,0.244-9.01,0.418-13.859,0.418
		c-0.08-0.766-0.129-2.127-0.209-4.15c-0.087-1.986-0.165-4.395-0.244-7.235c-0.08-2.845-0.141-5.863-0.218-9.056
		c-0.08-3.155-0.104-6.329-0.157-9.418c-0.061-3.07-0.115-5.896-0.141-8.408c-0.026-2.546-0.026-4.551-0.026-6.053v-2.859
		c4.125,0,8.076,0.085,11.74,0.329c3.732,0.211,6.943,0.525,9.793,0.98c2.791,0.47,4.979,1.062,6.488,1.864
		c0,1.465-0.037,3.052-0.114,4.743c-0.043,1.693-0.104,3.369-0.191,4.868l2.747,1.15c0.13-0.766,0.278-1.92,0.498-3.382
		c0.183-1.502,0.429-3.177,0.697-5.026c0.27-1.884,0.506-3.837,0.776-5.79c0.269-1.957,0.505-3.821,0.75-5.582
		c0.244-1.746,0.455-3.244,0.62-4.539c0.194-1.235,0.323-2.09,0.401-2.545l-3.017,0.277c-0.148,1.014-0.322,2.023-0.566,3.037
		c-0.209,0.98-0.523,2.079-0.899,3.141c-0.871,0.311-2.329,0.625-4.333,0.925c-2.009,0.259-4.424,0.488-7.162,0.714
		c-2.782,0.207-5.739,0.366-8.852,0.488c-3.132,0.104-6.272,0.174-9.376,0.174v-2.893c0-1.432,0-3.314,0.026-5.638
		c0.026-2.286,0.08-4.85,0.141-7.62c0.052-2.723,0.078-5.479,0.157-8.268c0.08-2.793,0.141-5.408,0.218-7.779
		c0.08-2.408,0.157-4.395,0.244-5.981c0.08-1.624,0.129-2.582,0.209-2.967c1.291,0,2.932,0.052,4.875,0.192
		c1.937,0.106,4.056,0.211,6.298,0.488c2.286,0.211,4.579,0.455,6.89,0.821c2.312,0.277,4.441,0.717,6.437,1.135
		c1.988,0.455,3.707,0.943,5.103,1.536c1.352,0.521,2.275,1.187,2.728,1.886c0.044,0.766,0.044,1.636,0.078,2.72
		c0,1.028,0,2.06-0.033,3.141c0,1.117,0,2.023-0.019,2.859c-0.026,0.803-0.026,1.361-0.026,1.643l3.165,1.01
		c0.053-0.784,0.149-1.972,0.271-3.541c0.13-1.586,0.294-3.436,0.452-5.496c0.148-2.058,0.366-4.185,0.568-6.382
		c0.2-2.216,0.394-4.291,0.592-6.263c0.202-2.009,0.375-3.718,0.575-5.146c0.157-1.413,0.298-2.408,0.429-2.967l-3.332,0.596
		c-0.122,1.291-0.279,2.545-0.499,3.699c-0.218,1.146-0.427,2.193-0.644,3.066c-0.559,0.141-1.658,0.248-3.332,0.352
		c-1.622,0.141-3.586,0.207-5.913,0.296c-2.329,0.052-4.859,0.104-7.554,0.155c-2.686,0.052-5.399,0.141-8.112,0.141
		c-2.704,0-5.25,0-7.63,0c-2.364,0-4.404,0.066-6.122,0.066c-1.683,0-2.885,0-3.584,0c-1.617,0-3.509-0.066-5.715-0.066
		c-2.223-0.037-4.535-0.089-6.943-0.089c-2.39-0.089-4.728-0.155-6.943-0.207c-2.242-0.089-4.228-0.155-5.973-0.211l0.559,3.159
		c0.89,0.104,2.031,0.244,3.402,0.418c1.393,0.141,2.843,0.314,4.352,0.525c1.491,0.174,2.913,0.366,4.204,0.573
		c1.291,0.192,2.284,0.296,3.007,0.488c0.105,0.925,0.202,2.479,0.322,4.624c0.105,2.216,0.202,4.742,0.255,7.709
		c0.12,2.948,0.165,6.071,0.216,9.353c0.08,3.311,0.131,6.559,0.157,9.747c0,3.178,0.044,6.052,0.044,8.704v6.581H96.573z
		 M225.351,1429.164c0.828-0.07,2.012-0.141,3.619-0.174c1.613-0.037,3.402-0.104,5.433-0.175c1.998-0.069,3.995-0.069,6.011-0.106
		c2.014-0.07,3.827-0.07,5.467-0.138c1.667,0,2.904,0,3.76,0c1.559,0,3.322,0,5.258,0c1.929,0.067,3.916,0.067,5.95,0.138
		c2.039,0.037,3.914,0.037,5.704,0.106c1.806,0.07,3.306,0.138,4.526,0.175c1.247,0.033,2.066,0.104,2.416,0.174l-0.429-3.037
		c-2.153-0.312-4.282-0.556-6.374-0.87c-2.086-0.351-4.178-0.735-6.28-1.153c-1.326-2.579-2.739-5.476-4.169-8.757
		c-1.483-3.314-2.93-6.732-4.395-10.361c-1.467-3.625-2.906-7.221-4.258-10.742c-1.371-3.559-2.626-6.892-3.758-10.014
		c-1.16-3.07-2.129-5.723-2.959-7.99c-1.097-3.07-2.282-6.314-3.479-9.803c-1.237-3.452-2.477-6.907-3.679-10.396
		c-1.222-3.492-2.363-6.807-3.453-9.962c-1.047-3.122-1.988-5.878-2.774-8.305c-0.768-2.423-1.317-4.272-1.709-5.545
		c1.694-0.437,3.437-0.784,5.303-1.099c1.857-0.314,3.734-0.559,5.644-0.788l0.409-3c-0.838,0.056-2.051,0.107-3.551,0.159
		c-1.561,0.052-3.244,0.104-5.146,0.155c-1.909,0.052-3.847,0.107-5.817,0.159c-1.955,0.033-3.838,0.033-5.591,0.033
		c-1.735,0.07-3.235,0.07-4.472,0.07c-0.507,0-1.326,0-2.451-0.07c-1.136,0-2.453,0-3.934-0.033c-1.493-0.052-3-0.107-4.544-0.159
		c-1.554-0.052-3.035-0.104-4.378-0.155c-1.361-0.052-2.478-0.104-3.375-0.159l0.139,3c1.178,0.159,2.443,0.333,3.803,0.492
		c1.343,0.174,2.686,0.381,3.969,0.61c1.326,0.207,2.528,0.47,3.594,0.784c-0.244,0.61-0.786,2.057-1.589,4.272
		c-0.819,2.234-1.865,5.061-3.129,8.441c-1.291,3.455-2.713,7.291-4.308,11.516c-1.578,4.255-3.253,8.687-5.007,13.344
		c-1.779,4.657-3.549,9.366-5.38,14.075c-1.798,4.709-3.533,9.211-5.244,13.609c-1.692,4.361-3.298,8.371-4.744,12
		c-1.474,3.629-2.763,6.732-3.864,9.278c-1.082,2.548-1.927,4.327-2.521,5.338c-1.935,0.418-3.969,0.803-6.054,1.188
		c-2.118,0.314-4.186,0.592-6.315,0.836l-0.427,3.037c0.873-0.107,2.016-0.178,3.462-0.211c1.483-0.067,3.036-0.138,4.72-0.207
		c1.665-0.037,3.271-0.107,4.778-0.107c1.517-0.067,2.749-0.067,3.714-0.067c0.864,0,2.016,0,3.429,0
		c1.42,0.067,3.007,0.067,4.728,0.138c1.716,0.037,3.453,0.037,5.171,0.106c1.744,0.07,3.359,0.138,4.798,0.175
		c1.483,0.033,2.652,0.104,3.566,0.174l-0.557-3.037c-2.068-0.244-4.179-0.488-6.357-0.766c-2.171-0.349-4.16-0.733-6-1.258
		c0.226-1.883,0.646-4.081,1.167-6.663c0.549-2.618,1.169-5.338,1.885-8.234c0.699-2.893,1.448-5.789,2.171-8.648
		c0.758-2.812,1.472-5.445,2.146-7.854c0.69-2.371,1.263-4.376,1.737-5.963c0.472-1.535,0.81-2.549,0.941-2.878
		c0.906-0.192,2.225-0.281,3.96-0.437c1.737-0.178,3.681-0.314,5.888-0.455c2.223-0.137,4.5-0.277,6.88-0.399
		c2.327-0.107,4.613-0.211,6.81-0.296c2.207-0.104,4.126-0.174,5.843-0.211c1.694-0.066,2.958-0.085,3.831-0.085
		c0.4,0.714,0.967,2.09,1.745,4.065c0.732,1.953,1.639,4.291,2.608,7.047c0.991,2.756,1.996,5.652,3.078,8.704
		c1.071,3.089,2.092,6.07,3.115,8.981c0.979,2.934,1.883,5.582,2.713,7.924c0.758,2.334,1.378,4.117,1.814,5.404
		c-2.234,0.525-4.554,0.906-7.03,1.258c-2.425,0.277-4.929,0.521-7.484,0.766L225.351,1429.164z M224.487,1377.67l-30.178-0.559
		c0.246-0.836,0.699-2.127,1.3-3.943c0.646-1.742,1.414-3.906,2.286-6.349c0.881-2.478,1.885-5.094,2.896-7.92
		c1.047-2.826,2.102-5.689,3.146-8.582c1.067-2.93,2.061-5.723,3.054-8.39c0.967-2.689,1.805-5.079,2.547-7.239h0.296
		c0.401,1.306,0.979,3.07,1.718,5.249c0.716,2.179,1.544,4.587,2.477,7.272c0.901,2.689,1.859,5.479,2.887,8.338
		c0.967,2.934,1.946,5.757,2.913,8.494c0.96,2.774,1.848,5.356,2.65,7.694C223.292,1374.079,223.947,1376.046,224.487,1377.67
		L224.487,1377.67z M306.548,1368.459c0-2.512,0-5.231,0.037-8.198c0-2.93,0.033-5.93,0.087-8.963
		c0.017-3.004,0.052-5.896,0.104-8.567c0.054-2.686,0.124-4.968,0.209-6.991c0.089-1.953,0.192-3.385,0.298-4.221
		c2.129,0,4.326,0.104,6.542,0.296c2.284,0.207,4.413,0.54,6.488,1.01c2.057,0.437,3.925,1.099,5.512,1.868
		c2.423,1.202,4.57,2.771,6.278,4.672c1.728,1.957,3.07,4.188,3.979,6.699c0.89,2.493,1.378,5.197,1.378,8.146
		c-0.017,4.343-0.628,8.061-1.849,11.183c-1.186,3.07-2.739,5.686-4.57,7.762c-1.901,2.094-3.873,3.77-5.967,5.042
		c-2.075,1.257-4.012,2.216-5.843,2.896c-1.814,0.629-3.228,1.08-4.343,1.324l-0.42,3.592c1.065-0.137,2.46-0.418,4.239-0.854
		c1.726-0.381,3.716-0.977,5.878-1.694c2.199-0.695,4.467-1.602,6.838-2.719c2.355-1.047,4.676-2.323,6.943-3.821
		c2.267-1.45,4.36-3.122,6.278-5.009c1.953-1.935,3.629-4.01,5.11-6.296c1.519-2.286,2.704-4.832,3.523-7.588
		c0.836-2.707,1.274-5.707,1.291-8.967c0.035-0.977-0.122-2.09-0.401-3.573c-0.296-1.413-0.941-2.967-1.866-4.624
		c-0.923-1.709-2.319-3.348-4.221-4.972c-1.922-1.69-4.45-3.174-7.589-4.517c-3.577-1.465-8.268-2.512-14.095-3.178
		c-5.861-0.662-12.681-1.01-20.547-1.01c-1.119,0-2.601,0-4.363,0c-1.777,0.033-3.725,0.033-5.895,0.033
		c-2.153,0-4.343,0-6.575,0.037c-2.227,0-4.335,0.037-6.352,0.037c-1.998,0.037-3.803,0.037-5.327,0.037
		c-1.537,0.015-2.669,0.015-3.422,0.015l0.437,3c0.881,0.07,2.066,0.196,3.489,0.3c1.413,0.137,2.922,0.273,4.474,0.451
		c1.57,0.137,3.035,0.352,4.361,0.559c1.343,0.263,2.338,0.47,3.061,0.699c0.113,0.873,0.192,2.193,0.27,4.047
		c0.087,1.813,0.107,3.958,0.194,6.348c0.05,2.441,0.113,4.938,0.129,7.572c0.028,2.582,0.052,5.094,0.078,7.498
		c0.028,2.408,0.028,4.502,0.061,6.314c0,1.779,0,3.107,0,3.91v5.72c0,2.268,0,4.938,0,7.957c-0.035,3.033-0.035,6.244-0.061,9.662
		c-0.026,3.385-0.05,6.803-0.078,10.221c-0.019,3.385-0.08,6.629-0.129,9.61c-0.087,3.019-0.105,5.671-0.194,7.935
		c-0.078,2.198-0.157,3.873-0.27,4.954c-0.958,0.211-2.171,0.421-3.636,0.595c-1.474,0.208-2.983,0.418-4.57,0.593
		c-1.554,0.207-2.967,0.348-4.256,0.521c-1.293,0.137-2.199,0.244-2.766,0.314l-0.594,3.037c0.864-0.07,2-0.141,3.472-0.178
		c1.474-0.037,3.107-0.104,4.979-0.174c1.85-0.07,3.751-0.07,5.73-0.107c1.998-0.07,3.899-0.07,5.758-0.137c1.84,0,3.472,0,4.952,0
		c1.326,0,2.992,0,4.912,0c1.951,0.066,4.03,0.066,6.228,0.137c2.195,0.037,4.361,0.037,6.488,0.107
		c2.11,0.07,4.048,0.137,5.774,0.174c1.709,0.037,3.053,0.107,4.048,0.178l-0.716-3.037c-1.169-0.107-2.582-0.244-4.256-0.422
		c-1.708-0.137-3.455-0.348-5.287-0.559c-1.813-0.174-3.47-0.348-5.021-0.519c-1.568-0.21-2.826-0.384-3.697-0.524
		c-0.087-0.732-0.194-2.128-0.279-4.255c-0.05-2.164-0.104-4.676-0.157-7.746c-0.07-3-0.12-6.281-0.12-9.77
		c-0.052-3.507-0.107-6.958-0.107-10.446c0-3.511-0.033-6.736-0.033-9.788c-0.037-2.963-0.037-5.512-0.037-7.605v-6.033H306.548z
		 M382.324,1379.239c0,2.652,0,5.549-0.037,8.652c-0.019,3.07-0.07,6.244-0.105,9.47c-0.017,3.159-0.068,6.3-0.174,9.3
		c-0.052,2.981-0.106,5.723-0.176,8.161c-0.087,2.478-0.157,4.538-0.245,6.177c-0.104,1.64-0.206,2.652-0.313,3.104
		c-0.977,0.28-2.179,0.524-3.608,0.735c-1.413,0.208-2.863,0.418-4.363,0.626c-1.481,0.141-2.861,0.351-4.063,0.421
		c-1.239,0.138-2.146,0.208-2.739,0.244l-0.732,3.037c1.448-0.107,3.12-0.177,5.11-0.211c1.935-0.066,3.977-0.137,6.089-0.207
		c2.09-0.037,4.079-0.107,5.964-0.107c1.919-0.066,3.453-0.066,4.694-0.066c1.55,0,3.627,0,6.207,0.066
		c2.565,0,5.408,0.07,8.582,0.107c3.157,0.07,6.352,0.141,9.629,0.207c3.228,0.07,6.298,0.178,9.157,0.244
		c2.896,0.107,5.338,0.178,7.38,0.352c2.075,0.07,3.451,0.207,4.186,0.314c0.051,1.113,0.105,2.408,0.105,3.803
		c0.017,1.395,0.017,3.037,0.017,4.953l3.019,0.593c0.105-1.222,0.263-2.793,0.47-4.676c0.228-1.884,0.49-3.978,0.805-6.208
		c0.314-2.234,0.592-4.539,0.96-6.84c0.296-2.338,0.662-4.535,0.941-6.629c0.365-2.094,0.646-3.925,0.906-5.475
		c0.279-1.539,0.49-2.689,0.681-3.403l-3.331,0.892c-0.385,1.587-0.838,3.47-1.293,5.634c-0.472,2.146-1.08,4.483-1.864,6.995
		c-2.216,1.254-5.11,2.23-8.688,2.93c-3.54,0.695-7.537,1.221-11.932,1.568c-4.411,0.244-9.035,0.418-13.85,0.418
		c-0.087-0.766-0.157-2.127-0.261-4.15c-0.052-1.986-0.157-4.395-0.209-7.235c-0.07-2.845-0.157-5.863-0.209-9.056
		c-0.07-3.155-0.12-6.329-0.176-9.418c-0.052-3.07-0.068-5.896-0.104-8.408c-0.019-2.546-0.054-4.551-0.054-6.053v-2.859
		c4.138,0,8.061,0.085,11.739,0.329c3.716,0.211,6.979,0.525,9.786,0.98c2.806,0.47,4.972,1.062,6.472,1.864
		c0,1.465,0,3.052-0.07,4.743c-0.052,1.693-0.157,3.369-0.19,4.868l2.735,1.15c0.107-0.766,0.265-1.92,0.472-3.382
		c0.228-1.502,0.435-3.177,0.697-5.026c0.279-1.884,0.509-3.837,0.819-5.79c0.265-1.953,0.49-3.821,0.697-5.582
		c0.265-1.746,0.472-3.244,0.681-4.539c0.176-1.235,0.278-2.09,0.35-2.545l-3.017,0.277c-0.12,1.014-0.314,2.023-0.542,3.037
		c-0.261,0.98-0.54,2.079-0.871,3.141c-0.906,0.311-2.373,0.625-4.395,0.925c-1.99,0.259-4.38,0.488-7.136,0.714
		c-2.791,0.207-5.739,0.366-8.861,0.488c-3.124,0.104-6.265,0.174-9.368,0.174v-2.893c0-1.432,0.037-3.314,0.054-5.638
		c0.035-2.286,0.05-4.85,0.104-7.62c0.054-2.723,0.105-5.479,0.176-8.268c0.052-2.793,0.139-5.408,0.209-7.779
		c0.052-2.408,0.157-4.395,0.209-5.981c0.104-1.624,0.174-2.582,0.261-2.967c1.291,0,2.913,0.052,4.85,0.192
		c1.937,0.106,4.049,0.211,6.314,0.488c2.305,0.211,4.607,0.455,6.873,0.821c2.305,0.277,4.465,0.717,6.453,1.135
		c1.992,0.455,3.681,0.943,5.079,1.536c1.393,0.521,2.303,1.187,2.756,1.886c0.05,0.766,0.05,1.636,0.087,2.72
		c0,1.028,0,2.06-0.037,3.141c0,1.117,0,2.023-0.017,2.859c-0.037,0.803-0.037,1.361-0.037,1.643l3.158,1.01
		c0.07-0.784,0.156-1.972,0.279-3.541c0.104-1.586,0.261-3.436,0.435-5.496c0.192-2.058,0.364-4.185,0.54-6.382
		c0.244-2.216,0.42-4.291,0.594-6.263c0.244-2.009,0.418-3.718,0.61-5.146c0.137-1.413,0.331-2.408,0.399-2.967l-3.296,0.596
		c-0.141,1.291-0.314,2.545-0.523,3.699c-0.174,1.146-0.383,2.193-0.608,3.066c-0.594,0.141-1.71,0.248-3.315,0.352
		c-1.639,0.141-3.61,0.207-5.95,0.296c-2.354,0.052-4.831,0.104-7.535,0.155c-2.723,0.052-5.425,0.141-8.11,0.141
		c-2.704,0-5.234,0-7.657,0c-2.356,0-4.396,0.066-6.089,0.066c-1.709,0-2.93,0-3.594,0c-1.604,0-3.54-0.066-5.721-0.066
		c-2.234-0.037-4.554-0.089-6.925-0.089c-2.425-0.089-4.728-0.155-6.943-0.207c-2.268-0.089-4.256-0.155-6.018-0.211l0.593,3.159
		c0.888,0.104,2.023,0.244,3.383,0.418c1.38,0.141,2.843,0.314,4.343,0.525c1.519,0.174,2.913,0.366,4.223,0.573
		c1.291,0.192,2.249,0.296,2.963,0.488c0.157,0.925,0.244,2.479,0.352,4.624c0.104,2.216,0.207,4.742,0.275,7.709
		c0.105,2.948,0.157,6.071,0.211,9.353c0.068,3.311,0.12,6.559,0.155,9.747c0.019,3.178,0.052,6.052,0.052,8.704v6.581H382.324z" />
		<path fill="#F4E00B" stroke="#F4E00B" stroke-width="3.7817" stroke-miterlimit="10" d="M473.743,1376.657c0,2.549,0,5.375,0,8.479
		c-0.052,3.089-0.052,6.281-0.07,9.629c-0.033,3.314-0.05,6.54-0.104,9.718c-0.037,3.192-0.052,6.122-0.105,8.826
		c-0.089,2.704-0.122,5.009-0.176,6.892c-0.105,1.88-0.207,3.207-0.294,3.906c-1.03,0.281-2.286,0.525-3.768,0.732
		c-1.537,0.211-3.019,0.422-4.589,0.629c-1.57,0.141-2.965,0.352-4.206,0.418c-1.272,0.141-2.146,0.211-2.665,0.244l-0.594,3.037
		c0.697-0.07,1.796-0.141,3.261-0.174c1.45-0.037,3.141-0.104,5.023-0.174c1.92-0.07,3.873-0.07,5.861-0.107
		c2.023-0.07,3.925-0.07,5.688-0.137c1.796,0,3.263,0,4.465,0c1.361,0,2.965,0,4.798,0c1.796,0.066,3.714,0.066,5.721,0.137
		c1.988,0.037,3.979,0.037,5.863,0.107c1.881,0.07,3.559,0.137,5.021,0.174c1.483,0.033,2.582,0.104,3.314,0.174l-0.577-3.037
		c-0.819-0.066-1.935-0.174-3.35-0.311c-1.361-0.178-2.895-0.314-4.448-0.525c-1.57-0.174-3.019-0.385-4.326-0.592
		c-1.326-0.174-2.319-0.381-2.948-0.592c-0.122-1.361-0.174-3.244-0.261-5.615c-0.07-2.375-0.122-5.023-0.178-7.957
		c-0.068-2.963-0.12-5.93-0.155-8.963c-0.019-3.07-0.068-5.967-0.105-8.652c-0.017-2.704-0.017-4.987-0.017-6.907v-3.732
		c0.819,0,1.986-0.07,3.453-0.141c1.413-0.066,3.07-0.174,4.883-0.314c1.779-0.137,3.611-0.244,5.461-0.418
		c0.35,0.47,1.378,1.639,3.002,3.559c1.618,1.92,3.732,4.344,6.261,7.24c2.563,2.859,5.373,6.019,8.425,9.418
		c3.089,3.366,6.263,6.788,9.49,10.206c3.261,3.422,6.352,6.592,9.366,9.629c3.052,2.963,5.756,5.479,8.179,7.535
		c2.425,2.094,4.413,3.492,5.863,4.188l6.314-1.01c-2.129-2.305-4.413-4.953-6.838-7.953c-2.371-3-4.798-6.248-7.272-9.666
		c-2.48-3.385-4.903-6.873-7.274-10.343c-2.354-3.508-4.622-6.893-6.716-10.118c-2.11-3.266-3.995-6.196-5.619-8.882
		c-1.657-2.648-3-4.901-4.03-6.662c-1.028-1.779-1.674-2.915-1.901-3.455c2.774-1.535,5.394-3.418,7.816-5.582
		c2.479-2.197,4.622-4.479,6.453-6.943c1.852-2.475,3.331-4.972,4.361-7.461c1.082-2.512,1.589-4.938,1.622-7.206
		c-0.052-3.962-1.169-7.31-3.333-10.032c-2.164-2.756-5.164-4.85-9.037-6.348c-2.441-0.977-5.303-1.746-8.512-2.286
		c-3.244-0.54-6.664-0.959-10.274-1.188c-3.629-0.226-7.326-0.434-11.007-0.488c-3.697-0.052-7.293-0.086-10.746-0.086l-31.05,0.138
		l0.453,3.037c0.819,0.088,1.953,0.174,3.401,0.314c1.448,0.104,2.932,0.262,4.535,0.454c1.622,0.138,3.107,0.293,4.45,0.504
		c1.306,0.159,2.336,0.314,2.983,0.437c0.087,0.488,0.19,1.568,0.294,3.226c0.052,1.676,0.087,3.666,0.176,6.052
		c0.052,2.39,0.068,4.887,0.105,7.609c0.05,2.648,0.07,5.197,0.104,7.742c0.019,2.512,0.019,4.746,0.07,6.647
		c0,1.935,0,3.366,0,4.272v8.749H473.743z M489.829,1373.342c0-1.709,0-3.8,0.017-6.226c0.037-2.424,0.052-5.043,0.087-7.832
		c0.019-2.826,0.019-5.652,0.07-8.479c0.052-2.845,0.104-5.549,0.157-8.079c0.037-2.578,0.104-4.864,0.174-6.784
		c0.052-1.953,0.107-3.437,0.209-4.432c6.192,0.019,11.408,0.666,15.664,1.901c4.239,1.188,7.694,2.845,10.256,4.85
		c2.582,2.009,4.467,4.206,5.601,6.577c1.15,2.375,1.694,4.746,1.676,7.103c0,3.537-0.594,6.626-1.676,9.263
		c-1.099,2.649-2.477,4.917-4.221,6.767c-1.676,1.85-3.455,3.385-5.305,4.502c-1.864,1.169-3.61,2.02-5.197,2.615
		c-3.087,1.117-6.141,1.831-9.122,2.234c-2.965,0.351-5.791,0.507-8.39,0.507V1373.342z M568.147,1442.21
		c0.366-1.779,0.716-3.662,1.099-5.619c0.403-1.949,0.803-3.766,1.152-5.404c0.331-1.639,0.662-2.967,0.925-3.907
		c0.991,0.522,2.282,1.011,3.819,1.466c1.5,0.418,3.193,0.836,5.008,1.116c1.832,0.352,3.664,0.593,5.564,0.733
		c1.885,0.174,3.699,0.277,5.443,0.277c4.919,0,9.508-0.699,13.764-2.094c4.293-1.392,8.009-3.418,11.251-6.07
		c3.192-2.687,5.721-5.964,7.552-9.874c1.833-3.888,2.774-8.301,2.791-13.306c-0.017-4.521-0.714-8.46-2.059-11.845
		c-1.38-3.422-3.209-6.399-5.479-8.981c-2.319-2.582-4.864-4.902-7.707-6.943c-2.845-2.076-5.758-4.048-8.774-5.882
		c-2.739-1.706-5.375-3.385-7.816-4.917c-2.51-1.59-4.709-3.178-6.61-4.816c-1.936-1.62-3.453-3.385-4.569-5.268
		c-1.082-1.85-1.675-3.943-1.71-6.277c0-1.676,0.351-3.314,1.048-4.99c0.646-1.676,1.674-3.207,3.087-4.62
		c1.449-1.45,3.229-2.582,5.479-3.437c2.217-0.873,4.852-1.306,7.938-1.324c2.51,0.019,4.864,0.451,6.991,1.291
		c2.147,0.803,4.065,1.92,5.758,3.244c1.657,1.31,3.017,2.704,4.136,4.188c1.117,1.479,1.814,2.878,2.249,4.184
		c0.122,1.295,0.281,2.826,0.385,4.643c0.104,1.742,0.174,3.869,0.174,6.314l3.311,1.424c0-5.93,0.333-12.141,0.979-18.803
		c0.608-6.592,1.448-13.432,2.479-20.567l-3.314,0.422c-0.437,1.953-0.838,3.939-1.256,5.981c-0.42,2.023-0.819,3.925-1.345,5.652
		c-1.186-0.352-2.737-0.647-4.674-1.047c-1.953-0.422-4.169-0.77-6.697-1.08c-2.48-0.281-5.166-0.455-8.025-0.488
		c-4.237,0.033-8.007,0.573-11.25,1.568c-3.226,1.01-6.052,2.39-8.373,4.15c-2.321,1.709-4.221,3.681-5.704,5.859
		c-1.465,2.183-2.582,4.465-3.279,6.807c-0.697,2.334-0.993,4.672-0.993,6.939c0.017,4.014,0.662,7.658,1.953,10.78
		c1.291,3.174,3.07,6.037,5.425,8.619c2.286,2.582,4.953,5.023,8.022,7.306c3.038,2.249,6.352,4.521,9.908,6.821
		c2.354,1.502,4.62,3,6.821,4.572c2.164,1.535,4.15,3.244,5.843,5.057c1.765,1.779,3.122,3.784,4.169,6.07
		c0.995,2.268,1.517,4.835,1.535,7.728c-0.019,2.667-0.538,5.112-1.568,7.343c-1.065,2.198-2.528,4.084-4.361,5.723
		c-1.883,1.605-4.03,2.827-6.507,3.699c-2.441,0.907-5.112,1.361-7.972,1.361c-3.333,0-6.422-0.698-9.315-1.989
		c-2.896-1.361-5.443-3.175-7.657-5.549c-2.234-2.372-3.979-5.039-5.323-8.165c-0.105-0.644-0.207-1.602-0.331-2.756
		c-0.105-1.221-0.244-2.475-0.364-3.803c-0.107-1.357-0.176-2.578-0.265-3.695c-0.05-1.084-0.05-1.901-0.017-2.39l-3.314-0.854
		c0.087,0.732,0.139,1.813,0.139,3.329c0,1.502-0.052,3.196-0.105,5.079c-0.05,1.92-0.104,3.803-0.191,5.723
		c-0.053,1.883-0.123,3.592-0.175,5.127c-0.106,1.535-0.106,2.723-0.106,3.455c0,1.147-0.051,2.649-0.208,4.429
		c-0.122,1.779-0.296,3.665-0.507,5.723c-0.207,2.023-0.42,4.01-0.645,5.893c-0.209,1.887-0.419,3.525-0.578,4.887
		c-0.154,1.324-0.313,2.23-0.365,2.652L568.147,1442.21z" />
		<path fill="#EAEAE8" d="M129.559,1224.463c-2.162,21.189-18.603,37.958-40.652,37.854l-4.544,1.028
		c-0.052-6.07,6.008-3.314,10.38-8.619l-2.068-1.909l-3.768-6.603l-4.57,0.052l2.608,8.249l-4.42,0.141l-1.195-1.839l-3.342-5.286
		l-7.056-0.366l-0.08,1.961l4.204,6.3l-3.88,0.155l-2.137-3.688l-2.169-3.584l-4.45-0.237l-3.653,0.078l0.829,6.507l-3.81-5.608
		h-4.711h-3.775l0.923,5.679l-0.052,1.953l5.747,9.403l13.03,5.353l-9.255,5.061l-13.249,15.159
		c3.429,11.391,29.575,5.216,37.828,1.865c9.923-4.011,26.819-16.296,32.172-17.968c3.298-2.197,5.739-6.803,9.272-7.395
		l-1.702,5.479c9.935,15,31.251-27.012,33.265-33.204c3.078-9.525-2.364-15.101-9.951-21.396
		C125.137,1202.243,132.114,1220.458,129.559,1224.463L129.559,1224.463z" />
		<path fill="#EAEAE8" d="M117.637,1176.4c-3.194,6.966-7.702,15.418-9.917,16.935l-29.462-15.07l1.744-1.864H62.243l-3.699,2.408
		c0.27,0.803,14.427,27.097,15.34,28.521l-0.129,4.82l0.026,2.845l-7.535,1.106l-4.772-0.186l-8.477-1.136
		c1.563,6.223,6.357,6.892,5.416,16.103c-3.88,3.688-11.547,9.341-12.061,15.334h4.716l3.612-0.052l2.164-10.425l0.899,3.84
		l-0.053,5.675h7.563v-2.834v-1.856l2.843-4.754l0.744-1.106l2.878,0.233l-2.103,9.107l7.004,0.289c0-4.032,0.401-6.736,2.817-9.474
		l4.552-1.029l0.218,3.862l-0.026,0.962l0.054,3.61l3.732,0.155v-2.841l1.866-4.72l5.022-4.414
		c-6.707-9.828-16.336-17.26-16.362-30.581l0.087-1.986l-2.129-2.634l4.272-10.065l2.512,3.307l14.557,22.195
		c19.249-2.249,31.721-17.911,49.734-22.195l-5.652-9.443h-5.678l-1.899-0.951c-0.331-0.544-0.575-1.117-0.732-1.694h-15.925V1176.4
		z" />
		<path fill="#7D8282" d="M129.559,1224.463c2.555-4.002-4.422-22.221,15.77-5.423c7.587,6.296,13.028,11.871,9.951,21.396
		c-2.016,6.192-23.331,48.204-33.265,33.2l-5.042,7.395c16.241,0.019,19.38-1.291,33.833-6.939
		c6.044-2.356,21.542-10.483,24.683-15.98c1.761-3.107-1.396-29.627-1.474-36.493c-0.207-20.975,11.042-10.265,1.909-28.388
		c-4.646,1.239-19.343,18.841-22.824,22.813l-10.126-5.956l-3.941,0.174h-1.911l-7.562,0.988v8.46V1224.463z" />
		<path fill="#7D8282" d="M83.238,1188.485l-1.145,4.85l13.591,21.5c13.353,0.977,26.113-6.654,36.909-13.857
		c16.119-10.709,20.81-10.894,39.676-11.607l-3.803-7.477l-26.594-2.852l5.652,9.443c-18.013,4.284-30.485,19.95-49.734,22.195
		L83.238,1188.485z" />
		<path fill="#7D8282"
			d="M134.295,1178.09v-1.69h-0.732C133.719,1176.973,133.964,1177.55,134.295,1178.09L134.295,1178.09z" />
		<path fill="#7D8282"
			d="M89.832,1234.859l2.256,6.559c7.991-0.644,23.087-4.754,28.014-12.233l-7.43-7.895l-6.725,3.097
		l-9.472,1.157l-3.803-0.155c-5.198-7.997-10.23-19.868-14.181-25.521c0.026,13.317,9.655,20.749,16.362,30.577L89.832,1234.859z" />
		<path fill="#7D8282" d="M44.443,1291.656l-1.981,2.737c15.257,21.367,60.88-2.845,71.981-18.836
		c-5.353,1.672-22.249,13.953-32.172,17.964C74.02,1296.872,47.872,1303.046,44.443,1291.656L44.443,1291.656z" />
		<path fill="#7D8282" d="M92.675,1252.818l2.068,1.909c-4.372,5.305-10.432,2.549-10.38,8.619l4.544-1.028l-3.707-0.122l15.927-4.92
		l0.08-3.488c-0.88-3.674-1.913-5.716-4.833-7.65l-2.51,1.317l-0.244,3.507L92.675,1252.818z" />
		<polygon fill="#7D8282" points="57.691,1276.497 66.947,1271.44 53.914,1266.083 	" />
		<polygon fill="#7D8282" points="87.966,1242.423 84.233,1242.264 84.179,1238.654 84.205,1237.696 83.987,1233.83 79.435,1234.859 
		80.586,1236.664 80.403,1238.654 80.403,1243.375 84.179,1243.375 86.055,1243.375 	" />
		<path fill="#7D8282" d="M81.327,1252.818l1.195,1.839l4.42-0.137l-2.608-8.249l4.57-0.053c-1.056-0.669,1.249-0.961-2.852-0.961
		c-3.087,0-3.087,0.473-4.728,1.912L82.37,1252L81.327,1252.818z" />
		<polygon fill="#7D8282" points="76.618,1244.333 69.614,1244.043 71.717,1234.94 68.837,1234.703 68.097,1235.809 69.24,1237.625 
		69.038,1239.579 69.038,1245.257 72.806,1245.257 74.708,1245.257 	" />
		<polygon fill="#7D8282" points="69.038,1251.893 71.175,1255.582 75.055,1255.426 70.853,1249.13 70.931,1247.166 69.806,1247.917 
		70.051,1251.039 	" />
		<polygon fill="#7D8282" points="48.219,1254.727 47.297,1249.048 51.072,1249.048 55.782,1249.048 53.992,1247.917 
		52.013,1248.098 46.355,1248.098 46.355,1250.961 	" />
		<path fill="#010101" d="M185.43,1284.905V1176.4h-51.136v1.69l1.899,0.951h5.678l26.594,2.852l3.803,7.477
		c-18.864,0.714-23.557,0.898-39.676,11.607c-10.796,7.206-23.557,14.838-36.909,13.857l-13.591-21.5l1.145-4.85l-2.512-3.307
		l-4.272,10.065l2.129,2.634l-0.087,1.99c3.951,5.652,8.984,17.52,14.181,25.521l3.803,0.155l9.472-1.157l6.725-3.097l7.43,7.895
		c-4.927,7.479-20.024,11.59-28.014,12.233l-2.256-6.559l-1.866,4.72v2.845l-1.911,0.951h-1.875h-3.777v-4.721l0.183-1.99
		l-1.15-1.805c-2.416,2.74-2.817,5.444-2.817,9.474l-1.911,0.925h-1.899h-3.77v-5.679l0.202-1.953l-1.145-1.816l-2.843,4.754v1.86
		v2.834h-7.563l0.054-5.679l-0.899-3.836l-2.164,10.421l-3.612,0.052h-4.716c0.512-5.993,8.179-11.642,12.061-15.334
		c0.941-9.207-3.853-9.88-5.416-16.099l8.477,1.136l4.772,0.182l7.535-1.106l-0.025-2.841l0.129-4.824
		c-0.914-1.42-15.071-27.718-15.341-28.521l3.699-2.408H51.073c0.131,4.72,1.099,4.283,4.507,7.587
		c0.875,6.873,4.014,10.854,4.014,19.65v5.678v0.951l-9.488-0.13l-4.071,0.751c-1.953,6.141,5.146,12.053,5.815,18.193
		c-2.284,4.542-9.977,11.971-10.343,17.138c-0.2,2.19,4.528,19.884,5.601,21.944c7.029,13.535-19.432,18.854-17.46,32.619
		c6.838,6.455,24.596,8.845,33.744,8.845c9.185,0,17.392-1.275,26.094-4.136c7.162-2.408,16.519-7.694,22.119-9.141L185.43,1284.905
		z M122.013,1273.637l1.702-5.479c-3.533,0.596-5.974,5.197-9.272,7.398c-11.101,15.991-56.724,40.207-71.981,18.836l1.981-2.737
		l13.249-15.159l-3.777-10.413l-5.747-9.403l0.052-1.953l-1.864-3.766v-2.863h5.66l1.979-0.182l1.789,1.132l3.81,5.608l-0.829-6.507
		l3.653-0.078l4.448,0.237l2.171,3.584l1.012-0.854l-0.244-3.118l1.125-0.751l7.056,0.366l3.342,5.286l1.045-0.825l-1.045-4.831
		c1.639-1.438,1.639-1.908,4.728-1.908c4.101,0,1.796,0.284,2.852,0.958l3.766,6.603l0.943-1.856l0.246-3.507l2.51-1.317
		c2.92,1.935,3.951,3.977,4.833,7.65l-0.08,3.488l-15.927,4.92l3.707,0.122c22.049,0.104,38.489-16.669,40.653-37.854v-4.753v-8.46
		l7.561-0.988h1.911l3.941-0.174l10.126,5.956c3.479-3.977,18.176-21.578,22.824-22.813c9.133,18.123-2.118,7.413-1.909,28.388
		c0.08,6.866,3.235,33.386,1.474,36.493c-3.141,5.493-18.639,13.624-24.683,15.98c-14.453,5.648-17.591,6.958-33.833,6.939
		L122.013,1273.637z" />
	</g>
</svg>
