<svg version="1.1" baseProfile="basic" id="Layer_1" xmlns="http://www.w3.org/2000/svg"
	xmlns:xlink="http://www.w3.org/1999/xlink" x="0px" y="0px" viewBox="0 0 800 800" xml:space="preserve">
	<g>
		<g>
			<g>

				<rect x="251.108" y="648.081" fill="none" stroke="#FFFFFF" stroke-width="4.2376" stroke-miterlimit="10"
					width="5.979" height="68.061" />

				<line fill="none" stroke="#6D6E71" stroke-width="4.2376" stroke-linecap="round" stroke-miterlimit="10"
					x1="254.098" y1="648.081" x2="254.098" y2="716.142" />
			</g>
			<g>

				<rect x="290.475" y="629.645" fill="none" stroke="#FFFFFF" stroke-width="4.2376" stroke-miterlimit="10"
					width="5.979" height="68.061" />

				<line fill="none" stroke="#6D6E71" stroke-width="4.2376" stroke-linecap="round" stroke-miterlimit="10"
					x1="293.465" y1="629.645" x2="293.465" y2="697.705" />
			</g>
			<g>

				<rect x="422.027" y="629.645" fill="none" stroke="#FFFFFF" stroke-width="4.2376" stroke-miterlimit="10"
					width="5.98" height="68.061" />

				<line fill="none" stroke="#6D6E71" stroke-width="4.2376" stroke-linecap="round" stroke-miterlimit="10"
					x1="425.018" y1="629.645" x2="425.018" y2="697.705" />
			</g>
			<g>

				<rect x="461.392" y="642.601" fill="none" stroke="#FFFFFF" stroke-width="4.2376" stroke-miterlimit="10"
					width="5.98" height="68.061" />

				<line fill="none" stroke="#6D6E71" stroke-width="4.2376" stroke-linecap="round" stroke-miterlimit="10"
					x1="464.382" y1="642.601" x2="464.382" y2="710.661" />
			</g>
		</g>
		<g>
			<g>
				<path fill-rule="evenodd" clip-rule="evenodd" d="M509.924,189.166c-1.39-1.729-3.127-3.295-5.281-4.621
				c-1.968-1.204-3.67-2.897-5.729-3.906c-5.539-2.691-4.879-4.155-1.705-10.525c1.104-2.223-3.346-6.107-5.866-7.096
				c-2.358-0.946-3.723,0.087-4.826,1.955c-0.622,1.065-1.101,2.228-1.77,3.271c-1.007,1.597-2.388,2.673-4.417,2.36
				c-2.152-0.347-2.719-2.066-3.075-3.872c-0.172-0.866-0.292-1.769-0.271-2.637c0.277-7.602,1.974-11.78-10.607-12.947
				c-3.001-0.279-23.168,9.493-23.579,14.511c-118.765-41.581-209.919-73.341-218.06-76.146c-22.707-7.77-36.455-8.3-55.45,3.262
				c-14.805,8.997-84.201,51.107-88.898,53.932c-4.655,2.797,17.285,40.219,22.48,37.032c5.226-3.15,62.898-39.251,85.93-53.27
				c23.056-13.949,35.03-20.131,51.443-15.452c2.755,0.795,91.069,31.28,192.234,66.251c2.383,1.771,13.563,17.099,16.336,23.209
				c1.058,2.343-0.394,3.36-2.674,3.041c-18.64-2.64-37.715-1.755-56.072-6.113c-18.552-4.41-37.285-4.898-56.132-4.584
				c-7.221,0.123-14.018-0.728-20.695-3.802c-8.055-3.714-16.441-6.711-24.667-10.051c-3.536-1.441-6.902-3.629-5.001-7.882
				c1.892-4.237,5.894-3.862,9.66-2.18c1.944,0.878,3.875,1.796,5.775,2.753c5.346,2.725,10.572,3.577,16.128,0.19
				c3.802-2.31,7.995-2.605,12.249-0.574c1.506,0.732,3.343,1.268,5.649-0.242c-5.685-3.646-10.426-8.3-17.787-5.729
				c-7.168,2.5-12.353-1.65-17.221-5.781c-6.182-5.252-12.596-6.128-20.715-5.018c-11.397,1.562-23.411,3.106-33.958-4.332
				c-3.31-2.337-6.346-1.658-7.828,2.039c-4.94,12.38-9.908,24.863-10.317,38.372c-0.181,6.023,2.883,11.648,5.175,17.255
				c2.822,6.893,5.921,13.684,6.513,21.305c0.207,2.629,0.182,5.191-1.858,6.891c-16.251,13.535-21.789,33.303-30.164,51.418
				c-3.431,7.422-6.792,14.87-10.012,22.373c-1.415,3.298-3.549,5.571-6.771,7.136c-21.433,10.364-42.842,20.778-64.21,31.26
				c-5.898,2.89-12.242,1.778-18.371,2.35c-15.609,1.448-30.748,5.72-46.278,7.431c-10.234,1.127-19.7,4.461-29.16,8.056
				c-1.737,0.657-3.863,0.85-5.069,3.536c11.209-0.053,21.545-5.48,34.125-3.329c-10.035,8.943-22.025,14.31-29.395,26.792
				c11.183-5.143,18.996-12.956,28.958-17.484c0.515,10.435-6.865,17.8-9.051,27.225c5.425-3.927,10.121-8.681,13.106-14.471
				c2.824-5.495,7.371-7.65,13.151-10.246c-1.908,7.48-5.615,13.843-4.33,21.157c2.553-0.14,2.517-2.189,2.82-3.527
				c1.659-7.221,6.469-12.541,10.688-18.226c1.831-2.476,4.314-3.562,7.412-3.355c10.816,0.692,20.767-2.31,30.132-7.393
				c3.255-1.781,6.162-2.018,9.565-0.473c15.854,7.194,31.38,15.139,47.998,20.561c2.31,0.75,3.829,2.461,5.111,4.458
				c9.577,14.959,19.082,29.958,28.796,44.82c3.906,5.979,0.914,11.215-1.815,15.907c-7.75,13.363-16.007,26.427-24.307,39.466
				c-10.571,16.643-21.614,32.987-32.005,49.744c-5.729,9.25-8.265,19.991-12.085,30.111c-2.51,6.64-4.365,13.519-7.31,20.009
				c-4.501,9.986-4.921,20.479-4.425,31.306c1.074,23.775,1.308,47.598,2.966,71.358c0.124,1.761-0.555,3.975,2.222,5.571
				c1.731-11.268,3.403-22.19,5.079-33.118c0.346-0.094,0.688-0.182,1.035-0.27c0.622,2.518,1.273,5.037,1.863,7.571
				c2.12,9.18,4.528,18.274,8.277,26.946c0.975-0.383,1.951-0.768,2.921-1.159c5.568-2.233,11.044-4.681,16.475-7.238
				c6.885-3.24,13.678-6.665,20.329-10.356c8.523-4.727,16.955-9.614,25.139-14.916c10.156-6.576,20.062-13.492,29.356-21.262
				c1.734-1.448,2.498-2.984,2.456-5.303c-0.146-7.831,0.044-15.667-0.092-23.498c-0.087-4.99,1.613-9.595,2.698-14.324
				c0.491-2.138,0.327-4.517,1.976-6.397c0.438-0.502,0.465-2.163,0.063-2.467c-2.114-1.586,0.045-2.847,0.127-4.226
				c0.018-0.323,0.078-0.706,0.54-0.683c0.32,0.018,0.53,0.38,0.431,0.555c-0.8,1.428,2.241,1.93,0.938,3.074
				c-1.346,1.186-1.161,2.689-0.712,3.609c0.823,1.688,0.888,3.457,1.354,5.165c0.149,0.546,0.063,1.398,0.848,1.396
				c0.694,0,0.802-0.806,1.006-1.349c0.283-0.748,0.479-1.53,0.723-2.293c0.103-0.323,0.246-0.665,0.616-0.715
				c0.539-0.076,0.661,0.42,0.772,0.759c0.307,0.938,0.536,1.898,0.895,3.206c1.719-4.041,3.473-7.696,4.794-11.501
				c0.539-1.556,0.832-3.988,0-5.051c-1.25-1.589-0.787-2.269,0.159-3.404c0.286-0.345-0.159-1.297,0.525-1.314
				c0.876-0.021,0.526,0.891,0.613,1.413c0.095,0.555,0.412,0.786,0.899,0.938c0.456,0.144,0.869,0.062,1.001-0.377
				c1.032-3.349,3.36-6.289,3.155-10.026c-0.016-0.333,0.098-0.8-0.078-0.98c-1.873-1.925,0.413-3.229,0.502-5.063
				c1.223,0.92,0.509,2.628,1.861,3.153c0.067,0.029,0.104,0.436,0.012,0.544c-2.624,3.124-0.373,5.971,0.673,8.732
				c2.435,6.424,5.131,12.748,7.74,19.107c0.482,1.17,1.044,2.309,1.602,3.535c0.902-0.706,0.704-1.807,1.064-2.678
				c0.147-0.353,0.192-0.838,0.701-0.863c0.493-0.026,0.676,0.408,0.806,0.765c0.339,0.94,0.588,1.912,0.944,2.841
				c0.103,0.269,0.422,0.558,0.694,0.625c0.406,0.102,0.553-0.295,0.619-0.628c0.51-2.528,1.467-4.955,1.727-7.542
				c0.041-0.394,0.142-1.001-0.064-1.168c-1.844-1.509,0.093-2.826,0.155-4.222c0.015-0.333,0.162-0.718,0.54-0.753
				c0.515-0.053,0.673,0.376,0.685,0.788c0.026,0.826,0.137,1.573,0.911,2.097c0.292,0.198,0.282,0.593,0.016,0.885
				c-1.572,1.708-0.851,3.439-0.267,5.316c0.85,2.735,1.322,5.588,2.089,8.354c1.571,5.664,2.072,11.422,1.68,17.265
				c-0.095,1.413,0.415,1.845,1.813,1.833c10.971-0.078,21.943-0.099,32.918-0.131c3.349-0.012,3.346-0.006,3.355-3.282
				c0.003-0.87,0.006-1.74,0.061-2.61c0.053-0.838,0.447-1.398,1.393-1.328c0.879,0.062,1.071,0.657,1.071,1.401
				c0,1.139,0.111,2.286-0.003,3.41c-0.192,1.843,0.514,2.465,2.371,2.441c6.829-0.085,13.658-0.032,20.485-0.032
				c3.147,0,6.295-0.056,9.439,0.018c1.577,0.038,2.181-0.593,2.096-2.138c-0.073-1.267-0.008-2.543,0.035-3.813
				c0.023-0.647,0.274-1.226,1.045-1.22c0.765,0.003,1.004,0.555,1.016,1.223c0.018,1.206,0.105,2.418,0.006,3.615
				c-0.146,1.734,0.502,2.368,2.28,2.342c5.624-0.085,11.244-0.026,16.871-0.026c8.1,0,16.202-0.05,24.301,0.032
				c1.938,0.018,2.894-0.468,2.701-2.581c-0.675-7.402,1.101-14.471,3.071-21.501c0.424-1.507,0.354-3.13,1.437-4.509
				c0.43-0.543,0.479-2.081,0.053-2.479c-1.714-1.617,0.166-2.902,0.151-4.318c-0.003-0.257,0.123-0.528,0.453-0.558
				c0.356-0.029,0.473,0.26,0.499,0.508c0.097,0.855,0.006,1.731,1.092,2.141c0.406,0.148,0.33,0.712-0.029,1.013
				c-1.664,1.407-1.229,3.005-0.399,4.602c0.732,1.416,0.464,3.031,0.978,4.484c0.149,0.43,0.138,1.02,0.725,1.075
				c0.59,0.059,0.732-0.534,0.894-0.938c0.324-0.803,0.537-1.649,0.82-2.47c0.125-0.371,0.254-0.824,0.744-0.832
				c0.482-0.012,0.66,0.423,0.774,0.788c0.298,0.935,0.54,1.883,0.91,3.209c1.767-4.229,3.405-8.07,4.984-11.939
				c1.863-4.575,3.734-9.153,5.489-13.772c0.756-1.982,1.142-3.938-0.172-6.079c-0.395-0.645,0.873-2.307,1.387-3.5
				c0.009-0.026,0.116-0.018,0.181-0.012c0.242,0.026,1.717,3.562,1.536,3.723c-1.878,1.679-1.08,3.685-0.477,5.492
				c0.835,2.525,1.994,4.942,3.022,7.428c0.966-0.438,1.688-1.052,1.623-2.295c-0.021-0.374,0.173-0.847,0.698-0.786
				c0.511,0.059,0.54,0.537,0.558,0.932c0.026,0.75,0.009,1.457,0.992,1.696c0.459,0.111,0.578,0.736,0.26,0.984
				c-2.414,1.889-1.479,4.637-1.01,6.628c0.861,3.644,2.704,7.054,4.132,10.552c1.13-0.269,0.89-1.08,1.092-1.655
				c0.189-0.534,0.137-1.379,0.914-1.358c0.706,0.021,0.779,0.81,0.969,1.364c0.26,0.753,0.468,1.523,0.754,2.269
				c0.11,0.295,0.32,0.628,0.727,0.587c0.397-0.038,0.511-0.377,0.584-0.71c0.54-2.522,1.478-4.952,1.705-7.539
				c0.035-0.396,0.129-1.004-0.082-1.17c-1.909-1.524,0.248-2.824,0.193-4.229c-0.012-0.327,0.207-0.691,0.59-0.694
				c0.382-0.003,0.572,0.321,0.602,0.68c0.066,0.867,0.034,1.731,1.101,2.132c0.402,0.151,0.502,0.779,0.081,0.995
				c-2.14,1.096-1.36,3.145-0.882,4.371c1.429,3.646,1.931,7.486,2.894,11.218c2.675,10.339,1.367,20.882,1.294,31.35
				c-0.023,2.961,0.44,5.089,3.033,6.995c11.737,8.622,23.727,16.842,36.272,24.249c10.062,5.938,20.301,11.545,30.82,16.613
				c10.342,4.987,20.895,9.542,31.875,12.929c1.434,0.443,2.374,0.835,2.999,0.993c-0.765-10.766-0.067-21.56-0.117-32.334
				c-0.021-3.95-0.47-7.737-1.556-11.548c-3.084-10.812-5.919-21.693-8.386-32.669c10.581,18.821,16.722,38.751,20.047,59.511
				c0.403-0.704,0.94-1.325,1.953-1.711c0.94-0.359,0.896-2.356-0.05-3.357c-1.29-1.355,0.766-1.542,0.704-2.474
				c-0.023-0.364,0.75-0.558,0.94-0.184c0.371,0.724,1.194,1.319,0.917,2.289c-0.088,0.31-0.386,0.558-0.471,0.87
				c-0.662,2.348-0.026,3.183,2.406,3.191c0.675,0,1.352-0.003,2.026,0c-0.321-2.188-0.651-4.374-1.025-6.552
				c-4.756-27.765-13.941-53.64-30.26-77.088c-15.011-21.563-28.786-43.978-44.638-64.961c-8.236-10.926-17.18-21.273-25.974-31.741
				c-17.404-20.713-39.107-36.569-59.429-53.978c-11.816-10.14-21.355-22.305-31.39-34.046
				c-11.922-13.962-21.87-29.309-31.531-44.865c-5.32-8.578-4.409-18.494-6.674-27.72c-4.482-18.268,0.782-35.112,6.616-51.969
				c0.184-0.505,0.347-1.009,0.607-1.478c1.308-2.36-0.66-6.752,2.692-7.194c2.196-0.288,4.873,2.457,7.212,4.035
				c16.2,10.92,32.302,21.983,48.577,32.796c5.6,3.724,8.604,9.375,12.087,14.691c11.995,18.318,25.782,35.25,39.768,52.033
				c4.712,5.659,11.448,9.026,17.758,12.526c7.944,4.421,13.527,10.321,17.227,18.648c6.327,14.27,15.729,26.501,26.578,37.67
				c3.09,3.179,5.939,6.639,8.518,10.236c4.566,6.371,11.016,9.775,18.056,12.496c7.124,2.766,14.175,5.717,21.276,8.546
				c1.278,0.506,2.753,1.51,3.994,0.418c1.346-1.183,0.399-2.741-0.295-3.892c-13.171-21.84-18.302-46.928-28.389-69.982
				c-7.983-18.249-19.551-34.638-28.993-52.147c-14.845-27.524-29.931-54.905-45.659-81.937c-0.438-0.731-0.704-1.565-0.386-2.99
				c18.733,16.269,37.469,32.519,56.296,48.87c1.676-2.476,0.359-3.764-0.4-5.066c-9.416-16.134-17.437-32.948-24.424-50.278
				c-1.305-3.247-3.284-5.695-6.219-7.699c-10.138-6.894-20.173-13.942-30.164-21.051c-3.673-2.613-6.718-15.738-4.712-19.619
				c0.379-0.739,1.077-1.51,1.81-1.842c5.385-2.325,10.687-4.67,15.063-8.836c2.814-2.673,3.299,2.265,5.808,2.299
				c0.563-1.483,1.156-3.019,1.985-5.208c0.61,9.192-0.587,17.561-1.705,26.138c1.098-0.208,1.664-0.172,1.746-0.347
				c3.667-8.5,7.559-17.097,9.302-26.1c93.412,32.307,181.688,62.86,210.453,72.81c0.388-1.261,1.065-2.45,1.971-3.52
				c0.467-1.182,1.057-2.283,1.793-3.376c0.271-0.636,0.563-1.259,0.893-1.862c0.19-0.87,0.356-1.747,0.515-2.621
				c0.012-0.119,0.032-0.238,0.035-0.356c0.037-0.531,0.148-1.032,0.314-1.516c0.044-0.243,0.088-0.491,0.138-0.74
				c0.088-0.458,0.21-0.877,0.348-1.282C699.045,255.571,607.094,223.219,509.924,189.166z" />
				<path fill="none" stroke="#FFFFFF" stroke-width="4.2376" stroke-miterlimit="10" d="M509.924,189.166
				c-1.39-1.729-3.127-3.295-5.281-4.621c-1.968-1.204-3.67-2.897-5.729-3.906c-5.539-2.691-4.879-4.155-1.705-10.525
				c1.104-2.223-3.346-6.107-5.866-7.096c-2.358-0.946-3.723,0.087-4.826,1.955c-0.622,1.065-1.101,2.228-1.77,3.271
				c-1.007,1.597-2.388,2.673-4.417,2.36c-2.152-0.347-2.719-2.066-3.075-3.872c-0.172-0.866-0.292-1.769-0.271-2.637
				c0.277-7.602,1.974-11.78-10.607-12.947c-3.001-0.279-23.168,9.493-23.579,14.511c-118.765-41.581-209.919-73.341-218.06-76.146
				c-22.707-7.77-36.455-8.3-55.45,3.262c-14.805,8.997-84.201,51.107-88.898,53.932c-4.655,2.797,17.285,40.219,22.48,37.032
				c5.226-3.15,62.898-39.251,85.93-53.27c23.056-13.949,35.03-20.131,51.443-15.452c2.755,0.795,91.069,31.28,192.234,66.251
				c2.383,1.771,13.563,17.099,16.336,23.209c1.058,2.343-0.394,3.36-2.674,3.041c-18.64-2.64-37.715-1.755-56.072-6.113
				c-18.552-4.41-37.285-4.898-56.132-4.584c-7.221,0.123-14.018-0.728-20.695-3.802c-8.055-3.714-16.441-6.711-24.667-10.051
				c-3.536-1.441-6.902-3.629-5.001-7.882c1.892-4.237,5.894-3.862,9.66-2.18c1.944,0.878,3.875,1.796,5.775,2.753
				c5.346,2.725,10.572,3.577,16.128,0.19c3.802-2.31,7.995-2.605,12.249-0.574c1.506,0.732,3.343,1.268,5.649-0.242
				c-5.685-3.646-10.426-8.3-17.787-5.729c-7.168,2.5-12.353-1.65-17.221-5.781c-6.182-5.252-12.596-6.128-20.715-5.018
				c-11.397,1.562-23.411,3.106-33.958-4.332c-3.31-2.337-6.346-1.658-7.828,2.039c-4.94,12.38-9.908,24.863-10.317,38.372
				c-0.181,6.023,2.883,11.648,5.175,17.255c2.822,6.893,5.921,13.684,6.513,21.305c0.207,2.629,0.182,5.191-1.858,6.891
				c-16.251,13.535-21.789,33.303-30.164,51.418c-3.431,7.422-6.792,14.87-10.012,22.373c-1.415,3.298-3.549,5.571-6.771,7.136
				c-21.433,10.364-42.842,20.778-64.21,31.26c-5.898,2.89-12.242,1.778-18.371,2.35c-15.609,1.448-30.748,5.72-46.278,7.431
				c-10.234,1.127-19.7,4.461-29.16,8.056c-1.737,0.657-3.863,0.85-5.069,3.536c11.209-0.053,21.545-5.48,34.125-3.329
				c-10.035,8.943-22.025,14.31-29.395,26.792c11.183-5.143,18.996-12.956,28.958-17.484c0.515,10.435-6.865,17.8-9.051,27.225
				c5.425-3.927,10.121-8.681,13.106-14.471c2.824-5.495,7.371-7.65,13.151-10.246c-1.908,7.48-5.615,13.843-4.33,21.157
				c2.553-0.14,2.517-2.189,2.82-3.527c1.659-7.221,6.469-12.541,10.688-18.226c1.831-2.476,4.314-3.562,7.412-3.355
				c10.816,0.692,20.767-2.31,30.132-7.393c3.255-1.781,6.162-2.018,9.565-0.473c15.854,7.194,31.38,15.139,47.998,20.561
				c2.31,0.75,3.829,2.461,5.111,4.458c9.577,14.959,19.082,29.958,28.796,44.82c3.906,5.979,0.914,11.215-1.815,15.907
				c-7.75,13.363-16.007,26.427-24.307,39.466c-10.571,16.643-21.614,32.987-32.005,49.744c-5.729,9.25-8.265,19.991-12.085,30.111
				c-2.51,6.64-4.365,13.519-7.31,20.009c-4.501,9.986-4.921,20.479-4.425,31.306c1.074,23.775,1.308,47.598,2.966,71.358
				c0.124,1.761-0.555,3.975,2.222,5.571c1.731-11.268,3.403-22.19,5.079-33.118c0.346-0.094,0.688-0.182,1.035-0.27
				c0.622,2.518,1.273,5.037,1.863,7.571c2.12,9.18,4.528,18.274,8.277,26.946c0.975-0.383,1.951-0.768,2.921-1.159
				c5.568-2.233,11.044-4.681,16.475-7.238c6.885-3.24,13.678-6.665,20.329-10.356c8.523-4.727,16.955-9.614,25.139-14.916
				c10.156-6.576,20.062-13.492,29.356-21.262c1.734-1.448,2.498-2.984,2.456-5.303c-0.146-7.831,0.044-15.667-0.092-23.498
				c-0.087-4.99,1.613-9.595,2.698-14.324c0.491-2.138,0.327-4.517,1.976-6.397c0.438-0.502,0.465-2.163,0.063-2.467
				c-2.114-1.586,0.045-2.847,0.127-4.226c0.018-0.323,0.078-0.706,0.54-0.683c0.32,0.018,0.53,0.38,0.431,0.555
				c-0.8,1.428,2.241,1.93,0.938,3.074c-1.346,1.186-1.161,2.689-0.712,3.609c0.823,1.688,0.888,3.457,1.354,5.165
				c0.149,0.546,0.063,1.398,0.848,1.396c0.694,0,0.802-0.806,1.006-1.349c0.283-0.748,0.479-1.53,0.723-2.293
				c0.103-0.323,0.246-0.665,0.616-0.715c0.539-0.076,0.661,0.42,0.772,0.759c0.307,0.938,0.536,1.898,0.895,3.206
				c1.719-4.041,3.473-7.696,4.794-11.501c0.539-1.556,0.832-3.988,0-5.051c-1.25-1.589-0.787-2.269,0.159-3.404
				c0.286-0.345-0.159-1.297,0.525-1.314c0.876-0.021,0.526,0.891,0.613,1.413c0.095,0.555,0.412,0.786,0.899,0.938
				c0.456,0.144,0.869,0.062,1.001-0.377c1.032-3.349,3.36-6.289,3.155-10.026c-0.016-0.333,0.098-0.8-0.078-0.98
				c-1.873-1.925,0.413-3.229,0.502-5.063c1.223,0.92,0.509,2.628,1.861,3.153c0.067,0.029,0.104,0.436,0.012,0.544
				c-2.624,3.124-0.373,5.971,0.673,8.732c2.435,6.424,5.131,12.748,7.74,19.107c0.482,1.17,1.044,2.309,1.602,3.535
				c0.902-0.706,0.704-1.807,1.064-2.678c0.147-0.353,0.192-0.838,0.701-0.863c0.493-0.026,0.676,0.408,0.806,0.765
				c0.339,0.94,0.588,1.912,0.944,2.841c0.103,0.269,0.422,0.558,0.694,0.625c0.406,0.102,0.553-0.295,0.619-0.628
				c0.51-2.528,1.467-4.955,1.727-7.542c0.041-0.394,0.142-1.001-0.064-1.168c-1.844-1.509,0.093-2.826,0.155-4.222
				c0.015-0.333,0.162-0.718,0.54-0.753c0.515-0.053,0.673,0.376,0.685,0.788c0.026,0.826,0.137,1.573,0.911,2.097
				c0.292,0.198,0.282,0.593,0.016,0.885c-1.572,1.708-0.851,3.439-0.267,5.316c0.85,2.735,1.322,5.588,2.089,8.354
				c1.571,5.664,2.072,11.422,1.68,17.265c-0.095,1.413,0.415,1.845,1.813,1.833c10.971-0.078,21.943-0.099,32.918-0.131
				c3.349-0.012,3.346-0.006,3.355-3.282c0.003-0.87,0.006-1.74,0.061-2.61c0.053-0.838,0.447-1.398,1.393-1.328
				c0.879,0.062,1.071,0.657,1.071,1.401c0,1.139,0.111,2.286-0.003,3.41c-0.192,1.843,0.514,2.465,2.371,2.441
				c6.829-0.085,13.658-0.032,20.485-0.032c3.147,0,6.295-0.056,9.439,0.018c1.577,0.038,2.181-0.593,2.096-2.138
				c-0.073-1.267-0.008-2.543,0.035-3.813c0.023-0.647,0.274-1.226,1.045-1.22c0.765,0.003,1.004,0.555,1.016,1.223
				c0.018,1.206,0.105,2.418,0.006,3.615c-0.146,1.734,0.502,2.368,2.28,2.342c5.624-0.085,11.244-0.026,16.871-0.026
				c8.1,0,16.202-0.05,24.301,0.032c1.938,0.018,2.894-0.468,2.701-2.581c-0.675-7.402,1.101-14.471,3.071-21.501
				c0.424-1.507,0.354-3.13,1.437-4.509c0.43-0.543,0.479-2.081,0.053-2.479c-1.714-1.617,0.166-2.902,0.151-4.318
				c-0.003-0.257,0.123-0.528,0.453-0.558c0.356-0.029,0.473,0.26,0.499,0.508c0.097,0.855,0.006,1.731,1.092,2.141
				c0.406,0.148,0.33,0.712-0.029,1.013c-1.664,1.407-1.229,3.005-0.399,4.602c0.732,1.416,0.464,3.031,0.978,4.484
				c0.149,0.43,0.138,1.02,0.725,1.075c0.59,0.059,0.732-0.534,0.894-0.938c0.324-0.803,0.537-1.649,0.82-2.47
				c0.125-0.371,0.254-0.824,0.744-0.832c0.482-0.012,0.66,0.423,0.774,0.788c0.298,0.935,0.54,1.883,0.91,3.209
				c1.767-4.229,3.405-8.07,4.984-11.939c1.863-4.575,3.734-9.153,5.489-13.772c0.756-1.982,1.142-3.938-0.172-6.079
				c-0.395-0.645,0.873-2.307,1.387-3.5c0.009-0.026,0.116-0.018,0.181-0.012c0.242,0.026,1.717,3.562,1.536,3.723
				c-1.878,1.679-1.08,3.685-0.477,5.492c0.835,2.525,1.994,4.942,3.022,7.428c0.966-0.438,1.688-1.052,1.623-2.295
				c-0.021-0.374,0.173-0.847,0.698-0.786c0.511,0.059,0.54,0.537,0.558,0.932c0.026,0.75,0.009,1.457,0.992,1.696
				c0.459,0.111,0.578,0.736,0.26,0.984c-2.414,1.889-1.479,4.637-1.01,6.628c0.861,3.644,2.704,7.054,4.132,10.552
				c1.13-0.269,0.89-1.08,1.092-1.655c0.189-0.534,0.137-1.379,0.914-1.358c0.706,0.021,0.779,0.81,0.969,1.364
				c0.26,0.753,0.468,1.523,0.754,2.269c0.11,0.295,0.32,0.628,0.727,0.587c0.397-0.038,0.511-0.377,0.584-0.71
				c0.54-2.522,1.478-4.952,1.705-7.539c0.035-0.396,0.129-1.004-0.082-1.17c-1.909-1.524,0.248-2.824,0.193-4.229
				c-0.012-0.327,0.207-0.691,0.59-0.694c0.382-0.003,0.572,0.321,0.602,0.68c0.066,0.867,0.034,1.731,1.101,2.132
				c0.402,0.151,0.502,0.779,0.081,0.995c-2.14,1.096-1.36,3.145-0.882,4.371c1.429,3.646,1.931,7.486,2.894,11.218
				c2.675,10.339,1.367,20.882,1.294,31.35c-0.023,2.961,0.44,5.089,3.033,6.995c11.737,8.622,23.727,16.842,36.272,24.249
				c10.062,5.938,20.301,11.545,30.82,16.613c10.342,4.987,20.895,9.542,31.875,12.929c1.434,0.443,2.374,0.835,2.999,0.993
				c-0.765-10.766-0.067-21.56-0.117-32.334c-0.021-3.95-0.47-7.737-1.556-11.548c-3.084-10.812-5.919-21.693-8.386-32.669
				c10.581,18.821,16.722,38.751,20.047,59.511c0.403-0.704,0.94-1.325,1.953-1.711c0.94-0.359,0.896-2.356-0.05-3.357
				c-1.29-1.355,0.766-1.542,0.704-2.474c-0.023-0.364,0.75-0.558,0.94-0.184c0.371,0.724,1.194,1.319,0.917,2.289
				c-0.088,0.31-0.386,0.558-0.471,0.87c-0.662,2.348-0.026,3.183,2.406,3.191c0.675,0,1.352-0.003,2.026,0
				c-0.321-2.188-0.651-4.374-1.025-6.552c-4.756-27.765-13.941-53.64-30.26-77.088c-15.011-21.563-28.786-43.978-44.638-64.961
				c-8.236-10.926-17.18-21.273-25.974-31.741c-17.404-20.713-39.107-36.569-59.429-53.978
				c-11.816-10.14-21.355-22.305-31.39-34.046c-11.922-13.962-21.87-29.309-31.531-44.865c-5.32-8.578-4.409-18.494-6.674-27.72
				c-4.482-18.268,0.782-35.112,6.616-51.969c0.184-0.505,0.347-1.009,0.607-1.478c1.308-2.36-0.66-6.752,2.692-7.194
				c2.196-0.288,4.873,2.457,7.212,4.035c16.2,10.92,32.302,21.983,48.577,32.796c5.6,3.724,8.604,9.375,12.087,14.691
				c11.995,18.318,25.782,35.25,39.768,52.033c4.712,5.659,11.448,9.026,17.758,12.526c7.944,4.421,13.527,10.321,17.227,18.648
				c6.327,14.27,15.729,26.501,26.578,37.67c3.09,3.179,5.939,6.639,8.518,10.236c4.566,6.371,11.016,9.775,18.056,12.496
				c7.124,2.766,14.175,5.717,21.276,8.546c1.278,0.506,2.753,1.51,3.994,0.418c1.346-1.183,0.399-2.741-0.295-3.892
				c-13.171-21.84-18.302-46.928-28.389-69.982c-7.983-18.249-19.551-34.638-28.993-52.147
				c-14.845-27.524-29.931-54.905-45.659-81.937c-0.438-0.731-0.704-1.565-0.386-2.99c18.733,16.269,37.469,32.519,56.296,48.87
				c1.676-2.476,0.359-3.764-0.4-5.066c-9.416-16.134-17.437-32.948-24.424-50.278c-1.305-3.247-3.284-5.695-6.219-7.699
				c-10.138-6.894-20.173-13.942-30.164-21.051c-3.673-2.613-6.718-15.738-4.712-19.619c0.379-0.739,1.077-1.51,1.81-1.842
				c5.385-2.325,10.687-4.67,15.063-8.836c2.814-2.673,3.299,2.265,5.808,2.299c0.563-1.483,1.156-3.019,1.985-5.208
				c0.61,9.192-0.587,17.561-1.705,26.138c1.098-0.208,1.664-0.172,1.746-0.347c3.667-8.5,7.559-17.097,9.302-26.1
				c93.412,32.307,181.688,62.86,210.453,72.81c0.388-1.261,1.065-2.45,1.971-3.52c0.467-1.182,1.057-2.283,1.793-3.376
				c0.271-0.636,0.563-1.259,0.893-1.862c0.19-0.87,0.356-1.747,0.515-2.621c0.012-0.119,0.032-0.238,0.035-0.356
				c0.037-0.531,0.148-1.032,0.314-1.516c0.044-0.243,0.088-0.491,0.138-0.74c0.088-0.458,0.21-0.877,0.348-1.282
				C699.045,255.571,607.094,223.219,509.924,189.166z" />
				<path fill="none" stroke="#FFFFFF" stroke-width="6.3563" stroke-miterlimit="10" d="M134.347,708.759
				c-5.304-3.051-5.233-7.961-5.207-9.809c0.002-0.182,0.011-0.358,0.001-0.527c-1.051-15.057-1.54-30.329-2.013-45.1
				c-0.278-8.664-0.565-17.623-0.962-26.408c-0.499-10.867-0.244-22.515,4.947-34.032c1.718-3.787,3.044-7.729,4.448-11.901
				c0.854-2.539,1.737-5.165,2.72-7.765c1.059-2.806,2.006-5.634,3.01-8.629c2.527-7.541,5.14-15.339,9.584-22.517
				c6.068-9.784,12.44-19.559,18.603-29.012c4.435-6.802,9.021-13.835,13.438-20.79c8.379-13.165,16.531-26.069,24.181-39.26
				c3.021-5.194,3.646-7.088,1.981-9.637c-7.338-11.228-14.671-22.71-21.762-33.814c-2.353-3.685-4.706-7.37-7.064-11.052
				c-0.984-1.534-1.544-1.873-1.921-1.995c-13.156-4.292-25.683-10.141-37.796-15.796c-3.603-1.682-7.206-3.364-10.826-5.007
				c-0.728-0.33-1.338-0.49-1.869-0.49c-0.412,0-1.104,0.079-2.355,0.764c-10.203,5.538-19.984,8.225-29.921,8.225
				c-1.148,0-2.313-0.037-3.462-0.111c-0.129-0.008-0.24-0.013-0.348-0.013c-0.895,0-1.332,0.223-1.873,0.955
				c-0.696,0.937-1.399,1.855-2.103,2.773c-3.323,4.335-6.461,8.429-7.565,13.236c-0.019,0.085-0.036,0.191-0.056,0.301
				c-1.165,6.508-5.679,7.717-8.266,7.858l-5.298,0.29l-0.918-5.227c-0.284-1.619-0.387-3.177-0.354-4.686
				c-3.056,4.366-7.134,8.405-12.177,12.055l-12.942,9.368l3.611-15.563c1.026-4.422,2.899-8.215,4.711-11.883
				c0.22-0.445,0.438-0.885,0.65-1.321c-0.266,0.183-0.532,0.366-0.799,0.549c-4.896,3.369-9.958,6.853-16.147,9.699l-17.363,7.984
				l9.716-16.457c4.211-7.132,9.633-12.107,15.251-16.463c-0.036,0.007-0.071,0.015-0.106,0.022c-4.68,0.97-9.52,1.972-14.697,1.997
				l-9.287,0.044l3.803-8.472c2.089-4.654,5.925-5.878,7.768-6.467c0.218-0.069,0.434-0.135,0.64-0.213
				c9.437-3.585,19.581-7.19,30.621-8.407c7.142-0.787,14.437-2.178,21.491-3.524c8.066-1.539,16.408-3.13,24.889-3.917
				c2.055-0.192,4.044-0.215,5.969-0.238c3.962-0.046,7.385-0.087,10.324-1.527c20.312-9.963,41.325-20.193,64.238-31.273
				c1.895-0.92,3.022-2.113,3.879-4.11c2.906-6.77,6.203-14.137,10.079-22.523c1.711-3.701,3.348-7.584,4.93-11.339
				c6.29-14.924,12.793-30.354,26.593-41.963c0.038-0.284,0.058-0.861-0.035-2.029c-0.458-5.911-2.77-11.492-5.216-17.401
				l-0.87-2.107c-0.404-0.989-0.832-1.975-1.261-2.964c-2.13-4.912-4.545-10.479-4.357-16.736c0.442-14.6,5.677-27.72,10.74-40.408
				c1.798-4.487,5.436-7.16,9.733-7.16c2.405,0,4.793,0.826,7.099,2.454c4.383,3.09,9.51,4.531,16.134,4.531
				c4.52,0,9.324-0.658,13.563-1.239c2.356-0.322,4.471-0.479,6.467-0.479c7.404,0,13.42,2.181,18.932,6.863
				c3.415,2.898,6.253,5.116,9.078,5.116c0.732,0,1.485-0.139,2.301-0.423c2.042-0.713,4.102-1.075,6.119-1.075
				c6.011,0,10.486,3.073,14.435,5.784c0.798,0.548,1.604,1.103,2.432,1.633l7.767,4.982l-7.72,5.054
				c-1.968,1.289-4.061,1.942-6.219,1.942c-2.324,0-4.148-0.756-5.319-1.325c-1.038-0.496-2.082-0.756-3.064-0.756
				c-1.157,0-2.291,0.347-3.466,1.062c-3.354,2.044-6.914,3.083-10.576,3.083c-0.045,0-0.091,0-0.136,0
				c2.75,1.124,5.502,2.297,8.215,3.548c4.837,2.226,10.203,3.264,16.884,3.264c0.4,0,0.803-0.003,1.207-0.011
				c3.13-0.052,5.957-0.077,8.644-0.077c13.354,0,30.989,0.548,48.973,4.823c10.489,2.49,21.167,3.185,32.473,3.919
				c5.189,0.338,10.5,0.683,15.82,1.222c-3.569-5.48-8.453-12.034-10.452-14.235c-153.881-53.193-188.683-65.119-190.731-65.739
				c-3.061-0.872-5.947-1.302-8.782-1.302c-10.462,0-21.291,6.095-37.882,16.133c-14.662,8.924-43.025,26.588-63.734,39.486
				c-11.771,7.331-20.276,12.627-22.203,13.789c-1.107,0.679-2.436,1.051-3.804,1.051c-3.396,0-8.05-1.821-16.828-15.324
				c-3.879-5.968-9.052-15.253-10.862-21.783c-1.869-6.74,0.516-9.823,2.847-11.223c4.758-2.861,74.821-45.377,88.873-53.917
				c11.119-6.767,20.772-9.786,31.297-9.786c8.22,0,16.952,1.788,29.195,5.977c8.767,3.021,98.067,34.139,213.703,74.621
				c2.02-2.038,5.172-4.398,10.091-7.149c1.84-1.03,11.248-6.164,15.773-6.164c0.245,0,0.477,0.012,0.688,0.031
				c14,1.299,16.238,7.315,16.228,14.353c2.219-2.312,4.685-2.865,6.545-2.865c1.266,0,2.566,0.265,3.867,0.787
				c2.82,1.106,7.577,4.567,9.189,8.747c0.863,2.239,0.795,4.568-0.192,6.558c-0.375,0.752-0.82,1.646-1.18,2.419
				c0.046,0.022,0.093,0.046,0.142,0.069c1.734,0.851,3.123,1.904,4.348,2.834c0.678,0.515,1.318,1.001,1.889,1.35
				c2.119,1.304,4.006,2.847,5.636,4.603c81.761,28.655,185.432,65.083,218.594,77.15l5.502,2.002l-1.886,5.543
				c-0.069,0.203-0.111,0.352-0.137,0.483c-0.044,0.224-0.188,1.029-0.188,1.029l-0.165,0.524l-0.005,0
				c-0.012,0.182-0.03,0.364-0.053,0.545l-0.023,0.24l-0.041,0.211c-0.171,0.945-0.351,1.893-0.557,2.834l-0.184,0.835l-0.409,0.75
				c-0.209,0.382-0.419,0.823-0.643,1.346l-0.223,0.521l-0.316,0.47c-0.511,0.759-0.889,1.468-1.191,2.234l-0.361,0.914l-0.635,0.75
				c-0.396,0.468-0.68,0.958-0.82,1.416l-1.82,5.917l-54.276-18.779c-40.118-13.882-96.702-33.461-155.836-53.914
				c-1.92,6.522-4.617,12.752-7.247,18.827l-0.878,2.023c-0.962,2.047-2.764,3.251-5.356,3.578
				c-0.176,0.022-0.404,0.049-0.687,0.103l-8.113,1.542l1.245-9.545c0.619-4.724,1.217-9.292,1.489-13.92
				c-0.207-0.123-0.403-0.25-0.591-0.383c-4.147,3.178-8.637,5.234-12.779,7.033c-0.227,2.975,1.507,9.936,3.019,11.715
				c11.56,8.224,21.062,14.854,29.892,20.859c3.917,2.675,6.663,6.08,8.405,10.415c7.284,18.067,15.148,34.259,24.039,49.494
				c0.06,0.102,0.125,0.201,0.19,0.303c0.905,1.414,3.661,5.716-0.002,11.128l-3.78,5.586c0,0-36.02-31.27-37.382-32.452
				c9.553,16.927,19.755,35.47,31.222,56.732c3.46,6.415,7.308,12.84,11.028,19.053c6.402,10.692,13.023,21.748,18.181,33.536
				c3.948,9.024,7.17,18.394,10.285,27.454c5.107,14.851,9.931,28.879,17.745,41.837c3.81,6.311,0.655,10.124-0.878,11.472
				c-1.47,1.292-3.276,1.977-5.223,1.977c-1.962,0-3.554-0.717-4.505-1.145c-0.141-0.063-0.279-0.129-0.414-0.182
				c-2.857-1.139-5.693-2.291-8.529-3.443c-4.165-1.692-8.471-3.442-12.711-5.089c-7.038-2.72-15.015-6.583-20.752-14.587
				c-2.494-3.48-5.167-6.694-7.945-9.552c-12.728-13.103-21.806-25.994-27.757-39.414c-3.093-6.963-7.754-12-14.667-15.848
				l-1.826-1.006c-5.926-3.254-12.643-6.942-17.62-12.919c-13.564-16.278-27.841-33.748-40.175-52.583
				c-0.548-0.837-1.085-1.682-1.622-2.528c-2.729-4.297-5.087-8.009-8.773-10.46c-10.387-6.901-20.866-14.015-31.001-20.894
				c-5.865-3.98-11.729-7.961-17.607-11.923c-0.221-0.149-0.438-0.302-0.652-0.457c-0.171,0.517-0.393,1.04-0.679,1.556
				c-0.023,0.064-0.217,0.623-0.217,0.623c-5.854,16.915-10.401,32.308-6.428,48.5c0.847,3.45,1.279,6.873,1.696,10.183
				c0.729,5.779,1.417,11.238,4.252,15.811c8.632,13.898,18.859,29.919,30.997,44.134c1.777,2.079,3.54,4.174,5.304,6.268
				c8.263,9.815,16.068,19.087,25.433,27.123c4.884,4.184,9.958,8.367,14.864,12.412c15.592,12.856,31.715,26.15,45.249,42.257
				c1.521,1.812,3.048,3.619,4.574,5.427c7.222,8.554,14.688,17.398,21.596,26.562c10.043,13.293,19.367,27.316,28.385,40.877
				c5.32,8.001,10.822,16.274,16.386,24.268c15.736,22.611,25.957,48.613,31.246,79.494c0.394,2.29,0.736,4.57,1.048,6.692
				l1.011,6.88l-7.602-0.032l-1.352,0.001c-0.731-0.003-1.42-0.059-2.066-0.169l-7.57,12.965l-1.066-6.575
				c0.054,1.933,0.142,3.86,0.279,5.791l0.586,8.25l-8.018-2.029c-0.575-0.146-1.105-0.332-1.718-0.547
				c-0.433-0.152-0.953-0.336-1.581-0.53c-9.878-3.047-20.271-7.26-32.706-13.256c-9.941-4.789-20.168-10.302-31.262-16.85
				c-11.517-6.799-23.201-14.609-36.773-24.579c-4.905-3.606-5.501-8.233-5.473-11.861c0.018-2.555,0.107-5.119,0.193-7.599
				c0.271-7.792,0.528-15.152-1.297-22.206c-0.055-0.211-0.107-0.421-0.159-0.631c-0.089,0.013-0.551,0.059-0.551,0.059
				l-0.354,0.004c-1.377,0-2.675-0.43-3.757-1.193l-4.231,1.006l-1.936-4.742c-0.397-0.973-0.829-1.938-1.26-2.903
				c-1.189-2.663-2.418-5.416-3.155-8.532c0,0-0.144-0.589-0.163-0.669l-0.299,0.136l-0.944-2.28
				c-0.353,0.869-1.324,3.254-1.324,3.254c-1.071,2.625-2.168,5.233-3.313,7.955l-1.692,4.034l-6.645,15.904l-3.347-11.993
				l-0.261-0.023c-0.069-0.007-0.15-0.016-0.241-0.028c-1.016,4.413-1.634,8.767-1.241,13.077c0.301,3.302-0.898,5.377-1.957,6.537
				c-2.345,2.567-5.548,2.567-6.601,2.567l-0.152-0.001c-3.646-0.037-7.283-0.047-10.923-0.047c-2.218,0-11.101,0.015-13.324,0.015
				c-1.637,0-3.274-0.005-4.91-0.01c-1.624-0.005-3.247-0.01-4.871-0.01c-2.333,0-4.667,0.01-7,0.045l-0.195,0.002
				c-1.175,0-2.246-0.171-3.205-0.51c-0.846,0.305-1.852,0.502-3.039,0.502l-0.275-0.004c-1.198-0.027-2.4-0.036-3.603-0.036
				c-0.938,0-1.876,0.006-2.814,0.011c-0.96,0.005-1.919,0.01-2.879,0.01c-1.894,0-9.455-0.016-11.342-0.016
				c-3.022,0-6.046,0.01-9.068,0.048l-0.173,0.001c-1.352,0-2.563-0.217-3.628-0.648c-1.23,0.412-2.717,0.609-4.483,0.615
				l-5.614,0.016c-9.102,0.025-18.202,0.051-27.301,0.115c-2.52,0-4.475-0.776-5.908-2.309c-0.983-1.052-2.114-2.93-1.915-5.903
				c0.326-4.87-0.063-9.592-1.159-14.054c-0.283,0.038-0.564,0.058-0.842,0.058c-0.528,0-1.058-0.065-1.575-0.195
				c-0.324-0.08-0.641-0.186-0.948-0.313l-4.108,3.215l-3.145-6.917c-0.172-0.379-0.345-0.749-0.516-1.114
				c-0.413-0.884-0.812-1.743-1.171-2.618c-0.658-1.604-1.319-3.199-1.979-4.793c-1.016-2.453-2.05-4.948-3.069-7.468
				c-0.097,1.909-0.579,3.526-0.836,4.269c-1.017,2.928-2.209,5.636-3.471,8.503c-0.486,1.104-0.98,2.227-1.472,3.383l-6.723,15.806
				l-3.236-11.79c-0.153-0.01-0.307-0.025-0.463-0.047c-0.759,2.89-1.421,5.635-1.375,8.275c0.068,3.917,0.055,7.868,0.043,11.689
				c-0.012,3.88-0.025,7.891,0.048,11.802c0.075,4.084-1.43,7.355-4.602,10.004c-8.349,6.979-17.863,13.872-29.939,21.691
				c-7.248,4.695-15.348,9.502-25.489,15.126c-6.407,3.556-13.173,7.003-20.682,10.537c-6.176,2.909-11.67,5.322-16.795,7.378
				c-0.977,0.395-1.97,0.786-2.962,1.176l-5.38,2.112l-2.294-5.306c-1.422-3.29-2.65-6.604-3.734-9.904l-2.447,15.936
				L134.347,708.759z" />
				<path fill="none" stroke="#6D6E71" stroke-width="4.2376" stroke-miterlimit="10" d="M573.266,709.226
				c-0.51-0.129-1.01-0.305-1.589-0.508c-0.446-0.157-0.984-0.348-1.635-0.549c-9.806-3.024-20.133-7.211-32.498-13.174
				c-9.903-4.771-20.094-10.264-31.151-16.79c-11.472-6.773-23.117-14.558-36.648-24.497c-4.334-3.187-4.89-7.169-4.862-10.645
				c0.018-2.535,0.106-5.089,0.192-7.559c0.275-7.903,0.535-15.369-1.344-22.633c-0.182-0.705-0.347-1.406-0.503-2.101
				c-0.505,0.216-1.021,0.341-1.513,0.388l-0.213,0.021l-0.282,0.004c-1.303,0-2.49-0.476-3.409-1.317l-3.679,0.875l-1.452-3.558
				c-0.403-0.987-0.841-1.967-1.279-2.947c-1.16-2.6-2.36-5.287-3.064-8.267l-0.111-0.456c-0.129-0.521-0.299-1.209-0.42-2.005
				l-0.596,0.271l-1.75-4.229c-0.809,2.014-1.623,4.012-2.425,5.979l-0.269,0.66c-1.068,2.619-2.163,5.223-3.306,7.939l-1.694,4.037
				l-4.982,11.928l-2.505-8.976c-0.277,0.039-0.521,0.051-0.714,0.051h-0.223l-0.3-0.026c-0.298-0.028-0.854-0.116-1.487-0.38
				c-1.253,5.054-2.089,10.049-1.633,15.052c0.202,2.215-0.327,4.029-1.572,5.394c-1.899,2.08-4.606,2.08-5.496,2.08l-0.139-0.001
				c-3.649-0.037-7.292-0.047-10.937-0.047c-2.219,0-11.102,0.015-13.324,0.015c-1.636,0-3.271-0.005-4.906-0.01
				c-1.625-0.005-3.25-0.01-4.875-0.01c-2.34,0-4.682,0.011-7.022,0.046l-0.172,0.001c-1.214,0-2.286-0.211-3.208-0.631
				c-0.789,0.365-1.788,0.623-3.036,0.623l-0.239-0.003c-1.21-0.028-2.424-0.036-3.639-0.036c-0.94,0-1.881,0.005-2.822,0.01
				c-0.957,0.005-1.914,0.01-2.871,0.01c-1.893,0-9.454-0.016-11.342-0.016c-3.029,0-6.058,0.01-9.087,0.048l-0.154,0.001
				c-1.36,0-2.542-0.254-3.536-0.756c-1.151,0.498-2.655,0.716-4.58,0.723l-5.613,0.016c-9.104,0.025-18.206,0.051-27.307,0.115
				c-2.079,0.001-3.667-0.617-4.805-1.835c-1.137-1.215-1.646-2.824-1.515-4.782c0.367-5.482-0.146-10.787-1.527-15.767
				c-0.02-0.072-0.04-0.144-0.059-0.216c-0.622,0.264-1.277,0.392-1.906,0.392c-0.406,0-0.813-0.051-1.212-0.15
				c-0.518-0.129-1.019-0.344-1.481-0.628l-3.363,2.632l-2.358-5.188c-0.174-0.384-0.35-0.759-0.522-1.128
				c-0.402-0.863-0.792-1.702-1.144-2.556c-0.658-1.604-1.32-3.2-1.981-4.796c-1.332-3.216-2.695-6.507-4.015-9.824
				c-0.477,0.758-1.145,1.37-1.931,1.783c0.096,2.272-0.55,4.338-0.753,4.925c-0.996,2.869-2.176,5.551-3.426,8.39
				c-0.489,1.109-0.985,2.238-1.479,3.399l-5.042,11.855l-2.41-8.779c-0.264,0.034-0.498,0.045-0.687,0.045
				c-0.301,0-1.091-0.037-1.974-0.384c-0.055,0.211-0.111,0.421-0.167,0.631c-0.87,3.29-1.691,6.396-1.637,9.488
				c0.068,3.901,0.056,7.845,0.043,11.659c-0.012,3.887-0.025,7.906,0.048,11.833c0.066,3.603-1.264,6.49-4.065,8.829
				c-8.302,6.939-17.77,13.798-29.793,21.584c-7.219,4.677-15.291,9.466-25.402,15.073c-6.378,3.54-13.115,6.973-20.594,10.492
				c-6.149,2.896-11.618,5.299-16.715,7.343c-0.976,0.394-1.964,0.784-2.952,1.172l-4.036,1.584l-1.72-3.979
				c-2.302-5.325-4.092-10.724-5.587-16.037l-3.112,20.279l-5.674-3.264c-4.542-2.612-4.482-6.732-4.457-8.491
				c0.003-0.225,0.012-0.444-0.002-0.652c-1.049-15.029-1.538-30.288-2.01-45.044c-0.278-8.669-0.565-17.633-0.962-26.428
				c-0.49-10.683-0.246-22.119,4.816-33.351c1.748-3.853,3.085-7.829,4.502-12.039c0.85-2.526,1.729-5.139,2.702-7.713
				c1.069-2.832,2.065-5.806,3.029-8.682c2.5-7.461,5.084-15.175,9.438-22.205c6.058-9.77,12.426-19.536,18.584-28.981
				c4.437-6.806,9.025-13.844,13.448-20.806c8.387-13.178,16.548-26.097,24.213-39.312c3.033-5.215,4.131-7.85,1.94-11.204
				c-7.334-11.221-14.665-22.7-21.754-33.802c-2.353-3.686-4.707-7.371-7.064-11.054c-0.981-1.528-1.795-2.311-2.719-2.61
				c-13.068-4.264-25.552-10.093-37.625-15.729c-3.608-1.685-7.215-3.369-10.84-5.014c-0.925-0.42-1.739-0.624-2.487-0.624
				c-0.915,0-1.891,0.301-3.072,0.947c-9.974,5.414-19.522,8.042-29.204,8.042c-1.117,0-2.25-0.037-3.367-0.108
				c-0.159-0.011-0.303-0.016-0.444-0.016c-1.365,0-2.256,0.452-3.075,1.561c-0.689,0.929-1.388,1.841-2.087,2.753
				c-3.425,4.467-6.659,8.687-7.836,13.811c-0.025,0.109-0.046,0.239-0.07,0.372c-0.934,5.22-4.255,6.486-6.876,6.629l-3.974,0.218
				l-0.688-3.92c-0.731-4.16-0.175-7.954,0.804-11.57c-0.448,0.581-0.853,1.22-1.219,1.933c-3.048,5.912-7.914,11.312-14.465,16.054
				l-9.707,7.026l2.708-11.673c0.987-4.253,2.821-7.967,4.596-11.559c1.023-2.072,2.022-4.094,2.806-6.137
				c-1.701,1.105-3.402,2.275-5.142,3.472c-4.844,3.333-9.853,6.78-15.925,9.572l-13.022,5.988l7.287-12.342
				c5.352-9.066,12.805-14.609,20.062-19.91c-2.147,0.341-4.298,0.787-6.508,1.245c-4.608,0.955-9.374,1.942-14.401,1.966
				l-6.965,0.033l2.853-6.354c1.815-4.045,5.096-5.092,6.859-5.655c0.243-0.078,0.483-0.152,0.714-0.239
				c9.348-3.552,19.39-7.122,30.255-8.319c7.201-0.793,14.525-2.19,21.607-3.542c8.032-1.532,16.338-3.117,24.747-3.896
				c1.995-0.187,3.954-0.209,5.848-0.232c3.971-0.047,7.722-0.091,10.964-1.68c20.31-9.962,41.32-20.191,64.231-31.27
				c2.224-1.08,3.602-2.537,4.602-4.867c2.9-6.757,6.192-14.112,10.063-22.486c1.722-3.724,3.363-7.619,4.951-11.386
				c6.257-14.846,12.727-30.198,26.414-41.597c0.421-0.351,0.349-1.933,0.258-3.092c-0.477-6.146-2.832-11.834-5.325-17.855
				l-0.867-2.102c-0.408-0.998-0.84-1.994-1.273-2.993c-2.068-4.768-4.413-10.173-4.234-16.096
				c0.434-14.335,5.62-27.331,10.634-39.899c1.563-3.897,4.681-6.219,8.345-6.219c2.09,0,4.188,0.733,6.236,2.18
				c4.648,3.277,10.049,4.805,16.996,4.805c4.622,0,9.48-0.666,13.766-1.253c2.288-0.313,4.336-0.465,6.264-0.465
				c7.03,0,12.738,2.068,17.964,6.508c3.652,3.1,6.712,5.472,10.046,5.472c0.902,0,1.816-0.166,2.794-0.507
				c1.883-0.658,3.777-0.992,5.626-0.992c5.547,0,9.819,2.934,13.589,5.521c0.811,0.557,1.63,1.12,2.471,1.659l5.825,3.737
				l-5.79,3.79c-1.721,1.126-3.538,1.698-5.4,1.698c-2.016,0-3.628-0.67-4.666-1.174c-1.25-0.597-2.51-0.906-3.717-0.906
				c-1.418,0-2.846,0.43-4.242,1.279c-3.118,1.9-6.417,2.865-9.8,2.865c-3.378,0-6.876-0.946-10.694-2.893
				c-1.779-0.896-3.665-1.794-5.584-2.661c-1.528-0.683-2.444-0.786-2.853-0.786c-0.423,0-0.551,0-0.866,0.707
				c-0.072,0.16-0.111,0.279-0.133,0.359c0.209,0.223,0.871,0.783,2.732,1.542c2.64,1.072,5.303,2.11,7.965,3.149
				c5.565,2.171,11.319,4.416,16.887,6.982c5.04,2.32,10.604,3.401,17.509,3.401c0.409,0,0.82-0.003,1.232-0.01
				c3.122-0.052,5.94-0.078,8.619-0.078c13.273,0,30.795,0.544,48.627,4.783c10.612,2.52,21.352,3.218,32.721,3.957
				c6.171,0.401,12.513,0.814,18.824,1.549c-3.731-6.143-10.326-15.05-12.515-17.345c-154.559-53.428-189.272-65.322-191.145-65.881
				c-3.216-0.917-6.237-1.366-9.213-1.366c-10.852,0-21.843,6.177-38.656,16.349c-14.672,8.931-43.039,26.597-63.751,39.496
				c-11.766,7.328-20.267,12.622-22.185,13.778c-0.881,0.541-1.94,0.836-3.032,0.836c-1.812,0-6.055,0-15.574-14.644
				c-5.032-7.741-9.222-16.128-10.675-21.368c-1.299-4.684-0.567-7.894,2.176-9.542c4.76-2.862,74.827-45.381,88.879-53.92
				c10.872-6.617,20.286-9.569,30.521-9.569c8.046,0,16.632,1.763,28.711,5.896c8.785,3.027,98.532,34.301,214.592,74.932
				c1.825-2.051,4.979-4.529,10.415-7.571c1.093-0.611,10.801-5.974,15.044-5.974c0.196,0,0.381,0.009,0.551,0.025
				c14.426,1.338,15.23,7.781,14.783,15.434c-0.04,0.68-0.082,1.394-0.109,2.142c-0.004,0.169,0.008,0.38,0.034,0.624
				c0.085-0.164,0.17-0.333,0.257-0.504c0.285-0.564,0.572-1.126,0.889-1.667c2.216-3.75,5.06-4.534,7.057-4.534
				c1.074,0,2.188,0.229,3.311,0.679c2.502,0.981,6.918,4.183,8.351,7.898c0.711,1.843,0.663,3.745-0.136,5.355
				c-0.609,1.222-1.388,2.784-1.756,3.749c0.301,0.183,0.747,0.429,1.403,0.749c1.6,0.784,2.926,1.791,4.097,2.68
				c0.709,0.539,1.379,1.047,2.013,1.435c2.108,1.297,3.974,2.845,5.566,4.614c81.813,28.672,185.729,65.186,218.932,77.269
				l4.127,1.502l-1.414,4.157c-0.093,0.271-0.15,0.481-0.189,0.682c-0.044,0.223-0.172,0.934-0.172,0.934l-0.128,0.416
				c-0.045,0.129-0.07,0.24-0.08,0.344c-0.01,0.167-0.026,0.335-0.047,0.503l-0.018,0.18l-0.034,0.188
				c-0.168,0.927-0.345,1.857-0.547,2.781l-0.137,0.626l-0.308,0.563c-0.231,0.425-0.462,0.907-0.705,1.476l-0.166,0.391
				l-0.238,0.353c-0.564,0.838-1.003,1.663-1.342,2.52l-0.271,0.686l-0.477,0.563c-0.532,0.63-0.905,1.283-1.108,1.942l-1.364,4.438
				l-52.814-18.272c-40.457-14-97.653-33.791-157.331-54.431c-1.907,6.987-4.799,13.664-7.612,20.162l-0.859,1.982
				c-1.1,2.34-3.425,2.633-4.189,2.73c-0.2,0.025-0.459,0.056-0.779,0.117l-6.085,1.156l0.979-7.497
				c0.666-5.086,1.309-9.994,1.553-15.005c-0.859-0.364-1.563-0.884-2.13-1.409c-4.519,3.701-9.568,5.93-14.132,7.902
				c-0.88,2.619,1.409,12.143,3.38,13.898c11.594,8.247,21.154,14.919,30.035,20.958c3.663,2.501,6.23,5.684,7.858,9.735
				c7.313,18.137,15.208,34.392,24.136,49.69c0.069,0.119,0.146,0.236,0.223,0.356c0.856,1.337,3.13,4.887,0.019,9.484l-2.835,4.189
				c0,0-39.127-33.965-42.678-37.047c10.78,18.941,22.299,39.804,35.495,64.272c3.476,6.445,7.332,12.884,11.062,19.112
				c6.378,10.652,12.975,21.666,18.093,33.367c3.925,8.97,7.136,18.309,10.242,27.341c4.907,14.272,9.982,29.029,17.879,42.123
				c2.954,4.896,1.312,7.909-0.586,9.577c-1.193,1.05-2.658,1.605-4.235,1.605c-1.641,0-2.995-0.61-3.891-1.014
				c-0.163-0.073-0.322-0.147-0.479-0.209c-2.851-1.136-5.684-2.287-8.517-3.438c-4.17-1.695-8.481-3.447-12.732-5.098
				c-6.834-2.641-14.57-6.38-20.078-14.064c-2.537-3.54-5.258-6.812-8.088-9.723c-12.602-12.973-21.584-25.723-27.462-38.979
				c-3.232-7.275-8.097-12.534-15.308-16.547l-1.833-1.01c-6.094-3.346-12.395-6.806-17.19-12.566
				c-13.537-16.245-27.783-33.677-40.073-52.445c-0.544-0.831-1.078-1.671-1.611-2.511c-2.703-4.256-5.257-8.276-9.207-10.903
				c-10.382-6.898-20.858-14.009-30.989-20.886c-5.866-3.981-11.732-7.963-17.611-11.926c-0.715-0.482-1.403-1.014-2.068-1.528
				c-0.121-0.093-0.254-0.196-0.395-0.304c-0.113,1.094-0.373,2.295-1.012,3.447c-0.046,0.088-0.148,0.374-0.223,0.582l-0.091,0.254
				c-5.94,17.166-10.545,32.779-6.476,49.368c0.827,3.367,1.253,6.746,1.665,10.014c0.75,5.946,1.458,11.562,4.465,16.411
				c8.661,13.945,18.924,30.023,31.13,44.317c1.775,2.077,3.536,4.169,5.297,6.26c7.938,9.43,16.146,19.18,25.604,27.295
				c4.895,4.193,9.974,8.381,14.886,12.431c15.54,12.813,31.609,26.063,45.056,42.065c1.522,1.813,3.05,3.621,4.576,5.43
				c7.209,8.538,14.662,17.366,21.545,26.497c10.016,13.258,19.328,27.262,28.334,40.805c5.324,8.008,10.83,16.287,16.403,24.293
				c15.607,22.428,25.748,48.233,30.999,78.894c0.392,2.274,0.732,4.544,1.043,6.657l0.758,5.159l-5.87-0.024l-1.352,0.001
				c-0.532-0.002-1.619-0.006-2.803-0.364l-5.987,10.45l-2.039-12.486c-0.389-2.427-0.813-4.819-1.272-7.176
				c-0.014,0.735-0.027,1.467-0.041,2.193c-0.13,6.918-0.265,14.071,0.228,20.996l0.439,6.187L573.266,709.226z" />
			</g>
			<path fill-rule="evenodd" clip-rule="evenodd" fill="#ED1C24" d="M255.063,194.904c-6.315,3.493-12.373,1.161-10.215-0.997
			l16.164-8.845C261.012,185.063,261.199,191.509,255.063,194.904z" />
		</g>
		<g>
			<path fill="none" stroke="#FFFFFF" stroke-width="7.7111" stroke-miterlimit="10" d="M674.467,523.987l-16.578-20.728
			l8.123-36.786h15.007l-10.841-14.622L680.759,402l23.472-18.47h52.774L775,404.197l-9.568,36.843h-14.301l11.445,14.477
			l-10.406,49.988l-23.483,18.482H674.467z M711.256,477.631l1.322-4.923h-1.308l-0.952,4.923H711.256z M720.403,434.628l1.3-4.743
			h-0.365l-1.241,4.743H720.403z" />
		</g>
		<g>
			<g>
				<path fill-rule="evenodd" clip-rule="evenodd" fill="#ED1C24" d="M134.59,422.63h-15.474l-5.038,19.251h31.847l12.235,15.475
				l-9.177,44.083l-19.432,15.293h-48.22l-12.234-15.293l6.117-27.709h31.847l-2.159,11.153h15.293l5.219-19.431H92.668
				l-11.336-15.294l9.356-44.081l19.432-15.294h46.96l13.314,15.294l-7.197,27.709h-31.667L134.59,422.63z" />
				<path fill-rule="evenodd" clip-rule="evenodd" fill="#ED1C24" d="M223.114,437.923l11.334-47.14h31.667l-28.608,125.948h-31.849
				l10.257-47.142h-15.294l-11.156,47.142H157.62l28.786-125.948h31.668l-10.254,47.14H223.114z" />
				<path fill-rule="evenodd" clip-rule="evenodd" fill="#ED1C24" d="M253.339,516.731l24.469-110.654l20.513-15.294h47.141
				l12.234,15.294l-24.65,110.654h-31.666l7.197-31.849h-16.374l-7.197,31.849H253.339z M321.89,422.63h-15.293l-7.197,31.666
				h16.374L321.89,422.63z" />
				<path fill-rule="evenodd" clip-rule="evenodd" fill="#ED1C24" d="M344.92,516.731l28.787-125.948h63.334l12.415,15.294
				l-21.591,95.361l-19.432,15.293H344.92z M383.783,485.064h16.373l14.395-62.614h-16.374L383.783,485.064z" />
				<path fill-rule="evenodd" clip-rule="evenodd" fill="#ED1C24" d="M436.683,501.438l21.591-95.361l19.432-15.294h47.14
				l12.236,15.294l-21.413,95.361l-19.432,15.293h-47.32L436.683,501.438z M487.959,485.064l14.395-62.614h-16.371l-14.395,62.614
				H487.959z" />
				<path fill-rule="evenodd" clip-rule="evenodd" fill="#ED1C24" d="M583.678,390.783l-15.473,68.73l5.218,13.136l11.156-13.136
				l15.472-68.73h31.487l-15.294,68.73l5.218,13.136l10.076-13.136l15.475-68.73h31.846l-17.451,78.807l-43.003,47.142H602.93
				l-10.076-23.571l-21.41,23.571h-15.475L534.38,469.59l17.452-78.807H583.678z" />
			</g>
			<g>
				<path fill="none" stroke="#FFFFFF" stroke-width="5.1407" stroke-miterlimit="10"
					d="M134.59,422.63h-15.474l-5.038,19.251
				h31.847l12.235,15.475l-9.177,44.083l-19.432,15.293h-48.22l-12.234-15.293l6.117-27.709h31.847l-2.159,11.153h15.293
				l5.219-19.431H92.668l-11.336-15.294l9.356-44.081l19.432-15.294h46.96l13.314,15.294l-7.197,27.709h-31.667L134.59,422.63z" />
				<path fill="none" stroke="#FFFFFF" stroke-width="5.1407" stroke-miterlimit="10"
					d="M223.114,437.923l11.334-47.14h31.667
				l-28.608,125.948h-31.849l10.257-47.142h-15.294l-11.156,47.142H157.62l28.786-125.948h31.668l-10.254,47.14H223.114z" />
				<path fill="none" stroke="#FFFFFF" stroke-width="5.1407" stroke-miterlimit="10" d="M253.339,516.731l24.469-110.654
				l20.513-15.294h47.141l12.234,15.294l-24.65,110.654h-31.666l7.197-31.849h-16.374l-7.197,31.849H253.339z M321.89,422.63
				h-15.293l-7.197,31.666h16.374L321.89,422.63z" />
				<path fill="none" stroke="#FFFFFF" stroke-width="5.1407" stroke-miterlimit="10"
					d="M344.92,516.731l28.787-125.948h63.334
				l12.415,15.294l-21.591,95.361l-19.432,15.293H344.92z M383.783,485.064h16.373l14.395-62.614h-16.374L383.783,485.064z" />
				<path fill="none" stroke="#FFFFFF" stroke-width="5.1407" stroke-miterlimit="10" d="M436.683,501.438l21.591-95.361
				l19.432-15.294h47.14l12.236,15.294l-21.413,95.361l-19.432,15.293h-47.32L436.683,501.438z M487.959,485.064l14.395-62.614
				h-16.371l-14.395,62.614H487.959z" />
				<path fill="none" stroke="#FFFFFF" stroke-width="5.1407" stroke-miterlimit="10" d="M583.678,390.783l-15.473,68.73
				l5.218,13.136l11.156-13.136l15.472-68.73h31.487l-15.294,68.73l5.218,13.136l10.076-13.136l15.475-68.73h31.846l-17.451,78.807
				l-43.003,47.142H602.93l-10.076-23.571l-21.41,23.571h-15.475L534.38,469.59l17.452-78.807H583.678z" />
			</g>
			<g>
				<path fill="none" stroke="#FFFFFF" stroke-width="7.7111" stroke-miterlimit="10" d="M77.846,523.985l-16.58-20.724l8.121-36.786
				h15.01l-10.839-14.625l10.581-49.85l23.471-18.472h52.775l17.995,20.67l-9.569,36.841h-14.301l11.445,14.476l-10.406,49.989
				l-23.483,18.48H77.846z M114.633,477.629l1.322-4.923h-1.307l-0.953,4.923H114.633z M123.779,434.627l1.3-4.743h-0.363
				l-1.241,4.743H123.779z" />
				<polygon fill="none" stroke="#FFFFFF" stroke-width="7.7111" stroke-miterlimit="10" points="196.657,523.985 206.914,476.844 
				206.36,476.844 195.204,523.985 148.521,523.985 180.623,383.529 227.076,383.529 216.822,430.669 217.397,430.669 
				228.731,383.529 275.203,383.529 243.299,523.985 			" />
				<path fill="none" stroke="#FFFFFF" stroke-width="7.7111" stroke-miterlimit="10" d="M292.302,523.985l7.197-31.849H298
				l-7.197,31.849h-46.498l27.002-122.11l24.606-18.346h53.035l16.583,20.732l-26.671,119.725H292.302z M309.786,447.042
				l3.314-17.158h-0.713l-3.9,17.158H309.786z" />
				<path fill="none" stroke="#FFFFFF" stroke-width="7.7111" stroke-miterlimit="10"
					d="M335.821,523.985l32.103-140.457h72.572
				l16.813,20.712l-22.938,101.308l-23.426,18.437H335.821z M394.38,477.811l11.059-48.106h-1.487l-11.058,48.106H394.38z" />
				<path fill="none" stroke="#FFFFFF" stroke-width="7.7111" stroke-miterlimit="10" d="M445.43,523.985l-16.594-20.742
				l22.931-101.276l23.426-18.438h53.139l16.592,20.738l-22.742,101.277l-23.432,18.441H445.43z M482.184,477.811l11.059-48.106
				h-1.484l-11.059,48.106H482.184z" />
				<polygon fill="none" stroke="#FFFFFF" stroke-width="7.7111" stroke-miterlimit="10" points="598.142,523.985 590.625,506.402 
				574.654,523.985 551.313,523.985 526.771,470.397 546.009,383.529 592.746,383.529 575.85,458.586 577.895,456.179 
				594.248,383.529 640.584,383.529 624.199,457.162 624.812,456.364 641.21,383.529 687.895,383.529 668.071,473.049 
				621.605,523.985 			" />
			</g>
			<g>
				<path fill="none" stroke="#000000" stroke-width="5.1407" stroke-miterlimit="10" d="M78.717,522.172l-15.493-19.366l7.62-34.517
				h17.155l-12.498-16.861l10.274-48.407l22.461-17.678h51.322l16.824,19.325l-8.976,34.559h-16.644l13.242,16.749l-10.099,48.513
				l-22.47,17.684H78.717z M116.023,479.442l2.296-8.55h-5.167l-1.655,8.55H116.023z M125.162,436.44l2.295-8.37h-4.141l-2.19,8.37
				H125.162z" />
				<polygon fill="none" stroke="#000000" stroke-width="5.1407" stroke-miterlimit="10" points="198.908,522.172 209.165,475.03 
				204.926,475.03 193.77,522.172 150.796,522.172 182.069,385.343 224.826,385.343 214.571,432.482 218.826,432.482 
				230.161,385.343 272.931,385.343 241.851,522.172 			" />
				<path fill="none" stroke="#000000" stroke-width="5.1407" stroke-miterlimit="10" d="M294.572,522.172l7.197-31.849h-5.219
				l-7.197,31.849h-42.789l26.369-119.246l23.583-17.583h51.562l15.496,19.372l-26.166,117.457H294.572z M311.283,448.855
				l4.015-20.785h-4.358l-4.724,20.785H311.283z" />
				<path fill="none" stroke="#000000" stroke-width="5.1407" stroke-miterlimit="10"
					d="M338.096,522.172l31.274-136.829h70.262
				l15.714,19.357l-22.6,99.82l-22.429,17.651H338.096z M395.825,479.624l11.893-51.733h-5.209l-11.893,51.733H395.825z" />
				<path fill="none" stroke="#000000" stroke-width="5.1407" stroke-miterlimit="10" d="M446.301,522.172l-15.503-19.38
				l22.595-99.797l22.429-17.652h51.638l15.503,19.376l-22.409,99.799l-22.433,17.654H446.301z M483.627,479.624l11.894-51.733
				h-5.206l-11.894,51.733H483.627z" />
				<polygon fill="none" stroke="#000000" stroke-width="5.1407" stroke-miterlimit="10" points="599.339,522.172 591.183,503.092 
				573.852,522.172 552.477,522.172 528.674,470.195 547.465,385.343 590.479,385.343 573.882,459.068 575.137,462.227 
				579.565,457.013 595.699,385.343 638.322,385.343 621.919,459.062 622.979,461.732 626.493,457.151 642.661,385.343 
				685.636,385.343 666.405,472.184 620.806,522.172 			" />
			</g>
		</g>
		<g>
			<path fill-rule="evenodd" clip-rule="evenodd" fill="#ED1C24" d="M731.212,422.631H715.74l-5.039,19.25h31.846l12.236,15.475
			l-9.177,44.083l-19.434,15.293h-48.22l-12.233-15.293l6.116-27.709h31.849l-2.16,11.153h15.294l5.217-19.431H689.29
			l-11.337-15.294l9.357-44.082l19.432-15.292h46.961l13.314,15.292l-7.197,27.71h-31.665L731.212,422.631z" />
		</g>
		<g>
			<g>
				<path fill="none" stroke="#FFFFFF" stroke-width="5.1407" stroke-miterlimit="10"
					d="M731.212,422.631H715.74l-5.039,19.25
				h31.846l12.236,15.475l-9.177,44.083l-19.434,15.293h-48.22l-12.233-15.293l6.116-27.709h31.849l-2.16,11.153h15.294
				l5.217-19.431H689.29l-11.337-15.294l9.357-44.082l19.432-15.292h46.961l13.314,15.292l-7.197,27.71h-31.665L731.212,422.631z" />
			</g>
			<g>
				<path fill="none" stroke="#000000" stroke-width="5.1407" stroke-miterlimit="10" d="M675.34,522.171l-15.492-19.366
				l7.621-34.518h17.153l-12.5-16.858l10.274-48.409l22.462-17.676h51.32l16.827,19.323l-8.976,34.559h-16.646l13.244,16.749
				l-10.1,48.512l-22.471,17.685H675.34z M712.646,479.443l2.298-8.549h-5.168l-1.655,8.549H712.646z M721.787,436.443l2.292-8.371
				h-4.14l-2.193,8.371H721.787z" />
			</g>
		</g>
		<g>
			<g>
				<polygon fill="#6D6E71" points="206.437,367.619 202.763,362.973 209.142,334.176 219.244,334.176 213.873,357.579 
				225.861,357.579 223.592,367.619 			" />
				<path fill="#FFFFFF" d="M217.914,335.235l-5.371,23.403h11.993l-1.79,7.921H206.95l-3.043-3.849l6.086-27.476H217.914
				 M220.574,333.117h-2.66h-7.921h-1.701l-0.368,1.661l-6.086,27.476l-0.217,0.982l0.624,0.79l3.043,3.849l0.636,0.804h1.026
				h15.796h1.693l0.374-1.652l1.79-7.921l0.584-2.585h-2.651h-9.333l4.776-20.811L220.574,333.117L220.574,333.117z" />
			</g>
			<g>
				<path fill="#6D6E71" d="M228.858,367.619l-3.681-4.6l5.567-24.581l5.416-4.263h12.6l3.68,4.599l-5.52,24.581l-5.418,4.264
				H228.858z M238.234,357.624l3.094-13.454h-1.899l-3.092,13.454H238.234z" />
				<path fill="#FFFFFF" d="M248.251,335.235l3.044,3.804l-5.326,23.717l-4.833,3.804h-11.768l-3.044-3.804l5.371-23.717l4.832-3.804
				H248.251 M242.658,343.111h-4.073l-3.58,15.573h4.071L242.658,343.111 M249.269,333.117h-1.018h-11.724h-0.734l-0.577,0.454
				l-4.832,3.804l-0.59,0.465l-0.166,0.732l-5.371,23.717l-0.226,0.995l0.638,0.796l3.044,3.804l0.636,0.795h1.018h11.768h0.734
				l0.576-0.454l4.833-3.804l0.592-0.466l0.165-0.735l5.326-23.717l0.223-0.993l-0.636-0.795l-3.044-3.804L249.269,333.117
				L249.269,333.117z" />
			</g>
			<g>
				<polygon fill="#6D6E71" points="258.292,367.619 263.573,344.216 261.94,344.216 256.615,367.619 246.574,367.619 
				253.027,338.44 258.447,334.176 271.315,334.176 274.996,338.778 268.336,367.619 			" />
				<path fill="#FFFFFF" d="M270.806,335.235l3.042,3.804l-6.355,27.521h-7.876l5.28-23.403h-3.803l-5.326,23.403h-7.876
				l6.086-27.521l4.834-3.804H270.806 M271.825,333.117h-1.019h-11.993h-0.733l-0.577,0.454l-4.834,3.804l-0.595,0.468l-0.164,0.739
				l-6.086,27.521l-0.57,2.576h2.639h7.876h1.691h2.157h7.876h1.685l0.379-1.642l6.355-27.521l0.231-0.999l-0.641-0.801
				l-3.042-3.804L271.825,333.117L271.825,333.117z" />
			</g>
			<g>
				<path fill="#6D6E71" d="M269.117,367.619l7.645-33.443h17.101l3.73,4.595l-5.568,24.585l-5.415,4.263H269.117z M283.341,357.624
				l3.092-13.454h-1.898l-3.094,13.454H283.341z" />
				<path fill="#FFFFFF" d="M293.358,335.235l3.088,3.804l-5.371,23.717l-4.832,3.804h-15.797l7.161-31.324H293.358 M287.764,343.111
				h-4.072l-3.581,15.573h4.073L287.764,343.111 M294.367,333.117h-1.009h-15.752h-1.689l-0.376,1.646l-7.161,31.324l-0.592,2.591
				h2.658h15.797h0.734l0.577-0.454l4.832-3.804l0.59-0.465l0.166-0.732l5.371-23.717l0.228-1.004l-0.649-0.799l-3.088-3.804
				L294.367,333.117L294.367,333.117z" />
			</g>
			<g>
				<path fill="#6D6E71" d="M295.579,367.619l-3.681-4.6l5.567-24.581l5.416-4.263h12.6l3.68,4.599l-5.52,24.581l-5.418,4.264
				H295.579z M304.955,357.624l3.094-13.454h-1.899l-3.092,13.454H304.955z" />
				<path fill="#FFFFFF" d="M314.972,335.235l3.044,3.804l-5.326,23.717l-4.833,3.804h-11.768l-3.044-3.804l5.371-23.717l4.832-3.804
				H314.972 M309.379,343.111h-4.073l-3.58,15.573h4.071L309.379,343.111 M315.99,333.117h-1.018h-11.724h-0.734l-0.577,0.454
				l-4.832,3.804l-0.59,0.465l-0.166,0.732l-5.371,23.717l-0.226,0.995l0.638,0.796l3.044,3.804l0.636,0.795h1.018h11.768h0.734
				l0.577-0.454l4.833-3.804l0.592-0.466l0.165-0.735l5.326-23.717l0.223-0.993l-0.636-0.795l-3.044-3.804L315.99,333.117
				L315.99,333.117z" />
			</g>
			<g>
				<polygon fill="#6D6E71" points="325.012,367.619 330.292,344.216 328.66,344.216 323.334,367.619 313.293,367.619 
				319.747,338.44 325.166,334.176 338.035,334.176 341.715,338.778 335.056,367.619 			" />
				<path fill="#FFFFFF" d="M337.525,335.235l3.042,3.804l-6.355,27.521h-7.876l5.28-23.403h-3.803l-5.326,23.403h-7.876
				l6.086-27.521l4.833-3.804H337.525 M338.544,333.117h-1.019h-11.993h-0.734l-0.576,0.454l-4.833,3.804l-0.595,0.468l-0.164,0.739
				l-6.086,27.521l-0.57,2.576h2.639h7.876h1.691h2.157h7.876h1.685l0.379-1.642l6.355-27.521l0.231-0.999l-0.641-0.801
				l-3.042-3.804L338.544,333.117L338.544,333.117z" />
			</g>
		</g>
	</g>
	<g>
	</g>
	<g>
	</g>
	<g>
	</g>
	<g>
	</g>
	<g>
	</g>
	<g>
	</g>
</svg>
