<svg version="1.1" baseProfile="basic" id="Layer_1" xmlns="http://www.w3.org/2000/svg"
	xmlns:xlink="http://www.w3.org/1999/xlink" x="0px" y="0px" viewBox="0.5 800.5 800 800" xml:space="preserve">
	<g>
		<path fill="#24275A" d="M432.276,910.223l0.303,88.93c4.991,2.479,113.237,4.599,129.392,5.474
		c41.507,2.42,91.061-4.35,121.08,38.945c2.948-15.205-4.607-58.787-16.124-78.696l-4.723-8.18
		c-24.354-42.23-71.866-48.769-108.531-46.997c-18.196,0.818-42.163,0.701-60.647,0
		C485.435,909.396,436.338,908.984,432.276,910.223L432.276,910.223z" />
		<path fill="#24275A" d="M265.927,988.911c9.646,4.421,14.893,10.244,22.701,20.667c12.657,16.908,15.263,47.063,24.438,62.957
		l1.417,2.482c6.166,10.606,7.234-34.753,7.363-36.633c0.818-13.082,2.875-28.68,8.592-40.411
		c6.475-13.364,17.65-23.907,36.488-31.27c12.608-4.94,36.869-10.657,47.095-16.604l4.895-2.831
		c-11.022-11.783-78.357,5.354-100.603-33.158l-6.112-10.609c-11.074-19.194-12.193-41.869-21.623-58.127
		c-0.414-0.768-1.827-1.114-2.53-0.701c-8.642,5.012,4.428,78.924-30.72,99.239l-13.02,7.539
		c-13.881,8.011-52.858,15.492-58.042,23.739C216.164,989.854,240.184,977.072,265.927,988.911L265.927,988.911z" />
		<path fill="#24275A" d="M172.204,978.961c-2.781-4.715,5.703-12.61,10.524-15.195c7.422-3.998,12.912-6.062,19.962-8.663
		c10.6-3.945,29.551-7.537,39.324-13.188l8.964-5.185c10.044-5.827,16.064-16.729,15.752-25.441
		c-4.175,1.291-14.472,1.771-19.937,2.539c-6.728,0.926-13.837,2.646-20.499,4.526c-13.645,3.937-27.474,8.316-42.375,16.901
		l-8.188,4.711c-31.557,18.268-51.27,47.352-61.516,71.68c-6.774,16.2-19.776,67.378-14.667,84.279
		c5.076-11.487,2.599-18.493,12.716-33.099c6.526-9.359,17.666-20.315,30.433-27.678l5.717-3.298
		c18.889-10.961,45.799-17.19,63.111-19.731c13.367-1.939,51.693-2.824,58.449-4.893l-1.882-3.237
		C254.073,979.784,185.093,1001.341,172.204,978.961L172.204,978.961z" />
		<path fill="#24275A" d="M176.195,1046.16c-36.143,20.906-56.811,41.69-68.752,69.082c-9.754,22.508-11.772,58.648,5.306,88.24
		l72.877,126.331l78.238-45.184c-23.907-41.405-43.683-85.524-66.942-125.404C166.962,1107.882,162.245,1086.679,176.195,1046.16
		L176.195,1046.16z" />
		<path fill="#24275A" d="M353.031,1506.971l0.48,0.827l7.05,3.81c4.603-10.234-34.473-59.956-25.543-92.875
		c3.651-13.478,11.425-25.268,21.722-36.854c5.768-6.425,27.391-28.52,28.03-34.54c-9.902-4.35-59.223,34.946-92.294,25.941
		c-13.61-3.712-25.098-11.064-36.98-21.456c-8.364-7.303-26.554-27.321-35.206-27.896c0.363,10.526,15.18,35.738,20.306,48.151
		c6.889,16.8,10.017,30.339,6.197,44.356c-4.012,14.791-11.434,23.897-21.791,36.937c-5.6,7.001-30.206,28.385-26.849,35.521
		c33.494-10.203,54.864-32.35,87.49-28.384c11.88,1.45,24.773,9.748,35.088,17.963
		C331.247,1486.717,343.157,1500.191,353.031,1506.971L353.031,1506.971z" />
		<path fill="#24275A" d="M266.679,1472.094c26.251,45.519,70.929,70.328,107.325,80.092c38.446,10.375,86.943,2.179,135.683-25.973
		c-2.464-0.101-19.243,4.555-25.366,4.893c-7.606,0.473-15.686-0.336-22.784-2.275c-16.848-4.607-26.917-9.851-42.088-20.324
		c-23.376-16.161-52.52-52.858-71.409-85.594c-18.661,12.972,38.319,89.811,21.536,99.473c-11.882,6.898-40.091-21.604-50.208-31.15
		c-8.01-7.658-15.061-13.833-24.125-17.843c-5.016-2.179-8.148-3.171-13.502-3.709
		C274.74,1468.973,272.203,1471.689,266.679,1472.094L266.679,1472.094z" />
		<path fill="#201A51" d="M591.079,1289.033c-19.341,30.864-38.182,62.672-58.37,93.133c-16.377,24.672-38.791,72.773-69.233,90.348
		l-4.049,2.344c-13.206,7.606-24.201,6.09-31.446,9.479c32.917,20.677,85.888,38.402,130.973,12.379
		c30.964-17.894,48.554-54.374,61.76-78.527c5.784-10.589,43.901-78.795,48.203-82.844l0.606-0.944L591.079,1289.033z" />
		<path fill="#201A51" d="M763.294,1039.625l-17.841-30.982c-1.723-0.884-13.325-15.43-15.853-18.079
		c-5.11-5.187-11.032-10.66-16.598-15.256c-7.406-6.19-27.188-20.619-35.029-23.323c3.962,5.717,11.554,8.711,17.101,18.374
		l4.235,7.303c15.48,26.74,9.697,65.313,3.877,87.172c-3.877,14.362-23.425,68.261-33.563,77.8l1.35,2.403
		c2.649-0.761,5.145-0.694,7.473-2.116c14.37-8.231,26.278-27.915,34.558-38.278c3.961-4.895,26.513-42.232,35.281-27.037
		c12.65,21.849-19.378,73.617-4.063,100.19l2.817,4.883c2.362,4.122,3.762,3.592,6.291,7.192
		c12.311-19.573,18.569-48.185,21.251-70.743c1.533-12.608,0.961-24.791-0.354-38.048c-0.694-6.705-2.328-13.14-3.998-20.313
		C769.352,1056.878,763.158,1042.272,763.294,1039.625L763.294,1039.625z" />
		<path fill="#DD2E27" d="M76.897,1409.725l-7.36-37.173l-34.28-9.176l-9.757-47.947l620.885-98.343l75.522,17.438l16.781-3.27
		l9.125,50.427l-25.906,5.482l3.339,17.657l29.043,12.26l6.999,38.401l-561.83,170.701l-78.769-35.894
		c-19.826-9.003-39.608-18.029-59.462-27.034l-6.062-2.817l-1.223-5.903c-1.838-8.891-3.651-17.778-5.489-26.733l-2.236-11.147
		L76.897,1409.725z" />
		<path fill="#FFFFFF" d="M84.85,1414.21l-9.201-46.362l-34.192-9.24l-7.833-38.22l612.473-97.079l75.696,17.506l11.197-2.174
		l6.934,38.452l-26.024,5.48l5.061,26.378l29.024,12.261l5.464,30.206l-553.456,168.083l-76.064-34.624
		c-19.833-9.006-39.606-18.012-59.467-27.037l-3.044-1.399l-0.6-2.967c-1.82-8.891-3.633-17.843-5.471-26.733l-1.112-5.531
		L84.85,1414.21z" />
		<path fill="#24275A" d="M200.573,1512.893l-73.408-33.426c-19.842-9.007-39.666-18.015-59.46-27.055
		c-1.822-8.938-3.633-17.827-5.474-26.731l30.619-6.946l-11.014-55.659l-34.252-9.178l-5.887-28.639l604.076-95.695l75.825,17.508
		l5.603-1.08l4.823,26.446l-26.074,5.462l6.713,35.235l28.957,12.175l4.013,21.977L200.573,1512.893z" />
		<polygon fill="#EBEBEB" points="49.814,1330.22 645.487,1235.805 646.484,1236.041 647.497,1236.28 648.442,1236.515 
		649.455,1236.751 650.448,1236.968 651.443,1237.225 652.453,1237.459 653.433,1237.629 654.496,1237.866 655.491,1238.101 
		656.485,1238.337 657.548,1238.571 658.559,1238.875 659.623,1239.096 660.685,1239.348 661.696,1239.568 662.743,1239.821 
		663.805,1240.037 664.867,1240.295 665.912,1240.511 666.977,1240.814 668.088,1241.034 669.151,1241.287 670.233,1241.508 
		671.328,1241.812 672.441,1242.046 673.521,1242.28 674.616,1242.52 675.745,1242.809 676.86,1243.057 677.974,1243.328 
		679.118,1243.581 680.331,1243.884 681.581,1244.171 682.744,1244.405 684.043,1244.692 685.293,1244.998 686.506,1245.286 
		687.754,1245.589 689.038,1245.86 690.353,1246.163 691.584,1246.465 692.865,1246.771 694.183,1247.073 695.461,1247.34 
		696.762,1247.647 698.108,1247.933 699.425,1248.287 700.757,1248.574 702.074,1248.894 703.421,1249.16 704.79,1249.532 
		706.12,1249.84 707.489,1250.106 708.819,1250.479 710.252,1250.764 711.604,1251.054 713.003,1251.424 714.367,1251.692 
		715.767,1252.064 717.203,1252.368 718.601,1252.705 720.016,1253.009 721.487,1253.362 174.331,1358.941 171.96,1358.42 
		169.669,1357.848 167.304,1357.308 165.014,1356.768 162.73,1356.243 160.434,1355.703 158.132,1355.182 155.886,1354.706 
		153.662,1354.168 151.353,1353.645 149.177,1353.123 146.943,1352.583 144.707,1352.13 142.531,1351.588 140.355,1351.117 
		138.181,1350.609 136.005,1350.141 133.88,1349.598 131.703,1349.125 129.587,1348.604 127.471,1348.132 125.352,1347.643 
		123.28,1347.167 121.172,1346.647 119.104,1346.174 117.038,1345.701 114.973,1345.229 112.916,1344.774 110.924,1344.285 
		108.858,1343.83 106.861,1343.357 104.853,1342.937 103.04,1342.465 101.192,1342.059 99.379,1341.638 97.55,1341.233 
		95.728,1340.813 93.915,1340.391 92.13,1339.983 90.374,1339.582 88.561,1339.177 86.773,1338.754 85.01,1338.35 83.258,1337.945 
		81.536,1337.522 79.774,1337.1 78.071,1336.746 76.368,1336.359 74.597,1335.938 72.885,1335.532 71.242,1335.16 69.537,1334.74 
		67.841,1334.352 66.189,1333.998 64.461,1333.557 62.816,1333.205 61.173,1332.816 59.527,1332.463 57.882,1332.042 
		56.237,1331.688 54.644,1331.332 52.992,1330.928 51.406,1330.558 	" />
		<path fill="#EBEBEB" d="M99.97,1442.696l576.146-138.213l0.354,0.117l0.321,0.168l0.373,0.138l0.352,0.17l0.354,0.102l0.354,0.184
		l-574.847,138.838l-0.59-0.25l-0.522-0.237l-0.59-0.234l-0.593-0.287l-0.531-0.253L99.97,1442.696z M96.562,1441.297
		l577.48-137.691l0.354,0.102l0.355,0.187l0.285,0.119l0.372,0.168l0.336,0.136l0.37,0.167L99.97,1442.696l-0.591-0.234
		l-0.519-0.223l-0.591-0.25l-0.581-0.221l-0.54-0.234L96.562,1441.297z M92.61,1439.645l579.02-137.05l0.356,0.136l0.354,0.168
		l0.284,0.104l0.354,0.117l0.354,0.184l0.356,0.119l0.352,0.187L96.56,1441.3l-0.604-0.234l-0.531-0.234l-0.582-0.237l-0.542-0.252
		l-0.582-0.219l-0.521-0.236L92.61,1439.645z M88.722,1437.993l580.548-136.409l0.354,0.133l0.285,0.12l0.356,0.17l0.37,0.101
		l0.335,0.184l0.306,0.139l0.352,0.168l-579.02,137.05l-0.531-0.234l-0.593-0.237l-0.519-0.22l-0.591-0.253l-0.533-0.219
		l-0.529-0.253L88.722,1437.993z M84.96,1436.407l581.966-135.837l0.335,0.151l0.354,0.168l0.303,0.102l0.356,0.119l0.301,0.187
		l0.338,0.119l0.354,0.168L88.722,1437.993l-0.524-0.237l-0.529-0.234l-0.581-0.218l-0.542-0.253l-0.521-0.221l-0.531-0.253
		L84.96,1436.407z M81.192,1434.822l583.489-135.162l0.306,0.102l0.354,0.136l0.287,0.17l0.352,0.119l0.306,0.117l0.336,0.168
		l0.306,0.101L84.96,1436.409l-0.521-0.252l-0.531-0.221l-0.59-0.234l-0.531-0.234l-0.521-0.221l-0.54-0.205L81.192,1434.822z
		 M77.547,1433.236l584.824-134.521l0.372,0.102l0.27,0.119l0.372,0.136l0.301,0.168l0.338,0.119l0.304,0.102l0.354,0.202
		L81.192,1434.824l-0.524-0.234l-0.533-0.234l-0.528-0.253l-0.533-0.154l-0.524-0.234l-0.538-0.253L77.547,1433.236z
		 M73.836,1431.699l586.359-133.946l0.319,0.136l0.289,0.104l0.354,0.133l0.285,0.168l0.355,0.104l0.301,0.138l0.271,0.185
		L77.55,1433.238l-0.533-0.168l-0.54-0.252l-0.521-0.221l-0.533-0.251l-0.529-0.167l-0.523-0.253L73.836,1431.699z M70.247,1430.166
		l587.741-133.341l0.269,0.103l0.37,0.136l0.287,0.12l0.287,0.168l0.354,0.135l0.322,0.102l0.321,0.168L73.836,1431.699l-0.48-0.234
		l-0.521-0.184l-0.531-0.221l-0.531-0.253l-0.531-0.17l-0.471-0.234L70.247,1430.166z M103.378,1444.197l574.847-138.838
		l0.355,0.119l0.352,0.168l0.354,0.136l-574.137,139.093l-0.574-0.223l-0.616-0.234L103.378,1444.197z" />
		<path fill="#4E4E4E" d="M148.997,1460.795l557.004-145.298l0.187,0.892l0.167,0.862l-556.827,146.428l-0.228-1.484
		L148.997,1460.795z M148.478,1457.911l557.238-144.201l0.12,0.894l0.167,0.892L149,1460.792l-0.294-1.484L148.478,1457.911z
		 M147.885,1455.009l557.476-143.053l0.17,0.892l0.184,0.862l-557.238,144.201l-0.29-1.435L147.885,1455.009z M147.354,1452.125
		l557.652-141.94l0.187,0.88l0.168,0.892l-557.476,143.053l-0.229-1.401L147.354,1452.125z M146.823,1449.241l557.897-140.828
		l0.102,0.894l0.187,0.878l-557.652,141.94l-0.303-1.467L146.823,1449.241z M146.233,1446.375l558.116-139.713l0.187,0.892
		l0.186,0.861l-557.899,140.826l-0.294-1.466L146.233,1446.375z M145.712,1443.474l558.286-138.569l0.187,0.878l0.168,0.88
		l-558.116,139.713l-0.237-1.5L145.712,1443.474z M145.178,1440.521l558.479-137.404l0.17,0.895l0.168,0.892l-558.286,138.568
		l-0.303-1.484L145.178,1440.521z M144.597,1437.637l558.757-136.273l0.187,0.894l0.117,0.859l-558.479,137.404l-0.303-1.399
		L144.597,1437.637z M144.057,1434.769l558.941-135.193l0.186,0.892l0.168,0.895l-558.755,136.275l-0.313-1.399L144.057,1434.769z
		 M143.485,1431.867l559.164-134.047l0.165,0.894l0.187,0.861l-558.941,135.193l-0.296-1.484L143.485,1431.867z M142.952,1428.918
		l559.34-132.852l0.168,0.861l0.187,0.893l-559.164,134.047l-0.253-1.467L142.952,1428.918z M142.414,1426.051l559.591-131.771
		l0.168,0.894l0.122,0.892l-559.341,132.852l-0.313-1.399L142.414,1426.051z M141.833,1423.167l559.819-130.642l0.17,0.876
		l0.184,0.88l-559.591,131.774l-0.305-1.503L141.833,1423.167z M141.309,1420.198l559.971-129.444l0.204,0.88l0.168,0.892
		L141.83,1423.167l-0.296-1.466L141.309,1420.198z M140.693,1417.33l560.32-128.346l0.101,0.876l0.168,0.894l-559.971,129.444
		l-0.313-1.399L140.693,1417.33z M140.185,1414.378l560.455-127.216l0.185,0.876l0.186,0.946L140.691,1417.33l-0.228-1.484
		L140.185,1414.378z M139.581,1411.411l560.708-126.002l0.185,0.875l0.17,0.88L140.187,1414.38l-0.303-1.466L139.581,1411.411z
		 M139.048,1408.492l560.917-124.922l0.149,0.945l0.17,0.894l-560.708,126.002l-0.227-1.466L139.048,1408.492z M138.466,1405.591
		l561.129-123.794l0.168,0.88l0.204,0.894L139.05,1408.492l-0.278-1.417L138.466,1405.591z M137.926,1402.675l561.382-122.698
		l0.117,0.947l0.168,0.875l-561.129,123.794l-0.228-1.466L137.926,1402.675z M137.347,1399.705l561.591-121.484l0.168,0.895
		l0.204,0.859l-561.381,122.697l-0.278-1.484L137.347,1399.705z M136.823,1396.771l561.758-120.387l0.205,0.945l0.151,0.891
		l-561.591,121.484l-0.229-1.466L136.823,1396.771z M136.23,1393.771l562.016-119.157l0.184,0.895l0.151,0.877l-561.76,120.387
		l-0.294-1.535L136.23,1393.771z M135.702,1390.817l562.19-118.042l0.168,0.946l0.187,0.892L136.23,1393.771l-0.227-1.469
		L135.702,1390.817z M135.112,1387.883l562.425-116.863l0.188,0.878l0.168,0.878l-562.19,118.042l-0.287-1.484L135.112,1387.883z
		 M134.578,1384.93l562.67-115.73l0.168,0.878l0.117,0.944l-562.424,116.863l-0.306-1.468L134.578,1384.93z M133.99,1381.982
		l562.907-114.621l0.168,0.963l0.187,0.878l-562.671,115.73l-0.294-1.482L133.99,1381.982z M133.466,1378.997l563.057-113.389
		l0.186,0.878l0.187,0.877l-562.907,114.621l-0.294-1.452L133.466,1378.997z M132.883,1376.025l563.302-112.253l0.17,0.892
		l0.168,0.944l-563.059,113.389l-0.303-1.484L132.883,1376.025z M132.294,1373.092l563.522-111.145l0.187,0.944l0.182,0.881
		l-563.3,112.253l-0.314-1.466L132.294,1373.092z M131.761,1370.091l563.767-109.896l0.122,0.878l0.167,0.878l-563.522,111.144
		l-0.253-1.466L131.761,1370.091z" />
		<path fill="#C3C4C4" d="M193.852,1482.33l539.543-153.693l0.454,0.219l0.455,0.186l0.49,0.168l0.521,0.236l-538.343,154.252
		l-0.751-0.354l-0.834-0.336l-0.751-0.305L193.852,1482.33z M189.923,1480.694l541.042-153.055l0.49,0.151l0.521,0.253l0.471,0.168
		l0.476,0.234l0.472,0.186l-539.543,153.694l-0.818-0.319l-0.768-0.322l-0.758-0.354l-0.834-0.285L189.923,1480.694z
		 M186.037,1479.042l542.583-152.413l0.455,0.148l0.471,0.253l0.476,0.187l0.472,0.234l0.473,0.186l-541.042,153.056l-0.777-0.354
		l-0.758-0.285l-0.759-0.372l-0.827-0.271L186.037,1479.042z M182.199,1477.457l544.058-151.842l0.474,0.253l0.474,0.167l0.471,0.17
		l0.474,0.253l0.471,0.168L186.037,1479.04l-0.768-0.269l-0.767-0.37l-0.768-0.288l-0.758-0.355L182.199,1477.457z
		 M178.378,1475.805l545.588-151.132l0.489,0.184l0.404,0.187l0.455,0.218l0.455,0.205l0.489,0.149l-544.057,151.842l-0.761-0.354
		l-0.758-0.303l-0.768-0.354l-0.765-0.285L178.378,1475.805z M174.61,1474.219l546.994-150.541l0.457,0.184l0.49,0.237l0.473,0.184
		l0.472,0.168l0.473,0.223l-545.587,151.132l-0.758-0.304l-0.779-0.335l-0.756-0.306l-0.777-0.27L174.61,1474.219z
		 M170.841,1472.684l548.536-149.952l0.404,0.188l0.474,0.149l0.489,0.22l0.455,0.221l0.404,0.168L174.61,1474.219l-0.758-0.303
		l-0.777-0.336l-0.751-0.306l-0.708-0.285L170.841,1472.684z M167.247,1471.151l549.888-149.364l0.471,0.186l0.421,0.168
		l0.473,0.187l0.389,0.234l0.489,0.167l-548.536,149.953l-0.694-0.354l-0.724-0.287l-0.76-0.304l-0.692-0.29L167.247,1471.151z
		 M163.672,1469.611l551.287-148.753l0.421,0.168l0.474,0.236l0.388,0.17l0.474,0.185l0.421,0.167l-549.888,149.364l-0.699-0.355
		l-0.751-0.285l-0.726-0.287l-0.699-0.304L163.672,1469.611z M160.08,1468.081l552.7-148.114l0.42,0.187l0.455,0.167l0.407,0.168
		l0.471,0.187l0.421,0.184l-551.287,148.756l-0.715-0.27l-0.71-0.306l-0.749-0.321l-0.717-0.321L160.08,1468.081z M156.53,1466.613
		l554.079-147.577l0.474,0.168l0.404,0.17l0.406,0.184l0.472,0.234l0.42,0.17l-552.7,148.114l-0.71-0.271l-0.715-0.304l-0.701-0.321
		l-0.699-0.269L156.53,1466.613z M153.014,1465.163l555.485-147.019l0.404,0.168l0.457,0.168l0.421,0.204l0.406,0.168l0.421,0.184
		L156.53,1466.613l-0.692-0.29l-0.701-0.301l-0.717-0.29l-0.708-0.303L153.014,1465.163z M149.531,1463.679l556.827-146.428
		l0.42,0.17l0.405,0.184l0.454,0.187l0.421,0.184l0.438,0.17l-555.484,147.019l-0.657-0.306l-0.701-0.304l-0.708-0.287l-0.708-0.306
		L149.531,1463.679z" />
		<path fill="#828282" d="M200.861,1504.829l536.833-162.483l0.049,0.474l0.068,0.421l-536.707,163.022l-0.11-0.71L200.861,1504.829z
		 M200.222,1501.373l537.049-161.135l0.066,0.407l0.104,0.404l0.049,0.471l0.068,0.407l0.134,0.42l-536.833,162.483l-0.12-0.691
		l-0.167-0.708l-0.108-0.707l-0.138-0.642L200.222,1501.373z M199.569,1497.83l537.282-159.768l0.119,0.471l0.048,0.391l0.067,0.421
		l0.119,0.472l0.066,0.42l-537.049,161.137l-0.12-0.727l-0.11-0.673l-0.191-0.727l-0.11-0.707L199.569,1497.83z M198.928,1494.289
		l537.568-158.352l0.066,0.422l0.067,0.387l0.101,0.473l0.066,0.421l0.049,0.423L199.565,1497.83l-0.108-0.692l-0.12-0.708
		l-0.186-0.707l-0.108-0.727L198.928,1494.289z M198.28,1490.764l537.812-157.003l0.066,0.453l0.117,0.423l0.053,0.406l0.049,0.489
		l0.119,0.405l-537.568,158.352l-0.108-0.694l-0.138-0.706l-0.117-0.709l-0.17-0.706L198.28,1490.764z M197.623,1487.238
		l538.046-155.619l0.138,0.421l0.035,0.42l0.066,0.455l0.136,0.439l0.05,0.404l-537.812,157.003l-0.129-0.708l-0.108-0.691
		l-0.12-0.727l-0.177-0.691L197.623,1487.238z M196.972,1483.697l538.343-154.252l0.066,0.404l0.048,0.472l0.139,0.423l0.048,0.42
		l0.051,0.458l-538.049,155.619l-0.11-0.724l-0.117-0.694l-0.11-0.705l-0.12-0.71L196.972,1483.697z" />
		<polygon fill="#767472"
			points="174.331,1358.941 721.487,1253.362 721.556,1253.817 721.602,1254.24 721.738,1254.695 
		721.79,1255.185 721.907,1255.656 175.021,1362.671 174.853,1361.894 174.727,1361.202 174.61,1360.428 174.44,1359.667 	" />
		<polygon fill="#767473"
			points="175.021,1362.671 721.907,1255.656 721.958,1256.079 722.027,1256.552 722.128,1256.986 
		722.213,1257.412 722.314,1257.885 175.664,1366.379 175.554,1365.603 175.384,1364.913 175.251,1364.137 175.14,1363.427 	" />
		<polygon fill="#767472"
			points="175.664,1366.379 722.314,1257.885 722.381,1258.372 722.429,1258.776 722.548,1259.25 
		722.599,1259.721 722.733,1260.128 176.312,1370.091 176.195,1369.313 176.087,1368.624 175.974,1367.846 175.781,1367.14 	" />
		<polygon fill="#767473"
			points="176.312,1370.091 722.733,1260.128 722.785,1260.602 722.852,1261.072 722.952,1261.475 
		723.022,1261.947 723.141,1262.438 177.03,1373.802 176.903,1373.027 176.735,1372.314 176.615,1371.572 176.505,1370.849 	" />
		<polygon fill="#767473"
			points="177.03,1373.802 723.141,1262.438 723.19,1262.857 723.272,1263.297 723.375,1263.772 
		723.426,1264.241 723.56,1264.664 177.679,1377.513 177.562,1376.736 177.425,1376.025 177.257,1375.283 177.149,1374.558 	" />
		<polygon fill="#767473"
			points="177.679,1377.513 723.56,1264.664 723.594,1265.135 723.66,1265.556 723.798,1266.026 
		723.847,1266.483 723.966,1266.906 178.378,1381.222 178.201,1380.444 178.091,1379.739 177.958,1378.997 177.838,1378.202 	" />
		<polygon fill="#767473" points="178.378,1381.222 723.966,1266.906 724.032,1267.361 724.083,1267.851 178.615,1382.706 
		178.489,1381.913 	" />
		<polygon fill="#828282" points="174.331,1358.941 721.487,1253.362 721.556,1253.817 721.602,1254.24 721.738,1254.695 
		721.79,1255.185 721.907,1255.656 721.958,1256.079 722.027,1256.552 722.128,1256.986 722.213,1257.412 722.314,1257.885 
		722.381,1258.372 722.429,1258.776 722.548,1259.25 722.599,1259.721 722.733,1260.128 722.785,1260.602 722.852,1261.072 
		722.952,1261.475 723.022,1261.947 723.141,1262.438 723.19,1262.857 723.272,1263.297 723.375,1263.772 723.426,1264.241 
		723.56,1264.664 723.594,1265.135 723.66,1265.556 723.798,1266.026 723.847,1266.483 723.966,1266.906 724.032,1267.361 
		724.083,1267.851 178.615,1382.706 178.489,1381.913 178.378,1381.222 178.201,1380.444 178.091,1379.739 177.958,1378.997 
		177.838,1378.202 177.679,1377.513 177.562,1376.736 177.425,1376.025 177.257,1375.283 177.149,1374.558 177.03,1373.802 
		176.903,1373.027 176.735,1372.314 176.615,1371.572 176.505,1370.849 176.312,1370.091 176.195,1369.313 176.087,1368.624 
		175.974,1367.846 175.781,1367.14 175.664,1366.379 175.554,1365.603 175.384,1364.913 175.251,1364.137 175.14,1363.427 
		175.021,1362.671 174.853,1361.894 174.727,1361.202 174.61,1360.428 174.44,1359.667 	" />
		<path fill="#BFBCBC" d="M49.814,1330.22c17.018,3.948,35.316,8.13,55.039,12.717c21.311,4.876,44.4,10.188,69.479,16.005
		c1.45,7.976,2.866,15.871,4.284,23.765c-8.357-2.262-16.478-4.436-24.372-6.545c-7.716-2.075-15.196-4.081-22.482-6.07
		c2.994,15.834,5.998,31.623,8.93,47.239c3.02,15.483,5.97,30.98,8.84,46.349c7.42,3.12,15.01,6.306,22.792,9.596
		c8.001,3.339,16.235,6.832,24.649,10.423c1.425,7.54,2.765,15.096,4.132,22.568c-25.493-11.604-48.975-22.331-70.759-32.232
		c-20.136-9.176-38.91-17.727-56.399-25.668c-1.232-6.021-2.479-12.126-3.702-18.199c5.464,2.277,11.122,4.704,16.841,7.135
		c5.885,2.461,11.88,4.991,18.063,7.574c-2.835-14.185-5.65-28.486-8.534-42.857c-2.891-14.486-5.77-29.043-8.663-43.662
		c-6.055-1.639-11.94-3.225-17.708-4.757c-5.65-1.54-11.193-2.987-16.545-4.472C52.41,1342.819,51.11,1336.53,49.814,1330.22
		L49.814,1330.22z" />
		<path fill="#DD2E27" d="M260.794,1196.045c0.471,7.663-0.524,15.244-3.35,22.549c-4.015,10.432-11.496,18.695-20.38,25.203
		c-15.063,11.082-33.37,16.985-51.626,19.918c-18.537,2.953-37.444,3.123-55.852-0.52c-24.016-4.793-46.163-16.848-51.987-42.419
		c-2.179-9.292-1.889-18.831,2.176-27.666c10.43-22.628,39.914-28.513,62.174-30.282c12.05-0.953,24.125-1.872,36.144-2.826
		c-3.651-7.077-6.83-14.605-8.364-21.613c-2.284-10.667-1.756-21.74,3.828-31.339c11.292-19.252,36.968-22.726,57.224-22.726
		c6.832,0,13.702,0,20.527,0c9.375,0,17.717,3.711,24.741,9.774c6.416,5.423,10.938,12.243,13.22,20.198l4.438-0.179
		c4.713-0.175,9.343-0.345,14.056-0.524l15.421-0.528l-1.466,15.373c-0.59,5.993-1.071,11.968-1.525,17.96
		c-0.129,0.896-0.187,1.705-0.237,2.537c0.887-0.055,1.696-0.117,2.59-0.193l16.182-1.291l-0.591,5.609
		c6.308-4.242,13.61-6.611,21.623-7.255c2.925-0.243,5.876-0.471,8.886-0.689c7.059-0.547,14.067,0.329,20.593,3.171
		c5.187,2.234,9.479,5.531,12.609,9.767c0.935-1.535,1.999-3.004,3.113-4.403c6.703-8.147,15.708-12.608,26.2-13.442
		c2.464-0.229,4.927-0.42,7.423-0.583c6.425-0.529,12.767,0.464,18.599,3.29c3.171,1.533,5.988,3.532,8.364,5.961
		c0.508-12.496,1.096-24.925,1.753-37.35l0.66-12.606l12.53-0.234c5.177-0.119,10.356-0.234,15.531-0.354l14.419-0.287
		l-0.639,14.428c-0.404,8.355-0.827,16.664-1.248,25.028c4.063-2.539,8.67-4.071,13.73-4.472c1.889-0.133,3.759-0.294,5.646-0.413
		c3.66-0.294,7.236,0.051,10.713,1.062c0.705-3.483,2.072-6.829,4.35-9.899c4.081-5.547,10.187-8.778,17.016-9.132
		c1.907-0.051,3.728-0.177,5.584-0.234l14.555-0.768l-0.354,14.605c0,0.069,0,0.187,0,0.304c1.112-0.117,2.227-0.234,3.405-0.304
		l8.736-0.708c1.048-3.18,2.041-6.408,3.052-9.646l3.811-12.549l12.668,3.478c9.242,2.527,14.485,10.133,15.885,19.311
		c0.421,2.705,0.606,5.354,0.458,8.077c0.96,2.656,1.971,5.366,2.899,8.013c1.014,2.866,2.006,5.888,2.716,8.889l10.003-1.358
		l1.602,13.721c0.572,5.124-0.303,10.143-2.782,14.665c-2.938,5.244-7.657,9.067-13.712,10.017
		c-7.254,1.105-14.539,2.243-21.772,3.366c-2.548,0.345-4.978,0.345-7.186-0.06c-1.819,0.985-3.895,1.705-6.073,2.065
		c-4.063,0.65-8.178,1.226-12.243,1.873c-5.939,0.887-10.813-0.758-14.475-3.938c-3.307,4.412-8.076,7.344-13.541,8.231
		c-7.002,1.062-13.967,2.125-20.899,3.18c-5.953,0.892-11.671,0.662-16.846-0.928c-3.24,2.762-7.068,4.586-11.303,5.243
		c-5.582,0.818-11.115,1.705-16.715,2.514c-3.171,0.483-6.188,0.363-8.955-0.328c-2.581,1.51-5.465,2.562-8.585,3.063
		c-9.056,1.339-18.181,2.755-27.255,4.154c-7.894,1.197-15.787,0.951-22.784-1.476c-4.005,3.896-8.954,6.326-14.529,7.188
		c-11.014,1.65-21.975,3.369-32.965,5.023c-9.545,1.484-19.318,1.282-27.862-1.838c-4.352,4.604-10.464,7.675-17.995,8.837
		c-12.321,1.907-24.624,3.762-36.869,5.667c-13.948,2.109-25.713-4.246-28.671-18.493c-0.641-3.059-0.751-6.19-0.524-9.261
		c0.6-6.131,1.133-12.184,1.652-18.313L260.794,1196.045z M252.425,1167.002c0.138-0.689,0.195-1.391,0.306-2.105l1.064-7.734
		l0.809-0.336c-2.865-0.413-5.701-1.172-8.458-2.302C248.321,1158.47,250.497,1162.719,252.425,1167.002L252.425,1167.002z
		 M198.684,1201.998l-6.475,0.644c-9.479,0.892-19.018,1.76-28.478,2.716c-4.483,0.414-8.845,1.467-12.556,3.893
		c-1.586,0.988-2.404,1.352-2,3.123c0.885,3.877,6.892,5.895,10.12,6.763c6.503,1.829,13.08,2.3,19.725,1.355
		c6.021-0.831,12.135-2.706,16.554-7.059C198.87,1210.068,199.342,1206.3,198.684,1201.998L198.684,1201.998z M319.898,1188.859
		c-1.119,0.482-2.233,0.896-3.348,1.24c-0.184,2.009-0.361,4.008-0.531,5.945l4.469-0.591
		C320.125,1193.28,319.955,1191.044,319.898,1188.859L319.898,1188.859z" />
		<path fill="#FFFFFF"
			d="M227.18,1122.19c-1.004,0.117-2.229,0.363-2.589,0.706c-0.471,0.583,0,3.23,0.117,3.896
		c0.523,2.514,2.422,6.358,3.591,8.705c2.817,5.96,6.055,11.848,9.362,17.615c5.887,10.433,12.776,23.677,15.239,35.512
		c2.013,9.309,1.652,18.619-1.755,27.515c-3.543,9.242-10.237,16.478-18.08,22.262c-14.191,10.354-31.49,15.888-48.676,18.585
		c-17.726,2.836-35.854,3.07-53.513-0.435c-21.26-4.184-41.506-14.506-46.693-37.232c-1.815-7.891-1.696-15.97,1.721-23.392
		c9.173-19.909,37.189-24.853,56.567-26.32c12.53-1.002,25.077-2.016,37.55-2.941l4.017-0.304l2.174,3.298
		c3.458,5.304,6.942,10.54,10.35,15.837l6.128,9.378l-11.122,0.995c-9.479,0.953-19.018,1.838-28.487,2.767
		c-5.541,0.521-10.901,1.897-15.607,4.956c-3.989,2.59-5.938,5.474-4.883,10.239c1.535,6.89,8.702,10.086,14.89,11.857
		c7.42,2.057,14.893,2.578,22.482,1.517c7.53-1.046,14.902-3.532,20.364-9.003c5.432-5.423,6.193-11.961,4.656-19.271
		c-1.93-9.058-8.424-20.433-13.188-28.328c-5.812-9.706-13.062-22.496-15.423-33.678c-1.931-8.897-1.703-18.376,3.003-26.453
		c9.902-16.724,33.917-19.44,51.406-19.44c6.832,0,13.702,0,20.527,0c7.732,0,14.552,3.25,20.364,8.19
		c6.14,5.236,10.203,11.898,11.857,19.794c1.526,7.477,0.582,14.779-3.771,21.14c-4.485,6.416-11.073,9.78-18.847,10.203
		c-7.951,0.396-15.009-2.481-21.191-7.498c-6.427-5.177-10.777-11.883-12.422-20.03
		C227.298,1122.604,227.247,1122.418,227.18,1122.19L227.18,1122.19z M342.38,1219.066c-3.238,5.727-8.955,9.366-16.898,10.599
		c-12.248,1.838-24.542,3.727-36.851,5.6c-10.297,1.586-18.774-2.463-21.007-13.181c-0.464-2.355-0.584-4.832-0.356-7.254
		c0.768-8.836,1.535-17.598,2.362-26.385c-1.595,0.117-3.18,0.304-4.766,0.414l-8.424,0.817l1.062-8.364
		c0.583-5.161,1.231-10.348,1.923-15.476l0.547-3.877l3.575-1.535c5.079-2.068,11.724-5.372,15.012-9.903
		c4.485-6.021,7.42-17.202,9.015-24.395l1.121-5.051l5.237-0.195c4.713-0.158,9.419-0.338,14.081-0.521l7.693-0.23l-0.694,7.666
		c-0.591,5.998-1.124,12.075-1.595,18.07c-0.303,3.486-0.531,6.942-0.827,10.426c3.474-0.297,6.939-0.521,10.432-0.827l8.114-0.642
		l-0.877,8.131c-1.239,12.008-8.08,20.088-20.07,21.62c-0.531,6.409-1.064,12.887-1.595,19.296l20.079-2.7
		c-0.471-1.399-0.836-2.884-1.137-4.351c-2.337-11.856-0.524-23.392,7.783-32.457c6.636-7.312,15.12-11.073,24.96-11.832
		c2.937-0.195,5.887-0.413,8.897-0.657c5.936-0.457,11.823,0.244,17.356,2.588c7.354,3.18,12.296,8.897,14.072,16.79
		c1.705,7.471,0.228,14.604-4.536,20.626l-0.17,0.228c2.928-0.414,5.878-0.841,8.762-1.172c-0.287-1.119-0.53-2.259-0.761-3.431
		c-1.946-10.543-0.724-21.074,6.301-29.558c5.531-6.722,12.825-10.313,21.529-11.012c2.429-0.17,4.892-0.363,7.369-0.591
		c5.246-0.413,10.354,0.361,15.113,2.647c6.608,3.181,10.793,8.654,12.243,15.789c1.437,6.476,0.491,12.773-3.22,18.208
		c2.478-0.358,5.01-0.666,7.473-1.006c0.521-10.844,1.064-21.688,1.537-32.456c0.52-12.549,1.112-25.088,1.754-37.639l0.352-6.299
		l6.308-0.126c5.127-0.11,10.29-0.239,15.499-0.348l7.17-0.117l-0.304,7.192c-0.574,12.246-1.216,24.422-1.687,36.693
		c-0.188,3.589-0.322,7.225-0.489,10.885c0.776-3.475,2.176-6.763,4.35-9.833c4.249-6.014,10.237-9.531,17.625-10.145
		c1.87-0.161,3.743-0.278,5.65-0.458c4.448-0.352,8.803,0.54,12.716,2.719c1.517,0.809,2.921,1.813,4.098,2.985
		c0-0.171-0.049-0.348-0.049-0.533c-0.994-5.828-0.42-11.832,3.188-16.655c2.887-3.948,7.119-6.182,11.958-6.435
		c1.857-0.05,3.711-0.17,5.565-0.277l7.255-0.363l-0.188,7.303c-0.064,2.599-0.102,5.187-0.168,7.783
		c3.645-0.304,7.252-0.579,10.896-0.895l7.404-0.53l-0.17,7.42c-0.117,5.303-0.166,10.616-0.285,15.919
		c-0.067,2.649-0.187,5.297-0.253,7.894c0.253-0.776,0.606-1.535,0.963-2.261l2.107-5.635c1.534-4.182,3.12-8.373,4.722-12.496
		c-0.136-0.294-0.253-0.59-0.304-0.887c-0.641-1.811-1.133-3.76-1.537-5.717l-0.287-1.703l0.474-1.585
		c1.585-5.187,3.288-10.383,4.892-15.483l1.854-6.308l6.358,1.77c6.611,1.755,10.035,7.307,11.032,13.833
		c0.404,2.649,0.54,5.304,0.219,7.943c1.197,3.128,2.312,6.193,3.424,9.309c1.417,4.024,2.716,8.31,3.424,12.561
		c0.036,0.531,0.186,1.112,0.234,1.641c0.877-0.117,1.771-0.226,2.649-0.36l6.863-0.871l0.777,6.831
		c0.438,3.712-0.168,7.36-1.993,10.591c-1.886,3.415-4.82,6.007-8.769,6.662c-7.303,1.07-14.557,2.176-21.791,3.298
		c-2.816,0.413-5.277,0.177-7.419-0.689c-1.634,1.393-3.578,2.403-5.821,2.697c-4.131,0.644-8.178,1.292-12.312,1.88
		c-7.05,1.114-11.352-3.298-13.238-9.183c-0.694,0.531-1.537,0.944-2.479,1.223c-0.521,2.186-1.399,4.302-2.716,6.199
		c-2.277,3.229-5.563,5.465-9.532,6.056c-6.997,1.063-13.943,2.135-20.944,3.168c-6.356,1.007-12.413,0.483-17.542-2.173
		c-0.421,0.528-0.807,1.07-1.363,1.534c-2.463,2.656-5.584,4.436-9.191,4.969c-5.565,0.868-11.115,1.695-16.698,2.587
		c-3.406,0.524-6.476,0-8.955-1.355c-2.395,2.179-5.295,3.534-8.651,4.005c-9.059,1.399-18.131,2.819-27.187,4.183
		c-8.366,1.289-16.793,0.809-23.73-2.948c-0.42,0.698-0.953,1.354-1.484,1.999c-3.18,3.709-7.337,5.942-12.167,6.652
		c-10.952,1.721-21.968,3.366-32.906,5.069C361.406,1224.136,350.855,1223.849,342.38,1219.066L342.38,1219.066z M500.277,1172.365
		c-0.066,1.889-0.187,3.786-0.253,5.659l1.129-0.168c-0.134-0.698-0.302-1.425-0.405-2.118
		C500.545,1174.617,500.378,1173.505,500.277,1172.365L500.277,1172.365z M551.498,1157.295c0.1,0.591,0.149,1.172,0.219,1.763
		c0-0.471,0.048-1.002,0.048-1.478C551.651,1157.475,551.598,1157.415,551.498,1157.295L551.498,1157.295z M551.498,1165.611
		c-0.372,1.923-0.965,3.879-1.907,5.691l1.722-0.228C551.364,1169.246,551.43,1167.434,551.498,1165.611L551.498,1165.611z" />
		<path fill="#24275A" d="M276.916,1120.361c1.248,6.129,0.303,11.487-2.757,15.973c-3.127,4.527-7.707,6.939-13.594,7.252
		c-5.878,0.28-11.317-1.668-16.614-5.97c-5.304-4.29-8.709-9.706-9.991-16.112c-0.303-1.484-0.471-3.493-0.533-5.896
		c-2.647-0.185-4.299-0.304-4.957-0.304c-8.654,0.177-12.186,4.472-10.405,12.836c0.942,4.297,5.522,13.778,13.693,28.273
		c8.029,14.254,12.859,25.442,14.557,33.572c1.82,8.786,1.229,16.68-1.466,23.729c-2.767,7.143-8.013,13.491-15.786,19.208
		c-11.724,8.587-26.952,14.422-45.732,17.423c-18.013,2.836-35.08,2.767-51.087-0.404c-23.617-4.723-37.685-15.417-41.504-32.154
		c-5.552-24.447,12.698-38.336,52.265-41.466c12.723-1.001,25.433-2.006,37.552-2.95c3.484,5.304,6.94,10.541,10.373,15.789
		c-9.26,0.885-18.67,1.776-28.512,2.723c-7.468,0.698-13.523,2.698-18.652,6.055c-6.753,4.429-9.343,10.178-7.757,17.375
		c1.813,8.061,8.346,13.718,19.656,16.889c8.291,2.328,16.713,2.902,25.247,1.724c10.433-1.468,18.358-5.129,24.185-10.947
		c6.662-6.604,8.728-15.028,6.494-25.46c-1.528-7.17-6.083-17.255-13.967-30.442c-8.061-13.314-13.001-23.848-14.649-31.573
		c-5.412-25.086,11.301-37.683,47.805-37.683c7.059,0,13.838,0,20.527,0c5.556,0,10.91,2.176,15.961,6.535
		C272.513,1108.824,275.636,1114.178,276.916,1120.361L276.916,1120.361z M338.729,1206.663c-0.228,9.477-4.833,14.89-14.233,16.311
		c-11.85,1.819-24.263,3.708-36.87,5.647c-7.641,1.182-12.05-1.466-13.415-7.899c-0.28-1.586-0.414-3.349-0.228-5.295
		c1.002-11.554,2.066-23.089,3.127-34.509c-4.299,0.395-8.594,0.817-12.902,1.231c0.6-5.127,1.238-10.313,1.951-15.424
		c8.583-3.541,14.47-7.605,17.894-12.128c3.828-5.193,7.234-14.191,10.127-26.981c4.637-0.12,9.352-0.295,14.065-0.483
		c-0.588,6.071-1.064,12.136-1.535,18.209c-0.531,6.08-1.004,12.186-1.399,18.323c6.112-0.533,12.186-1.011,18.238-1.484
		c-1.002,9.605-5.995,14.842-14.89,15.735c-1.586,0.171-3.181,0.297-4.715,0.465c-0.942,11.071-1.871,22.204-2.705,33.326
		C314.123,1209.949,326.619,1208.306,338.729,1206.663L338.729,1206.663z M414.791,1196.341c-0.058,4.191-1.172,7.528-3.475,10.185
		c-2.059,2.473-4.704,3.896-8.001,4.421c-10.653,1.604-21.674,3.3-32.915,5.009c-20.55,3.111-32.903-3.584-36.201-20.426
		c-2.176-10.903-0.11-19.791,6.064-26.63c5.294-5.768,12.073-8.945,20.55-9.587c2.935-0.252,5.885-0.482,8.897-0.726
		c5.159-0.414,9.932,0.306,14.116,2.116c5.522,2.369,8.955,6.367,10.177,12.018c1.308,5.727,0.195,10.66-3.237,14.976
		c-6.469,0.749-13.13,1.512-19.776,2.344c1.011-6.188,2.066-12.303,3.123-18.434c-4.235,0.414-8.537,0.818-13.02,1.291
		c-0.4,6.908-0.871,13.788-1.282,20.743c-0.048,1.165,0,2.227,0.228,3.178c0.887,4.539,4.008,6.411,9.479,5.662
		C385.185,1200.355,400.255,1198.356,414.791,1196.341L414.791,1196.341z M477.373,1187.926c0.049,3.7-0.946,6.829-2.884,9.252
		c-1.723,2.174-3.847,3.465-6.595,3.878c-8.835,1.356-18.026,2.765-27.253,4.183c-16.951,2.597-27.188-3.653-30.088-18.967
		c-1.815-9.84-0.23-17.841,4.82-23.976c4.295-5.244,9.893-8.06,16.901-8.59c2.429-0.246,4.842-0.414,7.303-0.593
		c4.352-0.354,8.249,0.287,11.722,2.008c4.591,2.177,7.525,5.888,8.587,11.012c1.112,5.23,0.184,9.716-2.634,13.595
		c-5.313,0.657-10.846,1.308-16.441,1.948c0.895-5.606,1.703-11.124,2.597-16.671c-3.607,0.354-7.186,0.666-10.776,1.004
		c-0.304,6.241-0.642,12.549-0.942,18.848c-0.053,1.055,0,2.057,0.182,2.899c0.761,4.122,3.359,5.818,7.826,5.237
		C452.683,1191.212,465.245,1189.512,477.373,1187.926L477.373,1187.926z M510.735,1183.376c0.082,4.067-1.048,7.248-3.222,9.49
		c-1.535,1.659-3.31,2.661-5.363,2.95c-5.414,0.825-11.134,1.696-16.662,2.537c-4.536,0.694-7.167-1.374-8.061-6.14
		c-0.187-1.229-0.285-2.647-0.253-4.29c0.676-12.776,1.264-25.518,1.856-38.115c0.521-12.583,1.11-25.132,1.753-37.57
		c5.244-0.119,10.354-0.234,15.483-0.354c-0.523,12.184-1.181,24.385-1.705,36.69c-0.474,12.318-1.112,24.734-1.649,37.223
		C498.909,1184.962,504.913,1184.155,510.735,1183.376L510.735,1183.376z M558.378,1176.91c0.049,3.29-0.659,5.997-2.125,8.12
		c-1.365,1.829-3.07,2.953-5.078,3.31c-6.747,1.002-13.744,2.057-20.897,3.18c-12.833,1.946-20.524-3.653-22.902-16.9
		c-1.467-8.61-0.354-15.559,3.356-20.796c3.172-4.47,7.418-6.889,12.6-7.303c1.905-0.117,3.775-0.297,5.667-0.421
		c3.288-0.284,6.223,0.354,8.937,1.839c3.594,1.999,5.82,5.234,6.78,9.706c0.878,4.596,0.234,8.558-1.891,11.848
		c-4.183,0.533-8.362,0.995-12.547,1.535c0.591-4.89,1.114-9.729,1.722-14.553c-2.649,0.304-5.479,0.531-8.245,0.825
		c-0.187,5.423-0.287,10.827-0.474,16.319c0,0.942,0.051,1.811,0.187,2.537c0.657,3.575,2.647,5.161,6.004,4.713
		C539.403,1179.502,549.003,1178.211,558.378,1176.91L558.378,1176.91z M596.765,1171.717c0.452,2.767,0.032,5.193-1.25,7.303
		c-1.179,1.848-2.478,2.899-4.063,3.13c-4.081,0.647-8.112,1.227-12.246,1.894c-3.405,0.533-5.533-1.776-6.36-6.89
		c-0.218-1.364-0.354-2.78-0.303-4.315c0.186-6.773,0.369-13.529,0.556-20.309c-2.478,0.229-4.908,0.474-7.252,0.701
		c-0.304,6.078-0.54,12.126-0.827,18.206c-0.185,3.045-1.28,4.766-3.475,5.06c-1.231,0.188-2.41,0.345-3.709,0.521
		c0.287-7.707,0.54-15.421,0.825-23.086c-1.602-0.474-2.948-1.646-4.249-3.654c-1.231-1.93-2.04-4.242-2.512-6.889
		c-0.843-4.881-0.138-8.704,1.938-11.542c1.705-2.287,4.049-3.527,6.866-3.651c1.854-0.12,3.677-0.171,5.616-0.288
		c-0.187,5.061-0.304,10.187-0.405,15.256c6.29-0.471,12.345-0.942,18.365-1.425c-0.136,5.249-0.234,10.552-0.37,15.847
		c-0.102,5.294-0.234,10.6-0.404,15.97C588.044,1172.897,592.397,1172.308,596.765,1171.717L596.765,1171.717z M631.591,1167.002
		c0.304,2.488-0.101,4.664-1.165,6.553c-1.08,1.933-2.362,2.994-3.929,3.238c-7.066,1.063-14.39,2.176-21.81,3.348
		c-4.402,0.642-6.999-1.646-7.894-6.889c-0.032-0.414-0.165-0.944-0.218-1.537c-0.187-2.337,0.186-4.233,1.063-5.65
		c0.825-1.239,1.873-1.931,3.103-2.041c2.192-0.202,5.482,1.753,9.801,5.74c0.641-2.698,0.742-5.295,0.352-7.891
		c-0.182-1.282-1.076-4.157-2.73-8.702c-0.758,2.065-1.519,4.191-2.293,6.298c-2.006,0.175-3.998,0.419-6.055,0.65
		c1.939-5.069,3.828-10.066,5.647-15c-0.54-1.2-0.944-2.199-1.179-2.902c-0.473-1.425-0.894-3.07-1.231-4.83
		c1.586-5.237,3.307-10.424,4.874-15.553c3.29,0.945,5.363,3.714,6.105,8.364c0.437,2.767,0.437,5.3,0,7.666
		c1.316,3.592,2.665,7.255,3.961,10.828c1.604,4.646,2.6,8.417,3.07,11.369c0.538,3.181,0.354,6.003-0.523,8.425
		C624.171,1168.015,627.88,1167.484,631.591,1167.002L631.591,1167.002z" />
		<path fill="#ED2224" d="M364.045,1073.956h-14.943v-49.881h14.943V1073.956z M410.609,1063.179l-5,10.777h-31.605
		c-1.358,0-2.53-0.474-3.532-1.421c-0.954-1.001-1.425-2.173-1.425-3.531v-39.926c0-1.411,0.471-2.59,1.425-3.536
		c1.002-1.005,2.174-1.467,3.532-1.467h36.605l-5,10.835h-21.614v28.269H410.609L410.609,1063.179z M457.182,1063.179l-5.007,10.777
		h-36.55v-49.881h41.557l-5.007,10.835h-21.604v9.95h21.604v8.307h-21.604v10.012H457.182z M503.733,1034.91h-13.289v39.046h-14.956
		v-39.046h-13.31v-10.835h41.557v10.835H503.733z M550.318,1069.004c0,1.358-0.489,2.53-1.484,3.531
		c-0.944,0.947-2.126,1.421-3.543,1.421h-31.605c-1.352,0-2.53-0.474-3.525-1.421c-0.928-1.001-1.417-2.173-1.417-3.531v-39.926
		c0-1.411,0.489-2.59,1.417-3.536c0.995-1.005,2.179-1.467,3.525-1.467h31.605c1.417,0,2.599,0.465,3.543,1.467
		c0.995,0.944,1.484,2.125,1.484,3.536V1069.004L550.318,1069.004z M535.356,1063.179v-28.269h-11.652v28.269H535.356z
		 M596.865,1069.004c0,1.358-0.473,2.53-1.468,3.531c-0.942,0.947-2.142,1.421-3.522,1.421h-36.566v-49.881h36.566
		c1.381,0,2.58,0.465,3.522,1.467c0.995,0.944,1.468,2.125,1.468,3.536v14.957c0,1.367-0.473,2.539-1.468,3.541
		c-0.942,0.936-2.142,1.459-3.522,1.459c1.381,0,2.58,0.361,3.522,1.182c0.995,0.824,1.468,1.836,1.468,2.947V1069.004z
		 M581.906,1044.86v-9.95H570.27v9.95H581.906z M581.906,1063.179v-10.012H570.27v10.012H581.906z M643.43,1063.179l-5.007,10.777
		h-36.55v-49.881h41.557l-5.007,10.835h-21.589v9.95h21.589v8.307h-21.589v10.012H643.43z" />
		<path fill="#24275A" d="M591.079,1289.033c-19.341,30.864-38.182,62.672-58.37,93.133c-16.377,24.672-38.791,72.773-69.233,90.348
		l-4.049,2.344c-13.206,7.606-24.201,6.09-31.446,9.479c32.917,20.677,85.888,38.402,130.973,12.379
		c30.964-17.894,48.554-54.374,61.76-78.527c5.784-10.589,43.901-78.795,48.203-82.844l0.606-0.944L591.079,1289.033z" />
		<path fill="#24275A" d="M763.294,1039.625l-17.841-30.982c-1.723-0.884-13.325-15.43-15.853-18.079
		c-5.11-5.187-11.032-10.66-16.598-15.256c-7.406-6.19-27.188-20.619-35.029-23.323c3.962,5.717,11.554,8.711,17.101,18.374
		l4.235,7.303c15.48,26.74,9.697,65.313,3.877,87.172c-3.877,14.362-23.425,68.261-33.563,77.8l1.35,2.403
		c2.649-0.761,5.145-0.694,7.473-2.116c14.37-8.231,26.278-27.915,34.558-38.278c3.961-4.895,26.513-42.232,35.281-27.037
		c12.65,21.849-19.378,73.617-4.063,100.19l2.817,4.883c2.362,4.122,3.762,3.592,6.291,7.192
		c12.311-19.573,18.569-48.185,21.251-70.743c1.533-12.608,0.961-24.791-0.354-38.048c-0.694-6.705-2.328-13.14-3.998-20.313
		C769.352,1056.878,763.158,1042.272,763.294,1039.625L763.294,1039.625z" />
	</g>
</svg>
