<?xml version="1.0" encoding="utf-8"?>
<!-- Generator: Adobe Illustrator 16.0.0, SVG Export Plug-In . SVG Version: 6.00 Build 0)  -->
<!DOCTYPE svg PUBLIC "-//W3C//DTD SVG 1.1 Basic//EN" "http://www.w3.org/Graphics/SVG/1.1/DTD/svg11-basic.dtd">
<svg version="1.1" baseProfile="basic" id="Layer_1" xmlns="http://www.w3.org/2000/svg"
	xmlns:xlink="http://www.w3.org/1999/xlink" x="0px" y="0px" viewBox="0 0 442.9 334.813" xml:space="preserve">
	<g>
		<path fill="#000012" d="M77.632,206.382v7.424c0,11.803,6.551,25.15,19.472,39.67c12.503,14.204,30.801,29.132,54.372,44.354
		c25.056,15.987,50.385,28.521,67.224,36.223l1.663,0.761l1.664-0.761c13.74-6.28,40.742-19.338,67.201-36.223
		c23.543-15.211,41.857-30.125,54.454-44.34c12.931-14.705,19.482-28.053,19.482-39.684v-7.424l-4-4v11.424
		c0,10.629-6.217,23.089-18.477,37.031c-12.353,13.939-30.397,28.621-53.611,43.621c-25.731,16.42-51.808,29.143-66.713,35.956
		c-17.399-7.958-42.199-20.301-66.718-35.945c-23.254-15.017-41.282-29.711-53.554-43.651c-12.258-13.775-18.46-26.218-18.46-37.012
		v-11.424L77.632,206.382z" />
		<path fill="#B6BABE" d="M80.583,73.091c-6.448,0-6.448,10,0,10S87.031,73.091,80.583,73.091z" />
		<path fill="#B6BABE" d="M359.542,74.049c-6.449,0-6.449,10,0,10S365.991,74.049,359.542,74.049z" />
		<path fill="#000012" d="M220.353,4.053L354.229,25.85c2.714,0.442,4.935,3.054,4.935,5.804v42.494c0,2.75,2.25,5,5,5h22.207
		c2.75,0,5.904,0,7.011,0c1.105,0,4.26,0,7.01,0h0.051c2.75,0,4.303,2.139,3.45,4.754l-0.016,0.048
		c-0.853,2.615-1.83,5.614-2.173,6.666s-1.32,4.051-2.174,6.666l-11.085,33.988c-0.854,2.614,0.699,4.753,3.449,4.753h26.524
		c2.75,0,5.899,0,7,0c1.1,0,4.249,0,6.998,0c2.75,0,4.313,2.142,3.474,4.761s-1.801,5.618-2.137,6.665s-1.297,4.047-2.137,6.666
		l-9.803,30.575c-0.84,2.619-1.673,5.218-1.851,5.774c-0.179,0.557-0.69,2.153-1.137,3.548c-0.447,1.395-0.829,2.535-0.85,2.535
		c-0.021,0-0.093,0.172-0.16,0.383c-0.068,0.211-0.488,1.523-0.936,2.918c-0.446,1.395-2.009,2.535-3.473,2.535
		c-1.465,0-3.141,0-3.727,0s-3.314,0-6.064,0h-39.454c-2.75,0-7.25,0-10,0H86.632c-2.75,0-7.25,0-10,0H38.104
		c-2.75,0-5.902,0-7.004,0s-4.254,0-7.004,0h-0.019c-2.75,0-4.309-2.142-3.465-4.759l0.006-0.018
		c0.844-2.617,1.812-5.617,2.15-6.667s1.307-4.05,2.151-6.666l11.413-35.35c0.845-2.617-0.714-4.758-3.464-4.758h-8.244
		c-2.75,0-5.907,0-7.015,0s-4.265,0-7.015,0h-0.073c-2.75,0-4.298-2.138-3.44-4.75l0.022-0.069c0.858-2.613,1.843-5.612,2.188-6.665
		s1.33-4.052,2.188-6.665l9.604-29.254c0.858-2.613,1.563-4.761,1.567-4.773c0.004-0.013,0.011-0.033,0.015-0.045
		s0.159-0.464,0.344-1.003c0.185-0.54,0.616-1.833,0.958-2.873c0.342-1.041,0.77-2.344,0.951-2.896s0.7-2.133,1.153-3.514
		s2.012-2.51,3.465-2.51s3.117,0,3.698,0s3.307,0,6.057,0h37.338c2.75,0,5-2.25,5-5V31.652c0-2.75,2.221-5.362,4.935-5.804
		L220.353,4.053 M363.164,210.094c0-2.042,2.25-3.712,5-3.712h35.454c2.75,0,5.479,0,6.064,0s2.262,0,3.727,0
		c1.464,0,3.318,0,4.121,0c0.802,0,1.659-0.626,1.904-1.391c0.245-0.764,0.665-2.077,0.935-2.918c0.27-0.84,0.506-1.527,0.526-1.527
		c0.021,0,0.238-0.626,0.483-1.391c0.245-0.764,0.811-2.53,1.257-3.924c0.447-1.395,0.958-2.991,1.137-3.548
		s1.011-3.155,1.851-5.774l9.803-30.575c0.84-2.619,1.802-5.618,2.138-6.666c0.336-1.048,1.297-4.047,2.137-6.665
		c0.839-2.619,1.902-5.936,2.363-7.371c0.46-1.436-0.396-2.611-1.904-2.611c-1.509,0-4.992,0-7.742,0c-2.749,0-5.898,0-6.998,0
		c-1.101,0-4.25,0-7,0h-21.013c-2.75,0-4.303-2.139-3.449-4.753l9.376-28.748c0.854-2.614,1.831-5.614,2.174-6.666
		s1.32-4.052,2.173-6.667l0.016-0.047c0.853-2.615,1.935-5.933,2.404-7.374c0.47-1.44-0.386-2.62-1.901-2.62s-5.006,0-7.756,0
		h-0.051c-2.75,0-5.904,0-7.01,0c-1.106,0-4.261,0-7.011,0h-18.207c-2.75,0-5-2.25-5-5V31.654c0-2.75,0-5.765,0-6.701
		s-0.756-1.824-1.679-1.974c-0.923-0.15-3.899-0.635-6.613-1.077L225.93,0.908c-2.714-0.442-5.079-0.827-5.256-0.856
		s-0.466-0.029-0.644,0c-0.177,0.029-2.542,0.414-5.256,0.856L85.923,21.9c-2.714,0.442-5.69,0.927-6.613,1.078
		s-1.678,1.039-1.678,1.974s0,3.951,0,6.701v38.495c0,2.75-2.25,5-5,5H39.294c-2.75,0-5.476,0-6.057,0s-2.245,0-3.698,0
		s-3.293,0-4.09,0s-1.652,0.619-1.9,1.376c-0.249,0.757-0.822,2.505-1.275,3.886c-0.453,1.381-0.972,2.962-1.153,3.514
		c-0.181,0.552-0.607,1.85-0.947,2.884s-0.767,2.315-0.949,2.848s-0.334,0.976-0.338,0.986s-0.012,0.036-0.02,0.058
		s-0.715,2.178-1.573,4.791l-9.611,29.279c-0.858,2.613-1.842,5.612-2.188,6.665s-1.331,4.052-2.188,6.665l-0.022,0.069
		c-0.858,2.613-1.948,5.931-2.421,7.375s0.381,2.624,1.9,2.624s5.012,0,7.762,0h0.073c2.75,0,5.907,0,7.015,0s4.265,0,7.015,0h2.749
		c2.75,0,4.309,2.141,3.464,4.758l-9.725,30.121c-0.845,2.616-1.813,5.617-2.151,6.667s-1.306,4.051-2.151,6.668l-0.005,0.016
		c-0.845,2.617-1.915,5.936-2.379,7.373s0.393,2.614,1.903,2.614s4.997,0,7.747,0h0.019c2.75,0,5.902,0,7.004,0s4.254,0,7.004,0
		h34.527c2.75,0,5,1.67,5,3.712s1.641,2.172,3.646,0.29l0.618-0.58c2.005-1.882,5.896-3.422,8.646-3.422h259.917
		c2.75,0,6.62,1.562,8.601,3.469l0.505,0.486C361.544,212.245,363.164,212.136,363.164,210.094z" />
		<path fill="#B6BABE" d="M81.632,26.652v187.154c0,10.794,6.202,23.236,18.46,37.012c12.271,13.94,30.3,28.635,53.554,43.651
		c24.519,15.645,49.318,27.987,66.718,35.945c14.905-6.813,40.981-19.536,66.713-35.956c23.214-15,41.259-29.682,53.611-43.621
		c12.26-13.942,18.477-26.402,18.477-37.031V26.654L220.353,4.053L81.632,26.652z" />
		<g>
			<g>
				<path fill="#FFFFFF" d="M220.348,315.906l-2.088-0.996c-13.387-6.39-33.697-16.777-54.426-29.975
				c-21.763-14.053-38.522-27.683-49.841-40.525c-10.447-11.756-16.209-23.083-16.209-31.881V39.796l122.569-19.967l122.663,19.966
				v172.733c0,8.764-5.639,19.789-16.305,31.883c-11.447,12.992-28.209,26.623-49.82,40.513
				c-20.338,13.073-40.838,23.524-54.452,29.989L220.348,315.906z" />
			</g>
		</g>
		<linearGradient id="SVGID_1_" gradientUnits="userSpaceOnUse" x1="104.541" y1="65.3286" x2="336.2598" y2="65.3286">
			<stop offset="0" style="stop-color:#1D3462" />
			<stop offset="0.2584" style="stop-color:#1C3361" />
			<stop offset="0.494" style="stop-color:#1A305C" />
			<stop offset="0.7207" style="stop-color:#152A55" />
			<stop offset="0.9406" style="stop-color:#0E224A" />
			<stop offset="1" style="stop-color:#0B1F47" />
		</linearGradient>
		<path fill="url(#SVGID_1_)" d="M331.275,103.12c2.741,0.216,4.984-1.857,4.984-4.607V50.915c0-2.75-2.221-5.361-4.935-5.803
		L225.29,27.852c-2.715-0.442-7.156-0.441-9.87,0L109.476,45.111c-2.714,0.442-4.935,3.054-4.935,5.804v31.926
		c0,2.75,2.238,5.229,4.974,5.51L331.275,103.12z" />
		<linearGradient id="SVGID_2_" gradientUnits="userSpaceOnUse" x1="104.541" y1="198.0288" x2="336.2598" y2="198.0288">
			<stop offset="0" style="stop-color:#1D3462" />
			<stop offset="0.2584" style="stop-color:#1C3361" />
			<stop offset="0.494" style="stop-color:#1A305C" />
			<stop offset="0.7207" style="stop-color:#152A55" />
			<stop offset="0.9406" style="stop-color:#0E224A" />
			<stop offset="1" style="stop-color:#0B1F47" />
		</linearGradient>
		<path fill="url(#SVGID_2_)" d="M104.541,87.841V211.8c0,7.164,4.924,17.145,14.754,28.203
		c10.954,12.432,27.232,25.58,48.019,39.004c19.073,12.143,38.442,22.24,53.041,29.209c14.156-6.723,33.889-16.898,53.043-29.209
		c20.885-13.424,37.063-26.572,48.015-39.004c9.835-11.148,14.848-21.128,14.848-28.203V103.513
		C258.741,103.657,182.046,91.363,104.541,87.841z" />
		<g>
			<path fill="#1D3462" d="M220.353,314.601 M220.353,314.601 M218.958,319.91c0,0,0.314,0.15,0.697,0.334
			c0.383,0.184,1.011,0.184,1.395,0c0.383-0.184,0.696-0.334,0.696-0.334 M220.353,13.895C188.614,19.062,98.334,33.76,98.334,33.76
			c-2.714,0.442-4.935,3.054-4.935,5.804v169.243c0,2.75,1.323,5,2.939,5s2.939-2.25,2.939-5V45.386c0-2.75,2.221-5.362,4.935-5.804
			l111.204-18.116c2.714-0.442,7.156-0.442,9.871,0l111.299,18.117c2.715,0.442,4.936,3.053,4.936,5.803v163.42
			c0,2.75,1.327,5,2.948,5s2.948-2.25,2.948-5V39.563c0-2.75-2.221-5.361-4.936-5.803L220.353,13.895z" />
			<path fill="none" stroke="#1D3462" stroke-width="1.459" stroke-miterlimit="10" d="M220.353,314.601 M220.353,314.601
			 M218.958,319.91c0,0,0.314,0.15,0.697,0.334c0.383,0.184,1.011,0.184,1.395,0c0.383-0.184,0.696-0.334,0.696-0.334
			 M220.353,13.895C188.614,19.062,98.334,33.76,98.334,33.76c-2.714,0.442-4.935,3.054-4.935,5.804v169.243c0,2.75,1.323,5,2.939,5
			s2.939-2.25,2.939-5V45.386c0-2.75,2.221-5.362,4.935-5.804l111.204-18.116c2.714-0.442,7.156-0.442,9.871,0l111.299,18.117
			c2.715,0.442,4.936,3.053,4.936,5.803v163.42c0,2.75,1.327,5,2.948,5s2.948-2.25,2.948-5V39.563c0-2.75-2.221-5.361-4.936-5.803
			L220.353,13.895z" />
		</g>
		<path fill="#1D3462" stroke="#1D3462" stroke-width="1.459" stroke-miterlimit="10"
			d="M220.353,314.601
		c-15.262-7.283-35.511-17.841-55.45-30.535c-21.73-14.033-38.748-27.779-50.2-40.774c-10.276-11.563-15.424-21.995-15.424-29.485
		v-6.465l-5.879,0.333v6.132c0,9.486,5.995,20.669,16.588,32.717c11.984,13.561,29.341,27.594,51.491,41.813
		c20.767,13.273,41.845,24.177,57.479,31.574l1.395,0.668l1.394-0.668c15.087-7.109,36.494-18.107,57.588-31.574
		c22.046-14.219,39.397-28.252,51.384-41.721c10.696-12.232,16.701-23.322,16.701-32.809v-7.559l-5.896,0.135v7.424
		c0,7.396-5.24,17.83-15.521,29.485c-11.449,12.995-28.363,26.741-50.196,40.774C255.78,296.937,235.152,307.574,220.353,314.601" />
		<g>
			<path fill="#B6BABE" d="M395.392,86.442c0,0-0.28,0.86-0.623,1.912c-0.343,1.051-1.32,4.05-2.174,6.665l-14.202,43.545
			c-0.854,2.614,0.699,4.753,3.449,4.753h36.577c2.75,0,5.899,0,7,0c1.1,0,1.725,0.857,1.389,1.904
			c-0.336,1.047-1.297,4.047-2.137,6.666l-9.804,30.576c-0.84,2.619-1.673,5.218-1.851,5.775c-0.179,0.558-0.342,1.014-0.362,1.014
			s-0.312,0.857-0.647,1.904s-0.757,2.36-0.936,2.918c-0.178,0.558-0.803,1.014-1.389,1.014s-3.314,0-6.064,0H38.104
			c-2.75,0-5.902,0-7.004,0s-1.727-0.858-1.389-1.907s1.307-4.049,2.151-6.665l14.491-44.887c0.845-2.617-0.714-4.758-3.464-4.758
			H24.626c-2.75,0-5.907,0-7.015,0s-1.732-0.861-1.386-1.914s1.33-4.052,2.188-6.665l9.604-29.254
			c0.858-2.613,1.714-5.202,1.904-5.754c0.189-0.553,0.627-1.866,0.973-2.918s0.777-2.366,0.958-2.918s0.805-1.004,1.386-1.004
			s3.307,0,6.057,0h347.077c2.75,0,5.904,0,7.011,0C394.487,86.442,395.392,86.442,395.392,86.442 M403.893,83.901
			c0.853-2.615-0.7-4.754-3.45-4.754h-0.051c-2.75,0-5.904,0-7.01,0c-1.106,0-4.261,0-7.011,0H39.294c-2.75,0-5.476,0-6.057,0
			s-2.245,0-3.698,0s-3.012,1.129-3.465,2.51s-0.972,2.961-1.153,3.514s-0.609,1.855-0.951,2.896
			c-0.342,1.04-0.772,2.333-0.958,2.873c-0.185,0.54-0.34,0.991-0.344,1.003s-0.011,0.033-0.015,0.045
			c-0.004,0.012-0.709,2.16-1.567,4.773l-9.604,29.254c-0.858,2.613-1.842,5.612-2.188,6.665s-1.331,4.052-2.188,6.665l-0.022,0.069
			c-0.858,2.613,0.69,4.75,3.44,4.75h0.073c2.75,0,5.907,0,7.015,0s4.265,0,7.015,0h8.244c2.75,0,4.309,2.141,3.464,4.758
			l-11.413,35.35c-0.845,2.616-1.813,5.616-2.151,6.666s-1.306,4.05-2.15,6.667l-0.006,0.018c-0.844,2.617,0.715,4.759,3.465,4.759
			h0.019c2.75,0,5.902,0,7.004,0s4.254,0,7.004,0h33.526c2.75,0,5.336,0,5.747,0s0.883,0,1.049,0s2.552,0,5.302,0h319.89
			c2.75,0,5.479,0,6.064,0s2.262,0,3.727,0c1.464,0,3.026-1.141,3.473-2.535c0.447-1.395,0.867-2.707,0.936-2.918
			c0.067-0.211,0.139-0.383,0.16-0.383c0.021,0,0.402-1.141,0.85-2.535c0.446-1.395,0.958-2.991,1.137-3.548
			c0.178-0.557,1.011-3.155,1.851-5.774l9.803-30.575c0.84-2.619,1.801-5.618,2.137-6.666s1.297-4.046,2.137-6.665
			s-0.724-4.761-3.474-4.761c-2.749,0-5.898,0-6.998,0c-1.101,0-4.25,0-7,0h-26.524c-2.75,0-4.303-2.139-3.449-4.753l11.085-33.988
			c0.854-2.614,1.831-5.614,2.174-6.666s1.32-4.051,2.173-6.666L403.893,83.901z" />
		</g>
		<linearGradient id="SVGID_3_" gradientUnits="userSpaceOnUse" x1="11.6187" y1="140.7642" x2="431.3779" y2="140.7642">
			<stop offset="0" style="stop-color:#0B1F47" />
			<stop offset="0.0594" style="stop-color:#0E224A" />
			<stop offset="0.2793" style="stop-color:#152A55" />
			<stop offset="0.506" style="stop-color:#1A305C" />
			<stop offset="0.7416" style="stop-color:#1C3361" />
			<stop offset="1" style="stop-color:#1D3462" />
		</linearGradient>
		<path fill="url(#SVGID_3_)" d="M28.088,198.734c-2.2,0-3.447-1.713-2.771-3.807l16.335-50.603c0.676-2.094-0.571-3.807-2.771-3.807
		H14.561c-2.2,0-3.438-1.71-2.752-3.8l13.055-39.768c0.686-2.09,1.406-4.262,1.6-4.827c0.194-0.565,0.914-2.737,1.6-4.827l0.229-0.7
		c0.686-2.09,3.047-3.8,5.248-3.8h362.878c2.2,0,3.441,1.711,2.76,3.803l-16.068,49.27c-0.682,2.091,0.56,3.803,2.76,3.803h42.549
		c2.2,0,3.45,1.714,2.779,3.809l-14.623,45.61c-0.671,2.095-1.237,3.809-1.258,3.809s-0.458,1.313-0.973,2.918
		c-0.514,1.604-2.734,2.918-4.935,2.918H28.088z" />
		<g>
			<g>
				<path fill="#B6BABE" d="M48.124,184.875c-2.75,0-4.309-2.142-3.464-4.758l15.723-48.701c0.845-2.617-0.714-4.758-3.464-4.758
				h-22.22c-2.75,0-4.298-2.138-3.44-4.75l4.813-14.665c0.858-2.613,3.81-4.75,6.56-4.75h84.586c2.75,0,4.298,2.138,3.441,4.75
				l-4.813,14.665c-0.857,2.613-3.809,4.75-6.559,4.75H97.063c-2.75,0-5.691,2.141-6.536,4.758l-15.722,48.701
				c-0.845,2.616-3.786,4.758-6.536,4.758H48.124z" />
				<path fill="#B6BABE" d="M147.844,184.875c-20.87,0-30.512-6.713-30.512-21.604c0-13.425,6.346-31,14.889-42.229
				c9.521-12.693,23.067-18.551,42.352-18.551h24.653c20.87,0,30.391,6.713,30.391,21.603c0,11.594-4.394,24.043-10.375,35.15
				c-9.642,17.576-24.164,25.63-46.744,25.63H147.844z M170.057,161.441c12.205,0,19.039-4.882,23.434-13.181
				c2.44-4.639,5.004-10.741,5.004-16.11c0-4.882-3.905-6.104-14.524-6.104h-8.056c-10.129,0-16.354,3.662-20.626,10.009
				c-3.417,5.248-6.713,13.059-6.713,19.527c0,4.76,3.662,5.859,13.426,5.859H170.057z" />
				<path fill="#B6BABE" d="M287.955,184.875c-2.75,0-4.312-2.143-3.471-4.761l6.704-20.87c0.841-2.618-0.721-4.76-3.471-4.76
				h-22.465c-2.75,0-5.688,2.142-6.529,4.76l-6.705,20.87c-0.841,2.618-3.779,4.761-6.529,4.761h-20.146
				c-2.75,0-4.306-2.141-3.457-4.756l23.643-72.872c0.849-2.616,3.793-4.756,6.543-4.756h20.146c2.75,0,4.306,2.14,3.457,4.756
				l-5.944,18.316c-0.849,2.616,0.707,4.756,3.457,4.756h22.465c2.75,0,5.694-2.14,6.543-4.756l5.944-18.316
				c0.849-2.616,3.793-4.756,6.543-4.756h20.27c2.75,0,4.306,2.14,3.457,4.756l-23.644,72.872c-0.849,2.615-3.793,4.756-6.543,4.756
				H287.955z" />
				<path fill="#B6BABE" d="M327.622,184.875c-2.75,0-4.306-2.141-3.457-4.756l23.645-72.872c0.849-2.616,3.793-4.756,6.543-4.756
				h20.022c2.75,0,4.303,2.139,3.449,4.753l-15.449,47.368c-0.854,2.614,0.699,4.753,3.449,4.753h40.65
				c2.75,0,4.313,2.143,3.474,4.761l-5.125,15.986c-0.84,2.619-3.776,4.762-6.526,4.762H327.622z" />
			</g>
			<g>
				<path fill="#FFFFFF" d="M50.069,179.039c-2.75,0-4.309-2.142-3.464-4.758l15.722-48.701c0.845-2.617-0.714-4.758-3.464-4.758
				h-22.22c-2.75,0-4.298-2.138-3.44-4.75l4.814-14.665c0.858-2.613,3.81-4.75,6.56-4.75h84.586c2.75,0,4.298,2.138,3.441,4.75
				l-4.813,14.665c-0.857,2.613-3.809,4.75-6.559,4.75H99.009c-2.75,0-5.691,2.141-6.536,4.758l-15.722,48.701
				c-0.845,2.616-3.786,4.758-6.536,4.758H50.069z" />
				<path fill="#FFFFFF" d="M149.788,179.039c-20.87,0-30.512-6.713-30.512-21.604c0-13.425,6.347-31,14.89-42.229
				c9.521-12.693,23.066-18.551,42.351-18.551h24.654c20.87,0,30.391,6.714,30.391,21.603c0,11.594-4.395,24.043-10.375,35.15
				c-9.642,17.576-24.164,25.63-46.744,25.63H149.788z M172.002,155.605c12.204,0,19.039-4.882,23.433-13.181
				c2.44-4.638,5.004-10.741,5.004-16.11c0-4.882-3.905-6.103-14.523-6.103h-8.057c-10.128,0-16.354,3.662-20.626,10.009
				c-3.417,5.248-6.712,13.06-6.712,19.527c0,4.76,3.662,5.858,13.426,5.858H172.002z" />
				<path fill="#FFFFFF" d="M289.9,179.039c-2.75,0-4.312-2.143-3.471-4.761l6.704-20.87c0.841-2.618-0.721-4.76-3.471-4.76h-22.465
				c-2.75,0-5.688,2.142-6.529,4.76l-6.706,20.87c-0.841,2.618-3.779,4.761-6.529,4.761h-20.145c-2.75,0-4.306-2.141-3.457-4.756
				l23.643-72.872c0.849-2.616,3.793-4.756,6.543-4.756h20.146c2.75,0,4.306,2.14,3.457,4.756l-5.944,18.316
				c-0.849,2.616,0.707,4.756,3.457,4.756h22.464c2.75,0,5.694-2.14,6.543-4.756l5.944-18.316c0.849-2.616,3.793-4.756,6.543-4.756
				h20.27c2.75,0,4.306,2.14,3.457,4.756l-23.643,72.872c-0.849,2.615-3.793,4.756-6.543,4.756H289.9z" />
				<path fill="#FFFFFF" d="M329.567,179.039c-2.75,0-4.306-2.141-3.457-4.756l23.644-72.872c0.849-2.616,3.793-4.756,6.543-4.756
				h20.022c2.75,0,4.303,2.139,3.449,4.753l-15.448,47.368c-0.854,2.614,0.699,4.753,3.449,4.753h40.65
				c2.75,0,4.313,2.143,3.474,4.761l-5.126,15.986c-0.84,2.619-3.776,4.762-6.526,4.762H329.567z" />
			</g>
		</g>
		<g>
			<polygon fill="#B6BABE" points="179.388,69.184 187.394,63.345 195.396,69.184 192.316,59.767 200.344,53.96 190.438,53.979 
			187.394,44.551 184.35,53.979 174.441,53.96 182.469,59.767 		" />
			<polygon fill="#B6BABE" points="210.78,70.005 220.786,62.707 230.791,70.005 226.941,58.233 236.975,50.975 224.591,50.999 
			220.786,39.213 216.983,50.999 204.598,50.975 214.631,58.233 		" />
			<polygon fill="#B6BABE" points="245.422,69.184 253.426,63.345 261.429,69.184 258.351,59.767 266.376,53.96 256.471,53.979 
			253.426,44.551 250.383,53.979 240.477,53.96 248.504,59.767 		" />
			<polygon fill="#BA1E20" points="179.388,67.184 187.394,61.345 195.396,67.184 192.316,57.767 200.344,51.96 190.438,51.979 
			187.394,42.551 184.35,51.979 174.441,51.96 182.469,57.767 		" />
			<polygon fill="#BA1E20" points="210.78,68.005 220.786,60.707 230.791,68.005 226.941,56.233 236.975,48.975 224.591,48.999 
			220.786,37.213 216.983,48.999 204.598,48.975 214.631,56.233 		" />
			<polygon fill="#BA1E20" points="245.422,67.184 253.426,61.345 261.429,67.184 258.351,57.767 266.376,51.96 256.471,51.979 
			253.426,42.551 250.383,51.979 240.477,51.96 248.504,57.767 		" />
		</g>
		<g>
			<path fill="#B6BABE" d="M274.129,255.966c-0.469-2.248-2.21-3.76-4.335-3.76c-0.74,0-1.478,0.182-2.194,0.539
			c-1.295,0.648-2.574,1.321-3.854,1.995c-1.397,0.736-2.794,1.472-4.212,2.172c-2.558,1.263-5.149,1.206-7.879-0.171
			c-5.792-2.922-11.592-5.822-17.394-8.723l-7.294-3.649l44.832-22.207c0.96-0.477,1.957-0.97,2.276-1.961
			c0.308-0.952-0.151-1.819-0.595-2.655c-0.69-1.308-1.63-1.58-2.298-1.58c-0.636,0-1.204,0.242-1.678,0.479
			c-6.478,3.254-12.958,6.504-19.439,9.753c-9.665,4.847-19.329,9.692-28.986,14.555c-0.376,0.189-0.568,0.213-0.681,0.213
			c-0.109,0-0.296-0.021-0.654-0.204c-13.994-7.046-27.999-14.063-42.007-21.081l-6.416-3.213c-0.7-0.352-1.217-0.555-1.778-0.555
			c-1.352,0-1.952,1.127-2.483,2.122c-0.407,0.765-0.507,1.486-0.296,2.146c0.296,0.919,1.097,1.405,1.673,1.693
			c11.989,5.926,23.97,11.863,35.947,17.803l9.457,4.695c-2.054,1.026-4.11,2.045-6.166,3.066c-5.77,2.86-11.735,5.82-17.546,8.857
			c-3.655,1.916-6.812,1.917-10.228,0c-2.125-1.19-4.372-2.388-6.68-3.558c-0.775-0.392-1.54-0.592-2.27-0.592
			c-0.935,0-2.679,0.352-3.855,2.704c-0.544,1.086-0.653,2.104-0.321,3.021c0.359,0.994,1.217,1.796,2.548,2.381
			c2.741,1.205,5.562,2.325,8.287,3.41l2.837,1.133c0.846,0.34,1.714,0.513,2.583,0.513c1.184,0,2.379-0.312,3.652-0.948
			c5.212-2.605,10.433-5.195,15.652-7.785c5.709-2.833,11.419-5.666,17.117-8.518c0.773-0.386,1.143-0.385,1.91,0
			c11.156,5.597,22.34,11.137,33.238,16.469c1.374,0.674,2.971,0.938,4.157,0.652c4.77-1.139,9.345-2.96,13.599-5.412
			C273.787,258.941,274.448,257.521,274.129,255.966z" />
			<path fill="#BA1E20" d="M274.129,253.921c-0.469-2.248-2.21-3.76-4.335-3.76c-0.74,0-1.478,0.182-2.194,0.54
			c-1.295,0.647-2.574,1.321-3.854,1.994c-1.397,0.737-2.794,1.472-4.212,2.171c-2.558,1.265-5.149,1.207-7.879-0.17
			c-5.792-2.922-11.592-5.822-17.394-8.723l-7.294-3.649l44.832-22.208c0.96-0.476,1.957-0.969,2.276-1.96
			c0.308-0.952-0.151-1.819-0.595-2.655c-0.69-1.308-1.63-1.58-2.298-1.58c-0.636,0-1.204,0.242-1.678,0.479
			c-6.478,3.255-12.958,6.505-19.439,9.753c-9.665,4.848-19.329,9.693-28.986,14.555c-0.376,0.189-0.568,0.213-0.681,0.213
			c-0.109,0-0.296-0.021-0.654-0.204c-13.994-7.045-27.999-14.062-42.007-21.08l-6.416-3.214c-0.7-0.352-1.217-0.555-1.778-0.555
			c-1.352,0-1.952,1.127-2.483,2.121c-0.407,0.766-0.507,1.486-0.296,2.146c0.296,0.921,1.097,1.407,1.673,1.694
			c11.989,5.926,23.97,11.863,35.947,17.802l9.457,4.696c-2.054,1.026-4.11,2.046-6.166,3.066c-5.77,2.861-11.735,5.82-17.546,8.857
			c-3.655,1.916-6.812,1.917-10.228,0c-2.125-1.189-4.372-2.388-6.68-3.558c-0.775-0.392-1.54-0.591-2.27-0.591
			c-0.935,0-2.679,0.351-3.855,2.703c-0.544,1.086-0.653,2.104-0.321,3.021c0.359,0.994,1.217,1.796,2.548,2.381
			c2.741,1.205,5.562,2.326,8.287,3.41l2.837,1.133c0.846,0.34,1.714,0.512,2.583,0.512c1.184,0,2.379-0.311,3.652-0.947
			c5.212-2.605,10.433-5.195,15.652-7.786c5.709-2.831,11.419-5.664,17.117-8.517c0.773-0.386,1.143-0.385,1.91,0
			c11.156,5.597,22.34,11.138,33.238,16.469c1.374,0.674,2.971,0.938,4.157,0.653c4.77-1.14,9.345-2.96,13.599-5.413
			C273.787,256.896,274.448,255.476,274.129,253.921z" />
		</g>
		<path fill="#B6BABE"
			d="M352.369,203.076c0-1.596,2.25-2.901,5-2.901h4.245c2.75,0,5,0.501,5,1.112
		c0,0.612-1.677,1.113-3.725,1.113c-2.049,0-3.726,1.646-3.726,3.658s-1.529,2.816-3.397,1.788S352.369,204.67,352.369,203.076z" />
		<path fill="#B6BABE" d="M88.434,203.076c0-1.596-2.25-2.901-5-2.901h-4.245c-2.75,0-5,0.501-5,1.112
		c0,0.612,1.676,1.113,3.725,1.113s3.725,1.646,3.725,3.658s1.529,2.816,3.397,1.788S88.434,204.67,88.434,203.076z" />
	</g>
	<g>
	</g>
	<g>
	</g>
	<g>
	</g>
	<g>
	</g>
	<g>
	</g>
	<g>
	</g>
</svg>
