<svg version="1.1" baseProfile="basic" id="Layer_8" xmlns="http://www.w3.org/2000/svg"
	xmlns:xlink="http://www.w3.org/1999/xlink" x="0px" y="0px" viewBox="0 0 488.85 488.85" xml:space="preserve">
	<g>
		<path fill="#FFFFFF" d="M85.019,169.786l159.478,265.539l159.353-265.542L85.019,169.786z" />
		<path fill="#C2A880" d="M36.337,142.236L244.506,488.85l208.007-346.617L36.337,142.236z M244.5,462.087L60.678,156.011
		l367.502-0.003L244.5,462.087z" />
		<path d="M403.849,169.783L244.496,435.324L85.019,169.786L403.849,169.783 M428.18,156.008l-367.502,0.003L244.5,462.087
		L428.18,156.008L428.18,156.008z" />
		<g>
			<path fill-rule="evenodd" clip-rule="evenodd" fill="#C2A880" d="M152.87,301.047c-0.244-0.243-0.486-0.489-0.729-0.734
			c-0.141-0.15-0.281-0.3-0.421-0.449l0.019,0.025c-0.347-1.591-1.003-2.866-2.912-2.871c0,0-0.103-0.112-0.102-0.113
			c0.051-1.033-0.124-1.849-1.478-1.496c0,0-0.056-0.09-0.055-0.09c0.082-0.309-0.041-0.42-0.343-0.354c0,0-0.07-0.03-0.069-0.03
			c0.364-1.271-0.618-1.19-1.356-1.357l0.016,0.018c0.005-0.547-0.278-0.806-0.815-0.805c-3.857-2.751-5.913-6.896-8.313-10.771
			c-8.333-13.451-16.668-26.903-24.976-40.372c-0.804-1.302-1.771-2.396-2.965-3.347c-3.071-2.449-6.043-5.023-9.158-7.414
			c-1.404-1.078-0.885-1.378,0.329-1.942c11.369-5.288,22.723-10.608,34.069-15.949c0.639-0.302,1.647-0.283,1.639-1.392
			c-0.194-1.221,0.474-2.77-1.288-3.396l0.027,0.018c0.414-1.401,0.464-2.658-1.258-3.224c-0.089-0.264-0.179-0.527-0.267-0.791
			c0.989-1.36,2.52-0.67,3.727-1.038c3.562-1.087,7.148-1.782,10.837-2.233c1.115-0.136,2.857,0.6,3.514-1.204
			c0.234-0.262,0.534-0.228,0.835-0.18c0.146,0.729,0.597,0.698,1.181,0.531c2.12-0.608,4.235-1.239,6.379-1.757
			c2.293-0.554,3.313-2.354,4.346-4.178c0,0,0.097-0.101,0.097-0.1c2.181-0.068,4.754-2.452,4.981-4.615
			c0,0,0.134-0.125,0.134-0.124c1.516,0.349,1.945-0.514,2-1.794l0.084,0.159l-0.074-0.163c1.849-0.204,2.898-1.257,3.253-3.052
			c0,0-0.019,0.018-0.018,0.018c0.88,0.145,1.307-0.217,1.257-1.117l0.007-0.005c0.606-0.018,1.198-0.051,1.056-0.926
			c0,0-0.017,0.017-0.017,0.018c0.877,0.128,1.26-0.292,1.263-1.133l-0.018,0.018c0.38-0.006,0.721-0.057,0.626-0.577
			c0,0,0.032-0.041,0.032-0.04c1.596,0.161,4.082-2.065,4.523-4.049l0.01-0.009c2.525-0.755,4.108-2.694,5.73-4.578
			c0.039-0.045-0.082-0.229-0.13-0.348c0,0,0.1-0.042,0.102-0.041c0.313,0.078,0.418-0.044,0.34-0.346c0,0,0.06-0.074,0.06-0.073
			c1.025,0.402,1.602-0.237,1.64-1.044c0.042-0.847-0.688-0.964-1.414-0.666c-3.777-2.347-7.565-4.672-11.327-7.042
			c-7.087-4.469-14.157-8.964-21.604-13.681c2.911-1.188,5.52-2.255,8.131-3.316c9.028-3.664,18.008-7.399,26.607-12.053
			c9.542-5.167,17.496-11.898,24.259-20.471c13.511-17.129,27.539-33.851,41.361-50.734c3.419-4.175,8.108-5.709,13.24-6.463
			c4.461-0.656,8.879-1.591,13.327-2.322c0.932-0.153,1.313-0.772,1.775-1.38c12.956-16.982,25.923-33.957,38.83-50.976
			c0.939-1.238,1.552-1.449,2.963-0.664c6.016,3.339,12.109,6.514,17.053,11.463c5.322,5.33,9.387,11.399,11.4,18.724
			c0.183,0.66,0.558,1.172,0.904,1.723c1.919,3.047,4.193,5.877,5.796,9.115c3.214,6.489,3.37,12.995,0.962,19.938
			c-5.415,15.609-10.398,31.37-15.563,47.066c-0.059,0.178-0.201,0.329-0.305,0.492c-0.336,0.183-0.405,0.485-0.371,0.832
			l0.027-0.038c-0.667,0.382-0.428,1.021-0.451,1.585l0.01-0.015c-0.875,0.15-1.052,0.526-0.379,1.174
			c-0.067,0.414,0.047,0.887-0.374,1.189c-0.74-0.001-1.034,0.533-1.154,1.11c-0.355,1.701-0.912,3.37-0.896,5.135l-0.005,0.02
			c-1.808,1.412-1.326,3.535-1.505,5.363c-0.346,3.572,0.305,7.191-0.358,10.767c-0.092,0.488,0.206,0.714,0.644,0.805
			c-0.01,0.399-0.018,0.798-0.026,1.197c-0.638,0.671-0.8,1.505-0.694,2.371c0.283,2.336-0.06,4.68-0.183,6.983
			c-0.387,7.126-0.354,14.258-0.622,21.383c-0.104,2.8,0.104,5.597-0.204,8.417c-0.117,1.071-0.66,2.62,0.441,3.726
			c0.079,0.669,0.182,1.34-0.148,1.979c-0.76,0.624-0.615,1.281-0.074,1.954c-0.006,0.397-0.012,0.795-0.017,1.192
			c-0.526,0.511-0.513,1.031-0.025,1.558c-0.003,0.266-0.007,0.531-0.011,0.797c-1.031,0.261-0.747,1.115-0.727,1.768
			c0.251,7.619-0.655,15.217-0.422,22.835c0.019,0.635-0.134,1.283-0.254,1.917c-0.101,0.527-0.213,1.031,0.293,1.425
			c-0.053,0.393-0.104,0.784-0.157,1.176c-0.461,0.025-0.921,0.06-1.017,0.651c-0.203,1.258-0.804,2.434-0.774,3.739l0.028-0.039
			c-0.395,0.209-0.445,0.509-0.236,0.877l-0.029,0.146c-0.096-0.029-0.189-0.055-0.284-0.081c0.055,0.074,0.108,0.15,0.164,0.224
			c-0.05,0.309-0.044,0.641-0.373,0.82c-0.85-0.017-1.069,0.627-1.251,1.25c-0.415,1.425-0.793,2.856-1.186,4.288
			c-0.043,0.24-0.086,0.481-0.13,0.725c-0.904,0.199-0.612,0.945-0.694,1.519c-2.395,5.781-4.79,11.56-7.36,17.76
			c-1.107-1.656-1.993-2.979-2.878-4.3c-0.001-0.413-0.142-0.725-0.592-0.805c-0.072-0.104-0.144-0.206-0.215-0.311
			c0.034-0.495-0.17-0.812-0.676-0.904l-0.043-0.085c-1.166-1.279-1.378,0.18-1.654,0.693c-1.353,2.511-2.55,5.105-3.898,7.619
			c-0.816,1.522-1.707,2.986-1.552,4.808l0.008-0.018c-0.313,0.175-0.396,0.464-0.406,0.792l0.003-0.002
			c-0.495,0.08-0.968,0.171-0.386,0.782c-0.019,0.316-0.042,0.63-0.378,0.794c-0.098,0.176-0.196,0.354-0.295,0.527
			c0,0,0.059-0.044,0.058-0.044c-0.669,0.128-0.55,0.658-0.563,1.116c-3.439,7.111-6.85,14.236-10.326,21.33
			c-9.239,18.836-18.548,37.637-27.701,56.515c-0.97,2-2.017,2.832-4.117,2.348c-0.759-0.583-1.645-0.319-2.469-0.32
			c-23.76-0.015-47.521-0.01-71.28-0.01c-1.62,0-3.288,0.251-4.595-1.119c-0.228-0.239-0.425,0.099-0.517,0.347
			c-0.145-0.02-0.197-0.099-0.16-0.239c-0.19-0.174-0.378-0.346-0.567-0.518l0.026,0.047c0.058-0.587-0.212-0.857-0.795-0.82
			l0.018,0.021c0.028-0.93,0.055-1.85-1.343-1.282c-0.07-0.021-0.113-0.069-0.128-0.141c0.515-1.118-0.266-0.968-0.919-0.941
			l0.017,0.016c0.056-0.59-0.213-0.859-0.802-0.812l0.016,0.02c0.197-1.295-0.428-1.752-1.64-1.611
			c-0.621-0.362-1.101-0.864-1.491-1.46c0.042-1.655-0.867-2.36-2.418-2.428l0.076-0.065l-0.062,0.079
			c-0.976-2.894-3.287-4.48-5.773-5.896c-0.04-0.022-0.123,0.025-0.187,0.04c0,0,0.037,0.011,0.039,0.01
			c-0.006-0.41-0.287-0.529-0.625-0.584l-0.026-0.024c-0.433-1.834-4.152-6.244-6.291-6.267l-0.013-0.013
			c-0.091-0.558,0.015-1.356-0.985-0.802c-0.106-0.01-0.163-0.069-0.17-0.175c0.368-0.435,0.253-0.839-0.101-1.199
			c-0.944-0.957-1.897-1.908-2.855-2.854c-0.36-0.354-0.766-0.46-1.203-0.111c-0.097-0.014-0.146-0.069-0.146-0.167
			c0.348-1.551-0.349-2.087-1.819-1.872l-0.089-0.094c-0.137-2.017-0.985-2.855-2.66-2.629c0,0-0.091-0.119-0.089-0.121
			c0.102-0.312-0.021-0.404-0.317-0.33c0,0-0.085-0.063-0.083-0.063c-0.178-1.884-1.352-3.054-3.063-3.048
			c0,0-0.095-0.098-0.094-0.099c0.45-1.332-0.471-1.308-1.328-1.343l0.023,0.015C153.176,301.32,153.023,301.185,152.87,301.047z
			 M320.301,11.402c-0.227,0.09-0.345,0.231-0.227,0.484l-0.013,0.146c-0.536-0.175-0.574,0.188-0.603,0.559l0.018-0.02
			c-2.27,1.598-4.235,3.42-4.699,6.353l0.021-0.017c-0.633-0.016-0.911,0.238-0.674,0.883l-0.095,0.028l0.088-0.044
			c-0.505,0.002-0.556,0.33-0.521,0.721l0.017-0.009c-2.795,1.179-4.181,3.433-4.789,6.281c-0.092,0.129-0.185,0.257-0.276,0.386
			c-2.069,0.668-3.254,2.223-3.276,4.305c-6.083,8.041-12.187,16.064-18.22,24.14c-0.826,1.103-1.813,1.566-3.075,1.784
			c-5.477,0.945-10.947,1.924-16.422,2.883c-3.499,0.612-6.336,2.287-8.595,5.054c-13.795,16.896-27.624,33.768-41.431,50.657
			c-3.979,4.868-7.849,9.798-13.061,13.51c-9.938,7.076-20.784,12.386-32.032,16.96c-2.51,1.02-5.01,2.063-7.767,3.2
			c10.709,6.781,21.142,13.388,31.691,20.067c-3.658,3.21-7.253,6.341-10.822,9.5c-4.558,4.035-9.095,8.093-13.641,12.142
			c-1.47-0.8-1.123,0.382-1.199,1.101l0.011-0.012c-0.377,0.001-0.703,0.064-0.678,0.556l0.017-0.037
			c-0.295-0.019-0.425,0.112-0.374,0.41c-0.067-0.127-0.104-0.196-0.012,0.004c-1.23,0.049-2.164,0.416-2.037,1.91l-0.082-0.077
			l0.093,0.062c-0.616-0.105-0.887,0.163-0.837,0.777l0.016-0.023c-0.388-0.016-0.76-0.015-0.607,0.557l-0.057,0.078
			c-0.264-0.155-0.567-0.294-0.756,0.029c-0.089,0.149,0.033,0.421,0.058,0.638l-0.121,0.058c-0.316-0.103-0.416,0.023-0.346,0.329
			l-0.041,0.071c-0.738-0.279-0.968-0.023-0.747,0.708l-0.062-0.012c-0.286-0.036-0.418,0.099-0.418,0.38l-0.002-0.017
			c-0.17,0.106-0.34,0.21-0.509,0.313l0.03-0.021c-1.526-0.025-3.375-0.541-3.144,2.087c-0.328,0.415-0.776,0.263-1.194,0.25
			c-0.723,0.122-1.7-0.454-2.029,0.743c-0.241,0.052-0.483,0.105-0.725,0.157c-0.76-0.83-1.16-0.192-1.577,0.385l0.028-0.045
			c-0.771-0.026-1.54-0.076-2.308-0.067c-0.875,0.007-1.891-0.202-2.094,1.102c-0.139,0.016-0.275,0.031-0.414,0.044
			c-0.578-0.495-1.39-0.715-1.985-0.523c-3.329,1.077-6.857,1.028-10.208,1.922c-0.873,0.234-2.445-0.859-2.5,0.8
			c-0.049,1.496,1.673,0.918,2.587,1.31c0.735,1.812,1.429,3.642,2.22,5.427c0.518,1.172,0.333,1.714-0.946,2.302
			c-10.586,4.867-21.115,9.859-31.688,14.754c-1.462,0.677-1.846,0.973-0.351,2.214c2.594,2.151,5.54,3.895,7.399,6.931
			c7.776,12.673,15.65,25.284,23.523,37.897c2.181,3.494,3.858,7.423,6.737,10.344c9.525,9.665,19.302,19.08,28.964,28.606
			c6.297,6.211,12.563,12.45,18.844,18.675c-0.13,1.254,1.024,2.686,2.279,2.497c1.522-0.228,2.986,0.11,4.48,0.105
			c11.696-0.044,23.393,0.006,35.088,0.007c11.632,0.002,23.262-0.014,34.895-0.037c0.833-0.002,2.004,0.4,1.839-1.191l-0.022-0.099
			l0.078-0.066c1.644-0.024,1.132-1.166,1.071-2.074l-0.024-0.021c0.448,0.086,1.085,0.231,1.18-0.3
			c0.393-2.208,2.49-3.842,2.083-6.299l-0.006,0.012c1.187-0.553,1.771-1.388,1.276-2.725c0.431-0.952,0.835-1.916,1.296-2.853
			c12.115-24.666,24.232-49.33,36.355-73.992c2.023-4.118,4.062-8.227,6.179-12.51c1.574,2.141,2.971,4.041,4.49,6.107
			c3.022-6.979,5.899-13.628,8.778-20.277c0.394-0.02,0.846,0.005,0.996-0.452c0.735-2.229,1.649-4.499,1.604-6.824
			c-0.125-6.49,0.598-12.953,0.437-19.434c-0.098-3.867,0.426-7.7,0.498-11.562c0.053-2.9-0.468-5.835,0.265-8.731
			c0.151-0.593,0.352-1.504-0.672-1.797c0.003-0.524,0.006-1.047,0.008-1.57c1.333-2.167,0.753-4.428,0.331-6.682
			c0.009-0.923,0.021-1.847,0.03-2.77c0.301-0.059,0.604-0.125,0.652-0.496c0.063-0.478-0.268-0.606-0.646-0.68
			c0.014-0.655,0.027-1.31,0.039-1.965c1.41-1.104,0.935-2.835,0.97-4.131c0.241-8.594-0.012-17.2,0.497-25.793
			c0.029-0.47-0.04-0.919-0.485-1.209c-0.084-2.762,0.249-5.44,1.128-8.097c6.693-20.229,13.316-40.482,19.994-60.717
			c1.239-3.755,1.093-7.426-0.08-11.163c-1.158-3.696-3.445-6.73-5.463-9.936c-0.97-1.541-2.327-2.875-2.792-4.703
			c-1.399-5.513-4.253-10.223-7.869-14.537c-3.976-4.743-9.004-8.118-14.301-11.16c0.152-0.26,0.504-0.628,0.428-0.765
			c-0.795-1.455-2.273-1.265-3.555-1.221c-1.178,0.041-1.557,0.937-1.304,2.063l-0.044,0.045c-0.525-0.07-0.552,0.278-0.546,0.654
			l0.021-0.015c-1.585,0.217-2.107,1.236-2.043,2.701l0,0c-0.356,0.047-0.687,0.119-0.56,0.61c-0.028-0.042-0.054-0.084-0.081-0.125
			c0.03,0.038,0.063,0.077,0.094,0.115c-0.568-0.057-0.583,0.289-0.507,0.698v-0.026c-0.16,0.128-0.32,0.256-0.481,0.386
			L320.301,11.402z M146.306,203.243c-0.097-0.06-0.182-0.126-0.279-0.161c-0.041-0.014-0.106,0.038-0.16,0.058
			c0.042,0.075,0.087,0.215,0.124,0.212C146.096,203.348,146.197,203.284,146.306,203.243z" />
			<path fill-rule="evenodd" clip-rule="evenodd" fill="#BCA688"
				d="M191.356,339.22c0.092-0.248,0.289-0.586,0.517-0.347
			c1.307,1.37,2.975,1.119,4.595,1.119c23.759,0,47.521-0.005,71.28,0.01c0.824,0.001,1.71-0.263,2.469,0.32
			c-1.112,0.023-2.223,0.064-3.333,0.064c-24.227,0.006-48.45,0-72.675,0.016C193.061,340.403,191.964,340.444,191.356,339.22z" />
			<path fill-rule="evenodd" clip-rule="evenodd" fill="#BCA688"
				d="M340.514,180.987c-1.102-1.106-0.559-2.655-0.441-3.726
			c0.309-2.819,0.1-5.617,0.204-8.417c0.268-7.125,0.235-14.257,0.622-21.383c0.123-2.303,0.466-4.647,0.183-6.983
			c-0.105-0.866,0.057-1.7,0.694-2.371c-0.312,10.77-0.62,21.539-0.934,32.309C340.738,173.94,340.624,177.463,340.514,180.987z" />
			<path fill-rule="evenodd" clip-rule="evenodd" fill="#BCA688" d="M339.129,216.412c-0.506-0.394-0.394-0.897-0.293-1.425
			c0.12-0.634,0.272-1.282,0.254-1.917c-0.233-7.618,0.673-15.216,0.422-22.835c-0.021-0.653-0.305-1.507,0.727-1.768
			c-0.253,8.948-0.502,17.895-0.771,26.841C339.456,215.681,339.246,216.044,339.129,216.412z" />
			<path fill-rule="evenodd" clip-rule="evenodd" fill="#BCA688" d="M150.54,199.735c-0.657,1.803-2.399,1.067-3.514,1.204
			c-3.689,0.451-7.276,1.146-10.837,2.233c-1.207,0.368-2.738-0.322-3.727,1.038c-0.421-0.713-0.948-1.359,0.501-1.586
			C138.828,201.699,144.681,200.704,150.54,199.735z" />
			<path fill-rule="evenodd" clip-rule="evenodd" fill="#BCA688" d="M314.321,256.182c-0.155-1.821,0.735-3.285,1.552-4.808
			c1.349-2.514,2.546-5.108,3.898-7.619c0.276-0.514,0.488-1.973,1.654-0.693c-0.936,0.095-0.976,0.959-1.28,1.558
			C318.188,248.464,316.259,252.325,314.321,256.182z" />
			<path fill-rule="evenodd" clip-rule="evenodd" fill="#BCA688" d="M163.28,194.151c-1.032,1.824-2.053,3.624-4.346,4.178
			c-2.144,0.518-4.259,1.149-6.379,1.757c-0.583,0.167-1.035,0.198-1.181-0.531c0.751-0.191,1.495-0.426,2.256-0.566
			C157.32,198.314,160.723,197.079,163.28,194.151z" />
			<path fill-rule="evenodd" clip-rule="evenodd" fill="#BCA688" d="M341.802,136.911c-0.438-0.091-0.735-0.317-0.644-0.805
			c0.663-3.576,0.013-7.195,0.358-10.767c0.179-1.828-0.303-3.951,1.505-5.363c-1.252,4.86-0.84,9.849-1.133,14.783
			C341.846,135.476,341.83,136.194,341.802,136.911z" />
			<path fill-rule="evenodd" clip-rule="evenodd" fill="#BCA688" d="M168.321,316.362c2.139,0.022,5.858,4.433,6.291,6.267
			C172.42,320.637,170.289,318.582,168.321,316.362z" />
			<path fill-rule="evenodd" clip-rule="evenodd" fill="#BCA688" d="M175.225,323.228c0.063-0.015,0.146-0.063,0.187-0.04
			c2.486,1.416,4.798,3.003,5.773,5.896C179.05,327.284,177.143,325.25,175.225,323.228z" />
			<path fill-rule="evenodd" clip-rule="evenodd" fill="#BCA688" d="M168.358,189.437c-0.228,2.163-2.801,4.547-4.981,4.615
			C164.937,192.403,166.576,190.844,168.358,189.437z" />
			<path fill-rule="evenodd" clip-rule="evenodd" fill="#BCA688" d="M188.077,171.735c0.048,0.118,0.169,0.303,0.13,0.348
			c-1.622,1.884-3.205,3.823-5.73,4.578C184.212,174.87,186.105,173.258,188.077,171.735z" />
			<path fill-rule="evenodd" clip-rule="evenodd" fill="#BCA688" d="M182.467,176.67c-0.441,1.983-2.928,4.209-4.523,4.049
			C179.273,179.17,180.86,177.91,182.467,176.67z" />
			<path fill-rule="evenodd" clip-rule="evenodd" fill="#BCA688"
				d="M162.994,311.209c0.438-0.349,0.843-0.243,1.203,0.111
			c0.958,0.945,1.911,1.896,2.855,2.854c0.354,0.36,0.469,0.765,0.101,1.199C165.767,313.984,164.38,312.596,162.994,311.209z" />
			<path fill-rule="evenodd" clip-rule="evenodd" fill="#BCA688" d="M343.026,119.956c-0.016-1.765,0.541-3.434,0.896-5.135
			c0.12-0.577,0.414-1.111,1.154-1.11C344.571,115.852,343.848,117.92,343.026,119.956z" />
			<path fill-rule="evenodd" clip-rule="evenodd" fill="#BCA688" d="M334.014,229.463c0.393-1.432,0.771-2.863,1.186-4.288
			c0.182-0.623,0.401-1.267,1.251-1.25C335.818,225.85,335.216,227.787,334.014,229.463z" />
			<path fill-rule="evenodd" clip-rule="evenodd" fill="#BCA688" d="M337.181,221.979c-0.029-1.306,0.571-2.481,0.774-3.739
			c0.096-0.592,0.556-0.626,1.017-0.651C338.577,219.135,338.254,220.71,337.181,221.979z" />
			<path fill-rule="evenodd" clip-rule="evenodd" fill="#BCA688" d="M154.727,302.885c1.712-0.006,2.886,1.164,3.063,3.048
			C156.769,304.918,155.749,303.9,154.727,302.885z" />
			<path fill-rule="evenodd" clip-rule="evenodd" fill="#BCA688" d="M173.755,184.462c-0.354,1.795-1.404,2.849-3.253,3.052
			C171.412,186.313,172.615,185.421,173.755,184.462z" />
			<path fill-rule="evenodd" clip-rule="evenodd" fill="#BCA688" d="M158.279,306.447c1.675-0.227,2.523,0.612,2.66,2.629
			C160.053,308.199,159.165,307.323,158.279,306.447z" />
			<path fill-rule="evenodd" clip-rule="evenodd" fill="#BCA688" d="M148.826,297.018c1.909,0.005,2.565,1.28,2.912,2.871
			C150.767,298.931,149.797,297.975,148.826,297.018z" />
			<path fill-rule="evenodd" clip-rule="evenodd" fill="#BCA688" d="M181.17,329.07c1.551,0.067,2.46,0.772,2.418,2.428
			C182.709,330.762,181.812,330.045,181.17,329.07z" />
			<path fill-rule="evenodd" clip-rule="evenodd" fill="#BCA688" d="M132.729,205.001c1.723,0.566,1.672,1.823,1.258,3.224
			C133.342,207.238,133.017,206.126,132.729,205.001z" />
			<path fill-rule="evenodd" clip-rule="evenodd" fill="#BCA688" d="M133.959,208.207c1.761,0.627,1.093,2.176,1.288,3.396
			C134.625,210.544,134.222,209.402,133.959,208.207z" />
			<path fill-rule="evenodd" clip-rule="evenodd" fill="#BCA688" d="M188.804,169.565c0.727-0.298,1.456-0.181,1.414,0.666
			c-0.038,0.807-0.614,1.446-1.64,1.044C188.873,170.734,190.047,170.31,188.804,169.565z" />
			<path fill-rule="evenodd" clip-rule="evenodd" fill="#BCA688" d="M161.028,309.17c1.471-0.215,2.167,0.321,1.819,1.872
			C162.241,310.418,161.634,309.794,161.028,309.17z" />
			<path fill-rule="evenodd" clip-rule="evenodd" fill="#BCA688" d="M170.492,187.519c-0.055,1.28-0.484,2.143-2,1.794
			C169.076,188.623,169.688,187.963,170.492,187.519z" />
			<path fill-rule="evenodd" clip-rule="evenodd" fill="#BCA688" d="M340.291,184.92c-0.541-0.672-0.686-1.33,0.074-1.954
			C340.34,183.618,340.315,184.269,340.291,184.92z" />
			<path fill-rule="evenodd" clip-rule="evenodd" fill="#BCA688" d="M185.079,332.958c1.212-0.141,1.837,0.316,1.64,1.611
			C186.04,334.166,185.507,333.615,185.079,332.958z" />
			<path fill-rule="evenodd" clip-rule="evenodd" fill="#BCA688" d="M147.246,295.408c1.354-0.353,1.529,0.463,1.478,1.496
			C148.23,296.406,147.738,295.908,147.246,295.408z" />
			<path fill-rule="evenodd" clip-rule="evenodd" fill="#BCA688" d="M145.422,293.577c0.739,0.167,1.721,0.087,1.356,1.357
			C146.213,294.595,145.715,294.188,145.422,293.577z" />
			<path fill-rule="evenodd" clip-rule="evenodd" fill="#BCA688" d="M153.305,301.443c0.857,0.035,1.778,0.011,1.328,1.343
			C154.189,302.338,153.747,301.889,153.305,301.443z" />
			<path fill-rule="evenodd" clip-rule="evenodd" fill="#BCA688" d="M188.535,336.428c1.397-0.567,1.371,0.353,1.343,1.282
			C189.431,337.282,188.983,336.855,188.535,336.428z" />
			<path fill-rule="evenodd" clip-rule="evenodd" fill="#BCA688" d="M177.303,181.318c-0.003,0.841-0.386,1.261-1.263,1.133
			C176.352,181.95,176.76,181.557,177.303,181.318z" />
			<path fill-rule="evenodd" clip-rule="evenodd" fill="#BCA688" d="M174.994,183.364c0.05,0.9-0.377,1.262-1.257,1.117
			C174.063,184.002,174.454,183.6,174.994,183.364z" />
			<path fill-rule="evenodd" clip-rule="evenodd" fill="#BCA688" d="M345.451,112.522c-0.673-0.648-0.496-1.024,0.379-1.174
			C345.809,111.772,345.829,112.211,345.451,112.522z" />
			<path fill-rule="evenodd" clip-rule="evenodd" fill="#BCA688" d="M167.323,315.548c1-0.555,0.895,0.244,0.985,0.802
			C167.979,316.083,167.651,315.815,167.323,315.548z" />
			<path fill-rule="evenodd" clip-rule="evenodd" fill="#BCA688" d="M187.488,335.346c0.653-0.026,1.434-0.177,0.919,0.941
			C188.1,335.974,187.795,335.66,187.488,335.346z" />
			<path fill-rule="evenodd" clip-rule="evenodd" fill="#BCA688" d="M176.057,182.433c0.143,0.875-0.449,0.908-1.056,0.926
			C175.353,183.05,175.704,182.742,176.057,182.433z" />
			<path fill-rule="evenodd" clip-rule="evenodd" fill="#BCA688" d="M333.189,231.706c0.082-0.573-0.21-1.319,0.694-1.519
			C333.651,230.693,333.421,231.2,333.189,231.706z" />
			<path fill-rule="evenodd" clip-rule="evenodd" fill="#BCA688" d="M144.623,292.79c0.538-0.001,0.82,0.258,0.815,0.805
			C145.027,293.469,144.804,293.152,144.623,292.79z" />
			<path fill-rule="evenodd" clip-rule="evenodd" fill="#BCA688" d="M313.54,257.736c-0.582-0.611-0.109-0.702,0.386-0.782
			C313.799,257.215,313.669,257.476,313.54,257.736z" />
			<path fill-rule="evenodd" clip-rule="evenodd" fill="#BCA688" d="M345.82,111.363c0.023-0.565-0.216-1.203,0.451-1.585
			C346.221,110.334,346.305,110.93,345.82,111.363z" />
			<path fill-rule="evenodd" clip-rule="evenodd" fill="#BCA688" d="M340.249,187.67c-0.487-0.527-0.501-1.046,0.025-1.558
			C340.266,186.631,340.257,187.151,340.249,187.67z" />
			<path fill-rule="evenodd" clip-rule="evenodd" fill="#BCA688" d="M189.86,337.689c0.583-0.037,0.853,0.233,0.795,0.82
			C190.281,338.34,189.979,338.104,189.86,337.689z" />
			<path fill-rule="evenodd" clip-rule="evenodd" fill="#BCA688" d="M321.469,243.146c0.506,0.093,0.71,0.409,0.676,0.904
			C321.748,243.878,321.573,243.539,321.469,243.146z" />
			<path fill-rule="evenodd" clip-rule="evenodd" fill="#BCA688" d="M322.359,244.361c0.45,0.08,0.591,0.392,0.592,0.805
			C322.553,245.045,322.502,244.668,322.359,244.361z" />
			<path fill-rule="evenodd" clip-rule="evenodd" fill="#BCA688" d="M186.703,334.55c0.589-0.048,0.857,0.222,0.802,0.812
			C187.134,335.192,186.833,334.956,186.703,334.55z" />
			<path fill-rule="evenodd" clip-rule="evenodd" fill="#BCA688" d="M312.361,260.13c0.014-0.458-0.105-0.988,0.563-1.116
			C312.831,259.433,312.736,259.854,312.361,260.13z" />
			<path fill-rule="evenodd" clip-rule="evenodd" fill="#BCA688" d="M177.911,180.759c0.095,0.521-0.246,0.571-0.626,0.577
			C177.493,181.144,177.702,180.95,177.911,180.759z" />
			<path fill-rule="evenodd" clip-rule="evenodd" fill="#BCA688" d="M336.973,222.816c-0.209-0.368-0.158-0.668,0.236-0.877
			C337.13,222.232,337.051,222.525,336.973,222.816z" />
			<path fill-rule="evenodd" clip-rule="evenodd" fill="#BCA688" d="M313.923,256.956c0.011-0.328,0.094-0.617,0.406-0.792
			C314.193,256.429,314.06,256.694,313.923,256.956z" />
			<path fill-rule="evenodd" clip-rule="evenodd" fill="#BCA688" d="M174.639,322.653c0.338,0.055,0.619,0.174,0.625,0.584
			C175.055,323.044,174.846,322.849,174.639,322.653z" />
			<path fill-rule="evenodd" clip-rule="evenodd" fill="#BCA688" d="M346.244,109.815c-0.034-0.347,0.035-0.649,0.371-0.832
			C346.624,109.32,346.593,109.639,346.244,109.815z" />
			<path fill-rule="evenodd" clip-rule="evenodd" fill="#BCA688" d="M336.823,223.104c-0.056-0.073-0.109-0.149-0.164-0.224
			c0.095,0.026,0.188,0.052,0.284,0.081C336.952,223.05,336.912,223.098,336.823,223.104z" />
			<path fill-rule="evenodd" clip-rule="evenodd" fill="#BCA688" d="M152.87,301.047c0.153,0.138,0.306,0.273,0.458,0.411
			C153.176,301.321,153.023,301.185,152.87,301.047z" />
			<path fill-rule="evenodd" clip-rule="evenodd" fill="#BCA688" d="M157.873,305.996c0.297-0.074,0.419,0.019,0.317,0.33
			C158.083,306.218,157.979,306.106,157.873,305.996z" />
			<path fill-rule="evenodd" clip-rule="evenodd" fill="#BCA688" d="M188.519,171.349c0.078,0.301-0.027,0.423-0.34,0.346
			C188.291,171.579,188.406,171.463,188.519,171.349z" />
			<path fill-rule="evenodd" clip-rule="evenodd" fill="#BCA688" d="M151.72,299.863c0.14,0.149,0.28,0.299,0.421,0.449
			C152,300.162,151.86,300.013,151.72,299.863z" />
			<path fill-rule="evenodd" clip-rule="evenodd" fill="#BCA688" d="M146.848,294.965c0.302-0.066,0.424,0.045,0.343,0.354
			C147.077,295.201,146.961,295.083,146.848,294.965z" />
			<path fill-rule="evenodd" clip-rule="evenodd" fill="#BCA688" d="M312.867,259.058c0.099-0.173,0.197-0.352,0.295-0.527
			C313.064,258.706,312.966,258.885,312.867,259.058z" />
			<path fill-rule="evenodd" clip-rule="evenodd" fill="#BCA688" d="M190.629,338.463c0.189,0.172,0.377,0.344,0.567,0.518
			C191.008,338.808,190.818,338.635,190.629,338.463z" />
			<path fill-rule="evenodd" clip-rule="evenodd" fill="#211E1E" d="M171.898,191.354c4.546-4.048,9.083-8.106,13.641-12.142
			c3.569-3.159,7.164-6.29,10.822-9.5c-10.55-6.679-20.982-13.286-31.691-20.067c2.757-1.137,5.257-2.18,7.767-3.2
			c11.248-4.575,22.094-9.885,32.032-16.96c5.212-3.712,9.081-8.643,13.061-13.51c13.807-16.889,27.636-33.76,41.431-50.657
			c2.259-2.767,5.096-4.441,8.595-5.054c5.475-0.959,10.945-1.938,16.422-2.883c1.262-0.218,2.249-0.681,3.075-1.784
			c6.033-8.076,12.137-16.1,18.22-24.14c1.275-1.294,2.325-2.761,3.276-4.305c0.092-0.128,0.185-0.257,0.276-0.386
			c1.732-1.991,3.373-4.051,4.789-6.281l-0.017,0.009c0.172-0.241,0.347-0.48,0.521-0.721l-0.088,0.044c0,0,0.095-0.028,0.094-0.028
			c0.225-0.294,0.449-0.589,0.675-0.883l-0.021,0.017c1.72-2.003,3.538-3.936,4.699-6.353l-0.018,0.02
			c0.201-0.187,0.401-0.373,0.603-0.559c0,0,0.013-0.146,0.011-0.146c0.076-0.162,0.152-0.323,0.229-0.483l-0.046,0.044
			c0.161-0.129,0.321-0.258,0.481-0.386c0,0,0,0.026,0,0.026c0.309-0.13,0.462-0.375,0.507-0.698
			c-0.03-0.038-0.063-0.077-0.094-0.115c0.027,0.041,0.053,0.083,0.08,0.124c0.187-0.204,0.372-0.407,0.561-0.609l0,0
			c0.796-0.813,1.529-1.675,2.043-2.701c0,0-0.021,0.015-0.021,0.014c0.183-0.218,0.365-0.436,0.547-0.653
			c0,0,0.044-0.045,0.043-0.046c0.905-1.563,2.016-1.713,3.38-0.541c0.278,0.239,0.698,0.314,1.052,0.464
			c5.297,3.042,10.325,6.417,14.301,11.16c3.616,4.314,6.47,9.024,7.869,14.537c0.465,1.828,1.822,3.162,2.792,4.703
			c2.018,3.206,4.305,6.24,5.463,9.936c1.173,3.737,1.319,7.408,0.08,11.163c-6.678,20.234-13.301,40.487-19.994,60.717
			c-0.879,2.657-1.212,5.335-1.128,8.097c-0.327,10.377-0.653,20.756-0.981,31.133c-0.012,0.655-0.025,1.31-0.039,1.965
			c-0.001,0.393-0.003,0.784-0.007,1.176c-0.01,0.923-0.021,1.847-0.03,2.77c-0.023,2.231-0.651,4.433-0.331,6.682
			c-0.002,0.523-0.005,1.046-0.008,1.57c-0.271,8.28-0.393,16.569-0.854,24.84c-0.446,8.008,0.83,16.199-2.273,23.96
			c-2.879,6.649-5.756,13.298-8.778,20.277c-1.52-2.066-2.916-3.967-4.49-6.107c-2.117,4.283-4.155,8.392-6.179,12.51
			c-12.123,24.662-24.24,49.326-36.355,73.992c-0.461,0.937-0.865,1.9-1.296,2.853c-0.563,0.843-1.039,1.728-1.276,2.725
			l0.006-0.012c-1.297,2.097-2.351,4.313-3.263,6.599c0,0,0.024,0.021,0.024,0.021c-0.58,0.577-0.908,1.282-1.071,2.073
			l-0.078,0.066c0,0,0.022,0.099,0.022,0.101c-0.648,0.798-1.553,0.543-2.373,0.545c-23.548,0.007-47.096-0.018-70.644,0.045
			c-2.183,0.006-4.123-0.139-5.564-1.973c-6.281-6.225-12.547-12.464-18.844-18.675c-9.662-9.526-19.439-18.941-28.964-28.606
			c-2.879-2.921-4.557-6.85-6.737-10.344c-7.873-12.613-15.747-25.225-23.523-37.897c-1.859-3.036-4.805-4.779-7.399-6.931
			c-1.495-1.241-1.112-1.537,0.351-2.214c10.574-4.895,21.103-9.887,31.688-14.754c1.28-0.588,1.464-1.13,0.946-2.302
			c-0.791-1.785-1.484-3.615-2.22-5.427c-0.078-0.25-0.156-0.499-0.234-0.748c0.047-0.12,0.056-0.241,0.029-0.365
			c0.355-0.355,0.829-0.304,1.271-0.383c3.68-0.671,7.42-1.014,11.042-2.012c0.139-0.014,0.275-0.029,0.414-0.043
			c1.506-0.18,2.99-0.452,4.402-1.036l-0.028,0.045c0.527-0.128,1.126,0.05,1.577-0.385c0.241-0.051,0.483-0.104,0.725-0.157
			c0.762-0.013,1.487-0.131,2.029-0.743c0.418,0.014,0.866,0.165,1.194-0.25c1.397-0.171,2.354-1.001,3.144-2.087l-0.03,0.021
			c0.169-0.103,0.339-0.207,0.509-0.313c0,0,0.002,0.017,0.001,0.016c0.14-0.125,0.279-0.252,0.419-0.379
			c0,0,0.062,0.012,0.061,0.012c0.249-0.238,0.497-0.474,0.748-0.708c0,0,0.041-0.071,0.04-0.074
			c0.114-0.109,0.229-0.218,0.347-0.326c0,0,0.121-0.058,0.12-0.059c0.233-0.223,0.465-0.444,0.699-0.666
			c0,0,0.057-0.078,0.055-0.08c0.202-0.186,0.406-0.371,0.609-0.556l-0.016,0.023c0.406-0.122,0.68-0.387,0.837-0.777l-0.093-0.062
			l0.082,0.077c0.822-0.482,1.532-1.087,2.037-1.91c-0.093-0.2-0.056-0.131,0.01-0.007c0.125-0.136,0.25-0.271,0.376-0.407
			c0,0-0.017,0.037-0.019,0.036c0.322-0.067,0.565-0.232,0.68-0.555l-0.011,0.012C171.236,192.237,171.613,191.844,171.898,191.354z
			 M216.7,330.111c0.13,0.025,0.256,0.076,0.386,0.076c16.197,0.007,32.395,0.001,48.59,0.044c1.076,0.004,1.413-0.534,1.811-1.346
			c16.352-33.321,32.722-66.631,49.088-99.941c0.933-1.894,1.869-3.782,2.894-5.855c1.467,2.008,2.732,3.741,4.114,5.632
			c1.409-3.306,2.643-6.453,4.085-9.504c1.461-3.087,2.11-6.277,1.991-9.676c-0.07-2.03,0.002-4.065,0.064-6.096
			c0.494-16.51,1.014-33.019,1.503-49.529c0.29-9.828,0.493-19.659,0.845-29.484c0.087-2.396,0.503-4.786,1.267-7.1
			c6.678-20.239,13.297-40.496,20.024-60.716c1.342-4.037,0.639-7.669-1.236-11.281c-0.615-1.184-1.011-1.102-1.664-0.026
			c-1.524,2.513-3.128,4.979-4.705,7.46c-3.459,5.438-6.922,10.875-10.527,16.542c0-0.561-0.059-0.833,0.007-1.072
			c3.063-11.146,6.127-22.292,9.222-33.429c0.401-1.443,0.345-2.769-0.217-4.168c-1.763-4.392-4.528-8.079-7.77-11.464
			c-0.662-0.692-1.17-0.74-1.996-0.216c-2.905,1.838-6.205,2.977-9.514,2.176c-3.875-0.937-5.381,1.212-6.842,3.934
			c-1.532,1.951-3.088,3.884-4.594,5.854c-7.629,9.986-15.253,19.979-22.861,29.98c-0.875,1.152-1.92,1.823-3.394,2.066
			c-5.154,0.851-10.294,1.794-15.431,2.751c-3.118,0.581-6.185,0.95-8.481,3.797c-12.629,15.642-25.371,31.192-38.141,46.718
			c-3.945,4.798-7.513,9.942-12.177,14.111c-7.735,6.915-16.76,11.808-25.986,16.359c-2.891,1.425-5.844,2.721-8.96,4.165
			c6.116,3.878,12.09,7.527,17.912,11.402c3.896,2.594,7.763,2.838,12.071,1.188c4.924-1.887,9.836-3.837,14.908-5.322
			c0.07,0.094,0.144,0.186,0.22,0.277c-5.857,3.956-11.934,7.627-17.529,11.925c-13.528,10.393-25.831,22.213-38.314,33.811
			c-1.428,1.326-2.978,2.281-4.814,2.895c-3.854,1.288-7.832,2.033-11.778,2.937c-1.629,0.372-4.122-0.028-4.664,1.225
			c-0.494,1.145,0.786,3.153,1.492,4.685c0.577,1.254,0.259,1.754-0.929,2.302c-9.368,4.328-18.692,8.752-28.069,13.063
			c-1.373,0.631-1.711,0.975-0.792,2.425c9.442,14.854,18.782,29.767,28.186,44.646c1.045,1.653,1.884,3.477,3.313,4.854
			c15.939,15.39,31.896,30.759,47.839,46.144c0.534,0.514,1.033,0.87,1.851,0.862C204.898,330.132,210.8,330.131,216.7,330.111z
			 M330.305,12.92c-0.338-0.725-1.068-0.941-1.696-1.222c-0.939-0.42-0.984,0.616-1.314,1.03c-0.484,0.611-1.657,1.266-1.065,2.027
			c0.525,0.673,1.572-0.132,2.332-0.415C329.258,14.081,330.082,13.848,330.305,12.92z" />
			<path fill-rule="evenodd" clip-rule="evenodd" fill="#BCA688" d="M192.376,334.449c1.441,1.834,3.382,1.979,5.564,1.973
			c23.548-0.063,47.096-0.038,70.644-0.045c0.82-0.002,1.725,0.253,2.373-0.545c0.165,1.59-1.006,1.188-1.839,1.189
			c-11.633,0.023-23.263,0.039-34.895,0.037c-11.695-0.001-23.392-0.051-35.088-0.007c-1.494,0.005-2.958-0.333-4.48-0.105
			C193.4,337.135,192.246,335.703,192.376,334.449z" />
			<path fill-rule="evenodd" clip-rule="evenodd" fill="#BCA688" d="M333.691,220.734c3.104-7.761,1.827-15.952,2.273-23.96
			c0.462-8.271,0.584-16.56,0.854-24.84c1.023,0.293,0.823,1.204,0.672,1.797c-0.732,2.896-0.212,5.831-0.265,8.731
			c-0.072,3.861-0.596,7.694-0.498,11.562c0.161,6.481-0.562,12.944-0.437,19.434c0.045,2.325-0.869,4.596-1.604,6.824
			C334.537,220.739,334.085,220.715,333.691,220.734z" />
			<path fill-rule="evenodd" clip-rule="evenodd" fill="#BCA688"
				d="M337.234,157.771c0.328-10.377,0.654-20.756,0.981-31.133
			c0.445,0.29,0.515,0.74,0.485,1.209c-0.509,8.593-0.256,17.199-0.497,25.793C338.169,154.936,338.645,156.668,337.234,157.771z" />
			<path fill-rule="evenodd" clip-rule="evenodd" fill="#BCA688" d="M137.44,206.552c0.078,0.25,0.156,0.499,0.234,0.748
			c-0.914-0.392-2.636,0.186-2.587-1.31c0.056-1.66,1.628-0.566,2.5-0.8c3.351-0.894,6.88-0.845,10.208-1.922
			c0.595-0.192,1.408,0.028,1.985,0.523c-3.622,0.998-7.362,1.341-11.042,2.012c-0.442,0.079-0.916,0.028-1.271,0.383
			c-0.035,0.035-0.099,0.073-0.095,0.106C137.379,206.38,137.416,206.465,137.44,206.552z" />
			<path fill-rule="evenodd" clip-rule="evenodd" fill="#BCA688" d="M313.613,20.486c-1.416,2.23-3.057,4.29-4.789,6.281
			C309.433,23.919,310.818,21.665,313.613,20.486z" />
			<path fill-rule="evenodd" clip-rule="evenodd" fill="#BCA688" d="M319.477,12.571c-1.161,2.417-2.979,4.35-4.699,6.353
			C315.241,15.991,317.207,14.169,319.477,12.571z" />
			<path fill-rule="evenodd" clip-rule="evenodd" fill="#BCA688" d="M272.06,333.57c0.912-2.286,1.966-4.502,3.263-6.599
			c0.407,2.457-1.69,4.091-2.083,6.299C273.145,333.802,272.508,333.656,272.06,333.57z" />
			<path fill-rule="evenodd" clip-rule="evenodd" fill="#BCA688" d="M328.833,6.325c-0.354-0.15-0.773-0.225-1.052-0.464
			c-1.364-1.172-2.475-1.022-3.38,0.541c-0.252-1.126,0.127-2.022,1.305-2.063c1.281-0.044,2.76-0.234,3.555,1.221
			C329.337,5.697,328.985,6.065,328.833,6.325z" />
			<path fill-rule="evenodd" clip-rule="evenodd" fill="#BCA688" d="M308.548,27.152c-0.951,1.544-2.001,3.011-3.276,4.305
			C305.294,29.375,306.479,27.82,308.548,27.152z" />
			<path fill-rule="evenodd" clip-rule="evenodd" fill="#BCA688" d="M163.238,199.137c-0.789,1.085-1.746,1.916-3.144,2.087
			C159.863,198.596,161.712,199.112,163.238,199.137z" />
			<path fill-rule="evenodd" clip-rule="evenodd" fill="#BCA688" d="M336.827,170.364c-0.32-2.249,0.308-4.451,0.331-6.682
			C337.58,165.936,338.16,168.197,336.827,170.364z" />
			<path fill-rule="evenodd" clip-rule="evenodd" fill="#BCA688" d="M154.598,202.712c-1.412,0.583-2.896,0.855-4.402,1.036
			c0.203-1.305,1.219-1.096,2.094-1.103C153.058,202.636,153.826,202.687,154.598,202.712z" />
			<path fill-rule="evenodd" clip-rule="evenodd" fill="#BCA688" d="M323.833,7.087c-0.514,1.026-1.247,1.888-2.043,2.701
			C321.726,8.324,322.248,7.304,323.833,7.087z" />
			<path fill-rule="evenodd" clip-rule="evenodd" fill="#BCA688" d="M275.316,326.983c0.237-0.997,0.714-1.882,1.276-2.725
			C277.087,325.596,276.503,326.431,275.316,326.983z" />
			<path fill-rule="evenodd" clip-rule="evenodd" fill="#BCA688" d="M169.663,193.376c-0.505,0.823-1.215,1.428-2.037,1.91
			C167.499,193.792,168.433,193.426,169.663,193.376z" />
			<path fill-rule="evenodd" clip-rule="evenodd" fill="#BCA688" d="M271.013,335.665c0.163-0.791,0.491-1.496,1.071-2.073
			C272.145,334.499,272.656,335.641,271.013,335.665z" />
			<path fill-rule="evenodd" clip-rule="evenodd" fill="#BCA688" d="M171.898,191.354c-0.285,0.49-0.662,0.883-1.199,1.101
			C170.775,191.736,170.429,190.554,171.898,191.354z" />
			<path fill-rule="evenodd" clip-rule="evenodd" fill="#BCA688" d="M158.9,201.474c-0.542,0.611-1.268,0.73-2.029,0.743
			C157.2,201.02,158.178,201.595,158.9,201.474z" />
			<path fill-rule="evenodd" clip-rule="evenodd" fill="#BCA688" d="M337.188,160.913c0.004-0.392,0.006-0.784,0.007-1.176
			c0.378,0.074,0.708,0.203,0.646,0.68C337.793,160.787,337.489,160.854,337.188,160.913z" />
			<path fill-rule="evenodd" clip-rule="evenodd" fill="#BCA688" d="M156.146,202.373c-0.451,0.435-1.05,0.257-1.577,0.385
			C154.986,202.181,155.387,201.543,156.146,202.373z" />
			<path fill-rule="evenodd" clip-rule="evenodd" fill="#BCA688" d="M166.151,196.661c-0.234,0.222-0.466,0.442-0.699,0.666
			c-0.023-0.215-0.146-0.487-0.057-0.636C165.584,196.367,165.888,196.505,166.151,196.661z" />
			<path fill-rule="evenodd" clip-rule="evenodd" fill="#BCA688" d="M164.945,197.785c-0.251,0.235-0.499,0.471-0.748,0.708
			C163.978,197.762,164.207,197.506,164.945,197.785z" />
			<path fill-rule="evenodd" clip-rule="evenodd" fill="#BCA688" d="M167.637,195.271c-0.157,0.39-0.431,0.656-0.837,0.777
			C166.75,195.435,167.021,195.167,167.637,195.271z" />
			<path fill-rule="evenodd" clip-rule="evenodd" fill="#BCA688" d="M314.799,18.907c-0.226,0.294-0.45,0.588-0.675,0.883
			C313.888,19.145,314.166,18.891,314.799,18.907z" />
			<path fill-rule="evenodd" clip-rule="evenodd" fill="#BCA688"
				d="M146.306,203.243c-0.109,0.041-0.21,0.105-0.315,0.109
			c-0.037,0.003-0.082-0.137-0.124-0.212c0.054-0.02,0.12-0.072,0.16-0.058C146.125,203.117,146.209,203.183,146.306,203.243z" />
			<path fill-rule="evenodd" clip-rule="evenodd" fill="#BCA688" d="M166.815,196.025c-0.203,0.185-0.407,0.37-0.609,0.556
			C166.056,196.011,166.428,196.009,166.815,196.025z" />
			<path fill-rule="evenodd" clip-rule="evenodd" fill="#BCA688" d="M170.71,192.443c-0.114,0.323-0.357,0.487-0.68,0.555
			C170.007,192.507,170.333,192.444,170.71,192.443z" />
			<path fill-rule="evenodd" clip-rule="evenodd" fill="#BCA688" d="M320.062,12.032c-0.201,0.186-0.401,0.372-0.603,0.559
			C319.487,12.22,319.525,11.857,320.062,12.032z" />
			<path fill-rule="evenodd" clip-rule="evenodd" fill="#BCA688" d="M321.243,10.389c-0.045,0.323-0.198,0.567-0.507,0.698
			C320.66,10.677,320.675,10.332,321.243,10.389z" />
			<path fill-rule="evenodd" clip-rule="evenodd" fill="#BCA688" d="M321.79,9.789c-0.188,0.203-0.374,0.405-0.561,0.609
			C321.104,9.907,321.434,9.836,321.79,9.789z" />
			<path fill-rule="evenodd" clip-rule="evenodd" fill="#BCA688" d="M324.358,6.448c-0.182,0.217-0.364,0.436-0.547,0.653
			C323.807,6.726,323.833,6.378,324.358,6.448z" />
			<path fill-rule="evenodd" clip-rule="evenodd" fill="#BCA688" d="M314.118,19.774c-0.175,0.241-0.35,0.48-0.521,0.721
			C313.563,20.104,313.613,19.776,314.118,19.774z" />
			<path fill-rule="evenodd" clip-rule="evenodd" fill="#BCA688" d="M165.332,197.385c-0.117,0.108-0.232,0.217-0.347,0.326
			C164.916,197.409,165.016,197.283,165.332,197.385z" />
			<path fill-rule="evenodd" clip-rule="evenodd" fill="#BCA688" d="M164.137,198.482c-0.14,0.127-0.279,0.253-0.419,0.379
			C163.719,198.581,163.851,198.446,164.137,198.482z" />
			<path fill-rule="evenodd" clip-rule="evenodd" fill="#BCA688" d="M320.736,11.061c-0.16,0.128-0.32,0.256-0.481,0.386
			C320.416,11.317,320.576,11.188,320.736,11.061z" />
			<path fill-rule="evenodd" clip-rule="evenodd" fill="#BCA688" d="M170.049,192.962c-0.126,0.136-0.251,0.271-0.376,0.407
			C169.624,193.074,169.754,192.943,170.049,192.962z" />
			<path fill-rule="evenodd" clip-rule="evenodd" fill="#BCA688" d="M163.717,198.845c-0.17,0.106-0.34,0.21-0.509,0.313
			C163.377,199.055,163.547,198.951,163.717,198.845z" />
			<path fill-rule="evenodd" clip-rule="evenodd" fill="#BCA688" d="M320.301,11.402c-0.076,0.16-0.152,0.321-0.229,0.483
			C319.956,11.634,320.074,11.493,320.301,11.402z" />
			<path fill-rule="evenodd" clip-rule="evenodd" fill="#FEFEFE"
				d="M222.986,158.143c-5.072,1.485-9.984,3.435-14.908,5.322
			c-4.309,1.65-8.176,1.406-12.071-1.188c-5.822-3.875-11.796-7.524-17.912-11.402c3.116-1.444,6.069-2.74,8.96-4.165
			c9.227-4.552,18.251-9.445,25.986-16.359c4.664-4.169,8.231-9.313,12.177-14.111c12.77-15.526,25.512-31.076,38.141-46.718
			c2.297-2.848,5.363-3.217,8.481-3.797c5.137-0.957,10.276-1.9,15.431-2.751c1.474-0.244,2.519-0.915,3.394-2.066
			c7.608-10.001,15.232-19.994,22.861-29.98c1.506-1.97,3.062-3.903,4.594-5.854c0.457,0.28,0.621,0.727,0.443,1.187
			c-0.647,1.689-0.931,3.507-1.497,5.171c-1.025,3.009-2.174,5.981-3.103,9.033c-1.947,6.391-3.92,12.775-5.973,19.133
			c-2.119,6.561-4.496,13.04-6.49,19.637c-2.843,9.397-2.854,19.045-1.675,28.681c1.005,8.219,1.419,16.484,2.274,24.712
			c0.471,4.536,0.764,9.092,1.27,13.625c0.644,5.765,1.068,11.544,1.51,17.326c0.259,3.376,0.745,6.733,1.004,10.108
			c0.21,2.749,0.913,5.629-1.463,7.931c-2.773,2.687-5.199,5.692-7.776,8.56c-4.304,4.79-8.669,9.525-12.979,14.31
			c-3.362,3.734-6.697,7.494-10.014,11.271c-2.156,2.459-4.131,4.891-3.486,8.637c0.58,3.356-0.165,6.789-0.426,10.162
			c-0.215,2.774-0.504,5.578-0.961,8.336c-0.468,2.814-1.305,5.574-1.659,8.398c-0.416,3.323-1.199,6.577-2.213,9.703
			c-2.2,6.805-4.197,13.683-7.227,20.217c-2.878,6.206-5.817,12.388-9.684,18.008c-3.011,4.373-6.212,8.63-9.849,12.584
			c-5.521,6.002-11.541,11.319-18.308,15.843c-1.093,0.73-2.44,1.206-3.139,2.466c-5.9,0.02-11.802,0.021-17.703,0.08
			c-0.817,0.008-1.316-0.349-1.851-0.862c-15.943-15.385-31.9-30.754-47.839-46.144c-1.428-1.378-2.267-3.201-3.313-4.854
			c-9.404-14.879-18.744-29.792-28.186-44.646c-0.92-1.45-0.581-1.794,0.792-2.425c9.377-4.311,18.701-8.734,28.069-13.063
			c1.188-0.548,1.505-1.048,0.929-2.302c-0.706-1.531-1.986-3.54-1.492-4.685c0.542-1.253,3.035-0.853,4.664-1.225
			c3.946-0.904,7.924-1.649,11.778-2.937c1.837-0.614,3.387-1.568,4.814-2.895c12.483-11.598,24.786-23.418,38.314-33.811
			c5.596-4.298,11.672-7.969,17.529-11.925c0.167-0.16,0.337-0.318,0.505-0.477C223.375,157.667,223.161,157.837,222.986,158.143z
			 M286.313,65.586c-0.54,0.562-1.109,1.099-1.618,1.688c-7.821,9.07-15.609,18.169-23.456,27.218
			c-3.987,4.597-4.029,4.558-3.089,10.618c0.12,0.774,0.169,1.56,0.294,2.333c0.063,0.381-0.25,0.963,0.508,1.071
			c0.486-0.702,0.196-1.51,0.313-2.254c0.221-1.406-0.098-3.29,0.698-4.136c2.109-2.241,4.693-4.033,7.469-6.317
			c0,3.577,0,6.655,0,10.122c4.507-4.112,8.692-7.935,12.88-11.757c0.415-0.378,0.471-0.884,0.581-1.408
			c1.801-8.548,3.641-17.088,5.417-25.642c0.099-0.476,0.596-1.083-0.02-1.585c0.07,0.055,0.141,0.111,0.213,0.166
			c0.031-0.077,0.064-0.154,0.097-0.231C286.505,65.509,286.408,65.547,286.313,65.586z M191.491,155.93
			c0.157-0.726,0.042-1.226-0.182-1.695c-0.795-1.659-0.387-2.774,1.19-3.851c2.861-1.957,5.576-4.132,8.299-6.286
			c1.248-0.988,2.685-1.773,3.575-3.231c-6.594,3.647-13.199,7.247-20.33,10.342C186.635,152.853,189.021,154.365,191.491,155.93z" />
			<path fill-rule="evenodd" clip-rule="evenodd" fill="#ECEBED" d="M216.7,330.111c0.698-1.26,2.046-1.735,3.139-2.466
			c6.767-4.523,12.786-9.841,18.308-15.843c3.637-3.954,6.838-8.211,9.849-12.584c3.866-5.62,6.806-11.802,9.684-18.008
			c3.029-6.534,5.026-13.412,7.227-20.217c1.014-3.126,1.797-6.38,2.213-9.703c0.354-2.824,1.191-5.584,1.659-8.398
			c0.457-2.758,0.746-5.562,0.961-8.336c0.261-3.373,1.006-6.806,0.426-10.162c-0.645-3.746,1.33-6.178,3.486-8.637
			c3.316-3.777,6.651-7.537,10.014-11.271c4.311-4.785,8.676-9.52,12.979-14.31c2.577-2.868,5.003-5.873,7.776-8.56
			c2.376-2.302,1.673-5.183,1.463-7.931c-0.259-3.375-0.745-6.732-1.004-10.108c-0.441-5.781-0.866-11.561-1.51-17.326
			c-0.506-4.532-0.799-9.088-1.27-13.625c-0.855-8.229-1.27-16.493-2.274-24.712c-1.18-9.636-1.168-19.284,1.675-28.681
			c1.994-6.597,4.371-13.076,6.49-19.637c2.053-6.357,4.025-12.742,5.973-19.133c0.929-3.052,2.077-6.024,3.103-9.033
			c0.566-1.664,0.85-3.482,1.497-5.171c0.178-0.46,0.014-0.907-0.443-1.187c1.461-2.722,2.967-4.871,6.842-3.934
			c3.309,0.801,6.608-0.338,9.514-2.176c0.826-0.524,1.334-0.477,1.996,0.216c3.241,3.385,6.007,7.072,7.77,11.464
			c0.562,1.399,0.618,2.725,0.217,4.168c-3.095,11.136-6.158,22.283-9.222,33.429c-0.065,0.239-0.007,0.512-0.007,1.072
			c3.605-5.667,7.068-11.103,10.527-16.542c1.577-2.481,3.181-4.947,4.705-7.46c0.653-1.076,1.049-1.158,1.664,0.026
			c1.875,3.612,2.578,7.244,1.236,11.281c-6.728,20.22-13.347,40.477-20.024,60.716c-0.764,2.314-1.18,4.704-1.267,7.1
			c-0.352,9.825-0.555,19.656-0.845,29.484c-0.489,16.51-1.009,33.019-1.503,49.529c-0.063,2.031-0.135,4.066-0.064,6.096
			c0.119,3.398-0.53,6.589-1.991,9.676c-1.442,3.051-2.676,6.198-4.085,9.504c-1.382-1.891-2.647-3.624-4.114-5.632
			c-1.024,2.073-1.961,3.962-2.894,5.855c-16.366,33.311-32.736,66.62-49.088,99.941c-0.397,0.812-0.734,1.35-1.811,1.346
			c-16.195-0.043-32.393-0.037-48.59-0.044C216.956,330.188,216.83,330.137,216.7,330.111z" />
			<path fill-rule="evenodd" clip-rule="evenodd" fill="#ECEBED" d="M330.305,12.92c-0.223,0.928-1.047,1.161-1.744,1.42
			c-0.76,0.283-1.807,1.088-2.332,0.415c-0.592-0.761,0.581-1.416,1.065-2.027c0.33-0.414,0.375-1.45,1.314-1.03
			C329.236,11.979,329.967,12.195,330.305,12.92z" />
			<path fill-rule="evenodd" clip-rule="evenodd" fill="#C2A880" d="M137.44,206.552c-0.024-0.087-0.061-0.171-0.066-0.259
			c-0.003-0.033,0.061-0.071,0.095-0.106C137.496,206.311,137.488,206.432,137.44,206.552z" />
			<path fill-rule="evenodd" clip-rule="evenodd" fill="#211E1E" d="M286.287,65.524c0.618,0.513,0.121,1.121,0.022,1.597
			c-1.776,8.554-3.616,17.094-5.417,25.642c-0.11,0.524-0.166,1.03-0.581,1.408c-4.188,3.822-8.373,7.645-12.88,11.757
			c0-3.466,0-6.545,0-10.122c-2.775,2.284-5.359,4.076-7.469,6.317c-0.796,0.846-0.478,2.73-0.698,4.136
			c-0.116,0.744,0.174,1.552-0.313,2.254c-0.758-0.108-0.445-0.69-0.508-1.071c-0.125-0.773-0.174-1.559-0.294-2.333
			c-0.94-6.06-0.898-6.021,3.089-10.618c7.847-9.049,15.635-18.147,23.456-27.218c0.509-0.589,1.078-1.126,1.618-1.688
			L286.287,65.524z M275.514,89.83c2.854-3.116,5.216-9.311,5.461-14.317c-1.77,2.079-3.421,3.998-5.037,5.947
			c-0.231,0.278-0.399,0.701-0.405,1.059C275.497,84.902,275.514,87.287,275.514,89.83z" />
			<path fill-rule="evenodd" clip-rule="evenodd" fill="#211E1E" d="M191.491,155.93c-2.47-1.564-4.856-3.077-7.447-4.722
			c7.131-3.095,13.736-6.695,20.33-10.342c-0.891,1.458-2.327,2.244-3.575,3.231c-2.723,2.153-5.438,4.329-8.299,6.286
			c-1.577,1.077-1.985,2.192-1.19,3.851C191.533,154.704,191.648,155.204,191.491,155.93z" />
			<path fill-rule="evenodd" clip-rule="evenodd" fill="#211E1E" d="M222.986,158.143c0.175-0.306,0.389-0.476,0.725-0.2
			c-0.168,0.158-0.338,0.317-0.505,0.477C223.13,158.329,223.057,158.237,222.986,158.143z" />
			<path fill-rule="evenodd" clip-rule="evenodd" fill="#211E1E"
				d="M286.313,65.586c0.095-0.039,0.191-0.077,0.286-0.116
			c-0.032,0.077-0.065,0.154-0.097,0.231c-0.072-0.055-0.143-0.111-0.214-0.172C286.287,65.524,286.313,65.586,286.313,65.586z" />
			<path fill-rule="evenodd" clip-rule="evenodd" fill="#C2A880"
				d="M275.514,89.83c0-2.543-0.017-4.927,0.019-7.311
			c0.006-0.358,0.174-0.781,0.405-1.059c1.616-1.949,3.268-3.869,5.037-5.947C280.729,80.519,278.368,86.714,275.514,89.83z" />
		</g>
		<g>
			<g>
				<path d="M427.12,270.633c-0.817-0.354-1.638-0.707-2.456-1.059c-115.098-49.196-246.252-49.049-361.254,0.441
				c-1.205,0.52-2.408,1.043-3.609,1.572c-0.158,1.391-0.316,2.781-0.474,4.167c-2.321,20.314-4.692,40.085-7.127,59.278
				c-0.042,0.322-0.082,0.643-0.123,0.964c0.084,0.286,0.169,0.573,0.254,0.861c3.332,11.335,6.726,23.185,10.167,35.507
				c0.308,1.102,0.617,2.209,0.926,3.32c1.083-0.027,2.165-0.053,3.249-0.077c115.072-2.663,230.98-2.735,346.1-0.217
				c0.692,0.015,1.382,0.03,2.074,0.047c0.439-0.593,0.877-1.184,1.315-1.771c3.685-4.936,7.354-9.681,10.998-14.218
				c0.253-0.314,0.506-0.627,0.759-0.939c0.054-0.421,0.109-0.84,0.163-1.262c1.391-10.652,2.764-21.138,4.117-31.456
				c0.058-0.444,0.117-0.89,0.176-1.335c-0.067-0.16-0.134-0.32-0.2-0.479c0.151-0.922,0.302-1.841,0.452-2.759
				c1.401-8.553,2.788-16.958,4.152-25.205c0.079-0.478,0.158-0.954,0.237-1.428c-0.229-0.534-0.456-1.071-0.688-1.606
				c-2.691-6.324-5.372-12.808-8.043-19.44C427.898,272.572,427.51,271.606,427.12,270.633L427.12,270.633z" />
				<path fill="#C2A880" d="M441.974,293.618c-0.229-0.529-0.457-1.061-0.687-1.594c-2.69-6.271-5.37-12.709-8.037-19.298
				c-0.388-0.959-0.775-1.921-1.163-2.886c-0.529-1.316-1.058-2.641-1.586-3.968c-1.109-0.521-2.222-1.04-3.335-1.551
				c-0.815-0.377-1.634-0.749-2.451-1.119c-15.324-6.938-30.952-12.938-46.799-18.018c0.806,1.923,0.549,4.156-0.756,5.854
				c-0.271,0.351-0.591,0.693-0.946,1.003c16.398,4.906,32.578,10.748,48.45,17.531c0.818,0.352,1.639,0.705,2.456,1.059
				c0.39,0.974,0.778,1.939,1.166,2.906c2.671,6.633,5.352,13.116,8.043,19.44c0.231,0.535,0.459,1.072,0.688,1.606
				c-0.079,0.474-0.158,0.95-0.237,1.428c-1.364,8.247-2.751,16.652-4.152,25.205c-0.15,0.918-0.301,1.837-0.452,2.759
				c0.066,0.159,0.133,0.319,0.2,0.479c-0.059,0.445-0.118,0.891-0.176,1.335c-1.354,10.318-2.727,20.805-4.117,31.456l-0.163,1.262
				c-0.253,0.313-0.506,0.625-0.759,0.939c-3.644,4.537-7.313,9.282-10.998,14.218c-0.438,0.588-0.878,1.179-1.315,1.771
				c-0.692-0.017-1.382-0.032-2.074-0.047c-35.984-0.787-72.047-1.319-108.138-1.6c-0.979,1.475-2.137,2.842-3.177,4.325
				c-0.842,1.199-1.44,2.525-1.953,3.896H417.61c0.6-0.811,1.196-1.62,1.795-2.423c0.438-0.588,0.877-1.174,1.315-1.759
				c3.682-4.905,7.345-9.616,10.983-14.114c0.254-0.313,0.506-0.623,0.758-0.934c0.344-0.422,0.687-0.843,1.031-1.262
				c0.072-0.563,0.146-1.121,0.219-1.683c0.054-0.411,0.109-0.822,0.161-1.233c1.363-10.409,2.708-20.647,4.033-30.713
				c0.058-0.435,0.113-0.867,0.171-1.302c0.078-0.591,0.155-1.181,0.233-1.771c-0.052-0.123-0.104-0.245-0.155-0.367
				c0.046-0.278,0.092-0.558,0.138-0.836c1.376-8.344,2.732-16.529,4.068-24.557c0.08-0.463,0.156-0.928,0.233-1.389
				c0.104-0.631,0.21-1.262,0.315-1.891C442.599,295.063,442.285,294.342,441.974,293.618z" />
				<path fill="#C2A880" d="M187.083,373.776c-40.192,0.3-80.352,0.905-120.41,1.832c-1.084,0.024-2.166,0.05-3.249,0.077
				c-0.309-1.111-0.616-2.219-0.926-3.32c-3.442-12.322-6.835-24.172-10.167-35.507c-0.085-0.288-0.169-0.575-0.254-0.861
				c0.041-0.321,0.081-0.642,0.123-0.964c2.435-19.193,4.806-38.964,7.127-59.278c0.158-1.386,0.316-2.776,0.474-4.167
				c1.203-0.529,2.404-1.053,3.609-1.572c17.034-7.33,34.424-13.569,52.063-18.733c-1.077-2.335-2.434-4.813-4.734-5.788
				c-0.073-0.031-0.141-0.064-0.205-0.1c-15.977,5.149-31.73,11.234-47.172,18.274c-1.202,0.547-2.401,1.101-3.6,1.66
				c-1.634,0.762-3.264,1.535-4.891,2.32c-0.217,1.871-0.436,3.735-0.655,5.596c-0.16,1.365-0.32,2.729-0.481,4.086
				c-2.356,19.917-4.768,39.272-7.25,58.034l-0.125,0.939c-0.057,0.428-0.113,0.854-0.169,1.281
				c0.113,0.381,0.228,0.762,0.341,1.145c0.083,0.279,0.167,0.56,0.251,0.84c3.296,11.058,6.658,22.643,10.074,34.716
				c0.306,1.08,0.612,2.165,0.917,3.254c0.418,1.483,0.837,2.976,1.256,4.473h132.816
				C190.241,379.28,188.794,376.446,187.083,373.776z" />
				<path fill="#FFFFFF" d="M412.825,370.535c3.688-4.959,7.359-9.729,11.009-14.295c1.409-10.824,2.8-21.489,4.175-31.987
				c-0.737-1.8-1.475-3.611-2.209-5.437c0.889,0.213,1.777,0.429,2.666,0.645c1.419-8.706,2.822-17.266,4.208-25.672
				c-2.692-6.36-5.374-12.878-8.048-19.541c-115.295-47.151-245.976-47.01-361.179,0.423c-2.298,20.598-4.643,40.666-7.047,60.168
				c3.358,11.534,6.773,23.571,10.233,36.073C181.521,366.298,297.859,366.171,412.825,370.535z" />
			</g>
			<g>
				<g>
					<g>
						<path fill="#C2A880" d="M71.868,362.124c-2.728-9.941-5.477-19.768-8.17-29.206l-0.032-0.113l0.014-0.117
						c1.932-16.506,3.902-34.025,5.858-52.071l0.04-0.366l0.346-0.125c3.776-1.368,7.638-2.713,11.477-3.999l0.87-0.292
						l-0.096,0.913c-1.692,16.198-3.395,32.058-5.061,47.139c0.52,2.158,1.041,4.326,1.562,6.506
						c1.08-2.559,2.159-5.141,3.236-7.746c1.657-15.44,3.344-31.579,5.014-47.965l0.039-0.385l0.368-0.118
						c3.812-1.223,7.67-2.411,11.467-3.533l0.839-0.248l-0.084,0.871c-1.658,17.124-3.3,33.75-4.882,49.417
						c0.525,2.268,1.051,4.544,1.578,6.832c0.953-2.604,1.904-5.228,2.855-7.868c1.6-15.956,3.212-32.354,4.929-50.128l0.039-0.401
						l0.388-0.11c3.913-1.106,7.851-2.169,11.704-3.159l0.812-0.208l-0.077,0.835c-1.946,21.072-3.754,40.352-5.528,58.938
						l-0.009,0.09l-0.035,0.084c-5.385,12.784-10.408,24.282-15.354,35.148l-0.147,0.324c0,0-4.159,0.248-6.059,0.366l-0.492,0.031
						l-0.118-0.479c-1.173-4.757-2.344-9.466-3.512-14.125c-2.336,5.128-4.682,10.16-6.983,14.98l-0.149,0.313l-0.344,0.022
						c-1.898,0.127-3.796,0.254-5.692,0.386l-0.482,0.033L71.868,362.124z" />
						<path d="M116.313,266.422c-1.839,19.917-3.68,39.568-5.528,58.938c-5.107,12.124-10.216,23.86-15.347,35.134
						c-1.902,0.113-3.805,0.228-5.705,0.346c-1.311-5.315-2.62-10.572-3.923-15.766c-2.551,5.625-5.111,11.132-7.677,16.509
						c-1.898,0.127-3.797,0.254-5.694,0.386c-2.751-10.026-5.477-19.769-8.171-29.212c1.987-16.979,3.937-34.345,5.858-52.076
						c3.806-1.378,7.627-2.709,11.463-3.994c-1.673,16.014-3.362,31.766-5.072,47.238c0.667,2.767,1.334,5.55,2.003,8.353
						c1.326-3.126,2.649-6.287,3.971-9.483c1.69-15.755,3.364-31.777,5.023-48.053c3.806-1.221,7.623-2.397,11.454-3.529
						c-1.621,16.74-3.25,33.247-4.892,49.512c0.681,2.938,1.362,5.892,2.046,8.863c1.189-3.241,2.377-6.509,3.564-9.806
						c1.654-16.502,3.298-33.241,4.937-50.203C108.508,268.479,112.404,267.426,116.313,266.422 M117.643,264.861l-1.624,0.417
						c-3.857,0.991-7.8,2.055-11.718,3.163l-0.776,0.219l-0.078,0.804c-1.714,17.742-3.324,34.118-4.921,50.054
						c-0.716,1.986-1.431,3.961-2.147,5.926c-0.37-1.604-0.739-3.202-1.109-4.797c1.579-15.64,3.219-32.233,4.873-49.322
						l0.168-1.741l-1.678,0.495c-3.801,1.123-7.664,2.313-11.48,3.538l-0.735,0.235l-0.079,0.769
						c-1.667,16.356-3.351,32.463-5.004,47.878c-0.827,2.001-1.665,4.009-2.503,6.004c-0.373-1.557-0.746-3.107-1.118-4.654
						c1.663-15.053,3.361-30.878,5.05-47.039l0.19-1.825l-1.74,0.583c-3.843,1.287-7.709,2.634-11.49,4.003l-0.693,0.251
						l-0.079,0.732c-1.956,18.045-3.926,35.563-5.857,52.066l-0.027,0.233l0.065,0.228c2.692,9.436,5.44,19.261,8.168,29.2
						l0.256,0.933l0.965-0.067c1.896-0.132,3.793-0.259,5.69-0.386l0.689-0.046l0.297-0.623c2.072-4.342,4.181-8.855,6.287-13.457
						c1.045,4.18,2.085,8.366,3.102,12.488l0.236,0.956l0.983-0.061c1.899-0.118,3.801-0.232,5.702-0.346l0.709-0.042l0.295-0.647
						c4.949-10.872,9.973-22.374,15.36-35.165l0.07-0.166l0.017-0.18c1.774-18.584,3.582-37.864,5.529-58.941L117.643,264.861
						L117.643,264.861z" />
					</g>
				</g>
				<g>
					<g>
						<path fill="#C2A880" d="M110.127,359.574c2.874-28.835,5.854-59.614,9.111-94.097l0.04-0.416l0.405-0.102
						c3.881-0.968,7.846-1.907,11.787-2.793l0.793-0.178l-0.076,0.809c-3.321,35.477-6.323,66.975-9.179,96.297l-0.049,0.508
						l-0.51,0.024c-3.902,0.188-7.803,0.389-11.704,0.596l-0.687,0.036L110.127,359.574z" />
						<path d="M131.6,262.743c-3.064,32.732-6.117,64.86-9.178,96.294c-3.903,0.188-7.805,0.389-11.707,0.596
						c3.053-30.639,6.083-62.036,9.111-94.1C123.741,264.557,127.666,263.627,131.6,262.743 M132.927,261.234l-1.586,0.356
						c-3.946,0.887-7.916,1.828-11.8,2.797l-0.811,0.202l-0.079,0.832c-3.257,34.48-6.237,65.259-9.111,94.094l-0.137,1.369
						l1.374-0.073c3.899-0.207,7.799-0.406,11.701-0.595l1.019-0.05l0.099-1.016c2.855-29.323,5.858-60.822,9.179-96.298
						L132.927,261.234L132.927,261.234z" />
					</g>
				</g>
				<g>
					<g>
						<path fill="#C2A880" d="M131.329,358.819c-1.57-3.846-3.14-7.655-4.708-11.431l-0.056-0.136l0.014-0.146
						c2.405-25.964,4.946-53.818,7.769-85.154l0.039-0.432l0.424-0.093c3.842-0.836,7.832-1.654,11.859-2.432l0.772-0.148
						l-0.073,0.783c-2.306,24.771-4.599,49.255-6.881,73.419c5.75-0.478,11.535-0.92,17.205-1.313l0.692-0.048l-2.44,26.538
						l-0.52,0.019c-7.813,0.275-15.728,0.592-23.524,0.94l-0.416,0.019L131.329,358.819z" />
						<path d="M146.782,259.577c-2.328,25.01-4.643,49.729-6.948,74.121c5.959-0.499,11.926-0.957,17.9-1.372
						c-0.778,8.475-1.555,16.917-2.329,25.33c-7.849,0.276-15.693,0.59-23.53,0.94c-1.57-3.848-3.141-7.658-4.708-11.435
						c2.585-27.909,5.171-56.315,7.769-85.156C138.875,261.148,142.824,260.341,146.782,259.577 M148.103,258.12l-1.545,0.298
						c-4.033,0.778-8.027,1.597-11.873,2.435l-0.847,0.184l-0.078,0.864c-2.823,31.338-5.364,59.191-7.769,85.152l-0.027,0.292
						l0.112,0.271c1.681,4.049,3.22,7.786,4.706,11.428l0.314,0.771l0.832-0.037c7.793-0.349,15.706-0.665,23.519-0.94l1.038-0.036
						l0.096-1.035c0.774-8.413,1.551-16.855,2.329-25.33l0.127-1.383l-1.385,0.097c-5.441,0.378-10.988,0.8-16.51,1.256
						c2.139-22.64,4.37-46.443,6.815-72.718L148.103,258.12L148.103,258.12z" />
					</g>
				</g>
				<g>
					<g>
						<path fill="#C2A880" d="M157.67,357.503c1.879-20.185,3.769-40.546,5.673-61.066l3.804-40.958l0.457-0.069
						c7.877-1.185,15.902-2.2,23.855-3.019l0.444-0.046l0.165,0.415c1.6,4.036,3.196,8.095,4.79,12.174l0.051,0.131l-0.013,0.14
						c-2.493,26.479-4.953,52.824-7.382,78.995l-0.012,0.124l-0.061,0.108c-2.371,4.262-4.737,8.504-7.099,12.719l-0.164,0.294
						l-0.336,0.008c-7.854,0.194-15.783,0.429-23.565,0.695l-0.671,0.023L157.67,357.503z M177.711,280.945
						c-1.573,16.743-3.134,33.402-4.685,49.97c1.635-0.095,3.27-0.183,4.905-0.27c1.563-16.65,3.136-33.387,4.723-50.199
						C181.006,280.605,179.357,280.772,177.711,280.945z" />
						<path d="M191.52,252.978c1.6,4.035,3.195,8.093,4.789,12.171c-2.493,26.48-4.953,52.825-7.382,78.996
						c-2.371,4.262-4.737,8.503-7.098,12.718c-7.863,0.194-15.72,0.426-23.571,0.695c3.108-33.398,6.248-67.283,9.434-101.564
						C175.61,254.802,183.557,253.797,191.52,252.978 M183.31,279.79c-2.048,0.195-4.096,0.402-6.142,0.619
						c-1.609,17.135-3.207,34.185-4.793,51.135c2.032-0.119,4.063-0.228,6.097-0.336C180.073,314.155,181.684,297.013,183.31,279.79
						 M192.288,251.712l-0.89,0.091c-7.962,0.819-15.997,1.837-23.883,3.022l-0.914,0.138l-0.086,0.921l-3.765,40.541
						c-1.903,20.505-3.792,40.853-5.669,61.023l-0.124,1.335l1.341-0.046c7.777-0.267,15.704-0.501,23.56-0.694l0.672-0.017
						l0.329-0.587c2.36-4.216,4.728-8.458,7.1-12.721l0.12-0.218l0.023-0.247c2.579-27.792,4.993-53.631,7.382-78.995l0.026-0.279
						l-0.103-0.261c-1.595-4.08-3.19-8.14-4.791-12.177L192.288,251.712L192.288,251.712z M178.253,281.482
						c1.249-0.131,2.497-0.257,3.747-0.38c-1.549,16.402-3.083,32.733-4.608,48.98c-1.238,0.066-2.476,0.134-3.713,0.203
						C175.192,314.105,176.718,297.832,178.253,281.482L178.253,281.482z" />
					</g>
				</g>
				<g>
					<g>
						<path fill="#C2A880" d="M218.088,356.34c-2.808-13.451-5.587-26.629-8.262-39.167l-0.019-0.088l0.008-0.09
						c2.044-21.954,4.112-43.976,6.206-66.041l0.048-0.507l0.509-0.027c3.988-0.214,8.051-0.386,12.073-0.511l0.672-0.021
						l-0.065,0.669c-1.898,19.249-3.773,38.48-5.63,57.685l1.596,8.769c1.12-3,2.242-6.002,3.366-9.004
						c1.879-19.224,3.777-38.469,5.696-57.716l0.053-0.521l0.524-0.01c3.214-0.062,6.493-0.092,9.746-0.092l2.849,0.007
						l-0.065,0.647c-1.935,19.214-3.852,38.442-5.75,57.673l1.545,8.697c1.004-2.937,2.009-5.873,3.016-8.805
						c1.94-19.226,3.9-38.438,5.88-57.627l0.056-0.538l0.541,0.009c4.048,0.063,8.112,0.175,12.081,0.331l0.629,0.024l-0.065,0.627
						c-2.23,21.422-4.509,43.599-6.771,65.911l-0.008,0.086l-0.033,0.079c-5.049,12.267-10.311,25.193-16.084,39.519l-0.149,0.369
						l-6.641,0.015l-0.092-0.481c-1.132-5.934-2.269-11.865-3.408-17.792c-2.398,5.995-4.789,11.985-7.17,17.968l-0.147,0.368
						l-0.396,0.004c-1.918,0.014-3.835,0.031-5.752,0.051l-0.484,0.006L218.088,356.34z" />
						<path d="M244.61,250.257c0.731,0,1.463,0.002,2.195,0.005c-1.938,19.241-3.857,38.498-5.759,57.756
						c0.654,3.676,1.308,7.352,1.96,11.029c1.257-3.68,2.516-7.359,3.776-11.033c1.943-19.247,3.905-38.482,5.887-57.693
						c4.024,0.063,8.045,0.173,12.067,0.331c-2.282,21.92-4.539,43.898-6.771,65.913c-5.398,13.115-10.763,26.315-16.086,39.522
						c-1.919,0.004-3.836,0.007-5.754,0.013c-1.258-6.594-2.521-13.185-3.789-19.769c-2.649,6.618-5.289,13.232-7.918,19.836
						c-1.918,0.015-3.836,0.032-5.753,0.052c-2.736-13.108-5.49-26.172-8.263-39.169c2.044-21.954,4.112-43.975,6.206-66.04
						c4.018-0.216,8.038-0.386,12.061-0.511c-1.9,19.276-3.778,38.536-5.638,57.768c0.664,3.651,1.329,7.303,1.994,10.959
						c1.378-3.692,2.76-7.389,4.144-11.085c1.881-19.249,3.782-38.52,5.704-57.792C238.118,250.287,241.365,250.257,244.61,250.257
						 M244.61,249.076c-3.257,0-6.54,0.031-9.759,0.092l-1.049,0.02l-0.104,1.044c-1.877,18.819-3.791,38.211-5.689,57.641
						c-0.864,2.308-1.728,4.616-2.59,6.923l-0.188-1.032l-1.009-5.546c1.957-20.242,3.796-39.086,5.621-57.602l0.132-1.338
						l-1.344,0.042c-4.026,0.125-8.094,0.297-12.087,0.512l-1.016,0.055l-0.097,1.013c-2.031,21.412-4.119,43.632-6.206,66.042
						l-0.017,0.18l0.038,0.176c2.675,12.54,5.454,25.717,8.261,39.164l0.198,0.949l0.97-0.01c1.916-0.02,3.833-0.037,5.75-0.052
						l0.795-0.006l0.293-0.738c2.134-5.359,4.275-10.727,6.422-16.097c1.013,5.269,2.022,10.54,3.028,15.814l0.184,0.962l0.98-0.003
						l4.329-0.01l1.423-0.003l0.796-0.002l0.297-0.737c5.774-14.324,11.035-27.25,16.083-39.515l0.065-0.159l0.018-0.171
						c2.264-22.319,4.541-44.495,6.771-65.91l0.13-1.252l-1.258-0.05c-3.974-0.156-8.043-0.268-12.096-0.332l-1.082-0.017
						l-0.111,1.076c-1.932,18.732-3.908,38.098-5.873,57.561c-0.751,2.189-1.502,4.382-2.253,6.575
						c-0.376-2.121-0.754-4.243-1.131-6.363c1.896-19.2,3.827-38.575,5.742-57.592l0.13-1.294l-1.3-0.005
						C246.077,249.078,245.344,249.076,244.61,249.076L244.61,249.076z" />
					</g>
				</g>
				<g>
					<g>
						<path fill="#C2A880" d="M280.738,356.935c-5.863-0.085-11.726-0.146-17.588-0.189l-0.415-0.004c0,0-3.145-8.961-4.655-13.251
						l-0.044-0.125l0.014-0.132c2.801-27.128,5.616-53.959,8.366-79.747l0.014-0.128l0.065-0.109
						c2.464-4.173,4.936-8.318,7.408-12.436l0.184-0.307l0.356,0.021c5.918,0.343,11.92,0.793,17.84,1.34l0.379,0.035l4.674,13.525
						l-0.015,0.133c-2.92,25.914-5.837,52.257-8.67,78.295l-0.014,0.126l-0.064,0.109c-2.442,4.159-4.883,8.345-7.315,12.55
						l-0.173,0.3L280.738,356.935z M277.297,329.312c1.854-16.956,3.72-33.862,5.601-50.711c-1.661-0.099-3.321-0.191-4.984-0.278
						c-1.86,16.908-3.711,33.871-5.544,50.87C274.012,329.229,275.654,329.27,277.297,329.312z" />
						<path d="M274.409,251.117c5.946,0.344,11.887,0.79,17.819,1.338c1.506,4.354,3.008,8.701,4.506,13.039
						c-2.921,25.928-5.813,52.038-8.67,78.298c-2.443,4.16-4.885,8.347-7.317,12.553c-5.865-0.085-11.729-0.146-17.592-0.19
						c-1.502-4.283-3.008-8.57-4.519-12.86c2.752-26.647,5.54-53.242,8.366-79.745C269.467,259.378,271.938,255.233,274.409,251.117
						 M277.825,329.916c1.895-17.345,3.804-34.636,5.728-51.868c-2.054-0.123-4.108-0.238-6.165-0.344
						c-1.905,17.305-3.799,34.664-5.675,52.064C273.75,329.813,275.788,329.862,277.825,329.916 M273.765,249.897l-0.368,0.612
						c-2.557,4.259-5.05,8.443-7.41,12.438l-0.13,0.221l-0.027,0.255c-2.75,25.788-5.565,52.619-8.367,79.749l-0.027,0.264
						l0.089,0.25c1.51,4.289,3.016,8.576,4.518,12.858l0.275,0.784l0.83,0.006c6.194,0.047,11.946,0.108,17.583,0.19l0.693,0.01
						l0.347-0.6c2.358-4.079,4.819-8.3,7.313-12.546l0.128-0.218l0.027-0.252c2.833-26.038,5.75-52.38,8.669-78.294l0.03-0.265
						l-0.087-0.253c-1.498-4.338-3-8.685-4.506-13.039l-0.249-0.72l-0.759-0.07c-5.927-0.547-11.936-0.998-17.859-1.341
						L273.765,249.897L273.765,249.897z M273.024,328.617c1.721-15.951,3.541-32.65,5.415-49.676
						c1.268,0.067,2.535,0.138,3.802,0.212c-1.822,16.332-3.662,32.99-5.472,49.554
						C275.521,328.676,274.272,328.646,273.024,328.617L273.024,328.617z" />
					</g>
				</g>
				<g>
					<g>
						<path fill="#C2A880" d="M319.622,357.79c-7.646-0.228-15.579-0.427-23.578-0.591l-0.412-0.008l-4.618-13.387l0.015-0.131
						c3.282-30.296,6.641-60.689,9.979-90.335l0.066-0.585l0.586,0.064c4.035,0.448,8.073,0.944,12.002,1.474l0.576,0.077
						l-0.069,0.578c-2.979,24.952-5.951,50.269-8.835,75.256c5.809,0.281,11.637,0.604,17.335,0.96l0.622,0.038l-0.073,0.62
						c-1.001,8.453-1.999,16.935-2.992,25.447l-0.063,0.538L319.622,357.79z" />
						<path d="M301.595,253.405c4.001,0.444,7.996,0.934,11.988,1.472c-2.993,25.067-5.965,50.375-8.908,75.886
						c5.99,0.287,11.978,0.616,17.957,0.989c-1.001,8.453-1.999,16.936-2.992,25.448c-7.857-0.234-15.719-0.43-23.584-0.591
						c-1.478-4.277-2.956-8.569-4.44-12.872C294.902,313.398,298.23,283.27,301.595,253.405 M300.554,252.102l-0.132,1.172
						c-3.34,29.646-6.698,60.039-9.98,90.337l-0.028,0.263l0.086,0.249l1.545,4.479l2.896,8.394l0.269,0.778l0.823,0.017
						c7.997,0.164,15.929,0.362,23.573,0.591l1.082,0.032l0.126-1.076c0.993-8.512,1.991-16.993,2.992-25.446l0.146-1.239
						l-1.246-0.078c-5.493-0.343-11.109-0.654-16.713-0.929c2.861-24.785,5.809-49.887,8.764-74.628l0.138-1.154l-1.153-0.155
						c-3.933-0.53-7.975-1.026-12.016-1.476L300.554,252.102L300.554,252.102z" />
					</g>
				</g>
				<g>
					<g>
						<path fill="#C2A880" d="M335.997,358.33c-2.001-0.074-4.002-0.145-6.003-0.21l-0.473-0.016l-0.088-0.465
						c-2.368-12.556-4.746-25.239-7.134-38.031l-0.017-0.088l0.011-0.089c2.405-20.664,4.872-41.561,7.332-62.109l0.073-0.614
						l0.61,0.103c3.935,0.662,7.919,1.38,11.842,2.131l0.543,0.104l-0.068,0.549c-2.22,17.839-4.412,35.67-6.517,53.003l1.372,8.352
						c1.068-2.644,2.138-5.271,3.207-7.886c2.206-17.209,4.491-34.845,6.795-52.421l0.082-0.628l0.621,0.127
						c3.997,0.817,7.979,1.683,11.836,2.57l0.523,0.12l-0.071,0.533c-2.629,19.621-5.25,39.44-7.789,58.908l-0.012,0.091
						l-0.038,0.083c-5.245,11.244-10.654,23.198-16.077,35.53l-0.161,0.367L335.997,358.33z" />
						<path d="M330.212,257.393c3.949,0.665,7.894,1.375,11.828,2.129c-2.181,17.528-4.358,35.23-6.527,53.089
						c0.576,3.514,1.152,7.019,1.729,10.514c1.34-3.327,2.681-6.629,4.023-9.908c2.266-17.682,4.535-35.185,6.804-52.496
						c3.95,0.809,7.892,1.663,11.821,2.567c-2.595,19.363-5.193,39.008-7.789,58.91c-5.362,11.495-10.729,23.367-16.082,35.543
						c-2.001-0.074-4.003-0.145-6.005-0.21c-2.368-12.556-4.746-25.238-7.134-38.03
						C325.312,298.614,327.757,277.904,330.212,257.393 M329.187,256.022l-0.146,1.229c-2.46,20.552-4.928,41.449-7.333,62.111
						l-0.021,0.178l0.032,0.176c2.518,13.484,4.852,25.925,7.135,38.032l0.176,0.931l0.945,0.03c2.001,0.065,4.001,0.136,6,0.21
						l0.802,0.03l0.323-0.734c5.42-12.329,10.827-24.279,16.071-35.52l0.077-0.165l0.023-0.182
						c2.539-19.466,5.159-39.285,7.788-58.905l0.144-1.066l-1.049-0.241c-3.861-0.889-7.849-1.755-11.85-2.573l-1.242-0.255
						l-0.165,1.258c-2.3,17.552-4.582,35.163-6.784,52.346c-0.798,1.948-1.595,3.904-2.391,5.868
						c-0.339-2.062-0.679-4.127-1.018-6.194c2.103-17.309,4.291-35.113,6.507-52.919l0.137-1.097l-1.086-0.208
						c-3.927-0.753-7.915-1.471-11.854-2.134L329.187,256.022L329.187,256.022z" />
					</g>
				</g>
				<g>
					<g>
						<path fill="#C2A880" d="M381.996,360.418c-7.676-0.42-15.575-0.814-23.478-1.172l-0.392-0.018l-0.136-0.368
						c-1.449-3.928-2.9-7.89-4.351-11.882l-0.049-0.134l0.018-0.142c2.962-23.503,6.026-47.443,9.11-71.158l0.02-0.15l0.089-0.122
						c2.434-3.326,4.887-6.613,7.292-9.768l0.236-0.311l0.378,0.096c7.805,1.971,15.644,4.147,23.3,6.472l0.48,0.146l-0.138,1.02
						c-0.934,6.954-1.875,13.961-2.815,21.016l-0.086,0.646l-0.635-0.15c-5.483-1.3-11.092-2.547-16.681-3.711l-1.521,9.916
						c5.688,1.022,11.465,2.136,17.178,3.312l0.54,0.111l-0.074,0.547c-0.992,7.275-1.984,14.606-2.979,21.99l-0.079,0.59
						l-0.59-0.085c-5.708-0.815-11.482-1.589-17.171-2.302l-1.175,10.18c5.626,0.559,11.277,1.159,16.807,1.786l0.599,0.068
						l-0.08,0.597c-0.997,7.438-1.998,14.928-3.001,22.469l-0.071,0.541L381.996,360.418z" />
						<path d="M370.59,265.862c7.801,1.97,15.563,4.124,23.272,6.464c-0.957,7.125-1.922,14.307-2.886,21.538
						c-5.747-1.362-11.516-2.642-17.306-3.841c-0.567,3.687-1.135,7.387-1.703,11.1c5.928,1.061,11.838,2.198,17.729,3.41
						c-0.992,7.276-1.984,14.607-2.979,21.991c-5.911-0.845-11.837-1.638-17.773-2.377c-0.436,3.778-0.873,7.568-1.312,11.367
						c5.809,0.574,11.606,1.188,17.396,1.845c-0.997,7.438-1.998,14.928-3.001,22.469c-7.818-0.428-15.646-0.817-23.483-1.172
						c-1.449-3.927-2.899-7.888-4.35-11.879c3.036-24.095,6.076-47.826,9.109-71.156
						C365.737,272.296,368.166,269.042,370.59,265.862 M370.123,264.526l-0.473,0.62c-2.407,3.158-4.862,6.447-7.299,9.777
						l-0.179,0.244l-0.039,0.301c-3.083,23.712-6.147,47.653-9.11,71.161l-0.035,0.282l0.098,0.269
						c1.45,3.993,2.901,7.956,4.352,11.885l0.271,0.735l0.782,0.035c7.902,0.357,15.8,0.751,23.473,1.171l1.091,0.06l0.145-1.083
						c1.002-7.54,2.003-15.029,3-22.467l0.16-1.194l-1.197-0.136c-5.336-0.605-10.786-1.186-16.218-1.729l1.037-8.991
						c5.494,0.691,11.063,1.439,16.57,2.227l1.179,0.168l0.158-1.18c0.994-7.383,1.986-14.713,2.979-21.989l0.149-1.094
						l-1.081-0.222c-5.528-1.138-11.116-2.217-16.627-3.213c0.447-2.918,0.894-5.828,1.34-8.731
						c5.382,1.126,10.777,2.329,16.056,3.58l1.271,0.302l0.172-1.294c0.938-7.03,1.875-14.013,2.806-20.941l0.08-0.596l0.134-0.995
						l-0.961-0.292c-7.664-2.326-15.513-4.506-23.326-6.479L370.123,264.526L370.123,264.526z" />
					</g>
				</g>
				<g>
					<g>
						<path fill="#C2A880" d="M409.129,362.053c-5.916-0.39-11.84-0.758-17.768-1.104l-0.376-0.021l-0.139-0.35
						c-1.455-3.67-2.905-7.378-4.357-11.127l-0.054-0.141l0.02-0.149c0.852-6.496,1.698-12.952,2.546-19.372l0.077-0.589
						l0.589,0.081c3.854,0.533,7.789,1.102,11.697,1.688l0.566,0.085l-0.896,7.51c1.49,0.188,2.979,0.38,4.467,0.574
						c0.542-3.355,1.884-11.608,1.884-11.608c-3.687-0.644-7.52-1.286-11.403-1.913l-0.346-0.056l-0.117-0.33
						c-1.335-3.761-2.67-7.56-4.003-11.396l-0.046-0.131l0.018-0.138c1.295-10.101,2.582-20.101,3.863-30l0.022-0.17l0.11-0.132
						c2.403-2.882,4.831-5.712,7.214-8.411l0.256-0.291l0.369,0.12c5.679,1.846,11.378,3.811,16.94,5.838l0.247,0.09l0.099,0.244
						c1.559,3.859,3.119,7.672,4.683,11.432l0.064,0.155l-0.026,0.166c-0.906,5.551-1.817,11.16-2.735,16.828l-0.104,0.644
						l-0.63-0.168c-3.749-0.997-7.604-1.986-11.459-2.938l-0.531-0.132l1.197-7.122c-1.485-0.404-2.972-0.806-4.461-1.2
						c-0.603,3.772-1.205,7.564-1.811,11.379c3.69,0.813,7.404,1.662,11.048,2.526l0.302,0.071l0.112,0.289
						c1.444,3.716,2.891,7.387,4.34,11.007l0.058,0.144l-0.021,0.152c-1.196,9.216-2.406,18.547-3.625,27.987l-0.021,0.161
						l-0.101,0.128c-2.372,3.022-4.811,6.203-7.247,9.456l-0.192,0.257L409.129,362.053z" />
						<path d="M403.141,275.242c5.669,1.843,11.312,3.786,16.921,5.831c1.56,3.861,3.121,7.676,4.686,11.438
						c-0.906,5.551-1.817,11.16-2.735,16.828c-3.813-1.015-7.635-1.994-11.469-2.941c0.399-2.378,0.797-4.749,1.195-7.109
						c-1.868-0.51-3.737-1.015-5.611-1.509c-0.666,4.166-1.332,8.356-2.001,12.573c3.869,0.85,7.729,1.73,11.582,2.644
						c1.444,3.718,2.892,7.391,4.342,11.013c-1.197,9.216-2.407,18.547-3.626,27.988c-2.411,3.071-4.829,6.228-7.256,9.467
						c-5.918-0.39-11.843-0.758-17.772-1.104c-1.454-3.668-2.904-7.375-4.355-11.122c0.852-6.496,1.698-12.952,2.546-19.372
						c3.902,0.54,7.799,1.103,11.69,1.687c-0.298,2.502-0.597,5.009-0.896,7.522c1.873,0.236,3.744,0.477,5.613,0.723
						c0.69-4.276,1.383-8.527,2.069-12.75c-3.987-0.698-7.981-1.368-11.986-2.015c-1.335-3.76-2.669-7.558-4.002-11.393
						c1.295-10.101,2.582-20.101,3.863-29.999C398.348,280.751,400.748,277.952,403.141,275.242 M402.769,273.88l-0.513,0.581
						c-2.387,2.703-4.817,5.537-7.225,8.424l-0.221,0.264l-0.044,0.341c-1.281,9.898-2.568,19.899-3.863,30l-0.035,0.275
						l0.091,0.263c1.333,3.834,2.68,7.67,4.005,11.4l0.233,0.658l0.69,0.112c3.68,0.594,7.314,1.202,10.822,1.812l-0.167,1.022
						c-0.509,3.134-1.021,6.282-1.532,9.445c-1.106-0.145-2.213-0.287-3.319-0.428l0.758-6.358l0.135-1.138l-1.133-0.17
						c-3.909-0.587-7.848-1.154-11.703-1.688l-1.177-0.162l-0.156,1.178c-0.848,6.42-1.694,12.877-2.546,19.373l-0.039,0.299
						l0.109,0.281c1.529,3.949,2.955,7.59,4.358,11.131l0.277,0.699l0.751,0.044c5.906,0.346,11.883,0.717,17.765,1.104l0.639,0.042
						l0.384-0.512c2.434-3.249,4.869-6.428,7.239-9.445l0.2-0.256l0.042-0.322c1.219-9.441,2.429-18.772,3.626-27.987l0.04-0.306
						l-0.115-0.285c-1.416-3.538-2.875-7.239-4.337-11.002l-0.225-0.578l-0.604-0.143c-3.469-0.822-7-1.632-10.514-2.409
						c0.541-3.411,1.081-6.806,1.62-10.184c1.104,0.295,2.207,0.592,3.31,0.892l-0.75,4.457l-0.268,1.599l-0.182,1.079l1.063,0.263
						c3.852,0.951,7.703,1.939,11.448,2.936l1.261,0.336l0.209-1.288c0.917-5.667,1.828-11.276,2.734-16.826l0.055-0.333
						l-0.13-0.311c-1.518-3.649-3.092-7.493-4.681-11.427l-0.196-0.487l-0.494-0.18c-5.569-2.03-11.275-3.997-16.96-5.845
						L402.769,273.88L402.769,273.88z" />
					</g>
				</g>
			</g>
			<g>
				<path fill="#A08B70" d="M72.438,361.968c1.897-0.132,3.795-0.259,5.694-0.386c2.566-5.377,5.126-10.884,7.677-16.509
				c1.304,5.193,2.612,10.45,3.923,15.766c1.9-0.118,3.803-0.232,5.705-0.346c5.131-11.273,10.24-23.01,15.347-35.134
				c0.695-7.291,1.391-14.625,2.084-21.996c-3.975,0.659-7.894,1.348-11.753,2.066c-0.476,4.8-0.952,9.588-1.43,14.351
				c-1.188,3.297-2.375,6.564-3.564,9.806c-0.684-2.972-1.366-5.926-2.046-8.863c0.476-4.72,0.952-9.461,1.426-14.221
				c-3.909,0.769-7.754,1.564-11.532,2.391c-0.491,4.656-0.985,9.291-1.479,13.9c-1.321,3.196-2.645,6.357-3.971,9.483
				c-0.669-2.803-1.336-5.586-2.003-8.353c0.501-4.537,1.001-9.104,1.5-13.689c-3.903,0.903-7.731,1.834-11.478,2.801
				c-0.751,6.63-1.508,13.205-2.271,19.721C66.96,342.199,69.686,351.941,72.438,361.968z" />
				<path fill="#A08B70" d="M122.421,359.037c1.857-19.082,3.713-38.424,5.57-57.997c-3.956,0.56-7.862,1.149-11.718,1.768
				c-1.847,19.208-3.699,38.158-5.559,56.825C114.616,359.426,118.518,359.226,122.421,359.037z" />
				<path fill="#A08B70" d="M131.875,358.597c7.837-0.351,15.681-0.664,23.53-0.94c0.774-8.413,1.551-16.855,2.329-25.33
				c-5.975,0.415-11.941,0.873-17.9,1.372c1.084-11.471,2.17-23.019,3.259-34.632c-3.926,0.47-7.809,0.968-11.648,1.491
				c-1.427,15.679-2.852,31.221-4.277,46.604C128.735,350.938,130.306,354.749,131.875,358.597z" />
				<path fill="#A08B70" d="M181.829,356.862c2.36-4.215,4.727-8.456,7.098-12.718c1.522-16.405,3.058-32.887,4.606-49.42
				c-3.929,0.212-7.829,0.452-11.7,0.718c-1.126,11.962-2.247,23.888-3.361,35.766c-2.033,0.108-4.064,0.217-6.097,0.336
				c1.108-11.839,2.222-23.729,3.341-35.659c-3.974,0.303-7.914,0.632-11.821,0.989c-1.891,20.389-3.77,40.626-5.637,60.684
				C166.109,357.288,173.966,357.057,181.829,356.862z" />
				<path fill="#A08B70" d="M218.666,356.219c1.917-0.02,3.835-0.037,5.753-0.052c2.629-6.604,5.269-13.218,7.918-19.836
				c1.268,6.584,2.531,13.175,3.789,19.769c1.918-0.006,3.835-0.009,5.754-0.013c5.323-13.207,10.688-26.407,16.086-39.522
				c0.773-7.624,1.554-15.239,2.332-22.856c-3.99-0.092-8.006-0.156-12.042-0.195c-0.49,4.834-0.985,9.665-1.473,14.501
				c-1.261,3.674-2.52,7.354-3.776,11.033c-0.652-3.678-1.306-7.354-1.96-11.029c0.479-4.847,0.962-9.691,1.441-14.538
				c-0.787-0.002-1.572-0.005-2.361-0.005c-3.188,0-6.36,0.02-9.521,0.054c-0.48,4.871-0.961,9.744-1.437,14.612
				c-1.384,3.696-2.766,7.393-4.144,11.085c-0.665-3.656-1.33-7.308-1.994-10.959c0.471-4.88,0.946-9.767,1.421-14.65
				c-3.984,0.071-7.949,0.168-11.888,0.291c-0.723,7.722-1.445,15.437-2.162,23.143C213.176,330.047,215.93,343.11,218.666,356.219z
				" />
				<path fill="#A08B70" d="M263.155,356.154c5.863,0.044,11.727,0.105,17.592,0.19c2.433-4.206,4.874-8.393,7.317-12.553
				c1.772-16.288,3.56-32.512,5.357-48.678c-3.869-0.24-7.769-0.457-11.695-0.646c-1.307,11.79-2.607,23.605-3.901,35.447
				c-2.037-0.054-4.075-0.103-6.112-0.147c1.28-11.882,2.571-23.734,3.868-35.575c-3.901-0.16-7.829-0.29-11.781-0.398
				c-1.734,16.475-3.455,32.975-5.163,49.499C260.147,347.584,261.653,351.871,263.155,356.154z" />
				<path fill="#A08B70" d="M296.056,356.609c7.865,0.161,15.727,0.356,23.584,0.591c0.993-8.513,1.991-16.995,2.992-25.448
				c-5.979-0.373-11.967-0.702-17.957-0.989c1.335-11.561,2.674-23.076,4.018-34.551c-3.893-0.317-7.821-0.608-11.777-0.873
				c-1.779,16.068-3.545,32.202-5.3,48.398C293.1,348.04,294.578,352.332,296.056,356.609z" />
				<path fill="#A08B70"
					d="M330.014,357.53c2.002,0.065,4.004,0.136,6.005,0.21c5.354-12.176,10.72-24.048,16.082-35.543
				c0.909-6.963,1.816-13.893,2.726-20.79c-3.899-0.567-7.845-1.107-11.837-1.619c-0.574,4.464-1.149,8.939-1.725,13.428
				c-1.343,3.279-2.684,6.581-4.023,9.908c-0.576-3.495-1.152-7-1.729-10.514c0.55-4.524,1.099-9.039,1.649-13.544
				c-3.872-0.464-7.783-0.9-11.737-1.31c-0.849,7.229-1.698,14.472-2.545,21.743C325.268,332.292,327.646,344.975,330.014,357.53z" />
				<path fill="#A08B70" d="M358.545,358.656c7.837,0.354,15.665,0.744,23.483,1.172c1.003-7.541,2.004-15.03,3.001-22.469
				c-5.789-0.656-11.587-1.271-17.396-1.845c0.438-3.799,0.876-7.589,1.312-11.367c5.937,0.739,11.862,1.532,17.773,2.377
				c0.865-6.412,1.725-12.779,2.587-19.11c-9.436-1.935-19.261-3.688-29.432-5.252c-1.894,14.726-3.787,29.6-5.679,44.615
				C355.646,350.769,357.096,354.729,358.545,358.656z" />
				<path fill="#A08B70"
					d="M396.076,325.032c4.005,0.646,7.999,1.316,11.986,2.015c-0.687,4.223-1.379,8.474-2.069,12.75
				c-1.869-0.246-3.74-0.486-5.613-0.723c0.3-2.514,0.599-5.021,0.896-7.522c-3.892-0.584-7.788-1.146-11.69-1.687
				c-0.848,6.42-1.694,12.876-2.546,19.372c1.451,3.747,2.901,7.454,4.355,11.122c5.93,0.347,11.854,0.715,17.772,1.104
				c2.427-3.239,4.845-6.396,7.256-9.467c1.219-9.441,2.429-18.772,3.626-27.988c-1.368-3.418-2.734-6.886-4.099-10.39
				c-7.409-1.952-15.145-3.78-23.172-5.479c-0.234,1.83-0.469,3.661-0.705,5.5C393.407,317.475,394.741,321.272,396.076,325.032z" />
			</g>
		</g>
		<g>
			<path id="a_10_" fill="#C2A880" d="M235.558,401.611c0,0,1.229-3.591,7.036-9.568c-1.363-1.022-2.593-0.681-4.816-0.681
			c-2.22,0-7.174-0.169-7.006-5.636c0.169-5.468,5.117-6.151,5.81-6.151c2.051,0,7.402,1.196,7.911,10.079
			c0,0,0.448-10.312,8.304-10.232c2.846,0.026,5.115,1.707,5.282,5.805c0.161,4.097-5.51,6.942-10.627,6.942
			c3.929,2.22,9.371-0.284,9.133,7.233c-0.14,4.307-4.461,6.255-6.835,5.75c-2.612-0.55-5.808-1.054-5.635-12.672
			c-2.051,2.05-5.116,6.577-5.979,9.131" />
		</g>
		<g>
			<path d="M269.542,245.525c-25.347-1.47-50.81-0.956-76.158,1.541c-0.142-6.883-0.284-13.765-0.426-20.647
			c25.347-2.52,50.811-3.056,76.159-1.608C269.259,231.716,269.4,238.62,269.542,245.525z" />
			<g>
				<path fill="#C2A880" d="M205.519,241.202c-1.12,0.082-2.239,0.168-3.358,0.258c0.896-4.08,1.793-8.158,2.689-12.233
				c1.12-0.084,2.239-0.164,3.359-0.239c-0.332,1.522-0.664,3.045-0.996,4.568c0.579-0.04,1.158-0.08,1.737-0.118
				c0.332-1.521,0.663-3.043,0.994-4.564c1.12-0.072,2.24-0.141,3.36-0.206c-0.325,1.52-0.65,3.039-0.975,4.559
				c-0.684,0.562-1.367,1.124-2.051,1.688c0.449,0.458,0.898,0.916,1.349,1.375c-0.37,1.523-0.74,3.048-1.11,4.571
				c-1.12,0.071-2.24,0.146-3.359,0.225c0.363-1.526,0.728-3.053,1.091-4.578c-0.572,0.039-1.146,0.079-1.718,0.12
				C206.193,238.151,205.855,239.677,205.519,241.202z" />
				<path fill="#C2A880" d="M212.294,240.75c0.792-3.568,1.585-7.135,2.377-10.699c0.716-0.526,1.432-1.051,2.147-1.573
				c1.667-0.084,3.335-0.158,5.002-0.225c0.443,0.469,0.888,0.938,1.331,1.407c-0.8,3.552-1.6,7.105-2.399,10.661
				c-1.12,0.047-2.24,0.099-3.359,0.153c0.232-1.025,0.466-2.051,0.699-3.076c-0.579,0.027-1.158,0.057-1.737,0.086
				c-0.233,1.026-0.467,2.053-0.7,3.079C214.534,240.622,213.414,240.685,212.294,240.75z M219.382,231.396
				c-0.541,0.024-1.082,0.05-1.622,0.076c-0.234,1.019-0.469,2.037-0.703,3.057c0.58-0.029,1.16-0.057,1.739-0.083
				C218.991,233.429,219.187,232.412,219.382,231.396z" />
				<path fill="#C2A880" d="M228.874,231.062c-0.548,0.015-1.095,0.029-1.643,0.045c-0.165,0.617-0.33,1.234-0.495,1.852
				c1.127-0.034,2.253-0.063,3.379-0.089c0.443,0.482,0.887,0.965,1.33,1.448c-0.295,1.41-0.591,2.819-0.887,4.229
				c-0.677,0.501-1.354,1.004-2.032,1.508c-1.707,0.046-3.413,0.1-5.12,0.163c-0.442-0.472-0.885-0.941-1.327-1.411
				c0.198-0.89,0.396-1.78,0.595-2.669c1.126-0.044,2.253-0.083,3.38-0.118c-0.069,0.357-0.139,0.716-0.208,1.073
				c0.541-0.018,1.083-0.034,1.624-0.05c0.172-0.623,0.344-1.246,0.516-1.869c-1.158,0.031-2.317,0.066-3.477,0.106
				c-0.411-0.473-0.822-0.944-1.233-1.416c0.302-1.414,0.604-2.828,0.906-4.241c0.678-0.511,1.356-1.02,2.034-1.526
				c1.661-0.052,3.322-0.096,4.983-0.131c0.481,0.478,0.963,0.955,1.444,1.433c-0.236,0.887-0.473,1.772-0.709,2.659
				c-1.121,0.021-2.242,0.046-3.363,0.075C228.672,231.775,228.773,231.419,228.874,231.062z" />
				<path fill="#C2A880" d="M238.366,230.91c-0.547,0.004-1.094,0.009-1.641,0.015c-0.166,0.614-0.331,1.228-0.497,1.842
				c1.127-0.012,2.253-0.02,3.38-0.023c0.443,0.491,0.887,0.983,1.329,1.477c-0.296,1.402-0.592,2.806-0.887,4.209
				c-0.678,0.488-1.354,0.978-2.032,1.469c-1.706,0.012-3.412,0.032-5.119,0.062c-0.442-0.479-0.886-0.956-1.329-1.434
				c0.198-0.886,0.397-1.771,0.596-2.658c1.127-0.021,2.254-0.038,3.381-0.052c-0.069,0.355-0.139,0.712-0.209,1.068
				c0.541-0.007,1.082-0.013,1.623-0.018c0.173-0.62,0.345-1.24,0.518-1.86c-1.159,0.009-2.317,0.022-3.477,0.039
				c-0.411-0.479-0.822-0.959-1.234-1.438c0.303-1.409,0.604-2.817,0.907-4.225c0.678-0.498,1.355-0.994,2.032-1.489
				c1.661-0.02,3.322-0.03,4.983-0.032c0.481,0.486,0.963,0.974,1.444,1.462c-0.236,0.882-0.472,1.764-0.708,2.646
				c-1.12,0-2.241,0.003-3.362,0.011C238.165,231.623,238.266,231.267,238.366,230.91z" />
				<path fill="#C2A880"
					d="M250.216,236.943c-0.233,1.004-0.468,2.008-0.702,3.012c-2.246-0.037-4.492-0.059-6.739-0.064
				c-0.442-0.488-0.885-0.977-1.327-1.464c0.7-3.034,1.4-6.067,2.102-9.1c0.671-0.483,1.342-0.966,2.014-1.447
				c2.246,0.02,4.492,0.055,6.738,0.104c-0.228,1.004-0.454,2.007-0.681,3.011c-1.668-0.036-3.335-0.063-5.003-0.082
				c-0.136,0.491-0.272,0.982-0.408,1.474c1.706,0.018,3.411,0.043,5.117,0.078c-0.234,1.003-0.469,2.006-0.703,3.009
				c-1.705-0.031-3.41-0.055-5.115-0.068c-0.099,0.491-0.197,0.982-0.295,1.474C246.881,236.892,248.549,236.913,250.216,236.943z" />
				<path fill="#C2A880" d="M256.633,228.103c-0.701,2.973-1.402,5.947-2.104,8.923c1.705,0.047,3.41,0.102,5.114,0.166
				c-0.234,1.004-0.469,2.008-0.703,3.012c-2.244-0.08-4.489-0.146-6.734-0.195c-0.442-0.501-0.886-1.003-1.328-1.503
				c0.793-3.501,1.585-7,2.378-10.497C254.382,228.035,255.508,228.066,256.633,228.103z" />
			</g>
		</g>
	</g>
</svg>
